<svg xmlns="http://www.w3.org/2000/svg" width="40" height="40" viewBox="0 0 40 40" fill="none"><path d="M26.3455 13.6544C26.587 13.8959 26.587 14.2874 26.3455 14.5289C26.104 14.7704 25.7125 14.7704 25.471 14.5289C25.2296 14.2874 25.2296 13.8959 25.471 13.6544C25.7125 13.413 26.104 13.413 26.3455 13.6544Z" stroke="#1254FF" stroke-width="2" stroke-linecap="round" stroke-linejoin="round"></path><path d="M22.52 6.66669H29.8283C31.765 6.66669 33.3333 8.23502 33.3333 10.17V17.4784C33.3333 18.4084 32.9633 19.2984 32.3067 19.9567L18.29 33.9734C16.9217 35.3417 14.7033 35.3417 13.335 33.9734L6.02666 26.665C4.65833 25.2967 4.65833 23.0784 6.02666 21.71L20.0433 7.69335C20.7 7.03669 21.5917 6.66669 22.52 6.66669V6.66669Z" stroke="#1254FF" stroke-width="2" stroke-linecap="round" stroke-linejoin="round"></path><path d="M9.68333 18.0667L21.9333 30.3167" stroke="#1254FF" stroke-width="2" stroke-linecap="round" stroke-linejoin="round"></path></svg>