<svg xmlns="http://www.w3.org/2000/svg" width="48" height="48" viewBox="0 0 48 48" fill="none"><path d="M37.408 36.592C38.646 37.83 38.646 39.836 37.408 41.072C36.17 42.31 34.164 42.31 32.928 41.072C31.69 39.834 31.69 37.828 32.928 36.592C34.166 35.354 36.172 35.354 37.408 36.592Z" stroke="#1254FF" stroke-width="3" stroke-linecap="round" stroke-linejoin="round"></path><path d="M15.408 36.592C16.646 37.83 16.646 39.836 15.408 41.072C14.17 42.31 12.164 42.31 10.928 41.072C9.69199 39.834 9.68999 37.828 10.928 36.592C12.166 35.356 14.17 35.354 15.408 36.592Z" stroke="#1254FF" stroke-width="3" stroke-linecap="round" stroke-linejoin="round"></path><path d="M20 8H28C29.104 8 30 8.896 30 10V30H4" stroke="#1254FF" stroke-width="3" stroke-linecap="round" stroke-linejoin="round"></path><path d="M10 38.832H6C4.896 38.832 4 37.936 4 36.832V26" stroke="#1254FF" stroke-width="3" stroke-linecap="round" stroke-linejoin="round"></path><path d="M30 14H38.646C39.464 14 40.2 14.498 40.502 15.258L43.714 23.286C43.902 23.758 44 24.262 44 24.77V36.666C44 37.77 43.104 38.666 42 38.666H38.338" stroke="#1254FF" stroke-width="3" stroke-linecap="round" stroke-linejoin="round"></path><path d="M32 38.84H16.34" stroke="#1254FF" stroke-width="3" stroke-linecap="round" stroke-linejoin="round"></path><path d="M44 28H36V20H42.4" stroke="#1254FF" stroke-width="3" stroke-linecap="round" stroke-linejoin="round"></path><path d="M4 8H14" stroke="#1254FF" stroke-width="3" stroke-linecap="round" stroke-linejoin="round"></path><path d="M4 14H10" stroke="#1254FF" stroke-width="3" stroke-linecap="round" stroke-linejoin="round"></path><path d="M6 20H4" stroke="#1254FF" stroke-width="3" stroke-linecap="round" stroke-linejoin="round"></path></svg>