<svg xmlns="http://www.w3.org/2000/svg" width="48" height="48" viewBox="0 0 48 48" fill="none"><path d="M42 16.0001H6" stroke="#1254FF" stroke-width="3" stroke-linecap="round" stroke-linejoin="round"></path><path d="M35 25.9999V25.9999C39.9706 25.9999 44 30.0294 44 34.9999C44 39.9705 39.9706 43.9999 35 43.9999C30.0295 43.9999 26 39.9705 26 34.9999V34.9999C26 30.0294 30.0295 25.9999 35 25.9999C35 25.9999 35 25.9999 35 25.9999" stroke="#1254FF" stroke-width="3" stroke-linecap="round" stroke-linejoin="round"></path><path d="M29.346 42H12V42C8.6863 42 6 39.3137 6 36V36V12V12C6 8.6863 8.6863 6 12 6H36V6C39.3137 6 42 8.6863 42 12V29.346" stroke="#1254FF" stroke-width="3" stroke-linecap="round" stroke-linejoin="round"></path><path d="M35.4399 30.58V35.36" stroke="#1254FF" stroke-width="3" stroke-linecap="round" stroke-linejoin="round"></path><path d="M31.54 35.36H35.44" stroke="#1254FF" stroke-width="3" stroke-linecap="round" stroke-linejoin="round"></path><path d="M13.598 23C13.598 23.0552 13.5533 23.1 13.498 23.1C13.4428 23.1 13.398 23.0552 13.398 23C13.398 22.9448 13.4428 22.9 13.498 22.9" stroke="#1254FF" stroke-width="3" stroke-linecap="round" stroke-linejoin="round"></path><path d="M13.498 22.9V22.9C13.5532 22.9 13.598 22.9448 13.598 23" stroke="#1254FF" stroke-width="3" stroke-linecap="round" stroke-linejoin="round"></path><path d="M20.6 23C20.6 23.0552 20.5553 23.1 20.5 23.1C20.4448 23.1 20.4 23.0552 20.4 23C20.4 22.9448 20.4448 22.9 20.5 22.9" stroke="#1254FF" stroke-width="3" stroke-linecap="round" stroke-linejoin="round"></path><path d="M20.5 22.9V22.9C20.5552 22.9 20.6 22.9448 20.6 23V23" stroke="#1254FF" stroke-width="3" stroke-linecap="round" stroke-linejoin="round"></path><path d="M13.598 29C13.598 29.0552 13.5533 29.1 13.498 29.1C13.4428 29.1 13.398 29.0552 13.398 29C13.398 28.9448 13.4428 28.9 13.498 28.9" stroke="#1254FF" stroke-width="3" stroke-linecap="round" stroke-linejoin="round"></path><path d="M13.498 28.9V28.9C13.5532 28.9 13.598 28.9448 13.598 29" stroke="#1254FF" stroke-width="3" stroke-linecap="round" stroke-linejoin="round"></path><path d="M20.6 29C20.6 29.0552 20.5553 29.1 20.5 29.1C20.4448 29.1 20.4 29.0552 20.4 29C20.4 28.9448 20.4448 28.9 20.5 28.9" stroke="#1254FF" stroke-width="3" stroke-linecap="round" stroke-linejoin="round"></path><path d="M20.5 28.9V28.9C20.5552 28.9 20.6 28.9448 20.6 29V29" stroke="#1254FF" stroke-width="3" stroke-linecap="round" stroke-linejoin="round"></path><path d="M27.5979 23C27.5979 23.0552 27.5532 23.1 27.498 23.1C27.4427 23.1 27.398 23.0552 27.398 23C27.398 22.9448 27.4427 22.9 27.498 22.9" stroke="#1254FF" stroke-width="3" stroke-linecap="round" stroke-linejoin="round"></path><path d="M27.498 22.9V22.9C27.5532 22.9 27.598 22.9448 27.598 23V23" stroke="#1254FF" stroke-width="3" stroke-linecap="round" stroke-linejoin="round"></path><path d="M13.598 35C13.598 35.0552 13.5533 35.1 13.498 35.1C13.4428 35.1 13.398 35.0552 13.398 35C13.398 34.9448 13.4428 34.9 13.498 34.9" stroke="#1254FF" stroke-width="3" stroke-linecap="round" stroke-linejoin="round"></path><path d="M13.498 34.9V34.9C13.5532 34.9 13.598 34.9448 13.598 35" stroke="#1254FF" stroke-width="3" stroke-linecap="round" stroke-linejoin="round"></path><path d="M20.6 35C20.6 35.0552 20.5553 35.1 20.5 35.1C20.4448 35.1 20.4 35.0552 20.4 35C20.4 34.9448 20.4448 34.9 20.5 34.9" stroke="#1254FF" stroke-width="3" stroke-linecap="round" stroke-linejoin="round"></path><path d="M20.5 34.9V34.9C20.5552 34.9 20.6 34.9448 20.6 35" stroke="#1254FF" stroke-width="3" stroke-linecap="round" stroke-linejoin="round"></path></svg>