<svg xmlns="http://www.w3.org/2000/svg" width="300" height="300" viewBox="0 0 300 300" fill="none"><path d="M103.5 37C184.385 6.86503 279.285 99.83 271.5 140.5C267.41 161.875 235.34 166.77 228 201.5C222.5 227.585 237.275 240.5 229 250C211.165 270.5 139.67 213.755 97.5 241.415C80.55 252.535 79.795 269.775 68.5 269.5C50.84 269.075 34.53 226.5 31 192.5C26.175 146 39.555 60.825 103.5 37Z" fill="#E8EDF4"></path><path d="M244 194H240.57V190.57C240.57 190.286 240.457 190.014 240.257 189.813C240.056 189.613 239.784 189.5 239.5 189.5C239.216 189.5 238.944 189.613 238.743 189.813C238.543 190.014 238.43 190.286 238.43 190.57V194H235.43C235.283 193.99 235.136 194.01 234.997 194.06C234.858 194.109 234.731 194.186 234.623 194.287C234.515 194.387 234.429 194.509 234.371 194.644C234.312 194.779 234.282 194.925 234.282 195.073C234.282 195.22 234.312 195.366 234.371 195.501C234.429 195.636 234.515 195.758 234.623 195.858C234.731 195.959 234.858 196.036 234.997 196.085C235.136 196.135 235.283 196.155 235.43 196.145H238.43V199.57C238.43 199.854 238.543 200.126 238.743 200.327C238.944 200.527 239.216 200.64 239.5 200.64C239.784 200.64 240.056 200.527 240.257 200.327C240.457 200.126 240.57 199.854 240.57 199.57V196.145H244C244.272 196.126 244.526 196.005 244.712 195.806C244.898 195.607 245.002 195.345 245.002 195.073C245.002 194.8 244.898 194.538 244.712 194.339C244.526 194.14 244.272 194.019 244 194Z" fill="#C1C1C1"></path><path d="M179.215 56.2449C178.931 56.2449 178.659 56.1322 178.458 55.9315C178.258 55.7308 178.145 55.4587 178.145 55.1749V46.6049C178.145 46.3211 178.258 46.049 178.458 45.8483C178.659 45.6476 178.931 45.5349 179.215 45.5349C179.499 45.5349 179.771 45.6476 179.972 45.8483C180.172 46.049 180.285 46.3211 180.285 46.6049V55.1749C180.286 55.3156 180.258 55.455 180.205 55.5852C180.151 55.7153 180.073 55.8335 179.973 55.933C179.874 56.0325 179.755 56.1113 179.625 56.1648C179.495 56.2183 179.356 56.2456 179.215 56.2449Z" fill="#F76120"></path><path d="M183.715 51.745H175.145C174.861 51.745 174.589 51.6323 174.388 51.4316C174.188 51.2309 174.075 50.9588 174.075 50.675C174.075 50.3912 174.188 50.119 174.388 49.9184C174.589 49.7177 174.861 49.605 175.145 49.605H183.715C183.999 49.605 184.271 49.7177 184.472 49.9184C184.672 50.119 184.785 50.3912 184.785 50.675C184.785 50.9588 184.672 51.2309 184.472 51.4316C184.271 51.6323 183.999 51.745 183.715 51.745Z" fill="#F76120"></path><path d="M276.13 150.855C275.928 150.856 275.732 150.786 275.577 150.657C275.421 150.528 275.316 150.349 275.28 150.15C274.28 144.73 273.69 144.15 268.28 143.15C268.082 143.113 267.903 143.007 267.774 142.852C267.646 142.697 267.575 142.502 267.575 142.3C267.575 142.098 267.646 141.903 267.774 141.748C267.903 141.593 268.082 141.487 268.28 141.45C273.7 140.45 274.28 139.865 275.28 134.45C275.314 134.25 275.418 134.069 275.573 133.938C275.729 133.808 275.925 133.736 276.127 133.736C276.33 133.736 276.526 133.808 276.682 133.938C276.837 134.069 276.941 134.25 276.975 134.45C277.975 139.87 278.565 140.45 283.975 141.45C284.173 141.487 284.352 141.593 284.481 141.748C284.609 141.903 284.68 142.098 284.68 142.3C284.68 142.502 284.609 142.697 284.481 142.852C284.352 143.007 284.173 143.113 283.975 143.15C278.555 144.15 277.975 144.735 276.975 150.15C276.939 150.348 276.834 150.527 276.68 150.655C276.526 150.784 276.331 150.855 276.13 150.855ZM272.09 142.295C274.275 143.05 275.37 144.145 276.13 146.335C276.885 144.145 277.98 143.05 280.165 142.295C277.98 141.54 276.885 140.445 276.13 138.255C275.37 140.445 274.275 141.54 272.09 142.295Z" fill="#F76120"></path><path d="M65.2405 52.4858C65.0531 52.485 64.8711 52.423 64.7222 52.3093C64.5733 52.1956 64.4656 52.0364 64.4155 51.8558C62.7655 45.8558 61.6155 44.7208 55.6305 43.0658C55.4494 43.0165 55.2896 42.9091 55.1757 42.76C55.0617 42.6109 55 42.4285 55 42.2408C55 42.0532 55.0617 41.8707 55.1757 41.7216C55.2896 41.5726 55.4494 41.4651 55.6305 41.4158C61.6305 39.7608 62.7655 38.6108 64.4155 32.6258C64.4665 32.4456 64.5749 32.287 64.7243 32.1741C64.8736 32.0611 65.0557 32 65.243 32C65.4303 32 65.6124 32.0611 65.7617 32.1741C65.9111 32.287 66.0195 32.4456 66.0705 32.6258C67.7205 38.6258 68.8705 39.7608 74.8555 41.4158C75.0366 41.4651 75.1964 41.5726 75.3103 41.7216C75.4243 41.8707 75.486 42.0532 75.486 42.2408C75.486 42.4285 75.4243 42.6109 75.3103 42.76C75.1964 42.9091 75.0366 43.0165 74.8555 43.0658C68.8555 44.7208 67.7205 45.8708 66.0705 51.8558C66.0194 52.0368 65.9108 52.1961 65.761 52.3098C65.6112 52.4235 65.4285 52.4853 65.2405 52.4858ZM58.7405 42.2408C62.3605 43.5458 63.9355 45.1208 65.2405 48.7408C66.5455 45.1208 68.1205 43.5458 71.7405 42.2408C68.1205 40.9408 66.5455 39.3658 65.2405 35.7408C63.9255 39.3658 62.3505 40.9408 58.7405 42.2408Z" fill="#F76120"></path><path d="M273.775 218.66H37.275C36.8772 218.66 36.4956 218.502 36.2143 218.221C35.933 217.94 35.775 217.558 35.775 217.16C35.775 216.762 35.933 216.381 36.2143 216.099C36.4956 215.818 36.8772 215.66 37.275 215.66H273.775C274.173 215.66 274.554 215.818 274.836 216.099C275.117 216.381 275.275 216.762 275.275 217.16C275.275 217.558 275.117 217.94 274.836 218.221C274.554 218.502 274.173 218.66 273.775 218.66Z" fill="#1254FF"></path><path d="M29.275 218.66H18.775C18.3772 218.66 17.9956 218.502 17.7143 218.221C17.433 217.94 17.275 217.558 17.275 217.16C17.275 216.762 17.433 216.381 17.7143 216.099C17.9956 215.818 18.3772 215.66 18.775 215.66H29.275C29.6728 215.66 30.0544 215.818 30.3357 216.099C30.617 216.381 30.775 216.762 30.775 217.16C30.775 217.558 30.617 217.94 30.3357 218.221C30.0544 218.502 29.6728 218.66 29.275 218.66Z" fill="#1254FF"></path><path fill-rule="evenodd" clip-rule="evenodd" d="M163.15 55.035L211.59 125.535C212.712 127.173 213.14 129.189 212.778 131.141C212.416 133.094 211.295 134.823 209.66 135.95L93.45 215.805C91.8117 216.929 89.7944 217.357 87.8408 216.995C85.8872 216.634 84.157 215.511 83.03 213.875L34.59 143.4C33.4727 141.763 33.0491 139.75 33.4117 137.801C33.7742 135.852 34.8936 134.126 36.525 133L152.735 53.105C154.373 51.9825 156.389 51.5553 158.341 51.9171C160.294 52.2789 162.023 53.4001 163.15 55.035Z" fill="#F5F9FD"></path><path d="M212.825 124.655L206.775 115.855L203.7 111.355L203.2 110.63L164.385 54.1849C163.033 52.2219 160.958 50.8752 158.615 50.4402C156.271 50.0053 153.851 50.5176 151.885 51.8649L35.675 131.745C33.712 133.097 32.3653 135.172 31.9303 137.515C31.4954 139.859 32.0077 142.279 33.355 144.245L81.795 214.715C82.4611 215.691 83.3147 216.526 84.3061 217.17C85.2975 217.813 86.4069 218.254 87.57 218.465C88.1156 218.569 88.6697 218.62 89.225 218.62C90.9886 218.621 92.7129 218.099 94.18 217.12L94.3 217.04L95.24 216.395L206.775 139.725L210.51 137.16C212.474 135.807 213.82 133.731 214.254 131.386C214.688 129.042 214.174 126.621 212.825 124.655ZM206.775 136.09L92.605 214.59L92.275 214.8C90.9673 215.575 89.414 215.826 87.929 215.5C86.444 215.174 85.138 214.297 84.275 213.045L35.825 142.55C34.9266 141.239 34.5853 139.624 34.8759 138.062C35.1665 136.499 36.0653 135.116 37.375 134.215L153.585 54.3399C154.578 53.6528 155.757 53.2848 156.965 53.2849C157.336 53.2862 157.705 53.3196 158.07 53.3849C158.843 53.5283 159.58 53.8222 160.24 54.2499C160.902 54.6781 161.471 55.2339 161.915 55.8849L199.56 110.655L200.06 111.38L206.775 121.145L210.355 126.355C211.254 127.665 211.597 129.278 211.309 130.841C211.02 132.403 210.123 133.788 208.815 134.69L206.775 136.09Z" fill="#1254FF"></path><path d="M79.2967 136.954L60.3418 149.981L70.8203 165.228L89.7752 152.2L79.2967 136.954Z" fill="#FFB838"></path><path d="M91 151.34L80.525 136.095C80.2961 135.77 79.9503 135.546 79.56 135.47C79.3659 135.434 79.1666 135.437 78.9736 135.478C78.7805 135.519 78.5975 135.598 78.435 135.71L59.5 148.74C59.1718 148.965 58.9464 149.311 58.8732 149.702C58.8001 150.093 58.8852 150.497 59.11 150.825L69.61 166.07C69.7218 166.232 69.8646 166.371 70.0302 166.479C70.1958 166.586 70.3809 166.659 70.575 166.695C70.6641 166.711 70.7545 166.719 70.845 166.72C71.1486 166.72 71.445 166.627 71.695 166.455L90.65 153.43C90.8128 153.318 90.9519 153.175 91.0594 153.01C91.1669 152.844 91.2407 152.659 91.2765 152.465C91.3122 152.271 91.3093 152.071 91.2679 151.878C91.2264 151.685 91.1473 151.502 91.035 151.34H91ZM71.2 163.135L62.42 150.36L78.92 139.03L87.7 151.805L71.2 163.135Z" fill="#1254FF"></path><path fill-rule="evenodd" clip-rule="evenodd" d="M168.585 85.89L101 132.34C100.675 132.564 100.31 132.721 99.9243 132.804C99.5387 132.886 99.1406 132.892 98.7529 132.82C98.3651 132.749 97.9953 132.602 97.6645 132.387C97.3337 132.173 97.0484 131.895 96.825 131.57L89.18 120.445C88.9564 120.12 88.7991 119.754 88.717 119.369C88.635 118.983 88.6298 118.585 88.7018 118.197C88.7737 117.809 88.9215 117.439 89.1365 117.109C89.3516 116.778 89.6297 116.493 89.955 116.27L157.53 69.82C158.186 69.37 158.993 69.1989 159.775 69.3442C160.557 69.4895 161.25 69.9394 161.7 70.595L169.35 81.72C169.801 82.3746 169.974 83.1814 169.83 83.9633C169.687 84.7451 169.239 85.4381 168.585 85.89Z" fill="white"></path><path d="M170.595 80.87L162.95 69.745C162.615 69.2576 162.188 68.841 161.692 68.5189C161.196 68.1968 160.642 67.9755 160.06 67.8678C159.479 67.7601 158.882 67.768 158.304 67.891C157.725 68.0141 157.177 68.2499 156.69 68.585L89.115 115.035C88.132 115.711 87.4577 116.75 87.2402 117.922C87.0227 119.095 87.2798 120.307 87.955 121.29L92.275 127.575L95.6 132.415C95.9349 132.902 96.3626 133.318 96.8585 133.64C97.3543 133.962 97.9087 134.183 98.49 134.29C98.7637 134.341 99.0415 134.368 99.32 134.37C100.227 134.367 101.113 134.09 101.86 133.575L134.15 111.38L135.205 110.655L169.435 87.125C170.418 86.4491 171.092 85.4106 171.31 84.2377C171.527 83.0648 171.27 81.8535 170.595 80.87ZM168.36 83.6901C168.324 83.8841 168.251 84.0692 168.144 84.2348C168.036 84.4004 167.897 84.5432 167.735 84.655L129.905 110.655L128.85 111.38L100.16 131.1C99.8324 131.325 99.4288 131.411 99.0378 131.339C98.6468 131.267 98.3005 131.042 98.075 130.715L92.275 122.275L90.43 119.59C90.2047 119.262 90.1188 118.859 90.191 118.468C90.2632 118.077 90.4876 117.731 90.815 117.505L93.07 115.95L93.7 115.52L99.455 111.565L100.76 110.67L158.385 71.055C158.634 70.8837 158.928 70.7913 159.23 70.79C159.323 70.7826 159.417 70.7826 159.51 70.79C159.704 70.8269 159.888 70.9015 160.053 71.0096C160.217 71.1176 160.359 71.2571 160.47 71.42L168.12 82.545C168.235 82.7101 168.315 82.8965 168.356 83.0932C168.397 83.2899 168.399 83.4929 168.36 83.6901Z" fill="#1254FF"></path><path d="M134.09 99.8799C133.769 99.8812 133.456 99.7793 133.197 99.5893C132.938 99.3993 132.747 99.1312 132.651 98.8244C132.556 98.5176 132.562 98.1884 132.668 97.8851C132.774 97.5819 132.974 97.3207 133.24 97.1399L158.93 79.4999C159.258 79.2894 159.655 79.2146 160.036 79.2914C160.418 79.3682 160.755 79.5906 160.976 79.9115C161.197 80.2324 161.285 80.6267 161.22 81.0109C161.155 81.395 160.944 81.739 160.63 81.9699L134.94 99.6299C134.688 99.7969 134.392 99.8841 134.09 99.8799Z" fill="#1254FF"></path><path d="M106.07 119.14C105.749 119.141 105.436 119.039 105.177 118.849C104.918 118.659 104.727 118.391 104.631 118.084C104.536 117.778 104.542 117.448 104.648 117.145C104.754 116.842 104.954 116.581 105.22 116.4L123.5 103.84C123.828 103.615 124.233 103.529 124.624 103.601C125.015 103.674 125.362 103.899 125.588 104.227C125.813 104.556 125.899 104.96 125.826 105.351C125.753 105.743 125.528 106.09 125.2 106.315L106.925 118.875C106.674 119.048 106.375 119.141 106.07 119.14Z" fill="#1254FF"></path><path opacity="0.16" d="M206.775 115.13V139.725L95.24 216.395H92.275V119.645C92.2743 118.371 92.5453 117.111 93.07 115.95C93.2542 115.551 93.4647 115.166 93.7 114.795C94.3474 113.786 95.19 112.916 96.1783 112.237C97.1666 111.557 98.2806 111.083 99.455 110.84C99.8854 110.753 100.322 110.696 100.76 110.67C100.925 110.67 101.095 110.67 101.26 110.67H203.7L206.775 115.13Z" fill="#1254FF"></path><path d="M245.285 116.66H104.265C100.128 116.66 96.775 120.013 96.775 124.15V209.67C96.775 213.807 100.128 217.16 104.265 217.16H245.285C249.422 217.16 252.775 213.807 252.775 209.67V124.15C252.775 120.013 249.422 116.66 245.285 116.66Z" fill="white"></path><path d="M245.285 218.66H104.285C101.898 218.66 99.6088 217.712 97.921 216.024C96.2332 214.336 95.285 212.047 95.285 209.66V124.16C95.285 121.773 96.2332 119.484 97.921 117.796C99.6088 116.108 101.898 115.16 104.285 115.16H245.285C247.672 115.16 249.961 116.108 251.649 117.796C253.337 119.484 254.285 121.773 254.285 124.16V209.66C254.285 212.047 253.337 214.336 251.649 216.024C249.961 217.712 247.672 218.66 245.285 218.66ZM104.285 118.16C102.694 118.16 101.168 118.792 100.042 119.918C98.9171 121.043 98.285 122.569 98.285 124.16V209.66C98.285 211.251 98.9171 212.778 100.042 213.903C101.168 215.028 102.694 215.66 104.285 215.66H245.285C246.876 215.66 248.402 215.028 249.528 213.903C250.653 212.778 251.285 211.251 251.285 209.66V124.16C251.285 122.569 250.653 121.043 249.528 119.918C248.402 118.792 246.876 118.16 245.285 118.16H104.285Z" fill="#1254FF"></path><path fill-rule="evenodd" clip-rule="evenodd" d="M225.275 180.66C223.51 180.66 221.771 181.085 220.204 181.899C218.638 182.712 217.29 183.891 216.275 185.335C214.931 183.422 213.013 181.987 210.798 181.238C208.583 180.489 206.187 180.465 203.958 181.169C201.729 181.874 199.782 183.271 198.4 185.157C197.018 187.043 196.274 189.32 196.274 191.658C196.274 193.996 197.018 196.273 198.4 198.159C199.782 200.045 201.729 201.441 203.958 202.146C206.187 202.851 208.583 202.827 210.798 202.078C213.013 201.329 214.931 199.893 216.275 197.98C217.361 199.527 218.827 200.768 220.532 201.583C222.236 202.399 224.123 202.761 226.008 202.636C227.894 202.511 229.715 201.901 231.297 200.867C232.879 199.833 234.168 198.409 235.039 196.732C235.91 195.055 236.335 193.182 236.272 191.293C236.209 189.405 235.66 187.564 234.679 185.949C233.698 184.334 232.317 182.999 230.67 182.072C229.023 181.146 227.165 180.66 225.275 180.66Z" fill="#F5F9FD"></path><path d="M225.275 204.16C223.594 204.159 221.931 203.82 220.385 203.162C218.838 202.504 217.441 201.541 216.275 200.33C214.689 201.981 212.679 203.162 210.465 203.745C210.084 203.836 209.682 203.775 209.346 203.574C209.01 203.372 208.765 203.048 208.666 202.669C208.566 202.29 208.618 201.887 208.811 201.546C209.005 201.205 209.324 200.954 209.7 200.845C211.868 200.272 213.763 198.951 215.05 197.115C215.188 196.918 215.372 196.757 215.586 196.646C215.799 196.535 216.037 196.477 216.278 196.477C216.518 196.477 216.756 196.535 216.969 196.646C217.183 196.757 217.367 196.918 217.505 197.115C218.405 198.396 219.607 199.435 221.005 200.139C222.403 200.844 223.953 201.191 225.518 201.152C227.083 201.113 228.614 200.688 229.974 199.914C231.335 199.14 232.484 198.042 233.318 196.718C234.152 195.393 234.646 193.883 234.756 192.322C234.866 190.76 234.588 189.196 233.947 187.768C233.307 186.339 232.323 185.092 231.084 184.135C229.845 183.179 228.389 182.543 226.845 182.285C226.561 182.241 226.297 182.114 226.085 181.92C225.844 182.076 225.562 182.159 225.275 182.16C223.75 182.16 222.247 182.527 220.894 183.23C219.541 183.933 218.377 184.952 217.5 186.2C217.362 186.397 217.178 186.558 216.964 186.669C216.751 186.78 216.513 186.838 216.273 186.838C216.032 186.838 215.794 186.78 215.581 186.669C215.367 186.558 215.183 186.397 215.045 186.2C214.205 185.004 213.1 184.018 211.817 183.318C210.533 182.619 209.106 182.225 207.645 182.168C206.185 182.11 204.73 182.39 203.396 182.986C202.061 183.583 200.882 184.479 199.951 185.605C199.019 186.731 198.36 188.057 198.024 189.48C197.689 190.903 197.686 192.384 198.017 193.807C198.347 195.231 199.002 196.56 199.929 197.689C200.857 198.819 202.033 199.719 203.365 200.32C203.545 200.401 203.706 200.517 203.841 200.66C203.976 200.804 204.081 200.973 204.151 201.157C204.221 201.342 204.253 201.538 204.247 201.735C204.241 201.932 204.196 202.125 204.115 202.305C204.034 202.485 203.918 202.647 203.775 202.781C203.631 202.916 203.462 203.022 203.278 203.091C203.094 203.161 202.897 203.193 202.7 203.187C202.503 203.181 202.31 203.136 202.13 203.055C200.449 202.299 198.955 201.181 197.757 199.78C196.558 198.379 195.685 196.731 195.198 194.952C194.712 193.174 194.625 191.31 194.943 189.495C195.262 187.679 195.978 185.956 197.04 184.449C198.103 182.943 199.485 181.69 201.089 180.781C202.693 179.871 204.478 179.328 206.316 179.189C208.154 179.051 210 179.321 211.722 179.98C213.444 180.638 214.999 181.67 216.275 183C217.441 181.789 218.838 180.826 220.385 180.168C221.931 179.51 223.594 179.171 225.275 179.17C225.566 179.392 225.916 179.526 226.281 179.555C226.646 179.585 227.012 179.508 227.335 179.335C230.436 179.844 233.232 181.502 235.165 183.98C237.099 186.457 238.028 189.572 237.768 192.703C237.508 195.835 236.079 198.754 233.763 200.879C231.448 203.004 228.418 204.179 225.275 204.17V204.16Z" fill="#1254FF"></path><path d="M159.275 176.66H104.275C103.877 176.66 103.496 176.502 103.214 176.221C102.933 175.94 102.775 175.558 102.775 175.16C102.775 174.762 102.933 174.381 103.214 174.099C103.496 173.818 103.877 173.66 104.275 173.66H159.275C159.673 173.66 160.054 173.818 160.336 174.099C160.617 174.381 160.775 174.762 160.775 175.16C160.775 175.558 160.617 175.94 160.336 176.221C160.054 176.502 159.673 176.66 159.275 176.66Z" fill="#1254FF"></path><path d="M135.775 188.16H104.275C103.877 188.16 103.496 188.002 103.214 187.721C102.933 187.44 102.775 187.058 102.775 186.66C102.775 186.262 102.933 185.881 103.214 185.599C103.496 185.318 103.877 185.16 104.275 185.16H135.775C136.173 185.16 136.554 185.318 136.836 185.599C137.117 185.881 137.275 186.262 137.275 186.66C137.275 187.058 137.117 187.44 136.836 187.721C136.554 188.002 136.173 188.16 135.775 188.16Z" fill="#1254FF"></path><path d="M252.775 138.16H96.775V159.66H252.775V138.16Z" fill="#F5F9FD"></path><path d="M252.775 161.16H96.775C96.3772 161.16 95.9957 161.002 95.7144 160.721C95.4331 160.44 95.275 160.058 95.275 159.66V138.16C95.275 137.762 95.4331 137.381 95.7144 137.099C95.9957 136.818 96.3772 136.66 96.775 136.66H141.225C141.623 136.66 142.004 136.818 142.286 137.099C142.567 137.381 142.725 137.762 142.725 138.16C142.725 138.558 142.567 138.94 142.286 139.221C142.004 139.502 141.623 139.66 141.225 139.66H98.275V158.16H251.275V139.66H162.225C161.827 139.66 161.446 139.502 161.164 139.221C160.883 138.94 160.725 138.558 160.725 138.16C160.725 137.762 160.883 137.381 161.164 137.099C161.446 136.818 161.827 136.66 162.225 136.66H252.775C253.173 136.66 253.554 136.818 253.836 137.099C254.117 137.381 254.275 137.762 254.275 138.16V159.66C254.275 160.058 254.117 160.44 253.836 160.721C253.554 161.002 253.173 161.16 252.775 161.16Z" fill="#1254FF"></path></svg>