<svg xmlns="http://www.w3.org/2000/svg" width="48" height="48" viewBox="0 0 48 48" fill="none"><path d="M41.7828 20.314C42.0957 18.4412 41.7944 16.5202 40.9214 14.8229C40.2619 13.5419 39.2984 12.4314 38.1105 11.5831C36.9226 10.7347 35.5441 10.1728 34.0888 9.94344C32.6335 9.71411 31.1429 9.82402 29.7399 10.2641C28.3368 10.7042 27.0615 11.4618 26.019 12.4747L23.4512 14.9693L20.8834 12.4747C19.8411 11.4618 18.5661 10.7041 17.1632 10.2641C15.7604 9.82395 14.27 9.71404 12.8149 9.94338C11.3598 10.1727 9.9816 10.7347 8.79395 11.5831C7.60629 12.4315 6.64317 13.5419 5.98397 14.8229C5.10972 16.5197 4.80738 18.4407 5.11978 20.3138C5.43219 22.1868 6.3435 23.9168 7.72454 25.2585L23.4512 41.1943L27.3828 37.2104" stroke="#1254FF" stroke-width="3" stroke-linecap="round" stroke-linejoin="round"></path><path d="M42.0001 36.4684L37.403 31.8725M39.2695 27.3665C39.2695 30.8853 36.417 33.7378 32.8982 33.7378C29.3794 33.7378 26.5269 30.8853 26.5269 27.3665C26.5269 23.8477 29.3794 20.9952 32.8982 20.9952C36.417 20.9952 39.2695 23.8477 39.2695 27.3665Z" stroke="#1254FF" stroke-width="3" stroke-linecap="round" stroke-linejoin="round"></path></svg>