<svg xmlns="http://www.w3.org/2000/svg" width="40" height="40" viewBox="0 0 40 40" fill="none"><path d="M5.22499 24.9967C4.92332 24.4884 4.92332 23.845 5.22499 23.3367C8.39999 17.965 14.2 13.3334 20 13.3334C25.8 13.3334 31.5983 17.965 34.7733 23.335C35.075 23.845 35.075 24.49 34.7733 25C31.5983 30.3684 25.8 35 20 35C14.2 35 8.39999 30.3684 5.22499 24.9967V24.9967Z" stroke="#1254FF" stroke-width="2" stroke-linecap="round" stroke-linejoin="round"></path><path d="M23.535 20.6317C25.4883 22.585 25.4883 25.75 23.535 27.7034C21.5817 29.6567 18.4167 29.6567 16.4633 27.7034C14.51 25.75 14.51 22.585 16.4633 20.6317C18.4167 18.6784 21.5833 18.6784 23.535 20.6317Z" stroke="#1254FF" stroke-width="2" stroke-linecap="round" stroke-linejoin="round"></path><path d="M20 4.16669V8.33335" stroke="#1254FF" stroke-width="2" stroke-linecap="round" stroke-linejoin="round"></path><path d="M8.33333 7.5L11.1333 10.8333" stroke="#1254FF" stroke-width="2" stroke-linecap="round" stroke-linejoin="round"></path><path d="M31.6667 7.5L28.8667 10.8333" stroke="#1254FF" stroke-width="2" stroke-linecap="round" stroke-linejoin="round"></path></svg>