<svg width="28" height="25" viewBox="0 0 28 25" fill="none" xmlns="http://www.w3.org/2000/svg">
<path d="M2.46503 1.09375L14.001 10.6859L25.537 1.09375C25.6874 0.980678 25.8623 0.920571 26.041 0.920571C26.2197 0.920571 26.3946 0.980678 26.545 1.09375C25.8903 0.425646 25.0605 0.0397458 24.193 0H3.80903C2.95289 0.00894403 2.12431 0.35573 1.45703 0.984375C1.61622 0.88705 1.79599 0.845602 1.97478 0.865002C2.15357 0.884402 2.32379 0.963826 2.46503 1.09375Z" fill="#75CEDE"/>
<path d="M26.656 1.09375C26.724 1.1517 26.7839 1.22183 26.8333 1.30156C26.976 1.53689 27.0335 1.82876 26.9933 2.11354C26.9531 2.39833 26.8184 2.65294 26.6187 2.82188L14.5413 12.9172C14.3833 13.0491 14.194 13.12 14 13.12C13.806 13.12 13.6167 13.0491 13.4587 12.9172L1.38133 2.81094C1.1816 2.642 1.04695 2.38739 1.00674 2.10261C0.966526 1.81782 1.02401 1.52595 1.16667 1.29062C1.21686 1.21478 1.27666 1.14839 1.344 1.09375C0.926446 1.50899 0.590232 2.02489 0.358291 2.60625C0.126351 3.18761 0.00414145 3.82076 0 4.4625V19.6C0 20.7835 0.401199 21.9186 1.11534 22.7555C1.82948 23.5923 2.79806 24.0625 3.808 24.0625H24.192C25.2019 24.0625 26.1705 23.5923 26.8847 22.7555C27.5988 21.9186 28 20.7835 28 19.6V4.4625C27.9959 3.82076 27.8736 3.18761 27.6417 2.60625C27.4098 2.02489 27.0736 1.50899 26.656 1.09375ZM11.928 15.1047L2.464 23.0234C2.30644 23.1571 2.11718 23.2298 1.92267 23.2313C1.77459 23.2304 1.62881 23.1884 1.49735 23.1085C1.3659 23.0286 1.25255 22.9132 1.16667 22.7719C1.02401 22.5366 0.966526 22.2447 1.00674 21.9599C1.04695 21.6751 1.1816 21.4205 1.38133 21.2516L10.8453 13.3328C11.0463 13.1933 11.2845 13.1472 11.5131 13.2036C11.7416 13.2599 11.9438 13.4146 12.0798 13.6371C12.2158 13.8596 12.2756 14.1338 12.2475 14.4055C12.2194 14.6772 12.1054 14.9267 11.928 15.1047ZM26.8613 22.7609C26.7755 22.9023 26.6621 23.0177 26.5306 23.0976C26.3992 23.1774 26.2534 23.2195 26.1053 23.2203C25.9108 23.2188 25.7216 23.1462 25.564 23.0125L16.072 15.1047C15.9607 15.0274 15.8643 14.9239 15.7889 14.8006C15.7136 14.6774 15.6609 14.5371 15.6343 14.3888C15.6076 14.2404 15.6076 14.0871 15.6342 13.9388C15.6608 13.7904 15.7134 13.6501 15.7888 13.5268C15.8641 13.4036 15.9605 13.3 16.0718 13.2227C16.1831 13.1454 16.3069 13.096 16.4353 13.0778C16.5637 13.0596 16.694 13.0728 16.8179 13.1167C16.9417 13.1606 17.0564 13.2342 17.1547 13.3328L26.6187 21.2516C26.8184 21.4205 26.9531 21.6751 26.9933 21.9599C27.0335 22.2447 26.976 22.5366 26.8333 22.7719L26.8613 22.7609Z" fill="#00A6BC"/>
</svg>
