<svg xmlns="http://www.w3.org/2000/svg" width="49" height="55" viewBox="0 0 49 55" fill="none"><path d="M26.4012 0.944731L45.3596 8.05411C46.3923 8.44122 47.2822 9.13434 47.9104 10.0408C48.5386 10.9473 48.8751 12.0239 48.875 13.1268V27.6516C48.8751 32.1784 47.6146 36.6158 45.2348 40.4665C42.855 44.3172 39.4499 47.4292 35.401 49.4537L26.3173 53.9956C25.7531 54.2778 25.1309 54.4247 24.5 54.4247C23.8691 54.4247 23.2469 54.2778 22.6827 53.9956L13.599 49.4537C9.5501 47.4292 6.14499 44.3172 3.76519 40.4665C1.38538 36.6158 0.124902 32.1784 0.125 27.6516V13.1268C0.124863 12.0239 0.461385 10.9473 1.08958 10.0408C1.71778 9.13434 2.60771 8.44122 3.64042 8.05411L22.5988 0.944731C23.8246 0.48522 25.1754 0.48522 26.4012 0.944731ZM24.5 6.01744L5.54167 13.1268V27.6516C5.54229 31.1721 6.52315 34.6228 8.37435 37.6173C10.2256 40.6118 12.874 43.0316 16.0229 44.6058L24.5 48.8497L32.9771 44.6112C36.1268 43.0366 38.7758 40.6159 40.6271 37.6204C42.4783 34.6249 43.4587 31.173 43.4583 27.6516V13.1268L24.5 6.01744ZM24.5 16.6666C25.6561 16.6661 26.782 17.0356 27.7131 17.7209C28.6442 18.4062 29.3316 19.3714 29.6747 20.4754C30.0179 21.5793 29.9989 22.7642 29.6204 23.8566C29.2419 24.9489 28.5239 25.8916 27.5712 26.5466L27.2083 26.7768V35.6249C27.2076 36.3152 26.9432 36.9792 26.4694 37.4811C25.9955 37.9831 25.3478 38.2852 24.6587 38.3256C23.9696 38.3661 23.2911 38.1419 22.7617 37.6988C22.2324 37.2557 21.8922 36.6273 21.8106 35.9418L21.7917 35.6249V26.7768C20.7577 26.1812 19.9494 25.2608 19.4922 24.1587C19.0351 23.0565 18.9546 21.8342 19.2634 20.6817C19.5721 19.5291 20.2528 18.5107 21.1997 17.7847C22.1466 17.0587 23.3068 16.6656 24.5 16.6666Z" fill="#3B634C"></path></svg>