<svg width="22" height="22" viewBox="0 0 22 22" fill="none" xmlns="http://www.w3.org/2000/svg">
<path d="M11 21C16.5228 21 21 16.5228 21 11C21 5.47715 16.5228 1 11 1C5.47715 1 1 5.47715 1 11C1 16.5228 5.47715 21 11 21Z" stroke="#AD00FF" stroke-linejoin="round"/>
<path d="M10.9978 5.64258C10.903 5.64258 10.8122 5.68021 10.7452 5.74718C10.6783 5.81416 10.6406 5.905 10.6406 5.99972V15.9997C10.6406 16.0944 10.6783 16.1853 10.7452 16.2523C10.8122 16.3192 10.903 16.3569 10.9978 16.3569C11.0925 16.3569 11.1833 16.3192 11.2503 16.2523C11.3173 16.1853 11.3549 16.0944 11.3549 15.9997V5.99972C11.3549 5.905 11.3173 5.81416 11.2503 5.74718C11.1833 5.68021 11.0925 5.64258 10.9978 5.64258Z" stroke="#AD00FF" stroke-linejoin="round"/>
</svg>
