<svg xmlns="http://www.w3.org/2000/svg" width="23" height="23" viewBox="0 0 23 23" fill="none"><path d="M11.5 0C12.5557 0 13.5739 0.134766 14.5547 0.404297C15.5355 0.673828 16.4526 1.05941 17.3062 1.56104C18.1597 2.06266 18.9346 2.66162 19.6309 3.35791C20.3271 4.0542 20.9261 4.83285 21.4277 5.69385C21.9294 6.55485 22.3149 7.47201 22.5845 8.44531C22.854 9.41862 22.9925 10.4368 23 11.5C23 12.2412 22.9289 12.9712 22.7866 13.6899C22.6444 14.4087 22.4347 15.1162 22.1577 15.8125H18.6875V14.375H21.1357C21.4202 13.4316 21.5625 12.4733 21.5625 11.5C21.5625 10.5042 21.424 9.5459 21.147 8.625H17.0703C17.1302 9.10417 17.1751 9.57959 17.2051 10.0513C17.235 10.5229 17.25 11.0059 17.25 11.5H15.8125C15.8125 11.0133 15.7975 10.5342 15.7676 10.0625C15.7376 9.59082 15.689 9.11165 15.6216 8.625H7.37842C7.31852 9.10417 7.2736 9.57959 7.24365 10.0513C7.2137 10.5229 7.19499 11.0059 7.1875 11.5C7.1875 11.9867 7.20247 12.4658 7.23242 12.9375C7.26237 13.4092 7.31104 13.8883 7.37842 14.375H14.375V15.8125H7.62549C7.68538 16.1045 7.77148 16.4489 7.88379 16.8457C7.99609 17.2425 8.1346 17.6543 8.29932 18.0811C8.46403 18.5078 8.6512 18.9271 8.86084 19.3389C9.07048 19.7507 9.3138 20.125 9.59082 20.4619C9.86784 20.7988 10.1598 21.0646 10.4668 21.2593C10.7738 21.4539 11.1182 21.555 11.5 21.5625C11.7246 21.5625 11.938 21.5213 12.1401 21.439C12.3423 21.3566 12.5332 21.2443 12.7129 21.1021C12.8926 20.9598 13.0573 20.8063 13.207 20.6416C13.3568 20.4769 13.4953 20.3047 13.6226 20.125H14.375V22.6182C13.9033 22.7454 13.4279 22.839 12.9487 22.8989C12.4696 22.9588 11.9867 22.9925 11.5 23C10.4443 23 9.42611 22.8652 8.44531 22.5957C7.46452 22.3262 6.54736 21.9406 5.69385 21.439C4.84033 20.9373 4.06543 20.3384 3.36914 19.6421C2.67285 18.9458 2.07389 18.1672 1.57227 17.3062C1.07064 16.4452 0.685059 15.5317 0.415527 14.5659C0.145996 13.6001 0.00748698 12.5781 0 11.5C0 10.4443 0.134766 9.42611 0.404297 8.44531C0.673828 7.46452 1.05941 6.54736 1.56104 5.69385C2.06266 4.84033 2.66162 4.06543 3.35791 3.36914C4.0542 2.67285 4.83285 2.07389 5.69385 1.57227C6.55485 1.07064 7.46826 0.685059 8.43408 0.415527C9.3999 0.145996 10.4219 0.00748698 11.5 0ZM8.20947 1.98779C7.57308 2.20492 6.97038 2.48568 6.40137 2.83008C5.83236 3.17448 5.29704 3.56755 4.79541 4.00928C4.29378 4.45101 3.84831 4.93766 3.45898 5.46924C3.06966 6.00081 2.72152 6.57357 2.41455 7.1875H6.1543C6.23665 6.74577 6.33773 6.29655 6.45752 5.83984C6.57731 5.38314 6.72331 4.93018 6.89551 4.48096C7.06771 4.03174 7.26237 3.59749 7.47949 3.17822C7.69661 2.75895 7.93994 2.36214 8.20947 1.98779ZM8.20947 21.0122C7.93994 20.6453 7.69661 20.2523 7.47949 19.833C7.26237 19.4137 7.07145 18.9795 6.90674 18.5303C6.74202 18.0811 6.59603 17.6281 6.46875 17.1714C6.34147 16.7147 6.23665 16.2617 6.1543 15.8125H2.41455C2.70654 16.4189 3.05094 16.988 3.44775 17.5195C3.84456 18.0511 4.29378 18.5415 4.79541 18.9907C5.29704 19.4399 5.82861 19.833 6.39014 20.1699C6.95166 20.5068 7.55811 20.7876 8.20947 21.0122ZM5.92969 14.375C5.86979 13.8958 5.82487 13.4204 5.79492 12.9487C5.76497 12.4771 5.75 11.9941 5.75 11.5C5.75 11.0133 5.76497 10.5342 5.79492 10.0625C5.82487 9.59082 5.86979 9.11165 5.92969 8.625H1.85303C1.57601 9.5459 1.4375 10.5042 1.4375 11.5C1.4375 12.4958 1.57601 13.4541 1.85303 14.375H5.92969ZM15.3745 7.1875C15.3146 6.89551 15.2285 6.55111 15.1162 6.1543C15.0039 5.75749 14.8654 5.3457 14.7007 4.91895C14.536 4.49219 14.3488 4.07292 14.1392 3.66113C13.9295 3.24935 13.6862 2.875 13.4092 2.53809C13.1322 2.20117 12.8402 1.93538 12.5332 1.74072C12.2262 1.54606 11.8818 1.44499 11.5 1.4375C11.1331 1.4375 10.7925 1.53857 10.478 1.74072C10.1636 1.94287 9.86784 2.20866 9.59082 2.53809C9.3138 2.86751 9.07422 3.23812 8.87207 3.6499C8.66992 4.06169 8.479 4.4847 8.29932 4.91895C8.11963 5.35319 7.98112 5.76497 7.88379 6.1543C7.78646 6.54362 7.70036 6.88802 7.62549 7.1875H15.3745ZM20.5854 7.1875C20.2935 6.58105 19.9491 6.01204 19.5522 5.48047C19.1554 4.94889 18.7062 4.4585 18.2046 4.00928C17.703 3.56006 17.1714 3.16699 16.6099 2.83008C16.0483 2.49316 15.4419 2.2124 14.7905 1.98779C15.0601 2.35466 15.3034 2.74772 15.5205 3.16699C15.7376 3.58626 15.9285 4.02051 16.0933 4.46973C16.258 4.91895 16.404 5.37191 16.5312 5.82861C16.6585 6.28532 16.7633 6.73828 16.8457 7.1875H20.5854ZM17.25 17.25H21.5625V18.6875H17.25V23H15.8125V18.6875H11.5V17.25H15.8125V12.9375H17.25V17.25Z" fill="white"></path></svg>