<svg xmlns="http://www.w3.org/2000/svg" width="23" height="26" viewBox="0 0 23 26" fill="none"><path d="M7.39062 11.3485L9.9779 13.9352L15.1518 8.76123" stroke="white" stroke-width="1.5" stroke-linecap="round" stroke-linejoin="round"></path><path d="M11.2715 24.2837L12.4096 23.7919C14.7959 22.7679 16.8565 21.1105 18.3683 18.9992C19.8801 16.8878 20.7853 14.4031 20.986 11.8142L21.5424 4.67385C21.5514 4.37815 21.4587 4.08829 21.2797 3.85276C21.1007 3.61723 20.8462 3.45031 20.5589 3.3799L11.2715 1L1.98409 3.32837C1.69685 3.39875 1.44248 3.56559 1.26347 3.80099C1.08446 4.03639 0.991664 4.3261 1.00059 4.6217L1.55691 11.762C1.75752 14.3511 2.66274 16.8359 4.17451 18.9474C5.68628 21.0588 7.74698 22.7163 10.1334 23.7404L11.2715 24.2837Z" stroke="white" stroke-width="1.5" stroke-linecap="round" stroke-linejoin="round"></path></svg>