<svg xmlns="http://www.w3.org/2000/svg" width="24" height="24" viewBox="0 0 24 24" fill="none"><path d="M12.004 24C10.3453 24 8.78533 23.6853 7.324 23.056C5.86356 22.4258 4.59289 21.5707 3.512 20.4907C2.43111 19.4107 1.57556 18.1413 0.945333 16.6827C0.315111 15.224 0 13.6644 0 12.004C0 10.3436 0.315111 8.78356 0.945333 7.324C1.57556 5.86356 2.43067 4.59289 3.51067 3.512C4.59067 2.43111 5.86044 1.57556 7.32 0.945333C8.77956 0.315111 10.3396 0 12 0H12.6667V10.8533C12.896 10.9956 13.0644 11.1609 13.172 11.3493C13.2796 11.5378 13.3333 11.7556 13.3333 12.0027C13.3333 12.3582 13.2004 12.6689 12.9347 12.9347C12.6689 13.2004 12.3573 13.3333 12 13.3333C11.6427 13.3333 11.3311 13.2004 11.0653 12.9347C10.7996 12.6689 10.6667 12.3591 10.6667 12.0053C10.6667 11.76 10.7204 11.5409 10.828 11.348C10.9356 11.1551 11.104 10.9907 11.3333 10.8547V6.73067C10.0071 6.888 8.89778 7.46445 8.00533 8.46C7.11289 9.45556 6.66667 10.6356 6.66667 12C6.66667 13.4667 7.18889 14.7222 8.23333 15.7667C9.27778 16.8111 10.5333 17.3333 12 17.3333C13.4667 17.3333 14.7222 16.8111 15.7667 15.7667C16.8111 14.7222 17.3333 13.4667 17.3333 12C17.3333 11.2 17.172 10.4613 16.8493 9.784C16.5267 9.10667 16.088 8.512 15.5333 8L16.4853 7.04933C17.16 7.66267 17.692 8.39378 18.0813 9.24267C18.4707 10.0916 18.6658 11.0107 18.6667 12C18.6667 13.8516 18.0191 15.4258 16.724 16.7227C15.4289 18.0196 13.8564 18.6676 12.0067 18.6667C10.1569 18.6658 8.58133 18.0178 7.28 16.7227C5.98222 15.4258 5.33333 13.8516 5.33333 12C5.33333 10.2569 5.91111 8.75733 7.06667 7.50133C8.22222 6.24533 9.64444 5.53867 11.3333 5.38133V1.34933C8.53511 1.512 6.16889 2.61467 4.23467 4.65733C2.30044 6.7 1.33333 9.14756 1.33333 12C1.33333 14.9778 2.36667 17.5 4.43333 19.5667C6.5 21.6333 9.02222 22.6667 12 22.6667C14.9778 22.6667 17.5 21.6333 19.5667 19.5667C21.6333 17.5 22.6667 14.9778 22.6667 12C22.6667 10.4667 22.3667 9.03333 21.7667 7.7C21.1667 6.36667 20.3444 5.21111 19.3 4.23333L20.2507 3.28267C21.4151 4.38489 22.3311 5.68178 22.9987 7.17333C23.6662 8.66489 24 10.2711 24 11.992C24 13.6542 23.6853 15.2156 23.056 16.676C22.4258 18.1364 21.5707 19.4071 20.4907 20.488C19.4107 21.5689 18.1413 22.4244 16.6827 23.0547C15.224 23.6849 13.6644 24 12.004 24Z" fill="white"></path></svg>