<svg width="50" height="38" viewBox="0 0 50 38" fill="none" xmlns="http://www.w3.org/2000/svg">
<g clip-path="url(#clip0_4347_12013)">
<path d="M21.875 26.3248C21.875 27.2153 21.6187 27.9721 21.106 28.5955C20.5933 29.2188 19.9788 29.5304 19.2627 29.5304H8.8623C8.14616 29.5304 7.53174 29.2188 7.01904 28.5955C6.50635 27.9721 6.25 27.2153 6.25 26.3248C6.25 25.4506 6.31104 24.637 6.43311 23.8842C6.55518 23.1314 6.75456 22.4028 7.03125 21.6985C7.30794 20.9943 7.72298 20.4398 8.27637 20.035C8.82975 19.6303 9.48893 19.4279 10.2539 19.4279C11.2956 20.4641 12.5651 20.9821 14.0625 20.9821C15.5599 20.9821 16.8294 20.4641 17.8711 19.4279C18.6361 19.4279 19.2952 19.6303 19.8486 20.035C20.402 20.4398 20.8171 20.9943 21.0938 21.6985C21.3704 22.4028 21.5698 23.1314 21.6919 23.8842C21.814 24.637 21.875 25.4506 21.875 26.3248ZM18.75 15.5423C18.75 16.8375 18.2943 17.9384 17.3828 18.8451C16.4714 19.7517 15.3646 20.205 14.0625 20.205C12.7604 20.205 11.6536 19.7517 10.7422 18.8451C9.83073 17.9384 9.375 16.8375 9.375 15.5423C9.375 14.2471 9.83073 13.1462 10.7422 12.2396C11.6536 11.3329 12.7604 10.8796 14.0625 10.8796C15.3646 10.8796 16.4714 11.3329 17.3828 12.2396C18.2943 13.1462 18.75 14.2471 18.75 15.5423ZM43.75 25.6448V27.1991C43.75 27.4257 43.6768 27.6119 43.5303 27.7576C43.3838 27.9033 43.1966 27.9762 42.9688 27.9762H25.7812C25.5534 27.9762 25.3662 27.9033 25.2197 27.7576C25.0732 27.6119 25 27.4257 25 27.1991V25.6448C25 25.4182 25.0732 25.232 25.2197 25.0863C25.3662 24.9406 25.5534 24.8677 25.7812 24.8677H42.9688C43.1966 24.8677 43.3838 24.9406 43.5303 25.0863C43.6768 25.232 43.75 25.4182 43.75 25.6448ZM34.375 19.4279V20.9821C34.375 21.2088 34.3018 21.395 34.1553 21.5407C34.0088 21.6864 33.8216 21.7593 33.5938 21.7593H25.7812C25.5534 21.7593 25.3662 21.6864 25.2197 21.5407C25.0732 21.395 25 21.2088 25 20.9821V19.4279C25 19.2013 25.0732 19.0151 25.2197 18.8694C25.3662 18.7236 25.5534 18.6508 25.7812 18.6508H33.5938C33.8216 18.6508 34.0088 18.7236 34.1553 18.8694C34.3018 19.0151 34.375 19.2013 34.375 19.4279ZM43.75 19.4279V20.9821C43.75 21.2088 43.6768 21.395 43.5303 21.5407C43.3838 21.6864 43.1966 21.7593 42.9688 21.7593H38.2812C38.0534 21.7593 37.8662 21.6864 37.7197 21.5407C37.5732 21.395 37.5 21.2088 37.5 20.9821V19.4279C37.5 19.2013 37.5732 19.0151 37.7197 18.8694C37.8662 18.7236 38.0534 18.6508 38.2812 18.6508H42.9688C43.1966 18.6508 43.3838 18.7236 43.5303 18.8694C43.6768 19.0151 43.75 19.2013 43.75 19.4279ZM43.75 13.211V14.7652C43.75 14.9919 43.6768 15.1781 43.5303 15.3238C43.3838 15.4695 43.1966 15.5423 42.9688 15.5423H25.7812C25.5534 15.5423 25.3662 15.4695 25.2197 15.3238C25.0732 15.1781 25 14.9919 25 14.7652V13.211C25 12.9843 25.0732 12.7981 25.2197 12.6524C25.3662 12.5067 25.5534 12.4339 25.7812 12.4339H42.9688C43.1966 12.4339 43.3838 12.5067 43.5303 12.6524C43.6768 12.7981 43.75 12.9843 43.75 13.211ZM46.875 33.416V6.21693H3.125V33.416C3.125 33.6265 3.20231 33.8086 3.35693 33.9624C3.51156 34.1162 3.69466 34.1931 3.90625 34.1931H46.0938C46.3053 34.1931 46.4884 34.1162 46.6431 33.9624C46.7977 33.8086 46.875 33.6265 46.875 33.416ZM50 3.88558V33.416C50 34.4845 49.6175 35.3993 48.8525 36.1602C48.0876 36.9211 47.168 37.3016 46.0938 37.3016H3.90625C2.83203 37.3016 1.91243 36.9211 1.14746 36.1602C0.382487 35.3993 0 34.4845 0 33.416V3.88558C0 2.81705 0.382487 1.90232 1.14746 1.14139C1.91243 0.380463 2.83203 0 3.90625 0H46.0938C47.168 0 48.0876 0.380463 48.8525 1.14139C49.6175 1.90232 50 2.81705 50 3.88558Z" fill="white"/>
</g>
<defs>
<clipPath id="clip0_4347_12013">
<rect width="50" height="37.3016" fill="white"/>
</clipPath>
</defs>
</svg>
