<svg width="50" height="50" viewBox="0 0 50 50" fill="none" xmlns="http://www.w3.org/2000/svg">
<path d="M42.1584 24.8239C42.1584 34.3975 34.3975 42.1584 24.8239 42.1584C15.2503 42.1584 7.48934 34.3975 7.48934 24.8239C7.48934 15.2503 15.2503 7.48934 24.8239 7.48934C34.3975 7.48934 42.1584 15.2503 42.1584 24.8239Z" fill="#BF9B3E" stroke="#BF9B3E" stroke-width="0.978671"/>
<circle cx="24.5078" cy="24.5078" r="24.2631" stroke="#BF9B3E" stroke-width="0.489336"/>
<path d="M24.499 32.2187C23.374 32.2187 22.374 32.026 21.499 31.6406C20.6292 31.2552 19.9417 30.7187 19.4365 30.0312C18.9313 29.3437 18.6631 28.5495 18.6318 27.6484H21.5693C21.5954 28.0807 21.7386 28.4583 21.999 28.7812C22.2594 29.099 22.6058 29.3464 23.0381 29.5234C23.4704 29.7005 23.9548 29.7891 24.4912 29.7891C25.0641 29.7891 25.5719 29.6901 26.0146 29.4922C26.4574 29.2891 26.8037 29.0078 27.0537 28.6484C27.3037 28.2891 27.4261 27.875 27.4209 27.4062C27.4261 26.9219 27.3011 26.4948 27.0459 26.125C26.7907 25.7552 26.4209 25.4661 25.9365 25.2578C25.4574 25.0495 24.8792 24.9453 24.2021 24.9453H22.7881V22.7109H24.2021C24.7594 22.7109 25.2464 22.6146 25.6631 22.4219C26.085 22.2292 26.4157 21.9583 26.6553 21.6094C26.8949 21.2552 27.012 20.8464 27.0068 20.3828C27.012 19.9297 26.9105 19.5365 26.7021 19.2031C26.499 18.8646 26.21 18.6016 25.835 18.4141C25.4652 18.2266 25.0303 18.1328 24.5303 18.1328C24.0407 18.1328 23.5876 18.2214 23.1709 18.3984C22.7542 18.5755 22.4183 18.8281 22.1631 19.1563C21.9079 19.4792 21.7725 19.8646 21.7568 20.3125H18.9678C18.9886 19.4167 19.2464 18.6302 19.7412 17.9531C20.2412 17.2708 20.9079 16.7396 21.7412 16.3594C22.5745 15.974 23.5094 15.7812 24.5459 15.7812C25.6136 15.7812 26.5407 15.9818 27.3271 16.3828C28.1188 16.7786 28.7308 17.3125 29.1631 17.9844C29.5954 18.6562 29.8115 19.3984 29.8115 20.2109C29.8167 21.112 29.5511 21.8672 29.0146 22.4766C28.4834 23.0859 27.7855 23.4844 26.9209 23.6719V23.7969C28.0459 23.9531 28.9079 24.3698 29.5068 25.0469C30.111 25.7187 30.4105 26.5547 30.4053 27.5547C30.4053 28.4505 30.1501 29.2526 29.6396 29.9609C29.1344 30.6641 28.4365 31.2161 27.5459 31.6172C26.6605 32.0182 25.6449 32.2187 24.499 32.2187Z" fill="white"/>
</svg>
