<svg width="46" height="46" viewBox="0 0 46 46" fill="none" xmlns="http://www.w3.org/2000/svg">
<path d="M23 45C35.1503 45 45 35.1503 45 23C45 10.8497 35.1503 1 23 1C10.8497 1 1 10.8497 1 23C1 35.1503 10.8497 45 23 45Z" stroke="white" stroke-width="2"/>
<path d="M6.82031 6.82031L39.1733 39.1733" stroke="white" stroke-width="2" stroke-linejoin="round"/>
<path d="M23 7.46875V38.5276" stroke="white" stroke-width="2" stroke-linecap="round"/>
<path d="M29.6478 16.1907C29.2078 14.2366 26.6842 12.0625 22.996 12.0625C19.3078 12.0625 16.4736 14.4566 16.4736 17.4823C16.4736 24.354 30.1525 20.8237 30.1525 28.798C30.1525 31.6813 26.6842 34.1272 22.996 34.1272C19.3078 34.1272 16.7558 31.8573 16 29.4296" stroke="white" stroke-width="2" stroke-linecap="round" stroke-linejoin="round"/>
</svg>
