<svg width="44" height="44" viewBox="0 0 44 44" fill="none" xmlns="http://www.w3.org/2000/svg">
<path d="M25.6693 14.6693H8.55816C8.23401 14.6693 7.92313 14.5405 7.69392 14.3113C7.46471 14.0821 7.33594 13.7712 7.33594 13.447V8.55816C7.33594 8.23401 7.46471 7.92313 7.69392 7.69392C7.92313 7.46471 8.23401 7.33594 8.55816 7.33594H25.6693C25.9934 7.33594 26.3043 7.46471 26.5335 7.69392C26.7627 7.92313 26.8915 8.23401 26.8915 8.55816V13.447C26.8915 13.7712 26.7627 14.0821 26.5335 14.3113C26.3043 14.5405 25.9934 14.6693 25.6693 14.6693ZM9.78038 12.2248H24.447V9.70705H9.78038V12.2248Z" fill="white"/>
<path d="M25.6693 17.2031H8.55816C8.23401 17.2031 7.92313 17.3319 7.69392 17.5611C7.46471 17.7903 7.33594 18.1012 7.33594 18.4253V23.2165C7.33594 23.5406 7.46471 23.8515 7.69392 24.0807C7.92313 24.3099 8.23401 24.4387 8.55816 24.4387H22.4426L26.8915 19.9165V18.4253C26.8915 18.1012 26.7627 17.7903 26.5335 17.5611C26.3043 17.3319 25.9934 17.2031 25.6693 17.2031ZM24.447 21.9942H9.78038V19.5498H24.447V21.9942Z" fill="white"/>
<path d="M13.5186 38.5131V38.4398L13.9098 36.7409H4.88976V4.88976H29.3342V17.4175L31.7786 15.1075V3.66753C31.7786 3.34338 31.6499 3.0325 31.4207 2.80329C31.1915 2.57408 30.8806 2.44531 30.5564 2.44531H3.66753C3.34338 2.44531 3.0325 2.57408 2.80329 2.80329C2.57408 3.0325 2.44531 3.34338 2.44531 3.66753V37.8898C2.44531 38.2139 2.57408 38.5248 2.80329 38.754C3.0325 38.9832 3.34338 39.112 3.66753 39.112H13.4453C13.4552 38.9108 13.4797 38.7107 13.5186 38.5131Z" fill="white"/>
<path d="M26.8908 23.4297L25.9375 24.3952C26.174 24.3465 26.3908 24.2288 26.5605 24.0569C26.7301 23.8851 26.8451 23.6668 26.8908 23.4297Z" fill="white"/>
<path d="M7.33594 32.9284C7.33594 33.2526 7.46471 33.5634 7.69392 33.7926C7.92313 34.0219 8.23401 34.1506 8.55816 34.1506H14.4737L14.8404 32.5617L14.9993 31.8895V31.8284H9.78038V29.3351H17.5293L19.9737 26.8906H8.55816C8.23401 26.8906 7.92313 27.0194 7.69392 27.2486C7.46471 27.4778 7.33594 27.7887 7.33594 28.1128V32.9284Z" fill="white"/>
<path d="M40.9346 20.3768L36.8157 16.2579C36.6329 16.0746 36.4157 15.9292 36.1766 15.83C35.9375 15.7308 35.6812 15.6797 35.4223 15.6797C35.1635 15.6797 34.9072 15.7308 34.6681 15.83C34.429 15.9292 34.2118 16.0746 34.029 16.2579L17.2723 33.1124L15.8912 38.9913C15.8395 39.2449 15.8384 39.5062 15.8878 39.7603C15.9373 40.0144 16.0363 40.2562 16.1794 40.4719C16.3225 40.6876 16.5067 40.873 16.7215 41.0174C16.9363 41.1618 17.1775 41.2624 17.4312 41.3135C17.5572 41.3258 17.6841 41.3258 17.8101 41.3135C17.9599 41.3369 18.1125 41.3369 18.2623 41.3135L24.1901 40.0057L40.9346 23.2246C41.1175 23.0429 41.2627 22.8267 41.3617 22.5886C41.4608 22.3506 41.5118 22.0953 41.5118 21.8374C41.5118 21.5795 41.4608 21.3242 41.3617 21.0861C41.2627 20.8481 41.1175 20.6319 40.9346 20.4502V20.3768ZM22.9434 37.7813L18.4701 38.7713L19.5579 34.3346L32.1223 21.6357L35.569 25.0824L22.9434 37.7813ZM36.9501 23.7013L33.5034 20.2546L35.4468 18.3357L38.9179 21.8068L36.9501 23.7013Z" fill="white"/>
</svg>
