<svg width="46" height="46" viewBox="0 0 46 46" fill="none" xmlns="http://www.w3.org/2000/svg">
<path d="M1 36.0211L10.1419 43.3371C11.4863 44.4119 13.1804 45.0003 14.9298 45H39.0301C40.7507 45 42.146 43.6604 42.146 42.0082C42.146 38.704 39.3555 36.0211 35.9105 36.0211H19.1566M29.9219 1.00359C29.4258 1.00359 28.9501 1.19279 28.5994 1.52956C28.2486 1.86633 28.0516 2.3231 28.0516 2.79936V7.85266H22.7924C22.2964 7.85266 21.8207 8.04186 21.4699 8.37863C21.1192 8.71541 20.9221 9.17217 20.9221 9.64844V15.4847C20.9221 15.961 21.1192 16.4177 21.4699 16.7545C21.8207 17.0913 22.2964 17.2805 22.7924 17.2805H28.0516V22.3302C28.0516 22.8064 28.2486 23.2632 28.5994 23.6C28.9501 23.9367 29.4258 24.1259 29.9219 24.1259H36.0003C36.4963 24.1259 36.972 23.9367 37.3227 23.6C37.6735 23.2632 37.8705 22.8064 37.8705 22.3302V17.2805H43.1297C43.6258 17.2805 44.1015 17.0913 44.4522 16.7545C44.803 16.4177 45 15.961 45 15.4847V9.64844C45 9.17217 44.803 8.71541 44.4522 8.37863C44.1015 8.04186 43.6258 7.85266 43.1297 7.85266H37.8705V2.79577C37.8705 2.3195 37.6735 1.86274 37.3227 1.52597C36.972 1.1892 36.4963 1 36.0003 1L29.9219 1.00359Z" stroke="white" stroke-linecap="round" stroke-linejoin="round"/>
<path d="M12.2216 32.4242L15.027 35.1178C15.3954 35.4716 15.8328 35.7522 16.3142 35.9436C16.7955 36.135 17.3114 36.2336 17.8324 36.2336C18.3535 36.2336 18.8694 36.135 19.3507 35.9436C19.8321 35.7522 20.2694 35.4716 20.6378 35.1178C21.0063 34.7641 21.2985 34.3441 21.4979 33.882C21.6973 33.4198 21.7999 32.9244 21.7999 32.4242C21.7999 31.9239 21.6973 31.4286 21.4979 30.9664C21.2985 30.5042 21.0063 30.0842 20.6378 29.7305L16.2839 25.55C14.8812 24.2028 12.9787 23.4457 10.9947 23.4453H1" stroke="white" stroke-linecap="round" stroke-linejoin="round"/>
</svg>
