<svg width="54" height="69" viewBox="0 0 54 69" fill="none" xmlns="http://www.w3.org/2000/svg">
<path d="M13.3987 42.1176C12.891 42.1176 12.4041 41.916 12.0451 41.557C11.6861 41.198 11.4844 40.7111 11.4844 40.2034C11.4844 39.6957 11.6861 39.2087 12.0451 38.8497C12.4041 38.4907 12.891 38.2891 13.3987 38.2891H40.1988C40.7065 38.2891 41.1934 38.4907 41.5524 38.8497C41.9114 39.2087 42.113 39.6957 42.113 40.2034C42.113 40.7111 41.9114 41.198 41.5524 41.557C41.1934 41.916 40.7065 42.1176 40.1988 42.1176H13.3987ZM13.3987 53.6034C12.891 53.6034 12.4041 53.4017 12.0451 53.0427C11.6861 52.6837 11.4844 52.1968 11.4844 51.6891C11.4844 51.1814 11.6861 50.6945 12.0451 50.3355C12.4041 49.9765 12.891 49.7748 13.3987 49.7748H40.1988C40.7065 49.7748 41.1934 49.9765 41.5524 50.3355C41.9114 50.6945 42.113 51.1814 42.113 51.6891C42.113 52.1968 41.9114 52.6837 41.5524 53.0427C41.1934 53.4017 40.7065 53.6034 40.1988 53.6034H13.3987Z" fill="white"/>
<path fill-rule="evenodd" clip-rule="evenodd" d="M31.337 5.35014e-07H5.74288C4.21977 5.35014e-07 2.75905 0.605052 1.68205 1.68205C0.605051 2.75905 0 4.21977 0 5.74288V63.1716C0 64.6947 0.605051 66.1555 1.68205 67.2325C2.75905 68.3095 4.21977 68.9145 5.74288 68.9145H47.8573C49.3804 68.9145 50.8411 68.3095 51.9181 67.2325C52.9951 66.1555 53.6002 64.6947 53.6002 63.1716V23.7449C53.5998 22.3071 53.0602 20.9218 52.0879 19.8627L35.5714 1.86069C35.0331 1.27394 34.3787 0.805536 33.6498 0.485214C32.9208 0.164892 32.1332 -0.000343142 31.337 5.35014e-07ZM3.82858 5.74288C3.82858 5.23517 4.03027 4.74827 4.38927 4.38927C4.74827 4.03027 5.23517 3.82858 5.74288 3.82858H31.337C31.6026 3.82829 31.8654 3.88329 32.1086 3.99006C32.3518 4.09684 32.5701 4.25307 32.7497 4.44881L49.2662 22.4508C49.5908 22.8037 49.7711 23.2655 49.7716 23.7449V63.1716C49.7716 63.6793 49.5699 64.1662 49.2109 64.5252C48.8519 64.8842 48.365 65.0859 47.8573 65.0859H5.74288C5.23517 65.0859 4.74827 64.8842 4.38927 64.5252C4.03027 64.1662 3.82858 63.6793 3.82858 63.1716V5.74288Z" fill="white"/>
<path d="M30.6255 22.9715H51.6827C52.1904 22.9715 52.6773 23.1732 53.0363 23.5322C53.3953 23.8912 53.597 24.3781 53.597 24.8858C53.597 25.3935 53.3953 25.8804 53.0363 26.2394C52.6773 26.5984 52.1904 26.8001 51.6827 26.8001H28.7112C28.2035 26.8001 27.7166 26.5984 27.3576 26.2394C26.9986 25.8804 26.7969 25.3935 26.7969 24.8858V1.91429C26.7969 1.40659 26.9986 0.919683 27.3576 0.560683C27.7166 0.201684 28.2035 0 28.7112 0C29.2189 0 29.7058 0.201684 30.0648 0.560683C30.4238 0.919683 30.6255 1.40659 30.6255 1.91429V22.9715Z" fill="white"/>
</svg>
