<svg width="50" height="50" viewBox="0 0 50 50" fill="none" xmlns="http://www.w3.org/2000/svg">
<path d="M42.1584 24.8239C42.1584 34.3975 34.3975 42.1584 24.8239 42.1584C15.2503 42.1584 7.48934 34.3975 7.48934 24.8239C7.48934 15.2503 15.2503 7.48934 24.8239 7.48934C34.3975 7.48934 42.1584 15.2503 42.1584 24.8239Z" fill="#BF9B3E" stroke="#BF9B3E" stroke-width="0.978671"/>
<circle cx="24.5078" cy="24.5078" r="24.2631" stroke="#BF9B3E" stroke-width="0.489336"/>
<path d="M19.0898 32V29.9062L24.6445 24.4609C25.1758 23.9245 25.6185 23.4479 25.9727 23.0312C26.3268 22.6146 26.5924 22.2109 26.7695 21.8203C26.9466 21.4297 27.0352 21.013 27.0352 20.5703C27.0352 20.0651 26.9206 19.6328 26.6914 19.2734C26.4622 18.9089 26.1471 18.6276 25.7461 18.4297C25.3451 18.2318 24.8893 18.1328 24.3789 18.1328C23.8529 18.1328 23.3919 18.2422 22.9961 18.4609C22.6003 18.6745 22.293 18.9792 22.0742 19.375C21.8607 19.7708 21.7539 20.2422 21.7539 20.7891H18.9961C18.9961 19.7734 19.2279 18.8906 19.6914 18.1406C20.1549 17.3906 20.793 16.8099 21.6055 16.3984C22.4232 15.987 23.3607 15.7812 24.418 15.7812C25.4909 15.7812 26.4336 15.9818 27.2461 16.3828C28.0586 16.7839 28.6888 17.3333 29.1367 18.0312C29.5898 18.7292 29.8164 19.526 29.8164 20.4219C29.8164 21.0208 29.7018 21.6094 29.4727 22.1875C29.2435 22.7656 28.8398 23.4062 28.2617 24.1094C27.6888 24.8125 26.8841 25.6641 25.8477 26.6641L23.0898 29.4687V29.5781H30.0586V32H19.0898Z" fill="white"/>
</svg>
