<svg width="42" height="46" viewBox="0 0 42 46" fill="none" xmlns="http://www.w3.org/2000/svg">
<path d="M2 18.8C2 10.8809 2 6.9203 4.4612 4.4612C6.9224 2.0021 10.8809 2 18.8 2H23C30.9191 2 34.8797 2 37.3388 4.4612C39.7979 6.9224 39.8 10.8809 39.8 18.8V27.2C39.8 35.1191 39.8 39.0797 37.3388 41.5388C34.8776 43.9979 30.9191 44 23 44H18.8C10.8809 44 6.9203 44 4.4612 41.5388C2.0021 39.0776 2 35.1191 2 27.2V18.8Z" stroke="white" stroke-width="3.15"/>
<path d="M12.5 18.7969H29.3M12.5 27.1969H23" stroke="white" stroke-width="3.15" stroke-linecap="round"/>
</svg>
