<svg width="44" height="44" viewBox="0 0 44 44" fill="none" xmlns="http://www.w3.org/2000/svg">
<path fill-rule="evenodd" clip-rule="evenodd" d="M6.384 6.36094C14.9469 -2.19095 28.8686 -2.10069 37.4833 6.51664C46.1026 15.1362 46.1929 29.0652 37.6278 37.6284C29.0626 46.1916 15.1364 46.1035 6.51712 37.484C4.09238 35.0696 2.26036 32.126 1.16494 28.8843C0.0695258 25.6425 -0.259454 22.191 0.203838 18.8007C0.264578 18.3557 0.499577 17.9531 0.857137 17.6815C1.2147 17.4098 1.66553 17.2913 2.11046 17.352C2.55539 17.4128 2.95796 17.6478 3.22962 18.0054C3.50128 18.3629 3.61978 18.8138 3.55904 19.2587C3.16572 22.1319 3.44414 25.0571 4.37242 27.8045C5.3007 30.5518 6.85354 33.0464 8.90886 35.0921C16.2307 42.412 28.0157 42.4549 35.236 35.2366C42.4541 28.016 42.4112 16.2306 35.0916 8.90846C27.7742 1.59309 15.9961 1.54571 8.77573 8.75502L10.4635 8.76179C10.6857 8.76283 10.9056 8.80763 11.1105 8.89363C11.3154 8.97964 11.5014 9.10517 11.6578 9.26305C11.8142 9.42093 11.938 9.60807 12.0221 9.81379C12.1061 10.0195 12.1489 10.2398 12.1479 10.462C12.1468 10.6843 12.102 10.9041 12.016 11.109C11.93 11.314 11.8045 11.4999 11.6466 11.6564C11.4887 11.8128 11.3016 11.9366 11.0959 12.0206C10.8902 12.1047 10.6699 12.1475 10.4477 12.1464L4.70301 12.1194C4.25693 12.117 3.82983 11.9386 3.51461 11.6229C3.19939 11.3073 3.02155 10.8799 3.01977 10.4338L2.99044 4.69344C2.98925 4.4712 3.03185 4.2509 3.1158 4.04512C3.19975 3.83935 3.32341 3.65212 3.47971 3.49414C3.63601 3.33615 3.8219 3.2105 4.02676 3.12436C4.23162 3.03822 4.45145 2.99327 4.67368 2.99208C4.89591 2.9909 5.1162 3.0335 5.32197 3.11745C5.52774 3.2014 5.71496 3.32506 5.87294 3.48137C6.03092 3.63768 6.15656 3.82358 6.2427 4.02845C6.32884 4.23331 6.37378 4.45314 6.37497 4.67538L6.384 6.36094ZM21.998 11.28C22.4468 11.28 22.8772 11.4583 23.1946 11.7756C23.512 12.093 23.6902 12.5235 23.6902 12.9723V21.2985L28.837 26.4432C28.9987 26.5993 29.1277 26.7859 29.2165 26.9924C29.3053 27.1988 29.3521 27.4208 29.3541 27.6455C29.3562 27.8702 29.3135 28.0931 29.2285 28.3011C29.1435 28.5092 29.0179 28.6982 28.8591 28.8571C28.7003 29.0161 28.5114 29.1419 28.3035 29.227C28.0955 29.3122 27.8727 29.3552 27.648 29.3533C27.4233 29.3515 27.2012 29.3049 26.9947 29.2163C26.7882 29.1277 26.6014 28.9989 26.4453 28.8373L20.308 22.6998V12.9746C20.308 12.5257 20.4863 12.0953 20.8036 11.7779C21.121 11.4605 21.5514 11.2822 22.0002 11.2822" fill="white"/>
</svg>
