<svg width="61" height="42" viewBox="0 0 61 42" fill="none" xmlns="http://www.w3.org/2000/svg">
<path d="M11.8236 41.7674C9.66958 41.7674 7.84396 41.0148 6.34677 39.5098C4.84761 38.0047 4.09803 36.1771 4.09803 34.027H0V4.78153C0 3.41848 0.456652 2.28129 1.36996 1.36995C2.28326 0.458624 3.42045 0.00197258 4.78153 0H43.9273V10.6993H50.7564L61 24.4669V34.027H56.2185C56.2185 36.1771 55.4649 38.0047 53.9579 39.5098C52.4508 41.0148 50.6203 41.7664 48.4662 41.7644C46.3122 41.7624 44.4875 41.0109 42.9923 39.5098C41.4971 38.0086 40.7475 36.181 40.7436 34.027H19.5729C19.5729 36.1889 18.8194 38.0195 17.3123 39.5186C15.8053 41.0178 13.9747 41.7674 11.8207 41.7674M11.8325 38.8085C13.164 38.8085 14.2933 38.3449 15.2204 37.4178C16.1475 36.4907 16.6111 35.3604 16.6111 34.027C16.6111 32.6935 16.1475 31.5642 15.2204 30.6391C14.2933 29.7139 13.164 29.2504 11.8325 29.2484C10.501 29.2464 9.37172 29.71 8.44461 30.6391C7.51749 31.5681 7.05394 32.6975 7.05394 34.027C7.05394 35.3565 7.51749 36.4858 8.44461 37.4149C9.37172 38.344 10.501 38.8105 11.8325 38.8085ZM2.95591 31.0681H4.8703C5.29045 29.7623 6.14754 28.6399 7.44155 27.7009C8.73556 26.762 10.1992 26.2905 11.8325 26.2866C13.3908 26.2866 14.8367 26.7482 16.1702 27.6713C17.5017 28.5925 18.3775 29.7248 18.7977 31.0681H40.9685V2.95887H4.77857C4.3229 2.95887 3.9057 3.14823 3.52697 3.52697C3.14626 3.9057 2.95591 4.3229 2.95591 4.77857V31.0681ZM48.4781 38.8085C49.8096 38.8085 50.9389 38.3449 51.866 37.4178C52.7931 36.4887 53.2566 35.3585 53.2566 34.027C53.2566 32.6955 52.7931 31.5662 51.866 30.6391C50.9389 29.712 49.8096 29.2484 48.4781 29.2484C47.1466 29.2484 46.0173 29.712 45.0902 30.6391C44.1631 31.5662 43.6995 32.6955 43.6995 34.027C43.6995 35.3585 44.1631 36.4878 45.0902 37.4149C46.0173 38.342 47.1466 38.8085 48.4781 38.8085ZM43.9273 25.1504H57.8695L49.1645 13.6581H43.9273V25.1504Z" fill="white"/>
</svg>
