<svg width="48" height="48" viewBox="0 0 48 48" fill="none" xmlns="http://www.w3.org/2000/svg">
<path d="M18.8816 11.9452C19.3052 12.3772 19.5424 12.9581 19.5424 13.5632C19.5424 14.1682 19.3052 14.7492 18.8816 15.1812L15.1844 18.8784C14.7524 19.302 14.1715 19.5393 13.5664 19.5393C12.9614 19.5393 12.3805 19.302 11.9485 18.8784L5.73043 12.6627C4.52245 11.4571 2.49206 11.85 2.20166 13.5315C1.8222 15.7321 1.97984 17.9919 2.66118 20.1185C3.34251 22.2452 4.52738 24.1758 6.11501 25.7463C7.70265 27.3167 9.64607 28.4804 11.78 29.1385C13.9139 29.7966 16.1752 29.9295 18.3715 29.526C20.3726 29.16 22.5372 29.4723 23.9746 30.9073L37.5577 44.4932C38.0097 44.9637 38.551 45.3392 39.1499 45.5979C39.7489 45.8566 40.3934 45.9932 41.0458 45.9998C41.6982 46.0063 42.3453 45.8826 42.9493 45.6359C43.5533 45.3893 44.102 45.0246 44.5633 44.5633C45.0246 44.1019 45.3893 43.5532 45.636 42.9492C45.8826 42.3452 46.0063 41.6981 45.9998 41.0457C45.9932 40.3933 45.8566 39.7487 45.5979 39.1498C45.3393 38.5508 44.9637 38.0095 44.4932 37.5575L30.9077 23.9741C29.4728 22.5366 29.1604 20.3695 29.5264 18.3708C29.9287 16.1746 29.795 13.9138 29.1365 11.7803C28.478 9.64691 27.3143 7.70396 25.7442 6.11657C24.1741 4.52918 22.244 3.34426 20.118 2.66249C17.9919 1.98073 15.7327 1.82226 13.5323 2.20055C11.8509 2.4934 11.458 4.5214 12.6635 5.72941L18.8816 11.9452Z" stroke="white" stroke-width="3.41105" stroke-linecap="round" stroke-linejoin="round"/>
</svg>
