<svg width="36" height="40" viewBox="0 0 36 40" fill="none" xmlns="http://www.w3.org/2000/svg">
<path fill-rule="evenodd" clip-rule="evenodd" d="M21.5497 2.91901H12.502C12.216 4.32126 11.524 5.60844 10.512 6.62039C9.50007 7.63233 8.21289 8.32435 6.81064 8.61033V9.87507C8.21289 10.161 9.50007 10.8531 10.512 11.865C11.524 12.877 12.216 14.1641 12.502 15.5664H21.5497C21.8357 14.1641 22.5277 12.877 23.5396 11.865C24.5516 10.8531 25.8388 10.161 27.241 9.87507V8.61033C25.8388 8.32435 24.5516 7.63233 23.5396 6.62039C22.5277 5.60844 21.8357 4.32126 21.5497 2.91901ZM22.7269 0.00622644C22.1924 0.00103777 21.623 -0.000908021 21.0185 0.000389146H13.0332C12.4287 0.000389146 11.8599 0.00233494 11.3267 0.00622644C11.2204 -0.000569423 11.1137 0.00138293 11.0076 0.0120637C10.1281 0.0276297 9.3479 0.0645987 8.67078 0.156049C7.44885 0.319492 6.34561 0.681402 5.46029 1.56672C4.57303 2.45398 4.21112 3.55722 4.04768 4.7772C3.95623 5.45627 3.91926 6.23652 3.90369 7.116C3.89312 7.22138 3.89117 7.32745 3.89786 7.43315C3.89267 7.96888 3.89072 8.53834 3.89202 9.14152V9.34388C3.89202 9.94706 3.89396 10.5165 3.89786 11.0522C3.89117 11.1579 3.89312 11.264 3.90369 11.3694C3.91926 12.2508 3.95623 13.0291 4.04768 13.7063C4.21112 14.9282 4.57303 16.0314 5.46029 16.9167C6.34561 17.804 7.44885 18.1659 8.67078 18.3294C9.3479 18.4208 10.1281 18.4578 11.0076 18.4733C11.1137 18.484 11.2204 18.486 11.3267 18.4792C11.8599 18.4844 12.4287 18.4863 13.0332 18.485H21.0185C21.6217 18.485 22.1912 18.4831 22.7269 18.4792C22.8326 18.4859 22.9387 18.4839 23.044 18.4733C23.9255 18.4578 24.7057 18.4208 25.3809 18.3294C26.6028 18.1659 27.7061 17.804 28.5914 16.9167C29.4786 16.0314 29.8405 14.9282 30.004 13.7063C30.0946 12.9305 30.1426 12.1504 30.148 11.3694C30.1585 11.264 30.1605 11.1579 30.1538 11.0522C30.159 10.5165 30.1609 9.94706 30.1596 9.34388V9.14152C30.1596 8.53834 30.1577 7.96888 30.1538 7.43315C30.1605 7.32745 30.1585 7.22138 30.148 7.116C30.1426 6.335 30.0946 5.55489 30.004 4.77915C29.8405 3.55722 29.4786 2.45398 28.5933 1.56866C27.7061 0.681402 26.6028 0.319492 25.3828 0.156049C24.6064 0.0653828 23.8257 0.0173159 23.044 0.0120637C22.9387 0.00148929 22.8326 -0.000462983 22.7269 0.00622644ZM24.6026 3.00463C24.8232 3.58656 25.1649 4.11503 25.6049 4.5551C26.045 4.99517 26.5735 5.33682 27.1554 5.55745C27.1431 5.42745 27.1282 5.2977 27.1107 5.1683C26.992 4.26936 26.7818 3.88411 26.5269 3.63116C26.272 3.37821 25.8907 3.17002 24.9937 3.04743C24.8643 3.03056 24.7345 3.01628 24.6045 3.00463M27.1574 12.928C26.5754 13.1486 26.047 13.4902 25.6069 13.9303C25.1668 14.3704 24.8252 14.8988 24.6045 15.4808C24.7407 15.4678 24.8704 15.4535 24.9937 15.438C25.8926 15.3154 26.2779 15.1072 26.5308 14.8542C26.7838 14.6013 26.9939 14.216 27.1145 13.3171C27.1301 13.1939 27.1444 13.0642 27.1574 12.928ZM9.45103 15.4808C9.23039 14.8988 8.88874 14.3704 8.44867 13.9303C8.0086 13.4902 7.48013 13.1486 6.8982 12.928C6.91117 13.0642 6.92609 13.1939 6.94296 13.3171C7.06359 14.216 7.27179 14.6013 7.52668 14.8542C7.78157 15.1072 8.16294 15.3154 9.05993 15.438C9.18446 15.4535 9.31482 15.4678 9.45103 15.4808ZM6.8982 5.55745C7.48013 5.33682 8.0086 4.99517 8.44867 4.5551C8.88874 4.11503 9.23039 3.58656 9.45103 3.00463C9.31482 3.0176 9.18511 3.03252 9.06188 3.04938C8.16294 3.17002 7.77768 3.37821 7.52473 3.6331C7.27179 3.888 7.06359 4.26936 6.94101 5.16636L6.8982 5.55745ZM17.0258 8.75626C16.8968 8.75626 16.7731 8.80751 16.6819 8.89874C16.5906 8.98996 16.5394 9.11369 16.5394 9.2427C16.5394 9.37171 16.5906 9.49544 16.6819 9.58666C16.7731 9.67789 16.8968 9.72914 17.0258 9.72914C17.1548 9.72914 17.2786 9.67789 17.3698 9.58666C17.461 9.49544 17.5123 9.37171 17.5123 9.2427C17.5123 9.11369 17.461 8.98996 17.3698 8.89874C17.2786 8.80751 17.1548 8.75626 17.0258 8.75626ZM13.6208 9.2427C13.6208 8.33962 13.9795 7.47353 14.6181 6.83496C15.2567 6.19639 16.1228 5.83764 17.0258 5.83764C17.9289 5.83764 18.795 6.19639 19.4336 6.83496C20.0721 7.47353 20.4309 8.33962 20.4309 9.2427C20.4309 10.1458 20.0721 11.0119 19.4336 11.6504C18.795 12.289 17.9289 12.6478 17.0258 12.6478C16.1228 12.6478 15.2567 12.289 14.6181 11.6504C13.9795 11.0119 13.6208 10.1458 13.6208 9.2427ZM10.5737 23.7346C14.2045 23.0322 18.0902 23.1898 21.2364 25.0655C21.6762 25.3282 22.0926 25.657 22.4525 26.0618C23.1841 26.8848 23.5616 27.9044 23.5791 28.9279C23.9501 28.6866 24.3243 28.4226 24.7018 28.1359L28.2197 25.48C29.1011 24.8332 30.1658 24.4844 31.259 24.4844C32.3522 24.4844 33.4169 24.8332 34.2983 25.48C35.923 26.7058 36.5728 28.9103 35.4073 30.7783C34.5804 32.1033 33.3351 33.9382 32.0665 35.1134C30.7823 36.3003 28.9591 37.3004 27.5796 37.9659C25.9023 38.7753 24.0928 39.2228 22.3319 39.5069C18.7323 40.0906 14.9886 40.0011 11.4318 39.2676C9.59753 38.8904 7.72987 38.6994 5.85723 38.6975H1.45983C1.0728 38.6975 0.701616 38.5437 0.427942 38.27C0.154267 37.9964 0.000518967 37.6252 0.000518967 37.2382C0.000518967 36.8511 0.154267 36.4799 0.427942 36.2063C0.701616 35.9326 1.0728 35.7788 1.45983 35.7788H5.85723C7.92361 35.7788 10.0114 35.9948 12.0214 36.4093C15.2633 37.0745 18.5989 37.1477 21.8669 36.6252C23.4779 36.3645 24.9839 35.9773 26.3109 35.3372C27.6399 34.6951 29.1342 33.8506 30.0818 32.9731C31.0411 32.0839 32.1132 30.5448 32.9323 29.2333C33.1794 28.8364 33.1444 28.2663 32.5393 27.809C31.8194 27.2642 30.6967 27.2642 29.9787 27.809L26.4627 30.465C25.0579 31.5254 23.3301 32.6598 21.1878 33.0023C20.9634 33.0378 20.7383 33.0689 20.5126 33.0956C20.4011 33.1151 20.285 33.1281 20.1643 33.1346C18.9142 33.2559 17.6553 33.2559 16.4051 33.1346C16.2113 33.1205 16.0223 33.0679 15.8491 32.9798C15.6759 32.8917 15.522 32.7699 15.3965 32.6216C15.271 32.4732 15.1764 32.3013 15.1182 32.1159C15.0601 31.9305 15.0395 31.7353 15.0578 31.5419C15.0761 31.3484 15.1328 31.1605 15.2246 30.9893C15.3165 30.8181 15.4416 30.6669 15.5926 30.5447C15.7437 30.4224 15.9177 30.3316 16.1043 30.2775C16.2909 30.2234 16.4865 30.2071 16.6795 30.2296C17.7589 30.334 18.846 30.3321 19.925 30.2237L19.9834 30.2179C20.1649 30.1052 20.3192 29.9537 20.4351 29.7742C20.5509 29.5947 20.6255 29.3917 20.6534 29.1798C20.6814 28.968 20.6619 28.7526 20.5965 28.5492C20.5311 28.3458 20.4214 28.1595 20.2752 28.0036C20.1192 27.834 19.9389 27.6885 19.7402 27.5717C17.4422 26.1999 14.3718 25.9723 11.1283 26.5988C7.9597 27.2349 4.95603 28.5165 2.30429 30.3638C2.14791 30.4747 1.97122 30.5537 1.78431 30.5963C1.5974 30.6389 1.40392 30.6443 1.21493 30.6122C1.02594 30.58 0.845133 30.5109 0.682836 30.4089C0.520539 30.3069 0.379928 30.1739 0.269032 30.0175C0.158137 29.8611 0.0791282 29.6844 0.0365174 29.4975C-0.00609344 29.3106 -0.011472 29.1171 0.020689 28.9281C0.085641 28.5464 0.299556 28.2062 0.615376 27.9822C3.60663 25.8952 6.99702 24.4491 10.5737 23.7346Z" fill="white"/>
</svg>
