<svg xmlns="http://www.w3.org/2000/svg" width="54" height="48" viewBox="0 0 54 48" fill="none"><path d="M53.2219 33.8625L52.8187 32.7469C52.5217 31.9749 51.9685 31.3283 51.2517 30.9153C50.535 30.5023 49.6982 30.348 48.8812 30.4781C48.8344 30.4875 48.7969 30.4875 48.75 30.4969V6.56251C48.75 6.55313 48.7406 6.54376 48.7406 6.52501C48.7401 6.42851 48.721 6.33302 48.6844 6.24376C48.6794 6.22154 48.6731 6.19963 48.6656 6.17813C48.6562 6.16876 48.6562 6.15001 48.6469 6.14063L45.8344 0.515634C45.7575 0.360203 45.6385 0.229471 45.491 0.138315C45.3435 0.0471588 45.1734 -0.000760994 45 9.13864e-06H19.6875C19.5331 0.000808 19.3813 0.0397359 19.2455 0.113334C19.1098 0.186932 18.9943 0.292921 18.9094 0.421884L15.1594 6.04688C15.1352 6.07798 15.1162 6.11281 15.1031 6.15001C15.0938 6.17813 15.075 6.19688 15.0656 6.22501C15.0303 6.32805 15.0083 6.43516 15 6.54376V24.7688C14.8594 24.7875 14.7187 24.8063 14.5781 24.8344L10.7531 25.6969V22.5C10.7516 22.0032 10.5536 21.5271 10.2023 21.1758C9.851 20.8245 9.37495 20.6265 8.87813 20.625H1.875C1.37818 20.6265 0.902124 20.8245 0.550814 21.1758C0.199504 21.5271 0.00148381 22.0032 0 22.5V45.9375C0.00148381 46.4343 0.199504 46.9104 0.550814 47.2617C0.902124 47.613 1.37818 47.811 1.875 47.8125H8.87813C9.37495 47.811 9.851 47.613 10.2023 47.2617C10.5536 46.9104 10.7516 46.4343 10.7531 45.9375V43.4906L26.25 46.2938C28.4548 46.6995 30.7293 46.4753 32.8125 45.6469L51.1125 38.4C51.9899 38.0727 52.7032 37.4131 53.0979 36.5639C53.4927 35.7148 53.5372 34.7443 53.2219 33.8625ZM8.87813 45.9375H1.875V22.5H8.87813V45.9375ZM36.5625 1.87501H44.4188L46.2938 5.62501H36.5625V1.87501ZM29.0625 1.87501H34.6875V5.62501H29.0625V1.87501ZM29.0625 7.50001H34.6875V18.75L32.4375 17.0625C32.2752 16.9408 32.0778 16.875 31.875 16.875C31.6722 16.875 31.4748 16.9408 31.3125 17.0625L29.0625 18.75V7.50001ZM20.1938 1.87501H27.1875V5.62501H17.6906L20.1938 1.87501ZM16.875 7.50001H27.1875V20.625C27.1855 20.7987 27.2329 20.9693 27.3242 21.117C27.4155 21.2648 27.5469 21.3835 27.7031 21.4594C27.8588 21.5384 28.0334 21.5723 28.2073 21.5574C28.3812 21.5425 28.5475 21.4793 28.6875 21.375L31.875 18.9844L35.0625 21.375C35.2257 21.495 35.4225 21.5606 35.625 21.5625C35.7722 21.5652 35.9175 21.5297 36.0469 21.4594C36.2031 21.3835 36.3345 21.2648 36.4258 21.117C36.5171 20.9693 36.5645 20.7987 36.5625 20.625V7.50001H46.875V30.7313C46.4062 30.7969 45.9281 30.8719 45.4688 30.9563C44.5219 31.1063 43.5375 31.275 42.5812 31.3688C40.3935 31.6163 38.1919 31.7196 35.9906 31.6781C34.1361 31.6185 32.2864 31.4558 30.45 31.1906C30.5308 30.5397 30.4235 29.8793 30.1406 29.2875C29.9042 28.8125 29.5698 28.3931 29.1593 28.057C28.7488 27.7208 28.2716 27.4756 27.7594 27.3375L18.8719 24.9281C18.2197 24.753 17.5498 24.6524 16.875 24.6281V7.50001ZM50.4187 36.6563L32.1281 43.9031C30.3692 44.6021 28.4487 44.7905 26.5875 44.4469L10.7531 41.5875V27.6188L14.9906 26.6625C16.1111 26.4106 17.2761 26.4364 18.3844 26.7375L27.2625 29.1469C27.5171 29.2134 27.7548 29.333 27.96 29.4977C28.1652 29.6625 28.3332 29.8689 28.4531 30.1031C28.5548 30.3128 28.61 30.542 28.6148 30.7751C28.6197 31.0081 28.5741 31.2394 28.4813 31.4531C28.3162 31.8081 28.0459 32.1037 27.7072 32.2999C27.3684 32.4961 26.9775 32.5834 26.5875 32.55L18.8812 30.9563C18.6376 30.9053 18.3836 30.9532 18.1753 31.0895C17.967 31.2257 17.8213 31.4392 17.7703 31.6828C17.7193 31.9265 17.7673 32.1804 17.9035 32.3888C18.0398 32.5971 18.2532 32.7428 18.4969 32.7938L26.2594 34.3969C26.2896 34.4076 26.3211 34.4139 26.3531 34.4156C26.4844 34.425 26.6062 34.4344 26.7281 34.4344C27.3056 34.4351 27.8756 34.3047 28.3953 34.0529C28.915 33.8012 29.3707 33.4348 29.7281 32.9813C31.7839 33.2934 33.8562 33.4844 35.9344 33.5531C38.2201 33.5963 40.5063 33.4898 42.7781 33.2344C43.7906 33.1313 44.8031 32.9625 45.7781 32.8031C46.8469 32.625 47.9531 32.4375 49.0406 32.3438C49.4456 32.2689 49.864 32.3315 50.2292 32.5218C50.5944 32.7121 50.8855 33.019 51.0562 33.3938L51.4594 34.5C51.6052 34.924 51.5777 35.3885 51.3828 35.7923C51.1879 36.1961 50.8414 36.5066 50.4187 36.6563Z" fill="white"></path><path d="M43.125 23.4375H37.5C37.0032 23.439 36.5271 23.637 36.1758 23.9883C35.8245 24.3396 35.6265 24.8157 35.625 25.3125V27.1875C35.6265 27.6843 35.8245 28.1604 36.1758 28.5117C36.5271 28.863 37.0032 29.061 37.5 29.0625H43.125C43.6218 29.061 44.0979 28.863 44.4492 28.5117C44.8005 28.1604 44.9985 27.6843 45 27.1875V25.3125C44.9985 24.8157 44.8005 24.3396 44.4492 23.9883C44.0979 23.637 43.6218 23.439 43.125 23.4375ZM43.125 27.1875H37.5V25.3125H43.125V27.1875Z" fill="white"></path></svg>