<svg xmlns="http://www.w3.org/2000/svg" width="95" height="96" viewBox="0 0 95 96" fill="none"><circle cx="47.5" cy="48.0239" r="47.5" fill="#3B634C"></circle><circle cx="47.4992" cy="48.0239" r="41.8" fill="#BF9B3E"></circle><path d="M38.7081 62.2239V59.2093L45.9433 51.4775C47.362 49.9643 48.4733 48.7466 49.2772 47.8245C50.1047 46.8787 50.6958 46.0511 51.0505 45.3418C51.4288 44.6325 51.618 43.8877 51.618 43.1074C51.618 41.8306 51.2278 40.8494 50.4476 40.1637C49.6673 39.4543 48.6624 39.0997 47.4329 39.0997C46.1561 39.0997 45.0566 39.4662 44.1345 40.1991C43.2124 40.9085 42.574 41.9488 42.2193 43.3202L38.5308 42.2562C38.8145 40.8612 39.382 39.6553 40.2332 38.6386C41.0844 37.5982 42.1247 36.7943 43.3542 36.2269C44.6074 35.6594 45.9551 35.3757 47.3974 35.3757C49.0762 35.3757 50.5421 35.6949 51.7953 36.3333C53.0485 36.948 54.0179 37.811 54.7036 38.9223C55.4129 40.0336 55.7676 41.3222 55.7676 42.7882C55.7676 43.7576 55.5784 44.7034 55.2001 45.6255C54.8454 46.524 54.2898 47.4816 53.5332 48.4983C52.7765 49.4914 51.8071 50.6145 50.6249 51.8677L44.2409 58.6773H56.2641V62.2239H38.7081Z" fill="white"></path></svg>