<svg xmlns="http://www.w3.org/2000/svg" width="95" height="96" viewBox="0 0 95 96" fill="none"><circle cx="47.5" cy="48.262" r="47.5" fill="#3B634C"></circle><circle cx="47.4992" cy="48.262" r="41.8" fill="#BF9B3E"></circle><path d="M47.0841 62.8876C45.6654 62.8876 44.3295 62.6275 43.0763 62.1073C41.8468 61.5871 40.7828 60.8542 39.8843 59.9084C39.0095 58.9626 38.3829 57.8513 38.0046 56.5745L41.5513 55.2268C42.0241 56.4799 42.7453 57.4494 43.7147 58.135C44.6841 58.8207 45.8073 59.1636 47.0841 59.1636C48.1244 59.1636 49.0229 58.9626 49.7795 58.5606C50.5598 58.1587 51.1627 57.5912 51.5883 56.8582C52.0376 56.1253 52.2622 55.2386 52.2622 54.1982C52.2622 53.1815 52.0376 52.3067 51.5883 51.5737C51.1627 50.8407 50.5598 50.2851 49.7795 49.9068C49.0229 49.5285 48.1244 49.3393 47.0841 49.3393C46.6585 49.3393 46.221 49.3748 45.7718 49.4457C45.3462 49.5166 44.9679 49.6112 44.6369 49.7294L43.7147 47.7788L50.6662 39.586H39.4233V36.0393H55.3478V39.4086L48.5382 47.566L48.4318 46.2182C50.016 46.2419 51.411 46.5966 52.6169 47.2822C53.8227 47.9443 54.7567 48.8664 55.4187 50.0486C56.1044 51.2072 56.4473 52.555 56.4473 54.0918C56.4473 55.747 56.0453 57.2484 55.2414 58.5961C54.4375 59.9202 53.3262 60.9724 51.9075 61.7526C50.5125 62.5093 48.9047 62.8876 47.0841 62.8876Z" fill="white"></path></svg>