<svg xmlns="http://www.w3.org/2000/svg" width="51" height="51" viewBox="0 0 51 51" fill="none"><circle cx="25.5781" cy="25.2322" r="25" fill="#BF9B3E"></circle><path d="M26.8828 32.4509C25.7161 32.4509 24.6797 32.24 23.7734 31.8181C22.8672 31.3962 22.151 30.8155 21.625 30.0759C21.1042 29.3363 20.8333 28.4874 20.8125 27.5291H24.5625C24.5938 28.1176 24.8333 28.5916 25.2813 28.9509C25.7292 29.3051 26.263 29.4822 26.8828 29.4822C27.3672 29.4822 27.7969 29.3754 28.1719 29.1619C28.5469 28.9483 28.8411 28.6488 29.0547 28.2634C29.2682 27.8728 29.3724 27.4249 29.3672 26.9197C29.3724 26.4041 29.2656 25.9535 29.0469 25.5681C28.8333 25.1827 28.5365 24.8832 28.1563 24.6697C27.7813 24.4509 27.349 24.3416 26.8594 24.3416C26.3958 24.3363 25.9557 24.4379 25.5391 24.6462C25.1276 24.8546 24.8151 25.1384 24.6016 25.4978L21.1875 24.8572L21.8828 16.2322H32.1484V19.3494H25.0625L24.6953 23.1228H24.7891C25.0547 22.6801 25.4818 22.3155 26.0703 22.0291C26.6641 21.7374 27.3385 21.5916 28.0938 21.5916C29.0521 21.5916 29.9063 21.8155 30.6562 22.2634C31.4115 22.7061 32.0052 23.3207 32.4375 24.1072C32.875 24.8936 33.0938 25.7947 33.0938 26.8103C33.0938 27.9093 32.8333 28.8832 32.3125 29.7322C31.7969 30.5811 31.0729 31.2478 30.1406 31.7322C29.2135 32.2113 28.1276 32.4509 26.8828 32.4509Z" fill="white"></path></svg>