<svg xmlns="http://www.w3.org/2000/svg" width="58" height="58" viewBox="0 0 58 58" fill="none"><path d="M3 20.9185C2.9969 16.4143 4.52192 12.0421 7.32586 8.51657C10.1298 4.99101 14.0469 2.52048 18.4369 1.5087C22.827 0.496915 27.4306 1.0037 31.4953 2.94624C35.56 4.88878 38.8456 8.15222 40.815 12.2033C43.6659 13.5927 46.1434 15.643 48.0414 18.1834C49.9394 20.7238 51.2029 23.6808 51.7266 26.8081C52.2504 29.9354 52.0193 33.1426 51.0525 36.1626C50.0858 39.1825 48.4114 41.9279 46.1688 44.17C43.9261 46.4122 41.1802 48.0862 38.1596 49.0527C35.1389 50.0193 31.9311 50.2503 28.8031 49.7267C25.6751 49.2031 22.7174 47.9399 20.1765 46.0423C17.6356 44.1447 15.5848 41.6677 14.195 38.8175C10.838 37.1837 8.00821 34.639 6.02866 31.474C4.0491 28.309 2.99961 24.6513 3 20.9185ZM18.7558 40.3884C20.218 42.2844 22.0677 43.8468 24.1816 44.9717C26.2954 46.0965 28.6249 46.7579 31.0145 46.9117C33.4042 47.0654 35.7992 46.7081 38.0399 45.8634C40.2805 45.0188 42.3153 43.7063 44.0086 42.0134C45.7018 40.3205 47.0146 38.2861 47.8595 36.046C48.7043 33.8058 49.0617 31.4113 48.9079 29.0222C48.7541 26.633 48.0926 24.3041 46.9675 22.1907C45.8424 20.0773 44.2796 18.228 42.3833 16.7661C43.0768 20.0134 42.9467 23.3826 42.0049 26.5669C41.0631 29.7512 39.3394 32.6492 36.9909 34.9972C34.6424 37.3452 31.7437 39.0685 28.5587 40.0101C25.3738 40.9518 22.0038 41.0818 18.7558 40.3884ZM16.5106 36.5024C17.6255 36.9638 18.7935 37.3006 20.0146 37.5129L15.4999 32.9992C15.7122 34.2179 16.0491 35.3857 16.5106 36.5024ZM24.5171 37.6844C25.7382 37.5689 26.9429 37.3204 28.11 36.9434L16.3973 25.2363C15.9855 26.3457 15.6819 27.4922 15.4907 28.6599L24.5171 37.6844ZM31.1239 35.6266C32.0346 35.1162 32.8902 34.5283 33.6907 33.8627L19.595 19.7732C18.9254 20.5642 18.324 21.4103 17.7971 22.3026L31.1239 35.6266ZM35.8561 31.6946C36.5198 30.8984 37.1079 30.0441 37.6204 29.1315L24.2966 15.8045C23.403 16.3311 22.5557 16.9325 21.7636 17.6021L35.8531 31.6946H35.8561ZM38.9375 26.1152C39.3111 24.9678 39.5582 23.7715 39.6787 22.5262L30.6522 13.5017C29.4679 13.6977 28.3264 13.9998 27.2278 14.4081L38.9375 26.1182V26.1152ZM39.5072 18.0246C39.298 16.8238 38.9591 15.6491 38.4964 14.5214C37.3684 14.0588 36.1935 13.7199 34.9924 13.5109L39.5072 18.0246Z" fill="white"></path></svg>