<svg xmlns="http://www.w3.org/2000/svg" width="79" height="79" viewBox="0 0 79 79" fill="none"><g clip-path="url(#clip0_1032_5677)"><path d="M52.666 85.6667C52.666 82.0294 42.3499 79.0834 29.6243 79.0834M52.666 85.6667C52.666 89.304 42.3499 92.25 29.6243 92.25C16.8988 92.25 6.58268 89.304 6.58268 85.6667M52.666 85.6667V101.918C52.666 105.667 42.3499 108.708 29.6243 108.708C16.8988 108.708 6.58268 105.67 6.58268 101.918V85.6667M52.666 85.6667C65.2533 85.6667 75.7077 82.4178 75.7077 79.0834V46.1667M29.6243 79.0834C16.8988 79.0834 6.58268 82.0294 6.58268 85.6667M29.6243 79.0834C15.0818 79.0834 3.29102 75.8345 3.29102 72.5V56.0417M29.6243 49.4584C15.0818 49.4584 3.29102 52.4044 3.29102 56.0417M3.29102 56.0417C3.29102 59.679 15.0818 62.625 29.6243 62.625C29.6243 65.9595 40.3321 69.2084 52.9195 69.2084C65.5068 69.2084 75.7077 65.9595 75.7077 62.625M75.7077 46.1667C75.7077 42.5294 65.5035 39.5834 52.9195 39.5834C40.3354 39.5834 30.1313 42.5294 30.1313 46.1667M75.7077 46.1667C75.7077 49.804 65.5035 52.75 52.9195 52.75C40.3354 52.75 30.1313 49.804 30.1313 46.1667M30.1313 46.1667V79.6298" stroke="#3B634C" stroke-width="2"></path></g><defs><clipPath id="clip0_1032_5677"><rect width="79" height="79" fill="white"></rect></clipPath></defs></svg>