<svg xmlns="http://www.w3.org/2000/svg" width="40" height="48" viewBox="0 0 40 48" fill="none"><path d="M13.2108 0C9.03079 0 5.66175 3.36904 5.66175 7.549C5.66175 11.729 9.03079 15.098 13.2108 15.098C16.0085 15.098 18.4228 13.5757 19.7277 11.3235H31.1396C31.3903 11.3309 31.6372 11.235 31.8179 11.0581L33.7051 9.17086C33.882 8.99024 33.9779 8.74328 33.9705 8.49263V6.60538C33.9779 6.35473 33.882 6.10776 33.7051 5.92715L31.8179 4.0399C31.6372 3.86297 31.3903 3.76713 31.1396 3.7745H29.2524C29.0017 3.76713 28.7548 3.86297 28.5742 4.0399L27.8369 4.7771L27.0997 4.0399C26.9191 3.86297 26.6722 3.76713 26.4215 3.7745H24.5343C24.3463 3.77082 24.162 3.82242 24.0035 3.92194L23.1188 4.51171L22.2342 3.92194C22.0757 3.82242 21.8914 3.77082 21.7034 3.7745H19.7277C18.4228 1.52233 16.0085 0 13.2108 0ZM13.2108 1.88725C16.3918 1.88725 18.8725 4.36795 18.8725 7.549C18.8725 10.7301 16.3918 13.2108 13.2108 13.2108C10.0297 13.2108 7.549 10.7301 7.549 7.549C7.549 4.36795 10.0297 1.88725 13.2108 1.88725ZM11.3235 5.66175C10.2804 5.66175 9.43625 6.50585 9.43625 7.549C9.43625 8.59215 10.2804 9.43625 11.3235 9.43625C12.3667 9.43625 13.2108 8.59215 13.2108 7.549C13.2108 6.50585 12.3667 5.66175 11.3235 5.66175ZM20.5238 5.66175H21.4085L22.588 6.45794C22.9087 6.67541 23.3289 6.67541 23.6496 6.45794L24.8291 5.66175H26.0087L27.1587 6.81179C27.3356 6.9961 27.5826 7.09931 27.8369 7.09931C28.0913 7.09931 28.3382 6.9961 28.5152 6.81179L29.6652 5.66175H30.7268L32.0833 7.01821V8.07979L30.7268 9.43625H20.5238C20.6787 8.83174 20.7598 8.20143 20.7598 7.549C20.7598 6.89657 20.6787 6.26626 20.5238 5.66175ZM11.0286 16.9853C9.14137 16.9853 7.4163 18.1427 6.69384 19.9046C6.69016 19.9193 6.66804 19.9193 6.66435 19.9341L3.89245 26.4215H2.83088C1.27905 26.4215 0 27.7006 0 29.2524C0 30.8042 1.27905 32.0833 2.83088 32.0833V44.3504C2.83088 45.9022 4.10993 47.1813 5.66175 47.1813H8.49263C10.0444 47.1813 11.3235 45.9022 11.3235 44.3504V43.4068H28.3088V44.3504C28.3088 45.9022 29.5878 47.1813 31.1396 47.1813H33.9705C35.5223 47.1813 36.8014 45.9022 36.8014 44.3504V32.0833C38.3532 32.0833 39.6323 30.8042 39.6323 29.2524C39.6323 27.7006 38.3532 26.4215 36.8014 26.4215H35.7398L32.9679 19.9341C32.9642 19.9193 32.9421 19.9193 32.9384 19.9046C32.216 18.1427 30.4909 16.9853 28.6036 16.9853H11.0286ZM11.0286 18.8725H28.6036C29.7205 18.8725 30.7784 19.595 31.1986 20.6418L31.2281 20.6713L33.882 26.8933L32.9679 27.5126V27.5421C32.1865 28.0876 31.3497 28.3088 30.3729 28.3088H9.25932C8.28252 28.3088 7.44579 28.0876 6.66435 27.5421V27.5126L5.75022 26.8933L8.40416 20.6713L8.43365 20.6418C8.85386 19.595 9.91175 18.8725 11.0286 18.8725ZM2.83088 28.3088H4.42324L5.60277 29.1049V29.0755H5.63226C6.73439 29.8385 7.98027 30.196 9.25932 30.196H30.3729C31.652 30.196 32.8979 29.8385 34 29.0755C34.0074 29.0718 34.0221 29.0791 34.0295 29.0755V29.1049L35.209 28.3088H36.8014C37.3248 28.3088 37.745 28.729 37.745 29.2524C37.745 29.7758 37.3248 30.196 36.8014 30.196H34.9141V41.5195H4.71813V30.196H2.83088C2.30746 30.196 1.88725 29.7758 1.88725 29.2524C1.88725 28.729 2.30746 28.3088 2.83088 28.3088ZM9.90806 33.0269C8.09453 33.0269 6.60538 34.516 6.60538 36.3296C6.60538 38.1431 8.09453 39.6323 9.90806 39.6323C11.7216 39.6323 13.2108 38.1431 13.2108 36.3296C13.2108 34.516 11.7216 33.0269 9.90806 33.0269ZM29.7242 33.0269C27.9107 33.0269 26.4215 34.516 26.4215 36.3296C26.4215 38.1431 27.9107 39.6323 29.7242 39.6323C31.5377 39.6323 33.0269 38.1431 33.0269 36.3296C33.0269 34.516 31.5377 33.0269 29.7242 33.0269ZM9.90806 34.9141C10.7337 34.9141 11.3235 35.5039 11.3235 36.3296C11.3235 37.1552 10.7337 37.745 9.90806 37.745C9.08239 37.745 8.49263 37.1552 8.49263 36.3296C8.49263 35.5039 9.08239 34.9141 9.90806 34.9141ZM29.7242 34.9141C30.5499 34.9141 31.1396 35.5039 31.1396 36.3296C31.1396 37.1552 30.5499 37.745 29.7242 37.745C28.8985 37.745 28.3088 37.1552 28.3088 36.3296C28.3088 35.5039 28.8985 34.9141 29.7242 34.9141ZM4.71813 43.4068H9.43625V44.3504C9.43625 44.8738 9.01604 45.294 8.49263 45.294H5.66175C5.13833 45.294 4.71813 44.8738 4.71813 44.3504V43.4068ZM30.196 43.4068H34.9141V44.3504C34.9141 44.8738 34.4939 45.294 33.9705 45.294H31.1396C30.6162 45.294 30.196 44.8738 30.196 44.3504V43.4068Z" fill="white"></path></svg>