<svg xmlns="http://www.w3.org/2000/svg" width="54" height="54" viewBox="0 0 54 54" fill="none"><path d="M20.75 31.3751C20.75 33.8001 22.625 35.7501 24.925 35.7501H29.625C31.625 35.7501 33.25 34.0501 33.25 31.9251C33.25 29.6501 32.25 28.8251 30.775 28.3001L23.25 25.6751C21.775 25.1501 20.775 24.3501 20.775 22.0501C20.775 19.9501 22.4 18.2251 24.4 18.2251H29.1C31.4 18.2251 33.275 20.1751 33.275 22.6001" stroke="white" stroke-width="2.5" stroke-linecap="round" stroke-linejoin="round"></path><path d="M27 15.75V38.25" stroke="white" stroke-width="2.5" stroke-linecap="round" stroke-linejoin="round"></path><path d="M52 27C52 40.8 40.8 52 27 52C13.2 52 2 40.8 2 27C2 13.2 13.2 2 27 2" stroke="white" stroke-width="2.5" stroke-linecap="round" stroke-linejoin="round"></path><path d="M52 12V2H42" stroke="white" stroke-width="2.5" stroke-linecap="round" stroke-linejoin="round"></path><path d="M39.5 14.5L52 2" stroke="white" stroke-width="2.5" stroke-linecap="round" stroke-linejoin="round"></path></svg>