<svg xmlns="http://www.w3.org/2000/svg" width="51" height="51" viewBox="0 0 51 51" fill="none"><path d="M41.4375 7.96851H9.5625C6.92189 7.96851 4.78125 10.1091 4.78125 12.7498V41.4373C4.78125 44.0779 6.92189 46.2185 9.5625 46.2185H41.4375C44.0781 46.2185 46.2188 44.0779 46.2188 41.4373V12.7498C46.2188 10.1091 44.0781 7.96851 41.4375 7.96851Z" stroke="#FFFDFD" stroke-width="2" stroke-linejoin="round"></path><path d="M29.4844 25.4998C30.8047 25.4998 31.875 24.4294 31.875 23.1091C31.875 21.7888 30.8047 20.7185 29.4844 20.7185C28.1641 20.7185 27.0938 21.7888 27.0938 23.1091C27.0938 24.4294 28.1641 25.4998 29.4844 25.4998Z" fill="#FFFDFD"></path><path d="M37.4531 25.4998C38.7734 25.4998 39.8438 24.4294 39.8438 23.1091C39.8438 21.7888 38.7734 20.7185 37.4531 20.7185C36.1328 20.7185 35.0625 21.7888 35.0625 23.1091C35.0625 24.4294 36.1328 25.4998 37.4531 25.4998Z" fill="#FFFDFD"></path><path d="M29.4844 33.4685C30.8047 33.4685 31.875 32.3982 31.875 31.0779C31.875 29.7576 30.8047 28.6873 29.4844 28.6873C28.1641 28.6873 27.0938 29.7576 27.0938 31.0779C27.0938 32.3982 28.1641 33.4685 29.4844 33.4685Z" fill="#FFFDFD"></path><path d="M37.4531 33.4685C38.7734 33.4685 39.8438 32.3982 39.8438 31.0779C39.8438 29.7576 38.7734 28.6873 37.4531 28.6873C36.1328 28.6873 35.0625 29.7576 35.0625 31.0779C35.0625 32.3982 36.1328 33.4685 37.4531 33.4685Z" fill="#FFFDFD"></path><path d="M13.5469 33.4685C14.8672 33.4685 15.9375 32.3982 15.9375 31.0779C15.9375 29.7576 14.8672 28.6873 13.5469 28.6873C12.2266 28.6873 11.1562 29.7576 11.1562 31.0779C11.1562 32.3982 12.2266 33.4685 13.5469 33.4685Z" fill="#FFFDFD"></path><path d="M21.5156 33.4685C22.8359 33.4685 23.9062 32.3982 23.9062 31.0779C23.9062 29.7576 22.8359 28.6873 21.5156 28.6873C20.1953 28.6873 19.125 29.7576 19.125 31.0779C19.125 32.3982 20.1953 33.4685 21.5156 33.4685Z" fill="#FFFDFD"></path><path d="M13.5469 41.4373C14.8672 41.4373 15.9375 40.3669 15.9375 39.0466C15.9375 37.7263 14.8672 36.656 13.5469 36.656C12.2266 36.656 11.1562 37.7263 11.1562 39.0466C11.1562 40.3669 12.2266 41.4373 13.5469 41.4373Z" fill="#FFFDFD"></path><path d="M21.5156 41.4373C22.8359 41.4373 23.9062 40.3669 23.9062 39.0466C23.9062 37.7263 22.8359 36.656 21.5156 36.656C20.1953 36.656 19.125 37.7263 19.125 39.0466C19.125 40.3669 20.1953 41.4373 21.5156 41.4373Z" fill="#FFFDFD"></path><path d="M29.4844 41.4373C30.8047 41.4373 31.875 40.3669 31.875 39.0466C31.875 37.7263 30.8047 36.656 29.4844 36.656C28.1641 36.656 27.0938 37.7263 27.0938 39.0466C27.0938 40.3669 28.1641 41.4373 29.4844 41.4373Z" fill="#FFFDFD"></path><path d="M12.75 4.78101V7.96851M38.25 4.78101V7.96851" stroke="#FFFDFD" stroke-width="2" stroke-linecap="round" stroke-linejoin="round"></path><path d="M46.2188 15.9373H4.78125" stroke="#FFFDFD" stroke-width="2" stroke-linejoin="round"></path></svg>