<svg xmlns="http://www.w3.org/2000/svg" width="69" height="74" viewBox="0 0 69 74" fill="none"><path d="M34.2356 73C53.623 73 67.4712 66.1313 67.4712 50.8429C67.4712 34.2252 59.1623 25.8055 42.5445 17.4966L49.7344 6.26295C50.0166 5.72103 50.1563 5.1162 50.1402 4.50542C50.1242 3.89463 49.953 3.29797 49.6427 2.77162C49.3324 2.24527 48.8933 1.80653 48.3667 1.49671C47.8401 1.18689 47.2432 1.01618 46.6325 1.00065H23.146C22.4945 0.988267 21.8518 1.15293 21.2865 1.47709C20.7212 1.80124 20.2545 2.27274 19.9361 2.84129C19.6177 3.40985 19.4596 4.05416 19.4786 4.70553C19.4976 5.35689 19.693 5.99088 20.044 6.53991L25.9267 17.4966C9.30889 25.9163 1 34.3359 1 50.9537C1 66.1313 14.8482 73 34.2356 73Z" stroke="white" stroke-width="2" stroke-linecap="round" stroke-linejoin="round"></path><path d="M25.9258 17.6077C26.8379 18.9753 28.0735 20.0966 29.5229 20.8721C30.9723 21.6477 32.5908 22.0535 34.2347 22.0535C35.8785 22.0535 37.497 21.6477 38.9464 20.8721C40.3959 20.0966 41.6315 18.9753 42.5436 17.6077" stroke="white" stroke-width="2" stroke-linecap="round" stroke-linejoin="round"></path></svg>