<svg xmlns="http://www.w3.org/2000/svg" width="69" height="74" viewBox="0 0 69 74" fill="none"><path d="M34.3396 37.3292V37.5892H34.5996H38.0784V38.858H31.3007C30.5564 38.858 29.8434 39.1587 29.3184 39.6924C28.7935 40.2261 28.4994 40.9489 28.4994 41.7018C28.4994 42.4546 28.7935 43.1775 29.3184 43.7111C29.8434 44.2449 30.5564 44.5456 31.3007 44.5456H35.699C36.7689 44.5468 37.7956 44.9795 38.5536 45.7501C39.3116 46.5208 39.7388 47.5667 39.74 48.6585V48.8567C39.7388 49.9485 39.3116 50.9944 38.5536 51.7651C37.7956 52.5357 36.7689 52.9684 35.699 52.9696H34.5996H34.3396V53.2296V56.1H33.1002V53.2296V52.9696H32.8402H28.5144V51.7008H35.6993H35.6995C36.4436 51.7 37.156 51.399 37.6808 50.8655C38.2054 50.3321 38.4998 49.6098 38.5006 48.8573V48.857V48.6582V48.6579C38.4998 47.9054 38.2054 47.1831 37.6808 46.6497C37.156 46.1162 36.4436 45.8153 35.6995 45.8144H35.6993H31.3007C30.2305 45.8144 29.2032 45.3822 28.445 44.6114C27.6867 43.8404 27.26 42.7939 27.26 41.7018C27.26 40.6097 27.6867 39.5632 28.445 38.7922C29.2032 38.0214 30.2305 37.5892 31.3007 37.5892H32.8402H33.1002V37.3292V34.26H34.3396V37.3292Z" fill="white" stroke="white" stroke-width="0.52"></path><path d="M34.2356 73C53.623 73 67.4712 66.1313 67.4712 50.8429C67.4712 34.2252 59.1623 25.8055 42.5445 17.4966L49.7344 6.26295C50.0166 5.72103 50.1563 5.1162 50.1402 4.50542C50.1242 3.89463 49.953 3.29797 49.6427 2.77162C49.3324 2.24527 48.8933 1.80653 48.3667 1.49671C47.8401 1.18689 47.2432 1.01618 46.6325 1.00065H23.146C22.4945 0.988267 21.8518 1.15293 21.2865 1.47709C20.7212 1.80124 20.2545 2.27274 19.9361 2.84129C19.6177 3.40985 19.4596 4.05416 19.4786 4.70553C19.4976 5.35689 19.693 5.99088 20.044 6.53991L25.9267 17.4966C9.30889 25.9163 1 34.3359 1 50.9537C1 66.1313 14.8482 73 34.2356 73Z" stroke="white" stroke-width="2" stroke-linecap="round" stroke-linejoin="round"></path><path d="M25.9258 17.6077C26.8379 18.9753 28.0735 20.0966 29.5229 20.8721C30.9723 21.6477 32.5908 22.0535 34.2347 22.0535C35.8785 22.0535 37.497 21.6477 38.9464 20.8721C40.3959 20.0966 41.6315 18.9753 42.5436 17.6077" stroke="white" stroke-width="2" stroke-linecap="round" stroke-linejoin="round"></path></svg>