<svg xmlns="http://www.w3.org/2000/svg" width="1728" height="460" viewBox="0 0 1728 460" fill="none"><mask id="mask0_942_2417" style="mask-type:alpha" maskUnits="userSpaceOnUse" x="-17" y="0" width="1813" height="460"><rect x="-17" width="1813" height="460" fill="#3B634C"></rect></mask><g mask="url(#mask0_942_2417)"><path d="M-71.5 297C-71.5 297 -16.5357 -107.207 175.5 -133.5C415.774 -166.398 -30.6884 359.828 175.5 487.5C417.587 637.401 352.575 -257.039 595.5 -108.5C741.047 -19.5038 629.716 184.539 758 297C821.526 352.69 864.033 398.005 948.5 399.5C1082.97 401.88 1096.45 250.562 1188.5 152.5C1237.21 100.612 1241.53 28.4576 1312 18.5C1422.76 2.84781 1356.35 187.454 1379 297C1401.68 406.65 1362.31 488.822 1428 579.5C1577.34 785.664 1943.5 180.5 1943.5 180.5" stroke="#437767"></path><path d="M-93 296.977C-93 296.977 -38.0357 -107.23 154 -133.523C394.274 -166.42 -52.1884 359.805 154 487.477C396.087 637.378 331.075 -257.062 574 -108.523C719.547 -19.5267 608.216 184.516 736.5 296.977C800.026 352.667 842.533 397.982 927 399.477C1061.47 401.857 1074.95 250.539 1167 152.477C1215.71 100.589 1220.03 28.4347 1290.5 18.4771C1401.26 2.82486 1334.85 187.431 1357.5 296.977C1380.18 406.627 1340.81 488.799 1406.5 579.477C1555.84 785.641 1922 180.477 1922 180.477" stroke="#437767"></path><path d="M-114.5 296.954C-114.5 296.954 -59.5357 -107.253 132.5 -133.546C372.774 -166.443 -73.6884 359.782 132.5 487.454C374.587 637.355 309.575 -257.085 552.5 -108.546C698.047 -19.5497 586.716 184.493 715 296.954C778.526 352.644 821.033 397.959 905.5 399.454C1039.97 401.834 1053.45 250.516 1145.5 152.454C1194.21 100.566 1198.53 28.4117 1269 18.4541C1379.76 2.80191 1313.35 187.408 1336 296.954C1358.68 406.604 1319.31 488.776 1385 579.454C1534.34 785.618 1900.5 180.454 1900.5 180.454" stroke="#437767"></path><path d="M-136 296.931C-136 296.931 -81.0357 -107.276 111 -133.569C351.274 -166.466 -95.1884 359.759 111 487.431C353.087 637.332 288.075 -257.108 531 -108.569C676.547 -19.5726 565.216 184.47 693.5 296.931C757.026 352.621 799.533 397.936 884 399.431C1018.47 401.811 1031.95 250.493 1124 152.431C1172.71 100.543 1177.03 28.3888 1247.5 18.4312C1358.26 2.77896 1291.85 187.385 1314.5 296.931C1337.18 406.581 1297.81 488.753 1363.5 579.431C1512.84 785.595 1879 180.431 1879 180.431" stroke="#437767"></path><path d="M-157.5 296.908C-157.5 296.908 -102.536 -107.299 89.5 -133.592C329.774 -166.489 -116.688 359.736 89.5 487.408C331.587 637.309 266.575 -257.131 509.5 -108.592C655.047 -19.5956 543.716 184.447 672 296.908C735.526 352.598 778.033 397.913 862.5 399.408C996.974 401.788 1010.45 250.47 1102.5 152.408C1151.21 100.52 1155.53 28.3658 1226 18.4082C1336.76 2.75602 1270.35 187.362 1293 296.908C1315.68 406.558 1276.31 488.73 1342 579.408C1491.34 785.573 1857.5 180.408 1857.5 180.408" stroke="#437767"></path><path d="M-179 296.885C-179 296.885 -124.036 -107.322 68 -133.615C308.274 -166.512 -138.188 359.713 68 487.385C310.087 637.286 245.075 -257.153 488 -108.615C633.547 -19.6185 522.216 184.424 650.5 296.885C714.026 352.575 756.533 397.89 841 399.385C975.474 401.765 988.952 250.447 1081 152.385C1129.71 100.497 1134.03 28.3429 1204.5 18.3853C1315.26 2.73307 1248.85 187.339 1271.5 296.885C1294.18 406.535 1254.81 488.707 1320.5 579.385C1469.84 785.55 1836 180.385 1836 180.385" stroke="#437767"></path><path d="M-200.5 296.862C-200.5 296.862 -145.536 -107.345 46.5 -133.638C286.774 -166.535 -159.688 359.69 46.5 487.362C288.587 637.263 223.575 -257.176 466.5 -108.638C612.047 -19.6415 500.716 184.401 629 296.862C692.526 352.552 735.033 397.867 819.5 399.362C953.974 401.742 967.452 250.424 1059.5 152.362C1108.21 100.475 1112.53 28.3199 1183 18.3623C1293.76 2.71012 1227.35 187.316 1250 296.862C1272.68 406.512 1233.31 488.684 1299 579.362C1448.34 785.527 1814.5 180.362 1814.5 180.362" stroke="#437767"></path><path d="M-222 296.839C-222 296.839 -167.036 -107.368 25 -133.661C265.274 -166.558 -181.188 359.667 25 487.339C267.087 637.24 202.075 -257.199 445 -108.661C590.547 -19.6644 479.216 184.378 607.5 296.839C671.026 352.529 713.533 397.844 798 399.339C932.474 401.719 945.952 250.401 1038 152.339C1086.71 100.452 1091.03 28.297 1161.5 18.3394C1272.26 2.68717 1205.85 187.293 1228.5 296.839C1251.18 406.49 1211.81 488.661 1277.5 579.339C1426.84 785.504 1793 180.339 1793 180.339" stroke="#437767"></path></g></svg>