<svg xmlns="http://www.w3.org/2000/svg" width="96" height="96" viewBox="0 0 96 96" fill="none"><path d="M36 46.5L35.9927 46.5C34.2117 46.5087 32.7113 45.89 31.4127 44.5913C30.114 43.2927 29.4935 41.7903 29.5 40.0055C29.5065 38.2119 30.131 36.7053 31.4172 35.4081C32.6961 34.1183 34.1944 33.4956 35.9964 33.5C37.8042 33.5044 39.3084 34.1298 40.5913 35.4127C41.8742 36.6955 42.4978 38.1978 42.5 40.0018C42.5022 41.803 41.8798 43.3051 40.5922 44.5904C39.3032 45.8773 37.7995 46.5 36 46.5ZM86.5 23.9982V24V72C86.5 73.7995 85.8773 75.3032 84.5904 76.5922C83.3051 77.8798 81.803 78.5022 80.0018 78.5H80H16C14.2006 78.5 12.6987 77.8773 11.4127 76.5913C10.1268 75.3055 9.50238 73.8019 9.5 71.999V24C9.5 22.2014 10.1234 20.6998 11.4118 19.4136C12.7014 18.1261 14.2045 17.5024 16.001 17.5H80C81.7986 17.5 83.3021 18.1234 84.5913 19.4127C85.8805 20.7018 86.5022 22.2034 86.5 23.9982ZM14.5 72V73.5H16H80H81.5V72V24V22.5H80H16H14.5V24V72ZM74.5 45.5V50.5H57.5V45.5H74.5ZM74.5 33.5V38.5H57.5V33.5H74.5ZM50.5 61.8V62.5H21.5V61.8C21.5 59.415 22.6146 57.4818 25.1752 55.9362C27.7986 54.3526 31.3681 53.4974 35.9992 53.5C40.6312 53.5026 44.2021 54.3577 46.8265 55.9372C49.3848 57.4768 50.5 59.4089 50.5 61.8Z" fill="white" stroke="#3B634C" stroke-width="3"></path></svg>