<svg xmlns="http://www.w3.org/2000/svg" width="98" height="98" viewBox="0 0 98 98" fill="none"><path d="M31.8484 58.3C31.3313 58.3 30.8353 58.0946 30.4696 57.7289C30.1039 57.3632 29.8984 56.8672 29.8984 56.35C29.8984 55.8329 30.1039 55.3369 30.4696 54.9712C30.8353 54.6055 31.3313 54.4 31.8484 54.4H66.1484C66.6656 54.4 67.1616 54.6055 67.5273 54.9712C67.893 55.3369 68.0984 55.8329 68.0984 56.35C68.0984 56.8672 67.893 57.3632 67.5273 57.7289C67.1616 58.0946 66.6656 58.3 66.1484 58.3H31.8484ZM31.8484 73C31.3313 73 30.8353 72.7946 30.4696 72.4289C30.1039 72.0632 29.8984 71.5672 29.8984 71.05C29.8984 70.5329 30.1039 70.0369 30.4696 69.6712C30.8353 69.3055 31.3313 69.1 31.8484 69.1H66.1484C66.6656 69.1 67.1616 69.3055 67.5273 69.6712C67.893 70.0369 68.0984 70.5328 68.0984 71.05C68.0984 71.5672 67.893 72.0632 67.5273 72.4289C67.1616 72.7946 66.6656 73 66.1484 73H31.8484Z" fill="#F4F4F4" stroke="#3B634C"></path><path d="M54.8057 5.40003L54.8059 5.40003C55.7557 5.39962 56.6951 5.59671 57.5646 5.97878C58.4341 6.36085 59.2147 6.91956 59.8567 7.61942L59.8567 7.61945L80.9953 30.6593L80.9954 30.6594C82.1551 31.9226 82.7988 33.575 82.7992 35.2898C82.7992 35.2899 82.7992 35.2899 82.7992 35.29V85.75C82.7992 87.5667 82.0775 89.3091 80.7929 90.5937C79.5083 91.8783 77.766 92.6 75.9492 92.6H22.0492C20.2325 92.6 18.4902 91.8783 17.2055 90.5937C15.9209 89.3091 15.1992 87.5667 15.1992 85.75V12.25C15.1992 10.4333 15.9209 8.69097 17.2055 7.40634C18.4902 6.12172 20.2325 5.40003 22.0492 5.40003L54.8057 5.40003ZM78.8992 35.2898L78.8992 35.2893C78.8985 34.5506 78.6206 33.839 78.1205 33.2952C78.1205 33.2952 78.1205 33.2952 78.1204 33.2951L56.9823 10.2558C56.7056 9.95418 56.3691 9.71342 55.9943 9.54887C55.6196 9.3844 55.2149 9.29965 54.8057 9.30002C54.8055 9.30002 54.8054 9.30002 54.8052 9.30002L22.0492 9.30002C21.2668 9.30002 20.5165 9.61083 19.9633 10.1641C19.41 10.7173 19.0992 11.4676 19.0992 12.25V85.75C19.0992 86.5324 19.41 87.2828 19.9633 87.836C20.5165 88.3892 21.2668 88.7 22.0492 88.7H75.9492C76.7316 88.7 77.482 88.3892 78.0352 87.836C78.5884 87.2827 78.8992 86.5324 78.8992 85.75V35.2898Z" fill="#F4F4F4" stroke="#3B634C"></path><path d="M53.4 34.3V34.8H53.9H80.85C81.3672 34.8 81.8632 35.0055 82.2289 35.3712C82.5946 35.7369 82.8 36.2329 82.8 36.75C82.8 37.2672 82.5946 37.7632 82.2289 38.1289C81.8632 38.4946 81.3672 38.7 80.85 38.7H51.45C50.9328 38.7 50.4368 38.4946 50.0711 38.1289C49.7054 37.7632 49.5 37.2672 49.5 36.75V7.35002C49.5 6.83285 49.7054 6.33686 50.0711 5.97117C50.4368 5.60547 50.9328 5.40002 51.45 5.40002C51.9672 5.40002 52.4632 5.60547 52.8289 5.97117C53.1946 6.33686 53.4 6.83285 53.4 7.35002V34.3Z" fill="#F4F4F4" stroke="#3B634C"></path></svg>