<svg xmlns="http://www.w3.org/2000/svg" width="46" height="46" viewBox="0 0 46 46" fill="none"><path d="M23 29.8281C24.3505 29.8281 25.6706 29.4277 26.7935 28.6774C27.9164 27.9271 28.7916 26.8607 29.3084 25.613C29.8252 24.3653 29.9604 22.9924 29.6969 21.6679C29.4335 20.3434 28.7831 19.1267 27.8282 18.1718C26.8733 17.2169 25.6566 16.5665 24.3321 16.3031C23.0076 16.0396 21.6347 16.1748 20.387 16.6916C19.1393 17.2084 18.0729 18.0836 17.3226 19.2065C16.5723 20.3294 16.1719 21.6495 16.1719 23C16.1719 24.8109 16.8913 26.5477 18.1718 27.8282C19.4523 29.1087 21.1891 29.8281 23 29.8281ZM23 18.3281C23.924 18.3281 24.8273 18.6021 25.5956 19.1155C26.3638 19.6288 26.9626 20.3585 27.3162 21.2122C27.6699 22.0658 27.7624 23.0052 27.5821 23.9114C27.4018 24.8177 26.9569 25.6501 26.3035 26.3035C25.6501 26.9569 24.8177 27.4018 23.9114 27.5821C23.0052 27.7624 22.0658 27.6699 21.2122 27.3162C20.3585 26.9626 19.6288 26.3638 19.1155 25.5956C18.6021 24.8273 18.3281 23.924 18.3281 23C18.3281 21.7609 18.8203 20.5726 19.6965 19.6965C20.5726 18.8203 21.7609 18.3281 23 18.3281ZM43.125 10.4219H2.875C2.58906 10.4219 2.31484 10.5355 2.11265 10.7377C1.91046 10.9398 1.79688 11.2141 1.79688 11.5V34.5C1.79688 34.7859 1.91046 35.0602 2.11265 35.2624C2.31484 35.4645 2.58906 35.5781 2.875 35.5781H43.125C43.4109 35.5781 43.6852 35.4645 43.8874 35.2624C44.0895 35.0602 44.2031 34.7859 44.2031 34.5V11.5C44.2031 11.2141 44.0895 10.9398 43.8874 10.7377C43.6852 10.5355 43.4109 10.4219 43.125 10.4219ZM3.95312 19.5536C5.62716 19.1083 7.15385 18.2286 8.37874 17.0037C9.60363 15.7789 10.4833 14.2522 10.9286 12.5781H35.0714C35.5167 14.2522 36.3964 15.7789 37.6213 17.0037C38.8461 18.2286 40.3728 19.1083 42.0469 19.5536V26.4464C40.3728 26.8917 38.8461 27.7714 37.6213 28.9963C36.3964 30.2211 35.5167 31.7478 35.0714 33.4219H10.9286C10.4833 31.7478 9.60363 30.2211 8.37874 28.9963C7.15385 27.7714 5.62716 26.8917 3.95312 26.4464V19.5536ZM42.0469 17.3021C40.9549 16.9206 39.963 16.2978 39.1451 15.4799C38.3272 14.662 37.7044 13.6701 37.3229 12.5781H42.0469V17.3021ZM8.67711 12.5781C8.29564 13.6701 7.67276 14.662 6.85486 15.4799C6.03696 16.2978 5.0451 16.9206 3.95312 17.3021V12.5781H8.67711ZM3.95312 28.6979C5.0451 29.0794 6.03696 29.7022 6.85486 30.5201C7.67276 31.338 8.29564 32.3299 8.67711 33.4219H3.95312V28.6979ZM37.3229 33.4219C37.7044 32.3299 38.3272 31.338 39.1451 30.5201C39.963 29.7022 40.9549 29.0794 42.0469 28.6979V33.4219H37.3229Z" fill="white"></path></svg>