<svg xmlns="http://www.w3.org/2000/svg" width="52" height="52" viewBox="0 0 52 52" fill="none"><path d="M51.3125 38.377L50.7607 38.053C50.7185 38.0285 46.5023 35.5268 45.4543 32.491L45.2206 31.8185L44.7886 32.383C44.7751 32.4007 44.1761 33.1415 42.4995 34.0106C41.2584 26.9458 37.0363 18.5117 31.4878 14.9157C33.074 15.0439 34.6653 14.9123 36.2009 14.3537C37.1257 14.0179 36.7266 12.511 35.7934 12.8518C34.5345 13.31 33.2731 13.4349 32.0142 13.3707C35.1049 10.5383 37.5315 6.19719 37.5315 3.023C37.5315 2.26025 37.5315 0.840219 36.4009 0.840219C35.947 0.840219 35.5799 1.12372 35.0728 1.51522C34.2949 2.11512 33.1204 3.023 31.3949 3.023C30.7377 3.023 29.5345 2.32944 28.5675 1.77256C27.3989 1.10009 26.6522 0.6875 26.0245 0.6875C24.985 0.6875 23.4569 1.52788 22.1086 2.26953C21.5602 2.57075 20.8101 2.98419 20.6548 3.02384C18.7007 3.02384 17.5659 2.12272 16.8132 1.52619C16.3745 1.17687 16.0564 0.92375 15.632 0.92375C14.5199 0.92375 14.5199 2.25772 14.5199 3.80262C14.5199 6.78444 16.7913 10.7205 19.7655 13.3657C17.8916 13.4998 16.0437 14.066 14.7452 15.324C14.028 16.0176 15.1148 17.1178 15.8294 16.426C16.9086 15.3797 18.3236 14.9317 19.8372 14.8448C19.8803 14.9992 19.9326 15.1511 19.9967 15.3004C13.6551 19.8575 9.15031 30.6786 9.15031 37.9838C9.15031 38.7043 9.206 39.3566 9.29206 39.9708C7.65688 39.2443 7.06034 38.6073 7.04853 38.593L6.61316 38.0909L6.39884 38.7238C5.45131 41.5115 1.33212 43.9297 1.29078 43.9542L0.6875 44.3043L1.30091 44.6359C1.51606 44.7523 1.72953 44.8544 1.94469 44.965L1.55656 45.2341L1.76159 47.7991L17.8376 51.3125L23.9328 47.4135C24.5479 47.4169 25.1706 47.4186 25.8042 47.4186L32.9289 51.3125L49.0352 46.25V43.5424L48.6091 43.2868C48.8218 43.1517 49.0344 43.0142 49.2462 42.8725L49.8106 42.4953L49.6866 42.4346L50.4046 42.238L50.5261 39.4232L50.111 39.1287C50.3321 38.9963 50.5523 38.8613 50.7733 38.7212L51.3125 38.377ZM16.0547 3.80262C16.0547 3.428 16.0598 3.13606 16.0674 2.90909C16.1965 3.01034 16.3467 3.12088 16.507 3.23478C16.9989 4.41266 17.9295 6.10859 19.5073 7.17678C21.4243 8.47616 21.1695 6.98272 22.1922 5.61922C23.2148 4.25656 23.9067 3.54275 25.6195 7.04769C26.3662 8.57572 27.6107 4.3055 28.7937 3.68197C29.1067 3.85241 29.4189 4.01103 29.7252 4.14603C31.8463 7.59528 32.8293 6.5195 34.7134 3.65244C35.2315 3.34869 35.6567 3.023 35.9951 2.76228C35.9967 2.84075 35.9984 2.92766 35.9984 3.02469C35.9984 5.73313 33.7853 9.61775 31.0752 12.1515C30.9472 11.8263 30.7639 11.5258 30.5335 11.2631C29.4391 10.0236 27.7288 11.3981 26.918 12.3C25.4794 11.8377 23.1355 10.5644 21.6083 11.2934C21.2279 11.4699 20.8786 11.7066 20.5738 11.9946C18.0763 9.71816 16.0547 6.43175 16.0547 3.80262ZM29.7268 13.0619C29.3485 12.9817 28.9724 12.8917 28.5988 12.7919C29.0696 12.3861 29.5016 12.2443 29.683 12.8476C29.7024 12.9134 29.7142 12.9885 29.7268 13.0619ZM23.3143 13.5859C23.0351 13.5328 22.7482 13.4847 22.4529 13.4467C22.2289 13.3063 22.0097 13.1586 21.7956 13.0037C22.5668 12.4865 23.8965 12.7616 25.1672 13.1927C24.5403 13.256 23.9218 13.3927 23.3143 13.5859ZM23.6974 15.8134C23.2249 15.9315 22.7102 15.8843 22.2656 15.7071C22.4461 15.6118 22.6284 15.5291 22.8106 15.4455C23.1059 15.5881 23.4013 15.7071 23.6974 15.8134ZM8.09056 46.5698C6.07812 45.987 4.1254 45.2149 2.25856 44.2638C3.40353 43.5112 5.89766 41.6912 6.91184 39.5042C7.60709 40.0501 9.21191 41.0457 12.3372 41.8102C12.284 41.8962 12.219 41.9882 12.1566 42.0785C9.48866 41.3799 7.97159 40.4965 7.94712 40.4813L7.57925 40.2619L7.40291 40.6559C7.17087 41.1723 6.62666 41.2499 6.32375 41.2499C6.23938 41.2499 6.18284 41.244 6.17525 41.2432L5.87403 41.1993L5.76434 41.4879C5.53991 42.0768 4.61853 42.8463 4.28103 43.0935L3.71741 43.507L4.36203 43.7711C4.60166 43.8689 4.66662 43.9592 4.67 43.9828C4.67844 44.0411 4.57634 44.1946 4.4675 44.2832L3.97644 44.6789L4.54766 44.943C5.71794 45.483 7.04347 45.9302 8.369 46.2989C8.26353 46.4027 8.17241 46.4913 8.09056 46.5698ZM14.8946 43.426C16.0741 43.5913 17.3811 43.696 18.8087 43.696H18.8096C19.1066 43.696 19.4078 43.6909 19.7149 43.6816C19.7354 43.7453 19.7646 43.8058 19.8018 43.8613C19.8769 43.9753 19.9782 44.0697 20.1064 44.1432L17.9532 45.9834C17.9121 45.9816 17.871 45.9808 17.83 45.9808C16.8706 45.9808 16.1551 46.3335 15.8117 46.9613C14.5106 46.7953 13.2156 46.5851 11.9288 46.331C12.9632 45.4105 13.9529 44.4411 14.8946 43.426ZM5.31884 44.4359C5.40322 44.2765 5.45806 44.0832 5.42853 43.8723C5.40048 43.682 5.30925 43.5067 5.1695 43.3745C5.54834 43.0497 6.07063 42.5485 6.3575 42.0296C7.00972 42.0203 7.54803 41.7731 7.88722 41.336C8.45844 41.6347 9.74516 42.238 11.6461 42.7611C10.869 43.7356 9.82194 44.8409 9.00772 45.6628C7.73872 45.3269 6.46044 44.9219 5.31884 44.4359ZM17.3431 47.9873L17.1702 47.9881C16.4437 47.9881 14.0365 47.9291 10.8564 47.2667C10.9677 47.1722 11.0833 47.0752 11.1905 46.9824C13.7707 47.5215 15.8514 47.7527 16.0075 47.7704L16.3163 47.8033L16.4116 47.5038C16.62 46.8575 17.3887 46.7622 17.8291 46.7622C17.9498 46.7622 18.0299 46.7697 18.0392 46.7706L18.2029 46.7883L21.9432 43.5922L20.9434 43.5593C20.6093 43.5475 20.4684 43.4724 20.4338 43.4209L20.6456 42.8666L20.06 42.891C19.6331 42.9096 19.2162 42.9189 18.8087 42.9189C17.6308 42.9189 16.5373 42.8412 15.5274 42.7189L15.7619 42.4422C17.8004 42.7147 20.2414 42.8826 23.1886 42.8615C22.4849 43.8487 20.7299 45.9471 17.3431 47.9873ZM25.8009 44.3212V45.861C25.3208 45.861 24.8533 45.8593 24.396 45.856L24.2585 44.1229L23.1161 44.2157C23.8856 43.3062 24.2138 42.6995 24.2433 42.6447L24.553 42.0591L23.8991 42.0709C17.6401 42.1857 13.5581 41.4398 10.9812 40.6112C10.7931 39.8502 10.6842 38.9895 10.6842 37.9846C10.6842 31.1308 15.0642 20.7713 20.8793 16.5728C21.9095 17.5693 23.4721 18.0055 24.9571 17.036C25.2828 16.8234 25.5663 16.5449 25.8321 16.2488C25.8954 16.2505 25.9603 16.2648 26.0245 16.2648C26.2371 16.2648 26.4531 16.2471 26.6682 16.2201C26.9408 16.3289 27.2074 16.4386 27.4546 16.5475C28.6384 17.0689 29.6492 16.7449 30.3394 16.026C35.666 19.2492 39.9337 27.7752 41.0567 34.667C38.6217 35.6407 34.759 36.5908 28.8308 36.7578C30.0002 36.0896 30.8777 34.9657 30.5622 33.4891C30.2306 31.9282 28.9261 31.4894 27.5753 31.4177C27.5719 30.6845 27.5719 29.953 27.577 29.2198C27.9912 29.4028 28.3887 29.6138 28.7498 29.8391C29.3877 30.2398 29.9648 29.2012 29.3311 28.8004C28.7817 28.455 28.1953 28.1723 27.5829 27.9575C27.5913 27.1087 27.5955 26.2616 27.5955 25.4144C27.5964 24.6382 26.443 24.6382 26.443 25.4144C26.443 26.1595 26.4379 26.9037 26.4312 27.647C25.8172 27.54 25.1904 27.5295 24.5732 27.6158C24.4729 27.0573 24.3513 26.5028 24.2087 25.9536C24.018 25.206 22.9043 25.5224 23.0975 26.2725C23.2393 26.8117 23.3548 27.3483 23.4502 27.8925C23.4013 27.9111 23.3481 27.9204 23.3 27.9423C21.7374 28.5608 20.7839 30.1377 21.9272 31.6084C22.4596 32.2935 23.1557 32.5703 23.9176 32.6623C23.959 33.6773 23.9851 34.6932 24.0147 35.7073C23.5042 35.3758 23.0393 34.9505 22.6182 34.5008C22.0968 33.9507 21.2826 34.8003 21.8032 35.3496C22.5111 36.1031 23.2544 36.6726 24.0602 37.0371C24.0965 37.9036 24.148 38.7727 24.2323 39.635C24.3066 40.4003 25.4608 40.4045 25.3857 39.635C25.3146 38.8891 25.262 38.1416 25.228 37.3932C25.6667 37.4691 26.1274 37.4885 26.6168 37.4421C26.6716 38.2403 26.7358 39.0385 26.8269 39.8367C26.8792 40.294 27.3163 40.4737 27.6386 40.3809L27.5668 42.038C27.0589 42.0836 26.5408 42.1257 26.0008 42.1612L25.3579 42.2034L25.7005 42.7569C25.7351 42.8126 26.124 43.4277 26.9922 44.3229H25.8009V44.3212ZM46.8001 38.7676C45.7395 39.2663 44.398 39.7236 43.0311 40.1227C42.1907 39.2545 41.1158 38.096 40.3134 37.0683C42.1013 36.5266 43.102 35.9681 43.5534 35.6668C43.9103 35.9816 44.3828 36.1452 44.9422 36.1444C45.1278 36.1444 45.2923 36.1267 45.4189 36.1064C45.8239 36.6313 46.477 37.2371 46.8853 37.599C46.6921 37.7973 46.5985 38.0167 46.6061 38.2538C46.6128 38.4563 46.6938 38.6284 46.8001 38.7676ZM40.7631 41.5402C40.9352 41.6921 41.1133 41.8473 41.2947 42.0042C37.8741 42.9113 35.3285 43.01 34.7742 43.0193C31.2321 40.8584 29.3961 38.5719 28.6882 37.5425C31.6523 37.4683 34.1025 37.1999 36.1461 36.8304C36.2292 36.9324 36.3133 37.0337 36.3984 37.1341C34.7559 37.3899 33.1004 37.5542 31.4397 37.626L30.7587 37.6547L31.1334 38.2276C31.1325 38.2285 31.0566 38.3702 30.5537 38.4681L29.7361 38.6276L33.7558 41.8819L33.9431 41.8313C33.9473 41.8304 34.3017 41.7351 34.7303 41.7351C35.3488 41.7351 35.7715 41.9232 35.9841 42.2911L36.1191 42.524L36.3815 42.4776C37.8512 42.2097 39.3124 41.897 40.7631 41.5402ZM28.8688 39.0604L27.9086 39.0081C27.8638 38.5288 27.8191 38.0496 27.7854 37.5703C27.9541 37.8505 28.3001 38.377 28.8688 39.0604ZM27.6807 35.9714C27.6254 34.8357 27.5919 33.6989 27.5803 32.5618C27.7187 32.5669 27.8554 32.5796 27.9853 32.5981C29.4771 32.8242 29.8669 34.4831 28.7025 35.4162C28.3988 35.6567 28.0486 35.8331 27.6807 35.9714ZM36.4887 41.6684C36.1107 41.2018 35.5091 40.9572 34.7311 40.9572C34.4063 40.9572 34.1203 41.001 33.9397 41.0365L31.4127 38.9887C31.6228 38.868 31.7645 38.7153 31.8421 38.528C31.8612 38.4814 31.8759 38.4331 31.886 38.3837C33.8891 38.274 35.5766 38.0741 37.0033 37.8294C37.6952 38.6014 38.7119 39.6662 40.0602 40.904C38.404 41.298 37.0228 41.568 36.4887 41.6684ZM26.4261 32.5922C26.4421 33.8148 26.4725 35.0408 26.5375 36.2625C26.4286 36.2794 26.3215 36.3005 26.2143 36.3115C25.8515 36.3528 25.5072 36.3224 25.1799 36.2397C25.1385 35.0585 25.1115 33.8747 25.0668 32.6926C25.5208 32.6715 25.9806 32.6268 26.4261 32.5922ZM25.0086 31.5249C24.9559 30.5978 24.8686 29.6729 24.747 28.7523C25.3063 28.6754 25.875 28.7043 26.4236 28.8375C26.4175 29.7001 26.4161 30.5627 26.4193 31.4253C26.0489 31.4456 25.6971 31.481 25.3874 31.5088C25.2614 31.5187 25.135 31.524 25.0086 31.5249ZM23.851 31.3772C23.7792 31.3578 23.7084 31.3426 23.635 31.3182C23.2974 31.2037 22.9917 31.0109 22.7431 30.7554C22.0226 30.0829 23.0114 29.4231 23.635 29.1101C23.7328 29.861 23.8003 30.6187 23.851 31.3772ZM33.1634 47.8017C29.5007 45.9302 27.5356 43.8504 26.7552 42.8868C27.3162 42.8446 27.847 42.794 28.3726 42.7408L34.3784 46.639L47.5494 43.021C40.7572 47.1148 34.0468 47.7384 33.1634 47.8017ZM44.0411 41.1445C43.9331 41.0365 43.804 40.9082 43.6512 40.7538C45.1497 40.2999 46.5993 39.7734 47.6802 39.1946L48.3374 38.841L47.6709 38.5018C47.5215 38.4251 47.3756 38.2842 47.373 38.231C47.3747 38.2107 47.4338 38.1027 47.6894 37.9559L48.1771 37.6758L47.7434 37.3147C47.7299 37.3037 46.3774 36.1807 45.9024 35.4576L45.7454 35.2213L45.4763 35.2998C45.4738 35.2998 45.2426 35.3665 44.9422 35.3665C44.4781 35.3673 44.1305 35.2154 43.9077 34.9168L43.6614 34.5902L43.3526 34.856C43.3365 34.8695 42.3806 35.6533 39.8164 36.3942C39.732 36.2725 39.6507 36.1487 39.5726 36.0229C42.6818 35.0804 44.2706 33.9397 44.9591 33.3153C46.0644 35.7065 48.696 37.6328 49.8385 38.3879C48.0032 39.4985 46.0609 40.422 44.0411 41.1445Z" fill="white"></path></svg>