<svg xmlns="http://www.w3.org/2000/svg" width="59" height="51" viewBox="0 0 59 51" fill="none"><path d="M58.5142 11.3759C58.3923 11.2522 58.2448 11.1482 58.1465 11.1482C58.1307 11.1482 58.115 11.1502 58.1032 11.1561C58.0265 10.8578 57.9006 10.6302 57.7177 10.4575C57.0294 9.80988 56.345 9.15249 55.6626 8.49706C54.7638 7.63558 53.867 6.7741 52.9545 5.92832C51.6604 4.72931 50.4234 3.42433 49.2237 2.16253C48.6868 1.59737 48.1519 1.03417 47.611 0.476856C47.3141 0.168764 46.903 0 46.4586 0C46.2167 0 45.9689 0.0667205 45.7525 0.168764L45.5559 0.137366C45.1134 0.137366 44.6945 0.306129 44.3739 0.614221C43.3886 1.5542 42.4151 2.49417 41.4652 3.46162L41.2646 3.66963C40.9873 3.95614 40.712 4.2446 40.3226 4.58017C40.181 4.70184 40.0394 4.8235 39.9863 4.90396C39.469 5.04917 39.0796 5.43576 38.8908 5.99307C38.8102 6.23248 38.8063 6.57001 38.883 6.85063C38.9675 7.15676 39.1308 7.35496 39.3432 7.61203C39.3609 7.63361 39.3766 7.65324 39.3982 7.67482L38.0393 9.14071C37.7836 9.41348 37.5142 9.67644 37.2388 9.90604C37.0284 10.0532 36.814 10.1749 36.5898 10.2769C36.4502 10.3299 36.3086 10.377 36.1926 10.4045C36.0726 10.4123 35.9546 10.4182 35.697 10.4182H35.6911C35.4964 10.379 35.3036 10.3279 35.1109 10.2769C34.8631 10.2102 34.6153 10.1435 34.3655 10.1003C33.8955 10.0199 33.4432 9.96098 32.9889 9.96098C32.6998 9.96098 32.4087 9.98453 32.1137 10.0395C31.9485 10.0689 31.7833 10.1239 31.5119 10.2141C31.1186 10.3476 30.7115 10.5006 30.3339 10.6871C29.7655 10.9677 29.2856 11.3307 28.853 11.682L28.3869 12.1863C28.2649 12.1431 28.1037 12.0941 27.846 12.0941C27.8362 12.0941 27.8283 12.0941 27.8185 12.0941C27.5471 12.1176 27.2757 12.1274 27.0023 12.1274C26.0996 12.1274 25.1773 12.0156 24.2313 11.9018C23.8989 11.839 23.5803 11.7389 23.2794 11.627C22.9353 11.4583 22.6206 11.2503 22.3217 11.0324C21.9795 10.7499 21.6589 10.4437 21.297 10.0905L21.6255 9.78437C21.7985 9.62934 21.9224 9.42329 21.9893 9.22313L22.1624 9.10147C22.4495 8.813 22.6147 8.41464 22.6147 8.00843C22.6147 7.49821 22.363 7.04687 21.9047 6.71523C21.7297 6.56216 21.5684 6.38555 21.4111 6.2109L21.2479 6.03232C20.7936 5.53977 20.3196 5.07665 19.826 4.6253C19.1966 4.04248 18.6125 3.41648 18.0265 2.79245C17.6115 2.35288 17.1906 1.9035 16.756 1.46981C16.4531 1.16957 16.046 1.00277 15.6094 1.00277C15.5367 1.00277 15.3046 1.01454 15.2731 1.01258C15.1355 0.975297 14.9978 0.955674 14.8641 0.955674C14.4747 0.955674 14.103 1.10678 13.7588 1.40506C13.3556 1.75043 12.9721 2.1174 12.5906 2.48632C12.2897 2.77675 11.9868 3.06718 11.6741 3.3478C11.0999 3.86194 10.5335 4.38786 9.96707 4.91181L8.70053 6.07746L6.4192 8.14579L4.00807 10.3476L3.47313 10.8637C3.1978 11.1325 2.92247 11.4014 2.63337 11.6604L2.22233 12.0293C1.77393 12.4316 1.32553 12.8339 0.934167 13.2107C0.745367 13.297 0.591967 13.3991 0.4661 13.5227C0.1711 13.819 0 14.2291 0 14.6432C0 15.1416 0.2301 15.4851 0.4543 15.7539C1.2567 16.7253 2.20267 17.6849 3.34727 18.6857C3.5813 18.8937 3.82517 19.0958 4.06707 19.2979C4.68853 19.818 5.33163 20.3557 5.85083 20.9758C5.98653 21.1386 6.1891 21.2623 6.39757 21.3113C6.7024 21.5861 7.08393 21.7352 7.47137 21.7352C7.8765 21.7352 8.23837 21.588 8.61007 21.2701L8.8677 21.0386C9.1509 21.4722 9.43017 21.9098 9.676 22.3632C10.0536 23.0578 10.3761 23.7878 10.6908 24.51C11.0232 25.3106 11.2297 25.9739 11.3398 26.5822C11.4303 27.3711 11.4421 28.0795 11.3811 28.733C11.3555 28.8704 11.2218 29.4218 11.2218 29.4218C11.1726 29.6534 11.1805 29.8987 11.2788 30.0085L10.4745 31.0977L10.5079 31.1232L10.4804 31.131L10.4587 31.1173L10.4745 31.133L10.4509 31.1389L10.4371 31.1428C10.148 31.5098 9.86283 31.8767 9.6347 32.2849C9.4518 32.6106 9.322 32.9717 9.19613 33.323C9.03487 33.7743 8.96013 34.1943 8.96997 34.6064C8.9857 35.1166 9.1155 36.3882 10.0064 37.1359C10.4371 37.5028 10.8973 37.7148 11.4519 37.805C11.8295 37.8659 12.2169 37.9169 12.6044 37.9306C12.6162 38.0444 12.7184 38.8765 12.7578 39.1473C12.8168 39.5594 12.9918 39.9283 13.1452 40.256C13.3812 40.7505 13.7903 41.2039 14.2387 41.4688C14.7107 41.7494 15.2535 41.8848 15.8946 41.8848C16.0736 41.8848 16.2525 41.875 16.4315 41.8573C16.4099 42.4755 16.5298 43.0877 16.6282 43.5116C16.8819 44.6046 17.5191 45.4956 18.3805 45.9567C18.8308 46.1961 19.3461 46.3139 19.9518 46.3139C20.1878 46.3139 20.4238 46.2962 20.6598 46.2687L20.7385 46.9791C20.8054 47.6385 20.8742 48.3174 21.2597 48.9179C21.6609 49.5361 22.5144 50.6154 23.7377 50.9117C23.9874 50.9725 24.249 51 24.5597 51C24.7387 51 24.9177 50.9902 25.1045 50.9804C25.8322 50.9333 26.4399 50.8214 27.02 50.633C27.8519 50.3603 28.676 49.9364 29.6003 49.3045C29.9484 49.6028 30.3437 49.7774 30.7842 49.9541C31.0773 50.0718 31.3841 50.1895 31.6928 50.2622C32.2691 50.3995 32.924 50.4741 33.5828 50.478C34.2338 50.478 34.9339 50.4604 35.6576 50.3406C35.99 50.2857 36.3538 50.1405 36.7727 49.8913C36.9183 49.803 37.1877 49.6205 37.3922 49.381C37.8269 48.8748 38.053 48.339 38.2163 47.8798C38.3382 47.5345 38.4208 47.1459 38.4542 46.7456C38.5506 46.7515 38.6627 46.7574 38.7984 46.7613C39.0836 46.7613 39.3746 46.7162 39.6598 46.671L39.9351 46.6298C40.6058 46.5297 41.4396 46.3276 41.9726 45.6741C42.3227 45.2385 42.5606 44.7695 42.6983 44.2377C42.8438 43.6549 42.9009 43.0818 42.8714 42.5343L42.8635 42.4244C43.2018 42.3774 43.5518 42.2792 43.9275 42.1301C44.3267 41.9731 44.7751 41.7749 45.0878 41.3687C45.2746 41.1293 45.428 40.9232 45.5578 40.6505C45.7486 40.2541 45.9256 39.8381 46.0593 39.4142C46.2029 38.9471 46.1911 38.4742 46.1577 38.0327C46.1498 37.9267 46.1419 37.8207 46.1301 37.7148C46.4232 37.6853 46.7162 37.6441 46.9955 37.5931C47.8785 37.4361 48.6219 36.9455 49.145 36.1704C49.5364 35.5934 49.7547 34.9164 49.798 34.159C49.8176 33.841 49.7586 33.4917 49.6898 33.0953C49.6544 32.8638 49.5934 32.6381 49.5187 32.4144C49.2414 31.602 48.732 30.8465 48.2718 30.2166C47.9237 29.7338 47.5422 29.2766 47.1626 28.8213L45.8233 27.1886C46.0711 26.8923 46.2108 26.5469 46.2245 26.1623C46.2717 25.9406 46.3445 25.7247 46.4192 25.5108L46.61 24.9044C46.669 24.7082 46.726 24.5119 46.8539 24.1626C46.9679 23.8467 47.082 23.5249 47.2039 23.2227C47.5324 22.5201 47.9552 21.8157 48.5314 21.0091C49.0388 20.3733 49.5856 19.7787 50.1382 19.1822L50.2326 19.0821C50.3447 19.1959 50.4568 19.3195 50.5768 19.4726L50.6908 19.6315C50.9917 19.9318 51.4106 20.1064 51.8315 20.1064C52.2917 20.1064 52.6929 19.922 53.0253 19.557L53.0292 19.5589C53.5563 18.9408 54.1227 18.356 54.6871 17.7732C54.986 17.4631 55.2869 17.155 55.58 16.841C55.9281 16.4682 56.286 16.1071 56.6459 15.746C57.287 15.1024 57.9498 14.4371 58.528 13.713C58.8132 13.3598 59 13.0262 59 12.5552C59 12.1098 58.823 11.682 58.5142 11.3759ZM10.4253 15.5734C9.81367 16.0934 9.1922 16.6016 8.5727 17.1119L7.20783 18.1558C6.48213 17.5769 5.76037 16.9195 4.9973 16.1483C4.5725 15.7205 4.17523 15.2751 3.7878 14.8198L4.66493 13.9603C4.87143 13.7562 5.07007 13.5482 5.27067 13.3402C5.52437 13.0753 5.7761 12.8123 6.0416 12.5592C6.70043 11.9273 7.37303 11.3131 8.0476 10.6969C8.0476 10.6969 11.6564 7.42168 12.1796 6.93894C12.8797 6.29724 13.5956 5.67321 14.3114 5.0531L15.0981 4.35842C15.0981 4.35842 17.2359 6.35611 17.875 6.96248C18.2467 7.31964 18.6165 7.67483 18.9724 8.04571C18.7089 8.32633 18.4316 8.5991 18.1543 8.86402C17.7708 9.23098 17.3676 9.57832 16.9645 9.9237L15.696 11.0266C15.0253 11.6153 14.3547 12.202 13.6723 12.775C13.0469 13.3029 12.4293 13.8386 11.8138 14.3744L10.4253 15.5734ZM13.3261 34.6083C13.1865 34.6535 13.0449 34.6908 12.7853 34.7222C12.5965 34.7222 12.4077 34.7104 12.2366 34.7104C12.2091 34.7104 12.1835 34.7104 12.1579 34.7104L12.152 34.4867C12.1894 34.3199 12.2405 34.155 12.2897 34.0118C12.5001 33.5801 12.7578 33.1719 13.0311 32.7794C13.3674 32.2967 13.7254 31.8257 14.0833 31.3567L14.4157 30.9171C15.2358 29.881 15.9969 29.0862 16.7973 28.4288C16.994 28.2915 17.2005 28.162 17.3912 28.0619C17.6862 27.9598 17.993 27.8754 18.2782 27.8205L18.5771 27.8107C18.705 27.8107 18.8328 27.8166 18.9469 27.8264C19.0963 27.8519 19.2438 27.8833 19.352 27.9127C19.6155 28.0599 19.8692 28.2267 20.117 28.3994C20.0915 28.4445 19.9302 28.7487 19.9302 28.7487C19.7729 29.0038 19.588 29.2452 19.4031 29.4826C19.2124 29.7201 18.9941 29.9379 18.7758 30.1538L17.9144 31.029C17.0667 31.8689 16.2112 32.6381 15.3734 33.3112C14.7854 33.7527 14.0794 34.2492 13.3261 34.6083ZM17.5348 38.4801C17.1965 38.6135 16.8563 38.7332 16.52 38.8C16.3863 38.8117 16.2506 38.8196 15.9772 38.8745C15.9261 38.7901 15.8789 38.7058 15.8494 38.6567C15.8081 38.4977 15.7766 38.3388 15.753 38.1857C15.7353 38.0327 15.7215 37.8776 15.6842 37.8364C15.8848 37.5323 15.9674 37.1633 15.9221 36.7826C16.3371 36.504 16.7403 36.2077 17.1277 35.9015C18.17 35.0832 19.1317 34.157 20.0266 33.2798C20.5595 32.7559 21.0748 32.2123 21.5901 31.6687C21.6432 31.6138 21.6904 31.5529 21.6648 31.4725L22.6875 31.445C22.8153 31.4744 22.9412 31.5078 23.0375 31.5392C23.1123 31.5784 23.187 31.6196 23.2696 31.6805C23.3896 31.863 23.4938 32.0573 23.6236 32.3516C23.6275 32.5086 23.6216 32.6656 23.598 32.8481C23.539 32.9796 23.4761 33.111 23.4092 33.2406C23.3424 33.3701 23.2578 33.4917 23.1693 33.6056C22.6658 34.2433 22.0955 34.8281 21.5291 35.4109L21.2184 35.7308C20.6107 36.3588 19.9499 36.9612 19.2655 37.5126C18.7738 37.8639 18.2054 38.1798 17.5348 38.4801ZM21.773 42.9759C21.474 43.0779 21.1594 43.1309 20.8526 43.176C20.6461 43.1996 20.4376 43.2153 20.2291 43.2153L19.8751 43.1388L19.7886 42.9877C19.7139 42.7639 19.6549 42.5402 19.6037 42.346C19.5959 42.1811 19.5959 42.0182 19.59 41.9005C19.6136 41.8024 19.6431 41.7082 19.6627 41.6375L19.6313 41.5571L19.6745 41.5885C19.6942 41.561 19.7139 41.5335 19.7355 41.5061L19.59 41.4452L19.5742 41.4021L19.7355 41.5041C19.944 41.2117 20.0797 40.9311 20.0856 40.5975L20.2665 40.5111C20.7739 40.2188 21.2243 39.8341 21.6609 39.4613L21.9087 39.2513C22.42 38.8157 22.9097 38.3604 23.3837 37.8875C24.0268 37.2516 24.6699 36.6139 25.073 35.9898C25.193 36.0095 25.3149 36.0252 25.4349 36.0252C25.547 36.0252 25.6493 36.0134 25.724 35.9918L26.3592 35.8937C26.4792 35.88 26.5952 35.8701 26.6857 35.8662C26.7683 35.8839 26.8489 35.9074 26.9001 35.9212C27.0417 35.9938 27.1774 36.0742 27.2836 36.1429C27.3524 36.2077 27.4193 36.2724 27.4448 36.2724H27.4468C27.4822 36.4 27.5097 36.5275 27.5274 36.6453C27.5373 36.7493 27.5432 36.8513 27.5471 36.9141C27.5156 37.0417 27.4802 37.1653 27.4448 37.2693C27.1734 37.8188 26.8352 38.2937 26.5421 38.6822L25.3956 40.1403C25.0101 40.623 24.5342 41.0783 23.895 41.5728C23.2224 42.085 22.5321 42.6168 21.773 42.9759ZM31.4293 42.7286C31.1422 43.3311 30.8373 43.8452 30.503 44.2946C29.734 45.2483 29.0359 45.9646 28.3141 46.5454C27.7615 46.9477 27.2796 47.2421 26.8116 47.4638C26.4615 47.5992 26.0996 47.7052 25.7476 47.7719C25.5332 47.7935 25.3149 47.8053 25.0966 47.8053C24.9865 47.8053 24.8783 47.8013 24.6522 47.7503C24.5125 47.6247 24.3867 47.4893 24.2746 47.3578C24.2116 47.2695 24.1507 47.1812 24.1172 47.1341C24.0917 47.038 24.074 46.9399 24.0602 46.8457C24.015 46.4924 23.9737 46.1235 23.9697 45.8213C24.0327 45.629 24.0543 45.419 24.0346 45.1816L24.1507 45.1188C24.3513 45.0109 24.5519 44.901 24.7348 44.7616L24.9413 44.6046C25.9128 43.8688 26.9197 43.1074 27.7025 42.1183C27.7025 42.1183 28.7822 40.7525 29.1303 40.3031C29.2129 40.3267 29.3112 40.3443 29.439 40.3443C29.4449 40.3443 29.9445 40.2933 29.9445 40.2933C30.3555 40.2482 30.7685 40.203 31.1795 40.203H31.388C31.4667 40.2423 31.5453 40.2835 31.5847 40.2835C31.6004 40.2835 31.6102 40.2796 31.6142 40.2658C31.6673 40.4326 31.7027 40.6034 31.7282 40.7584C31.7518 41.0292 31.7499 41.2922 31.7341 41.5453C31.6633 41.9515 31.565 42.3577 31.4293 42.7286ZM46.2816 33.168C46.3445 33.3662 46.3976 33.5663 46.435 33.7508C46.4468 33.8862 46.4507 34.051 46.3681 34.1629C46.2698 34.2944 46.1321 34.3316 45.9728 34.3473C45.7486 34.3689 45.5244 34.3846 45.3022 34.3846C44.897 34.3846 44.5037 34.2512 44.1005 34.2512C43.5813 34.2512 43.1565 34.4199 42.834 34.7516C42.4898 35.1068 42.3089 35.5463 42.3089 36.0232C42.3089 36.3902 42.4171 36.6355 42.5744 36.9907L42.7435 37.3498C42.8065 37.5126 42.8615 37.6736 42.895 37.8227C42.9146 38.0327 42.9186 38.2466 42.9107 38.4232C42.8478 38.6881 42.8222 39.0708 42.5469 39.1964C42.2991 39.3102 42.006 39.1787 41.77 39.0943L41.4829 38.9923C41.3216 38.9373 41.1486 38.9099 40.9696 38.9099C40.6687 38.9099 40.3639 38.9903 40.1141 39.1355C39.5084 39.4888 39.233 40.1579 39.3786 40.9232C39.414 41.1234 39.5084 41.3079 39.6716 41.6395C39.7621 41.8632 39.8388 42.0928 39.8919 42.3047C39.9174 42.5775 39.9037 42.8444 39.8919 43.1191C39.8879 43.2074 39.884 43.2957 39.8565 43.3782C39.7896 43.5881 39.5851 43.7294 39.3707 43.7824C38.9911 43.8786 38.4719 43.7863 38.0865 43.7314C37.8505 43.698 37.6125 43.6627 37.3765 43.5822C37.2447 43.5175 37.1149 43.4547 36.9733 43.3997C36.8514 43.3487 36.7157 43.3232 36.5702 43.3232C36.2555 43.3232 35.9487 43.4429 35.7442 43.5332C35.3508 43.7098 35.0775 44.1435 34.9811 44.4967C34.7687 45.2699 35.4039 45.9175 35.2663 46.6749C35.1384 47.3775 34.2908 47.2499 33.7637 47.2499C33.5022 47.2499 33.2406 47.2401 32.9967 47.2205C32.7352 47.1793 32.4775 47.1243 32.2494 47.0458C32.3969 46.8103 32.5877 46.5984 32.7666 46.3747C33.1895 45.8449 33.5297 45.3876 33.807 44.8774C34.161 44.2259 34.4265 43.5881 34.5956 42.9798C34.8198 42.1556 34.9064 41.4472 34.8552 40.8133C34.8238 40.4111 34.7766 39.9401 34.6468 39.4907C34.5445 39.1355 34.2967 38.4801 33.7854 38.0837C33.5454 37.8953 33.3153 37.7226 33.0518 37.5754C32.8512 37.4616 32.6368 37.3753 32.3005 37.2399C32.0783 37.1516 31.8443 37.1359 31.4549 37.1064C31.211 37.0829 30.9652 37.0731 30.7174 37.0731L30.6446 37.077C30.6643 36.7238 30.6171 36.3745 30.56 35.9741L30.5207 35.7033C30.505 35.6033 30.4833 35.5032 30.4499 35.3854C30.3811 35.2088 30.3083 35.0302 30.2178 34.8301C30.0389 34.5554 29.8206 34.2963 29.5275 34.0177C29.0083 33.529 28.3436 33.1424 27.7044 32.9619C27.4094 32.8775 27.1026 32.8285 26.7486 32.8069C26.788 32.2162 26.7349 31.7472 26.5815 31.3371C26.3022 30.5933 25.9285 29.9811 25.4683 29.516C25.2264 29.2707 24.8941 29.0431 24.4535 28.8233C24.1605 28.6761 23.8458 28.5584 23.4466 28.4406C23.4702 28.2149 23.4486 28.0187 23.3856 27.9147C23.4407 27.6557 23.4348 27.3829 23.364 27.1278C23.2558 26.7373 23.0257 26.4351 22.6167 26.1525C22.1152 25.7993 21.6058 25.4637 21.0709 25.1615C20.4278 24.7985 19.6627 24.6218 18.6381 24.6218C17.3834 24.6375 16.1326 25.0359 15.2043 25.711C14.9113 25.9249 14.6379 26.1603 14.3744 26.4037C14.3055 25.6187 14.1738 24.9162 13.9771 24.2627C13.8355 23.7937 13.6546 23.3385 13.4107 22.7282C13.1668 22.1237 12.919 21.5174 12.6417 20.9267C12.2877 20.1751 11.8708 19.4471 11.448 18.7288C11.448 18.7288 11.8 18.409 11.9278 18.3011C12.8089 17.5671 13.6644 16.8038 14.5179 16.0404L15.0804 15.54C15.458 15.2084 15.8454 14.8905 16.2348 14.5745L16.6557 14.2291C17.0982 13.8661 17.5269 13.4834 17.9576 13.1008L18.7777 12.3688C19.3736 12.9065 20.0305 13.4305 20.7326 13.9289C21.478 14.4528 22.3551 14.8335 23.2676 15.0259C23.6924 15.1161 24.1349 15.1573 24.5735 15.1966L25.2028 15.2555C25.0888 15.3909 24.4535 16.1601 24.4535 16.1601C23.72 17.0059 23.0906 17.7948 22.5282 18.5719C22.0286 19.2626 21.6786 20.0436 21.5114 20.8305C21.4052 21.3349 21.3462 21.8549 21.3108 22.369C21.2754 22.8498 21.3285 23.3463 21.4603 23.7682C21.6156 24.2647 21.8674 24.7062 22.2528 25.1576C22.7111 25.6992 23.48 26.0485 24.0425 26.2447C24.5047 26.4056 24.9885 26.4841 25.5195 26.4841C26.0701 26.4841 26.6601 26.3997 27.374 26.2212C27.8637 26.0995 28.3377 25.8876 28.7468 25.6992C29.1696 25.501 29.5315 25.1909 29.8796 24.8926L30.0349 24.7612C30.4066 24.4452 30.7587 24.1097 31.1107 23.7741C31.447 23.4542 31.7833 23.1324 32.1353 22.8302C32.509 22.5103 32.8748 22.1728 33.2426 21.8392L33.9938 21.1622C34.6881 21.5978 35.3666 22.0511 36.0175 22.5417L36.7727 23.1461C37.2821 23.5543 37.7915 23.9625 38.3067 24.3608C39.1662 25.0222 39.9214 25.6599 40.6215 26.3114C41.3787 27.0159 42.1162 27.7126 42.8025 28.474C43.009 28.7016 43.1998 28.9391 43.3925 29.1745L43.717 29.5729C44.0356 29.9477 44.3424 30.3284 44.6433 30.7111C45.2333 31.4901 45.8489 32.3026 46.2816 33.168ZM46.5707 18.5503C45.6168 19.7728 44.6355 21.0955 44.071 22.632L43.9078 23.0657C43.8055 23.3365 43.7013 23.6053 43.6108 23.8801C43.5499 24.0665 43.3827 24.6356 43.3827 24.6356C43.2195 24.4747 43.0543 24.3137 42.8812 24.1587C41.8703 23.2658 40.7828 22.4299 39.8486 21.7195C39.233 21.2289 38.6411 20.7108 38.0491 20.1928C37.2133 19.4687 36.342 18.8113 35.457 18.2383C35.2702 18.1186 34.9437 17.9851 34.7215 17.9674C34.4953 17.9498 34.3282 17.8281 34.1138 17.7712C33.9683 17.732 33.8227 17.7123 33.6772 17.7123C33.5336 17.7123 33.3881 17.732 33.2426 17.7732C32.6644 17.9321 32.0744 18.5522 31.6299 18.9427C31.1264 19.3862 30.6485 19.8552 30.1569 20.3105L29.5629 20.86C29.2837 21.1151 29.0044 21.3702 28.735 21.6332C28.379 21.9766 28.0034 22.3082 27.6277 22.6124C27.4409 22.7478 27.2521 22.8714 27.0633 22.9636C26.6995 23.0971 26.316 23.1854 25.9482 23.2482C25.8479 23.256 25.7456 23.2619 25.5293 23.2619C25.5077 23.2619 25.486 23.2619 25.4624 23.2619C25.3149 23.2305 25.1733 23.1893 25.0593 23.154C24.9314 23.0873 24.8095 23.0107 24.6423 22.7831C24.6345 22.5829 24.6423 22.3808 24.66 22.1924C24.7171 21.8372 24.7918 21.4781 24.9059 21.1563C25.2363 20.4636 25.6984 19.8356 26.1803 19.2018L27.7044 17.3238C28.2453 16.6468 28.8864 15.9678 29.616 15.3065C30.1451 14.8257 30.6938 14.3567 31.2464 13.9152C31.5099 13.7228 31.7872 13.5541 32.0744 13.4226C32.3458 13.3147 32.6172 13.2126 33.0321 13.1518C33.1914 13.1518 33.3527 13.1616 33.4943 13.1714C33.868 13.244 34.2298 13.3441 34.7628 13.4932C35.1188 13.5914 35.5298 13.6444 36.1041 13.6444C36.8809 13.6345 37.7698 13.3775 38.5427 12.9418C39.0836 12.6396 39.5772 12.2334 40.0551 11.7016C40.5232 11.1855 41.0207 10.7047 41.5203 10.2239L41.654 10.0944L41.7248 10.1533C42.6511 11.2169 43.6167 12.2432 44.606 13.2538C45.0799 13.7405 45.5362 14.2409 45.9944 14.7433C46.4114 15.1985 46.8283 15.6558 47.257 16.1012C47.4262 16.2798 47.9945 16.8391 47.9945 16.8391C47.5068 17.3905 47.0387 17.9517 46.5707 18.5503ZM53.3045 14.653C52.8679 15.1357 52.4058 15.5989 51.9456 16.06L51.7686 16.2386L50.5571 14.9945C49.6918 14.1075 48.8304 13.2146 47.9709 12.3198L46.6651 10.9716C46.1144 10.4025 45.5598 9.83539 45.019 9.25846C44.5293 8.73647 44.0474 8.20859 43.5833 7.66894C43.3296 7.37458 43.07 7.08611 42.8084 6.79765L42.6806 6.65635C42.9225 6.39928 43.188 6.15791 43.4515 5.92047L43.6954 5.69872C44.1871 5.24541 44.6886 4.79799 45.1901 4.35057L46.0888 3.546C46.785 4.22302 47.4852 4.90003 48.2069 5.5535C48.6848 5.9813 49.1332 6.43657 49.5797 6.89184C49.9553 7.2745 50.3309 7.6552 50.7223 8.0202C51.5267 8.77375 52.331 9.52926 53.1138 10.3044L54.0656 11.2287C54.4727 11.6211 54.8798 12.0136 55.2771 12.4139C54.632 13.1695 53.9752 13.9171 53.3045 14.653Z" fill="white"></path></svg>