<svg xmlns="http://www.w3.org/2000/svg" width="50" height="50" viewBox="0 0 50 50" fill="none"><path d="M28.2883 15.4279L42.6463 0.380079C42.8972 0.115834 43.1948 -0.0106267 43.5389 0.000698098C43.8831 0.0120229 44.186 0.156415 44.4477 0.433871C44.6987 0.698116 44.8242 1.02276 44.8242 1.4078C44.8242 1.79284 44.6987 2.11843 44.4477 2.38456L29.8102 17.7976C29.3746 18.2543 28.8673 18.4827 28.2883 18.4827C27.7094 18.4827 27.203 18.2543 26.7692 17.7976L19.7247 10.3798C19.463 10.1043 19.3267 9.77114 19.316 9.38043C19.3052 8.98973 19.4468 8.65565 19.7408 8.37819C20.0025 8.11395 20.3198 7.98749 20.6926 7.99881C21.0655 8.01014 21.3827 8.15453 21.6444 8.43199L28.2883 15.4279ZM30.6302 47.0126C30.8023 47.0844 30.9574 47.1202 31.0954 47.1202C31.2334 47.1202 31.3885 47.0844 31.5606 47.0126L47.1983 41.9391C47.1446 41.0784 46.8972 40.4584 46.4562 40.079C46.0153 39.6997 45.525 39.51 44.9855 39.51H32.2327C31.0927 39.51 30.0611 39.4628 29.138 39.3684C28.2131 39.274 27.2666 39.0494 26.2987 38.6946L21.6901 37.1318C21.3191 37.0034 21.0538 36.7486 20.8943 36.3674C20.7347 35.9861 20.7159 35.5992 20.8378 35.2066C20.9579 34.8517 21.1882 34.5875 21.5288 34.4138C21.8676 34.244 22.2234 34.2222 22.5963 34.3487L26.7638 35.937C27.6296 36.2466 28.5868 36.4447 29.6354 36.5316C30.684 36.6184 31.9863 36.6675 33.5422 36.6788H34.2305C34.2305 35.7954 34.0763 35.082 33.768 34.5384C33.4597 33.9948 33.017 33.6154 32.4398 33.4003L16.9714 27.4208C16.8674 27.3849 16.7724 27.3585 16.6864 27.3415C16.6003 27.3245 16.5053 27.3151 16.4014 27.3132H10.755V40.9256L30.6302 47.0126ZM29.9446 49.8098L10.755 43.8983C10.4987 45.0157 9.95644 45.9066 9.12831 46.571C8.30017 47.2354 7.39496 47.5675 6.41267 47.5675H4.34233C3.13956 47.5675 2.11515 47.1221 1.26909 46.2312C0.42303 45.3403 0 44.2607 0 42.9923V29.0572C0 27.7888 0.42303 26.7092 1.26909 25.8183C2.11515 24.9275 3.13956 24.482 4.34233 24.482H16.3503C16.5941 24.482 16.8468 24.5084 17.1085 24.5613C17.372 24.6141 17.6203 24.6877 17.8533 24.7821L33.3916 30.7757C34.3542 31.1608 35.1823 31.8525 35.876 32.851C36.5715 33.8495 36.9192 35.1254 36.9192 36.6788H44.9855C46.6041 36.6788 47.8445 37.212 48.7067 38.2784C49.5689 39.3467 50 40.701 50 42.3412C50 42.9074 49.8548 43.3849 49.5644 43.7737C49.274 44.1626 48.8483 44.4561 48.2873 44.6543L32.4667 49.7929C32.0759 49.9099 31.6636 49.9778 31.2298 49.9967C30.796 50.0156 30.3667 49.9533 29.9419 49.8098M2.68875 42.9923C2.68875 43.502 2.8438 43.92 3.1539 44.2466C3.46401 44.5731 3.86015 44.7364 4.34233 44.7364H6.41267C6.89485 44.7364 7.29099 44.6005 7.6011 44.3287C7.9112 44.0569 8.06625 43.6114 8.06625 42.9923V27.3132H4.34233C3.86015 27.3132 3.46401 27.4765 3.1539 27.803C2.8438 28.1295 2.68875 28.5476 2.68875 29.0572V42.9923Z" fill="white"></path></svg>