<svg xmlns="http://www.w3.org/2000/svg" width="66" height="66" viewBox="0 0 66 66" fill="none"><path d="M33 0C14.817 0 0 14.817 0 33C0 51.183 14.817 66 33 66C51.183 66 66 51.183 66 33C66 14.817 51.183 0 33 0ZM48.774 25.41L30.063 44.121C29.601 44.583 28.974 44.847 28.314 44.847C27.654 44.847 27.027 44.583 26.565 44.121L17.226 34.782C16.269 33.825 16.269 32.241 17.226 31.284C18.183 30.327 19.767 30.327 20.724 31.284L28.314 38.874L45.276 21.912C46.233 20.955 47.817 20.955 48.774 21.912C49.731 22.869 49.731 24.42 48.774 25.41Z" fill="#87BA4E"></path></svg>