<svg xmlns="http://www.w3.org/2000/svg" width="96" height="118" viewBox="0 0 96 118" fill="none"><path d="M31.3444 116.105L23.767 105.925L44.1405 66.5692C45.2756 64.4891 46.4302 62.107 47.6043 59.4228C48.871 56.7143 50.0329 53.9839 51.0901 51.2315C52.2155 48.3623 52.995 45.683 53.4286 43.1936C53.8379 40.6118 53.7989 38.3952 53.3118 36.5441C52.7517 34.4152 51.8018 32.6858 50.4622 31.3559C49.0982 29.9334 47.4151 28.9907 45.4129 28.5279C43.4108 28.065 41.1139 28.1746 38.5222 28.8565C36.1157 29.4897 34.0185 30.7344 32.2306 32.5903C30.4184 34.3538 28.9033 36.6823 27.6853 39.5759C26.4674 42.4696 25.6148 45.8114 25.1276 49.6014L7.27614 44.9462C7.71472 39.0907 9.12271 33.7224 11.5001 28.8412C13.8775 23.9601 17.1342 19.7877 21.2702 16.3242C25.4062 12.8607 30.1583 10.4226 35.5268 9.01002C41.1972 7.61692 46.6045 7.48065 51.7488 8.60122C56.8931 9.72179 61.309 12.0237 64.9966 15.5069C68.6842 18.9901 71.2465 23.4622 72.6835 28.9231C73.2193 30.9594 73.5359 33.1029 73.6333 35.3535C73.8232 37.5798 73.7135 39.9838 73.3042 42.5657C72.9875 45.1232 72.3834 47.9048 71.4919 50.9105C70.6685 53.7993 69.5236 56.9706 68.0572 60.4244C66.659 63.7614 64.9734 67.3224 63.0004 71.1075L47.2452 100.935L42.24 93.1967L90.5556 80.4833L95.4876 99.2265L31.3444 116.105Z" fill="#231F1F"></path></svg>