<svg xmlns="http://www.w3.org/2000/svg" width="189" height="189" viewBox="0 0 189 189" fill="none"><circle cx="94.5" cy="94.5" r="90.5" fill="#3B634C" stroke="#F4F4F4" stroke-width="8"></circle><path d="M76.582 123V117.05L90.862 101.79C93.662 98.8033 95.8554 96.4 97.442 94.58C99.0754 92.7133 100.242 91.08 100.942 89.68C101.689 88.28 102.062 86.81 102.062 85.27C102.062 82.75 101.292 80.8133 99.752 79.46C98.212 78.06 96.2287 77.36 93.802 77.36C91.282 77.36 89.112 78.0833 87.292 79.53C85.472 80.93 84.212 82.9833 83.512 85.69L76.232 83.59C76.792 80.8367 77.912 78.4567 79.592 76.45C81.272 74.3967 83.3254 72.81 85.752 71.69C88.2254 70.57 90.8854 70.01 93.732 70.01C97.0454 70.01 99.9387 70.64 102.412 71.9C104.885 73.1133 106.799 74.8167 108.152 77.01C109.552 79.2033 110.252 81.7467 110.252 84.64C110.252 86.5533 109.879 88.42 109.132 90.24C108.432 92.0133 107.335 93.9033 105.842 95.91C104.349 97.87 102.435 100.087 100.102 102.56L87.502 116H111.232V123H76.582Z" fill="white"></path></svg>