<svg xmlns="http://www.w3.org/2000/svg" width="73" height="103" viewBox="0 0 73 103" fill="none"><path d="M6.04949 103L1.31187 91.2277L31.0296 58.3516C32.6567 56.6288 34.3795 54.6189 36.1979 52.3219C38.1121 50.0248 39.9306 47.68 41.6534 45.2872C43.4719 42.7988 44.9075 40.406 45.9603 38.109C47.0131 35.7163 47.5395 33.5628 47.5395 31.6486C47.5395 29.4473 47.061 27.5331 46.1039 25.9061C45.1468 24.1833 43.759 22.8434 41.9405 21.8863C40.122 20.9292 37.8729 20.4506 35.193 20.4506C32.7046 20.4506 30.3597 21.1206 28.1584 22.4605C25.957 23.7048 23.8993 25.5711 21.9851 28.0595C20.0709 30.548 18.396 33.5628 16.9604 37.1041L0.88118 28.0595C2.79537 22.5084 5.52309 17.6751 9.06433 13.5596C12.6056 9.44406 16.8168 6.23779 21.698 3.94076C26.5792 1.64374 31.7953 0.495224 37.3465 0.495224C43.1847 0.590933 48.4488 1.83516 53.1385 4.22789C57.8283 6.62063 61.5131 9.97046 64.193 14.2774C66.8728 18.5843 68.2127 23.5612 68.2127 29.2081C68.2127 31.3137 67.9735 33.4671 67.4949 35.6684C67.1121 37.8698 66.3943 40.1668 65.3415 42.5595C64.3844 44.9522 63.0923 47.4885 61.4652 50.1684C59.9339 52.7526 58.0197 55.5281 55.7227 58.4951C53.5214 61.3664 50.9851 64.3813 48.1138 67.5397L25.2871 92.3763L22.4158 83.6188H72.3761V103H6.04949Z" fill="#231F1F"></path></svg>