<svg xmlns="http://www.w3.org/2000/svg" width="74" height="104" viewBox="0 0 74 104" fill="none"><path d="M36.4801 103.436C28.7277 103.436 21.9323 101.761 16.094 98.4109C10.3515 95.0611 5.03959 89.3185 0.15841 81.1832L15.9505 71.1337C18.1518 74.4835 20.3531 77.2113 22.5544 79.3169C24.8514 81.4225 27.2442 82.9538 29.7326 83.9109C32.2211 84.868 34.8052 85.3466 37.4851 85.3466C40.3564 85.3466 43.0362 84.6766 45.5247 83.3367C48.0131 81.9967 49.9752 80.1304 51.4108 77.7377C52.9421 75.2492 53.7078 72.4258 53.7078 69.2674C53.7078 66.0133 53.0857 63.2855 51.8415 61.0842C50.5973 58.8829 48.7788 57.208 46.3861 56.0595C43.9933 54.911 41.1699 54.3367 37.9158 54.3367C36.4801 54.3367 34.9009 54.4803 33.1782 54.7674C31.4554 55.0545 29.6848 55.5331 27.8663 56.2031C26.0478 56.7773 24.0858 57.4951 21.9802 58.3565L16.9554 45.1486L43.5148 16.1487L48.9702 20.0249L6.76236 19.4506V0.930864H67.2028L71.0791 8.82689L37.9158 44.7179L32.891 38.8318C33.6567 38.449 34.9009 38.114 36.6237 37.8268C38.4422 37.444 40.1171 37.2526 41.6484 37.2526C46.0511 37.2526 50.1666 38.0661 53.995 39.6932C57.8233 41.3202 61.221 43.5694 64.188 46.4407C67.155 49.312 69.452 52.6618 71.0791 56.4902C72.8019 60.3186 73.6632 64.4341 73.6632 68.8367C73.6632 75.4406 71.9883 81.3746 68.6385 86.6386C65.3844 91.8069 60.9339 95.9225 55.287 98.9852C49.7359 101.952 43.4669 103.436 36.4801 103.436Z" fill="#3B634C"></path></svg>