<svg xmlns="http://www.w3.org/2000/svg" width="73" height="102" viewBox="0 0 73 102" fill="none"><path d="M35.9912 101.418C28.3347 101.418 21.6235 99.7637 15.8575 96.4553C10.1861 93.147 4.94002 87.4756 0.119294 79.441L15.7158 69.516C17.8898 72.8243 20.0639 75.5183 22.2379 77.5978C24.5065 79.6773 26.8696 81.1897 29.3272 82.135C31.7849 83.0802 34.337 83.5528 36.9837 83.5528C39.8194 83.5528 42.4661 82.8911 44.9237 81.5678C47.3813 80.2445 49.3191 78.4013 50.7369 76.0381C52.2493 73.5805 53.0055 70.7921 53.0055 67.6728C53.0055 64.459 52.3911 61.765 51.1623 59.591C49.9335 57.4169 48.1375 55.7627 45.7744 54.6284C43.4113 53.4942 40.6229 52.927 37.409 52.927C35.9912 52.927 34.4315 53.0688 32.7301 53.3524C31.0287 53.6359 29.28 54.1086 27.484 54.7702C25.6881 55.3374 23.7503 56.0463 21.6708 56.897L16.7083 43.8527L42.9387 15.2119L48.3266 19.0401L6.64145 18.473V0.182587H66.3334L70.1616 7.98082L37.409 43.4273L32.4465 37.6141C33.2027 37.236 34.4315 36.9052 36.133 36.6216C37.9289 36.2435 39.5831 36.0545 41.0955 36.0545C45.4436 36.0545 49.5081 36.8579 53.2891 38.4648C57.07 40.0717 60.4256 42.2931 63.3559 45.1288C66.2861 47.9645 68.5547 51.2728 70.1616 55.0538C71.8631 58.8348 72.7138 62.8993 72.7138 67.2474C72.7138 73.7696 71.0596 79.6301 67.7513 84.8289C64.5374 89.9332 60.1421 93.9977 54.5652 97.0225C49.0828 99.9527 42.8914 101.418 35.9912 101.418Z" fill="#231F1F"></path></svg>