<svg xmlns="http://www.w3.org/2000/svg" width="189" height="189" viewBox="0 0 189 189" fill="none"><circle cx="94.5" cy="94.5" r="90.5" fill="#3B634C" stroke="#F4F4F4" stroke-width="8"></circle><path d="M93.6135 123.84C90.8135 123.84 88.1768 123.327 85.7035 122.3C83.2768 121.273 81.1768 119.827 79.4035 117.96C77.6768 116.093 76.4402 113.9 75.6935 111.38L82.6935 108.72C83.6268 111.193 85.0502 113.107 86.9635 114.46C88.8768 115.813 91.0935 116.49 93.6135 116.49C95.6668 116.49 97.4402 116.093 98.9335 115.3C100.474 114.507 101.664 113.387 102.504 111.94C103.39 110.493 103.834 108.743 103.834 106.69C103.834 104.683 103.39 102.957 102.504 101.51C101.664 100.063 100.474 98.9667 98.9335 98.22C97.4402 97.4733 95.6668 97.1 93.6135 97.1C92.7735 97.1 91.9102 97.17 91.0235 97.31C90.1835 97.45 89.4368 97.6367 88.7835 97.87L86.9635 94.02L100.684 77.85H78.4935V70.85H109.924V77.5L96.4835 93.6L96.2735 90.94C99.4002 90.9867 102.154 91.6867 104.534 93.04C106.914 94.3467 108.757 96.1667 110.064 98.5C111.417 100.787 112.094 103.447 112.094 106.48C112.094 109.747 111.3 112.71 109.714 115.37C108.127 117.983 105.934 120.06 103.134 121.6C100.38 123.093 97.2068 123.84 93.6135 123.84Z" fill="white"></path></svg>