<svg xmlns="http://www.w3.org/2000/svg" width="66" height="62" viewBox="0 0 66 62" fill="none"><g id="Group"><path id="Vector" d="M63.4054 37.2976L59.8378 33.4057C59.8378 33.4057 59.8378 33.2435 59.6757 33.2435L58.2162 31.6219H62.1081C63.8919 31.6219 65.3513 30.1624 65.3513 28.3786C65.3513 26.5949 63.8919 25.1354 62.1081 25.1354H54.973L52.8649 20.4327C52.0541 18.4868 50.1081 17.1895 48 17.1895H18C15.8919 17.1895 13.9459 18.4868 12.973 20.4327L10.8649 25.1354H3.24324C1.45946 25.1354 0 26.5949 0 28.3786C0 30.1624 1.45946 31.6219 3.24324 31.6219H7.45946L6.16216 32.9192L6 33.0813L5.67568 33.4057L3.24324 35.6759C1.45946 37.4597 0.324324 39.8922 0.324324 42.4868V52.703C0.324324 54.3246 1.62162 55.6219 3.24324 55.6219H3.72973V58.5408C3.72973 60.0003 4.86486 61.2976 6.48649 61.2976H14.5946C16.0541 61.2976 17.3514 60.0003 17.3514 58.5408V55.6219H48.3243V58.5408C48.3243 60.0003 49.6216 61.2976 51.0811 61.2976H59.6757C61.1351 61.2976 62.4324 60.0003 62.4324 58.5408V55.6219H63.0811C64.7027 55.6219 66 54.3246 66 52.703V43.4597C65.8378 41.3516 65.027 39.0813 63.4054 37.2976ZM13.9459 20.9192C14.5946 19.2976 16.2162 18.3246 18 18.3246H48C49.7838 18.3246 51.2432 19.2976 52.0541 20.9192L54.1622 25.4597V25.6219C54.1622 25.784 54.3243 26.1084 54.4865 26.1084L56.5946 30.6489H9.56757L11.6757 25.9462L13.9459 20.9192ZM8.91892 31.784H56.9189L58.5405 33.5678L51.5676 38.4327H14.1081L7.13514 33.4057L8.91892 31.784ZM1.45946 52.8651V42.6489C1.45946 40.3786 2.43243 38.2705 4.05405 36.6489L5.67568 35.1895V39.5678C5.67568 42.8111 8.27027 45.4057 11.5135 45.4057H16.3784V54.8111H3.40541C2.27027 54.6489 1.45946 53.8381 1.45946 52.8651ZM17.3514 54.6489V44.9192L22.0541 39.5678H43.6216L48.3243 44.9192V54.6489H17.3514ZM64.8649 52.8651C64.8649 53.8381 64.0541 54.8111 62.9189 54.8111H49.2973V45.4057H54.6487C57.5676 45.4057 60 42.9732 60 40.0543V35.1895L62.7568 38.1084C64.2162 39.5678 64.8649 41.6759 64.8649 43.6219V52.8651Z" fill="white"></path><path id="Vector_2" d="M8.43238 52.5405C9.72968 52.5405 10.7026 51.5676 10.7026 50.2703C10.7026 48.973 9.72968 48 8.43238 48C7.13508 48 6.16211 48.973 6.16211 50.2703C6.16211 51.5676 7.13508 52.5405 8.43238 52.5405Z" fill="white"></path><path id="Vector_3" d="M57.2439 48C55.9466 48 54.9736 48.973 54.9736 50.2703C54.9736 51.5676 55.9466 52.5405 57.2439 52.5405C58.5412 52.5405 59.5142 51.5676 59.5142 50.2703C59.5142 48.973 58.5412 48 57.2439 48Z" fill="white"></path><path id="Vector_4" d="M35.9988 5.51351C38.9177 2.59459 42.8096 1.13513 46.8636 1.13513C50.5934 1.2973 53.9988 2.75676 56.2691 5.35135C56.4312 5.51351 56.4312 5.51351 56.5934 5.51351C56.7555 5.51351 56.7555 5.51351 56.9177 5.35135C57.0799 5.18919 57.0799 4.86486 56.9177 4.7027C54.3231 1.78378 50.7555 0.162162 46.7015 0C42.6474 0 38.4312 1.78378 35.3501 4.86486C35.188 5.02703 35.188 5.35135 35.3501 5.51351C35.5123 5.67567 35.8366 5.67567 35.9988 5.51351Z" fill="white"></path><path id="Vector_5" d="M54.161 8.43203C54.3232 8.26987 54.3232 7.94554 54.161 7.78338C48.9718 3.24284 43.6205 3.08067 38.107 7.78338C37.9448 7.94554 37.9448 8.26987 38.107 8.43203C38.2691 8.59419 38.4313 8.59419 38.4313 8.59419C38.5935 8.59419 38.5935 8.59419 38.7556 8.43203C43.9448 4.21581 48.6475 4.05365 53.5124 8.43203C53.6745 8.75635 53.9989 8.75635 54.161 8.43203Z" fill="white"></path><path id="Vector_6" d="M50.9197 11.6758C51.0819 11.6758 51.244 11.6758 51.244 11.5136C51.4062 11.3515 51.4062 11.0271 51.244 10.865C47.8386 7.94605 44.4332 7.94605 41.19 10.865C41.0278 11.0271 41.0278 11.3515 41.19 11.5136C41.3521 11.6758 41.6765 11.6758 41.8386 11.5136C44.5954 8.91902 47.5143 8.91902 50.5954 11.5136C50.7576 11.5136 50.7575 11.6758 50.9197 11.6758Z" fill="white"></path><path id="Vector_7" d="M43.9468 13.6214C43.7847 13.7836 43.7847 14.1079 43.9468 14.2701C44.109 14.4322 44.4333 14.4322 44.5955 14.2701C45.5684 13.2971 46.5414 13.2971 47.5144 14.2701C47.6765 14.4322 47.6765 14.4322 47.8387 14.4322C48.0009 14.4322 48.163 14.4322 48.163 14.2701C48.3252 14.1079 48.3252 13.7836 48.163 13.6214C46.8657 12.3241 45.4063 12.3241 43.9468 13.6214Z" fill="white"></path></g></svg>