<svg xmlns="http://www.w3.org/2000/svg" width="139" height="139" viewBox="0 0 139 139" fill="none"><circle cx="69.5" cy="69.5" r="69.5" fill="#3B634C"></circle><path d="M100.405 76.2976L96.8378 72.4057C96.8378 72.4057 96.8378 72.2435 96.6757 72.2435L95.2162 70.6219H99.1081C100.892 70.6219 102.351 69.1624 102.351 67.3786C102.351 65.5949 100.892 64.1354 99.1081 64.1354H91.973L89.8649 59.4327C89.0541 57.4868 87.1081 56.1895 85 56.1895H55C52.8919 56.1895 50.9459 57.4868 49.973 59.4327L47.8649 64.1354H40.2432C38.4595 64.1354 37 65.5949 37 67.3786C37 69.1624 38.4595 70.6219 40.2432 70.6219H44.4595L43.1622 71.9192L43 72.0813L42.6757 72.4057L40.2432 74.6759C38.4595 76.4597 37.3243 78.8922 37.3243 81.4868V91.703C37.3243 93.3246 38.6216 94.6219 40.2432 94.6219H40.7297V97.5408C40.7297 99.0003 41.8649 100.298 43.4865 100.298H51.5946C53.0541 100.298 54.3514 99.0003 54.3514 97.5408V94.6219H85.3243V97.5408C85.3243 99.0003 86.6216 100.298 88.0811 100.298H96.6757C98.1351 100.298 99.4324 99.0003 99.4324 97.5408V94.6219H100.081C101.703 94.6219 103 93.3246 103 91.703V82.4597C102.838 80.3516 102.027 78.0813 100.405 76.2976ZM50.9459 59.9192C51.5946 58.2976 53.2162 57.3246 55 57.3246H85C86.7838 57.3246 88.2432 58.2976 89.0541 59.9192L91.1622 64.4597V64.6219C91.1622 64.784 91.3243 65.1084 91.4865 65.1084L93.5946 69.6489H46.5676L48.6757 64.9462L50.9459 59.9192ZM45.9189 70.784H93.9189L95.5405 72.5678L88.5676 77.4327H51.1081L44.1351 72.4057L45.9189 70.784ZM38.4595 91.8651V81.6489C38.4595 79.3786 39.4324 77.2705 41.0541 75.6489L42.6757 74.1895V78.5678C42.6757 81.8111 45.2703 84.4057 48.5135 84.4057H53.3784V93.8111H40.4054C39.2703 93.6489 38.4595 92.8381 38.4595 91.8651ZM54.3514 93.6489V83.9192L59.0541 78.5678H80.6216L85.3243 83.9192V93.6489H54.3514ZM101.865 91.8651C101.865 92.8381 101.054 93.8111 99.9189 93.8111H86.2973V84.4057H91.6487C94.5676 84.4057 97 81.9732 97 79.0543V74.1895L99.7568 77.1084C101.216 78.5678 101.865 80.6759 101.865 82.6219V91.8651Z" fill="white"></path><path d="M45.4324 91.5405C46.7297 91.5405 47.7026 90.5676 47.7026 89.2703C47.7026 87.973 46.7297 87 45.4324 87C44.1351 87 43.1621 87.973 43.1621 89.2703C43.1621 90.5676 44.1351 91.5405 45.4324 91.5405Z" fill="white"></path><path d="M94.2439 87C92.9466 87 91.9736 87.973 91.9736 89.2703C91.9736 90.5676 92.9466 91.5405 94.2439 91.5405C95.5412 91.5405 96.5142 90.5676 96.5142 89.2703C96.5142 87.973 95.5412 87 94.2439 87Z" fill="white"></path><path d="M72.9988 44.5135C75.9177 41.5946 79.8096 40.1351 83.8636 40.1351C87.5934 40.2973 90.9988 41.7568 93.2691 44.3514C93.4312 44.5135 93.4312 44.5135 93.5934 44.5135C93.7555 44.5135 93.7555 44.5135 93.9177 44.3514C94.0799 44.1892 94.0799 43.8649 93.9177 43.7027C91.3231 40.7838 87.7555 39.1622 83.7015 39C79.6474 39 75.4312 40.7838 72.3501 43.8649C72.188 44.027 72.188 44.3514 72.3501 44.5135C72.5123 44.6757 72.8366 44.6757 72.9988 44.5135Z" fill="white"></path><path d="M91.161 47.432C91.3232 47.2699 91.3232 46.9455 91.161 46.7834C85.9718 42.2428 80.6205 42.0807 75.107 46.7834C74.9448 46.9455 74.9448 47.2699 75.107 47.432C75.2691 47.5942 75.4313 47.5942 75.4313 47.5942C75.5935 47.5942 75.5935 47.5942 75.7556 47.432C80.9448 43.2158 85.6475 43.0537 90.5124 47.432C90.6745 47.7564 90.9989 47.7564 91.161 47.432Z" fill="white"></path><path d="M87.9197 50.6758C88.0819 50.6758 88.244 50.6758 88.244 50.5136C88.4062 50.3515 88.4062 50.0271 88.244 49.865C84.8386 46.9461 81.4332 46.9461 78.19 49.865C78.0278 50.0271 78.0278 50.3515 78.19 50.5136C78.3521 50.6758 78.6765 50.6758 78.8386 50.5136C81.5954 47.919 84.5143 47.919 87.5954 50.5136C87.7576 50.5136 87.7575 50.6758 87.9197 50.6758Z" fill="white"></path><path d="M80.9468 52.6214C80.7847 52.7836 80.7847 53.1079 80.9468 53.2701C81.109 53.4322 81.4333 53.4322 81.5955 53.2701C82.5684 52.2971 83.5414 52.2971 84.5144 53.2701C84.6765 53.4322 84.6765 53.4322 84.8387 53.4322C85.0009 53.4322 85.163 53.4322 85.163 53.2701C85.3252 53.1079 85.3252 52.7836 85.163 52.6214C83.8657 51.3241 82.4063 51.3241 80.9468 52.6214Z" fill="white"></path></svg>