<svg xmlns="http://www.w3.org/2000/svg" width="34" height="34" viewBox="0 0 34 34" fill="none"><circle cx="17" cy="17" r="17" fill="#BC9F4C"></circle><path d="M17.4631 24.1989C16.4877 24.1989 15.6165 24.0308 14.8494 23.6946C14.0871 23.3584 13.4834 22.892 13.0384 22.2955C12.598 21.6941 12.3613 20.9981 12.3281 20.2074H14.5582C14.5866 20.6383 14.7311 21.0123 14.9915 21.3295C15.2566 21.642 15.6023 21.8835 16.0284 22.054C16.4545 22.2244 16.928 22.3097 17.4489 22.3097C18.0218 22.3097 18.5284 22.2102 18.9688 22.0114C19.4138 21.8125 19.7618 21.5355 20.0128 21.1804C20.2637 20.8205 20.3892 20.4062 20.3892 19.9375C20.3892 19.4498 20.2637 19.0213 20.0128 18.652C19.7666 18.2779 19.4044 17.9844 18.9261 17.7713C18.4527 17.5582 17.8797 17.4517 17.2074 17.4517H15.9787V15.6619H17.2074C17.7472 15.6619 18.2206 15.5649 18.6278 15.3707C19.0398 15.1766 19.3617 14.9067 19.5938 14.5611C19.8258 14.2107 19.9418 13.8011 19.9418 13.3324C19.9418 12.8826 19.84 12.492 19.6364 12.1605C19.4375 11.8243 19.1534 11.5616 18.7841 11.3722C18.4195 11.1828 17.9886 11.0881 17.4915 11.0881C17.018 11.0881 16.5753 11.1757 16.1634 11.3509C15.7562 11.5213 15.4247 11.7675 15.169 12.0895C14.9134 12.4067 14.776 12.7879 14.7571 13.233H12.6335C12.6572 12.447 12.8892 11.7557 13.3295 11.1591C13.7746 10.5625 14.3617 10.0961 15.0909 9.75994C15.8201 9.42377 16.6297 9.25568 17.5199 9.25568C18.4527 9.25568 19.2576 9.43797 19.9347 9.80256C20.6165 10.1624 21.142 10.643 21.5114 11.2443C21.8854 11.8456 22.0701 12.5038 22.0653 13.2188C22.0701 14.0331 21.8428 14.7244 21.3835 15.2926C20.929 15.8608 20.3229 16.242 19.5653 16.4361V16.5497C20.5313 16.6965 21.2794 17.08 21.8097 17.7003C22.3447 18.3205 22.6098 19.09 22.6051 20.0085C22.6098 20.8087 22.3873 21.526 21.9375 22.1605C21.4924 22.795 20.884 23.2945 20.1122 23.6591C19.3404 24.0189 18.4574 24.1989 17.4631 24.1989Z" fill="white"></path></svg>