<svg xmlns="http://www.w3.org/2000/svg" width="130" height="130" viewBox="0 0 130 130" fill="none"><circle cx="65" cy="65" r="65" fill="#BC9F4C"></circle><path d="M85.125 38H45.75C44.7554 38 43.8016 38.3951 43.0983 39.0983C42.3951 39.8016 42 40.7554 42 41.75V58.625C42.004 59.2794 42.1791 59.9214 42.508 60.4872C42.837 61.053 43.3082 61.5228 43.875 61.85V86.75C43.875 88.2418 44.4676 89.6726 45.5225 90.7275C46.5774 91.7824 48.0082 92.375 49.5 92.375H81.375C82.8668 92.375 84.2976 91.7824 85.3525 90.7275C86.4074 89.6726 87 88.2418 87 86.75V61.85C87.5668 61.5228 88.038 61.053 88.367 60.4872C88.6959 59.9214 88.871 59.2794 88.875 58.625V41.75C88.875 40.7554 88.4799 39.8016 87.7766 39.0983C87.0734 38.3951 86.1196 38 85.125 38ZM85.125 86.75C85.125 87.7446 84.7299 88.6984 84.0266 89.4016C83.3234 90.1049 82.3696 90.5 81.375 90.5H49.5C48.5054 90.5 47.5516 90.1049 46.8483 89.4016C46.1451 88.6984 45.75 87.7446 45.75 86.75V62.375H85.125V86.75ZM87 58.625C87 59.1223 86.8025 59.5992 86.4508 59.9508C86.0992 60.3025 85.6223 60.5 85.125 60.5H45.75C45.2527 60.5 44.7758 60.3025 44.4242 59.9508C44.0725 59.5992 43.875 59.1223 43.875 58.625V41.75C43.875 41.2527 44.0725 40.7758 44.4242 40.4242C44.7758 40.0725 45.2527 39.875 45.75 39.875H85.125C85.6223 39.875 86.0992 40.0725 86.4508 40.4242C86.8025 40.7758 87 41.2527 87 41.75V58.625Z" fill="white"></path><path d="M45.75 58.625H85.125V41.75H45.75V58.625ZM47.625 43.625H83.25V56.75H47.625V43.625Z" fill="white"></path><path d="M55.125 64.25H47.625V71.75H55.125V64.25ZM53.25 69.875H49.5V66.125H53.25V69.875Z" fill="white"></path><path d="M64.5 64.25H57V71.75H64.5V64.25ZM62.625 69.875H58.875V66.125H62.625V69.875Z" fill="white"></path><path d="M73.875 64.25H66.375V71.75H73.875V64.25ZM72 69.875H68.25V66.125H72V69.875Z" fill="white"></path><path d="M83.25 64.25H75.75V71.75H83.25V64.25ZM81.375 69.875H77.625V66.125H81.375V69.875Z" fill="white"></path><path d="M55.125 73.625H47.625V81.125H55.125V73.625ZM53.25 79.25H49.5V75.5H53.25V79.25Z" fill="white"></path><path d="M83.25 83H47.625V88.625H83.25V83ZM81.375 86.75H49.5V84.875H81.375V86.75Z" fill="white"></path><path d="M64.5 73.625H57V81.125H64.5V73.625ZM62.625 79.25H58.875V75.5H62.625V79.25Z" fill="white"></path><path d="M73.875 73.625H66.375V81.125H73.875V73.625ZM72 79.25H68.25V75.5H72V79.25Z" fill="white"></path><path d="M83.25 73.625H75.75V81.125H83.25V73.625ZM81.375 79.25H77.625V75.5H81.375V79.25Z" fill="white"></path><path d="M82.3125 53H74.8125V54.875H82.3125V53Z" fill="white"></path><path d="M72.9375 53H69.1875V54.875H72.9375V53Z" fill="white"></path></svg>