<svg xmlns="http://www.w3.org/2000/svg" width="139" height="139" viewBox="0 0 139 139" fill="none"><circle cx="69.5" cy="69.5" r="69.5" fill="#3B634C"></circle><path d="M96.05 95.173V72.3911C96.6585 71.9369 97.1529 71.3474 97.4943 70.6692C97.8356 69.991 98.0145 69.2426 98.0167 68.4833V66.5167C98.0166 66.2559 97.913 66.0058 97.7285 65.8214L94.0833 62.1762V42.9167C94.0818 41.6132 93.5633 40.3635 92.6416 39.4418C91.7198 38.5201 90.4702 38.0016 89.1667 38H49.8333C48.5298 38.0016 47.2802 38.5201 46.3584 39.4418C45.4367 40.3635 44.9182 41.6132 44.9167 42.9167V62.1762L41.2715 65.8214C41.087 66.0058 40.9834 66.2559 40.9833 66.5167V68.4833C40.9855 69.2426 41.1644 69.991 41.5057 70.6692C41.8471 71.3474 42.3415 71.9369 42.95 72.3911V95.173C42.1081 95.3903 41.362 95.8805 40.8283 96.5669C40.2945 97.2533 40.0033 98.0972 40 98.9667V99.95C40 100.211 40.1036 100.461 40.288 100.645C40.4724 100.83 40.7225 100.933 40.9833 100.933H98.0167C98.2775 100.933 98.5276 100.83 98.712 100.645C98.8964 100.461 99 100.211 99 99.95V98.9667C98.9967 98.0972 98.7055 97.2533 98.1717 96.5669C97.638 95.8805 96.8919 95.3903 96.05 95.173ZM96.05 68.4833C96.05 69.2657 95.7392 70.0161 95.186 70.5693C94.6327 71.1225 93.8824 71.4333 93.1 71.4333C92.3176 71.4333 91.5673 71.1225 91.014 70.5693C90.4608 70.0161 90.15 69.2657 90.15 68.4833V67.5H96.05V68.4833ZM55.7333 76.35C53.9084 76.3521 52.1588 77.078 50.8684 78.3684C49.578 79.6588 48.8521 81.4084 48.85 83.2333V95.0333H44.9167V73.3017C45.8319 73.4892 46.7817 73.4101 47.6533 73.0737C48.5248 72.7372 49.2815 72.1577 49.8333 71.4038C50.2856 72.0228 50.8775 72.5262 51.5609 72.8733C52.2444 73.2204 53.0001 73.4013 53.7667 73.4013C54.5332 73.4013 55.2889 73.2204 55.9724 72.8733C56.6559 72.5262 57.2478 72.0228 57.7 71.4038C58.1522 72.0228 58.7441 72.5262 59.4276 72.8733C60.1111 73.2204 60.8668 73.4013 61.6333 73.4013C62.3999 73.4013 63.1556 73.2204 63.8391 72.8733C64.5225 72.5262 65.1144 72.0228 65.5667 71.4038C66.0189 72.0228 66.6108 72.5262 67.2943 72.8733C67.9777 73.2204 68.7335 73.4013 69.5 73.4013C70.2665 73.4013 71.0223 73.2204 71.7057 72.8733C72.3892 72.5262 72.9811 72.0228 73.4333 71.4038C73.8856 72.0228 74.4775 72.5262 75.1609 72.8733C75.8444 73.2204 76.6001 73.4013 77.3667 73.4013C78.1332 73.4013 78.8889 73.2204 79.5724 72.8733C80.2559 72.5262 80.8478 72.0228 81.3 71.4038C81.7522 72.0228 82.3441 72.5262 83.0276 72.8733C83.7111 73.2204 84.4668 73.4013 85.2333 73.4013C85.9999 73.4013 86.7556 73.2204 87.4391 72.8733C88.1225 72.5262 88.7144 72.0228 89.1667 71.4038C89.7185 72.1577 90.4752 72.7372 91.3467 73.0737C92.2183 73.4101 93.1681 73.4892 94.0833 73.3017V95.0333H62.6167V83.2333C62.6146 81.4084 61.8887 79.6588 60.5983 78.3684C59.3079 77.078 57.5583 76.3521 55.7333 76.35ZM59.6667 88.15H60.65V95.0333H50.8167V83.2333C50.8167 81.9294 51.3347 80.6788 52.2567 79.7567C53.1788 78.8347 54.4294 78.3167 55.7333 78.3167C57.0373 78.3167 58.2879 78.8347 59.2099 79.7567C60.132 80.6788 60.65 81.9294 60.65 83.2333V86.1833H59.6667C59.4059 86.1833 59.1558 86.2869 58.9713 86.4713C58.7869 86.6558 58.6833 86.9059 58.6833 87.1667C58.6833 87.4275 58.7869 87.6776 58.9713 87.862C59.1558 88.0464 59.4059 88.15 59.6667 88.15ZM50.8167 68.4833V67.5H56.7167V68.4833C56.7167 69.2657 56.4059 70.0161 55.8526 70.5693C55.2994 71.1225 54.5491 71.4333 53.7667 71.4333C52.9843 71.4333 52.2339 71.1225 51.6807 70.5693C51.1275 70.0161 50.8167 69.2657 50.8167 68.4833ZM58.6833 68.4833V67.5H64.5833V68.4833C64.5833 69.2657 64.2725 70.0161 63.7193 70.5693C63.1661 71.1225 62.4157 71.4333 61.6333 71.4333C60.8509 71.4333 60.1006 71.1225 59.5474 70.5693C58.9941 70.0161 58.6833 69.2657 58.6833 68.4833ZM66.55 68.4833V67.5H72.45V68.4833C72.45 69.2657 72.1392 70.0161 71.586 70.5693C71.0327 71.1225 70.2824 71.4333 69.5 71.4333C68.7176 71.4333 67.9673 71.1225 67.414 70.5693C66.8608 70.0161 66.55 69.2657 66.55 68.4833ZM74.4167 68.4833V67.5H80.3167V68.4833C80.3167 69.2657 80.0059 70.0161 79.4526 70.5693C78.8994 71.1225 78.1491 71.4333 77.3667 71.4333C76.5843 71.4333 75.8339 71.1225 75.2807 70.5693C74.7275 70.0161 74.4167 69.2657 74.4167 68.4833ZM82.2833 68.4833V67.5H88.1833V68.4833C88.1833 69.2657 87.8725 70.0161 87.3193 70.5693C86.7661 71.1225 86.0157 71.4333 85.2333 71.4333C84.4509 71.4333 83.7006 71.1225 83.1474 70.5693C82.5941 70.0161 82.2833 69.2657 82.2833 68.4833ZM46.8833 42.9167C46.8833 42.1343 47.1941 41.3839 47.7474 40.8307C48.3006 40.2775 49.0509 39.9667 49.8333 39.9667H89.1667C89.9491 39.9667 90.6994 40.2775 91.2526 40.8307C91.8059 41.3839 92.1167 42.1343 92.1167 42.9167V61.6H59.175V54.2309C59.717 53.9155 60.2132 53.5274 60.65 53.0775V55.7C60.65 55.9608 60.7536 56.2109 60.938 56.3953C61.1224 56.5797 61.3725 56.6833 61.6333 56.6833H63.7396C63.9543 57.5266 64.4438 58.2744 65.1308 58.8084C65.8178 59.3425 66.6632 59.6324 67.5333 59.6324C68.4035 59.6324 69.2489 59.3425 69.9359 58.8084C70.6229 58.2744 71.1124 57.5266 71.327 56.6833H79.473C79.6876 57.5266 80.1771 58.2744 80.8641 58.8084C81.5511 59.3425 82.3965 59.6324 83.2667 59.6324C84.1368 59.6324 84.9822 59.3425 85.6692 58.8084C86.3562 58.2744 86.8457 57.5266 87.0604 56.6833H89.1667C89.4275 56.6833 89.6776 56.5797 89.862 56.3953C90.0464 56.2109 90.15 55.9608 90.15 55.7V53.7333C90.1484 52.169 89.5263 50.6693 88.4202 49.5631C87.3141 48.457 85.8143 47.8349 84.25 47.8333H83.9757L82.9048 44.6228C82.6445 43.8392 82.144 43.1576 81.4743 42.6748C80.8045 42.192 79.9997 41.9326 79.174 41.9333H69.6593C68.8339 41.9335 68.0295 42.1933 67.3599 42.676C66.6903 43.1586 66.1896 43.8397 65.9285 44.6228L64.8577 47.8333H63.6C63.2576 47.8366 62.9185 47.8998 62.598 48.0202C62.5503 46.7489 62.1518 45.5157 61.4464 44.457C60.7411 43.3983 59.7565 42.5555 58.6017 42.0218C58.4518 41.9531 58.287 41.9231 58.1225 41.9347C57.958 41.9463 57.7991 41.9991 57.6603 42.0882C57.5215 42.1773 57.4074 42.2999 57.3284 42.4447C57.2495 42.5894 57.2082 42.7517 57.2083 42.9167V47.2915H54.2583V42.9167C54.2582 42.7519 54.2166 42.5898 54.1375 42.4453C54.0584 42.3008 53.9442 42.1785 53.8055 42.0896C53.6668 42.0007 53.508 41.9481 53.3436 41.9366C53.1793 41.9251 53.0147 41.9551 52.865 42.0238C51.7171 42.5489 50.736 43.3799 50.0292 44.4258C49.3224 45.4716 48.9172 46.6918 48.858 47.9526C48.7988 49.2135 49.0879 50.4663 49.6935 51.5738C50.2992 52.6812 51.1981 53.6005 52.2917 54.2309V61.6H46.8833V42.9167ZM53.6851 52.7402C52.9611 52.4093 52.3286 51.9072 51.842 51.2773C51.3555 50.6473 51.0295 49.9084 50.8924 49.1243C50.7552 48.3403 50.8109 47.5346 51.0547 46.7769C51.2985 46.0192 51.723 45.3322 52.2917 44.7752V48.2778C52.2917 48.5386 52.3953 48.7887 52.5797 48.9731C52.7641 49.1575 53.0142 49.2611 53.275 49.2611H58.1917C58.4525 49.2611 58.7026 49.1575 58.887 48.9731C59.0714 48.7887 59.175 48.5386 59.175 48.2778V44.7722C59.7436 45.3292 60.1682 46.0162 60.4119 46.7739C60.6557 47.5317 60.7115 48.3373 60.5743 49.1214C60.4371 49.9054 60.1112 50.6444 59.6247 51.2743C59.1381 51.9043 58.5056 52.4064 57.7816 52.7372C57.6107 52.8156 57.4658 52.9414 57.3642 53.0997C57.2626 53.2579 57.2085 53.442 57.2083 53.6301V61.6H54.2583V53.635C54.2585 53.4466 54.2046 53.2621 54.103 53.1035C54.0014 52.9448 53.8563 52.8187 53.6851 52.7402ZM73.4333 49.8V54.7167H71.327C71.1124 53.8734 70.6229 53.1256 69.9359 52.5916C69.2489 52.0575 68.4035 51.7676 67.5333 51.7676C66.6632 51.7676 65.8178 52.0575 65.1308 52.5916C64.4438 53.1256 63.9543 53.8734 63.7396 54.7167H62.6167V50.7833C62.6167 50.5225 62.7203 50.2724 62.9047 50.088C63.0891 49.9036 63.3392 49.8 63.6 49.8H73.4333ZM66.9315 47.8333L67.7939 45.2452C67.9243 44.8536 68.1747 44.5129 68.5095 44.2715C68.8443 44.0301 69.2465 43.9001 69.6593 43.9H73.4333V47.8333H66.9315ZM69.5 55.7C69.5 56.089 69.3847 56.4692 69.1686 56.7926C68.9525 57.116 68.6453 57.3681 68.2859 57.517C67.9266 57.6658 67.5312 57.7048 67.1497 57.6289C66.7682 57.553 66.4177 57.3657 66.1427 57.0906C65.8676 56.8156 65.6803 56.4652 65.6045 56.0837C65.5286 55.7022 65.5675 55.3067 65.7164 54.9474C65.8652 54.588 66.1173 54.2809 66.4407 54.0648C66.7641 53.8487 67.1444 53.7333 67.5333 53.7333C68.0549 53.7333 68.5552 53.9405 68.924 54.3094C69.2928 54.6782 69.5 55.1784 69.5 55.7ZM84.25 49.8C85.2932 49.8 86.2936 50.2144 87.0313 50.952C87.7689 51.6897 88.1833 52.6901 88.1833 53.7333V54.7167H87.0604C86.8457 53.8734 86.3562 53.1256 85.6692 52.5916C84.9822 52.0575 84.1368 51.7676 83.2667 51.7676C82.3965 51.7676 81.5511 52.0575 80.8641 52.5916C80.1771 53.1256 79.6876 53.8734 79.473 54.7167H75.4V49.8H84.25ZM75.4 47.8333V43.9H79.174C79.5873 43.8995 79.9902 44.0292 80.3256 44.2706C80.661 44.5121 80.9118 44.8531 81.0424 45.2452L81.9018 47.8333H75.4ZM85.2333 55.7C85.2333 56.089 85.118 56.4692 84.9019 56.7926C84.6858 57.116 84.3786 57.3681 84.0193 57.517C83.6599 57.6658 83.2645 57.7048 82.883 57.6289C82.5015 57.553 82.1511 57.3657 81.876 57.0906C81.601 56.8156 81.4137 56.4652 81.3378 56.0837C81.2619 55.7022 81.3008 55.3067 81.4497 54.9474C81.5986 54.588 81.8506 54.2809 82.174 54.0648C82.4975 53.8487 82.8777 53.7333 83.2667 53.7333C83.7883 53.7333 84.2885 53.9405 84.6573 54.3094C85.0261 54.6782 85.2333 55.1784 85.2333 55.7ZM46.3071 63.5667H92.6929L94.6596 65.5333H44.3404L46.3071 63.5667ZM42.95 67.5H48.85V68.4833C48.85 69.2657 48.5392 70.0161 47.986 70.5693C47.4327 71.1225 46.6824 71.4333 45.9 71.4333C45.1176 71.4333 44.3673 71.1225 43.814 70.5693C43.2608 70.0161 42.95 69.2657 42.95 68.4833V67.5ZM41.9667 98.9667C41.9667 98.4451 42.1739 97.9448 42.5427 97.576C42.9115 97.2072 43.4117 97 43.9333 97H95.0667C95.5883 97 96.0885 97.2072 96.4573 97.576C96.8261 97.9448 97.0333 98.4451 97.0333 98.9667H41.9667Z" fill="white"></path><path d="M67.5341 92.0829H89.1674C89.4282 92.0829 89.6784 91.9793 89.8628 91.7949C90.0472 91.6105 90.1508 91.3604 90.1508 91.0996V77.3329C90.1508 77.0721 90.0472 76.822 89.8628 76.6376C89.6784 76.4532 89.4282 76.3496 89.1674 76.3496H67.5341C67.2733 76.3496 67.0232 76.4532 66.8388 76.6376C66.6544 76.822 66.5508 77.0721 66.5508 77.3329V91.0996C66.5508 91.3604 66.6544 91.6105 66.8388 91.7949C67.0232 91.9793 67.2733 92.0829 67.5341 92.0829ZM79.3341 78.3163H88.1841V83.2329H79.3341V78.3163ZM79.3341 85.1996H88.1841V90.1163H79.3341V85.1996ZM68.5174 78.3163H77.3674V83.2329H68.5174V78.3163ZM68.5174 85.1996H77.3674V90.1163H68.5174V85.1996Z" fill="white"></path></svg>