<svg xmlns="http://www.w3.org/2000/svg" width="139" height="139" viewBox="0 0 139 139" fill="none"><circle cx="69.5" cy="69.5" r="69.5" fill="#3B634C"></circle><path d="M92.54 39H47.46C42.79 39 39 42.79 39 47.46V53.76V92.55C39 97.21 42.79 101 47.46 101H92.55C97.21 101 101 97.21 101 92.55V53.76V47.46C101 42.79 97.21 39 92.54 39ZM40.88 47.46C40.88 43.83 43.83 40.88 47.46 40.88H92.55C96.18 40.88 99.13 43.83 99.13 47.46V52.82H40.88V47.46ZM99.12 92.54C99.12 96.17 96.17 99.12 92.54 99.12H47.46C43.83 99.12 40.88 96.17 40.88 92.54V54.7H99.12V92.54Z" fill="white"></path><path d="M73.4 43.3999C71.5 43.3999 69.96 44.9399 69.96 46.8399C69.96 48.7399 71.5 50.2799 73.4 50.2799C75.3 50.2799 76.84 48.7399 76.84 46.8399C76.84 44.9399 75.3 43.3999 73.4 43.3999ZM73.4 48.4099C72.54 48.4099 71.83 47.7099 71.83 46.8399C71.83 45.9699 72.53 45.2699 73.4 45.2699C74.27 45.2699 74.97 45.9699 74.97 46.8399C74.97 47.7099 74.26 48.4099 73.4 48.4099Z" fill="white"></path><path d="M83.0504 43.3999C81.1504 43.3999 79.6104 44.9399 79.6104 46.8399C79.6104 48.7399 81.1504 50.2799 83.0504 50.2799C84.9504 50.2799 86.4904 48.7399 86.4904 46.8399C86.4904 44.9399 84.9504 43.3999 83.0504 43.3999ZM83.0504 48.4099C82.1904 48.4099 81.4804 47.7099 81.4804 46.8399C81.4804 45.9699 82.1804 45.2699 83.0504 45.2699C83.9204 45.2699 84.6203 45.9699 84.6203 46.8399C84.6203 47.7099 83.9204 48.4099 83.0504 48.4099Z" fill="white"></path><path d="M92.7 43.3999C90.8 43.3999 89.26 44.9399 89.26 46.8399C89.26 48.7399 90.8 50.2799 92.7 50.2799C94.6 50.2799 96.14 48.7399 96.14 46.8399C96.14 44.9399 94.6 43.3999 92.7 43.3999ZM92.7 48.4099C91.84 48.4099 91.13 47.7099 91.13 46.8399C91.13 45.9699 91.83 45.2699 92.7 45.2699C93.57 45.2699 94.27 45.9699 94.27 46.8399C94.27 47.7099 93.57 48.4099 92.7 48.4099Z" fill="white"></path><path d="M65.2604 45.9102H47.3804C46.8604 45.9102 46.4404 46.3302 46.4404 46.8502C46.4404 47.3702 46.8604 47.7902 47.3804 47.7902H65.2604C65.7804 47.7902 66.2004 47.3702 66.2004 46.8502C66.2004 46.3302 65.7804 45.9102 65.2604 45.9102Z" fill="white"></path><path d="M51.6003 84.2998H51.6403L54.8003 84.2698C55.2403 87.3598 57.6803 89.7398 60.6303 89.7398H60.6903C62.1803 89.7198 63.5903 89.1098 64.6703 87.9998C65.6703 86.9798 66.2703 85.6098 66.4503 84.1398L69.6203 84.1098C70.5703 84.0998 71.4503 83.7298 72.1203 83.0498C72.7803 82.3698 73.1403 81.4798 73.1303 80.5298C73.1103 79.5898 72.7403 78.7098 72.0703 78.0398C71.4503 77.4398 70.6503 77.0898 69.7903 77.0398L69.7303 71.6698C69.6803 67.7798 67.1903 64.3198 63.5303 63.0498C62.8303 62.8098 62.1003 62.6798 61.3503 62.6098V60.0098C61.3503 59.4898 60.9303 59.0698 60.4103 59.0698C59.8903 59.0698 59.4703 59.4898 59.4703 60.0098V62.6198C58.7703 62.6998 58.0703 62.8298 57.4003 63.0698C53.6903 64.3898 51.2303 67.9198 51.2803 71.8598L51.3403 77.2298C49.5003 77.3698 48.0603 78.9198 48.0803 80.7898C48.0903 81.7398 48.4603 82.6198 49.1403 83.2898C49.8003 83.9398 50.6703 84.2998 51.6003 84.2998ZM63.3303 86.6898C62.6003 87.4298 61.6603 87.8498 60.6703 87.8598C60.6603 87.8598 60.6503 87.8598 60.6303 87.8598C58.6903 87.8598 57.0603 86.3098 56.6703 84.2498L64.5603 84.1698C64.4103 85.1298 63.9903 86.0198 63.3303 86.6898ZM51.5903 79.0998C52.0303 79.0998 52.4403 78.9198 52.7403 78.6098C53.0503 78.2898 53.2203 77.8798 53.2103 77.4298L53.1403 71.8298C53.1003 68.6898 55.0603 65.8798 58.0203 64.8298C58.7803 64.5598 59.5803 64.4098 60.4303 64.4098H60.4803C61.3103 64.4098 62.1303 64.5498 62.9003 64.8198C65.8103 65.8298 67.8003 68.5898 67.8403 71.6798L67.9103 77.2698C67.9103 77.7198 68.0903 78.1298 68.4103 78.4398C68.7303 78.7498 69.1603 78.8998 69.5703 78.8998C70.0303 78.8798 70.4403 79.0698 70.7503 79.3698C71.0703 79.6898 71.2503 80.1098 71.2503 80.5498C71.2603 80.9898 71.0903 81.4098 70.7803 81.7298C70.4703 82.0498 70.0603 82.2198 69.6103 82.2198L51.6303 82.4098C51.1903 82.3798 50.7703 82.2498 50.4503 81.9398C50.1303 81.6298 49.9603 81.2098 49.9503 80.7598C49.9403 79.8598 50.6803 79.1098 51.5903 79.0998Z" fill="white"></path><path d="M57.1304 79.41C57.1404 79.41 57.1404 79.41 57.1304 79.41L64.0704 79.34C64.5904 79.34 65.0004 78.91 65.0004 78.39C65.0004 77.88 64.5804 77.46 64.0604 77.46H64.0504L57.1204 77.53C56.6004 77.53 56.1904 77.96 56.1904 78.48C56.2004 79 56.6204 79.41 57.1304 79.41Z" fill="white"></path><path d="M76.93 81.99C76.93 82.01 76.92 82.02 76.92 82.04L77.85 89.92C77.91 90.4 78.31 90.75 78.78 90.75C78.82 90.75 78.85 90.75 78.89 90.74C79.41 90.68 79.77 90.21 79.71 89.7L79.1 84.52L89.52 94.94C89.7 95.12 89.94 95.22 90.18 95.22C90.42 95.22 90.66 95.13 90.84 94.94C91.21 94.57 91.21 93.98 90.84 93.61L80.44 83.19L85.62 83.81C86.14 83.86 86.6 83.5 86.66 82.99C86.72 82.48 86.35 82.01 85.84 81.95L77.97 81C77.96 81 77.94 81 77.92 81C77.82 80.99 77.72 81.01 77.62 81.03C77.59 81.04 77.56 81.04 77.54 81.05C77.41 81.1 77.3 81.16 77.19 81.26C77.09 81.36 77.02 81.48 76.98 81.6C76.97 81.64 76.97 81.67 76.96 81.71C76.94 81.81 76.93 81.9 76.93 81.99Z" fill="white"></path><path d="M80.5504 62.6798H95.2104C95.7304 62.6798 96.1504 62.2598 96.1504 61.7398C96.1504 61.2198 95.7304 60.7998 95.2104 60.7998H80.5504C80.0304 60.7998 79.6104 61.2198 79.6104 61.7398C79.6104 62.2598 80.0304 62.6798 80.5504 62.6798Z" fill="white"></path><path d="M95.2105 66.5H84.6705C84.1505 66.5 83.7305 66.92 83.7305 67.44C83.7305 67.96 84.1505 68.38 84.6705 68.38H95.2005C95.7205 68.38 96.1405 67.96 96.1405 67.44C96.1405 66.92 95.7305 66.5 95.2105 66.5Z" fill="white"></path><path d="M95.2099 72.9299H87.6399C87.1199 72.9299 86.7 73.3499 86.7 73.8699C86.7 74.3899 87.1199 74.8099 87.6399 74.8099H95.2099C95.7299 74.8099 96.15 74.3899 96.15 73.8699C96.15 73.3499 95.7299 72.9299 95.2099 72.9299Z" fill="white"></path></svg>