<svg xmlns="http://www.w3.org/2000/svg" width="34" height="34" viewBox="0 0 34 34" fill="none"><circle cx="17" cy="17" r="17" fill="#BC9F4C"></circle><path d="M12.3991 24V22.4091L17.321 17.3097C17.8466 16.7557 18.2798 16.2704 18.6207 15.8537C18.9664 15.4323 19.2244 15.0322 19.3949 14.6534C19.5653 14.2746 19.6506 13.8722 19.6506 13.446C19.6506 12.9631 19.5369 12.5464 19.3097 12.196C19.0824 11.8409 18.7723 11.5687 18.3793 11.3793C17.9863 11.1851 17.5436 11.0881 17.0511 11.0881C16.5303 11.0881 16.0758 11.1946 15.6875 11.4077C15.2992 11.6207 15.0009 11.9214 14.7926 12.3097C14.5843 12.6979 14.4801 13.1525 14.4801 13.6733H12.3849C12.3849 12.7879 12.5885 12.0137 12.9957 11.3509C13.4029 10.688 13.9616 10.1742 14.6719 9.80966C15.3821 9.44034 16.1894 9.25568 17.0938 9.25568C18.0076 9.25568 18.8125 9.43797 19.5085 9.80256C20.2093 10.1624 20.7562 10.6548 21.1491 11.2798C21.5421 11.9001 21.7386 12.6009 21.7386 13.3821C21.7386 13.9219 21.6368 14.4498 21.4332 14.9659C21.2344 15.482 20.8864 16.0573 20.3892 16.6918C19.892 17.3215 19.2008 18.0862 18.3153 18.9858L15.4247 22.0114V22.1179H21.973V24H12.3991Z" fill="white"></path></svg>