<svg xmlns="http://www.w3.org/2000/svg" width="139" height="139" viewBox="0 0 139 139" fill="none"><circle cx="69.5" cy="69.5" r="69.5" fill="#3B634C"></circle><path fill-rule="evenodd" clip-rule="evenodd" d="M90.0478 64.6803H86.6011C85.8917 64.6803 85.3201 64.1067 85.3201 63.4042C85.3201 62.7018 85.8917 62.1282 86.6011 62.1282H90.0478C90.7571 62.1282 91.3288 62.7018 91.3288 63.4042C91.3288 64.1067 90.7571 64.6803 90.0478 64.6803ZM77.8133 84.6775V77.8774H56.0649C55.3597 77.8774 54.788 77.3079 54.788 76.6013V37.2761C54.788 36.5736 55.3597 36 56.0649 36H101.719C102.424 36 103 36.5736 103 37.2761L102.996 76.6013C102.996 77.3079 102.424 77.8774 101.719 77.8774H94.884L79.6868 85.8039C78.8481 86.2445 77.8133 85.6418 77.8133 84.6775ZM57.3459 75.3253H79.0943C79.7995 75.3253 80.3753 75.8989 80.3753 76.6013V82.5701L93.9743 75.4707C94.1579 75.3751 94.3624 75.3253 94.571 75.3253H100.438V38.5521H57.3459V75.3253ZM95.0467 69.0488H93.5946V71.921C93.5946 72.6276 93.0188 73.1971 92.3136 73.1971H86.6762C85.9668 73.1971 85.3952 72.6276 85.3952 71.921V69.0488H72.3887V71.921C72.3887 72.6276 71.817 73.1971 71.1077 73.1971H65.4703C64.7651 73.1971 64.1934 72.6276 64.1934 71.921V69.0488H62.7371C62.0278 69.0488 61.4561 68.4794 61.4561 67.7769V59.0315C61.4561 58.8611 61.4853 58.7156 61.5479 58.5577L66.2631 46.0589C66.4509 45.5601 66.9266 45.2317 67.4607 45.2317H71.817V41.9564C71.817 41.2497 72.3887 40.6803 73.0981 40.6803H84.69C85.3952 40.6803 85.9668 41.2497 85.9668 41.9564V45.2317H90.3232C90.8573 45.2317 91.333 45.5601 91.5208 46.0589L96.236 58.5577C96.2986 58.7156 96.3278 58.8653 96.3278 59.0357V67.7769C96.3278 68.4794 95.7561 69.0488 95.0467 69.0488ZM64.5856 57.7596H93.1982L89.4386 47.7797H80.1709V48.8272H81.3768C82.0862 48.8272 82.6578 49.4008 82.6578 50.1032C82.6578 50.8057 82.0862 51.3793 81.3768 51.3793H76.8827C76.1776 51.3793 75.6059 50.8057 75.6059 50.1032C75.6059 49.4008 76.1776 48.8272 76.8827 48.8272H77.613V47.7797H68.3453L64.5856 57.7596ZM64.0182 66.5009H93.7699V60.3076H64.0182V66.5009ZM66.7513 70.6491H69.8308V69.0488H66.7513V70.6491ZM87.9572 70.6491H91.0326V69.0488H87.9572V70.6491ZM74.3749 45.2317H83.4089V43.2283H74.3749V45.2317ZM52.8686 108.653L30.3691 86.2362C27.2103 83.0897 27.2103 77.9564 30.3691 74.8098L39.6242 65.5947C40.801 64.4184 42.7204 64.4184 43.9013 65.5947L52.3011 73.9619C53.482 75.134 53.482 77.0461 52.3011 78.2224L48.7834 81.7264L57.4002 90.3097L60.9178 86.8015C62.0945 85.6294 64.014 85.6294 65.1949 86.8015L73.5946 95.1728C74.7755 96.345 74.7755 98.257 73.5946 99.4333L64.3436 108.653C61.1974 111.782 56.0148 111.782 52.8686 108.653ZM37.9134 70.8985L46.9725 79.9224L50.4901 76.4184C50.6695 76.2439 50.6695 75.9404 50.4901 75.7658L42.0903 67.3945C41.9109 67.2158 41.6105 67.2158 41.431 67.3945L37.9134 70.8985ZM59.207 92.1095L68.266 101.133L71.7836 97.6294C71.9631 97.4506 71.9631 97.1514 71.7836 96.9768L63.3839 88.6055C63.2045 88.4267 62.904 88.4267 62.7246 88.6055L59.207 92.1095ZM36.1066 72.7025L32.1801 76.6138C30.0186 78.7627 30.0227 82.2833 32.1801 84.4323L54.6795 106.849C56.8368 108.998 60.3712 108.998 62.5327 106.849L66.4592 102.937L57.2625 93.7762L36.1066 72.7025ZM58.2681 103.877C57.9426 103.877 57.613 103.752 57.3626 103.503L35.5349 81.7596C35.0342 81.2608 35.0342 80.4545 35.5349 79.9557C36.0357 79.461 36.8452 79.461 37.3459 79.9557L59.1736 101.703C59.9831 102.505 59.3989 103.877 58.2681 103.877ZM71.1828 64.6803H67.7361C67.0267 64.6803 66.455 64.1067 66.455 63.4042C66.455 62.7018 67.0267 62.1282 67.7361 62.1282H71.1828C71.8921 62.1282 72.4638 62.7018 72.4638 63.4042C72.4638 64.1067 71.8921 64.6803 71.1828 64.6803Z" fill="white"></path></svg>