<svg xmlns="http://www.w3.org/2000/svg" width="130" height="130" viewBox="0 0 130 130" fill="none"><circle cx="65" cy="65" r="65" fill="#BC9F4C"></circle><path d="M56.8 35C51.4844 35 47.2 39.2844 47.2 44.6C47.2 49.9156 51.4844 54.2 56.8 54.2C60.3578 54.2 63.4281 52.2641 65.0875 49.4H79.6C79.9188 49.4094 80.2328 49.2875 80.4625 49.0625L82.8625 46.6625C83.0875 46.4328 83.2094 46.1188 83.2 45.8V43.4C83.2094 43.0813 83.0875 42.7672 82.8625 42.5375L80.4625 40.1375C80.2328 39.9125 79.9188 39.7906 79.6 39.8H77.2C76.8813 39.7906 76.5672 39.9125 76.3375 40.1375L75.4 41.075L74.4625 40.1375C74.2328 39.9125 73.9188 39.7906 73.6 39.8H71.2C70.9609 39.7953 70.7266 39.8609 70.525 39.9875L69.4 40.7375L68.275 39.9875C68.0734 39.8609 67.8391 39.7953 67.6 39.8H65.0875C63.4281 36.9359 60.3578 35 56.8 35ZM56.8 37.4C60.8453 37.4 64 40.5547 64 44.6C64 48.6453 60.8453 51.8 56.8 51.8C52.7547 51.8 49.6 48.6453 49.6 44.6C49.6 40.5547 52.7547 37.4 56.8 37.4ZM54.4 42.2C53.0734 42.2 52 43.2734 52 44.6C52 45.9266 53.0734 47 54.4 47C55.7266 47 56.8 45.9266 56.8 44.6C56.8 43.2734 55.7266 42.2 54.4 42.2ZM66.1 42.2H67.225L68.725 43.2125C69.1328 43.4891 69.6672 43.4891 70.075 43.2125L71.575 42.2H73.075L74.5375 43.6625C74.7625 43.8969 75.0766 44.0281 75.4 44.0281C75.7234 44.0281 76.0375 43.8969 76.2625 43.6625L77.725 42.2H79.075L80.8 43.925V45.275L79.075 47H66.1C66.2969 46.2313 66.4 45.4297 66.4 44.6C66.4 43.7703 66.2969 42.9688 66.1 42.2ZM54.025 56.6C51.625 56.6 49.4313 58.0719 48.5125 60.3125C48.5078 60.3313 48.4797 60.3313 48.475 60.35L44.95 68.6H43.6C41.6266 68.6 40 70.2266 40 72.2C40 74.1734 41.6266 75.8 43.6 75.8V91.4C43.6 93.3734 45.2266 95 47.2 95H50.8C52.7734 95 54.4 93.3734 54.4 91.4V90.2H76V91.4C76 93.3734 77.6266 95 79.6 95H83.2C85.1734 95 86.8 93.3734 86.8 91.4V75.8C88.7734 75.8 90.4 74.1734 90.4 72.2C90.4 70.2266 88.7734 68.6 86.8 68.6H85.45L81.925 60.35C81.9203 60.3313 81.8922 60.3313 81.8875 60.3125C80.9688 58.0719 78.775 56.6 76.375 56.6H54.025ZM54.025 59H76.375C77.7953 59 79.1406 59.9188 79.675 61.25L79.7125 61.2875L83.0875 69.2L81.925 69.9875V70.025C80.9313 70.7188 79.8672 71 78.625 71H51.775C50.5328 71 49.4688 70.7188 48.475 70.025V69.9875L47.3125 69.2L50.6875 61.2875L50.725 61.25C51.2594 59.9188 52.6047 59 54.025 59ZM43.6 71H45.625L47.125 72.0125V71.975H47.1625C48.5641 72.9453 50.1484 73.4 51.775 73.4H78.625C80.2516 73.4 81.8359 72.9453 83.2375 71.975C83.2469 71.9703 83.2656 71.9797 83.275 71.975V72.0125L84.775 71H86.8C87.4656 71 88 71.5344 88 72.2C88 72.8656 87.4656 73.4 86.8 73.4H84.4V87.8H46V73.4H43.6C42.9344 73.4 42.4 72.8656 42.4 72.2C42.4 71.5344 42.9344 71 43.6 71ZM52.6 77C50.2938 77 48.4 78.8938 48.4 81.2C48.4 83.5063 50.2938 85.4 52.6 85.4C54.9063 85.4 56.8 83.5063 56.8 81.2C56.8 78.8938 54.9063 77 52.6 77ZM77.8 77C75.4938 77 73.6 78.8938 73.6 81.2C73.6 83.5063 75.4938 85.4 77.8 85.4C80.1063 85.4 82 83.5063 82 81.2C82 78.8938 80.1063 77 77.8 77ZM52.6 79.4C53.65 79.4 54.4 80.15 54.4 81.2C54.4 82.25 53.65 83 52.6 83C51.55 83 50.8 82.25 50.8 81.2C50.8 80.15 51.55 79.4 52.6 79.4ZM77.8 79.4C78.85 79.4 79.6 80.15 79.6 81.2C79.6 82.25 78.85 83 77.8 83C76.75 83 76 82.25 76 81.2C76 80.15 76.75 79.4 77.8 79.4ZM46 90.2H52V91.4C52 92.0656 51.4656 92.6 50.8 92.6H47.2C46.5344 92.6 46 92.0656 46 91.4V90.2ZM78.4 90.2H84.4V91.4C84.4 92.0656 83.8656 92.6 83.2 92.6H79.6C78.9344 92.6 78.4 92.0656 78.4 91.4V90.2Z" fill="white"></path></svg>