<svg xmlns="http://www.w3.org/2000/svg" width="130" height="130" viewBox="0 0 130 130" fill="none"><circle cx="65" cy="65" r="65" fill="#BC9F4C"></circle><path d="M94.5451 80.8094H100.619C100.619 71.3122 96.8461 62.2039 90.1305 55.4883C83.415 48.7728 74.3067 45 64.8094 45C55.3122 45 46.2039 48.7728 39.4883 55.4883C32.7728 62.2039 29 71.3122 29 80.8094H35.0738" stroke="white" stroke-width="2" stroke-linecap="round" stroke-linejoin="round"></path><path d="M90.3617 80.8095C90.3617 74.0327 87.6696 67.5334 82.8777 62.7414C78.0857 57.9495 71.5864 55.2574 64.8096 55.2574" stroke="white" stroke-width="2" stroke-linecap="round" stroke-linejoin="round"></path><path d="M78.8265 80.8094C78.8264 77.0919 77.3496 73.5267 74.721 70.8981C72.0923 68.2694 68.5271 66.7927 64.8096 66.7927" stroke="white" stroke-width="2" stroke-linecap="round" stroke-linejoin="round"></path><path d="M64.8096 85C67.1239 85 69 83.1239 69 80.8096C69 78.4952 67.1239 76.6191 64.8096 76.6191C62.4953 76.6191 60.6191 78.4952 60.6191 80.8096C60.6191 83.1239 62.4953 85 64.8096 85Z" stroke="white" stroke-width="2" stroke-linecap="round" stroke-linejoin="round"></path><path d="M64.8096 76.6191V48.0799" stroke="white" stroke-width="2" stroke-linecap="round" stroke-linejoin="round"></path></svg>