<svg xmlns="http://www.w3.org/2000/svg" width="40" height="48" viewBox="0 0 40 48" fill="none"><path d="M24 8C32.8185 8 40 15.178 40 24.0093C40 32.822 32.8185 40 24 40C15.1815 40 8 32.822 8 24.0093C8 15.178 15.1815 8 24 8ZM22.1776 17.6479C21.8378 17.6479 21.5135 17.725 21.2046 17.8794C20.8185 18.0955 20.5097 18.4351 20.3398 18.8365C20.2317 19.1143 20.0618 19.9479 20.0618 19.9633C19.8919 20.8741 19.7992 22.356 19.7992 23.9923C19.7992 25.5529 19.8919 26.9715 20.0309 27.8977C20.0463 27.9132 20.2162 28.9474 20.4015 29.3025C20.7413 29.9508 21.4054 30.3521 22.1158 30.3521H22.1776C22.6409 30.3367 23.6139 29.9354 23.6139 29.9199C25.251 29.2407 28.4788 27.1259 29.7761 25.7212L29.8687 25.6286C30.0386 25.4588 30.2548 25.1963 30.3012 25.1346C30.5483 24.8104 30.6718 24.4091 30.6718 24.0093C30.6718 23.5601 30.5328 23.1433 30.2703 22.8037C30.2085 22.7419 29.9768 22.4795 29.7606 22.2634C28.4942 20.905 25.1892 18.6821 23.4595 18.0029C23.1969 17.8964 22.5328 17.6633 22.1776 17.6479Z" fill="#3B634C"></path><path fill-rule="evenodd" clip-rule="evenodd" d="M24.0004 3.11411e-09C24.0003 1.03319e-09 24.0001 0 24 0C10.7452 0 0 10.7452 0 24C0 37.2548 10.7452 48 24 48C24.0001 48 24.0003 48 24.0004 48V44.8C24.0003 44.8 24.0001 44.8 24 44.8C12.5125 44.8 3.2 35.4875 3.2 24C3.2 12.5125 12.5125 3.2 24 3.2C24.0001 3.2 24.0003 3.2 24.0004 3.2V3.11411e-09Z" fill="#F4BC04"></path></svg>