<svg width="22" height="22" viewBox="0 0 22 22" fill="none" xmlns="http://www.w3.org/2000/svg">
<path opacity="0.5" d="M11 21C16.5228 21 21 16.5228 21 11C21 5.47715 16.5228 1 11 1C5.47715 1 1 5.47715 1 11C1 16.5228 5.47715 21 11 21Z" stroke="black"/>
<path d="M11 5V17" stroke="black" stroke-linecap="round"/>
<path d="M14 8.5C14 7.11929 12.6569 6 11 6C9.3431 6 8 7.11929 8 8.5C8 9.8807 9.3431 11 11 11C12.6569 11 14 12.1193 14 13.5C14 14.8807 12.6569 16 11 16C9.3431 16 8 14.8807 8 13.5" stroke="black" stroke-linecap="round"/>
</svg>
