<svg width="73" height="47" viewBox="0 0 73 47" fill="none" xmlns="http://www.w3.org/2000/svg">
<path d="M70.1316 45.8421H2.86842C1.82211 45.8421 1 45.02 1 43.9737V2.86842C1 1.82211 1.82211 1 2.86842 1H70.1316C71.1779 1 72 1.82211 72 2.86842V43.9737C72 45.02 71.1779 45.8421 70.1316 45.8421Z" stroke="white" stroke-width="2" stroke-miterlimit="10" stroke-linecap="round" stroke-linejoin="round"/>
<path d="M48.5303 23.9758C52.3487 23.9758 55.4435 20.8473 55.4435 16.9879C55.4435 13.1286 52.3487 10 48.5303 10C44.7124 10 41.6172 13.1286 41.6172 16.9879C41.6172 20.8473 44.7124 23.9758 48.5303 23.9758Z" stroke="white" stroke-width="2" stroke-miterlimit="10" stroke-linecap="round" stroke-linejoin="round"/>
<path d="M61.1183 28.7188C62.2767 30.6993 62.9867 32.9414 63.0988 35.333C63.1362 35.7814 62.7625 36.1551 62.3141 36.1551H34.6988C34.2504 36.1551 33.9141 35.7814 33.9141 35.333C34.0635 32.9414 34.7735 30.6993 35.8946 28.7188" stroke="white" stroke-width="2" stroke-miterlimit="10" stroke-linecap="round" stroke-linejoin="round"/>
<path d="M8.46875 23.0781H25.0229" stroke="white" stroke-width="2" stroke-miterlimit="10" stroke-linecap="round" stroke-linejoin="round"/>
<path d="M8.46875 15.9453H21.2861" stroke="white" stroke-width="2" stroke-miterlimit="10" stroke-linecap="round" stroke-linejoin="round"/>
<path d="M8.46875 30.5391H17.5492" stroke="white" stroke-width="2" stroke-miterlimit="10" stroke-linecap="round" stroke-linejoin="round"/>
</svg>
