<svg width="65" height="74" viewBox="0 0 65 74" fill="none" xmlns="http://www.w3.org/2000/svg">
<path d="M1 10.23L32.5158 1L64 10.23V29.1573C63.9998 38.8574 60.9579 48.3116 55.3053 56.1804C49.6527 64.0492 41.676 69.9336 32.5053 73C23.3317 69.934 15.3523 64.0488 9.69768 56.1783C4.0431 48.3078 1.00014 38.8512 1 29.1485V10.23Z" stroke="white" stroke-width="2" stroke-linejoin="round"/>
<path d="M33.438 26.3178V26.8178H33.938H38.3271V28.1378H29.6241C28.6087 28.1378 27.6358 28.5446 26.9191 29.2672C26.2026 29.9898 25.8008 30.9689 25.8008 31.9889C25.8008 33.0089 26.2026 33.988 26.9191 34.7106C27.6358 35.4332 28.6087 35.84 29.6241 35.84H35.3754C36.7327 35.8415 38.0348 36.3859 38.9959 37.355C39.9571 38.3242 40.4985 39.6392 40.5 41.0117V41.2683C40.4985 42.6408 39.9571 43.9558 38.9959 44.925C38.0348 45.8941 36.7327 46.4385 35.3754 46.44H33.938H33.438V46.94V50.5H32.1372V46.94V46.44H31.6372H26.1404V45.12H35.3759H35.3765C36.3914 45.1188 37.3635 44.7118 38.0798 43.9895C38.796 43.2673 39.1981 42.289 39.1992 41.2695V41.2689V41.0111V41.0105C39.1981 39.991 38.796 39.0127 38.0798 38.2905C37.3635 37.5682 36.3914 37.1611 35.3765 37.16H35.3759H29.6241C28.2664 37.16 26.9635 36.6162 26.0023 35.6469C25.0409 34.6774 24.5 33.3617 24.5 31.9889C24.5 30.6161 25.0409 29.3004 26.0023 28.3309C26.9635 27.3616 28.2664 26.8178 29.6241 26.8178H31.6372H32.1372V26.3178V22.5H33.438V26.3178Z" fill="black" stroke="white"/>
</svg>
