<svg width="22" height="22" viewBox="0 0 22 22" fill="none" xmlns="http://www.w3.org/2000/svg">
<path d="M17.0379 4.10039H13.5879V3.23789C13.5879 2.55164 13.3153 1.8935 12.83 1.40825C12.3448 0.923001 11.6866 0.650391 11.0004 0.650391C10.3141 0.650391 9.656 0.923001 9.17075 1.40825C8.6855 1.8935 8.41289 2.55164 8.41289 3.23789V4.10039H4.96289C3.81956 4.10176 2.72346 4.55655 1.91501 5.36501C1.10655 6.17346 0.65176 7.26956 0.650391 8.41289L0.650391 17.0379C0.65176 18.1812 1.10655 19.2773 1.91501 20.0858C2.72346 20.8942 3.81956 21.349 4.96289 21.3504H17.0379C18.1812 21.349 19.2773 20.8942 20.0858 20.0858C20.8942 19.2773 21.349 18.1812 21.3504 17.0379V8.41289C21.349 7.26956 20.8942 6.17346 20.0858 5.36501C19.2773 4.55655 18.1812 4.10176 17.0379 4.10039V4.10039ZM9.27539 16.1754C9.27539 16.4041 9.18452 16.6235 9.02277 16.7853C8.86102 16.947 8.64164 17.0379 8.41289 17.0379H4.10039C3.87164 17.0379 3.65226 16.947 3.49051 16.7853C3.32876 16.6235 3.23789 16.4041 3.23789 16.1754V9.27539C3.23789 9.04664 3.32876 8.82726 3.49051 8.66551C3.65226 8.50376 3.87164 8.41289 4.10039 8.41289H8.41289C8.64164 8.41289 8.86102 8.50376 9.02277 8.66551C9.18452 8.82726 9.27539 9.04664 9.27539 9.27539V16.1754ZM11.0004 5.82539C10.7716 5.82539 10.5523 5.73452 10.3905 5.57277C10.2288 5.41102 10.1379 5.19164 10.1379 4.96289V3.23789C10.1379 3.00914 10.2288 2.78976 10.3905 2.62801C10.5523 2.46626 10.7716 2.37539 11.0004 2.37539C11.2291 2.37539 11.4485 2.46626 11.6103 2.62801C11.772 2.78976 11.8629 3.00914 11.8629 3.23789V4.96289C11.8629 5.19164 11.772 5.41102 11.6103 5.57277C11.4485 5.73452 11.2291 5.82539 11.0004 5.82539ZM16.1754 17.0379H12.7254C12.4966 17.0379 12.2773 16.947 12.1155 16.7853C11.9538 16.6235 11.8629 16.4041 11.8629 16.1754C11.8629 15.9466 11.9538 15.7273 12.1155 15.5655C12.2773 15.4038 12.4966 15.3129 12.7254 15.3129H16.1754C16.4041 15.3129 16.6235 15.4038 16.7853 15.5655C16.947 15.7273 17.0379 15.9466 17.0379 16.1754C17.0379 16.4041 16.947 16.6235 16.7853 16.7853C16.6235 16.947 16.4041 17.0379 16.1754 17.0379ZM17.9004 13.5879H12.7254C12.4966 13.5879 12.2773 13.497 12.1155 13.3353C11.9538 13.1735 11.8629 12.9541 11.8629 12.7254C11.8629 12.4966 11.9538 12.2773 12.1155 12.1155C12.2773 11.9538 12.4966 11.8629 12.7254 11.8629H17.9004C18.1291 11.8629 18.3485 11.9538 18.5103 12.1155C18.672 12.2773 18.7629 12.4966 18.7629 12.7254C18.7629 12.9541 18.672 13.1735 18.5103 13.3353C18.3485 13.497 18.1291 13.5879 17.9004 13.5879ZM17.9004 10.1379H12.7254C12.4966 10.1379 12.2773 10.047 12.1155 9.88527C11.9538 9.72352 11.8629 9.50414 11.8629 9.27539C11.8629 9.04664 11.9538 8.82726 12.1155 8.66551C12.2773 8.50376 12.4966 8.41289 12.7254 8.41289H17.9004C18.1291 8.41289 18.3485 8.50376 18.5103 8.66551C18.672 8.82726 18.7629 9.04664 18.7629 9.27539C18.7629 9.50414 18.672 9.72352 18.5103 9.88527C18.3485 10.047 18.1291 10.1379 17.9004 10.1379ZM4.96289 10.1379H7.55039V15.3129H4.96289V10.1379Z" fill="#667085"/>
</svg>
