<svg width="38" height="23" viewBox="0 0 38 23" fill="none" xmlns="http://www.w3.org/2000/svg">
<path d="M37.0425 14.3371V13.9305L33.6199 2.68887H26.046V0H7.83954V6.95746H3.96281L2.32325 9.14381H7.83954V10.7243V10.7834H1.63956L0 12.9697H7.83872V14.3371H6.96811V18.0261H7.83872V18.5737H8.4306C8.76179 20.5354 10.4677 22.0356 12.5229 22.0356C14.5781 22.0356 16.2833 20.5354 16.6144 18.5737H25.9452C26.2747 20.5354 27.9807 22.0356 30.0359 22.0356C32.0902 22.0356 33.797 20.5354 34.1274 18.5737H37.0417V18.0261H38V14.3371H37.0425ZM12.5229 20.0813C11.3105 20.0813 10.3226 19.0935 10.3226 17.8794C10.3226 16.6669 11.3097 15.6799 12.5229 15.6799C13.7354 15.6799 14.7224 16.6661 14.7224 17.8794C14.7224 19.0935 13.7354 20.0813 12.5229 20.0813ZM30.0367 20.0813C28.8242 20.0813 27.8356 19.0935 27.8356 17.8794C27.8356 16.6669 28.8234 15.6799 30.0367 15.6799C31.2499 15.6799 32.2361 16.6661 32.2361 17.8794C32.2353 19.0935 31.2491 20.0813 30.0367 20.0813ZM28.0003 9.62256V4.64322H32.1714L33.688 9.62256H28.0003Z" fill="#004225"/>
</svg>
