<svg width="24" height="25" viewBox="0 0 24 25" fill="none" xmlns="http://www.w3.org/2000/svg">
<path d="M12 0.431641C5.37288 0.431641 0 5.79972 0 12.4209C0 19.0421 5.37288 24.4102 12 24.4102C18.6271 24.4102 24 19.0421 24 12.4209C24 5.79972 18.6271 0.431641 12 0.431641ZM17.5385 14.2654H12C11.7552 14.2654 11.5204 14.1682 11.3473 13.9953C11.1742 13.8223 11.0769 13.5878 11.0769 13.3432V5.0429C11.0769 4.7983 11.1742 4.56372 11.3473 4.39077C11.5204 4.21781 11.7552 4.12065 12 4.12065C12.2448 4.12065 12.4796 4.21781 12.6527 4.39077C12.8258 4.56372 12.9231 4.7983 12.9231 5.0429V12.4209H17.5385C17.7833 12.4209 18.0181 12.5181 18.1912 12.691C18.3643 12.864 18.4615 13.0986 18.4615 13.3432C18.4615 13.5878 18.3643 13.8223 18.1912 13.9953C18.0181 14.1682 17.7833 14.2654 17.5385 14.2654Z" fill="#3B634C"/>
</svg>
