<svg width="23" height="23" viewBox="0 0 23 23" fill="none" xmlns="http://www.w3.org/2000/svg">
<path opacity="0.5" d="M6.59766 4.03353V2.61914" stroke="#3F3F3F" stroke-width="1.13151" stroke-linecap="round"/>
<path opacity="0.5" d="M16.0312 4.03353V2.61914" stroke="#3F3F3F" stroke-width="1.13151" stroke-linecap="round"/>
<path d="M1.88672 11.5766C1.88672 8.02062 1.88672 6.24262 2.99142 5.13791C4.09614 4.0332 5.87414 4.0332 9.43014 4.0332H13.2019C16.7578 4.0332 18.5359 4.0332 19.6405 5.13791C20.7453 6.24262 20.7453 8.02062 20.7453 11.5766V13.4625C20.7453 17.0185 20.7453 18.7965 19.6405 19.9012C18.5359 21.0059 16.7578 21.0059 13.2019 21.0059H9.43014C5.87414 21.0059 4.09614 21.0059 2.99142 19.9012C1.88672 18.7965 1.88672 17.0185 1.88672 13.4625V11.5766Z" stroke="#3F3F3F" stroke-width="1.13151"/>
<path opacity="0.5" d="M2.35938 8.74805H20.275" stroke="#3F3F3F" stroke-width="1.13151" stroke-linecap="round"/>
<path d="M16.9757 16.2906C16.9757 16.8114 16.5536 17.2335 16.0328 17.2335C15.512 17.2335 15.0898 16.8114 15.0898 16.2906C15.0898 15.7698 15.512 15.3477 16.0328 15.3477C16.5536 15.3477 16.9757 15.7698 16.9757 16.2906Z" fill="#3F3F3F"/>
<path d="M16.9757 12.5191C16.9757 13.0399 16.5536 13.462 16.0328 13.462C15.512 13.462 15.0898 13.0399 15.0898 12.5191C15.0898 11.9983 15.512 11.5762 16.0328 11.5762C16.5536 11.5762 16.9757 11.9983 16.9757 12.5191Z" fill="#3F3F3F"/>
<path d="M12.2609 16.2906C12.2609 16.8114 11.8387 17.2335 11.3179 17.2335C10.7971 17.2335 10.375 16.8114 10.375 16.2906C10.375 15.7698 10.7971 15.3477 11.3179 15.3477C11.8387 15.3477 12.2609 15.7698 12.2609 16.2906Z" fill="#3F3F3F"/>
<path d="M12.2609 12.5191C12.2609 13.0399 11.8387 13.462 11.3179 13.462C10.7971 13.462 10.375 13.0399 10.375 12.5191C10.375 11.9983 10.7971 11.5762 11.3179 11.5762C11.8387 11.5762 12.2609 11.9983 12.2609 12.5191Z" fill="#3F3F3F"/>
<path d="M7.54211 16.2906C7.54211 16.8114 7.11994 17.2335 6.59918 17.2335C6.07842 17.2335 5.65625 16.8114 5.65625 16.2906C5.65625 15.7698 6.07842 15.3477 6.59918 15.3477C7.11994 15.3477 7.54211 15.7698 7.54211 16.2906Z" fill="#3F3F3F"/>
<path d="M7.54211 12.5191C7.54211 13.0399 7.11994 13.462 6.59918 13.462C6.07842 13.462 5.65625 13.0399 5.65625 12.5191C5.65625 11.9983 6.07842 11.5762 6.59918 11.5762C7.11994 11.5762 7.54211 11.9983 7.54211 12.5191Z" fill="#3F3F3F"/>
</svg>
