<svg width="21" height="15" viewBox="0 0 21 15" fill="none" xmlns="http://www.w3.org/2000/svg">
<path d="M11.1952 2.95305C11.1952 2.57025 10.8844 2.25977 10.5019 2.25977C10.1191 2.25977 9.80859 2.57025 9.80859 2.95305C9.80859 3.33556 10.1191 3.64634 10.5019 3.64634C10.8844 3.64634 11.1952 3.33556 11.1952 2.95305Z" fill="black"/>
<path d="M3.01746 9.74414C2.63467 9.74414 2.32422 10.0546 2.32422 10.4374C2.32422 10.8199 2.63467 11.1304 3.01746 11.1304C3.39998 11.1304 3.71075 10.8199 3.71075 10.4374C3.71075 10.0546 3.39998 9.74414 3.01746 9.74414Z" fill="black"/>
<path d="M4.71834 4.65435C4.44805 4.92522 4.44805 5.36384 4.71834 5.63475C4.98921 5.90533 5.42816 5.90533 5.69907 5.63475C5.96961 5.36384 5.96961 4.92526 5.69907 4.65435C5.42816 4.38344 4.98925 4.38344 4.71834 4.65435Z" fill="black"/>
<path d="M15.3006 4.65435C15.03 4.92522 15.03 5.36384 15.3006 5.63475C15.5715 5.90533 16.0104 5.90533 16.281 5.63475C16.5515 5.36384 16.5515 4.92526 16.281 4.65435C16.0101 4.38344 15.5715 4.38344 15.3006 4.65435Z" fill="black"/>
<path d="M17.9823 9.74414C17.5995 9.74414 17.2891 10.0546 17.2891 10.4374C17.2891 10.8199 17.5996 11.1304 17.9823 11.1304C18.3648 11.1304 18.6753 10.8199 18.6753 10.4374C18.6753 10.0546 18.3648 9.74414 17.9823 9.74414Z" fill="black"/>
<path d="M12.9651 4.578C12.895 4.55183 12.8161 4.58046 12.779 4.64563L10.0451 9.47186C9.31036 9.6723 8.76953 10.3425 8.76953 11.1405C8.76953 12.0966 9.54514 12.8719 10.5012 12.8719C11.4573 12.8719 12.2326 12.0966 12.2326 11.1405C12.2326 10.7861 12.1259 10.4569 11.9433 10.1826L13.0605 4.751C13.0758 4.67807 13.035 4.60449 12.9651 4.578ZM10.5012 11.8154C10.1283 11.8154 9.82597 11.5134 9.82597 11.1405C9.82597 10.7677 10.1283 10.4657 10.5012 10.4657C10.874 10.4657 11.1764 10.7677 11.1764 11.1405C11.1764 11.5134 10.874 11.8154 10.5012 11.8154Z" fill="black"/>
<path d="M17.9245 3.07552C16.0264 1.17616 13.3975 -0.000328056 10.5 6.86179e-08C7.60216 -0.000328056 4.97364 1.17616 3.07552 3.07552C1.17616 4.97364 -0.000286824 7.60245 2.85814e-07 10.5C-0.000286824 11.7388 0.215742 12.929 0.610682 14.0337H1.83611C1.39096 12.944 1.14438 11.7522 1.14438 10.5C1.14471 7.91515 2.19052 5.57936 3.8848 3.88479C5.57931 2.19085 7.91454 1.14499 10.5 1.14438C13.0855 1.14503 15.4204 2.19089 17.1152 3.88479C18.8092 5.57936 19.8553 7.91515 19.8556 10.5C19.8556 11.7522 19.6087 12.944 19.1636 14.0337H20.3893C20.784 12.929 21 11.7388 21 10.5C21.0003 7.60245 19.8239 4.97364 17.9245 3.07552Z" fill="black"/>
</svg>
