<svg width="81" height="81" viewBox="0 0 81 81" fill="none" xmlns="http://www.w3.org/2000/svg">
<g clip-path="url(#clip0_5962_19595)">
<path fill-rule="evenodd" clip-rule="evenodd" d="M0 40.5C0 29.7587 4.26695 19.4574 11.8622 11.8622C19.4574 4.26695 29.7587 0 40.5 0C51.2413 0 61.5426 4.26695 69.1378 11.8622C76.733 19.4574 81 29.7587 81 40.5C81 51.2413 76.733 61.5426 69.1378 69.1378C61.5426 76.733 51.2413 81 40.5 81C29.7587 81 19.4574 76.733 11.8622 69.1378C4.26695 61.5426 0 51.2413 0 40.5ZM38.1888 57.834L61.506 28.6848L57.294 25.3152L37.4112 50.1606L23.328 38.4264L19.872 42.5736L38.1888 57.834Z" fill="white"/>
</g>
<defs>
<clipPath id="clip0_5962_19595">
<rect width="81" height="81" fill="white"/>
</clipPath>
</defs>
</svg>
