<svg width="15" height="18" viewBox="0 0 15 18" fill="none" xmlns="http://www.w3.org/2000/svg">
<path d="M11.2998 2.80065L11.3077 2.79667H11.3117L7.36952 0.533203L3.42934 2.79667H3.42536L3.43928 2.80264L0.199219 4.6703V12.9445L7.36952 17.0816L14.5398 12.9445V4.6703L11.2998 2.80065ZM6.78675 15.4029L3.94051 13.76V10.9834L1.36278 9.51945V6.04071L6.78675 9.16939V15.4029ZM1.92367 5.01837L4.60284 3.47094L7.36554 5.05616L10.1322 3.46696L12.8213 5.01837L7.3735 8.16097L1.92367 5.01837V5.01837ZM13.3763 9.5294L10.8145 10.9834V13.75L7.9523 15.4009V9.17337L13.3763 6.04469V9.5294Z" fill="#3B634C"/>
</svg>
