<svg xmlns="http://www.w3.org/2000/svg" width="71" height="76" viewBox="0 0 71 76" fill="none"><path d="M35.5 73.4167C54.4583 73.4167 68 66.7108 68 51.7825C68 35.5596 59.875 24.7425 43.625 16.6283L50.0167 8.40583C50.3422 7.86648 50.5189 7.25048 50.5289 6.62058C50.5389 5.99069 50.3818 5.3694 50.0735 4.82C49.7652 4.27061 49.3168 3.81274 48.774 3.49303C48.2312 3.17332 47.6133 3.0032 46.9833 3H24.0167C23.388 3.00654 22.7722 3.17873 22.2314 3.49921C21.6905 3.81969 21.2438 4.27713 20.9361 4.82539C20.6285 5.37364 20.4709 5.99333 20.4791 6.62195C20.4874 7.25056 20.6613 7.86588 20.9833 8.40583L27.375 16.6825C11.125 24.8508 3 35.6679 3 51.8908C3 66.7108 16.5417 73.4167 35.5 73.4167Z" stroke="black" stroke-width="5" stroke-linecap="round" stroke-linejoin="round"></path><path d="M42.9952 37.1575C42.5935 36.0106 41.8446 35.0173 40.8526 34.3155C39.8605 33.6137 38.6745 33.2382 37.4593 33.2413H32.9202C31.6268 33.2387 30.3782 33.7147 29.4149 34.5777C28.4515 35.4407 27.8415 36.6295 27.7023 37.9154C27.5631 39.2012 27.9045 40.4931 28.6609 41.5422C29.4172 42.5914 30.535 43.3236 31.7989 43.5979L38.716 45.1146C40.1255 45.4289 41.3697 46.2517 42.2108 47.4255C43.0519 48.5994 43.4309 50.042 43.2754 51.4777C43.1199 52.9134 42.4408 54.2415 41.3679 55.208C40.2949 56.1746 38.9034 56.7118 37.4593 56.7171H33.5539C30.9973 56.7171 28.8252 55.0812 28.0181 52.8062M35.5039 33.2413V27.375M35.5039 62.5833V56.7171" stroke="black" stroke-width="5" stroke-linecap="round" stroke-linejoin="round"></path></svg>