<svg xmlns="http://www.w3.org/2000/svg" width="86" height="86" viewBox="0 0 86 86" fill="none"><path d="M72.7679 14.2614L44.246 4.5415C43.9019 4.42399 43.4402 4.36523 42.9786 4.36523C42.5169 4.36523 42.0553 4.42399 41.7111 4.5415L13.1893 14.2614C12.4926 14.4964 11.9219 15.3022 11.9219 16.0409V56.5321C11.9219 57.2708 12.4003 58.2444 12.9795 58.7061L41.9126 81.2516C42.2064 81.4782 42.5841 81.5957 42.9702 81.5957C43.3563 81.5957 43.7424 81.4782 44.0278 81.2516L72.9609 58.7061C73.5401 58.2528 74.0185 57.2792 74.0185 56.5321V16.0409C74.0353 15.3022 73.4645 14.5048 72.7679 14.2614ZM67.9918 54.9205L42.9786 74.4107L17.9653 54.9205V19.029L42.9786 10.501L67.9918 19.029V54.9205ZM33.8211 44.3864L27.3159 50.8916C27.191 51.0178 27.1209 51.1882 27.1209 51.3658C27.1209 51.5434 27.191 51.7138 27.3159 51.84L30.1698 54.6939C30.43 54.9541 30.8581 54.9541 31.1183 54.6939L37.6234 48.1888C42.2987 51.135 48.5436 50.5726 52.6146 46.5016C57.3402 41.776 57.3402 34.1209 52.6146 29.3953C47.8889 24.6696 40.2338 24.6696 35.5082 29.3953C31.4372 33.4662 30.8749 39.7195 33.8211 44.3864ZM39.3105 33.1976C41.9378 30.5704 46.1934 30.5704 48.8122 33.1976C51.4394 35.8248 51.4394 40.0805 48.8122 42.6993C46.185 45.3265 41.9294 45.3265 39.3105 42.6993C36.6917 40.0721 36.6833 35.8248 39.3105 33.1976Z" fill="black"></path></svg>