<svg xmlns="http://www.w3.org/2000/svg" width="65" height="65" viewBox="0 0 65 65" fill="none"><path d="M32.5 60.9375L19.955 54.2486C16.3784 52.3463 13.3874 49.5058 11.3032 46.032C9.21897 42.5582 8.12027 38.5823 8.12502 34.5312V8.125C8.12502 7.04756 8.55303 6.01425 9.31489 5.25238C10.0768 4.49051 11.1101 4.0625 12.1875 4.0625H52.8125C53.89 4.0625 54.9233 4.49051 55.6851 5.25238C56.447 6.01425 56.875 7.04756 56.875 8.125V34.5312C56.8798 38.5823 55.7811 42.5582 53.6969 46.032C51.6126 49.5058 48.6217 52.3463 45.045 54.2486L32.5 60.9375ZM12.1875 8.125V34.5312C12.1853 37.8456 13.0851 41.0981 14.7905 43.94C16.496 46.782 18.9427 49.1062 21.8685 50.6634L32.5 56.3327L43.1316 50.6655C46.0576 49.108 48.5046 46.7835 50.21 43.9412C51.9155 41.0989 52.8151 37.846 52.8125 34.5312V8.125H12.1875Z" fill="black"></path><path d="M32.5 51.3439V12.1875H48.75V34.1352C48.7499 36.7098 48.0507 39.2361 46.727 41.4445C45.4034 43.6528 43.505 45.4603 41.2344 46.6741L32.5 51.3439Z" fill="black"></path></svg>