<svg xmlns="http://www.w3.org/2000/svg" width="63" height="47" viewBox="0 0 63 47" fill="none"><path d="M27.5625 33.1693C27.5625 34.2912 27.2395 35.2449 26.5935 36.0303C25.9475 36.8156 25.1733 37.2083 24.271 37.2083H11.1665C10.2642 37.2083 9.48999 36.8156 8.84399 36.0303C8.198 35.2449 7.875 34.2912 7.875 33.1693C7.875 32.0677 7.9519 31.0426 8.10571 30.0941C8.25952 29.1455 8.51074 28.2275 8.85938 27.3402C9.20801 26.4528 9.73096 25.7541 10.4282 25.2441C11.1255 24.7342 11.9561 24.4792 12.9199 24.4792C14.2324 25.7847 15.832 26.4375 17.7188 26.4375C19.6055 26.4375 21.2051 25.7847 22.5176 24.4792C23.4814 24.4792 24.312 24.7342 25.0093 25.2441C25.7065 25.7541 26.2295 26.4528 26.5781 27.3402C26.9268 28.2275 27.178 29.1455 27.3318 30.0941C27.4856 31.0426 27.5625 32.0677 27.5625 33.1693ZM23.625 19.5833C23.625 21.2153 23.0508 22.6024 21.9023 23.7448C20.7539 24.8872 19.3594 25.4583 17.7188 25.4583C16.0781 25.4583 14.6836 24.8872 13.5352 23.7448C12.3867 22.6024 11.8125 21.2153 11.8125 19.5833C11.8125 17.9514 12.3867 16.5642 13.5352 15.4219C14.6836 14.2795 16.0781 13.7083 17.7188 13.7083C19.3594 13.7083 20.7539 14.2795 21.9023 15.4219C23.0508 16.5642 23.625 17.9514 23.625 19.5833ZM55.125 32.3125V34.2708C55.125 34.5564 55.0327 34.791 54.8481 34.9746C54.6636 35.1582 54.4277 35.25 54.1406 35.25H32.4844C32.1973 35.25 31.9614 35.1582 31.7769 34.9746C31.5923 34.791 31.5 34.5564 31.5 34.2708V32.3125C31.5 32.0269 31.5923 31.7923 31.7769 31.6087C31.9614 31.4251 32.1973 31.3333 32.4844 31.3333H54.1406C54.4277 31.3333 54.6636 31.4251 54.8481 31.6087C55.0327 31.7923 55.125 32.0269 55.125 32.3125ZM43.3125 24.4792V26.4375C43.3125 26.7231 43.2202 26.9577 43.0356 27.1413C42.8511 27.3249 42.6152 27.4167 42.3281 27.4167H32.4844C32.1973 27.4167 31.9614 27.3249 31.7769 27.1413C31.5923 26.9577 31.5 26.7231 31.5 26.4375V24.4792C31.5 24.1936 31.5923 23.959 31.7769 23.7754C31.9614 23.5918 32.1973 23.5 32.4844 23.5H42.3281C42.6152 23.5 42.8511 23.5918 43.0356 23.7754C43.2202 23.959 43.3125 24.1936 43.3125 24.4792ZM55.125 24.4792V26.4375C55.125 26.7231 55.0327 26.9577 54.8481 27.1413C54.6636 27.3249 54.4277 27.4167 54.1406 27.4167H48.2344C47.9473 27.4167 47.7114 27.3249 47.5269 27.1413C47.3423 26.9577 47.25 26.7231 47.25 26.4375V24.4792C47.25 24.1936 47.3423 23.959 47.5269 23.7754C47.7114 23.5918 47.9473 23.5 48.2344 23.5H54.1406C54.4277 23.5 54.6636 23.5918 54.8481 23.7754C55.0327 23.959 55.125 24.1936 55.125 24.4792ZM55.125 16.6458V18.6042C55.125 18.8898 55.0327 19.1243 54.8481 19.3079C54.6636 19.4915 54.4277 19.5833 54.1406 19.5833H32.4844C32.1973 19.5833 31.9614 19.4915 31.7769 19.3079C31.5923 19.1243 31.5 18.8898 31.5 18.6042V16.6458C31.5 16.3602 31.5923 16.1257 31.7769 15.9421C31.9614 15.7585 32.1973 15.6667 32.4844 15.6667H54.1406C54.4277 15.6667 54.6636 15.7585 54.8481 15.9421C55.0327 16.1257 55.125 16.3602 55.125 16.6458ZM59.0625 42.1042V7.83333H3.9375V42.1042C3.9375 42.3694 4.03491 42.5989 4.22974 42.7926C4.42456 42.9864 4.65527 43.0833 4.92188 43.0833H58.0781C58.3447 43.0833 58.5754 42.9864 58.7703 42.7926C58.9651 42.5989 59.0625 42.3694 59.0625 42.1042ZM63 4.89583V42.1042C63 43.4505 62.5181 44.6031 61.5542 45.5619C60.5903 46.5206 59.4316 47 58.0781 47H4.92188C3.56836 47 2.40967 46.5206 1.4458 45.5619C0.481934 44.6031 0 43.4505 0 42.1042V4.89583C0 3.54948 0.481934 2.39692 1.4458 1.43815C2.40967 0.479384 3.56836 0 4.92188 0H58.0781C59.4316 0 60.5903 0.479384 61.5542 1.43815C62.5181 2.39692 63 3.54948 63 4.89583Z" fill="#BF9B3E"></path></svg>