<svg xmlns="http://www.w3.org/2000/svg" width="24" height="24" viewBox="0 0 24 24" fill="none"><path d="M9.37783 21.8689H15.0789C19.8298 21.8689 21.7302 19.9685 21.7302 15.2176V9.51651C21.7302 4.7656 19.8298 2.86523 15.0789 2.86523H9.37783C4.62693 2.86523 2.72656 4.7656 2.72656 9.51651V15.2176C2.72656 19.9685 4.62693 21.8689 9.37783 21.8689Z" stroke="#BC9F4C" stroke-width="1.42527" stroke-linecap="round" stroke-linejoin="round"></path><path d="M15.5488 18.5418C16.594 18.5418 17.4492 17.6867 17.4492 16.6415V8.08982C17.4492 7.04462 16.594 6.18945 15.5488 6.18945C14.5036 6.18945 13.6484 7.04462 13.6484 8.08982V16.6415C13.6484 17.6867 14.4941 18.5418 15.5488 18.5418Z" stroke="#BC9F4C" stroke-width="1.42527" stroke-linecap="round" stroke-linejoin="round"></path><path d="M8.90036 18.5443C9.94556 18.5443 10.8007 17.6892 10.8007 16.644V13.3183C10.8007 12.2731 9.94556 11.418 8.90036 11.418C7.85516 11.418 7 12.2731 7 13.3183V16.644C7 17.6892 7.84566 18.5443 8.90036 18.5443Z" stroke="#BC9F4C" stroke-width="1.42527" stroke-linecap="round" stroke-linejoin="round"></path></svg>