<svg xmlns="http://www.w3.org/2000/svg" width="22" height="22" viewBox="0 0 22 22" fill="none"><path d="M14.1584 1.13296C14.7985 0.985976 15.4614 1.26057 15.8101 1.8171L17.3425 4.26324C17.4662 4.4607 17.6331 4.62754 17.8305 4.75125L20.2767 6.28373C20.8332 6.63239 21.1077 7.29532 20.9608 7.93539L20.3148 10.7487C20.2627 10.9758 20.2627 11.2117 20.3148 11.4388L20.9608 14.2521C21.1077 14.8923 20.8332 15.5551 20.2767 15.9039L17.8305 17.4363C17.6331 17.5601 17.4662 17.7269 17.3425 17.9242L15.8101 20.3705C15.4614 20.9269 14.7985 21.2015 14.1584 21.0546L11.345 20.4085C11.1179 20.3564 10.882 20.3564 10.6549 20.4085L7.84162 21.0546C7.20156 21.2015 6.53863 20.9269 6.18998 20.3705L4.65749 17.9242C4.53379 17.7269 4.36693 17.5601 4.16948 17.4363L1.72334 15.9039C1.16681 15.5551 0.892218 14.8923 1.03921 14.2521L1.68526 11.4388C1.7374 11.2118 1.7374 10.9758 1.68526 10.7487L1.03921 7.93539C0.892218 7.29532 1.16681 6.63239 1.72334 6.28373L4.16948 4.75125C4.36693 4.62754 4.53379 4.4607 4.65749 4.26324L6.18998 1.8171C6.53863 1.26057 7.20156 0.985976 7.84162 1.13296L10.6549 1.779C10.882 1.83116 11.1179 1.83116 11.345 1.779L14.1584 1.13296Z" stroke="black"></path><path d="M7.16797 11.9192L10.305 14.9233L14.8295 7.26172" stroke="black" stroke-linecap="round" stroke-linejoin="round"></path></svg>