<svg xmlns="http://www.w3.org/2000/svg" width="1728" height="1324" viewBox="0 0 1728 1324" fill="none"><path d="M-304.769 -58.3555C-283.708 157.438 -193.814 405.194 60.0125 602.381C602.836 1024.07 1334.72 1104.7 2041.3 602.381C2041.3 602.381 1386.76 1554.02 177.465 1096.9C-751.36 745.804 -954.4 183.574 -998.628 -58.3555H-304.76H-304.769Z" fill="#BC9F4C"></path><g style="mix-blend-mode:multiply" opacity="0.3"><path d="M-1256.44 1324L-1189.15 -58.3535H-721.127C-694.506 40.8389 -656.372 146.023 -603.859 257.018C-347.375 799.143 727.154 1299.29 1938.71 610.637L1954.59 1324H-1256.44Z" fill="#595959"></path></g><path d="M-1246.65 1318.32L-1179.36 -64.0312H-715.203C-688.468 38.78 -649.37 148.104 -594.673 263.735C-338.18 805.852 736.348 1306 1947.91 617.346L1963.51 1318.32H-1246.65V1318.32Z" fill="#3B634C"></path><path d="M-686.027 -70C-603.271 207.441 -408.744 601.971 44.7734 802.973C44.7734 802.973 -596.37 601.23 -966.448 -70H-686.027Z" fill="url(#paint0_linear_2667_7497)"></path><path d="M-1163.63 16.0879C-1163.63 16.0879 -1036.46 657.223 126.172 898.16C126.172 898.16 -813.929 857.319 -1259 481.624L-1163.63 16.0879Z" fill="white"></path><path d="M1947.63 410.855C1947.46 411.146 1946.56 412.171 1945.91 412.936L1943.65 415.514L1938.85 420.852C1935.62 424.439 1932.11 428.082 1928.72 431.701C1921.75 438.946 1914.6 446.184 1907.28 453.367C1892.68 467.756 1877.38 481.845 1861.78 495.729C1830.51 523.466 1797.74 550.241 1763.77 575.936C1695.75 627.271 1623.2 674.569 1547.15 717.451C1509.07 738.794 1470.31 759.443 1430.53 778.5C1410.81 788.371 1390.56 797.28 1370.48 806.623C1360.38 811.172 1350.15 815.469 1339.98 819.916C1329.78 824.307 1319.63 828.833 1309.27 832.909C1226.94 866.788 1141.99 896.307 1055 921.142C1144.68 906.012 1233.66 885.9 1321.32 860.898C1332.34 857.926 1343.18 854.504 1354.09 851.201C1364.97 847.85 1375.93 844.633 1386.77 841.156C1408.35 833.958 1430.18 827.154 1451.55 819.348C1494.65 804.423 1537.04 787.74 1579.07 770.158C1663.04 734.781 1744.73 694.216 1823.32 648.314C1862.58 625.316 1901 600.914 1938.5 574.943C1957.23 561.918 1975.75 548.578 1993.96 534.551C2003.07 527.558 2012.12 520.399 2021.13 513.059C2025.64 509.306 2030.12 505.656 2034.64 501.745L2041.46 495.832L2044.95 492.725L2048.9 489.067L2057.32 481.261C2083.53 456.962 2082.86 418.163 2055.84 394.605C2028.81 371.039 1985.66 371.638 1959.46 395.938C1954.66 400.392 1950.63 405.596 1947.63 410.839L1947.63 410.855Z" fill="white"></path><defs><linearGradient id="paint0_linear_2667_7497" x1="-460.837" y1="892.712" x2="-460.837" y2="11.7759" gradientUnits="userSpaceOnUse"><stop stop-color="#FD7E21"></stop><stop offset="0.01" stop-color="#FD8127"></stop><stop offset="0.11" stop-color="#FD9E59"></stop><stop offset="0.22" stop-color="#FDB885"></stop><stop offset="0.33" stop-color="#FECEAB"></stop><stop offset="0.44" stop-color="#FEE0C9"></stop><stop offset="0.56" stop-color="#FEEDE1"></stop><stop offset="0.69" stop-color="#FEF7F1"></stop><stop offset="0.82" stop-color="#FEFDFB"></stop><stop offset="1" stop-color="white"></stop></linearGradient></defs></svg>