<svg xmlns="http://www.w3.org/2000/svg" width="110" height="104" viewBox="0 0 110 104" fill="none"><path d="M74.3281 68.5961C74.3281 63.2634 59.1805 58.9442 40.4948 58.9442M74.3281 68.5961C74.3281 73.9287 59.1805 78.2479 40.4948 78.2479C21.8091 78.2479 6.66146 73.9287 6.66146 68.5961M74.3281 68.5961V92.4216C74.3281 97.9183 59.1805 102.377 40.4948 102.377C21.8091 102.377 6.66146 97.9232 6.66146 92.4216V68.5961M74.3281 68.5961C92.8108 68.5961 108.161 63.8329 108.161 58.9442V10.685M40.4948 58.9442C21.8091 58.9442 6.66146 63.2634 6.66146 68.5961M40.4948 58.9442C19.1411 58.9442 1.82812 54.181 1.82812 49.2924V25.1628M40.4948 15.511C19.1411 15.511 1.82812 19.8302 1.82812 25.1628M1.82812 25.1628C1.82812 30.4954 19.1411 34.8146 40.4948 34.8146C40.4948 39.7033 56.2176 44.4665 74.7003 44.4665C93.183 44.4665 108.161 39.7033 108.161 34.8146M108.161 10.685C108.161 5.3524 93.1781 1.0332 74.7003 1.0332C56.2225 1.0332 41.2391 5.3524 41.2391 10.685M108.161 10.685C108.161 16.0177 93.1781 20.3369 74.7003 20.3369C56.2225 20.3369 41.2391 16.0177 41.2391 10.685M41.2391 10.685V59.7453" stroke="white" stroke-width="2"></path></svg>