<svg xmlns="http://www.w3.org/2000/svg" width="20" height="19" viewBox="0 0 20 19" fill="none"><path d="M0.408163 3.13273C0.179592 3.13273 0 2.95314 0 2.72457C0 2.496 0.179592 2.31641 0.408163 2.31641L19.5918 2.34906C19.8204 2.34906 20 2.52865 20 2.75722C20 2.98579 19.8204 3.16539 19.5918 3.16539L0.408163 3.13273ZM3.55918 3.96539C3.55918 3.73681 3.73878 3.55722 3.96735 3.55722C4.19592 3.55722 4.37551 3.73681 4.37551 3.96539V18.0225L16.3265 17.8919V4.11232C16.3265 3.88375 16.5061 3.70416 16.7347 3.70416C16.9633 3.70416 17.1429 3.88375 17.1429 4.11232V18.7409L3.54286 18.8878V3.96539H3.55918Z" fill="black"></path><path d="M13.6814 15.8978C13.4528 15.8978 13.2732 15.7182 13.2732 15.4897V5.79171C13.2732 5.56314 13.4528 5.38355 13.6814 5.38355C13.9099 5.38355 14.0895 5.56314 14.0895 5.79171V15.4897C14.1059 15.7182 13.9099 15.8978 13.6814 15.8978ZM7.24871 15.8978C7.02014 15.8978 6.84055 15.7182 6.84055 15.4897V5.79171C6.84055 5.56314 7.02014 5.38355 7.24871 5.38355C7.47728 5.38355 7.65687 5.56314 7.65687 5.79171V15.4897C7.6732 15.7182 7.47728 15.8978 7.24871 15.8978ZM10.465 15.8978C10.2365 15.8978 10.0569 15.7182 10.0569 15.4897V5.79171C10.0569 5.56314 10.2365 5.38355 10.465 5.38355C10.6936 5.38355 10.8732 5.56314 10.8732 5.79171V15.4897C10.8895 15.7182 10.6936 15.8978 10.465 15.8978ZM13.1263 2.55906V1.56314C13.1263 1.20395 12.8324 0.910076 12.4732 0.910076H8.29361C7.9181 0.910076 7.64055 1.20395 7.64055 1.57946V2.44477H6.82422V1.57946C6.82422 0.763138 7.49361 0.09375 8.30993 0.09375H12.4895C13.3059 0.09375 13.9752 0.763138 13.9752 1.57946V2.57538H13.1263V2.55906Z" fill="black"></path></svg>