<svg xmlns="http://www.w3.org/2000/svg" width="22" height="14" viewBox="0 0 22 14" fill="none"><path d="M11.352 4.49375C11.2567 4.49668 11.165 4.53628 11.0975 4.60522L9.163 6.53388L7.97133 5.34588C7.63767 4.99828 7.09867 5.53508 7.447 5.86802L8.9012 7.31855C9.04567 7.46302 9.28033 7.46302 9.42553 7.31855L11.6219 5.12808C11.8639 4.89342 11.6857 4.49375 11.3527 4.49375H11.352ZM0.366667 7.42708H2.56667C2.7698 7.42708 2.93333 7.59062 2.93333 7.79375C2.93333 7.99688 2.7698 8.16042 2.56667 8.16042H0.366667C0.163533 8.16042 0 7.99688 0 7.79375C0 7.59062 0.163533 7.42708 0.366667 7.42708ZM0.366667 4.49375H2.56667C2.7698 4.49375 2.93333 4.65728 2.93333 4.86042C2.93333 5.06355 2.7698 5.22708 2.56667 5.22708H0.366667C0.163533 5.22708 0 5.06355 0 4.86042C0 4.65728 0.163533 4.49375 0.366667 4.49375ZM0.366667 1.56042H2.56667C2.7698 1.56042 2.93333 1.72395 2.93333 1.92708C2.93333 2.13022 2.7698 2.29375 2.56667 2.29375H0.366667C0.163533 2.29375 0 2.13022 0 1.92708C0 1.72395 0.163533 1.56042 0.366667 1.56042ZM17.9667 9.62708C16.9583 9.62708 16.1333 10.4521 16.1333 11.4604C16.1333 12.4688 16.9583 13.2938 17.9667 13.2938C18.975 13.2938 19.8 12.4688 19.8 11.4604C19.8 10.4521 18.975 9.62708 17.9667 9.62708ZM17.9667 10.3604C18.5783 10.3604 19.0667 10.8488 19.0667 11.4604C19.0667 12.072 18.5783 12.5604 17.9667 12.5604C17.3551 12.5604 16.8667 12.072 16.8667 11.4604C16.8667 10.8488 17.3551 10.3604 17.9667 10.3604ZM8.43333 9.62708C7.425 9.62708 6.6 10.4521 6.6 11.4604C6.6 12.4688 7.425 13.2938 8.43333 13.2938C9.44167 13.2938 10.2667 12.4688 10.2667 11.4604C10.2667 10.4521 9.44167 9.62708 8.43333 9.62708ZM8.43333 10.3604C9.04493 10.3604 9.53333 10.8488 9.53333 11.4604C9.53333 12.072 9.04493 12.5604 8.43333 12.5604C7.82173 12.5604 7.33333 12.072 7.33333 11.4604C7.33333 10.8488 7.82173 10.3604 8.43333 10.3604ZM4.76667 0.09375C4.16387 0.09375 3.66667 0.59095 3.66667 1.19375V9.26042C3.66667 9.86322 4.16387 10.3604 4.76667 10.3604H6.23333C6.72907 10.3678 6.72907 9.61975 6.23333 9.62708H4.76667C4.55693 9.62708 4.4 9.47015 4.4 9.26042V1.19375C4.4 0.984017 4.55693 0.827083 4.76667 0.827083H14.3C14.5097 0.827083 14.6667 0.984017 14.6667 1.19375V9.62708H10.6333C10.1493 9.62708 10.1581 10.3678 10.6333 10.3604H15.7667C16.2507 10.3604 16.2463 9.62708 15.7667 9.62708H15.4V3.02708H18.4998L21.2667 7.35082V9.26042C21.2667 9.47015 21.1097 9.62708 20.9 9.62708H20.1667C19.6871 9.62708 19.6871 10.3604 20.1667 10.3604H20.9C21.5028 10.3604 22 9.86322 22 9.26042V7.24375C22 7.17408 21.9802 7.10442 21.9428 7.04575L19.0095 2.46242C18.942 2.35755 18.8261 2.29375 18.7 2.29375H15.4V1.19375C15.4 0.59095 14.9028 0.09375 14.3 0.09375H4.76667Z" fill="black"></path></svg>