<svg xmlns="http://www.w3.org/2000/svg" width="1572" height="886" viewBox="0 0 1572 886" fill="none"><path d="M29.0003 444.383C29.0003 444.383 102.145 367.138 276.08 470.384C279.462 472.419 282.505 475.04 286.1 476.727C320.05 493.059 375.641 529.922 489.325 476.58C495.019 473.897 500.41 470.704 505.936 467.737C547.843 445.082 588.082 429.517 727.57 479.717C731.927 481.275 736.205 483.085 740.423 484.922C761.956 494.34 852.852 526.546 952.45 451.454C955.888 448.891 972.984 435.401 976.147 432.567C982.286 427.163 981.42 428.275 1002.01 415.655C1062.77 378.355 1109.02 381.996 1165.91 394.943C1200.28 402.731 1250.2 417.356 1309.5 444.404C1326.69 452.222 1344.45 458.699 1362.78 463.23C1418.89 477.177 1530.21 496.296 1569.39 441.392" stroke="#BC9F4C" stroke-width="5.22051" stroke-miterlimit="10" stroke-linecap="round" stroke-linejoin="round"></path><path d="M54.853 448.713C54.853 463.127 43.1597 474.815 28.7316 474.815C14.3036 474.815 2.61026 463.127 2.61026 448.713C2.61026 434.298 14.3036 422.61 28.7316 422.61C43.1597 422.61 54.853 434.298 54.853 448.713Z" fill="#328454" stroke="#124326" stroke-width="5.22051"></path><ellipse cx="28.7304" cy="448.711" rx="11.7538" ry="11.7462" fill="#124326"></ellipse><path d="M483.853 488.713C483.853 503.127 472.16 514.815 457.732 514.815C443.304 514.815 431.61 503.127 431.61 488.713C431.61 474.298 443.304 462.61 457.732 462.61C472.16 462.61 483.853 474.298 483.853 488.713Z" fill="#328454" stroke="#124326" stroke-width="5.22051"></path><ellipse cx="457.73" cy="488.711" rx="11.7538" ry="11.7462" fill="#124326"></ellipse><path d="M917.853 488.713C917.853 503.127 906.16 514.815 891.732 514.815C877.304 514.815 865.61 503.127 865.61 488.713C865.61 474.298 877.304 462.61 891.732 462.61C906.16 462.61 917.853 474.298 917.853 488.713Z" fill="#328454" stroke="#124326" stroke-width="5.22051"></path><ellipse cx="891.73" cy="488.711" rx="11.7538" ry="11.7462" fill="#124326"></ellipse><path d="M1338.85 442.713C1338.85 457.127 1327.16 468.815 1312.73 468.815C1298.3 468.815 1286.61 457.127 1286.61 442.713C1286.61 428.298 1298.3 416.61 1312.73 416.61C1327.16 416.61 1338.85 428.298 1338.85 442.713Z" fill="#328454" stroke="#124326" stroke-width="5.22051"></path><ellipse cx="1312.73" cy="442.711" rx="11.7538" ry="11.7462" fill="#124326"></ellipse></svg>