<svg xmlns="http://www.w3.org/2000/svg" width="63" height="63" viewBox="0 0 63 63" fill="none"><rect width="63" height="63" fill="#FCFCFC"></rect><path d="M10.7929 52.9248C11.74 52.9248 12.5077 52.4012 12.5077 51.7554C12.5077 51.1095 11.74 50.5859 10.7929 50.5859C9.84586 50.5859 9.07812 51.1095 9.07812 51.7554C9.07812 52.4012 9.84586 52.9248 10.7929 52.9248Z" fill="black"></path><path d="M61.0312 45.9398L60.3875 45.5618C60.3382 45.5332 55.4193 42.6146 54.1967 39.0728L53.9241 38.2882L53.4201 38.9468C53.4043 38.9675 52.7054 39.8317 50.7495 40.8457C49.3014 32.6035 44.3756 22.7637 37.9024 18.5683C39.753 18.7179 41.6095 18.5643 43.4011 17.9127C44.48 17.5209 44.0144 15.7628 42.9256 16.1605C41.457 16.695 39.9853 16.8407 38.5166 16.7659C42.1224 13.4613 44.9535 8.39672 44.9535 4.6935C44.9535 3.80363 44.9535 2.14692 43.6344 2.14692C43.1048 2.14692 42.6766 2.47767 42.085 2.93442C41.1774 3.63431 39.8071 4.6935 37.7941 4.6935C37.0273 4.6935 35.6235 3.88434 34.4955 3.23466C33.1321 2.45011 32.2609 1.96875 31.5285 1.96875C30.3158 1.96875 28.5331 2.94919 26.9601 3.81445C26.3202 4.16587 25.4451 4.64822 25.264 4.69448C22.9842 4.69448 21.6602 3.64317 20.7821 2.94722C20.2703 2.53969 19.8991 2.24437 19.404 2.24437C18.1066 2.24437 18.1066 3.80067 18.1066 5.60306C18.1066 9.08184 20.7565 13.674 24.2265 16.76C22.0402 16.9165 19.8844 17.577 18.3694 19.0447C17.5327 19.8539 18.8006 21.1375 19.6343 20.3303C20.8934 19.1097 22.5442 18.587 24.3101 18.4856C24.3603 18.6657 24.4214 18.8429 24.4962 19.0171C17.0976 24.3337 11.842 36.9584 11.842 45.4811C11.842 46.3217 11.907 47.0827 12.0074 47.7993C10.0997 46.9517 9.40373 46.2085 9.38995 46.1918L8.88202 45.6061L8.63198 46.3444C7.52653 49.5968 2.72081 52.418 2.67258 52.4465L1.96875 52.855L2.68439 53.2419C2.93541 53.3777 3.18445 53.4968 3.43547 53.6258L2.98266 53.9398L3.22186 56.9323L21.9772 61.0312L29.0883 56.4825C29.8059 56.4864 30.5324 56.4884 31.2716 56.4884L39.5837 61.0312L58.3744 55.125V51.9661L57.8773 51.6679C58.1254 51.5104 58.3734 51.3499 58.6205 51.1845L59.2791 50.7445L59.1344 50.6737L59.9721 50.4443L60.1138 47.1604L59.6295 46.8169C59.8874 46.6623 60.1443 46.5048 60.4022 46.3414L61.0312 45.9398ZM19.8972 5.60306C19.8972 5.166 19.9031 4.82541 19.9119 4.56061C20.0625 4.67873 20.2378 4.80769 20.4248 4.94058C20.9987 6.31477 22.0845 8.29336 23.9252 9.53958C26.1617 11.0555 25.8645 9.31317 27.0575 7.72242C28.2506 6.13266 29.0578 5.29988 31.056 9.38897C31.9272 11.1717 33.3792 6.18975 34.7593 5.4623C35.1245 5.66114 35.4887 5.8462 35.846 6.0037C38.3207 10.0278 39.4675 8.77275 41.6656 5.42784C42.27 5.07347 42.7662 4.6935 43.1609 4.38933C43.1629 4.48088 43.1648 4.58227 43.1648 4.69547C43.1648 7.85531 40.5828 12.3874 37.421 15.3435C37.2717 14.9641 37.0579 14.6134 36.789 14.3069C35.5123 12.8609 33.517 14.4644 32.571 15.5167C30.8926 14.9773 28.158 13.4918 26.3763 14.3423C25.9326 14.5482 25.525 14.8244 25.1695 15.1604C22.2557 12.5045 19.8972 8.67037 19.8972 5.60306ZM35.848 16.4056C35.4066 16.312 34.9678 16.207 34.5319 16.0906C35.0812 15.6171 35.5852 15.4517 35.7968 16.1556C35.8194 16.2323 35.8332 16.32 35.848 16.4056ZM28.3667 17.0169C28.0409 16.9549 27.7062 16.8988 27.3617 16.8545C27.1004 16.6907 26.8447 16.5184 26.5949 16.3377C27.4946 15.7343 29.046 16.0552 30.5284 16.5582C29.797 16.632 29.0755 16.7915 28.3667 17.0169ZM28.8136 19.6156C28.2624 19.7535 27.6619 19.6983 27.1432 19.4916C27.3538 19.3804 27.5664 19.2839 27.7791 19.1865C28.1236 19.3528 28.4681 19.4916 28.8136 19.6156ZM10.6057 55.4981C8.25781 54.8181 5.97964 53.9173 3.80166 52.8078C5.13745 51.9297 8.04727 49.8064 9.23048 47.2549C10.0416 47.8918 11.9139 49.0534 15.56 49.9452C15.498 50.0456 15.4222 50.1529 15.3494 50.2583C12.2368 49.4432 10.4669 48.4125 10.4383 48.3948L10.0091 48.1389L9.80339 48.5986C9.53269 49.201 8.89777 49.2916 8.54438 49.2916C8.44594 49.2916 8.37998 49.2847 8.37112 49.2837L8.0197 49.2325L7.89173 49.5692C7.62989 50.2563 6.55495 51.154 6.1612 51.4425L5.50364 51.9248L6.2557 52.2329C6.53527 52.3471 6.61106 52.4524 6.615 52.48C6.62484 52.5479 6.50573 52.7271 6.37875 52.8304L5.80584 53.2921L6.47227 53.6002C7.83759 54.2302 9.38405 54.7519 10.9305 55.1821C10.8075 55.3032 10.7011 55.4065 10.6057 55.4981ZM18.5437 51.8303C19.9198 52.0232 21.4446 52.1453 23.1102 52.1453H23.1112C23.4577 52.1453 23.8091 52.1394 24.1674 52.1286C24.1913 52.2028 24.2254 52.2734 24.2688 52.3382C24.3564 52.4711 24.4745 52.5814 24.6241 52.667L22.112 54.8139C22.0641 54.8119 22.0162 54.8109 21.9683 54.811C20.8491 54.811 20.0143 55.2225 19.6137 55.9548C18.0957 55.7612 16.5848 55.516 15.0836 55.2195C16.2904 54.1456 17.445 53.0146 18.5437 51.8303ZM7.37198 53.0086C7.47042 52.8225 7.53441 52.5971 7.49995 52.351C7.46723 52.129 7.36079 51.9245 7.19775 51.7702C7.63973 51.3913 8.24906 50.8065 8.58375 50.2012C9.34467 50.1903 9.9727 49.9019 10.3684 49.392C11.0348 49.7405 12.536 50.4443 14.7538 51.0546C13.8472 52.1916 12.6256 53.4811 11.6757 54.4399C10.1952 54.0481 8.70384 53.5756 7.37198 53.0086ZM21.4003 57.1518L21.1985 57.1528C20.351 57.1528 17.5425 57.0839 13.8324 56.3112C13.9624 56.2009 14.0972 56.0877 14.2222 55.9794C17.2325 56.6085 19.6599 56.8782 19.842 56.8988L20.2023 56.9372L20.3136 56.5878C20.5567 55.8338 21.4535 55.7225 21.9673 55.7225C22.1081 55.7225 22.2016 55.7314 22.2124 55.7324L22.4034 55.753L26.7671 52.0242L25.6006 51.9858C25.2108 51.972 25.0464 51.8844 25.0061 51.8244L25.2532 51.1777L24.57 51.2062C24.0719 51.2279 23.5856 51.2387 23.1102 51.2387C21.736 51.2387 20.4602 51.1481 19.2819 51.0054L19.5556 50.6825C21.9338 51.0005 24.7816 51.1964 28.2201 51.1718C27.3991 52.3235 25.3516 54.7716 21.4003 57.1518ZM31.2677 52.8747V54.6712C30.7076 54.6712 30.1622 54.6692 29.6287 54.6653L29.4683 52.6434L28.1354 52.7517C29.0332 51.6905 29.4161 50.9827 29.4505 50.9188L29.8118 50.2356L29.0489 50.2494C21.7468 50.3833 16.9844 49.5131 13.9781 48.5464C13.7586 47.6585 13.6316 46.6545 13.6316 45.4821C13.6316 37.486 18.7415 25.3998 25.5258 20.5016C26.7277 21.6641 28.5508 22.173 30.2833 21.042C30.6633 20.7939 30.994 20.4691 31.3041 20.1236C31.3779 20.1255 31.4537 20.1423 31.5285 20.1423C31.7766 20.1423 32.0286 20.1216 32.2796 20.0901C32.5976 20.2171 32.9086 20.3451 33.1971 20.472C34.5781 21.0804 35.7574 20.7024 36.5626 19.8637C42.777 23.624 47.756 33.5711 49.0662 41.6115C46.2253 42.7475 41.7188 43.8559 34.8026 44.0508C36.1669 43.2712 37.1907 41.96 36.8225 40.2373C36.4357 38.4162 34.9138 37.9043 33.3378 37.8207C33.3339 36.9653 33.3339 36.1118 33.3398 35.2564C33.8231 35.47 34.2868 35.7161 34.7081 35.9789C35.4523 36.4465 36.1256 35.2347 35.3863 34.7671C34.7453 34.3642 34.0612 34.0343 33.3467 33.7838C33.3565 32.7935 33.3615 31.8052 33.3615 30.8168C33.3624 29.9112 32.0168 29.9112 32.0168 30.8168C32.0168 31.686 32.0109 32.5543 32.003 33.4215C31.2868 33.2967 30.5555 33.2844 29.8354 33.3851C29.7183 32.7335 29.5765 32.0866 29.4102 31.4459C29.1877 30.5737 27.8883 30.9428 28.1137 31.818C28.2791 32.447 28.414 33.073 28.5252 33.708C28.4681 33.7296 28.4061 33.7404 28.35 33.766C26.5269 34.4876 25.4146 36.3274 26.7484 38.0431C27.3696 38.8425 28.1817 39.1653 29.0706 39.2726C29.1188 40.4568 29.1493 41.642 29.1838 42.8252C28.5882 42.4384 28.0458 41.9422 27.5546 41.4176C26.9463 40.7758 25.9964 41.767 26.6037 42.4079C27.4296 43.2869 28.2968 43.9514 29.2369 44.3766C29.2793 45.3876 29.3393 46.4015 29.4377 47.4075C29.5244 48.3003 30.871 48.3052 30.7834 47.4075C30.7004 46.5373 30.639 45.6652 30.5993 44.792C31.1112 44.8806 31.6486 44.9033 32.2196 44.8491C32.2836 45.7803 32.3584 46.7115 32.4647 47.6428C32.5257 48.1763 33.0356 48.386 33.4117 48.2777L33.328 50.211C32.7354 50.2642 32.131 50.3134 31.501 50.3547L30.7509 50.4039L31.1505 51.0497C31.1909 51.1147 31.6447 51.8323 32.6576 52.8767H31.2677V52.8747ZM55.7668 46.3956C54.5295 46.9773 52.9643 47.5109 51.3696 47.9765C50.3892 46.9635 49.1351 45.612 48.1989 44.413C50.2848 43.7811 51.4523 43.1294 51.9789 42.778C52.3953 43.1452 52.9466 43.3361 53.5992 43.3351C53.8158 43.3351 54.0077 43.3145 54.1554 43.2908C54.6279 43.9031 55.3898 44.6099 55.8662 45.0322C55.6408 45.2635 55.5315 45.5195 55.5404 45.7961C55.5483 46.0323 55.6428 46.2331 55.7668 46.3956ZM48.7236 49.6302C48.9244 49.8074 49.1321 49.9885 49.3438 50.1716C45.3531 51.2298 42.3832 51.345 41.7365 51.3558C37.6041 48.8348 35.4621 46.1672 34.6362 44.9663C38.0943 44.8796 40.953 44.5666 43.3371 44.1354C43.4341 44.2545 43.5322 44.3726 43.6314 44.4898C41.7152 44.7883 39.7838 44.9798 37.8463 45.0637L37.0519 45.0972L37.4889 45.7656C37.488 45.7665 37.3994 45.9319 36.8127 46.0461L35.8588 46.2322L40.5484 50.0289L40.7669 49.9698C40.7718 49.9688 41.1853 49.8576 41.6853 49.8576C42.4069 49.8576 42.9 50.0771 43.1481 50.5063L43.3056 50.778L43.6118 50.7239C45.3264 50.4113 47.0312 50.0465 48.7236 49.6302ZM34.8469 46.7371L33.7267 46.6761C33.6745 46.117 33.6223 45.5579 33.5829 44.9987C33.7798 45.3255 34.1834 45.9398 34.8469 46.7371ZM33.4609 43.1333C33.3963 41.8083 33.3573 40.4821 33.3437 39.1555C33.5052 39.1614 33.6646 39.1762 33.8162 39.1978C35.5566 39.4616 36.0114 41.3969 34.653 42.4856C34.2986 42.7662 33.8901 42.9719 33.4609 43.1333ZM43.7368 49.7798C43.2958 49.2355 42.5939 48.95 41.6863 48.95C41.3073 48.95 40.9736 49.0012 40.763 49.0425L37.8148 46.6535C38.0599 46.5127 38.2253 46.3345 38.3158 46.116C38.3381 46.0616 38.3553 46.0053 38.367 45.9477C40.7039 45.8197 42.6727 45.5864 44.3372 45.3009C45.1444 46.2016 46.3306 47.4439 47.9036 48.888C45.9713 49.3477 44.3599 49.6627 43.7368 49.7798ZM31.9971 39.1909C32.0158 40.6173 32.0513 42.0476 32.127 43.4729C32.0001 43.4926 31.875 43.5173 31.75 43.53C31.3268 43.5783 30.9251 43.5428 30.5432 43.4464C30.495 42.0683 30.4635 40.6872 30.4113 39.3081C30.9409 39.2835 31.4774 39.2313 31.9971 39.1909ZM30.3434 37.9457C30.2819 36.8641 30.1801 35.7851 30.0382 34.711C30.6907 34.6213 31.3542 34.6551 31.9942 34.8105C31.9871 35.8168 31.9855 36.8232 31.9892 37.8295C31.5571 37.8532 31.1466 37.8945 30.7853 37.927C30.6383 37.9385 30.4909 37.9447 30.3434 37.9457ZM28.9928 37.7734C28.9091 37.7508 28.8264 37.7331 28.7408 37.7045C28.3469 37.571 27.9903 37.346 27.7003 37.0479C26.8597 36.2634 28.0133 35.4936 28.7408 35.1284C28.855 36.0045 28.9337 36.8885 28.9928 37.7734ZM39.8573 56.9353C35.5842 54.7519 33.2916 52.3254 32.381 51.2013C33.0356 51.1521 33.6548 51.093 34.2681 51.031L41.2748 55.5788L56.6409 51.3578C48.7167 56.134 40.888 56.8614 39.8573 56.9353ZM52.5479 49.1685C52.4219 49.0425 52.2713 48.8929 52.0931 48.7128C53.8414 48.1832 55.5325 47.5689 56.7935 46.8937L57.5603 46.4812L56.7827 46.0855C56.6085 45.9959 56.4382 45.8315 56.4352 45.7695C56.4372 45.7459 56.5061 45.6199 56.8043 45.4486L57.3733 45.1218L56.8673 44.7005C56.8516 44.6877 55.2736 43.3775 54.7194 42.5339L54.5363 42.2582L54.2223 42.3498C54.2194 42.3498 53.9497 42.4275 53.5992 42.4275C53.0578 42.4285 52.6522 42.2513 52.3924 41.9029L52.1049 41.5219L51.7447 41.832C51.726 41.8477 50.6107 42.7622 47.6191 43.6265C47.5206 43.4846 47.4258 43.3402 47.3347 43.1934C50.9621 42.0938 52.8157 40.763 53.6189 40.0345C54.9084 42.8242 57.9787 45.0716 59.3115 45.9526C57.1703 47.2483 54.9044 48.3257 52.5479 49.1685Z" fill="black"></path><path d="M43.6867 46.3808C42.7053 46.114 41.5979 46.2961 41.21 46.7834C40.8252 47.2726 41.3114 47.8888 42.2919 48.1576C43.2743 48.4243 44.3807 48.2413 44.7686 47.753C45.1535 47.2638 44.6691 46.6495 43.6867 46.3808Z" fill="black"></path></svg>