<svg xmlns="http://www.w3.org/2000/svg" width="1728" height="1324" viewBox="0 0 1728 1324" fill="none"><path d="M-304.761 -58.3555C-283.7 157.438 -193.806 405.194 60.0203 602.381C602.844 1024.07 1334.73 1104.7 2041.31 602.381C2041.31 602.381 1386.77 1554.02 177.473 1096.9C-751.352 745.804 -954.393 183.574 -998.62 -58.3555H-304.753H-304.761Z" fill="url(#paint0_linear_2498_7498)"></path><g style="mix-blend-mode:multiply" opacity="0.3"><path d="M-1256.44 1324L-1189.14 -58.3535H-721.119C-694.498 40.8389 -656.365 146.023 -603.851 257.018C-347.367 799.143 727.161 1299.29 1938.72 610.637L1954.6 1324H-1256.44Z" fill="#595959"></path></g><path d="M-1246.65 1318.32L-1179.35 -64.0312H-715.195C-688.46 38.78 -649.362 148.104 -594.665 263.735C-338.172 805.852 736.356 1306 1947.92 617.346L1963.52 1318.32H-1246.65V1318.32Z" fill="#388459"></path><path d="M-686.023 -70C-603.267 207.441 -408.74 601.971 44.7773 802.973C44.7773 802.973 -596.366 601.23 -966.444 -70H-686.023Z" fill="url(#paint1_linear_2498_7498)"></path><path d="M-1163.63 16.0879C-1163.63 16.0879 -1036.46 657.223 126.176 898.16C126.176 898.16 -813.925 857.319 -1259 481.624L-1163.63 16.0879Z" fill="white"></path><path d="M1947.63 410.855C1947.46 411.146 1946.56 412.171 1945.91 412.936L1943.66 415.514L1938.85 420.852C1935.63 424.439 1932.12 428.082 1928.72 431.701C1921.75 438.946 1914.61 446.184 1907.29 453.367C1892.69 467.756 1877.39 481.845 1861.79 495.729C1830.52 523.466 1797.74 550.241 1763.77 575.936C1695.76 627.271 1623.21 674.569 1547.15 717.451C1509.07 738.794 1470.31 759.443 1430.53 778.5C1410.81 788.371 1390.57 797.28 1370.49 806.623C1360.38 811.172 1350.15 815.469 1339.98 819.916C1329.78 824.307 1319.63 828.833 1309.27 832.909C1226.95 866.788 1141.99 896.307 1055 921.142C1144.68 906.012 1233.66 885.9 1321.32 860.898C1332.34 857.926 1343.18 854.504 1354.09 851.201C1364.97 847.85 1375.93 844.633 1386.78 841.156C1408.36 833.958 1430.18 827.154 1451.56 819.348C1494.65 804.423 1537.04 787.74 1579.08 770.158C1663.04 734.781 1744.74 694.216 1823.32 648.314C1862.58 625.316 1901.01 600.914 1938.5 574.943C1957.23 561.918 1975.76 548.578 1993.96 534.551C2003.07 527.558 2012.12 520.399 2021.13 513.059C2025.64 509.306 2030.12 505.656 2034.65 501.745L2041.47 495.832L2044.96 492.725L2048.9 489.067L2057.32 481.261C2083.53 456.962 2082.86 418.163 2055.84 394.605C2028.82 371.039 1985.67 371.638 1959.47 395.938C1954.66 400.392 1950.64 405.596 1947.64 410.839L1947.63 410.855Z" fill="white"></path><defs><linearGradient id="paint0_linear_2498_7498" x1="521.346" y1="-58.3555" x2="521.346" y2="1221.12" gradientUnits="userSpaceOnUse"><stop stop-color="#BF9B3E"></stop><stop offset="1" stop-color="#FCD462"></stop></linearGradient><linearGradient id="paint1_linear_2498_7498" x1="-460.833" y1="892.712" x2="-460.833" y2="11.7759" gradientUnits="userSpaceOnUse"><stop stop-color="#FD7E21"></stop><stop offset="0.01" stop-color="#FD8127"></stop><stop offset="0.11" stop-color="#FD9E59"></stop><stop offset="0.22" stop-color="#FDB885"></stop><stop offset="0.33" stop-color="#FECEAB"></stop><stop offset="0.44" stop-color="#FEE0C9"></stop><stop offset="0.56" stop-color="#FEEDE1"></stop><stop offset="0.69" stop-color="#FEF7F1"></stop><stop offset="0.82" stop-color="#FEFDFB"></stop><stop offset="1" stop-color="white"></stop></linearGradient></defs></svg>