<svg xmlns="http://www.w3.org/2000/svg" width="853" height="148" viewBox="0 0 853 148" fill="none"><path d="M29.1994 36.8798C29.312 35.8526 30.688 35.8526 30.8006 36.8798L31.7445 45.4977C32.9633 56.6256 41.0619 65.3992 51.3338 66.7195L59.2887 67.7421C60.2371 67.8641 60.2371 69.3547 59.2887 69.4767L51.3338 70.4992C41.0619 71.8196 32.9633 80.5931 31.7445 91.721L30.8006 100.339C30.688 101.366 29.312 101.366 29.1994 100.339L28.2555 91.721C27.0367 80.5931 18.9381 71.8196 8.66611 70.4992L0.711185 69.4767C-0.237061 69.3547 -0.237061 67.8641 0.711185 67.7421L8.66611 66.7195C18.9381 65.3992 27.0367 56.6256 28.2555 45.4977L29.1994 36.8798Z" fill="#333333"></path><g filter="url(#filter0_d_2359_7159)"><rect x="616" y="34" width="199" height="67" rx="33.5" fill="url(#paint0_linear_2359_7159)"></rect></g><path d="M680.598 74V59.4545H682.793V72.1108H689.384V74H680.598ZM691.717 74V63.0909H693.84V74H691.717ZM692.789 61.4077C692.42 61.4077 692.103 61.2846 691.837 61.0384C691.577 60.7874 691.447 60.4891 691.447 60.1435C691.447 59.7931 691.577 59.4948 691.837 59.2486C692.103 58.9976 692.42 58.8722 692.789 58.8722C693.158 58.8722 693.473 58.9976 693.734 59.2486C693.999 59.4948 694.131 59.7931 694.131 60.1435C694.131 60.4891 693.999 60.7874 693.734 61.0384C693.473 61.2846 693.158 61.4077 692.789 61.4077ZM698.821 67.5227V74H696.697V63.0909H698.735V64.8665H698.87C699.121 64.2888 699.514 63.8248 700.049 63.4744C700.589 63.1241 701.269 62.9489 702.088 62.9489C702.831 62.9489 703.482 63.1051 704.041 63.4176C704.6 63.7254 705.033 64.1847 705.341 64.7955C705.648 65.4062 705.802 66.1615 705.802 67.0611V74H703.679V67.3168C703.679 66.526 703.473 65.9081 703.061 65.4631C702.649 65.0133 702.083 64.7884 701.363 64.7884C700.871 64.7884 700.433 64.8949 700.049 65.108C699.671 65.321 699.37 65.6335 699.147 66.0455C698.93 66.4527 698.821 66.9451 698.821 67.5227ZM710.603 70.2997L710.589 67.7074H710.958L715.305 63.0909H717.848L712.89 68.3466H712.556L710.603 70.2997ZM708.65 74V59.4545H710.774V74H708.65ZM715.539 74L711.633 68.8153L713.096 67.331L718.146 74H715.539ZM725.468 66.9332V68.7727H719.02V66.9332H725.468ZM728.299 74V63.0909H730.422V74H728.299ZM729.371 61.4077C729.002 61.4077 728.685 61.2846 728.419 61.0384C728.159 60.7874 728.029 60.4891 728.029 60.1435C728.029 59.7931 728.159 59.4948 728.419 59.2486C728.685 58.9976 729.002 58.8722 729.371 58.8722C729.74 58.8722 730.055 58.9976 730.316 59.2486C730.581 59.4948 730.713 59.7931 730.713 60.1435C730.713 60.4891 730.581 60.7874 730.316 61.0384C730.055 61.2846 729.74 61.4077 729.371 61.4077ZM735.403 67.5227V74H733.279V63.0909H735.317V64.8665H735.452C735.703 64.2888 736.096 63.8248 736.631 63.4744C737.171 63.1241 737.851 62.9489 738.67 62.9489C739.413 62.9489 740.064 63.1051 740.623 63.4176C741.182 63.7254 741.615 64.1847 741.923 64.7955C742.23 65.4062 742.384 66.1615 742.384 67.0611V74H740.261V67.3168C740.261 66.526 740.055 65.9081 739.643 65.4631C739.231 65.0133 738.665 64.7884 737.945 64.7884C737.453 64.7884 737.015 64.8949 736.631 65.108C736.253 65.321 735.952 65.6335 735.729 66.0455C735.512 66.4527 735.403 66.9451 735.403 67.5227ZM751.66 66.9332V68.7727H745.211V66.9332H751.66ZM754.661 74V59.4545H756.784V64.8594H756.912C757.035 64.6321 757.213 64.3693 757.445 64.071C757.677 63.7727 757.999 63.5123 758.411 63.2898C758.822 63.0625 759.367 62.9489 760.044 62.9489C760.925 62.9489 761.711 63.1714 762.402 63.6165C763.093 64.0616 763.635 64.7031 764.028 65.5412C764.426 66.3793 764.625 67.3878 764.625 68.5668C764.625 69.7457 764.429 70.7566 764.036 71.5994C763.643 72.4375 763.103 73.0838 762.416 73.5384C761.73 73.9882 760.946 74.2131 760.065 74.2131C759.402 74.2131 758.86 74.1018 758.439 73.8793C758.022 73.6567 757.696 73.3963 757.459 73.098C757.222 72.7997 757.04 72.5346 756.912 72.3026H756.734V74H754.661ZM756.741 68.5455C756.741 69.3125 756.853 69.9848 757.075 70.5625C757.298 71.1402 757.62 71.5923 758.041 71.919C758.463 72.241 758.979 72.402 759.589 72.402C760.224 72.402 760.754 72.2339 761.18 71.8977C761.607 71.5568 761.929 71.0952 762.146 70.5128C762.369 69.9304 762.48 69.2746 762.48 68.5455C762.48 67.8258 762.371 67.1795 762.153 66.6065C761.94 66.0336 761.618 65.5814 761.188 65.25C760.761 64.9186 760.229 64.7528 759.589 64.7528C758.974 64.7528 758.453 64.9115 758.027 65.2287C757.606 65.5459 757.286 65.9886 757.068 66.5568C756.85 67.125 756.741 67.7879 756.741 68.5455ZM767.01 74V63.0909H769.133V74H767.01ZM768.082 61.4077C767.713 61.4077 767.395 61.2846 767.13 61.0384C766.87 60.7874 766.74 60.4891 766.74 60.1435C766.74 59.7931 766.87 59.4948 767.13 59.2486C767.395 58.9976 767.713 58.8722 768.082 58.8722C768.451 58.8722 768.766 58.9976 769.027 59.2486C769.292 59.4948 769.424 59.7931 769.424 60.1435C769.424 60.4891 769.292 60.7874 769.027 61.0384C768.766 61.2846 768.451 61.4077 768.082 61.4077ZM776.585 74.2202C775.563 74.2202 774.67 73.9858 773.908 73.517C773.145 73.0483 772.554 72.3925 772.132 71.5497C771.711 70.7069 771.5 69.7221 771.5 68.5952C771.5 67.4635 771.711 66.474 772.132 65.6264C772.554 64.7789 773.145 64.1207 773.908 63.652C774.67 63.1832 775.563 62.9489 776.585 62.9489C777.608 62.9489 778.5 63.1832 779.263 63.652C780.025 64.1207 780.617 64.7789 781.038 65.6264C781.46 66.474 781.67 67.4635 781.67 68.5952C781.67 69.7221 781.46 70.7069 781.038 71.5497C780.617 72.3925 780.025 73.0483 779.263 73.517C778.5 73.9858 777.608 74.2202 776.585 74.2202ZM776.592 72.4375C777.255 72.4375 777.804 72.2623 778.24 71.9119C778.676 71.5616 778.998 71.0952 779.206 70.5128C779.419 69.9304 779.526 69.2888 779.526 68.5881C779.526 67.892 779.419 67.2528 779.206 66.6705C778.998 66.0833 778.676 65.6122 778.24 65.2571C777.804 64.902 777.255 64.7244 776.592 64.7244C775.925 64.7244 775.371 64.902 774.93 65.2571C774.495 65.6122 774.17 66.0833 773.957 66.6705C773.749 67.2528 773.645 67.892 773.645 68.5881C773.645 69.2888 773.749 69.9304 773.957 70.5128C774.17 71.0952 774.495 71.5616 774.93 71.9119C775.371 72.2623 775.925 72.4375 776.592 72.4375Z" fill="black"></path><circle cx="655" cy="67" r="9" fill="white"></circle><circle cx="655" cy="67" r="5" fill="black"></circle><g filter="url(#filter1_d_2359_7159)"><rect x="601" y="34.1094" width="214" height="67" rx="33.5" fill="url(#paint1_linear_2359_7159)"></rect></g><path d="M644.793 60.5639V75.1094H642.598V60.5639H644.793ZM649.942 68.6321V75.1094H647.818V64.2003H649.857V65.9759H649.991C650.242 65.3982 650.635 64.9342 651.17 64.5838C651.71 64.2334 652.39 64.0582 653.209 64.0582C653.952 64.0582 654.603 64.2145 655.162 64.527C655.721 64.8348 656.154 65.294 656.462 65.9048C656.769 66.5156 656.923 67.2708 656.923 68.1705V75.1094H654.8V68.4261C654.8 67.6354 654.594 67.0175 654.182 66.5724C653.77 66.1226 653.204 65.8977 652.484 65.8977C651.992 65.8977 651.554 66.0043 651.17 66.2173C650.792 66.4304 650.491 66.7429 650.268 67.1548C650.051 67.562 649.942 68.0545 649.942 68.6321ZM667.946 66.8636L666.021 67.2045C665.941 66.9583 665.813 66.724 665.638 66.5014C665.467 66.2789 665.235 66.0966 664.942 65.9545C664.648 65.8125 664.281 65.7415 663.841 65.7415C663.24 65.7415 662.738 65.8764 662.335 66.1463C661.933 66.4115 661.732 66.7547 661.732 67.1761C661.732 67.5407 661.866 67.8343 662.136 68.0568C662.406 68.2794 662.842 68.4616 663.443 68.6037L665.176 69.0014C666.18 69.2334 666.928 69.5909 667.42 70.0739C667.913 70.5568 668.159 71.1842 668.159 71.956C668.159 72.6094 667.97 73.1918 667.591 73.7031C667.217 74.2098 666.694 74.6075 666.021 74.8963C665.354 75.1851 664.58 75.3295 663.699 75.3295C662.477 75.3295 661.481 75.0691 660.709 74.5483C659.937 74.0227 659.464 73.277 659.288 72.3111L661.341 71.9986C661.469 72.5336 661.732 72.9384 662.129 73.2131C662.527 73.483 663.045 73.6179 663.685 73.6179C664.381 73.6179 664.937 73.4735 665.354 73.1847C665.77 72.8911 665.979 72.5336 665.979 72.1122C665.979 71.7713 665.851 71.4848 665.595 71.2528C665.344 71.0208 664.958 70.8456 664.438 70.7273L662.591 70.3224C661.573 70.0904 660.82 69.7211 660.332 69.2145C659.849 68.7079 659.608 68.0663 659.608 67.2898C659.608 66.6458 659.788 66.0824 660.148 65.5994C660.508 65.1165 661.005 64.7401 661.639 64.4702C662.274 64.1955 663 64.0582 663.82 64.0582C664.999 64.0582 665.927 64.3139 666.604 64.8253C667.281 65.3319 667.728 66.0114 667.946 66.8636ZM675.586 64.2003V65.9048H669.627V64.2003H675.586ZM671.225 61.5866H673.349V71.9062C673.349 72.3182 673.411 72.6283 673.534 72.8366C673.657 73.0402 673.815 73.1799 674.01 73.2557C674.208 73.3267 674.424 73.3622 674.656 73.3622C674.826 73.3622 674.975 73.3504 675.103 73.3267C675.231 73.303 675.331 73.2841 675.402 73.2699L675.785 75.0241C675.662 75.0715 675.487 75.1188 675.26 75.1662C675.032 75.2183 674.748 75.2467 674.407 75.2514C673.849 75.2609 673.328 75.1615 672.845 74.9531C672.362 74.7448 671.971 74.4228 671.673 73.9872C671.375 73.5516 671.225 73.0047 671.225 72.3466V61.5866ZM681.11 75.3509C680.419 75.3509 679.794 75.223 679.235 74.9673C678.676 74.7069 678.234 74.3305 677.907 73.8381C677.585 73.3456 677.424 72.742 677.424 72.027C677.424 71.4115 677.542 70.9048 677.779 70.5071C678.016 70.1094 678.335 69.7945 678.738 69.5625C679.14 69.3305 679.59 69.1553 680.087 69.0369C680.585 68.9186 681.091 68.8286 681.607 68.767C682.261 68.6913 682.791 68.6297 683.198 68.5824C683.605 68.5303 683.901 68.4474 684.086 68.3338C684.271 68.2202 684.363 68.0355 684.363 67.7798V67.7301C684.363 67.1098 684.188 66.6293 683.837 66.2884C683.492 65.9474 682.976 65.777 682.289 65.777C681.574 65.777 681.011 65.9356 680.599 66.2528C680.192 66.5653 679.91 66.9134 679.754 67.2969L677.758 66.8423C677.995 66.1795 678.34 65.6444 678.795 65.2372C679.254 64.8253 679.782 64.527 680.379 64.3423C680.975 64.1529 681.603 64.0582 682.261 64.0582C682.696 64.0582 683.158 64.1103 683.646 64.2145C684.138 64.3139 684.597 64.4986 685.023 64.7685C685.454 65.0384 685.807 65.4242 686.082 65.9261C686.356 66.4233 686.494 67.0696 686.494 67.8651V75.1094H684.42V73.6179H684.335C684.197 73.8925 683.991 74.1624 683.717 74.4276C683.442 74.6927 683.089 74.9129 682.658 75.0881C682.228 75.2633 681.711 75.3509 681.11 75.3509ZM681.572 73.6463C682.159 73.6463 682.661 73.5303 683.077 73.2983C683.499 73.0663 683.818 72.7633 684.036 72.3892C684.259 72.0104 684.37 71.6056 684.37 71.1747V69.7685C684.294 69.8442 684.147 69.9152 683.93 69.9815C683.717 70.0431 683.473 70.0975 683.198 70.1449C682.924 70.1875 682.656 70.2277 682.396 70.2656C682.135 70.2988 681.917 70.3272 681.742 70.3509C681.33 70.4029 680.954 70.4905 680.613 70.6136C680.277 70.7367 680.007 70.9143 679.803 71.1463C679.604 71.3736 679.505 71.6766 679.505 72.0554C679.505 72.581 679.699 72.9787 680.087 73.2486C680.476 73.5137 680.97 73.6463 681.572 73.6463ZM691.446 68.6321V75.1094H689.322V64.2003H691.36V65.9759H691.495C691.746 65.3982 692.139 64.9342 692.674 64.5838C693.214 64.2334 693.894 64.0582 694.713 64.0582C695.456 64.0582 696.107 64.2145 696.666 64.527C697.225 64.8348 697.658 65.294 697.966 65.9048C698.273 66.5156 698.427 67.2708 698.427 68.1705V75.1094H696.304V68.4261C696.304 67.6354 696.098 67.0175 695.686 66.5724C695.274 66.1226 694.708 65.8977 693.988 65.8977C693.496 65.8977 693.058 66.0043 692.674 66.2173C692.296 66.4304 691.995 66.7429 691.772 67.1548C691.555 67.562 691.446 68.0545 691.446 68.6321ZM706.368 64.2003V65.9048H700.409V64.2003H706.368ZM702.007 61.5866H704.13V71.9062C704.13 72.3182 704.192 72.6283 704.315 72.8366C704.438 73.0402 704.597 73.1799 704.791 73.2557C704.99 73.3267 705.205 73.3622 705.437 73.3622C705.608 73.3622 705.757 73.3504 705.885 73.3267C706.012 73.303 706.112 73.2841 706.183 73.2699L706.566 75.0241C706.443 75.0715 706.268 75.1188 706.041 75.1662C705.814 75.2183 705.529 75.2467 705.189 75.2514C704.63 75.2609 704.109 75.1615 703.626 74.9531C703.143 74.7448 702.752 74.4228 702.454 73.9872C702.156 73.5516 702.007 73.0047 702.007 72.3466V61.5866ZM726.261 65.294H724.045C723.96 64.8205 723.801 64.4039 723.569 64.044C723.337 63.6842 723.053 63.3788 722.717 63.1278C722.381 62.8769 722.004 62.6875 721.588 62.5597C721.176 62.4318 720.738 62.3679 720.274 62.3679C719.436 62.3679 718.685 62.5786 718.022 63C717.364 63.4214 716.843 64.0393 716.46 64.8537C716.081 65.6681 715.892 66.6624 715.892 67.8366C715.892 69.0204 716.081 70.0194 716.46 70.8338C716.843 71.6482 717.367 72.2637 718.029 72.6804C718.692 73.0971 719.438 73.3054 720.267 73.3054C720.726 73.3054 721.162 73.2438 721.574 73.1207C721.99 72.9929 722.367 72.8059 722.703 72.5597C723.039 72.3134 723.323 72.0128 723.555 71.6577C723.792 71.2978 723.955 70.8859 724.045 70.4219L726.261 70.429C726.143 71.1439 725.913 71.8021 725.572 72.4034C725.236 73 724.803 73.5161 724.272 73.9517C723.747 74.3826 723.145 74.7164 722.468 74.9531C721.791 75.1899 721.053 75.3082 720.252 75.3082C718.993 75.3082 717.871 75.0099 716.886 74.4134C715.901 73.812 715.125 72.9527 714.556 71.8352C713.993 70.7178 713.711 69.3849 713.711 67.8366C713.711 66.2836 713.995 64.9508 714.564 63.8381C715.132 62.7206 715.908 61.8636 716.893 61.267C717.878 60.6657 718.998 60.3651 720.252 60.3651C721.024 60.3651 721.744 60.4763 722.412 60.6989C723.084 60.9167 723.688 61.2386 724.223 61.6648C724.758 62.0862 725.2 62.6023 725.551 63.2131C725.901 63.8191 726.138 64.5128 726.261 65.294ZM733.312 75.3295C732.289 75.3295 731.397 75.0952 730.634 74.6264C729.872 74.1577 729.28 73.5019 728.859 72.6591C728.437 71.8163 728.227 70.8314 728.227 69.7045C728.227 68.5729 728.437 67.5833 728.859 66.7358C729.28 65.8883 729.872 65.2301 730.634 64.7614C731.397 64.2926 732.289 64.0582 733.312 64.0582C734.335 64.0582 735.227 64.2926 735.989 64.7614C736.752 65.2301 737.344 65.8883 737.765 66.7358C738.186 67.5833 738.397 68.5729 738.397 69.7045C738.397 70.8314 738.186 71.8163 737.765 72.6591C737.344 73.5019 736.752 74.1577 735.989 74.6264C735.227 75.0952 734.335 75.3295 733.312 75.3295ZM733.319 73.5469C733.982 73.5469 734.531 73.3717 734.967 73.0213C735.402 72.6709 735.724 72.2045 735.933 71.6222C736.146 71.0398 736.252 70.3982 736.252 69.6974C736.252 69.0014 736.146 68.3622 735.933 67.7798C735.724 67.1927 735.402 66.7216 734.967 66.3665C734.531 66.0114 733.982 65.8338 733.319 65.8338C732.651 65.8338 732.097 66.0114 731.657 66.3665C731.221 66.7216 730.897 67.1927 730.684 67.7798C730.476 68.3622 730.371 69.0014 730.371 69.6974C730.371 70.3982 730.476 71.0398 730.684 71.6222C730.897 72.2045 731.221 72.6709 731.657 73.0213C732.097 73.3717 732.651 73.5469 733.319 73.5469ZM749.729 64.2003L745.773 75.1094H743.5L739.537 64.2003H741.817L744.58 72.5952H744.693L747.449 64.2003H749.729ZM756.055 75.3295C754.98 75.3295 754.055 75.0999 753.278 74.6406C752.506 74.1766 751.91 73.5256 751.488 72.6875C751.072 71.8447 750.863 70.8575 750.863 69.7259C750.863 68.6084 751.072 67.6236 751.488 66.7713C751.91 65.919 752.497 65.2538 753.25 64.7756C754.007 64.2973 754.893 64.0582 755.906 64.0582C756.521 64.0582 757.118 64.16 757.696 64.3636C758.273 64.5672 758.792 64.8868 759.251 65.3224C759.71 65.758 760.073 66.3239 760.338 67.0199C760.603 67.7112 760.735 68.5516 760.735 69.5412V70.294H752.064V68.7031H758.654C758.654 68.1444 758.541 67.6496 758.314 67.2188C758.086 66.7831 757.767 66.4399 757.355 66.1889C756.948 65.938 756.469 65.8125 755.92 65.8125C755.324 65.8125 754.803 65.9593 754.358 66.2528C753.917 66.5417 753.576 66.9205 753.335 67.3892C753.098 67.8532 752.98 68.3575 752.98 68.902V70.1449C752.98 70.8741 753.108 71.4943 753.363 72.0057C753.624 72.517 753.986 72.9077 754.45 73.1776C754.914 73.4427 755.456 73.5753 756.076 73.5753C756.479 73.5753 756.846 73.5185 757.177 73.4048C757.509 73.2865 757.795 73.1113 758.037 72.8793C758.278 72.6473 758.463 72.3608 758.591 72.0199L760.6 72.3821C760.44 72.974 760.151 73.4924 759.734 73.9375C759.322 74.3778 758.804 74.7211 758.179 74.9673C757.558 75.2088 756.85 75.3295 756.055 75.3295ZM763.092 75.1094V64.2003H765.144V65.9332H765.258C765.457 65.3461 765.807 64.8845 766.309 64.5483C766.816 64.2074 767.388 64.0369 768.028 64.0369C768.16 64.0369 768.317 64.0417 768.496 64.0511C768.681 64.0606 768.826 64.0724 768.93 64.0866V66.1179C768.844 66.0942 768.693 66.0682 768.475 66.0398C768.257 66.0066 768.04 65.9901 767.822 65.9901C767.32 65.9901 766.872 66.0966 766.479 66.3097C766.091 66.518 765.783 66.8092 765.556 67.1832C765.329 67.5526 765.215 67.974 765.215 68.4474V75.1094H763.092ZM773.844 75.3509C773.153 75.3509 772.528 75.223 771.969 74.9673C771.411 74.7069 770.968 74.3305 770.641 73.8381C770.319 73.3456 770.158 72.742 770.158 72.027C770.158 71.4115 770.277 70.9048 770.513 70.5071C770.75 70.1094 771.07 69.7945 771.472 69.5625C771.875 69.3305 772.325 69.1553 772.822 69.0369C773.319 68.9186 773.826 68.8286 774.342 68.767C774.995 68.6913 775.525 68.6297 775.933 68.5824C776.34 68.5303 776.636 68.4474 776.82 68.3338C777.005 68.2202 777.097 68.0355 777.097 67.7798V67.7301C777.097 67.1098 776.922 66.6293 776.572 66.2884C776.226 65.9474 775.71 65.777 775.023 65.777C774.308 65.777 773.745 65.9356 773.333 66.2528C772.926 66.5653 772.644 66.9134 772.488 67.2969L770.492 66.8423C770.729 66.1795 771.075 65.6444 771.529 65.2372C771.988 64.8253 772.516 64.527 773.113 64.3423C773.71 64.1529 774.337 64.0582 774.995 64.0582C775.431 64.0582 775.892 64.1103 776.38 64.2145C776.872 64.3139 777.332 64.4986 777.758 64.7685C778.189 65.0384 778.541 65.4242 778.816 65.9261C779.091 66.4233 779.228 67.0696 779.228 67.8651V75.1094H777.154V73.6179H777.069C776.932 73.8925 776.726 74.1624 776.451 74.4276C776.176 74.6927 775.824 74.9129 775.393 75.0881C774.962 75.2633 774.446 75.3509 773.844 75.3509ZM774.306 73.6463C774.893 73.6463 775.395 73.5303 775.812 73.2983C776.233 73.0663 776.553 72.7633 776.771 72.3892C776.993 72.0104 777.104 71.6056 777.104 71.1747V69.7685C777.029 69.8442 776.882 69.9152 776.664 69.9815C776.451 70.0431 776.207 70.0975 775.933 70.1449C775.658 70.1875 775.39 70.2277 775.13 70.2656C774.87 70.2988 774.652 70.3272 774.477 70.3509C774.065 70.4029 773.688 70.4905 773.347 70.6136C773.011 70.7367 772.741 70.9143 772.538 71.1463C772.339 71.3736 772.239 71.6766 772.239 72.0554C772.239 72.581 772.433 72.9787 772.822 73.2486C773.21 73.5137 773.705 73.6463 774.306 73.6463ZM786.63 79.4276C785.764 79.4276 785.018 79.3139 784.393 79.0866C783.773 78.8594 783.266 78.5587 782.873 78.1847C782.48 77.8106 782.187 77.401 781.993 76.956L783.818 76.2031C783.946 76.4115 784.116 76.6316 784.329 76.8636C784.547 77.1004 784.841 77.3016 785.21 77.4673C785.584 77.633 786.065 77.7159 786.652 77.7159C787.457 77.7159 788.122 77.5194 788.647 77.1264C789.173 76.7382 789.436 76.1179 789.436 75.2656V73.1207H789.301C789.173 73.3527 788.988 73.6108 788.747 73.8949C788.51 74.179 788.183 74.4252 787.767 74.6335C787.35 74.8419 786.808 74.946 786.14 74.946C785.279 74.946 784.502 74.7448 783.811 74.3423C783.124 73.9351 782.58 73.3362 782.177 72.5455C781.779 71.75 781.581 70.7723 781.581 69.6122C781.581 68.4522 781.777 67.4579 782.17 66.6293C782.568 65.8007 783.112 65.1662 783.804 64.7259C784.495 64.2808 785.279 64.0582 786.154 64.0582C786.832 64.0582 787.378 64.1719 787.795 64.3991C788.212 64.6217 788.536 64.8821 788.768 65.1804C789.005 65.4787 789.187 65.7415 789.315 65.9688H789.471V64.2003H791.552V75.3509C791.552 76.2884 791.334 77.0578 790.899 77.6591C790.463 78.2604 789.874 78.7055 789.13 78.9943C788.392 79.2831 787.558 79.4276 786.63 79.4276ZM786.609 73.1847C787.22 73.1847 787.736 73.0426 788.157 72.7585C788.583 72.4697 788.905 72.0578 789.123 71.5227C789.346 70.983 789.457 70.3366 789.457 69.5838C789.457 68.8499 789.348 68.2036 789.13 67.6449C788.913 67.0862 788.593 66.6506 788.172 66.3381C787.75 66.0208 787.229 65.8622 786.609 65.8622C785.97 65.8622 785.437 66.0279 785.011 66.3594C784.585 66.6861 784.263 67.1312 784.045 67.6946C783.832 68.258 783.725 68.8878 783.725 69.5838C783.725 70.2988 783.834 70.9261 784.052 71.4659C784.27 72.0057 784.592 72.4271 785.018 72.7301C785.449 73.0331 785.979 73.1847 786.609 73.1847ZM799.102 75.3295C798.027 75.3295 797.101 75.0999 796.325 74.6406C795.553 74.1766 794.957 73.5256 794.535 72.6875C794.118 71.8447 793.91 70.8575 793.91 69.7259C793.91 68.6084 794.118 67.6236 794.535 66.7713C794.957 65.919 795.544 65.2538 796.297 64.7756C797.054 64.2973 797.94 64.0582 798.953 64.0582C799.568 64.0582 800.165 64.16 800.743 64.3636C801.32 64.5672 801.839 64.8868 802.298 65.3224C802.757 65.758 803.119 66.3239 803.385 67.0199C803.65 67.7112 803.782 68.5516 803.782 69.5412V70.294H795.11V68.7031H801.701C801.701 68.1444 801.588 67.6496 801.36 67.2188C801.133 66.7831 800.814 66.4399 800.402 66.1889C799.994 65.938 799.516 65.8125 798.967 65.8125C798.37 65.8125 797.85 65.9593 797.404 66.2528C796.964 66.5417 796.623 66.9205 796.382 67.3892C796.145 67.8532 796.027 68.3575 796.027 68.902V70.1449C796.027 70.8741 796.154 71.4943 796.41 72.0057C796.671 72.517 797.033 72.9077 797.497 73.1776C797.961 73.4427 798.503 73.5753 799.123 73.5753C799.526 73.5753 799.893 73.5185 800.224 73.4048C800.556 73.2865 800.842 73.1113 801.083 72.8793C801.325 72.6473 801.51 72.3608 801.637 72.0199L803.647 72.3821C803.486 72.974 803.198 73.4924 802.781 73.9375C802.369 74.3778 801.85 74.7211 801.225 74.9673C800.605 75.2088 799.897 75.3295 799.102 75.3295Z" fill="white"></path><circle cx="617" cy="68" r="9" fill="white"></circle><circle cx="617" cy="68" r="5" fill="black"></circle><g filter="url(#filter2_d_2359_7159)"><rect x="332" y="34" width="237" height="67" rx="33.5" fill="url(#paint2_linear_2359_7159)"></rect></g><path d="M383.598 75V60.4545H392.618V62.3438H385.793V66.7756H391.972V68.6577H385.793V75H383.598ZM395.01 75V64.0909H397.062V65.8239H397.176C397.375 65.2367 397.725 64.7751 398.227 64.4389C398.734 64.098 399.306 63.9276 399.946 63.9276C400.078 63.9276 400.234 63.9323 400.414 63.9418C400.599 63.9512 400.743 63.9631 400.848 63.9773V66.0085C400.762 65.9848 400.611 65.9588 400.393 65.9304C400.175 65.8973 399.958 65.8807 399.74 65.8807C399.238 65.8807 398.79 65.9872 398.397 66.2003C398.009 66.4086 397.701 66.6998 397.474 67.0739C397.247 67.4432 397.133 67.8646 397.133 68.3381V75H395.01ZM406.996 75.2202C405.922 75.2202 404.996 74.9905 404.219 74.5312C403.448 74.0672 402.851 73.4162 402.43 72.5781C402.013 71.7353 401.805 70.7481 401.805 69.6165C401.805 68.4991 402.013 67.5142 402.43 66.6619C402.851 65.8097 403.438 65.1444 404.191 64.6662C404.949 64.188 405.834 63.9489 406.847 63.9489C407.463 63.9489 408.059 64.0507 408.637 64.2543C409.215 64.4579 409.733 64.7775 410.192 65.2131C410.652 65.6487 411.014 66.2145 411.279 66.9105C411.544 67.6018 411.677 68.4422 411.677 69.4318V70.1847H403.005V68.5938H409.596C409.596 68.035 409.482 67.5402 409.255 67.1094C409.028 66.6738 408.708 66.3305 408.296 66.0795C407.889 65.8286 407.411 65.7031 406.862 65.7031C406.265 65.7031 405.744 65.8499 405.299 66.1435C404.859 66.4323 404.518 66.8111 404.276 67.2798C404.04 67.7438 403.921 68.2481 403.921 68.7926V70.0355C403.921 70.7647 404.049 71.3849 404.305 71.8963C404.565 72.4077 404.927 72.7983 405.391 73.0682C405.855 73.3333 406.397 73.4659 407.018 73.4659C407.42 73.4659 407.787 73.4091 408.119 73.2955C408.45 73.1771 408.737 73.0019 408.978 72.7699C409.219 72.5379 409.404 72.2514 409.532 71.9105L411.542 72.2727C411.381 72.8646 411.092 73.383 410.675 73.8281C410.263 74.2685 409.745 74.6117 409.12 74.858C408.5 75.0994 407.792 75.2202 406.996 75.2202ZM418.735 75.2202C417.66 75.2202 416.734 74.9905 415.958 74.5312C415.186 74.0672 414.589 73.4162 414.168 72.5781C413.751 71.7353 413.543 70.7481 413.543 69.6165C413.543 68.4991 413.751 67.5142 414.168 66.6619C414.589 65.8097 415.176 65.1444 415.929 64.6662C416.687 64.188 417.572 63.9489 418.586 63.9489C419.201 63.9489 419.798 64.0507 420.375 64.2543C420.953 64.4579 421.471 64.7775 421.931 65.2131C422.39 65.6487 422.752 66.2145 423.017 66.9105C423.283 67.6018 423.415 68.4422 423.415 69.4318V70.1847H414.743V68.5938H421.334C421.334 68.035 421.221 67.5402 420.993 67.1094C420.766 66.6738 420.446 66.3305 420.034 66.0795C419.627 65.8286 419.149 65.7031 418.6 65.7031C418.003 65.7031 417.482 65.8499 417.037 66.1435C416.597 66.4323 416.256 66.8111 416.015 67.2798C415.778 67.7438 415.659 68.2481 415.659 68.7926V70.0355C415.659 70.7647 415.787 71.3849 416.043 71.8963C416.303 72.4077 416.666 72.7983 417.13 73.0682C417.594 73.3333 418.136 73.4659 418.756 73.4659C419.158 73.4659 419.525 73.4091 419.857 73.2955C420.188 73.1771 420.475 73.0019 420.716 72.7699C420.958 72.5379 421.142 72.2514 421.27 71.9105L423.28 72.2727C423.119 72.8646 422.83 73.383 422.414 73.8281C422.002 74.2685 421.483 74.6117 420.858 74.858C420.238 75.0994 419.53 75.2202 418.735 75.2202ZM443.316 65.1847H441.1C441.015 64.7112 440.856 64.2945 440.624 63.9347C440.392 63.5748 440.108 63.2694 439.772 63.0185C439.435 62.7675 439.059 62.5781 438.642 62.4503C438.23 62.3224 437.792 62.2585 437.328 62.2585C436.49 62.2585 435.74 62.4692 435.077 62.8906C434.419 63.312 433.898 63.9299 433.515 64.7443C433.136 65.5587 432.946 66.553 432.946 67.7273C432.946 68.911 433.136 69.91 433.515 70.7244C433.898 71.5388 434.421 72.1544 435.084 72.571C435.747 72.9877 436.493 73.196 437.321 73.196C437.781 73.196 438.216 73.1345 438.628 73.0114C439.045 72.8835 439.421 72.6965 439.757 72.4503C440.094 72.2041 440.378 71.9034 440.61 71.5483C440.846 71.1884 441.01 70.7765 441.1 70.3125L443.316 70.3196C443.197 71.0346 442.968 71.6927 442.627 72.294C442.291 72.8906 441.857 73.4067 441.327 73.8423C440.801 74.2732 440.2 74.607 439.523 74.8438C438.846 75.0805 438.107 75.1989 437.307 75.1989C436.048 75.1989 434.926 74.9006 433.941 74.304C432.956 73.7027 432.179 72.8433 431.611 71.7259C431.048 70.6084 430.766 69.2756 430.766 67.7273C430.766 66.1742 431.05 64.8414 431.618 63.7287C432.186 62.6113 432.963 61.7543 433.948 61.1577C434.933 60.5563 436.052 60.2557 437.307 60.2557C438.079 60.2557 438.799 60.367 439.466 60.5895C440.139 60.8073 440.742 61.1293 441.277 61.5554C441.812 61.9768 442.255 62.4929 442.605 63.1037C442.956 63.7098 443.193 64.4034 443.316 65.1847ZM448.946 75.2415C448.255 75.2415 447.63 75.1136 447.071 74.858C446.512 74.5975 446.07 74.2211 445.743 73.7287C445.421 73.2363 445.26 72.6326 445.26 71.9176C445.26 71.3021 445.378 70.7955 445.615 70.3977C445.852 70 446.171 69.6851 446.574 69.4531C446.976 69.2211 447.426 69.0459 447.923 68.9276C448.42 68.8092 448.927 68.7192 449.443 68.6577C450.097 68.5819 450.627 68.5204 451.034 68.473C451.441 68.4209 451.737 68.3381 451.922 68.2244C452.107 68.1108 452.199 67.9261 452.199 67.6705V67.6207C452.199 67.0005 452.024 66.5199 451.673 66.179C451.328 65.8381 450.812 65.6676 450.125 65.6676C449.41 65.6676 448.847 65.8262 448.435 66.1435C448.027 66.456 447.746 66.804 447.589 67.1875L445.594 66.733C445.83 66.0701 446.176 65.535 446.631 65.1278C447.09 64.7159 447.618 64.4176 448.214 64.233C448.811 64.0436 449.438 63.9489 450.097 63.9489C450.532 63.9489 450.994 64.0009 451.482 64.1051C451.974 64.2045 452.433 64.3892 452.859 64.6591C453.29 64.929 453.643 65.3149 453.918 65.8168C454.192 66.3139 454.33 66.9602 454.33 67.7557V75H452.256V73.5085H452.17C452.033 73.7831 451.827 74.053 451.553 74.3182C451.278 74.5833 450.925 74.8035 450.494 74.9787C450.063 75.1539 449.547 75.2415 448.946 75.2415ZM449.408 73.5369C449.995 73.5369 450.497 73.4209 450.913 73.1889C451.335 72.9569 451.654 72.6539 451.872 72.2798C452.095 71.901 452.206 71.4962 452.206 71.0653V69.6591C452.13 69.7348 451.983 69.8059 451.766 69.8722C451.553 69.9337 451.309 69.9882 451.034 70.0355C450.759 70.0781 450.492 70.1184 450.232 70.1562C449.971 70.1894 449.753 70.2178 449.578 70.2415C449.166 70.2936 448.79 70.3812 448.449 70.5043C448.113 70.6274 447.843 70.8049 447.639 71.0369C447.44 71.2642 447.341 71.5672 447.341 71.946C447.341 72.4716 447.535 72.8693 447.923 73.1392C448.312 73.4044 448.806 73.5369 449.408 73.5369ZM459.282 68.5227V75H457.158V64.0909H459.196V65.8665H459.331C459.582 65.2888 459.975 64.8248 460.51 64.4744C461.05 64.1241 461.73 63.9489 462.549 63.9489C463.292 63.9489 463.943 64.1051 464.502 64.4176C465.06 64.7254 465.494 65.1847 465.801 65.7955C466.109 66.4062 466.263 67.1615 466.263 68.0611V75H464.14V68.3168C464.14 67.526 463.934 66.9081 463.522 66.4631C463.11 66.0133 462.544 65.7884 461.824 65.7884C461.332 65.7884 460.894 65.8949 460.51 66.108C460.132 66.321 459.831 66.6335 459.608 67.0455C459.391 67.4527 459.282 67.9451 459.282 68.5227ZM473.706 75.2202C472.65 75.2202 471.741 74.9811 470.979 74.5028C470.221 74.0199 469.639 73.3546 469.232 72.5071C468.825 71.6596 468.621 70.6889 468.621 69.5952C468.621 68.4872 468.829 67.5095 469.246 66.6619C469.663 65.8097 470.25 65.1444 471.007 64.6662C471.765 64.188 472.658 63.9489 473.685 63.9489C474.514 63.9489 475.252 64.1027 475.901 64.4105C476.55 64.7135 477.073 65.1397 477.471 65.6889C477.873 66.2382 478.112 66.8797 478.188 67.6136H476.121C476.007 67.1023 475.747 66.6619 475.34 66.2926C474.937 65.9233 474.398 65.7386 473.721 65.7386C473.129 65.7386 472.61 65.8949 472.165 66.2074C471.725 66.5152 471.382 66.9555 471.135 67.5284C470.889 68.0966 470.766 68.7689 470.766 69.5455C470.766 70.3409 470.887 71.0275 471.128 71.6051C471.37 72.1828 471.711 72.6302 472.151 72.9474C472.596 73.2647 473.119 73.4233 473.721 73.4233C474.123 73.4233 474.488 73.3499 474.814 73.2031C475.146 73.0516 475.423 72.8362 475.645 72.5568C475.873 72.2775 476.031 71.9413 476.121 71.5483H478.188C478.112 72.2538 477.882 72.8835 477.499 73.4375C477.115 73.9915 476.602 74.4271 475.958 74.7443C475.319 75.0616 474.568 75.2202 473.706 75.2202ZM485.161 75.2202C484.086 75.2202 483.16 74.9905 482.384 74.5312C481.612 74.0672 481.015 73.4162 480.594 72.5781C480.177 71.7353 479.969 70.7481 479.969 69.6165C479.969 68.4991 480.177 67.5142 480.594 66.6619C481.015 65.8097 481.602 65.1444 482.355 64.6662C483.113 64.188 483.998 63.9489 485.011 63.9489C485.627 63.9489 486.223 64.0507 486.801 64.2543C487.379 64.4579 487.897 64.7775 488.357 65.2131C488.816 65.6487 489.178 66.2145 489.443 66.9105C489.708 67.6018 489.841 68.4422 489.841 69.4318V70.1847H481.169V68.5938H487.76C487.76 68.035 487.646 67.5402 487.419 67.1094C487.192 66.6738 486.872 66.3305 486.46 66.0795C486.053 65.8286 485.575 65.7031 485.026 65.7031C484.429 65.7031 483.908 65.8499 483.463 66.1435C483.023 66.4323 482.682 66.8111 482.44 67.2798C482.204 67.7438 482.085 68.2481 482.085 68.7926V70.0355C482.085 70.7647 482.213 71.3849 482.469 71.8963C482.729 72.4077 483.091 72.7983 483.555 73.0682C484.019 73.3333 484.562 73.4659 485.182 73.4659C485.584 73.4659 485.951 73.4091 486.283 73.2955C486.614 73.1771 486.901 73.0019 487.142 72.7699C487.384 72.5379 487.568 72.2514 487.696 71.9105L489.706 72.2727C489.545 72.8646 489.256 73.383 488.839 73.8281C488.428 74.2685 487.909 74.6117 487.284 74.858C486.664 75.0994 485.956 75.2202 485.161 75.2202ZM494.321 60.4545V75H492.197V60.4545H494.321ZM499.301 60.4545V75H497.178V60.4545H499.301ZM505.333 75.2415C504.641 75.2415 504.016 75.1136 503.458 74.858C502.899 74.5975 502.456 74.2211 502.13 73.7287C501.808 73.2363 501.647 72.6326 501.647 71.9176C501.647 71.3021 501.765 70.7955 502.002 70.3977C502.239 70 502.558 69.6851 502.961 69.4531C503.363 69.2211 503.813 69.0459 504.31 68.9276C504.807 68.8092 505.314 68.7192 505.83 68.6577C506.483 68.5819 507.014 68.5204 507.421 68.473C507.828 68.4209 508.124 68.3381 508.309 68.2244C508.493 68.1108 508.586 67.9261 508.586 67.6705V67.6207C508.586 67.0005 508.41 66.5199 508.06 66.179C507.714 65.8381 507.198 65.6676 506.512 65.6676C505.797 65.6676 505.233 65.8262 504.821 66.1435C504.414 66.456 504.132 66.804 503.976 67.1875L501.98 66.733C502.217 66.0701 502.563 65.535 503.017 65.1278C503.477 64.7159 504.005 64.4176 504.601 64.233C505.198 64.0436 505.825 63.9489 506.483 63.9489C506.919 63.9489 507.381 64.0009 507.868 64.1051C508.361 64.2045 508.82 64.3892 509.246 64.6591C509.677 64.929 510.03 65.3149 510.304 65.8168C510.579 66.3139 510.716 66.9602 510.716 67.7557V75H508.642V73.5085H508.557C508.42 73.7831 508.214 74.053 507.939 74.3182C507.665 74.5833 507.312 74.8035 506.881 74.9787C506.45 75.1539 505.934 75.2415 505.333 75.2415ZM505.794 73.5369C506.382 73.5369 506.883 73.4209 507.3 73.1889C507.721 72.9569 508.041 72.6539 508.259 72.2798C508.481 71.901 508.593 71.4962 508.593 71.0653V69.6591C508.517 69.7348 508.37 69.8059 508.152 69.8722C507.939 69.9337 507.695 69.9882 507.421 70.0355C507.146 70.0781 506.879 70.1184 506.618 70.1562C506.358 70.1894 506.14 70.2178 505.965 70.2415C505.553 70.2936 505.176 70.3812 504.836 70.5043C504.499 70.6274 504.23 70.8049 504.026 71.0369C503.827 71.2642 503.728 71.5672 503.728 71.946C503.728 72.4716 503.922 72.8693 504.31 73.1392C504.698 73.4044 505.193 73.5369 505.794 73.5369ZM518.637 64.0909V65.7955H512.678V64.0909H518.637ZM514.276 61.4773H516.4V71.7969C516.4 72.2088 516.461 72.5189 516.585 72.7273C516.708 72.9309 516.866 73.0705 517.06 73.1463C517.259 73.2173 517.475 73.2528 517.707 73.2528C517.877 73.2528 518.026 73.241 518.154 73.2173C518.282 73.1937 518.381 73.1747 518.452 73.1605L518.836 74.9148C518.713 74.9621 518.538 75.0095 518.31 75.0568C518.083 75.1089 517.799 75.1373 517.458 75.142C516.899 75.1515 516.379 75.0521 515.896 74.8438C515.413 74.6354 515.022 74.3134 514.724 73.8778C514.425 73.4422 514.276 72.8954 514.276 72.2372V61.4773ZM520.986 75V64.0909H523.11V75H520.986ZM522.059 62.4077C521.689 62.4077 521.372 62.2846 521.107 62.0384C520.846 61.7874 520.716 61.4891 520.716 61.1435C520.716 60.7931 520.846 60.4948 521.107 60.2486C521.372 59.9976 521.689 59.8722 522.059 59.8722C522.428 59.8722 522.743 59.9976 523.003 60.2486C523.268 60.4948 523.401 60.7931 523.401 61.1435C523.401 61.4891 523.268 61.7874 523.003 62.0384C522.743 62.2846 522.428 62.4077 522.059 62.4077ZM530.562 75.2202C529.539 75.2202 528.647 74.9858 527.884 74.517C527.122 74.0483 526.53 73.3925 526.109 72.5497C525.687 71.7069 525.477 70.7221 525.477 69.5952C525.477 68.4635 525.687 67.474 526.109 66.6264C526.53 65.7789 527.122 65.1207 527.884 64.652C528.647 64.1832 529.539 63.9489 530.562 63.9489C531.585 63.9489 532.477 64.1832 533.239 64.652C534.002 65.1207 534.594 65.7789 535.015 66.6264C535.436 67.474 535.647 68.4635 535.647 69.5952C535.647 70.7221 535.436 71.7069 535.015 72.5497C534.594 73.3925 534.002 74.0483 533.239 74.517C532.477 74.9858 531.585 75.2202 530.562 75.2202ZM530.569 73.4375C531.232 73.4375 531.781 73.2623 532.217 72.9119C532.652 72.5616 532.974 72.0952 533.183 71.5128C533.396 70.9304 533.502 70.2888 533.502 69.5881C533.502 68.892 533.396 68.2528 533.183 67.6705C532.974 67.0833 532.652 66.6122 532.217 66.2571C531.781 65.902 531.232 65.7244 530.569 65.7244C529.901 65.7244 529.347 65.902 528.907 66.2571C528.471 66.6122 528.147 67.0833 527.934 67.6705C527.726 68.2528 527.621 68.892 527.621 69.5881C527.621 70.2888 527.726 70.9304 527.934 71.5128C528.147 72.0952 528.471 72.5616 528.907 72.9119C529.347 73.2623 529.901 73.4375 530.569 73.4375ZM540.141 68.5227V75H538.017V64.0909H540.056V65.8665H540.191C540.442 65.2888 540.835 64.8248 541.37 64.4744C541.909 64.1241 542.589 63.9489 543.408 63.9489C544.151 63.9489 544.802 64.1051 545.361 64.4176C545.92 64.7254 546.353 65.1847 546.661 65.7955C546.969 66.4062 547.123 67.1615 547.123 68.0611V75H544.999V68.3168C544.999 67.526 544.793 66.9081 544.381 66.4631C543.969 66.0133 543.403 65.7884 542.684 65.7884C542.191 65.7884 541.753 65.8949 541.37 66.108C540.991 66.321 540.69 66.6335 540.468 67.0455C540.25 67.4527 540.141 67.9451 540.141 68.5227Z" fill="white"></path><circle cx="358" cy="68" r="9" fill="white"></circle><circle cx="358" cy="68" r="5" fill="black"></circle><g filter="url(#filter3_d_2359_7159)"><rect x="88" y="34" width="213" height="67" rx="33.5" fill="url(#paint3_linear_2359_7159)"></rect></g><path d="M152.338 60.4545V75H150.321L142.928 64.3324H142.793V75H140.598V60.4545H142.629L150.03 71.1364H150.165V60.4545H152.338ZM159.964 75.2202C158.941 75.2202 158.049 74.9858 157.287 74.517C156.524 74.0483 155.932 73.3925 155.511 72.5497C155.09 71.7069 154.879 70.7221 154.879 69.5952C154.879 68.4635 155.09 67.474 155.511 66.6264C155.932 65.7789 156.524 65.1207 157.287 64.652C158.049 64.1832 158.941 63.9489 159.964 63.9489C160.987 63.9489 161.879 64.1832 162.642 64.652C163.404 65.1207 163.996 65.7789 164.417 66.6264C164.839 67.474 165.049 68.4635 165.049 69.5952C165.049 70.7221 164.839 71.7069 164.417 72.5497C163.996 73.3925 163.404 74.0483 162.642 74.517C161.879 74.9858 160.987 75.2202 159.964 75.2202ZM159.971 73.4375C160.634 73.4375 161.183 73.2623 161.619 72.9119C162.055 72.5616 162.377 72.0952 162.585 71.5128C162.798 70.9304 162.904 70.2888 162.904 69.5881C162.904 68.892 162.798 68.2528 162.585 67.6705C162.377 67.0833 162.055 66.6122 161.619 66.2571C161.183 65.902 160.634 65.7244 159.971 65.7244C159.304 65.7244 158.75 65.902 158.309 66.2571C157.874 66.6122 157.549 67.0833 157.336 67.6705C157.128 68.2528 157.024 68.892 157.024 69.5881C157.024 70.2888 157.128 70.9304 157.336 71.5128C157.549 72.0952 157.874 72.5616 158.309 72.9119C158.75 73.2623 159.304 73.4375 159.971 73.4375ZM175.078 60.4545V75H172.883V60.4545H175.078ZM180.227 68.5227V75H178.103V64.0909H180.142V65.8665H180.277C180.528 65.2888 180.921 64.8248 181.456 64.4744C181.995 64.1241 182.675 63.9489 183.494 63.9489C184.237 63.9489 184.888 64.1051 185.447 64.4176C186.006 64.7254 186.439 65.1847 186.747 65.7955C187.055 66.4062 187.208 67.1615 187.208 68.0611V75H185.085V68.3168C185.085 67.526 184.879 66.9081 184.467 66.4631C184.055 66.0133 183.489 65.7884 182.77 65.7884C182.277 65.7884 181.839 65.8949 181.456 66.108C181.077 66.321 180.776 66.6335 180.554 67.0455C180.336 67.4527 180.227 67.9451 180.227 68.5227ZM198.231 66.7543L196.306 67.0952C196.226 66.849 196.098 66.6146 195.923 66.392C195.752 66.1695 195.52 65.9872 195.227 65.8452C194.933 65.7031 194.566 65.6321 194.126 65.6321C193.525 65.6321 193.023 65.767 192.62 66.0369C192.218 66.3021 192.017 66.6454 192.017 67.0668C192.017 67.4313 192.152 67.7249 192.422 67.9474C192.691 68.17 193.127 68.3523 193.728 68.4943L195.461 68.892C196.465 69.1241 197.213 69.4815 197.706 69.9645C198.198 70.4474 198.444 71.0748 198.444 71.8466C198.444 72.5 198.255 73.0824 197.876 73.5938C197.502 74.1004 196.979 74.4981 196.306 74.7869C195.639 75.0758 194.865 75.2202 193.984 75.2202C192.762 75.2202 191.766 74.9598 190.994 74.4389C190.222 73.9134 189.749 73.1676 189.574 72.2017L191.626 71.8892C191.754 72.4242 192.017 72.8291 192.414 73.1037C192.812 73.3736 193.331 73.5085 193.97 73.5085C194.666 73.5085 195.222 73.3641 195.639 73.0753C196.056 72.7817 196.264 72.4242 196.264 72.0028C196.264 71.6619 196.136 71.3755 195.88 71.1435C195.629 70.9115 195.243 70.7363 194.723 70.6179L192.876 70.2131C191.858 69.9811 191.105 69.6117 190.618 69.1051C190.135 68.5985 189.893 67.9569 189.893 67.1804C189.893 66.5365 190.073 65.973 190.433 65.4901C190.793 65.0071 191.29 64.6307 191.924 64.3608C192.559 64.0862 193.286 63.9489 194.105 63.9489C195.284 63.9489 196.212 64.2045 196.889 64.7159C197.566 65.2225 198.013 65.902 198.231 66.7543ZM200.779 79.0909V64.0909H202.853V65.8594H203.031C203.154 65.6321 203.331 65.3693 203.563 65.071C203.795 64.7727 204.117 64.5123 204.529 64.2898C204.941 64.0625 205.486 63.9489 206.163 63.9489C207.043 63.9489 207.829 64.1714 208.521 64.6165C209.212 65.0616 209.754 65.7031 210.147 66.5412C210.545 67.3793 210.744 68.3878 210.744 69.5668C210.744 70.7457 210.547 71.7566 210.154 72.5994C209.761 73.4375 209.221 74.0838 208.535 74.5384C207.848 74.9882 207.065 75.2131 206.184 75.2131C205.521 75.2131 204.979 75.1018 204.558 74.8793C204.141 74.6567 203.814 74.3963 203.577 74.098C203.341 73.7997 203.158 73.5346 203.031 73.3026H202.903V79.0909H200.779ZM202.86 69.5455C202.86 70.3125 202.971 70.9848 203.194 71.5625C203.416 72.1402 203.738 72.5923 204.16 72.919C204.581 73.241 205.097 73.402 205.708 73.402C206.343 73.402 206.873 73.2339 207.299 72.8977C207.725 72.5568 208.047 72.0952 208.265 71.5128C208.487 70.9304 208.599 70.2746 208.599 69.5455C208.599 68.8258 208.49 68.1795 208.272 67.6065C208.059 67.0336 207.737 66.5814 207.306 66.25C206.88 65.9186 206.347 65.7528 205.708 65.7528C205.093 65.7528 204.572 65.9115 204.146 66.2287C203.724 66.5459 203.405 66.9886 203.187 67.5568C202.969 68.125 202.86 68.7879 202.86 69.5455ZM217.825 75.2202C216.75 75.2202 215.824 74.9905 215.048 74.5312C214.276 74.0672 213.679 73.4162 213.258 72.5781C212.841 71.7353 212.633 70.7481 212.633 69.6165C212.633 68.4991 212.841 67.5142 213.258 66.6619C213.679 65.8097 214.266 65.1444 215.019 64.6662C215.777 64.188 216.662 63.9489 217.675 63.9489C218.291 63.9489 218.888 64.0507 219.465 64.2543C220.043 64.4579 220.561 64.7775 221.021 65.2131C221.48 65.6487 221.842 66.2145 222.107 66.9105C222.372 67.6018 222.505 68.4422 222.505 69.4318V70.1847H213.833V68.5938H220.424C220.424 68.035 220.31 67.5402 220.083 67.1094C219.856 66.6738 219.536 66.3305 219.124 66.0795C218.717 65.8286 218.239 65.7031 217.69 65.7031C217.093 65.7031 216.572 65.8499 216.127 66.1435C215.687 66.4323 215.346 66.8111 215.104 67.2798C214.868 67.7438 214.749 68.2481 214.749 68.7926V70.0355C214.749 70.7647 214.877 71.3849 215.133 71.8963C215.393 72.4077 215.755 72.7983 216.219 73.0682C216.683 73.3333 217.226 73.4659 217.846 73.4659C218.248 73.4659 218.615 73.4091 218.947 73.2955C219.278 73.1771 219.565 73.0019 219.806 72.7699C220.048 72.5379 220.232 72.2514 220.36 71.9105L222.37 72.2727C222.209 72.8646 221.92 73.383 221.504 73.8281C221.092 74.2685 220.573 74.6117 219.948 74.858C219.328 75.0994 218.62 75.2202 217.825 75.2202ZM229.456 75.2202C228.4 75.2202 227.491 74.9811 226.729 74.5028C225.971 74.0199 225.389 73.3546 224.982 72.5071C224.575 71.6596 224.371 70.6889 224.371 69.5952C224.371 68.4872 224.579 67.5095 224.996 66.6619C225.413 65.8097 226 65.1444 226.757 64.6662C227.515 64.188 228.408 63.9489 229.435 63.9489C230.264 63.9489 231.002 64.1027 231.651 64.4105C232.3 64.7135 232.823 65.1397 233.221 65.6889C233.623 66.2382 233.862 66.8797 233.938 67.6136H231.871C231.757 67.1023 231.497 66.6619 231.09 66.2926C230.687 65.9233 230.148 65.7386 229.471 65.7386C228.879 65.7386 228.36 65.8949 227.915 66.2074C227.475 66.5152 227.132 66.9555 226.885 67.5284C226.639 68.0966 226.516 68.7689 226.516 69.5455C226.516 70.3409 226.637 71.0275 226.878 71.6051C227.12 72.1828 227.461 72.6302 227.901 72.9474C228.346 73.2647 228.869 73.4233 229.471 73.4233C229.873 73.4233 230.238 73.3499 230.564 73.2031C230.896 73.0516 231.173 72.8362 231.395 72.5568C231.623 72.2775 231.781 71.9413 231.871 71.5483H233.938C233.862 72.2538 233.632 72.8835 233.249 73.4375C232.865 73.9915 232.352 74.4271 231.708 74.7443C231.069 75.0616 230.318 75.2202 229.456 75.2202ZM241.301 64.0909V65.7955H235.342V64.0909H241.301ZM236.94 61.4773H239.064V71.7969C239.064 72.2088 239.125 72.5189 239.249 72.7273C239.372 72.9309 239.53 73.0705 239.724 73.1463C239.923 73.2173 240.139 73.2528 240.371 73.2528C240.541 73.2528 240.69 73.241 240.818 73.2173C240.946 73.1937 241.045 73.1747 241.116 73.1605L241.5 74.9148C241.377 74.9621 241.202 75.0095 240.974 75.0568C240.747 75.1089 240.463 75.1373 240.122 75.142C239.563 75.1515 239.043 75.0521 238.56 74.8438C238.077 74.6354 237.686 74.3134 237.388 73.8778C237.089 73.4422 236.94 72.8954 236.94 72.2372V61.4773ZM243.65 75V64.0909H245.774V75H243.65ZM244.723 62.4077C244.353 62.4077 244.036 62.2846 243.771 62.0384C243.511 61.7874 243.38 61.4891 243.38 61.1435C243.38 60.7931 243.511 60.4948 243.771 60.2486C244.036 59.9976 244.353 59.8722 244.723 59.8722C245.092 59.8722 245.407 59.9976 245.667 60.2486C245.932 60.4948 246.065 60.7931 246.065 61.1435C246.065 61.4891 245.932 61.7874 245.667 62.0384C245.407 62.2846 245.092 62.4077 244.723 62.4077ZM253.226 75.2202C252.203 75.2202 251.311 74.9858 250.548 74.517C249.786 74.0483 249.194 73.3925 248.773 72.5497C248.351 71.7069 248.141 70.7221 248.141 69.5952C248.141 68.4635 248.351 67.474 248.773 66.6264C249.194 65.7789 249.786 65.1207 250.548 64.652C251.311 64.1832 252.203 63.9489 253.226 63.9489C254.249 63.9489 255.141 64.1832 255.903 64.652C256.666 65.1207 257.258 65.7789 257.679 66.6264C258.1 67.474 258.311 68.4635 258.311 69.5952C258.311 70.7221 258.1 71.7069 257.679 72.5497C257.258 73.3925 256.666 74.0483 255.903 74.517C255.141 74.9858 254.249 75.2202 253.226 75.2202ZM253.233 73.4375C253.896 73.4375 254.445 73.2623 254.881 72.9119C255.316 72.5616 255.638 72.0952 255.847 71.5128C256.06 70.9304 256.166 70.2888 256.166 69.5881C256.166 68.892 256.06 68.2528 255.847 67.6705C255.638 67.0833 255.316 66.6122 254.881 66.2571C254.445 65.902 253.896 65.7244 253.233 65.7244C252.565 65.7244 252.011 65.902 251.571 66.2571C251.135 66.6122 250.811 67.0833 250.598 67.6705C250.39 68.2528 250.286 68.892 250.286 69.5881C250.286 70.2888 250.39 70.9304 250.598 71.5128C250.811 72.0952 251.135 72.5616 251.571 72.9119C252.011 73.2623 252.565 73.4375 253.233 73.4375ZM262.805 68.5227V75H260.681V64.0909H262.72V65.8665H262.855C263.106 65.2888 263.499 64.8248 264.034 64.4744C264.574 64.1241 265.253 63.9489 266.072 63.9489C266.815 63.9489 267.467 64.1051 268.025 64.4176C268.584 64.7254 269.017 65.1847 269.325 65.7955C269.633 66.4062 269.787 67.1615 269.787 68.0611V75H267.663V68.3168C267.663 67.526 267.457 66.9081 267.045 66.4631C266.633 66.0133 266.067 65.7884 265.348 65.7884C264.855 65.7884 264.417 65.8949 264.034 66.108C263.655 66.321 263.354 66.6335 263.132 67.0455C262.914 67.4527 262.805 67.9451 262.805 68.5227ZM280.809 66.7543L278.885 67.0952C278.804 66.849 278.676 66.6146 278.501 66.392C278.331 66.1695 278.099 65.9872 277.805 65.8452C277.511 65.7031 277.145 65.6321 276.704 65.6321C276.103 65.6321 275.601 65.767 275.199 66.0369C274.796 66.3021 274.595 66.6454 274.595 67.0668C274.595 67.4313 274.73 67.7249 275 67.9474C275.27 68.17 275.705 68.3523 276.306 68.4943L278.039 68.892C279.043 69.1241 279.791 69.4815 280.284 69.9645C280.776 70.4474 281.022 71.0748 281.022 71.8466C281.022 72.5 280.833 73.0824 280.454 73.5938C280.08 74.1004 279.557 74.4981 278.885 74.7869C278.217 75.0758 277.443 75.2202 276.562 75.2202C275.341 75.2202 274.344 74.9598 273.572 74.4389C272.8 73.9134 272.327 73.1676 272.152 72.2017L274.204 71.8892C274.332 72.4242 274.595 72.8291 274.993 73.1037C275.39 73.3736 275.909 73.5085 276.548 73.5085C277.244 73.5085 277.8 73.3641 278.217 73.0753C278.634 72.7817 278.842 72.4242 278.842 72.0028C278.842 71.6619 278.714 71.3755 278.458 71.1435C278.208 70.9115 277.822 70.7363 277.301 70.6179L275.454 70.2131C274.436 69.9811 273.683 69.6117 273.196 69.1051C272.713 68.5985 272.471 67.9569 272.471 67.1804C272.471 66.5365 272.651 65.973 273.011 65.4901C273.371 65.0071 273.868 64.6307 274.502 64.3608C275.137 64.0862 275.864 63.9489 276.683 63.9489C277.862 63.9489 278.79 64.2045 279.467 64.7159C280.144 65.2225 280.592 65.902 280.809 66.7543Z" fill="white"></path><circle cx="115" cy="68" r="9" fill="white"></circle><circle cx="115" cy="68" r="5" fill="black"></circle><defs><filter id="filter0_d_2359_7159" x="574" y="0" width="279" height="147" filterUnits="userSpaceOnUse" color-interpolation-filters="sRGB"><feGaussianBlur stdDeviation="20"></feGaussianBlur></filter><filter id="filter1_d_2359_7159" x="559" y="0.109375" width="294" height="147" filterUnits="userSpaceOnUse" color-interpolation-filters="sRGB"><feGaussianBlur stdDeviation="20"></feGaussianBlur></filter><filter id="filter2_d_2359_7159" x="290" y="0" width="317" height="147" filterUnits="userSpaceOnUse" color-interpolation-filters="sRGB"><feGaussianBlur stdDeviation="20"></feGaussianBlur></filter><filter id="filter3_d_2359_7159" x="46" y="0" width="293" height="147" filterUnits="userSpaceOnUse" color-interpolation-filters="sRGB"><feGaussianBlur stdDeviation="20"></feGaussianBlur></filter><linearGradient id="paint0_linear_2359_7159" x1="687.39" y1="43.5714" x2="737.44" y2="93.5619" gradientUnits="userSpaceOnUse"><stop stop-color="#3B634C"></stop><stop offset="0.47" stop-color="#BC9F4C"></stop></linearGradient><linearGradient id="paint1_linear_2359_7159" x1="677.771" y1="43.6808" x2="727.694" y2="97.3024" gradientUnits="userSpaceOnUse"><stop stop-color="#3B634C"></stop><stop offset="1" stop-color="#BC9F4C"></stop></linearGradient><linearGradient id="paint2_linear_2359_7159" x1="417.022" y1="43.5714" x2="466.328" y2="102.222" gradientUnits="userSpaceOnUse"><stop stop-color="#3B634C"></stop><stop offset="1" stop-color="#BC9F4C"></stop></linearGradient><linearGradient id="paint3_linear_2359_7159" x1="164.413" y1="43.5714" x2="214.351" y2="96.9597" gradientUnits="userSpaceOnUse"><stop stop-color="#3B634C"></stop><stop offset="1" stop-color="#BC9F4C"></stop></linearGradient></defs></svg>