<svg xmlns="http://www.w3.org/2000/svg" width="47" height="69" viewBox="0 0 47 69" fill="none"><path fill-rule="evenodd" clip-rule="evenodd" d="M44.864 25.8692H28.5765L38.2858 3.00514C38.4251 2.67709 38.4816 2.31925 38.4501 1.96375C38.4186 1.60825 38.3001 1.26621 38.1054 0.968314C37.9106 0.670421 37.6456 0.426004 37.3341 0.256997C37.0226 0.0879905 36.6745 -0.000316709 36.3209 8.53468e-07H14.9629C14.5447 -0.000374637 14.1355 0.123226 13.7862 0.355464C13.4369 0.587703 13.1628 0.918356 12.998 1.30639L0.18326 31.4871C0.043936 31.8151 -0.01251 32.173 0.0189857 32.5285C0.0504814 32.884 0.168933 33.226 0.363712 33.5239C0.558492 33.8218 0.823502 34.0662 1.13496 34.2352C1.44642 34.4042 1.79458 34.4925 2.14819 34.4922H12.7161L0.166173 66.0267C-0.688145 68.1696 1.94742 69.9847 3.61334 68.3981L25.0738 47.9485L46.2523 29.6633C46.5841 29.3769 46.821 28.9947 46.9311 28.5682C47.0411 28.1418 47.019 27.6915 46.8677 27.2781C46.7165 26.8647 46.4433 26.508 46.0851 26.2561C45.7268 26.0042 45.3007 25.8691 44.864 25.8692ZM25.3386 30.1807H39.0803L22.2161 44.745L7.75678 58.5204L17.8591 33.1384C17.989 32.8113 18.0374 32.4571 18.0002 32.1067C17.963 31.7564 17.8413 31.4205 17.6457 31.1287C17.4501 30.8368 17.1866 30.5978 16.8783 30.4325C16.5699 30.2672 16.2262 30.1808 15.8771 30.1807H5.38605L16.3726 4.31153H33.083L23.3737 27.1756C23.2344 27.5036 23.1779 27.8614 23.2094 28.2169C23.2409 28.5724 23.3594 28.9145 23.5541 29.2124C23.7489 29.5103 24.0139 29.7547 24.3254 29.9237C24.6369 30.0927 24.985 30.181 25.3386 30.1807Z" fill="white"></path></svg>