<svg xmlns="http://www.w3.org/2000/svg" width="59" height="71" viewBox="0 0 59 71" fill="none"><path d="M19.6508 0C13.4331 0 8.42175 5.01138 8.42175 11.229C8.42175 17.4466 13.4331 22.458 19.6508 22.458C23.8123 22.458 27.4036 20.1936 29.3445 16.8435H46.3196C46.6925 16.8545 47.0598 16.7119 47.3285 16.4487L50.1357 13.6415C50.3989 13.3728 50.5415 13.0055 50.5305 12.6326V9.82538C50.5415 9.45254 50.3989 9.08518 50.1357 8.81652L47.3285 6.00927C47.0598 5.74609 46.6925 5.60354 46.3196 5.6145H43.5124C43.1395 5.60354 42.7722 5.74609 42.5035 6.00927L41.4069 7.10585L40.3104 6.00927C40.0417 5.74609 39.6743 5.60354 39.3015 5.6145H36.4943C36.2146 5.60902 35.9405 5.68578 35.7047 5.83382L34.3888 6.71108L33.0729 5.83382C32.8372 5.68578 32.563 5.60902 32.2834 5.6145H29.3445C27.4036 2.26444 23.8123 0 19.6508 0ZM19.6508 2.80725C24.3825 2.80725 28.0725 6.49725 28.0725 11.229C28.0725 15.9608 24.3825 19.6508 19.6508 19.6508C14.919 19.6508 11.229 15.9608 11.229 11.229C11.229 6.49725 14.919 2.80725 19.6508 2.80725ZM16.8435 8.42175C15.2918 8.42175 14.0363 9.67734 14.0363 11.229C14.0363 12.7807 15.2918 14.0363 16.8435 14.0363C18.3952 14.0363 19.6508 12.7807 19.6508 11.229C19.6508 9.67734 18.3952 8.42175 16.8435 8.42175ZM30.5288 8.42175H31.8447L33.5993 9.60606C34.0763 9.92955 34.7013 9.92955 35.1784 9.60606L36.9329 8.42175H38.6874L40.3981 10.1324C40.6613 10.4066 41.0286 10.5601 41.4069 10.5601C41.7853 10.5601 42.1526 10.4066 42.4158 10.1324L44.1265 8.42175H45.7055L47.7233 10.4395V12.0185L45.7055 14.0363H30.5288C30.7591 13.1371 30.8798 12.1995 30.8798 11.229C30.8798 10.2585 30.7591 9.32095 30.5288 8.42175ZM16.4049 25.2653C13.5976 25.2653 11.0316 26.9869 9.95697 29.6077C9.95148 29.6297 9.91859 29.6297 9.9131 29.6516L5.78995 39.3015H4.21088C1.90257 39.3015 0 41.2041 0 43.5124C0 45.8207 1.90257 47.7233 4.21088 47.7233V65.9704C4.21088 68.2787 6.11345 70.1813 8.42175 70.1813H12.6326C14.9409 70.1813 16.8435 68.2787 16.8435 65.9704V64.5668H42.1088V65.9704C42.1088 68.2787 44.0113 70.1813 46.3196 70.1813H50.5305C52.8388 70.1813 54.7414 68.2787 54.7414 65.9704V47.7233C57.0497 47.7233 58.9523 45.8207 58.9523 43.5124C58.9523 41.2041 57.0497 39.3015 54.7414 39.3015H53.1623L49.0392 29.6516C49.0337 29.6297 49.0008 29.6297 48.9953 29.6077C47.9206 26.9869 45.3546 25.2653 42.5474 25.2653H16.4049ZM16.4049 28.0725H42.5474C44.2087 28.0725 45.7823 29.1472 46.4074 30.7043L46.4512 30.7482L50.3989 40.0033L49.0392 40.9244V40.9683C47.8768 41.7798 46.6322 42.1088 45.1792 42.1088H13.7731C12.3201 42.1088 11.0755 41.7798 9.9131 40.9683V40.9244L8.55334 40.0033L12.501 30.7482L12.5449 30.7043C13.17 29.1472 14.7435 28.0725 16.4049 28.0725ZM4.21088 42.1088H6.57949L8.33403 43.2931V43.2492H8.37789C10.0173 44.3842 11.8705 44.916 13.7731 44.916H45.1792C47.0818 44.916 48.935 44.3842 50.5744 43.2492C50.5853 43.2437 50.6073 43.2547 50.6182 43.2492V43.2931L52.3728 42.1088H54.7414C55.52 42.1088 56.145 42.7338 56.145 43.5124C56.145 44.291 55.52 44.916 54.7414 44.916H51.9341V61.7595H7.01813V44.916H4.21088C3.4323 44.916 2.80725 44.291 2.80725 43.5124C2.80725 42.7338 3.4323 42.1088 4.21088 42.1088ZM14.7381 49.1269C12.0405 49.1269 9.82538 51.342 9.82538 54.0396C9.82538 56.7372 12.0405 58.9523 14.7381 58.9523C17.4357 58.9523 19.6508 56.7372 19.6508 54.0396C19.6508 51.342 17.4357 49.1269 14.7381 49.1269ZM44.2142 49.1269C41.5166 49.1269 39.3015 51.342 39.3015 54.0396C39.3015 56.7372 41.5166 58.9523 44.2142 58.9523C46.9118 58.9523 49.1269 56.7372 49.1269 54.0396C49.1269 51.342 46.9118 49.1269 44.2142 49.1269ZM14.7381 51.9341C15.9662 51.9341 16.8435 52.8114 16.8435 54.0396C16.8435 55.2677 15.9662 56.145 14.7381 56.145C13.5099 56.145 12.6326 55.2677 12.6326 54.0396C12.6326 52.8114 13.5099 51.9341 14.7381 51.9341ZM44.2142 51.9341C45.4424 51.9341 46.3196 52.8114 46.3196 54.0396C46.3196 55.2677 45.4424 56.145 44.2142 56.145C42.986 56.145 42.1088 55.2677 42.1088 54.0396C42.1088 52.8114 42.986 51.9341 44.2142 51.9341ZM7.01813 64.5668H14.0363V65.9704C14.0363 66.749 13.4112 67.374 12.6326 67.374H8.42175C7.64318 67.374 7.01813 66.749 7.01813 65.9704V64.5668ZM44.916 64.5668H51.9341V65.9704C51.9341 66.749 51.3091 67.374 50.5305 67.374H46.3196C45.5411 67.374 44.916 66.749 44.916 65.9704V64.5668Z" fill="black"></path></svg>