<svg xmlns="http://www.w3.org/2000/svg" width="20" height="21" viewBox="0 0 20 21" fill="none"><path d="M20 12.8903L17.3448 6.99219L14.4667 8.28431L14.6592 8.71501C14.0461 8.91263 13.3722 8.95824 12.6881 8.84676C12.2422 8.77582 11.7912 8.77582 11.3504 8.84676C11.0008 8.9025 10.6511 9.00891 10.3218 9.15586C10.1697 9.22173 10.0228 9.3028 9.87585 9.39401L8.59387 10.0223C8.39625 9.98687 8.19863 9.96153 8.00101 9.9514C7.30175 9.92099 6.64302 9.73858 6.0755 9.41935L6.34913 9.04438L3.78009 7.19487L0 12.4444L2.55891 14.2889L2.83253 13.9139C3.31898 14.3497 3.69901 14.9172 3.9473 15.5709C3.96757 15.6266 3.98784 15.6773 4.01317 15.733L3.68888 16.1789C3.36458 16.6299 3.46592 17.2633 3.9169 17.5876C4.05878 17.6889 4.22599 17.7548 4.39321 17.77C4.39321 17.8207 4.39828 17.8713 4.40334 17.922C4.44895 18.1855 4.59083 18.4186 4.80872 18.5807C4.981 18.7074 5.18875 18.7733 5.3965 18.7733C5.42691 18.7733 5.45224 18.7733 5.48265 18.7682C5.53838 18.9912 5.67013 19.1989 5.87281 19.3459C6.05016 19.4726 6.25792 19.5384 6.4606 19.5384C6.56701 19.5384 6.67342 19.5232 6.77477 19.4878C6.84571 19.6448 6.95718 19.7816 7.09906 19.883C7.27135 20.0097 7.4791 20.0755 7.68685 20.0755C7.74259 20.0755 7.79833 20.0705 7.849 20.0603C8.11756 20.0147 8.35065 19.8729 8.50773 19.655L8.71041 19.3712L9.67824 19.9286C9.85052 20.0299 10.0431 20.0755 10.2255 20.0755C10.5244 20.0755 10.8133 19.9539 11.016 19.7208C11.1274 19.5891 11.2085 19.4371 11.2491 19.2699C11.4467 19.3357 11.6544 19.3509 11.8672 19.3155C12.2118 19.2597 12.5108 19.0722 12.7135 18.7885C12.8452 18.601 12.9313 18.3831 12.9516 18.1602C12.9617 18.0588 12.9617 17.9575 12.9465 17.8612C13.3012 17.8409 13.6407 17.6839 13.8738 17.4001C14.0714 17.1619 14.1728 16.8731 14.1728 16.5691C14.2437 16.5741 14.3197 16.5691 14.3957 16.5539C14.6744 16.5083 14.9177 16.3563 15.0798 16.1282C15.2166 15.9357 15.3028 15.7127 15.3281 15.4746C15.3281 15.4644 15.3281 15.4492 15.3332 15.4391C15.4041 15.3479 15.47 15.2516 15.5308 15.1553C15.9007 14.5676 16.3821 14.0963 16.9344 13.767L17.1219 14.1774L20 12.8903ZM19.0626 12.5306L17.4816 13.24L15.4092 8.63394L16.9901 7.92454L19.0626 12.5306ZM3.94223 8.18803L5.3509 9.20146L2.5133 13.1336L2.39676 13.2957L0.988092 12.2823L3.94223 8.18803ZM4.26653 16.5944L4.70737 15.9813L4.73271 15.9458C4.77831 15.8799 4.84925 15.8394 4.92526 15.8242C4.94046 15.8242 4.95566 15.8191 4.9658 15.8191C4.97086 15.8191 4.97086 15.8191 4.97593 15.8191C4.99113 15.8191 5.00127 15.8191 5.01647 15.8242C5.02153 15.8242 5.02154 15.8242 5.0266 15.8242C5.03674 15.8242 5.04687 15.8293 5.06207 15.8343C5.06207 15.8343 5.06714 15.8343 5.07221 15.8343C5.08234 15.8394 5.09754 15.8445 5.10768 15.8495C5.11274 15.8495 5.11274 15.8546 5.11781 15.8546C5.12794 15.8597 5.14315 15.8698 5.15328 15.8749C5.18368 15.9002 5.21409 15.9256 5.23435 15.961C5.25969 16.0066 5.27489 16.0573 5.27996 16.108C5.27996 16.1232 5.27996 16.1333 5.27996 16.1485C5.27996 16.1637 5.27489 16.1789 5.26982 16.189C5.26476 16.2144 5.25462 16.2346 5.24449 16.2549C5.23942 16.2651 5.22929 16.2752 5.22422 16.2904L4.75804 16.939C4.71244 17.0049 4.6415 17.0454 4.56549 17.0606C4.48442 17.0758 4.40841 17.0555 4.34254 17.0099C4.20066 16.9136 4.17026 16.7262 4.26653 16.5944ZM5.22929 18.0081C5.16342 17.9625 5.12288 17.8916 5.10768 17.8156C5.09247 17.7345 5.11274 17.6585 5.15835 17.5926L6.20218 16.1434C6.24778 16.0776 6.31872 16.037 6.39473 16.0218C6.40993 16.0218 6.42513 16.0168 6.44033 16.0168C6.4454 16.0168 6.4454 16.0168 6.45047 16.0168C6.46567 16.0168 6.4758 16.0168 6.49101 16.0218C6.49607 16.0218 6.49607 16.0218 6.49607 16.0218C6.50621 16.0218 6.52141 16.0269 6.53154 16.032H6.53661C6.55181 16.037 6.56195 16.0421 6.57208 16.0472C6.57715 16.0472 6.57715 16.0522 6.58221 16.0522C6.59235 16.0573 6.60755 16.0674 6.61768 16.0725C6.70383 16.1333 6.74943 16.2397 6.7393 16.3461C6.7393 16.3613 6.73423 16.3715 6.73423 16.3867C6.73423 16.3917 6.72916 16.3968 6.72916 16.4019C6.72916 16.4069 6.72409 16.4171 6.72409 16.4221C6.72409 16.4272 6.71903 16.4323 6.71903 16.4373C6.71396 16.4424 6.71396 16.4525 6.70889 16.4576C6.70383 16.4627 6.69876 16.4677 6.69876 16.4779C6.69369 16.4829 6.69369 16.488 6.68862 16.4931L5.64479 17.9423C5.59919 18.0081 5.52825 18.0487 5.45224 18.0639C5.37117 18.074 5.29009 18.0538 5.22929 18.0081ZM6.28832 18.7733C6.15657 18.677 6.12617 18.4895 6.22245 18.3578L7.26628 16.9086C7.27641 16.8934 7.28655 16.8832 7.30175 16.868C7.30682 16.863 7.30681 16.863 7.31188 16.8579C7.32202 16.8478 7.33722 16.8376 7.35242 16.8275C7.35749 16.8275 7.35749 16.8224 7.36255 16.8224C7.37775 16.8174 7.38789 16.8072 7.40309 16.8022C7.40816 16.8022 7.40816 16.8022 7.40816 16.7971C7.42336 16.792 7.43856 16.787 7.45883 16.7819C7.4639 16.7819 7.46896 16.7819 7.47403 16.7768C7.4791 16.7768 7.4791 16.7768 7.48417 16.7768C7.4943 16.7768 7.50443 16.7768 7.5095 16.7768H7.51457C7.52977 16.7768 7.54497 16.7768 7.56017 16.7819C7.57537 16.7819 7.59057 16.787 7.60071 16.792C7.60071 16.792 7.60071 16.792 7.60578 16.792C7.62098 16.7971 7.63111 16.8022 7.64631 16.8072C7.64631 16.8072 7.65138 16.8072 7.65138 16.8123C7.66151 16.8174 7.67672 16.8275 7.68685 16.8326C7.74259 16.8731 7.77806 16.9288 7.79833 16.9897C7.80846 17.0251 7.81353 17.0657 7.80846 17.1062C7.8034 17.1569 7.78313 17.2075 7.75272 17.2531L6.70889 18.7023C6.60755 18.8392 6.42513 18.8696 6.28832 18.7733ZM7.73752 19.356C7.65645 19.3712 7.58044 19.3509 7.51457 19.3053C7.44869 19.2597 7.40816 19.1888 7.39296 19.1128C7.37775 19.0317 7.39802 18.9557 7.44363 18.8898L7.9098 18.2412C7.91994 18.2311 7.92501 18.221 7.93514 18.2108C7.94021 18.2058 7.94527 18.2007 7.95034 18.1956C7.96048 18.1855 7.97061 18.1804 7.98074 18.1703C7.98581 18.1652 7.99088 18.1602 7.99595 18.1602C8.00608 18.1551 8.02128 18.15 8.03142 18.145C8.03648 18.1399 8.04155 18.1399 8.04662 18.1348C8.06688 18.1298 8.08209 18.1247 8.10236 18.1196C8.11756 18.1196 8.13276 18.1146 8.14289 18.1146C8.14796 18.1146 8.14796 18.1146 8.15303 18.1146C8.16823 18.1146 8.17836 18.1146 8.19357 18.1196C8.19863 18.1196 8.19863 18.1196 8.2037 18.1196C8.21383 18.1196 8.22397 18.1247 8.23917 18.1298H8.24424C8.25437 18.1348 8.26957 18.1399 8.27971 18.145C8.28477 18.145 8.28477 18.15 8.28984 18.15C8.29997 18.1551 8.31518 18.1652 8.32531 18.1703C8.41145 18.2311 8.45706 18.3375 8.44692 18.4439C8.44186 18.4946 8.42159 18.5453 8.39118 18.5909L7.93514 19.2395C7.88447 19.3003 7.8186 19.3459 7.73752 19.356ZM14.6238 15.4087C14.6136 15.5202 14.5731 15.6266 14.5072 15.7178C14.4515 15.7938 14.3755 15.8394 14.2843 15.8546C14.1931 15.8698 14.1018 15.8495 14.0309 15.7938L13.6357 15.51L12.8604 14.9527C12.7033 14.8361 12.4804 14.8767 12.3638 15.0337C12.2473 15.1908 12.2878 15.4138 12.4449 15.5303L13.2202 16.0877C13.357 16.184 13.4381 16.3309 13.4634 16.4931C13.4837 16.6552 13.4381 16.8174 13.3316 16.9491C13.1391 17.1873 12.7641 17.2227 12.5006 17.0353L12.4246 16.9795L12.4196 16.9745L11.4619 16.2853C11.3048 16.1688 11.0818 16.2093 10.9653 16.3664C10.8487 16.5235 10.8893 16.7464 11.0464 16.863L12.0041 17.5521C12.1713 17.6737 12.2625 17.8815 12.2422 18.0943C12.2321 18.2007 12.1966 18.297 12.1358 18.378C12.0446 18.5047 11.9078 18.5909 11.7507 18.6162C11.5936 18.6415 11.4365 18.6061 11.3099 18.5098L10.8437 18.1754C10.8437 18.1754 10.8386 18.1754 10.8386 18.1703L9.93159 17.5166C9.77451 17.4001 9.55156 17.4406 9.43501 17.5977C9.31847 17.7548 9.35901 17.9777 9.51609 18.0943L10.4231 18.748C10.4991 18.8037 10.5498 18.8898 10.5599 18.9861C10.5701 19.0824 10.5397 19.1787 10.4788 19.2547C10.3724 19.3763 10.1799 19.4016 10.0279 19.3104L9.10058 18.7733C9.10565 18.7632 9.11072 18.748 9.11072 18.7378C9.11578 18.7277 9.11578 18.7175 9.12085 18.7125C9.12592 18.7023 9.12592 18.6871 9.13099 18.677C9.13099 18.6669 9.13605 18.6618 9.13605 18.6517C9.14112 18.6365 9.14112 18.6213 9.14619 18.6111C9.14619 18.601 9.15125 18.5959 9.15125 18.5858C9.15632 18.5655 9.15632 18.5402 9.16139 18.5199C9.19686 18.1602 9.03978 17.8105 8.74588 17.5977C8.72055 17.5774 8.69521 17.5622 8.66988 17.547C8.65974 17.542 8.65467 17.5369 8.64454 17.5318C8.62427 17.5217 8.60907 17.5116 8.5888 17.5014C8.57867 17.4964 8.56853 17.4913 8.5584 17.4862C8.5432 17.4812 8.52293 17.471 8.50266 17.466C8.49253 17.4609 8.48239 17.4558 8.46719 17.4558C8.46212 17.4558 8.45199 17.4508 8.44692 17.4508V17.4457C8.45199 17.4356 8.45706 17.4204 8.46212 17.4052C8.46719 17.395 8.46719 17.39 8.47226 17.3798C8.47733 17.3646 8.48239 17.3545 8.48239 17.3393C8.48239 17.3292 8.48746 17.3241 8.48746 17.314C8.49253 17.2987 8.49253 17.2835 8.49759 17.2683C8.49759 17.2633 8.50266 17.2531 8.50266 17.2481C8.50773 17.2278 8.50773 17.2025 8.51279 17.1822C8.54826 16.8478 8.41145 16.5184 8.15303 16.3056C8.13783 16.2904 8.11756 16.2752 8.10236 16.2651C8.07702 16.2448 8.04662 16.2296 8.02128 16.2144C8.01115 16.2093 8.00608 16.2042 7.99595 16.1992C7.97568 16.189 7.95541 16.1789 7.93514 16.1688C7.92501 16.1637 7.91487 16.1586 7.9098 16.1586C7.88954 16.1485 7.86927 16.1434 7.84393 16.1333C7.8338 16.1282 7.82873 16.1282 7.8186 16.1232C7.79326 16.1181 7.77299 16.108 7.74766 16.1029C7.74259 16.1029 7.73245 16.0978 7.72739 16.0978C7.70205 16.0928 7.67672 16.0877 7.65138 16.0826C7.64631 16.0826 7.64125 16.0826 7.63618 16.0826C7.61084 16.0776 7.58044 16.0776 7.55511 16.0776C7.55004 16.0776 7.54497 16.0776 7.54497 16.0776C7.51457 16.0776 7.48417 16.0776 7.45883 16.0776H7.45376C7.4487 16.0776 7.44363 16.0776 7.43856 16.0776C7.43856 16.0725 7.43349 16.0674 7.43349 16.0624C7.42843 16.0421 7.42336 16.0218 7.41829 16.0016C7.41829 15.9914 7.41323 15.9864 7.40816 15.9762C7.40309 15.956 7.39296 15.9357 7.38282 15.9154C7.38282 15.9104 7.37776 15.9053 7.37776 15.9053C7.36762 15.88 7.35749 15.8597 7.34228 15.8343C7.33722 15.8293 7.33722 15.8242 7.33215 15.8141C7.32202 15.7989 7.31188 15.7786 7.30175 15.7634C7.29668 15.7583 7.29161 15.7482 7.28655 15.7431C7.27134 15.7229 7.26121 15.7026 7.24601 15.6874L7.24094 15.6823C7.22574 15.6621 7.20547 15.6418 7.19027 15.6215C7.1852 15.6165 7.18014 15.6114 7.17507 15.6063C7.15987 15.5911 7.14467 15.5759 7.12947 15.5658C7.1244 15.5607 7.11933 15.5557 7.1092 15.5506C7.08893 15.5354 7.06866 15.5151 7.04332 15.4999C6.82544 15.3428 6.55688 15.277 6.29339 15.3226C6.26298 15.3276 6.23258 15.3327 6.20725 15.3428C6.20218 15.3428 6.19204 15.3479 6.18698 15.3479C6.16164 15.353 6.13631 15.3631 6.11097 15.3732C6.1059 15.3732 6.1059 15.3732 6.10084 15.3783C6.0755 15.3884 6.0451 15.3986 6.01976 15.4138C6.01469 15.4188 6.00456 15.4188 5.99949 15.4239C5.97922 15.434 5.95389 15.4492 5.93362 15.4594C5.92855 15.4594 5.92349 15.4644 5.92349 15.4644C5.89815 15.4796 5.87281 15.4948 5.85255 15.5151C5.84748 15.5202 5.84241 15.5252 5.83735 15.5303C5.82721 15.5354 5.82214 15.5455 5.81201 15.5506C5.79681 15.5303 5.78161 15.51 5.7664 15.4898C5.76134 15.4847 5.75627 15.4796 5.7512 15.4746C5.74107 15.4594 5.72587 15.4442 5.71573 15.434C5.71067 15.429 5.7056 15.4239 5.69547 15.4138C5.68026 15.3986 5.67013 15.3884 5.65493 15.3783C5.64986 15.3732 5.64479 15.3682 5.63466 15.3631C5.61439 15.3479 5.59412 15.3327 5.57385 15.3175C5.35597 15.1604 5.08741 15.0945 4.82392 15.1401C4.79351 15.1452 4.76311 15.1503 4.73777 15.1604C4.73271 15.1604 4.72257 15.1655 4.71751 15.1655C4.6871 15.1756 4.66177 15.1807 4.63137 15.1908H4.6263C4.60603 15.1959 4.59083 15.206 4.57056 15.2111C4.2716 14.4764 3.82062 13.8379 3.2531 13.3464L5.66 10.0071C6.13631 10.2909 6.66835 10.4885 7.23587 10.5899L6.93185 13.5845C6.88624 14.0355 7.21561 14.4358 7.66152 14.4814C8.08209 14.522 8.48746 14.4003 8.81176 14.1369C9.13605 13.8734 9.33874 13.4933 9.38434 13.0778L9.46542 12.2924C9.87585 12.2772 10.2762 12.1556 10.6309 11.9479L14.3856 14.8463C14.4109 14.8665 14.4261 14.8817 14.4363 14.8919L14.4413 14.8969C14.4464 14.902 14.4565 14.9121 14.4616 14.9172L14.4718 14.9273C14.4768 14.9324 14.4768 14.9375 14.4819 14.9375L14.492 14.9476C14.4971 14.9527 14.5022 14.9577 14.5072 14.9628L14.5376 15.0084C14.5528 15.0287 14.563 15.0489 14.568 15.0641L14.5731 15.0743C14.5782 15.0844 14.5782 15.0895 14.5832 15.0996C14.5883 15.1097 14.5934 15.1199 14.5934 15.13C14.5984 15.1401 14.5984 15.1503 14.6035 15.1604L14.6136 15.1908C14.6187 15.2162 14.6238 15.2415 14.6288 15.2618V15.2719C14.6288 15.282 14.6288 15.2922 14.6339 15.3023V15.3074V15.3327C14.6288 15.353 14.6288 15.3834 14.6238 15.4087ZM15.0849 14.5524L15.0798 14.5422C15.0747 14.5372 15.0747 14.5372 15.0697 14.5321C15.0595 14.5169 15.0494 14.5068 15.0393 14.4966C15.0393 14.4966 15.0393 14.4966 15.0342 14.4916C15.0291 14.4865 15.0241 14.4814 15.019 14.4713C15.0139 14.4662 15.0139 14.4662 15.0089 14.4612C15.0038 14.451 14.9937 14.446 14.9886 14.4358L14.9835 14.4307C14.9734 14.4206 14.9683 14.4155 14.9582 14.4054C14.9481 14.3953 14.943 14.3851 14.9329 14.3801C14.8974 14.3446 14.8619 14.3142 14.8112 14.2737L10.6359 11.051L10.418 11.2131C10.0583 11.4817 9.61743 11.6084 9.16646 11.5627L8.81176 11.5273L8.66481 12.9917C8.63947 13.2197 8.528 13.4275 8.35065 13.5744C8.1733 13.7213 7.94527 13.7872 7.71725 13.7619C7.65645 13.7568 7.61591 13.7011 7.62098 13.6453L7.87433 11.1574L9.68837 10.2656L10.19 10.0173L10.2204 10.0021C10.3522 9.92099 10.4788 9.85512 10.6055 9.79938C10.8791 9.67777 11.168 9.58656 11.4568 9.54096C11.8216 9.48015 12.1966 9.48015 12.5665 9.54096C13.3874 9.67777 14.2032 9.6119 14.943 9.36361L16.6304 13.1184C16.0375 13.4629 15.5054 13.9494 15.0849 14.5524Z" fill="black"></path><path d="M17.8717 12.7635C17.892 12.7635 17.9072 12.7686 17.9275 12.7686C18.0491 12.7686 18.1656 12.728 18.2568 12.652C18.3632 12.5608 18.4342 12.4392 18.4494 12.2973C18.4798 12.0085 18.267 11.7501 17.9781 11.7197C17.6893 11.6893 17.4309 11.9021 17.4005 12.1909C17.3751 12.4798 17.588 12.7382 17.8717 12.7635ZM17.7552 12.2264C17.7653 12.1403 17.8363 12.0744 17.9224 12.0744C17.9275 12.0744 17.9325 12.0744 17.9376 12.0744C17.9832 12.0795 18.0237 12.0997 18.0541 12.1352C18.0846 12.1707 18.0947 12.2163 18.0896 12.2619C18.0845 12.3075 18.0643 12.348 18.0288 12.3784C17.9933 12.4088 17.9477 12.419 17.9021 12.4139C17.816 12.4038 17.7501 12.3176 17.7552 12.2264Z" fill="black"></path><path d="M2.63015 12.2075C2.66055 11.9187 2.44773 11.6602 2.1589 11.6298C1.87007 11.5994 1.61165 11.8123 1.58125 12.1011C1.56605 12.243 1.60658 12.3798 1.69779 12.4862C1.789 12.5926 1.91061 12.6635 2.05249 12.6787C2.07276 12.6787 2.08796 12.6838 2.10823 12.6838C2.37679 12.6787 2.60481 12.4811 2.63015 12.2075ZM1.97648 12.2632C1.94608 12.2278 1.93595 12.1822 1.94101 12.1366C1.95115 12.0504 2.02209 11.9845 2.10823 11.9845C2.1133 11.9845 2.11836 11.9845 2.12343 11.9845C2.21464 11.9947 2.28558 12.0758 2.27545 12.172C2.26531 12.2632 2.18424 12.3342 2.08796 12.324C2.04742 12.319 2.00689 12.2987 1.97648 12.2632Z" fill="black"></path><path d="M9.44095 6.59283C11.0472 6.59283 12.3546 5.28551 12.3546 3.67923C12.3546 2.07295 11.0472 0.765625 9.44095 0.765625C7.83467 0.765625 6.52734 2.07295 6.52734 3.67923C6.52734 5.28551 7.83467 6.59283 9.44095 6.59283ZM9.44095 1.48009C10.6571 1.48009 11.6452 2.46818 11.6452 3.6843C11.6452 4.90041 10.6571 5.8885 9.44095 5.8885C8.22484 5.8885 7.23674 4.90041 7.23674 3.6843C7.23674 2.46818 8.22484 1.48009 9.44095 1.48009Z" fill="black"></path><path d="M8.89811 4.47022C8.94878 4.52595 9.01465 4.57156 9.09066 4.60703C9.16667 4.6425 9.25788 4.66783 9.35922 4.67797V4.80971C9.35922 4.85025 9.36428 4.88065 9.37949 4.90092C9.39469 4.92119 9.41496 4.93133 9.44536 4.93133C9.48083 4.93133 9.5011 4.92119 9.51123 4.89585C9.52137 4.87052 9.52643 4.83505 9.52643 4.78438V4.68304C9.65311 4.6729 9.75952 4.63743 9.85073 4.58169C9.94194 4.52595 10.0129 4.45501 10.0585 4.36887C10.1041 4.28273 10.1294 4.18646 10.1294 4.08511C10.1294 4.00404 10.1142 3.9331 10.0838 3.86216C10.0534 3.79629 10.0129 3.73548 9.95714 3.68988C9.90647 3.64427 9.84566 3.6088 9.78486 3.58347C9.71898 3.55813 9.63284 3.53279 9.52137 3.50239V2.95514C9.63284 2.99061 9.70378 3.06662 9.72912 3.17303C9.75445 3.26424 9.81019 3.31491 9.89633 3.31491C9.94194 3.31491 9.98248 3.29971 10.0129 3.26424C10.0433 3.22877 10.0635 3.1933 10.0635 3.14769C10.0635 3.10715 10.0534 3.06662 10.0331 3.01595C10.0129 2.97034 9.98248 2.91967 9.94194 2.87913C9.89127 2.81833 9.83046 2.77779 9.76459 2.74739C9.69872 2.71698 9.61764 2.69672 9.52137 2.69165V2.54977C9.52137 2.47883 9.49096 2.44336 9.43523 2.44336C9.37949 2.44336 9.35415 2.47883 9.35415 2.55484V2.69672C9.17173 2.71192 9.03492 2.76766 8.93358 2.86393C8.83223 2.96021 8.79677 3.07675 8.79677 3.22877C8.79677 3.34531 8.8221 3.44159 8.87277 3.51253C8.92344 3.58853 8.98425 3.64427 9.06532 3.68481C9.1464 3.72535 9.24267 3.76082 9.35922 3.79629V4.40941C9.29841 4.39421 9.25281 4.36887 9.21734 4.33847C9.18187 4.30807 9.15653 4.2726 9.13626 4.23206C9.11599 4.19152 9.09573 4.14085 9.07546 4.06484C9.06532 4.02937 9.04505 4.00404 9.01972 3.98884C8.99438 3.96857 8.95891 3.9635 8.91838 3.9635C8.8677 3.9635 8.82717 3.9787 8.79677 4.01417C8.76636 4.04964 8.74609 4.08511 8.74609 4.13072C8.74609 4.18646 8.75623 4.24726 8.78156 4.30807C8.8069 4.35874 8.84744 4.41448 8.89811 4.47022ZM9.52643 3.84189C9.61764 3.87229 9.68858 3.90776 9.73419 3.9483C9.77979 3.98884 9.80513 4.04964 9.80513 4.12565C9.80513 4.19659 9.77979 4.2574 9.73419 4.31313C9.68351 4.36887 9.61764 4.40434 9.52643 4.41954V3.84189ZM9.18187 3.35544C9.14133 3.31997 9.12613 3.2693 9.12613 3.19836C9.12613 3.12742 9.1464 3.07168 9.18693 3.03621C9.22747 3.00074 9.28828 2.97034 9.35922 2.95007V3.45679C9.28321 3.42132 9.22241 3.39091 9.18187 3.35544Z" fill="black"></path></svg>