<svg xmlns="http://www.w3.org/2000/svg" width="111" height="111" viewBox="0 0 111 111" fill="none"><path d="M48.5438 10.625C30.7283 10.6574 21.395 11.0967 15.4334 17.0537C9 23.4964 9 33.8517 9 54.5625C9 75.2733 9 85.6286 15.4334 92.0666C21.8714 98.5 32.2221 98.5 52.9421 98.5C73.6529 98.5 84.0082 98.5 90.4416 92.0666C96.4079 86.1004 96.8426 76.7718 96.875 58.9516" stroke="#BC9F4C" stroke-width="6" stroke-linecap="round" stroke-linejoin="round"></path><path d="M50.883 56.8757C47.5345 14.6309 77.4582 2.65219 101.406 6.75919C102.373 20.7591 95.5189 25.9992 82.4764 28.4227C84.997 31.0589 89.4462 34.3704 88.9652 38.5052C88.623 41.4559 86.625 42.8989 82.6197 45.7942C73.8507 52.1304 63.6942 56.1264 50.883 56.8757Z" stroke="#BC9F4C" stroke-width="6" stroke-linecap="round" stroke-linejoin="round"></path><path d="M41.375 75.375C50.625 49.9375 59.69 41.3165 69.125 33.75" stroke="#BC9F4C" stroke-width="6" stroke-linecap="round" stroke-linejoin="round"></path></svg>