<svg xmlns="http://www.w3.org/2000/svg" width="120" height="120" viewBox="0 0 120 120" fill="none"><path d="M15 25V22.5C14.337 22.5 13.7011 22.7634 13.2322 23.2322C12.7634 23.7011 12.5 24.337 12.5 25H15ZM105 25H107.5C107.5 24.337 107.237 23.7011 106.768 23.2322C106.299 22.7634 105.663 22.5 105 22.5V25ZM15 27.5H105V22.5H15V27.5ZM102.5 25V85H107.5V25H102.5ZM95 92.5H25V97.5H95V92.5ZM17.5 85V25H12.5V85H17.5ZM25 92.5C23.0109 92.5 21.1032 91.7098 19.6967 90.3033C18.2902 88.8968 17.5 86.9891 17.5 85H12.5C12.5 88.3152 13.817 91.4946 16.1612 93.8388C18.5054 96.183 21.6848 97.5 25 97.5V92.5ZM102.5 85C102.5 86.9891 101.71 88.8968 100.303 90.3033C98.8968 91.7098 96.9891 92.5 95 92.5V97.5C98.3152 97.5 101.495 96.183 103.839 93.8388C106.183 91.4946 107.5 88.3152 107.5 85H102.5Z" fill="#BC9F4C"></path><path d="M15 25L60 70L105 25" stroke="#BC9F4C" stroke-width="4" stroke-linecap="round" stroke-linejoin="round"></path></svg>