<svg xmlns="http://www.w3.org/2000/svg" width="20" height="14" viewBox="0 0 20 14" fill="none"><path d="M19.8479 10.3529L17.6823 8.18746C18.3087 7.40181 18.6845 6.40787 18.6845 5.32726C18.6845 2.79256 16.6225 0.730469 14.088 0.730469C12.6549 0.730469 11.3733 1.38991 10.5296 2.42096V1.24966C10.5296 0.962928 10.2972 0.730469 10.0104 0.730469H5.23561C4.94887 0.730469 4.71641 0.962928 4.71641 1.24966V2.95683H0.519192C0.23246 2.95683 0 3.18929 0 3.47603V12.9378C0 13.2245 0.23246 13.457 0.519192 13.457H14.9901C15.2768 13.457 15.5092 13.2245 15.5092 12.9378V9.69796C16.0372 9.52586 16.5231 9.26066 16.948 8.9218L19.1137 11.0872C19.2151 11.1886 19.3479 11.2393 19.4808 11.2393C19.6136 11.2393 19.7465 11.1886 19.848 11.0872C20.0507 10.8843 20.0507 10.5557 19.8479 10.3529ZM14.088 1.76885C16.05 1.76885 17.6461 3.3652 17.6461 5.32726C17.6461 7.28925 16.0499 8.88546 14.088 8.88546C12.1259 8.88546 10.5296 7.28925 10.5296 5.32726C10.5296 3.36513 12.1259 1.76885 14.088 1.76885ZM5.23561 3.99522H9.68875C9.56075 4.41708 9.49125 4.86414 9.49125 5.32726C9.49125 6.9128 10.2983 8.31338 11.5232 9.14V12.4186H3.98615V3.99522H5.23561ZM5.7548 1.76885H9.49125V2.95683H5.7548V1.76885ZM1.03838 3.99522H2.94777V12.4186H1.03838V3.99522ZM14.4709 12.4185H12.5615V9.66231C13.0394 9.83108 13.5529 9.92391 14.088 9.92391C14.217 9.92391 14.3445 9.9172 14.4709 9.90674V12.4185Z" fill="black"></path></svg>