<svg xmlns="http://www.w3.org/2000/svg" width="1728" height="788" viewBox="0 0 1728 788" fill="none"><mask id="mask0_2362_7820" style="mask-type:alpha" maskUnits="userSpaceOnUse" x="-71" y="0" width="1851" height="788"><rect x="-71" width="1851" height="788" fill="#3B634C"></rect></mask><g mask="url(#mask0_2362_7820)"><path d="M357.412 34.3584C396.218 17.9545 441.875 18.0233 486.006 28.426C530.133 38.8279 572.689 59.5524 605.263 84.3994C637.389 108.905 656.277 142.025 668.757 178.307C679.895 210.686 685.919 245.547 691.705 279.028C692.405 283.076 693.101 287.104 693.802 291.106C698.839 319.844 692.933 347.917 685.893 376.169C685.136 379.208 684.365 382.25 683.594 385.294C677.203 410.52 670.759 435.957 671.325 462.078C671.651 477.139 675.378 492.17 680.347 507.085C683.379 516.185 686.885 525.272 690.369 534.3C692.587 540.05 694.797 545.777 696.869 551.468C707.544 580.788 714.632 609.329 701.34 636.697C688.119 663.921 662.875 683.131 633.094 698.471C609.368 710.691 582.82 720.428 557.253 729.805C550.724 732.199 544.259 734.57 537.922 736.953C480.613 758.502 418.682 774.885 357.287 765.982C328.428 761.796 304.264 748.41 280.723 733.132C275.348 729.643 270.003 726.054 264.642 722.454C246.55 710.305 228.272 698.031 208.002 689.061C186.697 679.635 163.092 673.969 139.743 668.365C132.117 666.535 124.519 664.712 117.037 662.766C86.602 654.85 58.0606 644.907 37.0983 624.322C-6.80599 581.209 -24.22 519.999 -23.3271 462.075C-22.4391 404.471 -3.98028 343.241 42.0545 302.353C64.0258 282.839 96.3166 279.034 128.954 275.33L129.681 275.248C145.729 273.427 161.83 271.6 176.723 267.886C191.844 264.114 205.756 258.389 217.139 248.717C247.864 222.609 262.033 184.231 275.913 146.635C277.591 142.091 279.265 137.557 280.963 133.058C296.734 91.2787 314.616 52.4488 357.412 34.3584Z" stroke="#407255" stroke-width="1.01505"></path><path d="M354.94 95.463C387.154 81.8455 425.062 81.9005 461.71 90.5394C498.355 99.1776 533.695 116.388 560.745 137.022C587.415 157.365 603.097 184.861 613.461 214.991C622.711 241.881 627.714 270.833 632.521 298.646C633.102 302.009 633.68 305.356 634.263 308.68C638.443 332.533 633.542 355.837 627.694 379.306C627.065 381.831 626.425 384.358 625.784 386.888C620.475 407.841 615.119 428.983 615.59 450.694C615.861 463.218 618.96 475.714 623.089 488.107C625.608 495.668 628.522 503.221 631.417 510.723C633.26 515.499 635.094 520.255 636.814 524.979C645.682 549.334 651.557 573.012 640.532 595.712C629.561 618.302 608.61 634.25 583.877 646.989C564.174 657.138 542.126 665.224 520.889 673.013C515.464 675.002 510.093 676.972 504.826 678.953C457.224 696.851 405.794 710.455 354.815 703.062C330.86 699.588 310.8 688.477 291.247 675.786C286.785 672.89 282.346 669.909 277.894 666.919C262.864 656.826 247.672 646.624 230.825 639.17C213.119 631.336 193.5 626.627 174.101 621.972C167.768 620.452 161.459 618.937 155.247 617.322C129.966 610.746 106.276 602.491 88.8803 585.409C52.4301 549.615 37.9688 498.793 38.7103 450.691C39.4478 402.855 54.7768 352.017 92.9943 318.073C111.222 301.883 138.015 298.723 165.135 295.646L165.741 295.577C179.071 294.065 192.451 292.547 204.828 289.46C217.396 286.325 228.967 281.564 238.436 273.518C263.978 251.815 275.757 219.911 287.285 188.683C288.679 184.907 290.07 181.141 291.48 177.405C304.581 142.697 319.426 110.475 354.94 95.463Z" stroke="#407255" stroke-width="1.01505"></path><path d="M351.366 183.843C374.047 174.256 400.747 174.291 426.573 180.379C452.397 186.466 477.301 198.595 496.361 213.134C515.139 227.457 526.185 246.819 533.489 268.051C540.008 287.003 543.535 307.41 546.925 327.027C547.335 329.398 547.742 331.758 548.153 334.103C551.096 350.891 547.647 367.298 543.523 383.85C543.079 385.63 542.628 387.412 542.176 389.196C538.432 403.971 534.65 418.902 534.982 434.236C535.174 443.09 537.364 451.919 540.278 460.665C542.056 465.999 544.113 471.333 546.156 476.627C547.456 479.996 548.749 483.347 549.959 486.673C556.213 503.848 560.333 520.492 552.588 536.441C544.871 552.33 530.129 563.558 512.698 572.536C498.811 579.689 483.274 585.388 468.296 590.881C464.47 592.284 460.68 593.674 456.963 595.072C423.398 607.692 387.156 617.275 351.242 612.067C334.381 609.622 320.256 601.8 306.47 592.853C303.327 590.813 300.2 588.713 297.062 586.606C286.46 579.486 275.731 572.281 263.837 567.018C251.336 561.487 237.48 558.162 223.797 554.878C219.333 553.806 214.887 552.739 210.512 551.602C192.686 546.965 176.013 541.151 163.774 529.133C138.105 503.926 127.914 468.128 128.437 434.233C128.956 400.522 139.759 364.715 166.67 340.813C179.483 329.433 198.326 327.205 217.465 325.033L217.898 324.984C227.295 323.918 236.739 322.846 245.478 320.667C254.354 318.453 262.539 315.088 269.241 309.393C287.286 294.059 295.607 271.52 303.735 249.501C304.718 246.838 305.699 244.182 306.693 241.548C315.933 217.069 326.384 194.404 351.366 183.843Z" stroke="#407255" stroke-width="1.01505"></path><path d="M1504.65 -242.427C1543.45 -258.831 1589.11 -258.762 1633.24 -248.359C1677.37 -237.957 1719.92 -217.233 1752.5 -192.386C1784.62 -167.88 1803.51 -134.76 1815.99 -98.4779C1827.13 -66.0995 1833.15 -31.2378 1838.94 2.24261C1839.64 6.29105 1840.34 10.3193 1841.04 14.3205C1846.07 43.0586 1840.17 71.1315 1833.13 99.3834C1832.37 102.423 1831.6 105.464 1830.83 108.509C1824.44 133.734 1817.99 159.171 1818.56 185.293C1818.89 200.354 1822.61 215.385 1827.58 230.3C1830.61 239.399 1834.12 248.487 1837.6 257.515C1839.82 263.265 1842.03 268.992 1844.1 274.683C1854.78 304.003 1861.87 332.544 1848.57 359.912C1835.35 387.135 1810.11 406.346 1780.33 421.685C1756.6 433.906 1730.05 443.643 1704.49 453.02C1697.96 455.414 1691.49 457.785 1685.16 460.168C1627.85 481.716 1565.92 498.1 1504.52 489.197C1475.66 485.011 1451.5 471.625 1427.96 456.346C1422.58 452.858 1417.24 449.268 1411.88 445.668C1393.78 433.519 1375.51 421.245 1355.24 412.276C1333.93 402.85 1310.33 397.184 1286.98 391.58C1279.35 389.75 1271.75 387.926 1264.27 385.98C1233.84 378.065 1205.29 368.122 1184.33 347.537C1140.43 304.424 1123.01 243.214 1123.91 185.29C1124.8 127.686 1143.25 66.4555 1189.29 25.5681C1211.26 6.05359 1243.55 2.24881 1276.19 -1.45505L1276.92 -1.53749C1292.96 -3.35831 1309.06 -5.18504 1323.96 -8.89931C1339.08 -12.6707 1352.99 -18.3961 1364.37 -28.0681C1395.1 -54.1761 1409.27 -92.5541 1423.15 -130.15C1424.83 -134.695 1426.5 -139.228 1428.2 -143.727C1443.97 -185.506 1461.85 -224.336 1504.65 -242.427Z" stroke="#407255" stroke-width="1.01505"></path><path d="M1502.17 -181.322C1534.39 -194.94 1572.3 -194.885 1608.94 -186.246C1645.59 -177.608 1680.93 -160.397 1707.98 -139.764C1734.65 -119.42 1750.33 -91.9242 1760.7 -61.7943C1769.94 -34.9046 1774.95 -5.95224 1779.75 21.8607C1780.34 25.224 1780.91 28.5705 1781.5 31.8948C1785.68 55.7479 1780.78 79.0522 1774.93 102.521C1774.3 105.046 1773.66 107.573 1773.02 110.102C1767.71 131.056 1762.35 152.198 1762.82 173.909C1763.1 186.433 1766.19 198.929 1770.32 211.322C1772.84 218.883 1775.76 226.436 1778.65 233.938C1780.49 238.714 1782.33 243.47 1784.05 248.193C1792.92 272.549 1798.79 296.227 1787.77 318.927C1776.8 341.517 1755.84 357.464 1731.11 370.204C1711.41 380.353 1689.36 388.439 1668.12 396.228C1662.7 398.217 1657.33 400.187 1652.06 402.167C1604.46 420.066 1553.03 433.67 1502.05 426.277C1478.09 422.803 1458.03 411.692 1438.48 399.001C1434.02 396.104 1429.58 393.124 1425.13 390.134C1410.1 380.041 1394.91 369.839 1378.06 362.385C1360.35 354.551 1340.73 349.842 1321.34 345.186C1315 343.666 1308.69 342.152 1302.48 340.536C1277.2 333.961 1253.51 325.706 1236.11 308.623C1199.66 272.83 1185.2 222.008 1185.94 173.906C1186.68 126.069 1202.01 75.2318 1240.23 41.2877C1258.46 25.0983 1285.25 21.9381 1312.37 18.8605L1312.98 18.7917C1326.31 17.2794 1339.69 15.7614 1352.06 12.6745C1364.63 9.53978 1376.2 4.77924 1385.67 -3.26704C1411.21 -24.9706 1422.99 -56.8741 1434.52 -88.1021C1435.91 -91.8779 1437.3 -95.6438 1438.71 -99.3806C1451.82 -134.088 1466.66 -166.31 1502.17 -181.322Z" stroke="#407255" stroke-width="1.01505"></path><path d="M1498.6 -92.9418C1521.28 -102.529 1547.98 -102.494 1573.81 -96.4064C1599.63 -90.3192 1624.54 -78.1905 1643.6 -63.6515C1662.37 -49.328 1673.42 -29.9658 1680.72 -8.73389C1687.24 10.2182 1690.77 30.6248 1694.16 50.2418C1694.57 52.6132 1694.98 54.9731 1695.39 57.3175C1698.33 74.1056 1694.88 90.5131 1690.76 107.065C1690.31 108.845 1689.86 110.627 1689.41 112.411C1685.67 127.186 1681.88 142.117 1682.22 157.451C1682.41 166.305 1684.6 175.134 1687.51 183.88C1689.29 189.214 1691.35 194.548 1693.39 199.842C1694.69 203.21 1695.98 206.562 1697.19 209.888C1703.45 227.063 1707.57 243.707 1699.82 259.656C1692.11 275.545 1677.36 286.773 1659.93 295.751C1646.05 302.904 1630.51 308.602 1615.53 314.096C1611.7 315.499 1607.91 316.889 1604.2 318.287C1570.63 330.907 1534.39 340.49 1498.48 335.282C1481.62 332.836 1467.49 325.015 1453.7 316.068C1450.56 314.028 1447.43 311.928 1444.3 309.821C1433.69 302.701 1422.97 295.496 1411.07 290.233C1398.57 284.702 1384.71 281.377 1371.03 278.093C1366.57 277.021 1362.12 275.954 1357.75 274.817C1339.92 270.18 1323.25 264.366 1311.01 252.348C1285.34 227.141 1275.15 191.343 1275.67 157.448C1276.19 123.737 1286.99 87.9301 1313.9 64.0278C1326.72 52.6477 1345.56 50.4198 1364.7 48.2479L1365.13 48.1988C1374.53 47.1326 1383.97 46.0611 1392.71 43.8817C1401.59 41.6678 1409.77 38.3027 1416.48 32.6078C1434.52 17.2742 1442.84 -5.26531 1450.97 -27.2839C1451.95 -29.9473 1452.93 -32.603 1453.93 -35.2375C1463.17 -59.7161 1473.62 -82.3816 1498.6 -92.9418Z" stroke="#407255" stroke-width="1.01505"></path></g></svg>