<svg xmlns="http://www.w3.org/2000/svg" width="107" height="101" viewBox="0 0 107 101" fill="none"><path d="M20.8056 62.1011H62.4167V56.1867H20.8056V62.1011ZM20.8056 44.3579H86.1945V38.4435H20.8056V44.3579ZM20.8056 26.6147H86.1945V20.7004H20.8056V26.6147ZM0 101V9.55765C0 6.83309 0.917426 4.55999 2.75228 2.73836C4.58713 0.91673 6.8698 0.00394293 9.60028 0H97.3997C100.134 0 102.417 0.912787 104.248 2.73836C106.079 4.56394 106.996 6.83703 107 9.55765V73.2497C107 75.9703 106.083 78.2434 104.248 80.069C102.413 81.8946 100.13 82.8054 97.3997 82.8014H18.2911L0 101ZM15.7528 76.887H97.3997C98.3112 76.887 99.1494 76.5085 99.9142 75.7515C100.679 74.9944 101.06 74.1605 101.056 73.2497V9.55173C101.056 8.64486 100.675 7.81093 99.9142 7.04995C99.1533 6.28897 98.3152 5.91044 97.3997 5.91439H9.60028C8.6888 5.91439 7.85063 6.29291 7.08578 7.04995C6.32093 7.80699 5.94048 8.64092 5.94444 9.55173V86.6162L15.7528 76.887Z" fill="#BC9F4C"></path></svg>