<svg xmlns="http://www.w3.org/2000/svg" width="31" height="31" viewBox="0 0 31 31" fill="none"><path d="M27.6877 13.5682L26.4515 18.8408C25.392 23.3943 23.2981 25.2359 19.3626 24.8575C18.7319 24.8071 18.0508 24.6935 17.3192 24.517L15.2001 24.0124C9.94011 22.7636 8.31293 20.1652 9.54908 14.8926L10.7852 9.60746C11.0375 8.53529 11.3402 7.60187 11.7187 6.83243C13.1945 3.7799 15.7046 2.96 19.9176 3.95649L22.0241 4.44843C27.3093 5.68458 28.9238 8.29563 27.6877 13.5682Z" stroke="#BC9F4C" stroke-width="1.42527" stroke-linecap="round" stroke-linejoin="round"></path><path d="M19.3624 24.8571C18.5803 25.3869 17.5964 25.8284 16.3981 26.2194L14.4052 26.8753C9.39748 28.4899 6.7612 27.1402 5.13402 22.1325L3.51946 17.1501C1.90489 12.1424 3.24196 9.49354 8.24963 7.87897L10.2426 7.22306C10.7598 7.05908 11.2517 6.92033 11.7184 6.83203C11.34 7.60147 11.0373 8.53489 10.785 9.60706L9.54885 14.8922C8.3127 20.1648 9.93987 22.7632 15.1998 24.012L17.3189 24.5166C18.0505 24.6931 18.7317 24.8067 19.3624 24.8571Z" stroke="#BC9F4C" stroke-width="1.42527" stroke-linecap="round" stroke-linejoin="round"></path><path d="M16.3086 11.1602L22.4263 12.7117" stroke="#BC9F4C" stroke-width="1.42527" stroke-linecap="round" stroke-linejoin="round"></path><path d="M15.0742 16.041L18.7322 16.9744" stroke="#BC9F4C" stroke-width="1.42527" stroke-linecap="round" stroke-linejoin="round"></path></svg>