<svg xmlns="http://www.w3.org/2000/svg" width="93" height="93" viewBox="0 0 93 93" fill="none"><path d="M26.9407 58.7003C26.9407 58.7003 6.98201 54.4354 6.64053 54.5007C6.29904 54.5661 2.30295 58.5622 2.44099 59.1798C2.57904 59.8046 20.0601 69.0247 20.0601 69.0247L25.0807 63.7281L26.9407 58.7003ZM24.187 72.8101C24.187 72.8101 33.8866 89.601 34.3008 89.601C34.7149 89.601 39.1833 86.1571 39.1833 85.8156C39.1833 85.4741 35.0564 65.45 35.0564 65.45L27.9651 66.2783L24.187 72.8101Z" fill="#006CA8"></path><path d="M16.5573 18.7291C16.5573 18.7291 15.1623 20.3058 14.8644 20.8652C14.5665 21.4247 14.5156 22.3837 15.155 22.7252C15.7944 23.0667 16.5718 22.8342 16.9569 22.4055C17.342 21.9768 19.2383 19.6446 19.2383 19.6446C19.2383 19.6446 16.7244 18.5983 16.5573 18.7291ZM26.7437 24.4326C26.7437 24.4326 25.6175 25.7695 25.1598 26.3798C24.7166 26.9683 24.7238 27.8911 25.3414 28.327C26.2278 28.9518 27.107 28.2543 27.5865 27.7385C28.0297 27.259 29.2794 25.7913 29.2794 25.7913L26.7437 24.4326ZM36.3852 29.6203C36.3852 29.6203 34.9102 31.0952 34.4743 31.6837C33.9875 32.3304 33.8785 33.2749 34.547 33.7835C35.2808 34.3357 36.0945 34.0814 36.7557 33.4856C37.4169 32.8971 38.8918 31.2768 38.8918 31.2768L36.3852 29.6203ZM61.8366 54.5269C61.8366 54.5269 60.1074 55.7257 59.6788 56.1907C59.2573 56.6557 58.974 57.5857 59.5189 58.0725C60.0566 58.5593 60.8703 58.5157 61.3498 58.196C61.8294 57.8763 64.227 56.0672 64.227 56.0672C64.227 56.0672 62.0328 54.4469 61.8366 54.5269ZM67.6637 63.6525C67.6637 63.6525 66.2323 64.6551 65.6366 65.1274C65.0553 65.5851 64.8301 66.4788 65.3169 67.0601C66.0071 67.8883 67.0461 67.4451 67.6346 67.0673C68.1868 66.7186 69.7707 65.6142 69.7707 65.6142L67.6637 63.6525ZM72.9966 72.9815C72.9966 72.9815 71.2166 74.0568 70.6426 74.5219C70.0177 75.0377 69.6835 75.9241 70.2139 76.578C70.7952 77.2901 71.6452 77.2319 72.4299 76.8251C73.2146 76.4182 75.031 75.1975 75.031 75.1975L72.9966 72.9815ZM41.6091 17.2397C41.6091 17.2397 41.3548 15.5468 42.7281 13.6359C44.1013 11.7251 48.6568 7.26396 49.3616 7.22763C50.0663 7.1913 51.752 8.08497 53.4448 9.7488C55.0578 11.3254 55.8062 13.3526 55.8352 13.8321C55.8643 14.3116 52.682 17.4649 51.8537 18.2278C51.0254 18.9907 48.7948 21.4755 48.7948 21.4755L41.6091 17.2397Z" fill="#9A9A9A"></path><path d="M43.6875 17.4965C43.6875 17.4965 49.2675 10.6741 50.7642 11.6986C52.2755 12.7303 46.2377 18.5864 46.2377 18.5864L43.6875 17.4965Z" fill="#C8C8C8"></path><path d="M42.4076 17.0577C42.4076 17.0577 45.5682 13.8536 45.9169 13.345C46.2657 12.8364 45.946 12.0735 45.6626 11.6521C45.3792 11.238 44.9433 11.0781 44.9433 11.0781C44.9433 11.0781 42.7128 13.0762 41.9499 14.8272C41.3541 16.1859 41.4558 16.8761 41.4558 16.8761L42.4076 17.0577ZM47.8496 18.707C47.8496 18.707 49.0484 17.4646 49.6514 16.9705C50.1964 16.5273 51.0028 16.5709 51.4824 16.8543C52.0999 17.2176 52.2453 17.8424 52.2453 17.8424L50.022 20.2037L47.8496 18.707Z" fill="#848484"></path><path d="M74.082 43.1934C74.082 43.1934 75.9057 41.0718 76.9665 40.011C78.0636 38.9139 79.8509 37.4245 80.2142 37.4535C80.5775 37.4899 82.1832 38.4635 83.6945 40.011C85.4164 41.7693 86.4845 43.9563 86.5135 44.1597C86.5498 44.3559 83.3312 47.5746 81.8998 48.8024C80.8754 49.6816 74.5034 52.2827 74.5034 51.9557C74.518 51.6215 74.082 43.1934 74.082 43.1934Z" fill="#9A9A9A"></path><path d="M75.1328 47.3007C75.1328 47.3007 80.4077 41.5173 81.6137 42.5999C82.8198 43.6824 75.576 50.1924 75.576 50.1924L75.1328 47.3007Z" fill="#C8C8C8"></path><path d="M74.7427 45.8464L76.6681 43.7248C77.3511 42.9765 77.3075 41.9738 77.1041 41.5379C76.8425 40.9784 76.1668 40.8477 76.1668 40.8477L73.6602 43.5141L74.7427 45.8464ZM76.5664 50.649C76.5664 50.649 79.5889 47.9244 80.1048 47.4957C80.6206 47.067 81.4562 46.7619 82.1173 47.2196C82.6114 47.5611 82.8294 47.9752 82.8294 47.9752C82.8294 47.9752 80.5044 50.5037 79.1021 51.3973C78.223 51.9568 76.145 52.2765 76.145 52.2765L76.5664 50.649Z" fill="#848484"></path><path d="M8.46373 6.4808C7.7517 6.53892 3.23975 11.8719 3.07991 12.2642C2.92006 12.6566 3.07991 13.296 4.19155 13.8481C5.29592 14.4003 36.5018 30.8788 36.9813 31.2711C37.4536 31.6707 43.6366 38.5585 43.6366 38.5585C43.6366 38.5585 58.9235 28.0234 58.8436 27.711C58.7637 27.3913 58.2914 20.8231 58.2914 20.8231C58.2914 20.8231 9.49545 6.40088 8.46373 6.4808ZM53.0601 47.8295C53.0601 47.8295 62.4037 56.3012 63.1957 57.3329C63.9876 58.3646 80.1464 87.8267 80.3862 88.299C80.6259 88.7713 81.6504 89.1709 82.2098 88.6187C82.7693 88.0665 86.9615 84.4192 87.0415 83.5473C87.1214 82.6754 71.5148 32.3828 71.5148 32.3828L59.4757 36.7421L53.0601 47.8295Z" fill="#006CA8"></path><path d="M48.5431 31.4325C48.5431 31.4325 41.1758 24.3049 40.6236 23.9053C40.0714 23.513 5.53789 9.25781 5.53789 9.25781L4.12109 10.8199C4.12109 10.8199 39.1269 25.6055 39.6863 25.9978C40.2458 26.3902 47.0973 33.4087 47.0973 33.4087L48.5431 31.4325ZM59.8702 43.9221C59.8702 43.9221 67.9859 53.8905 68.4727 54.5372C68.9595 55.1838 83.1929 87.7048 83.1929 87.7048L84.6097 86.3824C84.6097 86.3824 70.3909 53.2003 70.1366 52.7498C69.8823 52.2994 60.4297 40.6163 60.4297 40.6163L59.8702 43.9221Z" fill="#014EAC"></path><path d="M17.5956 71.4922C17.5956 71.4922 14.5586 75.837 14.5586 76.1785C14.5586 76.5273 16.593 78.7505 16.8255 78.7505C17.058 78.7505 21.4755 75.5973 21.4755 75.5973L20.8579 72.444L17.5956 71.4922Z" fill="#9A9A9A"></path><path d="M17.5977 71.495C17.5977 71.495 23.6136 61.374 30.0582 52.3283C36.6772 43.0356 42.0465 37.6808 50.3002 28.7005C60.6538 17.4388 67.5488 11.0596 73.928 6.76559C79.2174 3.20543 86.7737 0.793247 89.4692 3.19817C92.4263 5.84286 89.1641 14.1838 85.8437 18.9355C78.3092 29.7177 71.8428 34.8472 64.4246 42.0475C57.1081 49.146 50.9251 55.3072 43.2671 61.0543C38.1085 64.9269 21.4702 75.6146 21.4702 75.6146L17.5977 71.495Z" fill="#C8C8C8"></path><path d="M75.5039 8.02814L77.5165 10.1497C77.5165 10.1497 80.8877 6.90197 83.4089 9.32142C85.9955 11.799 82.428 15.3156 82.428 15.3156L84.6005 17.7423C84.6005 17.7423 90.4929 11.0724 85.683 6.73486C81.498 2.95674 75.5039 8.02814 75.5039 8.02814Z" fill="#3B5361"></path><path d="M34.7593 53.7657C33.822 54.6666 22.7492 67.7738 22.1316 68.5512C21.3397 69.5539 20.9764 70.76 21.8701 71.501C22.7638 72.2349 23.7301 71.5083 24.6092 70.9198C25.7136 70.186 38.5447 58.8661 39.3948 58.0814C40.7607 56.8172 40.9932 54.5358 39.5546 53.2425C37.9707 51.8185 36.1834 52.3997 34.7593 53.7657Z" fill="#9A9A9A"></path><path d="M34.3604 50.7958C33.7283 50.2508 32.9436 50.6141 32.1154 51.5078C31.4033 52.2852 31.0764 53.4913 31.7884 53.9781C32.5004 54.4649 33.445 53.7529 34.0335 53.0336C34.622 52.3215 35.0725 51.4133 34.3604 50.7958ZM36.4093 46.5672C35.7554 47.3155 34.8036 48.5507 35.6973 49.4298C36.5765 50.2944 37.9061 49.1973 38.4873 48.5434C39.0613 47.8895 45.6367 40.1734 53.9558 31.8615C62.0788 23.7386 67.5425 18.6018 68.3854 17.7008C69.0974 16.938 69.032 15.7246 68.4072 15.3395C67.6661 14.8818 66.845 15.1724 65.8279 16.1896C64.8107 17.2068 57.9083 23.5206 51.3983 30.1033C44.8883 36.6859 37.2231 45.6299 36.4093 46.5672Z" fill="#DFDFDF"></path><path d="M76.6314 30.2325C76.6314 30.2325 76.2318 27.5297 74.5535 28.5905C72.7516 29.7312 74.0957 32.8264 74.0957 32.8264C74.0957 32.8264 74.7714 32.1943 75.4907 31.4386C76.0865 30.821 76.4353 30.4578 76.6314 30.2325ZM70.1868 36.59C70.1868 36.59 69.9035 33.1243 67.9999 34.5483C66.4814 35.689 67.5131 39.0966 67.5131 39.0966C67.5131 39.0966 68.385 38.3046 68.9517 37.767C69.5257 37.2221 70.1868 36.59 70.1868 36.59ZM64.0401 42.417C64.0401 42.417 63.8221 39.5398 62.1147 40.4916C60.4073 41.4434 61.548 44.8437 61.548 44.8437C61.548 44.8437 62.3036 44.1607 62.8122 43.6521C63.3208 43.1435 64.0401 42.417 64.0401 42.417ZM57.0796 49.145C57.0796 49.145 56.9489 46.2823 55.2705 47.0452C53.5267 47.8371 54.573 51.5063 54.573 51.5063C54.573 51.5063 55.4231 50.7143 55.8953 50.2711C56.3749 49.8352 57.0796 49.145 57.0796 49.145Z" fill="#3B5361"></path></svg>