<svg xmlns="http://www.w3.org/2000/svg" width="180" height="171" viewBox="0 0 180 171" fill="none"><path d="M13.4375 143.333C17.0013 143.333 20.4192 144.749 22.9393 147.269C25.4593 149.789 26.875 153.207 26.875 156.771C26.875 160.335 25.4593 163.753 22.9393 166.273C20.4192 168.793 17.0013 170.208 13.4375 170.208C9.87365 170.208 6.45577 168.793 3.93575 166.273C1.41573 163.753 0 160.335 0 156.771C0 153.207 1.41573 149.789 3.93575 147.269C6.45577 144.749 9.87365 143.333 13.4375 143.333ZM58.2292 116.458C64.1689 116.458 69.8654 118.818 74.0654 123.018C78.2654 127.218 80.625 132.914 80.625 138.854C80.625 144.794 78.2654 150.49 74.0654 154.69C69.8654 158.89 64.1689 161.25 58.2292 161.25C52.2894 161.25 46.593 158.89 42.3929 154.69C38.1929 150.49 35.8333 144.794 35.8333 138.854C35.8333 132.914 38.1929 127.218 42.3929 123.018C46.593 118.818 52.2894 116.458 58.2292 116.458ZM111.979 107.5C101.319 107.5 91.6438 103.021 85.1042 95.4062C78.5646 103.021 68.8896 107.5 58.2292 107.5C40.6708 107.5 26.0688 94.8687 23.0229 78.2958C16.2576 75.6795 10.44 71.0811 6.33196 65.1029C2.22393 59.1247 0.0169447 52.0453 0 44.7917C0 35.2881 3.77529 26.1737 10.4953 19.4537C17.2154 12.7336 26.3297 8.95833 35.8333 8.95833C38.1625 8.95833 40.3125 9.22708 42.7313 9.58542C49.2708 3.67292 57.7813 0 67.1875 0C77.8479 0 87.5229 4.47917 94.0625 12.0937C100.602 4.47917 110.277 0 120.938 0C138.496 0 153.098 12.6313 156.144 29.2042C162.909 31.8205 168.727 36.4189 172.835 42.3971C176.943 48.3753 179.15 55.4547 179.167 62.7083C179.167 72.2119 175.391 81.3263 168.671 88.0463C161.951 94.7664 152.837 98.5417 143.333 98.5417L136.435 97.9146C129.896 103.827 121.385 107.5 111.979 107.5Z" fill="#BC9F4C"></path><path d="M13.4375 143.333C17.0013 143.333 20.4192 144.749 22.9393 147.269C25.4593 149.789 26.875 153.207 26.875 156.771C26.875 160.335 25.4593 163.753 22.9393 166.273C20.4192 168.793 17.0013 170.208 13.4375 170.208C9.87365 170.208 6.45577 168.793 3.93575 166.273C1.41573 163.753 0 160.335 0 156.771C0 153.207 1.41573 149.789 3.93575 147.269C6.45577 144.749 9.87365 143.333 13.4375 143.333ZM58.2292 116.458C64.1689 116.458 69.8654 118.818 74.0654 123.018C78.2654 127.218 80.625 132.914 80.625 138.854C80.625 144.794 78.2654 150.49 74.0654 154.69C69.8654 158.89 64.1689 161.25 58.2292 161.25C52.2894 161.25 46.593 158.89 42.3929 154.69C38.1929 150.49 35.8333 144.794 35.8333 138.854C35.8333 132.914 38.1929 127.218 42.3929 123.018C46.593 118.818 52.2894 116.458 58.2292 116.458ZM111.979 107.5C101.319 107.5 91.6438 103.021 85.1042 95.4062C78.5646 103.021 68.8896 107.5 58.2292 107.5C40.6708 107.5 26.0688 94.8687 23.0229 78.2958C16.2576 75.6795 10.44 71.0811 6.33196 65.1029C2.22393 59.1247 0.0169447 52.0453 0 44.7917C0 35.2881 3.77529 26.1737 10.4953 19.4537C17.2154 12.7336 26.3297 8.95833 35.8333 8.95833C38.1625 8.95833 40.3125 9.22708 42.7313 9.58542C49.2708 3.67292 57.7813 0 67.1875 0C77.8479 0 87.5229 4.47917 94.0625 12.0937C100.602 4.47917 110.277 0 120.938 0C138.496 0 153.098 12.6313 156.144 29.2042C162.909 31.8205 168.727 36.4189 172.835 42.3971C176.943 48.3753 179.15 55.4547 179.167 62.7083C179.167 72.2119 175.391 81.3263 168.671 88.0463C161.951 94.7664 152.837 98.5417 143.333 98.5417L136.435 97.9146C129.896 103.827 121.385 107.5 111.979 107.5Z" fill="#BC9F4C"></path><path d="M34.1255 38.6378C34.0687 38.0649 33.8249 37.6198 33.394 37.3026C32.9631 36.9853 32.3784 36.8267 31.6397 36.8267C31.1378 36.8267 30.7141 36.8977 30.3684 37.0398C30.0228 37.1771 29.7576 37.3688 29.573 37.6151C29.3931 37.8613 29.3031 38.1406 29.3031 38.4531C29.2936 38.7135 29.3481 38.9408 29.4664 39.1349C29.5895 39.3291 29.7576 39.4972 29.9707 39.6392C30.1838 39.7765 30.43 39.8973 30.7093 40.0014C30.9887 40.1009 31.287 40.1861 31.6042 40.2571L32.911 40.5696C33.5455 40.7116 34.1279 40.901 34.6582 41.1378C35.1885 41.3745 35.6478 41.6657 36.036 42.0114C36.4243 42.357 36.725 42.7642 36.938 43.233C37.1558 43.7017 37.2671 44.2391 37.2718 44.8452C37.2671 45.7353 37.0398 46.5071 36.59 47.1605C36.1449 47.8092 35.501 48.3134 34.6582 48.6733C33.8201 49.0284 32.8092 49.206 31.6255 49.206C30.4513 49.206 29.4286 49.026 28.5574 48.6662C27.6909 48.3063 27.0138 47.7737 26.5261 47.0682C26.0431 46.358 25.7898 45.4796 25.7662 44.4332H28.742C28.7752 44.9209 28.9148 45.3281 29.161 45.6548C29.412 45.9768 29.7458 46.2206 30.1625 46.3864C30.5839 46.5473 31.0597 46.6278 31.59 46.6278C32.1109 46.6278 32.563 46.5521 32.9466 46.4006C33.3348 46.2491 33.6355 46.0384 33.8485 45.7685C34.0616 45.4986 34.1681 45.1884 34.1681 44.8381C34.1681 44.5114 34.0711 44.2367 33.877 44.0142C33.6876 43.7917 33.4082 43.6023 33.0389 43.446C32.6743 43.2898 32.2269 43.1477 31.6966 43.0199L30.1127 42.6222C28.8864 42.3239 27.9181 41.8575 27.2079 41.223C26.4977 40.5885 26.1449 39.7339 26.1497 38.6591C26.1449 37.7784 26.3793 37.009 26.8528 36.3509C27.331 35.6927 27.9868 35.179 28.8201 34.8097C29.6535 34.4403 30.6004 34.2557 31.661 34.2557C32.7406 34.2557 33.6828 34.4403 34.4877 34.8097C35.2974 35.179 35.9271 35.6927 36.377 36.3509C36.8268 37.009 37.0588 37.7713 37.073 38.6378H34.1255ZM45.0861 38.0909V40.3636H38.5165V38.0909H45.0861ZM40.008 35.4773H43.0336V45.6477C43.0336 45.9271 43.0762 46.1449 43.1614 46.3011C43.2466 46.4527 43.365 46.5592 43.5165 46.6207C43.6728 46.6823 43.8527 46.7131 44.0563 46.7131C44.1983 46.7131 44.3404 46.7012 44.4824 46.6776C44.6245 46.6491 44.7334 46.6278 44.8091 46.6136L45.285 48.8651C45.1335 48.9124 44.9204 48.9669 44.6458 49.0284C44.3712 49.0947 44.0373 49.1349 43.6444 49.1491C42.9152 49.1776 42.276 49.0805 41.7267 48.858C41.1822 48.6354 40.7585 48.2898 40.4554 47.821C40.1524 47.3523 40.0033 46.7604 40.008 46.0455V35.4773ZM50.1678 49.206C49.4718 49.206 48.8515 49.0852 48.307 48.8438C47.7625 48.5975 47.3316 48.2353 47.0144 47.7571C46.7019 47.2741 46.5456 46.6728 46.5456 45.9531C46.5456 45.3471 46.6569 44.8381 46.8794 44.4261C47.102 44.0142 47.405 43.6828 47.7885 43.4318C48.1721 43.1809 48.6077 42.9915 49.0953 42.8636C49.5878 42.7358 50.1039 42.6458 50.6436 42.5938C51.2781 42.5275 51.7895 42.4659 52.1777 42.4091C52.566 42.3475 52.8477 42.2576 53.0229 42.1392C53.1981 42.0208 53.2857 41.8456 53.2857 41.6136V41.571C53.2857 41.1212 53.1436 40.7732 52.8596 40.527C52.5802 40.2808 52.1825 40.1577 51.6664 40.1577C51.1219 40.1577 50.6886 40.2784 50.3667 40.5199C50.0447 40.7566 49.8316 41.0549 49.7275 41.4148L46.9292 41.1875C47.0712 40.5246 47.3506 39.9517 47.7672 39.4688C48.1839 38.9811 48.7213 38.607 49.3794 38.3466C50.0423 38.0814 50.8094 37.9489 51.6806 37.9489C52.2866 37.9489 52.8667 38.0199 53.4206 38.1619C53.9793 38.304 54.4741 38.5241 54.905 38.8224C55.3406 39.1207 55.6839 39.5043 55.9348 39.973C56.1858 40.437 56.3113 40.9934 56.3113 41.642V49H53.4419V47.4872H53.3567C53.1815 47.8281 52.9471 48.1288 52.6536 48.3892C52.36 48.6449 52.0073 48.8461 51.5953 48.9929C51.1834 49.1349 50.7076 49.206 50.1678 49.206ZM51.0343 47.1179C51.4793 47.1179 51.8723 47.0303 52.2132 46.8551C52.5542 46.6752 52.8217 46.4337 53.0158 46.1307C53.2099 45.8277 53.307 45.4844 53.307 45.1009V43.9432C53.2123 44.0047 53.0821 44.0616 52.9164 44.1136C52.7554 44.161 52.5731 44.206 52.3695 44.2486C52.1659 44.2865 51.9623 44.322 51.7587 44.3551C51.5551 44.3835 51.3704 44.4096 51.2047 44.4332C50.8496 44.4853 50.5395 44.5682 50.2743 44.6818C50.0092 44.7955 49.8032 44.9493 49.6564 45.1435C49.5096 45.3329 49.4363 45.5696 49.4363 45.8537C49.4363 46.2656 49.5854 46.5805 49.8837 46.7983C50.1867 47.0114 50.5703 47.1179 51.0343 47.1179ZM58.6586 49V38.0909H61.5918V39.9943H61.7054C61.9043 39.3172 62.2381 38.8059 62.7069 38.4602C63.1756 38.1098 63.7154 37.9347 64.3262 37.9347C64.4777 37.9347 64.641 37.9441 64.8162 37.9631C64.9914 37.982 65.1453 38.008 65.2779 38.0412V40.7259C65.1358 40.6832 64.9393 40.6454 64.6884 40.6122C64.4374 40.5791 64.2078 40.5625 63.9995 40.5625C63.5544 40.5625 63.1567 40.6596 62.8063 40.8537C62.4606 41.0431 62.186 41.3082 61.9824 41.6491C61.7836 41.9901 61.6841 42.383 61.6841 42.8281V49H58.6586ZM73.1916 38.0909V40.3636H66.622V38.0909H73.1916ZM68.1135 35.4773H71.139V45.6477C71.139 45.9271 71.1816 46.1449 71.2669 46.3011C71.3521 46.4527 71.4705 46.5592 71.622 46.6207C71.7782 46.6823 71.9582 46.7131 72.1618 46.7131C72.3038 46.7131 72.4458 46.7012 72.5879 46.6776C72.7299 46.6491 72.8388 46.6278 72.9146 46.6136L73.3904 48.8651C73.2389 48.9124 73.0259 48.9669 72.7512 49.0284C72.4766 49.0947 72.1428 49.1349 71.7498 49.1491C71.0207 49.1776 70.3815 49.0805 69.8322 48.858C69.2877 48.6354 68.8639 48.2898 68.5609 47.821C68.2579 47.3523 68.1087 46.7604 68.1135 46.0455V35.4773ZM75.1625 49V38.0909H78.188V49H75.1625ZM76.6824 36.6847C76.2325 36.6847 75.8467 36.5355 75.5247 36.2372C75.2074 35.9342 75.0488 35.572 75.0488 35.1506C75.0488 34.7339 75.2074 34.3764 75.5247 34.0781C75.8467 33.7751 76.2325 33.6236 76.6824 33.6236C77.1322 33.6236 77.5157 33.7751 77.8329 34.0781C78.1549 34.3764 78.3159 34.7339 78.3159 35.1506C78.3159 35.572 78.1549 35.9342 77.8329 36.2372C77.5157 36.5355 77.1322 36.6847 76.6824 36.6847ZM83.6373 42.6932V49H80.6117V38.0909H83.4952V40.0156H83.623C83.8645 39.3812 84.2694 38.8793 84.8375 38.5099C85.4057 38.1359 86.0946 37.9489 86.9043 37.9489C87.6619 37.9489 88.3224 38.1146 88.8858 38.446C89.4493 38.7775 89.8873 39.2509 90.1998 39.8665C90.5123 40.4773 90.6685 41.2064 90.6685 42.054V49H87.6429V42.5938C87.6477 41.9261 87.4772 41.4053 87.1316 41.0312C86.7859 40.6525 86.3101 40.4631 85.704 40.4631C85.2968 40.4631 84.937 40.5507 84.6245 40.7259C84.3167 40.901 84.0752 41.1567 83.9 41.4929C83.7296 41.8243 83.642 42.2244 83.6373 42.6932ZM97.9679 53.3182C96.9877 53.3182 96.1473 53.1832 95.4466 52.9134C94.7505 52.6482 94.1966 52.286 93.7846 51.8267C93.3727 51.3674 93.1052 50.8513 92.9821 50.2784L95.7804 49.902C95.8656 50.1198 96.0005 50.3234 96.1852 50.5128C96.3699 50.7022 96.6137 50.8537 96.9167 50.9673C97.2245 51.0857 97.5985 51.1449 98.0389 51.1449C98.697 51.1449 99.2392 50.9839 99.6653 50.6619C100.096 50.3447 100.312 49.812 100.312 49.0639V47.0682H100.184C100.051 47.3712 99.8523 47.6577 99.5872 47.9276C99.322 48.1974 98.9811 48.4176 98.5645 48.5881C98.1478 48.7585 97.6506 48.8438 97.073 48.8438C96.2538 48.8438 95.5081 48.6544 94.8358 48.2756C94.1681 47.892 93.6355 47.3073 93.2377 46.5213C92.8448 45.7306 92.6483 44.7315 92.6483 43.5241C92.6483 42.2884 92.8495 41.2562 93.252 40.4276C93.6544 39.599 94.1895 38.9787 94.8571 38.5668C95.5294 38.1548 96.2657 37.9489 97.0659 37.9489C97.6767 37.9489 98.188 38.053 98.6 38.2614C99.0119 38.465 99.3433 38.7206 99.5943 39.0284C99.85 39.3314 100.046 39.6297 100.184 39.9233H100.297V38.0909H103.302V49.1065C103.302 50.0346 103.074 50.8111 102.62 51.4361C102.165 52.0611 101.536 52.5298 100.731 52.8423C99.9305 53.1596 99.0095 53.3182 97.9679 53.3182ZM98.0318 46.571C98.5195 46.571 98.9314 46.4503 99.2676 46.2088C99.6085 45.9626 99.8689 45.6122 100.049 45.1577C100.233 44.6984 100.326 44.1491 100.326 43.5099C100.326 42.8707 100.236 42.3168 100.056 41.848C99.876 41.3745 99.6156 41.0076 99.2747 40.7472C98.9338 40.4867 98.5195 40.3565 98.0318 40.3565C97.5346 40.3565 97.1156 40.4915 96.7747 40.7614C96.4338 41.0265 96.1757 41.3958 96.0005 41.8693C95.8253 42.3428 95.7377 42.8897 95.7377 43.5099C95.7377 44.1397 95.8253 44.6842 96.0005 45.1435C96.1805 45.598 96.4385 45.9508 96.7747 46.2017C97.1156 46.4479 97.5346 46.571 98.0318 46.571ZM116.205 38.0909V40.3636H109.472V38.0909H116.205ZM111.013 49V37.3026C111.013 36.5118 111.167 35.8561 111.475 35.3352C111.787 34.8144 112.213 34.4238 112.753 34.1634C113.293 33.9029 113.906 33.7727 114.593 33.7727C115.057 33.7727 115.48 33.8082 115.864 33.8793C116.252 33.9503 116.541 34.0142 116.73 34.071L116.191 36.3438C116.072 36.3059 115.925 36.2704 115.75 36.2372C115.58 36.2041 115.405 36.1875 115.225 36.1875C114.78 36.1875 114.469 36.2917 114.294 36.5C114.119 36.7036 114.031 36.9901 114.031 37.3594V49H111.013ZM118.053 49V38.0909H120.986V39.9943H121.1C121.299 39.3172 121.633 38.8059 122.101 38.4602C122.57 38.1098 123.11 37.9347 123.721 37.9347C123.872 37.9347 124.036 37.9441 124.211 37.9631C124.386 37.982 124.54 38.008 124.672 38.0412V40.7259C124.53 40.6832 124.334 40.6454 124.083 40.6122C123.832 40.5791 123.602 40.5625 123.394 40.5625C122.949 40.5625 122.551 40.6596 122.201 40.8537C121.855 41.0431 121.581 41.3082 121.377 41.6491C121.178 41.9901 121.079 42.383 121.079 42.8281V49H118.053ZM130.658 49.2131C129.555 49.2131 128.601 48.9787 127.796 48.5099C126.995 48.0365 126.378 47.3783 125.942 46.5355C125.506 45.688 125.289 44.7055 125.289 43.5881C125.289 42.4612 125.506 41.4763 125.942 40.6335C126.378 39.786 126.995 39.1278 127.796 38.6591C128.601 38.1856 129.555 37.9489 130.658 37.9489C131.761 37.9489 132.713 38.1856 133.513 38.6591C134.318 39.1278 134.938 39.786 135.374 40.6335C135.809 41.4763 136.027 42.4612 136.027 43.5881C136.027 44.7055 135.809 45.688 135.374 46.5355C134.938 47.3783 134.318 48.0365 133.513 48.5099C132.713 48.9787 131.761 49.2131 130.658 49.2131ZM130.672 46.8693C131.174 46.8693 131.593 46.7273 131.929 46.4432C132.265 46.1544 132.519 45.7614 132.689 45.2642C132.864 44.767 132.952 44.2012 132.952 43.5668C132.952 42.9323 132.864 42.3665 132.689 41.8693C132.519 41.3722 132.265 40.9792 131.929 40.6903C131.593 40.4015 131.174 40.2571 130.672 40.2571C130.165 40.2571 129.739 40.4015 129.394 40.6903C129.053 40.9792 128.795 41.3722 128.619 41.8693C128.449 42.3665 128.364 42.9323 128.364 43.5668C128.364 44.2012 128.449 44.767 128.619 45.2642C128.795 45.7614 129.053 46.1544 129.394 46.4432C129.739 46.7273 130.165 46.8693 130.672 46.8693ZM137.994 49V38.0909H140.878V40.0156H141.006C141.233 39.3764 141.612 38.8722 142.142 38.5028C142.673 38.1335 143.307 37.9489 144.046 37.9489C144.794 37.9489 145.431 38.1359 145.956 38.5099C146.482 38.8793 146.832 39.3812 147.007 40.0156H147.121C147.343 39.3906 147.746 38.8911 148.328 38.517C148.915 38.1383 149.609 37.9489 150.409 37.9489C151.427 37.9489 152.253 38.2732 152.888 38.9219C153.527 39.5658 153.847 40.4796 153.847 41.6634V49H150.828V42.2599C150.828 41.6539 150.667 41.1993 150.345 40.8963C150.023 40.5933 149.621 40.4418 149.138 40.4418C148.589 40.4418 148.16 40.617 147.852 40.9673C147.545 41.313 147.391 41.7699 147.391 42.3381V49H144.458V42.196C144.458 41.661 144.304 41.2348 143.996 40.9176C143.693 40.6004 143.293 40.4418 142.796 40.4418C142.459 40.4418 142.156 40.527 141.887 40.6974C141.621 40.8632 141.411 41.0975 141.254 41.4006C141.098 41.6989 141.02 42.0492 141.02 42.4517V49H137.994ZM41.3876 74.8182V56.6364H42.5524V74.8182H41.3876ZM44.4771 62.6378C44.4203 62.0649 44.1764 61.6198 43.7456 61.3026C43.3147 60.9853 42.7299 60.8267 41.9913 60.8267C41.4894 60.8267 41.0656 60.8977 40.72 61.0398C40.3743 61.1771 40.1092 61.3688 39.9245 61.6151C39.7446 61.8613 39.6547 62.1406 39.6547 62.4531C39.6452 62.7135 39.6996 62.9408 39.818 63.1349C39.9411 63.3291 40.1092 63.4972 40.3223 63.6392C40.5353 63.7765 40.7815 63.8973 41.0609 64.0014C41.3403 64.1009 41.6386 64.1861 41.9558 64.2571L43.2626 64.5696C43.8971 64.7116 44.4795 64.901 45.0098 65.1378C45.5401 65.3745 45.9993 65.6657 46.3876 66.0114C46.7759 66.357 47.0765 66.7642 47.2896 67.233C47.5074 67.7017 47.6187 68.2391 47.6234 68.8452C47.6187 69.7353 47.3914 70.5071 46.9416 71.1605C46.4965 71.8092 45.8526 72.3134 45.0098 72.6733C44.1717 73.0284 43.1608 73.206 41.9771 73.206C40.8029 73.206 39.7801 73.026 38.9089 72.6662C38.0424 72.3063 37.3654 71.7737 36.8777 71.0682C36.3947 70.358 36.1414 69.4796 36.1177 68.4332H39.0936C39.1267 68.9209 39.2664 69.3281 39.5126 69.6548C39.7636 69.9768 40.0974 70.2206 40.514 70.3864C40.9354 70.5473 41.4113 70.6278 41.9416 70.6278C42.4624 70.6278 42.9146 70.5521 43.2981 70.4006C43.6864 70.2491 43.987 70.0384 44.2001 69.7685C44.4132 69.4986 44.5197 69.1884 44.5197 68.8381C44.5197 68.5114 44.4226 68.2367 44.2285 68.0142C44.0391 67.7917 43.7598 67.6023 43.3904 67.446C43.0259 67.2898 42.5784 67.1477 42.0481 67.0199L40.4643 66.6222C39.238 66.3239 38.2697 65.8575 37.5595 65.223C36.8493 64.5885 36.4965 63.7339 36.5012 62.6591C36.4965 61.7784 36.7309 61.009 37.2044 60.3509C37.6826 59.6927 38.3384 59.179 39.1717 58.8097C40.005 58.4403 40.952 58.2557 42.0126 58.2557C43.0922 58.2557 44.0344 58.4403 44.8393 58.8097C45.649 59.179 46.2787 59.6927 46.7285 60.3509C47.1783 61.009 47.4103 61.7713 47.4245 62.6378H44.4771ZM49.3865 70.4432V68.0213L55.459 58.4545H57.5471V61.8068H56.3113L52.4831 67.8651V67.9787H61.1124V70.4432H49.3865ZM56.3681 73V69.7045L56.4249 68.6321V58.4545H59.3084V73H56.3681ZM68.4242 58.2557C69.1723 58.2557 69.892 58.3812 70.5833 58.6321C71.2793 58.883 71.8996 59.2831 72.4441 59.8324C72.9933 60.3816 73.4266 61.1108 73.7438 62.0199C74.0658 62.9242 74.2291 64.0346 74.2338 65.3509C74.2338 66.5866 74.0942 67.6899 73.8148 68.6605C73.5402 69.6264 73.1448 70.4479 72.6287 71.125C72.1126 71.8021 71.49 72.3182 70.7608 72.6733C70.0317 73.0237 69.2173 73.1989 68.3176 73.1989C67.347 73.1989 66.49 73.0118 65.7466 72.6378C65.0033 72.259 64.4043 71.7453 63.9498 71.0966C63.4999 70.4432 63.2277 69.7093 63.133 68.8949H66.1657C66.284 69.4252 66.5326 69.8371 66.9114 70.1307C67.2902 70.4195 67.7589 70.5639 68.3176 70.5639C69.2646 70.5639 69.9843 70.152 70.4767 69.3281C70.9692 68.4995 71.2177 67.3655 71.2225 65.9261H71.123C70.9052 66.3523 70.6117 66.7192 70.2424 67.027C69.873 67.33 69.4493 67.5644 68.9711 67.7301C68.4976 67.8958 67.9933 67.9787 67.4583 67.9787C66.6013 67.9787 65.8366 67.7775 65.1642 67.375C64.4919 66.9725 63.9616 66.4186 63.5733 65.7131C63.1851 65.0076 62.9909 64.2027 62.9909 63.2983C62.9862 62.3229 63.2111 61.4541 63.6657 60.6918C64.1202 59.9295 64.7547 59.3329 65.5691 58.902C66.3882 58.4664 67.3399 58.2509 68.4242 58.2557ZM68.4455 60.6705C67.9673 60.6705 67.5411 60.7841 67.1671 61.0114C66.7978 61.2386 66.5042 61.544 66.2864 61.9276C66.0733 62.3111 65.9692 62.7396 65.9739 63.2131C65.9739 63.6913 66.0781 64.1222 66.2864 64.5057C66.4995 64.8845 66.7883 65.1875 67.1529 65.4148C67.5222 65.6373 67.9436 65.7486 68.4171 65.7486C68.7722 65.7486 69.1013 65.6823 69.4043 65.5497C69.7073 65.4171 69.9701 65.2348 70.1926 65.0028C70.4199 64.7661 70.5975 64.4938 70.7253 64.1861C70.8532 63.8783 70.9171 63.5516 70.9171 63.206C70.9123 62.7467 70.8034 62.3253 70.5904 61.9418C70.3773 61.5582 70.0837 61.2505 69.7097 61.0185C69.3356 60.7865 68.9142 60.6705 68.4455 60.6705ZM77.5755 73.1847C77.1067 73.1847 76.7042 73.0189 76.3681 72.6875C76.0366 72.3513 75.8709 71.9489 75.8709 71.4801C75.8709 71.0161 76.0366 70.6184 76.3681 70.2869C76.7042 69.9555 77.1067 69.7898 77.5755 69.7898C78.03 69.7898 78.4277 69.9555 78.7686 70.2869C79.1096 70.6184 79.28 71.0161 79.28 71.4801C79.28 71.7926 79.1995 72.0791 79.0385 72.3395C78.8823 72.5952 78.6763 72.8011 78.4206 72.9574C78.165 73.1089 77.8832 73.1847 77.5755 73.1847ZM86.725 58.2557C87.4731 58.2557 88.1928 58.3812 88.8841 58.6321C89.5801 58.883 90.2003 59.2831 90.7449 59.8324C91.2941 60.3816 91.7273 61.1108 92.0446 62.0199C92.3665 62.9242 92.5299 64.0346 92.5346 65.3509C92.5346 66.5866 92.3949 67.6899 92.1156 68.6605C91.841 69.6264 91.4456 70.4479 90.9295 71.125C90.4134 71.8021 89.7908 72.3182 89.0616 72.6733C88.3324 73.0237 87.5181 73.1989 86.6184 73.1989C85.6478 73.1989 84.7908 73.0118 84.0474 72.6378C83.304 72.259 82.7051 71.7453 82.2505 71.0966C81.8007 70.4432 81.5285 69.7093 81.4338 68.8949H84.4664C84.5848 69.4252 84.8334 69.8371 85.2122 70.1307C85.591 70.4195 86.0597 70.5639 86.6184 70.5639C87.5654 70.5639 88.2851 70.152 88.7775 69.3281C89.2699 68.4995 89.5185 67.3655 89.5233 65.9261H89.4238C89.206 66.3523 88.9125 66.7192 88.5431 67.027C88.1738 67.33 87.7501 67.5644 87.2718 67.7301C86.7984 67.8958 86.2941 67.9787 85.7591 67.9787C84.902 67.9787 84.1374 67.7775 83.465 67.375C82.7927 66.9725 82.2624 66.4186 81.8741 65.7131C81.4859 65.0076 81.2917 64.2027 81.2917 63.2983C81.287 62.3229 81.5119 61.4541 81.9664 60.6918C82.421 59.9295 83.0555 59.3329 83.8699 58.902C84.689 58.4664 85.6407 58.2509 86.725 58.2557ZM86.7463 60.6705C86.2681 60.6705 85.8419 60.7841 85.4679 61.0114C85.0985 61.2386 84.805 61.544 84.5872 61.9276C84.3741 62.3111 84.2699 62.7396 84.2747 63.2131C84.2747 63.6913 84.3788 64.1222 84.5872 64.5057C84.8002 64.8845 85.0891 65.1875 85.4537 65.4148C85.823 65.6373 86.2444 65.7486 86.7179 65.7486C87.073 65.7486 87.402 65.6823 87.7051 65.5497C88.0081 65.4171 88.2709 65.2348 88.4934 65.0028C88.7207 64.7661 88.8983 64.4938 89.0261 64.1861C89.1539 63.8783 89.2179 63.5516 89.2179 63.206C89.2131 62.7467 89.1042 62.3253 88.8912 61.9418C88.6781 61.5582 88.3845 61.2505 88.0105 61.0185C87.6364 60.7865 87.215 60.6705 86.7463 60.6705ZM99.9778 73.1989C98.974 73.1989 98.0791 73.0142 97.2931 72.6449C96.5119 72.2756 95.8916 71.7666 95.4324 71.1179C94.9731 70.4692 94.734 69.7259 94.715 68.8878H97.698C97.7311 69.4512 97.9679 69.9081 98.4082 70.2585C98.8485 70.6089 99.3717 70.7841 99.9778 70.7841C100.461 70.7841 100.887 70.6776 101.256 70.4645C101.63 70.2467 101.921 69.946 102.13 69.5625C102.343 69.1742 102.449 68.7292 102.449 68.2273C102.449 67.7159 102.34 67.2661 102.123 66.8778C101.91 66.4896 101.614 66.1866 101.235 65.9688C100.856 65.7509 100.423 65.6397 99.9352 65.6349C99.5091 65.6349 99.0948 65.7225 98.6923 65.8977C98.2946 66.0729 97.9844 66.312 97.7619 66.6151L95.0275 66.125L95.7164 58.4545H104.608V60.9688H98.252L97.8755 64.6122H97.9608C98.2164 64.2524 98.6023 63.9541 99.1184 63.7173C99.6345 63.4806 100.212 63.3622 100.851 63.3622C101.727 63.3622 102.509 63.5682 103.195 63.9801C103.882 64.392 104.424 64.9579 104.822 65.6776C105.219 66.3925 105.416 67.2164 105.411 68.1491C105.416 69.1293 105.189 70.0005 104.729 70.7628C104.275 71.5204 103.638 72.117 102.819 72.5526C102.004 72.9834 101.057 73.1989 99.9778 73.1989ZM113.92 57.7727L109.232 75.1875H106.626L111.313 57.7727H113.92ZM115.377 73V62.0909H118.261V64.0156H118.389C118.616 63.3764 118.995 62.8722 119.525 62.5028C120.055 62.1335 120.69 61.9489 121.428 61.9489C122.177 61.9489 122.813 62.1359 123.339 62.5099C123.865 62.8793 124.215 63.3812 124.39 64.0156H124.504C124.726 63.3906 125.129 62.8911 125.711 62.517C126.298 62.1383 126.992 61.9489 127.792 61.9489C128.81 61.9489 129.636 62.2732 130.271 62.9219C130.91 63.5658 131.23 64.4796 131.23 65.6634V73H128.211V66.2599C128.211 65.6539 128.05 65.1993 127.728 64.8963C127.406 64.5933 127.004 64.4418 126.521 64.4418C125.972 64.4418 125.543 64.617 125.235 64.9673C124.927 65.313 124.774 65.7699 124.774 66.3381V73H121.84V66.196C121.84 65.661 121.686 65.2348 121.379 64.9176C121.076 64.6004 120.676 64.4418 120.178 64.4418C119.842 64.4418 119.539 64.527 119.269 64.6974C119.004 64.8632 118.794 65.0975 118.637 65.4006C118.481 65.6989 118.403 66.0492 118.403 66.4517V73H115.377ZM138.548 73.2131C137.445 73.2131 136.491 72.9787 135.686 72.5099C134.886 72.0365 134.268 71.3783 133.833 70.5355C133.397 69.688 133.179 68.7055 133.179 67.5881C133.179 66.4612 133.397 65.4763 133.833 64.6335C134.268 63.786 134.886 63.1278 135.686 62.6591C136.491 62.1856 137.445 61.9489 138.548 61.9489C139.652 61.9489 140.603 62.1856 141.404 62.6591C142.209 63.1278 142.829 63.786 143.264 64.6335C143.7 65.4763 143.918 66.4612 143.918 67.5881C143.918 68.7055 143.7 69.688 143.264 70.5355C142.829 71.3783 142.209 72.0365 141.404 72.5099C140.603 72.9787 139.652 73.2131 138.548 73.2131ZM138.563 70.8693C139.065 70.8693 139.484 70.7273 139.82 70.4432C140.156 70.1544 140.409 69.7614 140.58 69.2642C140.755 68.767 140.843 68.2012 140.843 67.5668C140.843 66.9323 140.755 66.3665 140.58 65.8693C140.409 65.3722 140.156 64.9792 139.82 64.6903C139.484 64.4015 139.065 64.2571 138.563 64.2571C138.056 64.2571 137.63 64.4015 137.284 64.6903C136.943 64.9792 136.685 65.3722 136.51 65.8693C136.34 66.3665 136.254 66.9323 136.254 67.5668C136.254 68.2012 136.34 68.767 136.51 69.2642C136.685 69.7614 136.943 70.1544 137.284 70.4432C137.63 70.7273 138.056 70.8693 138.563 70.8693Z" fill="#F4F4F4"></path></svg>