<svg xmlns="http://www.w3.org/2000/svg" width="116" height="116" viewBox="0 0 116 116" fill="none"><path d="M100.408 72.6366L79.0024 63.0439C78.0325 62.6283 76.9743 62.4613 75.9236 62.5578C74.8729 62.6543 73.8628 63.0114 72.9849 63.5967C72.896 63.6542 72.8112 63.7177 72.7311 63.787L61.5435 73.3027C61.4274 73.3659 61.2982 73.4014 61.1661 73.4061C61.0339 73.4108 60.9025 73.3847 60.7822 73.3298C53.5911 69.8589 46.1418 62.4548 42.6572 55.3634C42.5992 55.2449 42.569 55.1147 42.569 54.9828C42.569 54.8509 42.5992 54.7207 42.6572 54.6022L52.2046 43.2741C52.2732 43.1903 52.3367 43.1026 52.3949 43.0112C52.9721 42.1299 53.3208 41.1188 53.4094 40.069C53.498 39.0192 53.3237 37.9639 52.9024 36.9983L43.3777 15.6289C42.8368 14.3674 41.9014 13.3154 40.7118 12.6308C39.5222 11.9461 38.1427 11.6657 36.7802 11.8317C30.8589 12.6102 25.4236 15.5181 21.4901 20.012C17.5565 24.5059 15.3939 30.2784 15.4063 36.2506C15.4063 71.7303 44.2704 100.594 79.7501 100.594C85.722 100.606 91.494 98.4428 95.9877 94.5095C100.481 90.5761 103.39 85.1414 104.169 79.2205C104.335 77.8644 104.058 76.4911 103.38 75.3048C102.703 74.1185 101.66 73.1827 100.408 72.6366ZM79.7501 95.1569C47.2701 95.1569 20.8438 68.7306 20.8438 36.2506C20.8287 31.6012 22.5068 27.1054 25.5647 23.603C28.6225 20.1007 32.851 17.8315 37.4599 17.2194H37.5641C37.7467 17.2228 37.924 17.2813 38.0728 17.3872C38.2216 17.4931 38.3349 17.6415 38.3979 17.813L47.9588 39.1597C48.0133 39.2784 48.0416 39.4074 48.0416 39.538C48.0416 39.6687 48.0133 39.7977 47.9588 39.9164L38.3933 51.2717C38.3223 51.3531 38.2572 51.4394 38.1985 51.53C37.5999 52.4438 37.2475 53.4966 37.1752 54.5865C37.103 55.6765 37.3134 56.7666 37.7861 57.7514C41.8054 65.9802 50.0975 74.2089 58.4169 78.2281C59.4074 78.6982 60.5029 78.9036 61.5964 78.8242C62.69 78.7448 63.7443 78.3833 64.6565 77.775C64.7425 77.7161 64.8286 77.6527 64.9102 77.5847L76.0933 68.0691C76.2038 68.0097 76.3257 67.9749 76.4509 67.9671C76.576 67.9593 76.7014 67.9786 76.8183 68.0237L98.2285 77.6164C98.4034 77.6909 98.5504 77.8185 98.6488 77.9811C98.7472 78.1437 98.792 78.3332 98.7768 78.5227C98.1679 83.1337 95.9008 87.3653 92.3992 90.4266C88.8976 93.4879 84.4011 95.1694 79.7501 95.1569Z" fill="#BC9F4C"></path></svg>