<svg xmlns="http://www.w3.org/2000/svg" width="84" height="62" viewBox="0 0 84 62" fill="none"><path d="M2 26L13.228 13.372C14.7291 11.6827 16.571 10.3306 18.6325 9.40469C20.6939 8.47876 22.9281 8.00002 25.188 8H26M2 60H24L40 48C40 48 43.24 45.812 48 42C58 34 48 21.336 38 28C29.856 33.428 22 38 22 38" stroke="black" stroke-width="4" stroke-linecap="round" stroke-linejoin="round"></path><path d="M26 36V10C26 7.87827 26.8429 5.84344 28.3431 4.34315C29.8434 2.84285 31.8783 2 34 2H74C76.1217 2 78.1566 2.84285 79.6569 4.34315C81.1571 5.84344 82 7.87827 82 10V34C82 36.1217 81.1571 38.1566 79.6569 39.6569C78.1566 41.1571 76.1217 42 74 42H48" stroke="black" stroke-width="4"></path><path d="M72 22.04L72.04 21.996M36 22.04L36.04 21.996M54 30C51.8783 30 49.8434 29.1571 48.3431 27.6569C46.8429 26.1566 46 24.1217 46 22C46 19.8783 46.8429 17.8434 48.3431 16.3431C49.8434 14.8429 51.8783 14 54 14C56.1217 14 58.1566 14.8429 59.6569 16.3431C61.1571 17.8434 62 19.8783 62 22C62 24.1217 61.1571 26.1566 59.6569 27.6569C58.1566 29.1571 56.1217 30 54 30Z" stroke="black" stroke-width="4" stroke-linecap="round" stroke-linejoin="round"></path></svg>