<svg xmlns="http://www.w3.org/2000/svg" width="20" height="20" viewBox="0 0 20 20" fill="none"><path d="M18.3331 0H1.66608C0.745516 0 0 0.854204 0 1.90787V14.3122C0 15.3658 0.746298 16.22 1.66608 16.22H13.363L16.6655 20V16.22H18.3331C19.2537 16.22 20 15.3658 20 14.3122V1.90787C20 0.854204 19.2537 0 18.3331 0ZM19.1662 14.3122C19.1662 14.8381 18.7919 15.2657 18.3331 15.2657H15.8325V17.6968L13.7084 15.2657H1.66608C1.20658 15.2657 0.83304 14.8381 0.83304 14.3122V1.90787C0.83304 1.38193 1.20736 0.954383 1.66608 0.954383H18.3331C18.7926 0.954383 19.1662 1.38193 19.1662 1.90787V14.3122Z" fill="#4B4B4B"></path><path d="M10.001 7.16016C9.54073 7.16016 9.16797 7.58771 9.16797 8.11364C9.16797 8.63958 9.54073 9.06713 10.001 9.06713C10.4613 9.06713 10.834 8.64048 10.834 8.11364C10.834 7.58771 10.4613 7.16016 10.001 7.16016Z" fill="#4B4B4B"></path><path d="M13.333 7.16016C12.8728 7.16016 12.5 7.58771 12.5 8.11364C12.5 8.63958 12.8728 9.06713 13.333 9.06713C13.7933 9.06713 14.1661 8.64048 14.1661 8.11364C14.1661 7.58771 13.7933 7.16016 13.333 7.16016Z" fill="#4B4B4B"></path><path d="M6.7432 7.16016C6.28291 7.16016 5.91016 7.58771 5.91016 8.11364C5.91016 8.63958 6.28291 9.06713 6.7432 9.06713C7.20348 9.06713 7.57624 8.64048 7.57624 8.11364C7.57624 7.58771 7.20348 7.16016 6.7432 7.16016Z" fill="#4B4B4B"></path></svg>