<svg xmlns="http://www.w3.org/2000/svg" width="60" height="65" viewBox="0 0 60 65" fill="none"><path d="M29.1994 0.77045C29.312 -0.256817 30.688 -0.256817 30.8006 0.77045L31.7445 9.38829C32.9633 20.5162 41.0619 29.2898 51.3338 30.6102L59.2887 31.6327C60.2371 31.7547 60.2371 33.2453 59.2887 33.3673L51.3338 34.3899C41.0619 35.7102 32.9633 44.4838 31.7445 55.6116L30.8006 64.2295C30.688 65.2568 29.312 65.2568 29.1994 64.2295L28.2555 55.6116C27.0367 44.4838 18.9381 35.7102 8.66611 34.3899L0.711185 33.3673C-0.237062 33.2453 -0.237062 31.7547 0.711185 31.6327L8.66611 30.6102C18.9381 29.2898 27.0367 20.5162 28.2555 9.38829L29.1994 0.77045Z" fill="#F4F4F4"></path></svg>