<svg xmlns="http://www.w3.org/2000/svg" width="66" height="64" viewBox="0 0 66 64" fill="none"><g clip-path="url(#clip0_2656_7075)"><path d="M27.5625 50.1693C27.5625 51.2912 27.2395 52.2449 26.5935 53.0303C25.9475 53.8156 25.1733 54.2083 24.271 54.2083H11.1665C10.2642 54.2083 9.48999 53.8156 8.84399 53.0303C8.198 52.2449 7.875 51.2912 7.875 50.1693C7.875 49.0677 7.9519 48.0426 8.10571 47.0941C8.25952 46.1455 8.51074 45.2275 8.85938 44.3402C9.20801 43.4528 9.73096 42.7541 10.4282 42.2441C11.1255 41.7342 11.9561 41.4792 12.9199 41.4792C14.2324 42.7847 15.832 43.4375 17.7188 43.4375C19.6055 43.4375 21.2051 42.7847 22.5176 41.4792C23.4814 41.4792 24.312 41.7342 25.0093 42.2441C25.7065 42.7541 26.2295 43.4528 26.5781 44.3402C26.9268 45.2275 27.178 46.1455 27.3318 47.0941C27.4856 48.0426 27.5625 49.0677 27.5625 50.1693ZM23.625 36.5833C23.625 38.2153 23.0508 39.6024 21.9023 40.7448C20.7539 41.8872 19.3594 42.4583 17.7188 42.4583C16.0781 42.4583 14.6836 41.8872 13.5352 40.7448C12.3867 39.6024 11.8125 38.2153 11.8125 36.5833C11.8125 34.9514 12.3867 33.5642 13.5352 32.4219C14.6836 31.2795 16.0781 30.7083 17.7188 30.7083C19.3594 30.7083 20.7539 31.2795 21.9023 32.4219C23.0508 33.5642 23.625 34.9514 23.625 36.5833ZM55.125 49.3125V51.2708C55.125 51.5564 55.0327 51.791 54.8481 51.9746C54.6636 52.1582 54.4277 52.25 54.1406 52.25H32.4844C32.1973 52.25 31.9614 52.1582 31.7769 51.9746C31.5923 51.791 31.5 51.5564 31.5 51.2708V49.3125C31.5 49.0269 31.5923 48.7923 31.7769 48.6087C31.9614 48.4251 32.1973 48.3333 32.4844 48.3333H54.1406C54.4277 48.3333 54.6636 48.4251 54.8481 48.6087C55.0327 48.7923 55.125 49.0269 55.125 49.3125ZM43.3125 41.4792V43.4375C43.3125 43.7231 43.2202 43.9577 43.0356 44.1413C42.8511 44.3249 42.6152 44.4167 42.3281 44.4167H32.4844C32.1973 44.4167 31.9614 44.3249 31.7769 44.1413C31.5923 43.9577 31.5 43.7231 31.5 43.4375V41.4792C31.5 41.1936 31.5923 40.959 31.7769 40.7754C31.9614 40.5918 32.1973 40.5 32.4844 40.5H42.3281C42.6152 40.5 42.8511 40.5918 43.0356 40.7754C43.2202 40.959 43.3125 41.1936 43.3125 41.4792ZM55.125 41.4792V43.4375C55.125 43.7231 55.0327 43.9577 54.8481 44.1413C54.6636 44.3249 54.4277 44.4167 54.1406 44.4167H48.2344C47.9473 44.4167 47.7114 44.3249 47.5269 44.1413C47.3423 43.9577 47.25 43.7231 47.25 43.4375V41.4792C47.25 41.1936 47.3423 40.959 47.5269 40.7754C47.7114 40.5918 47.9473 40.5 48.2344 40.5H54.1406C54.4277 40.5 54.6636 40.5918 54.8481 40.7754C55.0327 40.959 55.125 41.1936 55.125 41.4792ZM55.125 33.6458V35.6042C55.125 35.8898 55.0327 36.1243 54.8481 36.3079C54.6636 36.4915 54.4277 36.5833 54.1406 36.5833H32.4844C32.1973 36.5833 31.9614 36.4915 31.7769 36.3079C31.5923 36.1243 31.5 35.8898 31.5 35.6042V33.6458C31.5 33.3602 31.5923 33.1257 31.7769 32.9421C31.9614 32.7585 32.1973 32.6667 32.4844 32.6667H54.1406C54.4277 32.6667 54.6636 32.7585 54.8481 32.9421C55.0327 33.1257 55.125 33.3602 55.125 33.6458ZM59.0625 59.1042V24.8333H3.9375V59.1042C3.9375 59.3694 4.03491 59.5989 4.22974 59.7926C4.42456 59.9864 4.65527 60.0833 4.92188 60.0833H58.0781C58.3447 60.0833 58.5754 59.9864 58.7703 59.7926C58.9651 59.5989 59.0625 59.3694 59.0625 59.1042ZM63 21.8958V59.1042C63 60.4505 62.5181 61.6031 61.5542 62.5619C60.5903 63.5206 59.4316 64 58.0781 64H4.92188C3.56836 64 2.40967 63.5206 1.4458 62.5619C0.481934 61.6031 0 60.4505 0 59.1042V21.8958C0 20.5495 0.481934 19.3969 1.4458 18.4382C2.40967 17.4794 3.56836 17 4.92188 17H58.0781C59.4316 17 60.5903 17.4794 61.5542 18.4382C62.5181 19.3969 63 20.5495 63 21.8958Z" fill="white"></path></g><path d="M55.5625 9.86758L54.2164 8.52145L53.8628 8.16789L53.5093 8.52145L52.5839 9.44676L52.2304 9.80031L52.5839 10.1539L55.2089 12.7789L55.5625 13.1324L55.9161 12.7789L61.1661 7.52887L61.5196 7.17531L61.1661 6.82176L60.2407 5.89645L59.8872 5.54289L59.5336 5.89645L55.5625 9.86758Z" fill="white" stroke="#3B634C"></path><path d="M56.875 19.9416L56.6398 19.8162L52.5872 17.6554C52.5871 17.6553 52.5869 17.6553 52.5868 17.6552C51.3512 16.9979 50.318 16.0166 49.598 14.8166C48.878 13.6165 48.4984 12.243 48.5 10.8435M56.875 19.9416L60.928 17.214C62.0835 16.5994 63.0499 15.6817 63.7232 14.5594C64.3966 13.4371 64.7515 12.1526 64.75 10.8438H65.25V10.8432V2.3125C65.25 1.8318 65.059 1.37078 64.7191 1.03087C64.3792 0.690959 63.9182 0.5 63.4375 0.5H50.3125C49.8318 0.5 49.3708 0.690959 49.0309 1.03087C48.691 1.37078 48.5 1.8318 48.5 2.3125V10.8435M56.875 19.9416L57.1103 19.8162L61.1628 17.6554C61.1629 17.6554 61.163 17.6553 61.163 17.6553L56.875 19.9416ZM48.5 10.8435C48.5 10.8434 48.5 10.8433 48.5 10.8432L49 10.8438M48.5 10.8435V10.8438H49M49 10.8438C48.9985 12.1526 49.3534 13.4371 50.0268 14.5594C50.7002 15.6817 51.6665 16.5994 52.822 17.214L49 10.8438ZM50.8125 2.8125H62.9375V10.8438V10.8441C62.9383 11.8243 62.6723 12.7862 62.168 13.6266C61.6637 14.4671 60.9401 15.1544 60.0749 15.615L60.0746 15.6151L56.875 17.3207L53.6755 15.6145L53.6751 15.6143C52.81 15.1538 52.0865 14.4666 51.5822 13.6262C51.0779 12.7859 50.8118 11.8241 50.8125 10.8441V10.8438V2.8125Z" fill="white" stroke="#3B634C"></path><defs><clipPath id="clip0_2656_7075"><rect width="63" height="47" fill="white" transform="translate(0 17)"></rect></clipPath></defs></svg>