<svg xmlns="http://www.w3.org/2000/svg" width="44" height="57" viewBox="0 0 44 57" fill="none"><path d="M24.5 2V19.6667H42M2 2V55H42V18.4048L41.295 18.0868C34.5081 15.0416 29.0814 9.56322 26.065 2.71171L25.75 2H2Z" stroke="white" stroke-width="3"></path><path d="M22 26C16.5 26 12 30.5 12 36C12 41.5 16.5 46 22 46C27.5 46 32 41.5 32 36C32 30.5 27.5 26 22 26ZM22 44C17.59 44 14 40.41 14 36C14 31.59 17.59 28 22 28C26.41 28 30 31.59 30 36C30 40.41 26.41 44 22 44ZM26.59 31.58L20 38.17L17.41 35.59L16 37L20 41L28 33L26.59 31.58Z" fill="white"></path></svg>