<svg xmlns="http://www.w3.org/2000/svg" width="37" height="65" viewBox="0 0 37 65" fill="none"><path d="M0 0V64.75H37V0H0ZM23.125 60.125H13.875V55.5H23.125V60.125ZM32.375 50.875H4.625V9.25H32.375V50.875Z" fill="white"></path><path fill-rule="evenodd" clip-rule="evenodd" d="M9 32C9 27.286 9 24.929 10.464 23.464C11.93 22 14.286 22 19 22C23.714 22 26.071 22 27.535 23.464C29 24.93 29 27.286 29 32C29 36.714 29 39.071 27.535 40.535C26.072 42 23.714 42 19 42C14.286 42 11.929 42 10.464 40.535C9 39.072 9 36.714 9 32ZM17.004 25.752C17.1025 25.7515 17.1999 25.7316 17.2907 25.6934C17.3815 25.6552 17.4639 25.5995 17.5332 25.5295C17.6024 25.4595 17.6572 25.3765 17.6944 25.2853C17.7316 25.1941 17.7505 25.0965 17.75 24.998C17.7495 24.8995 17.7296 24.8021 17.6914 24.7113C17.6532 24.6205 17.5975 24.5381 17.5275 24.4688C17.4575 24.3996 17.3745 24.3448 17.2833 24.3076C17.1921 24.2704 17.0945 24.2515 16.996 24.252C15.914 24.257 15.016 24.282 14.283 24.41C13.531 24.542 12.888 24.792 12.361 25.294C11.906 25.727 11.601 26.166 11.436 26.797C11.286 27.368 11.259 28.072 11.252 28.994C11.2512 29.0925 11.2698 29.1902 11.3068 29.2815C11.3438 29.3728 11.3983 29.4559 11.4674 29.5261C11.5365 29.5963 11.6188 29.6522 11.7094 29.6906C11.8001 29.729 11.8975 29.7492 11.996 29.75C12.0945 29.7508 12.1922 29.7322 12.2835 29.6952C12.3748 29.6582 12.4579 29.6037 12.5281 29.5346C12.5983 29.4655 12.6542 29.3832 12.6926 29.2926C12.731 29.2019 12.7512 29.1045 12.752 29.006C12.76 28.057 12.792 27.54 12.887 27.178C12.967 26.875 13.093 26.668 13.396 26.38C13.638 26.15 13.968 25.988 14.541 25.888C15.133 25.784 15.911 25.758 17.004 25.752ZM21.004 24.252C20.8051 24.2509 20.6139 24.3289 20.4725 24.4688C20.3311 24.6087 20.2511 24.7991 20.25 24.998C20.2489 25.1969 20.3269 25.3881 20.4668 25.5295C20.6067 25.6709 20.7971 25.7509 20.996 25.752C22.089 25.758 22.867 25.784 23.459 25.888C24.032 25.988 24.362 26.15 24.604 26.38C24.907 26.668 25.034 26.875 25.113 27.178C25.208 27.54 25.241 28.057 25.248 29.006C25.2496 29.2049 25.3301 29.395 25.4719 29.5346C25.6137 29.6741 25.8051 29.7516 26.004 29.75C26.2029 29.7484 26.393 29.6679 26.5326 29.5261C26.6721 29.3843 26.7496 29.1929 26.748 28.994C26.741 28.072 26.714 27.368 26.564 26.797C26.398 26.167 26.094 25.727 25.639 25.294C25.112 24.792 24.469 24.542 23.717 24.41C22.984 24.282 22.086 24.257 21.004 24.252ZM12 31.25C11.8011 31.25 11.6103 31.329 11.4697 31.4697C11.329 31.6103 11.25 31.8011 11.25 32C11.25 32.1989 11.329 32.3897 11.4697 32.5303C11.6103 32.671 11.8011 32.75 12 32.75H26C26.1989 32.75 26.3897 32.671 26.5303 32.5303C26.671 32.3897 26.75 32.1989 26.75 32C26.75 31.8011 26.671 31.6103 26.5303 31.4697C26.3897 31.329 26.1989 31.25 26 31.25H12ZM12.752 34.994C12.7504 34.7951 12.6699 34.605 12.5281 34.4654C12.3863 34.3259 12.1949 34.2484 11.996 34.25C11.7971 34.2516 11.607 34.3321 11.4674 34.4739C11.3279 34.6157 11.2504 34.8071 11.252 35.006C11.259 35.929 11.286 36.632 11.436 37.203C11.602 37.833 11.906 38.273 12.361 38.706C12.888 39.208 13.531 39.458 14.283 39.59C15.016 39.718 15.914 39.743 16.996 39.748C17.0945 39.7485 17.1921 39.7296 17.2833 39.6924C17.3745 39.6552 17.4575 39.6004 17.5275 39.5312C17.5975 39.4619 17.6532 39.3795 17.6914 39.2887C17.7296 39.1979 17.7495 39.1005 17.75 39.002C17.7505 38.9035 17.7316 38.8059 17.6944 38.7147C17.6572 38.6235 17.6024 38.5405 17.5332 38.4705C17.4639 38.4005 17.3815 38.3448 17.2907 38.3066C17.1999 38.2684 17.1025 38.2485 17.004 38.248C15.911 38.243 15.133 38.216 14.541 38.112C13.968 38.012 13.638 37.851 13.396 37.62C13.093 37.332 12.966 37.125 12.887 36.822C12.792 36.461 12.76 35.943 12.752 34.994ZM26.748 35.006C26.7488 34.9075 26.7302 34.8098 26.6932 34.7185C26.6562 34.6272 26.6017 34.5441 26.5326 34.4739C26.393 34.3321 26.2029 34.2516 26.004 34.25C25.8051 34.2484 25.6137 34.3259 25.4719 34.4654C25.3301 34.605 25.2496 34.7951 25.248 34.994C25.24 35.944 25.208 36.461 25.113 36.822C25.033 37.125 24.907 37.332 24.604 37.62C24.362 37.85 24.032 38.012 23.459 38.112C22.867 38.216 22.089 38.242 20.996 38.248C20.8975 38.2485 20.8001 38.2684 20.7093 38.3066C20.6185 38.3448 20.5361 38.4005 20.4668 38.4705C20.3269 38.6119 20.2489 38.8031 20.25 39.002C20.2511 39.2009 20.3311 39.3913 20.4725 39.5312C20.6139 39.6711 20.8051 39.7491 21.004 39.748C22.086 39.743 22.984 39.718 23.717 39.59C24.469 39.458 25.112 39.208 25.639 38.706C26.094 38.273 26.399 37.834 26.564 37.203C26.714 36.632 26.741 35.929 26.748 35.006Z" fill="white"></path></svg>