<svg xmlns="http://www.w3.org/2000/svg" width="257" height="141" viewBox="0 0 257 141" fill="none"><path d="M217.356 26.4867C219.642 26.4867 221.5 24.6877 221.5 22.4735V5.61796C221.5 3.40377 219.642 1.60474 217.356 1.60474C215.07 1.60474 213.212 3.40377 213.212 5.61796V22.4735C213.212 24.6877 215.07 26.4867 217.356 26.4867Z" fill="#A4A9AD"></path><path d="M217.356 1.57715C219.642 1.57715 221.5 3.37618 221.5 5.59037V12.6481H213.212V5.59037C213.212 3.37618 215.07 1.57715 217.356 1.57715Z" fill="black"></path><path d="M103.969 26.4867C106.256 26.4867 108.113 24.6877 108.113 22.4735V5.61796C108.113 3.40377 106.256 1.60474 103.969 1.60474C101.683 1.60474 99.8252 3.40377 99.8252 5.61796V22.4735C99.8252 24.6877 101.654 26.4867 103.969 26.4867Z" fill="#A4A9AD"></path><path d="M103.969 1.57715C106.256 1.57715 108.113 3.37618 108.113 5.59037V12.6481H99.8252V5.59037C99.8252 3.37618 101.654 1.57715 103.969 1.57715Z" fill="black"></path><path d="M93.1753 8.02644H228.157C230.443 8.02644 232.301 6.22741 232.301 4.01322C232.301 1.79903 230.443 0 228.157 0H93.1753C90.889 0 89.0313 1.79903 89.0313 4.01322C89.0313 6.22741 90.889 8.02644 93.1753 8.02644Z" fill="#A4A9AD"></path><path d="M34.6953 36.4788H26.4072V61.8312H34.6953V36.4788Z" fill="#333E48"></path><path d="M34.668 36.4788V44.5606C33.3533 45.0034 31.9815 45.2248 30.5239 45.2248C29.0664 45.2248 27.666 44.9757 26.3799 44.5606V36.4788H34.668Z" fill="black"></path><path d="M39.0156 32.9092C39.0156 35.0893 38.1213 37.1801 36.5295 38.7217C34.9377 40.2633 32.7787 41.1293 30.5275 41.1293C28.2763 41.1293 26.1173 40.2633 24.5255 38.7217C22.9336 37.1801 22.0393 35.0893 22.0393 32.9092C22.0393 30.729 22.9336 28.6382 24.5255 27.0966C26.1173 25.555 28.2763 24.689 30.5275 24.689C32.7787 24.689 34.9377 25.555 36.5295 27.0966C38.1213 28.6382 39.0156 30.729 39.0156 32.9092Z" fill="#A4A9AD"></path><path d="M17.0372 60.8344H76.6543L82.4559 27.7046C83.3419 22.6396 88.4005 18.488 93.7163 18.488H223.582C228.898 18.488 233.956 22.6396 234.842 27.7046L248.218 104.067C249.104 109.131 245.503 113.283 240.187 113.283H17.0372C11.7214 113.283 7.37733 109.076 7.37733 103.928V70.1617C7.37733 65.0414 11.7214 60.8344 17.0372 60.8344Z" fill="#0071CE"></path><path d="M27.1836 84.9971H7.37794V98.0054H27.1836V84.9971Z" fill="#FFB819"></path><path d="M24.0359 98.0054H28.58C29.6375 98.0054 30.5234 97.1751 30.5234 96.1511V86.8515C30.5234 85.8274 29.6661 84.9971 28.58 84.9971H24.0359V98.0054Z" fill="white"></path><path d="M244.866 84.9971L247.152 98.0054H229.919V84.9971H244.866Z" fill="#FFB819"></path><path d="M233.043 98.0054H228.499C227.441 98.0054 226.584 97.1751 226.584 96.1511V86.8515C226.584 85.8274 227.441 84.9971 228.499 84.9971H233.043V98.0054Z" fill="white"></path><path d="M159.396 113.283C159.396 95.127 174.6 80.4026 193.348 80.4026C212.096 80.4026 227.301 95.127 227.301 113.283H159.396Z" fill="black"></path><path d="M221.211 113.284C221.211 120.441 218.275 127.305 213.049 132.365C207.824 137.426 200.736 140.269 193.346 140.269C185.956 140.269 178.868 137.426 173.642 132.365C168.417 127.305 165.481 120.441 165.481 113.284C165.481 106.127 168.417 99.2629 173.642 94.2022C178.868 89.1414 185.956 86.2983 193.346 86.2983C200.736 86.2983 207.824 89.1414 213.049 94.2022C218.275 99.2629 221.211 106.127 221.211 113.284Z" fill="#333E48"></path><path d="M207.457 113.284C207.457 116.91 205.97 120.388 203.322 122.952C200.674 125.516 197.083 126.957 193.339 126.957C189.594 126.957 186.003 125.516 183.356 122.952C180.708 120.388 179.22 116.91 179.22 113.284C179.22 109.658 180.708 106.18 183.356 103.616C186.003 101.052 189.594 99.6113 193.339 99.6113C197.083 99.6113 200.674 101.052 203.322 103.616C205.97 106.18 207.457 109.658 207.457 113.284Z" fill="#A4A9AD"></path><path d="M36.7863 113.283C36.7863 95.127 51.9906 80.4026 70.7389 80.4026C89.4871 80.4026 104.691 95.127 104.691 113.283H36.7863Z" fill="black"></path><path d="M98.6055 113.284C98.6055 120.441 95.6697 127.305 90.444 132.365C85.2182 137.426 78.1307 140.269 70.7404 140.269C63.3501 140.269 56.2625 137.426 51.0368 132.365C45.811 127.305 42.8753 120.441 42.8753 113.284C42.8753 106.127 45.811 99.2629 51.0368 94.2022C56.2625 89.1414 63.3501 86.2983 70.7404 86.2983C78.1307 86.2983 85.2182 89.1414 90.444 94.2022C95.6697 99.2629 98.6055 106.127 98.6055 113.284Z" fill="#333E48"></path><path d="M84.8516 113.284C84.8516 116.91 83.3641 120.388 80.7164 122.952C78.0687 125.516 74.4777 126.957 70.7333 126.957C66.9888 126.957 63.3978 125.516 60.7501 122.952C58.1024 120.388 56.6149 116.91 56.6149 113.284C56.6149 109.658 58.1024 106.18 60.7501 103.616C63.3978 101.052 66.9888 99.6113 70.7333 99.6113C74.4777 99.6113 78.0687 101.052 80.7164 103.616C83.3641 106.18 84.8516 109.658 84.8516 113.284Z" fill="#A4A9AD"></path><path d="M0.00140381 111.096C0.00140381 113.836 2.31635 116.078 5.14572 116.078H16.7205C19.5498 116.078 21.8648 113.836 21.8648 111.096V103.015C21.8648 100.275 19.5498 98.0327 16.7205 98.0327H5.14572C2.31635 98.0327 0.00140381 100.275 0.00140381 103.015V111.096ZM234.926 111.096C234.926 113.836 237.241 116.078 240.07 116.078H251.645C254.474 116.078 256.789 113.836 256.789 111.096V103.015C256.789 100.275 254.474 98.0327 251.645 98.0327H240.07C237.241 98.0327 234.926 100.275 234.926 103.015V111.096Z" fill="#A4A9AD"></path><path d="M143.704 33.4893C143.704 31.1367 141.704 29.1993 139.275 29.1993H103.007C100.578 29.1993 98.5772 31.1367 98.5772 33.4893V52.8358C98.5772 55.1884 100.578 57.1258 103.007 57.1258H139.303C141.732 57.1258 143.733 55.1884 143.733 52.8358V33.4893H143.704ZM217.668 33.4063C217.268 31.0814 214.925 29.1716 212.495 29.1716H172.913C170.483 29.1716 168.483 31.109 168.483 33.4616V52.8081C168.483 55.1607 170.483 57.0981 172.913 57.0981H217.383C219.812 57.0981 221.469 55.1884 221.069 52.8635L217.668 33.4063Z" fill="#333E48"></path><path d="M124.834 72.0997H139.839C142.125 72.0997 143.983 70.3007 143.983 68.0865C143.983 65.8723 142.125 64.0732 139.839 64.0732H124.834C122.548 64.0732 120.69 65.8723 120.69 68.0865C120.69 70.3007 122.548 72.0997 124.834 72.0997ZM205.543 72.0997H220.547C222.834 72.0997 224.691 70.3007 224.691 68.0865C224.691 65.8723 222.834 64.0732 220.547 64.0732H205.543C203.257 64.0732 201.399 65.8723 201.399 68.0865C201.399 70.3007 203.257 72.0997 205.543 72.0997Z" fill="#00B3E3"></path><path d="M103.003 29.1992H139.299C141.729 29.1992 143.729 31.1366 143.729 33.4892V38.2774C143.729 35.9248 141.729 33.9874 139.299 33.9874H103.032C100.603 33.9874 98.602 35.9248 98.602 38.2774V33.4892C98.602 31.109 100.574 29.1992 103.003 29.1992ZM172.938 29.1992H212.492C214.921 29.1992 217.236 31.109 217.665 33.4339L218.465 38.0006C217.95 35.7864 215.693 34.0151 213.349 34.0151H172.909C170.48 34.0151 168.479 35.9525 168.479 38.3051V33.5169C168.508 31.109 170.48 29.1992 172.938 29.1992Z" fill="black"></path></svg>