<svg xmlns="http://www.w3.org/2000/svg" width="64" height="64" viewBox="0 0 64 64" fill="none"><circle cx="31.712" cy="31.712" r="31.712" fill="#3B634C"></circle><path d="M22.2449 40.7327C24.5294 43.0507 27.5709 44.3705 30.82 44.4509C30.8468 44.4643 30.8669 44.4844 30.8937 44.4978C30.9674 44.5447 31.0545 44.5648 31.1349 44.5648H31.1416C31.2287 44.5648 31.3158 44.5447 31.3895 44.4978L31.3962 44.4911C31.4163 44.4777 31.4431 44.4643 31.4632 44.4509C34.7124 44.3705 37.7539 43.0507 40.0384 40.7327C42.3563 38.3813 43.6359 35.2661 43.6359 31.9633C43.6359 29.6118 42.9794 27.3206 41.7333 25.3309C41.7132 25.1031 41.6931 24.8821 41.6663 24.6677C41.6462 24.4868 41.5256 24.3394 41.3514 24.2791L40.8557 24.1116C38.4707 21.1639 34.9401 19.469 31.1416 19.469C27.3431 19.469 23.8125 21.1572 21.4209 24.1116L20.9251 24.2791C20.7576 24.3394 20.637 24.4868 20.6102 24.6677C20.5834 24.8888 20.5633 25.1098 20.5432 25.3309C19.2972 27.3139 18.6406 29.6051 18.6406 31.9566C18.6473 35.2661 19.9269 38.3813 22.2449 40.7327ZM19.5852 31.9633C19.5852 30.4291 19.8867 28.9218 20.4695 27.5283C20.4695 27.5953 20.4762 27.6623 20.4762 27.7293C20.4762 27.7963 20.4762 27.8633 20.4829 27.9303C20.4829 28.0241 20.4896 28.1179 20.4963 28.2116C20.4963 28.2719 20.503 28.3322 20.503 28.3992C20.5097 28.5064 20.5164 28.6069 20.5231 28.7141C20.5298 28.761 20.5298 28.8146 20.5365 28.8615C20.5499 29.0156 20.5633 29.1697 20.5767 29.3237C20.905 32.4322 21.9702 35.3264 23.7455 37.919C23.846 38.0664 23.9465 38.2071 24.047 38.3478C24.0805 38.3947 24.114 38.4349 24.1475 38.4818C24.2212 38.5822 24.2949 38.676 24.3686 38.7765C24.4088 38.8234 24.449 38.877 24.4825 38.9239C24.5562 39.0177 24.6298 39.1115 24.7035 39.2053C24.7437 39.2522 24.7772 39.2991 24.8174 39.346C24.9045 39.4532 24.9983 39.5604 25.0921 39.6742C25.1189 39.701 25.139 39.7278 25.1591 39.7546C25.273 39.8886 25.3936 40.0226 25.5142 40.1499C25.5477 40.1901 25.5812 40.2236 25.6147 40.2638C25.7017 40.3576 25.7888 40.4514 25.8826 40.5452C25.9295 40.5921 25.9764 40.6389 26.0233 40.6858C26.1037 40.7729 26.1908 40.8533 26.2712 40.9337C26.3181 40.9806 26.365 41.0275 26.4186 41.0744C26.5057 41.1615 26.5995 41.2486 26.6932 41.3357C26.7334 41.3759 26.7736 41.4161 26.8205 41.4563C26.9545 41.5769 27.0818 41.6974 27.2225 41.818C27.256 41.8515 27.2895 41.8783 27.3297 41.9051C27.4302 41.9989 27.5374 42.086 27.6446 42.1731C27.6981 42.22 27.7517 42.2669 27.8053 42.3071C27.8924 42.3808 27.9862 42.4545 28.0733 42.5282C28.1336 42.5751 28.1939 42.622 28.2475 42.6688C28.3413 42.7425 28.4351 42.8162 28.5289 42.8832C28.5825 42.9234 28.6428 42.9703 28.6964 43.0105C28.8169 43.1043 28.9442 43.1914 29.0715 43.2852C29.0983 43.3053 29.1251 43.3254 29.1519 43.3455C23.7321 42.3875 19.5852 37.6175 19.5852 31.9633ZM40.3264 24.9223L40.4269 24.9558L40.7619 25.0697C40.7753 25.217 40.7887 25.3711 40.8021 25.5252C40.9093 26.8584 40.8892 28.1715 40.7418 29.4376C40.7284 29.5247 40.7217 29.6185 40.7083 29.7056C40.7083 29.7257 40.7016 29.7391 40.7016 29.7592C40.6949 29.8329 40.6815 29.9066 40.6681 29.9736C40.6614 30.0004 40.6614 30.0205 40.6547 30.0473C40.648 30.1143 40.6346 30.1813 40.6212 30.2416C40.6145 30.2683 40.6145 30.2951 40.6078 30.3219C40.5944 30.3822 40.5877 30.4425 40.5743 30.5028C40.5676 30.5363 40.5609 30.5631 40.5542 30.5966C40.5408 30.6569 40.5341 30.7105 40.5207 30.7708C40.514 30.8043 40.5073 30.8311 40.5006 30.8646C40.4872 30.9249 40.4805 30.9785 40.4671 31.0388C40.4604 31.0656 40.4537 31.0991 40.447 31.1259C40.4336 31.1862 40.4202 31.2465 40.4068 31.3C40.4001 31.3268 40.3934 31.3603 40.3867 31.3871C40.3733 31.4474 40.3599 31.501 40.3465 31.5613C40.3398 31.5881 40.3331 31.6216 40.3264 31.6484C40.313 31.702 40.2996 31.7623 40.2862 31.8159C40.2795 31.8494 40.2728 31.8762 40.2594 31.9097C40.246 31.9633 40.2326 32.0236 40.2125 32.0772C40.2058 32.1107 40.1924 32.1442 40.1857 32.1777C40.1723 32.2313 40.1589 32.2849 40.1388 32.3384C40.1321 32.3719 40.1187 32.4054 40.112 32.4322C40.0986 32.4858 40.0786 32.5394 40.0652 32.593C40.0585 32.6265 40.0451 32.66 40.0317 32.6868C40.0183 32.7404 39.9982 32.794 39.9848 32.8409C39.9714 32.8744 39.9647 32.9079 39.9513 32.9414C39.9312 32.995 39.9178 33.0419 39.8977 33.0955C39.8843 33.129 39.8709 33.1625 39.8642 33.2027C39.8441 33.2496 39.8307 33.2965 39.8106 33.3501C39.7972 33.3835 39.7838 33.4237 39.7704 33.4572C39.7503 33.5041 39.7369 33.551 39.7168 33.5979C39.7034 33.6314 39.69 33.6716 39.6766 33.7051C39.6565 33.752 39.6431 33.7989 39.623 33.8458C39.6096 33.886 39.5962 33.9195 39.5761 33.9597C39.556 34.0066 39.5426 34.0468 39.5225 34.0937C39.5091 34.1339 39.489 34.1741 39.4756 34.2076C39.4555 34.2478 39.4421 34.2947 39.422 34.3349C39.4019 34.3751 39.3885 34.4152 39.3684 34.4554C39.3483 34.4956 39.3349 34.5358 39.3148 34.5827C39.2947 34.6229 39.2746 34.6631 39.2612 34.7033C39.2411 34.7435 39.2277 34.7837 39.2076 34.8239C39.1875 34.8641 39.1674 34.911 39.1473 34.9512C39.1272 34.9914 39.1138 35.0249 39.0937 35.0651C39.0737 35.112 39.0536 35.1522 39.0268 35.1991C39.0067 35.2326 38.9933 35.2728 38.9732 35.3063C38.9531 35.3532 38.9263 35.4001 38.9062 35.4402C38.8861 35.4737 38.8727 35.5072 38.8526 35.5407C38.8258 35.5876 38.8057 35.6345 38.7789 35.6814C38.7655 35.7149 38.7454 35.7417 38.732 35.7752C38.7052 35.8221 38.6784 35.869 38.6516 35.9226C38.6382 35.9494 38.6181 35.9829 38.6047 36.0097C38.5779 36.0566 38.5511 36.1102 38.5176 36.1571C38.5042 36.1839 38.4841 36.2107 38.4707 36.2375C38.4439 36.2911 38.4104 36.338 38.3836 36.3916C38.3702 36.4184 38.3568 36.4452 38.3367 36.4653C38.3032 36.5188 38.2697 36.5724 38.2429 36.626C38.2295 36.6461 38.2161 36.6729 38.2027 36.693C38.1692 36.7466 38.1357 36.8002 38.1022 36.8538C38.0888 36.8739 38.0754 36.894 38.062 36.9208C38.0285 36.9744 37.9884 37.0347 37.9549 37.0883C37.9415 37.1084 37.9281 37.1285 37.9147 37.1486C37.8745 37.2089 37.841 37.2625 37.8008 37.3228C37.7874 37.3429 37.7807 37.3563 37.7673 37.3764C37.7271 37.4367 37.6869 37.4902 37.6467 37.5505C37.6333 37.5639 37.6266 37.584 37.6132 37.5974C37.573 37.6577 37.5261 37.718 37.4859 37.7783C37.4792 37.7917 37.4658 37.8051 37.4591 37.8185C37.4122 37.8788 37.372 37.9391 37.3251 37.9994C37.3184 38.0128 37.305 38.0262 37.2983 38.0329C37.2514 38.0932 37.2045 38.1535 37.1576 38.2205C37.1509 38.2339 37.1442 38.2406 37.1308 38.254C37.0839 38.3143 37.037 38.3813 36.9835 38.4416C36.9768 38.4483 36.9701 38.4617 36.9634 38.4684C36.9165 38.5287 36.8629 38.5956 36.8093 38.6559C36.8026 38.6626 36.7959 38.6693 36.7892 38.6827C36.7356 38.7497 36.682 38.81 36.6284 38.877C36.6217 38.8837 36.615 38.8904 36.615 38.8971C36.5614 38.9641 36.5078 39.0244 36.4475 39.0914C36.4408 39.0981 36.4408 39.1048 36.4341 39.1048C36.3805 39.1718 36.3202 39.2388 36.2599 39.2991C36.2532 39.3058 36.2532 39.3058 36.2532 39.3125C36.1929 39.3795 36.1326 39.4465 36.079 39.5068L36.0723 39.5135C36.012 39.5805 35.9517 39.6474 35.8915 39.7144L35.8848 39.7211C35.8245 39.7881 35.7575 39.8551 35.6972 39.9221C35.6302 39.9891 35.5699 40.0561 35.5029 40.1231C35.4359 40.1901 35.3689 40.2571 35.3019 40.3174C35.2349 40.3844 35.1679 40.4514 35.1009 40.5117C35.0339 40.5787 34.9669 40.6389 34.8933 40.7059C34.8263 40.7729 34.7526 40.8332 34.6856 40.9002C34.6186 40.9605 34.5449 41.0275 34.4712 41.0878C34.4042 41.1481 34.3305 41.2151 34.2568 41.2754C34.2568 41.2754 34.2568 41.2754 34.2501 41.2821C34.1764 41.3424 34.1094 41.4027 34.0357 41.463L34.029 41.4697C33.962 41.53 33.8884 41.5903 33.8147 41.6438C33.808 41.6438 33.808 41.6505 33.8013 41.6505C33.7276 41.7108 33.6606 41.7644 33.5869 41.8247C33.5802 41.8314 33.5802 41.8314 33.5735 41.8381C33.5065 41.8917 33.4328 41.952 33.3658 42.0056C33.3591 42.0123 33.3524 42.019 33.3457 42.019C33.2787 42.0726 33.205 42.1262 33.138 42.1798C33.1313 42.1865 33.1179 42.1932 33.1112 42.1999C33.0442 42.2535 32.9772 42.3004 32.9035 42.354C32.8901 42.3607 32.8834 42.3741 32.87 42.3808C32.8031 42.4277 32.7361 42.4746 32.6691 42.5282C32.6557 42.5416 32.6423 42.5483 32.6222 42.5617C32.5552 42.6086 32.4949 42.6555 32.4279 42.6956C32.4078 42.709 32.3944 42.7224 32.3743 42.7358C32.314 42.776 32.2537 42.8229 32.1867 42.8631C32.1666 42.8765 32.1465 42.8899 32.1197 42.91C32.0594 42.9502 31.9991 42.9904 31.9455 43.0306C31.9187 43.0507 31.8919 43.0641 31.8651 43.0842C31.8116 43.1177 31.7513 43.1579 31.6977 43.1914C31.6642 43.2115 31.6374 43.2316 31.6039 43.2517C31.5503 43.2852 31.5034 43.3187 31.4498 43.3522C31.4163 43.3723 31.3761 43.3991 31.3426 43.4192C31.2957 43.446 31.2488 43.4795 31.2019 43.5063C31.1684 43.5264 31.1416 43.5465 31.1081 43.5666C31.0746 43.5465 31.0344 43.5197 31.0009 43.4996C30.9607 43.4728 30.9205 43.446 30.8803 43.4192C30.8334 43.3924 30.7866 43.3589 30.7397 43.3321C30.6995 43.3053 30.6593 43.2785 30.6191 43.2517C30.5722 43.2249 30.5253 43.1914 30.4784 43.1579C30.4382 43.1311 30.398 43.1043 30.3578 43.0775C30.3109 43.044 30.264 43.0172 30.2238 42.9837C30.1836 42.9569 30.1434 42.9301 30.1032 42.9033C30.0563 42.8698 30.0094 42.843 29.9692 42.8095C29.929 42.7827 29.8955 42.7559 29.8553 42.7291C29.8084 42.6956 29.7682 42.6688 29.7214 42.6354C29.6812 42.6086 29.6477 42.5818 29.6075 42.555C29.5606 42.5215 29.5204 42.488 29.4735 42.4612C29.4333 42.4344 29.3998 42.4076 29.3596 42.3808C29.3127 42.3473 29.2725 42.3138 29.2256 42.2803C29.1921 42.2535 29.1519 42.2267 29.1184 42.1999C29.0715 42.1664 29.0313 42.1329 28.9911 42.0994C28.9576 42.0726 28.9174 42.0458 28.8839 42.019C28.8437 41.9855 28.7968 41.952 28.7566 41.9185C28.7231 41.8917 28.6897 41.8649 28.6495 41.8381C28.6093 41.8046 28.5624 41.7711 28.5222 41.7376C28.4887 41.7108 28.4552 41.684 28.4217 41.6572C28.3815 41.6238 28.3346 41.5903 28.2944 41.5501C28.2609 41.5233 28.2274 41.4965 28.1939 41.4697C28.1537 41.4362 28.1068 41.396 28.0666 41.3625C28.0331 41.3357 27.9996 41.3089 27.9661 41.2821C27.9259 41.2486 27.8857 41.2084 27.8388 41.1749C27.8053 41.1481 27.7718 41.1213 27.745 41.0945C27.7048 41.061 27.6647 41.0208 27.6245 40.9873C27.591 40.9605 27.5642 40.9337 27.5307 40.9002C27.4905 40.86 27.4503 40.8265 27.4101 40.7863C27.3766 40.7595 27.3498 40.7327 27.3163 40.6992C27.2761 40.659 27.2359 40.6255 27.1957 40.5854C27.1689 40.5586 27.1354 40.5251 27.1086 40.4983C27.0684 40.4581 27.0282 40.4246 26.988 40.3844C26.9612 40.3576 26.9277 40.3241 26.9009 40.2973C26.8607 40.2571 26.8205 40.2169 26.787 40.1834C26.7602 40.1566 26.7334 40.1298 26.6999 40.0963C26.6597 40.0561 26.6263 40.0159 26.5861 39.9757C26.5593 39.9489 26.5325 39.9154 26.5057 39.8886C26.4655 39.8484 26.432 39.8082 26.3918 39.768C26.365 39.7412 26.3382 39.7077 26.3114 39.6809C26.2712 39.6407 26.2377 39.6005 26.1975 39.5604C26.1707 39.5336 26.1439 39.5001 26.1171 39.4733C26.0769 39.4331 26.0434 39.3929 26.0099 39.3527C25.9831 39.3259 25.9563 39.2924 25.9362 39.2656C25.9027 39.2254 25.8625 39.1852 25.829 39.1383C25.8022 39.1115 25.7821 39.078 25.7553 39.0512C25.7218 39.011 25.6816 38.9641 25.6481 38.9239C25.6213 38.8971 25.6013 38.8636 25.5745 38.8368C25.541 38.7966 25.5075 38.7497 25.4673 38.7095C25.4405 38.6827 25.4204 38.6492 25.3936 38.6224C25.3601 38.5822 25.3266 38.5353 25.2931 38.4952C25.273 38.4684 25.2462 38.4349 25.2261 38.4081C25.1926 38.3679 25.1591 38.321 25.1256 38.2808C25.1055 38.254 25.0787 38.2205 25.0586 38.1937C25.0251 38.1468 24.9916 38.1066 24.9581 38.0597C24.938 38.0329 24.9112 37.9994 24.8911 37.9726C24.8576 37.9257 24.8241 37.8855 24.7906 37.8386C24.7705 37.8118 24.7504 37.7783 24.7236 37.7515C24.6901 37.7046 24.6566 37.6644 24.6298 37.6175C24.6097 37.5907 24.5896 37.5572 24.5696 37.5304C24.5361 37.4836 24.5093 37.4367 24.4758 37.3965C24.4557 37.3697 24.4356 37.3362 24.4155 37.3094C24.382 37.2625 24.3552 37.2156 24.3217 37.1754C24.3016 37.1419 24.2815 37.1151 24.2614 37.0816C24.2346 37.0347 24.2011 36.9878 24.1743 36.9409C24.1542 36.9074 24.1341 36.8806 24.114 36.8471C24.0872 36.8002 24.0537 36.7533 24.0269 36.7064C24.0068 36.6729 23.9867 36.6461 23.9733 36.6126C23.9465 36.5657 23.9197 36.5188 23.8862 36.4719C23.8661 36.4385 23.846 36.4117 23.8326 36.3782C23.8058 36.3313 23.779 36.2844 23.7522 36.2375C23.7321 36.204 23.7187 36.1772 23.6986 36.1437C23.6718 36.0968 23.645 36.0499 23.6182 36.003C23.5981 35.9695 23.5847 35.9427 23.5646 35.9092C23.5379 35.8623 23.5111 35.8154 23.4843 35.7685C23.4642 35.735 23.4508 35.7082 23.4307 35.6747C23.4039 35.6278 23.3771 35.5809 23.357 35.5273C23.3436 35.4938 23.3235 35.467 23.3101 35.4335C23.2833 35.3867 23.2632 35.3331 23.2364 35.2862C23.223 35.2527 23.2029 35.2259 23.1895 35.1924C23.1627 35.1455 23.1426 35.0919 23.1158 35.045C23.1024 35.0115 23.089 34.9847 23.0689 34.9512C23.0421 34.9043 23.022 34.8507 23.0019 34.8038C22.9885 34.7703 22.9751 34.7435 22.9617 34.71C22.9416 34.6631 22.9148 34.6095 22.8947 34.5559C22.8813 34.5224 22.8679 34.4956 22.8545 34.4621C22.8344 34.4152 22.8143 34.3617 22.7875 34.3148C22.7741 34.2813 22.7607 34.2478 22.7473 34.221C22.7272 34.1741 22.7071 34.1205 22.687 34.0736C22.6736 34.0401 22.6602 34.0066 22.6468 33.9731C22.6267 33.9195 22.6066 33.8726 22.5865 33.819C22.5731 33.7855 22.5597 33.752 22.5463 33.7185C22.5262 33.6649 22.5062 33.618 22.4861 33.5644C22.4727 33.5309 22.4593 33.4974 22.4526 33.4639C22.4325 33.4103 22.4191 33.3635 22.399 33.3099C22.3856 33.2764 22.3722 33.2429 22.3655 33.2094C22.3454 33.1558 22.332 33.1089 22.3119 33.0553C22.2985 33.0218 22.2918 32.9883 22.2784 32.9548C22.2583 32.9012 22.2449 32.8476 22.2248 32.8007C22.2114 32.7672 22.2047 32.7337 22.1913 32.7002C22.1779 32.6466 22.1578 32.593 22.1444 32.5461C22.131 32.5126 22.1243 32.4791 22.1109 32.4456C22.0975 32.392 22.0841 32.3384 22.064 32.2916C22.0573 32.2581 22.0439 32.2246 22.0372 32.1911C22.0238 32.1375 22.0104 32.0839 21.997 32.037C21.9903 32.0035 21.9769 31.97 21.9702 31.9298C21.9568 31.8762 21.9434 31.8226 21.93 31.769C21.9233 31.7355 21.9099 31.702 21.9032 31.6685C21.8898 31.6149 21.8764 31.5613 21.863 31.5077C21.8563 31.4742 21.8429 31.4407 21.8362 31.4005C21.8228 31.3469 21.8094 31.2934 21.8027 31.2398C21.796 31.2063 21.7893 31.1661 21.7759 31.1326C21.7625 31.079 21.7558 31.0254 21.7424 30.9718C21.7357 30.9383 21.729 30.9048 21.7223 30.8646C21.7089 30.811 21.7022 30.7574 21.6888 30.6971C21.6821 30.6636 21.6754 30.6301 21.6687 30.5966C21.662 30.543 21.6486 30.4894 21.6419 30.4291C21.6352 30.3956 21.6285 30.3621 21.6218 30.3219C21.6151 30.2617 21.6017 30.2081 21.595 30.1478C21.5883 30.1143 21.5816 30.0808 21.5816 30.0473C21.5749 29.987 21.5615 29.9267 21.5548 29.8664C21.5481 29.8329 21.5481 29.8061 21.5414 29.7726C21.5347 29.7056 21.5213 29.6453 21.5146 29.5783C21.5146 29.5515 21.5079 29.5247 21.5012 29.4979C21.4878 29.4041 21.4811 29.317 21.4678 29.2233C21.3539 28.1715 21.3338 27.0929 21.4008 26.0009C21.4075 25.8468 21.4209 25.686 21.4343 25.5319C21.4477 25.3845 21.4611 25.2304 21.4745 25.0764L30.5119 21.9545L31.1014 21.7535L40.3264 24.9223ZM33.138 43.3455C33.2854 43.2383 33.4328 43.1311 33.5802 43.0172C33.6271 42.9837 33.6673 42.9502 33.7142 42.9167C33.8214 42.8363 33.9218 42.7559 34.029 42.6755C34.0826 42.6354 34.1295 42.5952 34.1831 42.555C34.2769 42.4746 34.3774 42.4009 34.4712 42.3205C34.5181 42.2803 34.5717 42.2401 34.6186 42.1999C34.7258 42.1061 34.833 42.019 34.9401 41.9252C34.9736 41.8984 35.0004 41.8716 35.0339 41.8448C35.1679 41.7242 35.3019 41.6037 35.4359 41.4831C35.4694 41.4496 35.5029 41.4161 35.5364 41.3893C35.6369 41.2955 35.7307 41.2084 35.8245 41.1146C35.8714 41.0677 35.9116 41.0275 35.9585 40.9806C36.0455 40.8935 36.1259 40.8131 36.213 40.726C36.2599 40.6791 36.3001 40.6389 36.347 40.5921C36.4341 40.4983 36.5212 40.4045 36.6083 40.3107C36.6418 40.2772 36.6753 40.237 36.7088 40.2035C36.8294 40.0762 36.9433 39.9422 37.0638 39.8082C37.0839 39.7881 37.104 39.7613 37.1241 39.7412C37.2179 39.634 37.3117 39.5202 37.4055 39.413C37.4457 39.3661 37.4792 39.3259 37.5194 39.279C37.5931 39.1852 37.6668 39.0914 37.7405 39.0043C37.7807 38.9574 37.8142 38.9038 37.8544 38.8569C37.9281 38.7631 38.0018 38.6626 38.0754 38.5688C38.1089 38.522 38.1424 38.4818 38.1759 38.4349C38.2764 38.2942 38.3769 38.1535 38.4774 38.0128C40.2393 35.467 41.3179 32.6198 41.6797 29.5582C41.74 29.0625 41.7802 28.56 41.8003 28.0509V28.0442C41.807 27.937 41.807 27.8365 41.807 27.7293C41.807 27.6623 41.8137 27.602 41.8137 27.535C42.3965 28.9352 42.698 30.4358 42.698 31.97C42.698 37.6175 38.5511 42.3875 33.138 43.3455ZM38.9665 23.4618L38.5712 23.3278L34.8732 22.0482L31.3024 20.8156C31.2622 20.8022 31.222 20.7955 31.1751 20.7888C31.1081 20.7821 31.0478 20.7888 30.9875 20.8156L23.4843 23.4082L23.3168 23.4685C25.4338 21.5123 28.2073 20.4136 31.1483 20.4136C34.0826 20.4069 36.8495 21.5056 38.9665 23.4618Z" fill="white"></path><path d="M31.1405 47.1038C35.1869 47.1038 38.9855 45.5295 41.8461 42.6689C44.7067 39.8082 46.2811 36.0097 46.2811 31.9633C46.2811 27.9169 44.7067 24.1183 41.8461 21.2577C38.9855 18.3971 35.1869 16.8228 31.1405 16.8228C27.0941 16.8228 23.2956 18.3971 20.435 21.2577C17.5743 24.1183 16 27.9169 16 31.9633C16 36.0097 17.5743 39.8082 20.435 42.6689C23.2956 45.5295 27.0941 47.1038 31.1405 47.1038ZM31.1405 17.7607C38.9721 17.7607 45.3432 24.1317 45.3432 31.9633C45.3432 39.7948 38.9721 46.1659 31.1405 46.1659C23.309 46.1659 16.9379 39.7948 16.9379 31.9633C16.9379 24.1317 23.309 17.7607 31.1405 17.7607Z" fill="white"></path><path d="M23.6992 27.0794C23.6992 27.3273 23.6992 27.5551 23.7059 27.7694C23.7662 29.5515 24.1079 31.2665 24.7175 32.8676C24.9453 33.4572 25.2133 34.0467 25.5147 34.6162C26.7273 36.8873 28.5295 38.8971 30.8541 40.5987C30.9345 40.659 31.035 40.6858 31.1288 40.6858C31.2226 40.6858 31.3231 40.659 31.4035 40.5987C33.7348 38.8971 35.5303 36.8873 36.7429 34.6162C37.0309 34.0735 37.2855 33.5242 37.4999 32.9748C37.5401 32.8743 37.5736 32.7739 37.6138 32.6801C38.1631 31.1861 38.478 29.5984 38.5517 27.9503C38.5584 27.7493 38.5651 27.535 38.5651 27.3072C38.5651 27.2335 38.5651 27.1531 38.5651 27.0727C38.5651 26.8717 38.4378 26.6975 38.2502 26.6305L31.3767 24.259C31.3164 24.2389 31.2494 24.2322 31.1824 24.2322C31.169 24.2322 31.1556 24.2322 31.1422 24.2322C31.1154 24.2322 31.0953 24.2322 31.0685 24.2389C31.0082 24.2322 30.9479 24.2456 30.8876 24.2657L24.0141 26.6372C23.8265 26.7042 23.7059 26.8784 23.6992 27.0794ZM31.0484 25.2036C31.1087 25.2103 31.1623 25.2103 31.2226 25.1969L37.6406 27.4144C37.6406 27.5886 37.6339 27.7493 37.6272 27.9101C37.5602 29.5582 37.2252 31.1526 36.6424 32.6332C36.4414 33.149 36.2002 33.6716 35.9322 34.174C34.8335 36.224 33.219 38.0596 31.1422 39.634C29.0587 38.0596 27.4509 36.2307 26.3522 34.174C26.0641 33.6381 25.8095 33.0887 25.6018 32.5327C25.0257 31.032 24.7041 29.4175 24.6505 27.7359C24.6438 27.6287 24.6438 27.5216 24.6438 27.4144L31.0484 25.2036Z" fill="white"></path><path d="M29.2272 35.0466V28.9292H32.9192V29.5864H29.968V31.6534H32.728V32.3105H29.968V34.3895H32.9669V35.0466H29.2272Z" fill="#BF9B3E"></path><path d="M20.6297 56.0466V50.9557H23.7021V51.5026H21.2461V53.2228H23.543V53.7696H21.2461V55.4998H23.7419V56.0466H20.6297ZM27.4383 53.0836L26.9113 53.2327C26.8781 53.1449 26.8292 53.0595 26.7646 52.9767C26.7016 52.8922 26.6155 52.8226 26.5061 52.7679C26.3967 52.7132 26.2567 52.6858 26.086 52.6858C25.8523 52.6858 25.6576 52.7397 25.5018 52.8474C25.3477 52.9535 25.2706 53.0885 25.2706 53.2526C25.2706 53.3984 25.3237 53.5136 25.4297 53.5981C25.5358 53.6826 25.7015 53.7531 25.9269 53.8094L26.4937 53.9486C26.835 54.0315 27.0894 54.1583 27.2568 54.3289C27.4242 54.498 27.5079 54.7159 27.5079 54.9827C27.5079 55.2015 27.4449 55.397 27.3189 55.5694C27.1946 55.7417 27.0206 55.8776 26.7969 55.977C26.5732 56.0765 26.313 56.1262 26.0164 56.1262C25.6269 56.1262 25.3046 56.0417 25.0494 55.8726C24.7942 55.7036 24.6326 55.4567 24.5647 55.1319L25.1215 54.9927C25.1745 55.1981 25.2748 55.3523 25.4223 55.455C25.5714 55.5578 25.7661 55.6091 26.0064 55.6091C26.2799 55.6091 26.497 55.5511 26.6577 55.4351C26.8201 55.3175 26.9013 55.1766 26.9013 55.0125C26.9013 54.88 26.8549 54.7689 26.7621 54.6794C26.6693 54.5883 26.5268 54.5204 26.3346 54.4756L25.6982 54.3265C25.3485 54.2436 25.0917 54.1152 24.9276 53.9412C24.7652 53.7655 24.684 53.5459 24.684 53.2824C24.684 53.067 24.7445 52.8764 24.8655 52.7107C24.9881 52.545 25.1546 52.4149 25.3651 52.3204C25.5772 52.226 25.8175 52.1787 26.086 52.1787C26.4638 52.1787 26.7605 52.2616 26.9759 52.4273C27.193 52.593 27.3471 52.8118 27.4383 53.0836ZM29.9421 56.1262C29.5841 56.1262 29.2759 56.0417 29.0174 55.8726C28.7588 55.7036 28.56 55.4708 28.4208 55.1741C28.2816 54.8775 28.212 54.5386 28.212 54.1574C28.212 53.7696 28.2832 53.4274 28.4257 53.1308C28.5699 52.8325 28.7704 52.5997 29.0273 52.4323C29.2858 52.2633 29.5874 52.1787 29.9321 52.1787C30.2006 52.1787 30.4425 52.2284 30.658 52.3279C30.8734 52.4273 31.0499 52.5665 31.1875 52.7455C31.325 52.9245 31.4103 53.1333 31.4435 53.3719H30.8568C30.8121 53.1979 30.7127 53.0438 30.5585 52.9096C30.4061 52.7737 30.2006 52.7057 29.9421 52.7057C29.7134 52.7057 29.5129 52.7654 29.3405 52.8847C29.1698 53.0024 29.0364 53.1689 28.9403 53.3843C28.8458 53.5981 28.7986 53.8492 28.7986 54.1375C28.7986 54.4325 28.845 54.6894 28.9378 54.9081C29.0323 55.1269 29.1648 55.2967 29.3355 55.4177C29.5079 55.5387 29.7101 55.5992 29.9421 55.5992C30.0945 55.5992 30.2329 55.5727 30.3572 55.5196C30.4815 55.4666 30.5867 55.3904 30.6729 55.2909C30.7591 55.1915 30.8204 55.0722 30.8568 54.933H31.4435C31.4103 55.1584 31.3283 55.3614 31.1974 55.542C31.0681 55.721 30.8966 55.8635 30.6828 55.9696C30.4707 56.074 30.2238 56.1262 29.9421 56.1262ZM32.3011 56.0466V52.2284H32.8679V52.8052H32.9076C32.9772 52.6162 33.1032 52.4629 33.2855 52.3453C33.4678 52.2276 33.6733 52.1688 33.9019 52.1688C33.945 52.1688 33.9989 52.1696 34.0635 52.1713C34.1282 52.1729 34.177 52.1754 34.2102 52.1787V52.7753C34.1903 52.7704 34.1447 52.7629 34.0735 52.753C34.0039 52.7414 33.9301 52.7356 33.8522 52.7356C33.6666 52.7356 33.5009 52.7745 33.3551 52.8524C33.2109 52.9286 33.0965 53.0347 33.012 53.1706C32.9292 53.3048 32.8877 53.4581 32.8877 53.6304V56.0466H32.3011ZM36.3405 56.1262C35.9958 56.1262 35.6934 56.0441 35.4332 55.8801C35.1747 55.716 34.9725 55.4865 34.8267 55.1915C34.6825 54.8965 34.6104 54.5518 34.6104 54.1574C34.6104 53.7597 34.6825 53.4125 34.8267 53.1159C34.9725 52.8192 35.1747 52.5889 35.4332 52.4248C35.6934 52.2608 35.9958 52.1787 36.3405 52.1787C36.6852 52.1787 36.9868 52.2608 37.2453 52.4248C37.5055 52.5889 37.7077 52.8192 37.8519 53.1159C37.9977 53.4125 38.0706 53.7597 38.0706 54.1574C38.0706 54.5518 37.9977 54.8965 37.8519 55.1915C37.7077 55.4865 37.5055 55.716 37.2453 55.8801C36.9868 56.0441 36.6852 56.1262 36.3405 56.1262ZM36.3405 55.5992C36.6023 55.5992 36.8178 55.5321 36.9868 55.3978C37.1559 55.2636 37.281 55.0871 37.3622 54.8684C37.4434 54.6496 37.484 54.4126 37.484 54.1574C37.484 53.9022 37.4434 53.6644 37.3622 53.444C37.281 53.2236 37.1559 53.0454 36.9868 52.9096C36.8178 52.7737 36.6023 52.7057 36.3405 52.7057C36.0787 52.7057 35.8632 52.7737 35.6942 52.9096C35.5252 53.0454 35.4001 53.2236 35.3188 53.444C35.2376 53.6644 35.197 53.9022 35.197 54.1574C35.197 54.4126 35.2376 54.6496 35.3188 54.8684C35.4001 55.0871 35.5252 55.2636 35.6942 55.3978C35.8632 55.5321 36.0787 55.5992 36.3405 55.5992ZM39.7013 56.0466L38.538 52.2284H39.1544L39.9797 55.1517H40.0195L40.8348 52.2284H41.4612L42.2666 55.1418H42.3064L43.1317 52.2284H43.7482L42.5848 56.0466H42.0081L41.1729 53.1134H41.1132L40.278 56.0466H39.7013Z" fill="white"></path></svg>