<svg xmlns="http://www.w3.org/2000/svg" width="64" height="65" viewBox="0 0 64 65" fill="none"><circle cx="31.712" cy="32.3409" r="31.712" fill="#F8F9FA"></circle><path d="M36.5234 20.5801C36.0097 20.0663 35.1052 19.7093 34.2734 19.6868M34.2734 19.6868C33.2834 19.6598 32.3984 20.1076 32.3984 21.3301C32.3984 23.5801 36.5234 22.4551 36.5234 24.7051C36.5234 25.9883 35.4254 26.5396 34.2734 26.4983M34.2734 19.6868V18.3301M32.0234 25.4551C32.5064 26.1001 33.4057 26.4676 34.2734 26.4983M34.2734 26.4983V28.0801" stroke="#3B634C" stroke-width="1.5" stroke-linecap="round" stroke-linejoin="round"></path><path d="M32.4609 33.6816H31.2793L28.5146 27.4619C28.4072 27.2204 28.232 27.0152 28.0104 26.8711C27.7887 26.7271 27.53 26.6504 27.2656 26.6504H15.7812C15.5169 26.6504 15.2582 26.7271 15.0365 26.8711C14.8148 27.0152 14.6397 27.2204 14.5322 27.4619L11.7676 33.6816H10.5859C10.4305 33.6816 10.2815 33.7434 10.1716 33.8533C10.0617 33.9631 10 34.1122 10 34.2676C10 34.423 10.0617 34.572 10.1716 34.6819C10.2815 34.7918 10.4305 34.8535 10.5859 34.8535H11.5625V42.8613C11.5625 43.2239 11.7065 43.5717 11.9629 43.8281C12.2193 44.0845 12.5671 44.2285 12.9297 44.2285H15.2734C15.636 44.2285 15.9838 44.0845 16.2402 43.8281C16.4966 43.5717 16.6406 43.2239 16.6406 42.8613V41.1035H26.4062V42.8613C26.4062 43.2239 26.5503 43.5717 26.8067 43.8281C27.0631 44.0845 27.4108 44.2285 27.7734 44.2285H30.1172C30.4798 44.2285 30.8275 44.0845 31.0839 43.8281C31.3403 43.5717 31.4844 43.2239 31.4844 42.8613V34.8535H32.4609C32.6163 34.8535 32.7654 34.7918 32.8753 34.6819C32.9851 34.572 33.0469 34.423 33.0469 34.2676C33.0469 34.1122 32.9851 33.9631 32.8753 33.8533C32.7654 33.7434 32.6163 33.6816 32.4609 33.6816ZM15.6025 27.9385C15.6179 27.9039 15.6429 27.8745 15.6746 27.8538C15.7064 27.8332 15.7434 27.8222 15.7812 27.8223H27.2656C27.3035 27.8222 27.3405 27.8332 27.3722 27.8538C27.404 27.8745 27.429 27.9039 27.4443 27.9385L29.9971 33.6816H13.0498L15.6025 27.9385ZM15.4688 42.8613C15.4688 42.9131 15.4482 42.9628 15.4115 42.9994C15.3749 43.0361 15.3252 43.0566 15.2734 43.0566H12.9297C12.8779 43.0566 12.8282 43.0361 12.7916 42.9994C12.755 42.9628 12.7344 42.9131 12.7344 42.8613V41.1035H15.4688V42.8613ZM30.1172 43.0566H27.7734C27.7216 43.0566 27.672 43.0361 27.6353 42.9994C27.5987 42.9628 27.5781 42.9131 27.5781 42.8613V41.1035H30.3125V42.8613C30.3125 42.9131 30.2919 42.9628 30.2553 42.9994C30.2187 43.0361 30.169 43.0566 30.1172 43.0566ZM30.3125 39.9316H12.7344V34.8535H30.3125V39.9316ZM14.6875 37.3926C14.6875 37.2372 14.7492 37.0881 14.8591 36.9783C14.969 36.8684 15.118 36.8066 15.2734 36.8066H16.8359C16.9913 36.8066 17.1404 36.8684 17.2503 36.9783C17.3601 37.0881 17.4219 37.2372 17.4219 37.3926C17.4219 37.548 17.3601 37.697 17.2503 37.8069C17.1404 37.9168 16.9913 37.9785 16.8359 37.9785H15.2734C15.118 37.9785 14.969 37.9168 14.8591 37.8069C14.7492 37.697 14.6875 37.548 14.6875 37.3926ZM25.625 37.3926C25.625 37.2372 25.6867 37.0881 25.7966 36.9783C25.9065 36.8684 26.0555 36.8066 26.2109 36.8066H27.7734C27.9288 36.8066 28.0779 36.8684 28.1878 36.9783C28.2976 37.0881 28.3594 37.2372 28.3594 37.3926C28.3594 37.548 28.2976 37.697 28.1878 37.8069C28.0779 37.9168 27.9288 37.9785 27.7734 37.9785H26.2109C26.0555 37.9785 25.9065 37.9168 25.7966 37.8069C25.6867 37.697 25.625 37.548 25.625 37.3926Z" fill="#3B634C"></path><mask id="path-4-inside-1_2042_6127" fill="white"><path d="M24.3396 23.8196C24.2767 21.8705 24.7933 19.9465 25.8239 18.2909C26.8545 16.6354 28.3529 15.3226 30.1296 14.5187C31.9064 13.7147 33.8816 13.4557 35.8055 13.7743C37.7294 14.0929 39.5157 14.9749 40.9383 16.3087C42.361 17.6425 43.3562 19.3682 43.7981 21.2676C44.24 23.167 44.1087 25.1548 43.4209 26.9796C42.733 28.8044 41.5195 30.3843 39.9338 31.5194C38.3481 32.6545 36.4614 33.294 34.5123 33.3568L34.4782 32.3018C36.2187 32.2457 37.9034 31.6747 39.3194 30.6611C40.7354 29.6475 41.819 28.2368 42.4332 26.6073C43.0474 24.9779 43.1646 23.2029 42.77 21.5068C42.3754 19.8107 41.4868 18.2698 40.2164 17.0787C38.946 15.8877 37.351 15.1002 35.633 14.8157C33.9151 14.5312 32.1513 14.7625 30.5648 15.4804C28.9783 16.1982 27.6403 17.3705 26.72 18.8488C25.7997 20.3271 25.3385 22.0451 25.3946 23.7856L24.3396 23.8196Z"></path></mask><path d="M24.3396 23.8196C24.2767 21.8705 24.7933 19.9465 25.8239 18.2909C26.8545 16.6354 28.3529 15.3226 30.1296 14.5187C31.9064 13.7147 33.8816 13.4557 35.8055 13.7743C37.7294 14.0929 39.5157 14.9749 40.9383 16.3087C42.361 17.6425 43.3562 19.3682 43.7981 21.2676C44.24 23.167 44.1087 25.1548 43.4209 26.9796C42.733 28.8044 41.5195 30.3843 39.9338 31.5194C38.3481 32.6545 36.4614 33.294 34.5123 33.3568L34.4782 32.3018C36.2187 32.2457 37.9034 31.6747 39.3194 30.6611C40.7354 29.6475 41.819 28.2368 42.4332 26.6073C43.0474 24.9779 43.1646 23.2029 42.77 21.5068C42.3754 19.8107 41.4868 18.2698 40.2164 17.0787C38.946 15.8877 37.351 15.1002 35.633 14.8157C33.9151 14.5312 32.1513 14.7625 30.5648 15.4804C28.9783 16.1982 27.6403 17.3705 26.72 18.8488C25.7997 20.3271 25.3385 22.0451 25.3946 23.7856L24.3396 23.8196Z" stroke="#3B634C" stroke-width="2" stroke-linecap="round" stroke-linejoin="round" mask="url(#path-4-inside-1_2042_6127)"></path><mask id="path-5-inside-2_2042_6127" fill="white"><path d="M44.2613 33.0194C42.8595 34.6582 41.1 35.9534 39.1186 36.8049C37.1372 37.6565 34.9867 38.0417 32.8329 37.9309L32.8676 37.2576C34.9183 37.363 36.9658 36.9962 38.8524 36.1854C40.7389 35.3746 42.4142 34.1415 43.7489 32.5811L44.2613 33.0194Z"></path></mask><path d="M44.2613 33.0194C42.8595 34.6582 41.1 35.9534 39.1186 36.8049C37.1372 37.6565 34.9867 38.0417 32.8329 37.9309L32.8676 37.2576C34.9183 37.363 36.9658 36.9962 38.8524 36.1854C40.7389 35.3746 42.4142 34.1415 43.7489 32.5811L44.2613 33.0194Z" stroke="#3B634C" stroke-width="2" stroke-linecap="round" stroke-linejoin="round" mask="url(#path-5-inside-2_2042_6127)"></path><mask id="path-6-inside-3_2042_6127" fill="white"><path d="M19.5728 25.571C19.3114 23.4303 19.545 21.2581 20.2556 19.2219C20.9662 17.1857 22.1349 15.3398 23.6715 13.8266L24.1447 14.307C22.6816 15.7478 21.5689 17.5053 20.8922 19.444C20.2156 21.3828 19.9932 23.451 20.2421 25.4893L19.5728 25.571Z"></path></mask><path d="M19.5728 25.571C19.3114 23.4303 19.545 21.2581 20.2556 19.2219C20.9662 17.1857 22.1349 15.3398 23.6715 13.8266L24.1447 14.307C22.6816 15.7478 21.5689 17.5053 20.8922 19.444C20.2156 21.3828 19.9932 23.451 20.2421 25.4893L19.5728 25.571Z" stroke="#3B634C" stroke-width="2" stroke-linecap="round" stroke-linejoin="round" mask="url(#path-6-inside-3_2042_6127)"></path><path d="M18.6726 55V49.9091H21.7252V50.456H19.2891V52.1761H21.4965V52.723H19.2891V55H18.6726ZM22.7015 55V51.1818H23.2881V55H22.7015ZM22.9998 50.5455C22.8854 50.5455 22.7868 50.5065 22.704 50.4286C22.6228 50.3507 22.5822 50.2571 22.5822 50.1477C22.5822 50.0384 22.6228 49.9447 22.704 49.8668C22.7868 49.7889 22.8854 49.75 22.9998 49.75C23.1141 49.75 23.2119 49.7889 23.2931 49.8668C23.376 49.9447 23.4174 50.0384 23.4174 50.1477C23.4174 50.2571 23.376 50.3507 23.2931 50.4286C23.2119 50.5065 23.1141 50.5455 22.9998 50.5455ZM24.9493 52.7031V55H24.3626V51.1818H24.9294V51.7784H24.9791C25.0686 51.5845 25.2045 51.4287 25.3868 51.3111C25.5691 51.1918 25.8044 51.1321 26.0927 51.1321C26.3513 51.1321 26.5775 51.1851 26.7714 51.2912C26.9652 51.3956 27.116 51.5547 27.2238 51.7685C27.3315 51.9806 27.3853 52.2491 27.3853 52.5739V55H26.7987V52.6136C26.7987 52.3137 26.7208 52.08 26.565 51.9126C26.4093 51.7436 26.1955 51.6591 25.9237 51.6591C25.7364 51.6591 25.5691 51.6997 25.4216 51.7809C25.2757 51.8621 25.1606 51.9806 25.076 52.1364C24.9915 52.2921 24.9493 52.4811 24.9493 52.7031ZM29.5809 55.0895C29.339 55.0895 29.1194 55.0439 28.9222 54.9528C28.725 54.86 28.5684 54.7266 28.4524 54.5526C28.3364 54.3769 28.2784 54.1648 28.2784 53.9162C28.2784 53.6974 28.3215 53.5201 28.4076 53.3842C28.4938 53.2467 28.609 53.139 28.7532 53.0611C28.8973 52.9832 29.0564 52.9252 29.2304 52.8871C29.4061 52.8473 29.5826 52.8158 29.7599 52.7926C29.9919 52.7628 30.18 52.7404 30.3242 52.7255C30.47 52.7089 30.5761 52.6816 30.6424 52.6435C30.7103 52.6054 30.7443 52.5391 30.7443 52.4446V52.4247C30.7443 52.1795 30.6772 51.9889 30.5429 51.853C30.4103 51.7171 30.209 51.6491 29.9389 51.6491C29.6588 51.6491 29.4392 51.7105 29.2801 51.8331C29.121 51.9557 29.0092 52.0866 28.9446 52.2259L28.3877 52.027C28.4872 51.795 28.6197 51.6143 28.7855 51.4851C28.9528 51.3542 29.1351 51.263 29.3323 51.2116C29.5312 51.1586 29.7268 51.1321 29.919 51.1321C30.0416 51.1321 30.1825 51.147 30.3416 51.1768C30.5023 51.205 30.6573 51.2638 30.8064 51.3533C30.9572 51.4428 31.0823 51.5779 31.1818 51.7585C31.2812 51.9392 31.3309 52.1811 31.3309 52.4844V55H30.7443V54.483H30.7144C30.6747 54.5658 30.6084 54.6545 30.5156 54.7489C30.4228 54.8434 30.2993 54.9238 30.1452 54.9901C29.9911 55.0563 29.803 55.0895 29.5809 55.0895ZM29.6704 54.5625C29.9024 54.5625 30.098 54.5169 30.2571 54.4258C30.4178 54.3346 30.5388 54.217 30.62 54.0728C30.7028 53.9286 30.7443 53.777 30.7443 53.6179V53.081C30.7194 53.1108 30.6647 53.1381 30.5802 53.163C30.4974 53.1862 30.4012 53.2069 30.2919 53.2251C30.1841 53.2417 30.0789 53.2566 29.9762 53.2699C29.8751 53.2815 29.793 53.2914 29.7301 53.2997C29.5776 53.3196 29.4351 53.3519 29.3025 53.3967C29.1716 53.4397 29.0655 53.5052 28.9843 53.593C28.9048 53.6792 28.865 53.7969 28.865 53.946C28.865 54.1499 28.9404 54.304 29.0912 54.4084C29.2437 54.5111 29.4367 54.5625 29.6704 54.5625ZM32.9883 52.7031V55H32.4017V51.1818H32.9684V51.7784H33.0182C33.1076 51.5845 33.2435 51.4287 33.4258 51.3111C33.6081 51.1918 33.8434 51.1321 34.1318 51.1321C34.3903 51.1321 34.6165 51.1851 34.8104 51.2912C35.0043 51.3956 35.1551 51.5547 35.2628 51.7685C35.3705 51.9806 35.4244 52.2491 35.4244 52.5739V55H34.8378V52.6136C34.8378 52.3137 34.7599 52.08 34.6041 51.9126C34.4483 51.7436 34.2345 51.6591 33.9628 51.6591C33.7755 51.6591 33.6081 51.6997 33.4606 51.7809C33.3148 51.8621 33.1996 51.9806 33.1151 52.1364C33.0306 52.2921 32.9883 52.4811 32.9883 52.7031ZM38.0475 55.0795C37.6896 55.0795 37.3813 54.995 37.1228 54.826C36.8643 54.657 36.6654 54.4241 36.5262 54.1275C36.387 53.8308 36.3174 53.492 36.3174 53.1108C36.3174 52.723 36.3887 52.3808 36.5312 52.0842C36.6754 51.7859 36.8759 51.553 37.1328 51.3857C37.3913 51.2166 37.6929 51.1321 38.0376 51.1321C38.3061 51.1321 38.548 51.1818 38.7634 51.2812C38.9789 51.3807 39.1554 51.5199 39.2929 51.6989C39.4305 51.8778 39.5158 52.0866 39.549 52.3253H38.9623C38.9176 52.1513 38.8181 51.9972 38.664 51.8629C38.5116 51.727 38.3061 51.6591 38.0475 51.6591C37.8188 51.6591 37.6183 51.7187 37.446 51.8381C37.2753 51.9557 37.1419 52.1223 37.0458 52.3377C36.9513 52.5515 36.9041 52.8026 36.9041 53.0909C36.9041 53.3859 36.9505 53.6428 37.0433 53.8615C37.1377 54.0803 37.2703 54.2501 37.441 54.3711C37.6134 54.4921 37.8155 54.5526 38.0475 54.5526C38.2 54.5526 38.3384 54.526 38.4627 54.473C38.587 54.42 38.6922 54.3438 38.7784 54.2443C38.8645 54.1449 38.9259 54.0256 38.9623 53.8864H39.549C39.5158 54.1117 39.4338 54.3147 39.3029 54.4954C39.1736 54.6744 39.0021 54.8169 38.7883 54.9229C38.5762 55.0273 38.3293 55.0795 38.0475 55.0795ZM42.0074 55.0795C41.6395 55.0795 41.3222 54.9983 41.0554 54.8359C40.7902 54.6719 40.5855 54.4432 40.4414 54.1499C40.2988 53.8549 40.2276 53.5118 40.2276 53.1207C40.2276 52.7296 40.2988 52.3849 40.4414 52.0866C40.5855 51.7867 40.7861 51.553 41.0429 51.3857C41.3014 51.2166 41.6031 51.1321 41.9478 51.1321C42.1466 51.1321 42.343 51.1652 42.5369 51.2315C42.7308 51.2978 42.9073 51.4055 43.0664 51.5547C43.2255 51.7022 43.3522 51.8977 43.4467 52.1413C43.5411 52.3849 43.5884 52.6849 43.5884 53.0412V53.2898H40.6452V52.7827H42.9918C42.9918 52.5672 42.9487 52.375 42.8625 52.206C42.778 52.0369 42.657 51.9035 42.4996 51.8058C42.3438 51.708 42.1599 51.6591 41.9478 51.6591C41.7141 51.6591 41.5119 51.7171 41.3412 51.8331C41.1722 51.9474 41.0421 52.0966 40.9509 52.2805C40.8598 52.4645 40.8142 52.6617 40.8142 52.8722V53.2102C40.8142 53.4986 40.8639 53.743 40.9634 53.9435C41.0645 54.1424 41.2045 54.294 41.3835 54.3984C41.5625 54.5012 41.7704 54.5526 42.0074 54.5526C42.1615 54.5526 42.3007 54.531 42.425 54.4879C42.551 54.4432 42.6595 54.3769 42.7507 54.2891C42.8418 54.1996 42.9122 54.0885 42.962 53.956L43.5287 54.1151C43.4691 54.3073 43.3688 54.4763 43.2279 54.6222C43.0871 54.7663 42.9131 54.879 42.7059 54.9602C42.4988 55.0398 42.2659 55.0795 42.0074 55.0795Z" fill="#3B634C"></path></svg>