<svg xmlns="http://www.w3.org/2000/svg" width="27" height="22" viewBox="0 0 27 22" fill="none"><path d="M21.0916 7.98784C20.7255 5.73659 19.7265 3.7094 18.2653 2.25253C16.8041 0.795654 14.9714 -0.000518737 13.0801 2.5357e-07C9.92996 2.5357e-07 7.19404 2.16888 5.83153 5.34286C4.22948 5.55292 2.74791 6.47387 1.67151 7.92875C0.595112 9.38364 -0.000187156 11.2698 4.41374e-08 13.2249C4.41374e-08 17.6023 2.93212 21.1598 6.54004 21.1598H20.7101C23.7185 21.1598 26.1602 18.1975 26.1602 14.5474C26.1602 11.056 23.9256 8.22589 21.0916 7.98784Z" fill="#3B634C"></path><path d="M10.9688 14.334H16.032M13.5004 12.5423V7.16699M13.5004 7.16699L14.9772 8.73478M13.5004 7.16699L12.0236 8.73478" stroke="white" stroke-width="0.6575" stroke-linecap="round" stroke-linejoin="round"></path></svg>