<svg xmlns="http://www.w3.org/2000/svg" width="27" height="26" viewBox="0 0 27 26" fill="none"><g clip-path="url(#clip0_1793_4854)"><path d="M13.7109 0C6.63594 0 0.710938 5.08 0.710938 11.5C0.710938 14.53 2.06994 17.248 4.21094 19.281C3.95009 19.9611 3.58062 20.5943 3.11694 21.156C2.50181 21.9023 1.82219 22.5929 1.08594 23.22C0.924454 23.3496 0.807161 23.526 0.750246 23.7251C0.693332 23.9241 0.699601 24.136 0.768189 24.3313C0.836777 24.5266 0.964303 24.6959 1.13317 24.8156C1.30203 24.9354 1.50391 24.9998 1.71094 25C3.92594 25 5.51894 24.975 6.96094 24.594C8.25094 24.252 9.35994 23.536 10.4919 22.531C11.5219 22.778 12.5849 23 13.7109 23C20.7859 23 26.7109 17.92 26.7109 11.5C26.7109 5.08 20.7859 0 13.7109 0ZM13.7109 2C19.8359 2 24.7109 6.32 24.7109 11.5C24.7109 16.68 19.8359 21 13.7109 21C12.6219 21 11.4909 20.812 10.4609 20.531C10.2962 20.4896 10.1237 20.4908 9.95957 20.5345C9.79546 20.5783 9.64519 20.6631 9.52294 20.781C8.39794 21.86 7.56894 22.363 6.46094 22.656C5.95094 22.791 4.96694 22.759 4.27294 22.813C4.41294 22.655 4.54394 22.571 4.67994 22.406C5.46594 21.446 6.18294 20.431 6.39894 19.281C6.42869 19.1084 6.41258 18.931 6.3522 18.7665C6.29183 18.6021 6.18932 18.4564 6.05494 18.344C3.95994 16.614 2.71094 14.189 2.71094 11.5C2.71094 6.32 7.58594 2 13.7109 2ZM11.8049 5.906C11.6289 5.9455 11.4669 6.03189 11.3359 6.156L9.83594 7.563L11.1799 9.031L12.3669 7.906H14.7729L15.7109 8.97V10.439L13.1479 12.157C13.0109 12.2503 12.8993 12.3762 12.823 12.5233C12.7467 12.6705 12.7082 12.8343 12.7109 13V15H14.7109V13.562L17.2739 11.844C17.4111 11.7506 17.5228 11.6246 17.5991 11.4772C17.6754 11.3299 17.7138 11.1659 17.7109 11V8.594C17.7096 8.35231 17.6208 8.11927 17.4609 7.938L15.9609 6.25C15.8676 6.1426 15.7524 6.05636 15.6231 5.99704C15.4937 5.93772 15.3532 5.90668 15.2109 5.906H12.0229C11.9505 5.89806 11.8774 5.89806 11.8049 5.906ZM12.7109 16V18H14.7109V16H12.7109Z" fill="black"></path></g><defs><clipPath id="clip0_1793_4854"><rect width="26" height="26" fill="white" transform="translate(0.710938)"></rect></clipPath></defs></svg>