<?xml version="1.0" encoding="iso-8859-1"?>
<!-- Generator: Adobe Illustrator 15.0.0, SVG Export Plug-In . SVG Version: 6.00 Build 0)  -->
<!DOCTYPE svg PUBLIC "-//W3C//DTD SVG 1.1//EN" "http://www.w3.org/Graphics/SVG/1.1/DTD/svg11.dtd">
<svg version="1.1" id="Layer_1" xmlns="http://www.w3.org/2000/svg" xmlns:xlink="http://www.w3.org/1999/xlink" x="0px" y="0px"
	 width="128px" height="128px" viewBox="0 0 128 128" style="enable-background:new 0 0 128 128;" xml:space="preserve">
<g>
	<circle style="fill:#FFC200;" cx="64" cy="64" r="64"/>
	<path style="fill:#F2B800;" d="M64,0c-1.685,0-3.349,0.085-5,0.213C92.008,2.768,118,30.337,118,64s-25.992,61.232-59,63.787
		c1.651,0.128,3.315,0.213,5,0.213c35.348,0,64-28.652,64-64S99.348,0,64,0z"/>
	<g>
		<path style="fill:#263740;" d="M51,56c-1.656,0-3-1.344-3-3c0-4.963-4.037-9-9-9s-9,4.037-9,9c0,1.656-1.344,3-3,3s-3-1.344-3-3
			c0-8.271,6.729-15,15-15s15,6.729,15,15C54,54.656,52.656,56,51,56z"/>
		<path style="fill:#263740;" d="M101,56c-1.656,0-3-1.344-3-3c0-4.963-4.037-9-9-9s-9,4.037-9,9c0,1.656-1.344,3-3,3s-3-1.344-3-3
			c0-8.271,6.729-15,15-15s15,6.729,15,15C104,54.656,102.656,56,101,56z"/>
	</g>
	<path style="fill:#263740;" d="M102,4c0,0-28.447-4-38-4S26,4,26,4c-3.3,0-6,2.7-6,6l2,10h84l2-10C108,6.7,105.3,4,102,4z"/>
	<path style="fill:#263740;" d="M22,20c0,6.014,18.942,14,42,14s42-7.986,42-14H22z"/>
	<path style="fill:#FFD464;" d="M63,3c0,0-4,1-5,1c0,3,1,9,5,11c4-2,5-8,5-11C67,4,63,3,63,3z"/>
	<path style="fill:#263740;" d="M64,78c-14.358,0-26,8.955-26,20v26c0,2.2,1.8,4,4,4h9.52v-27.4c0-5.301,5.59-9.6,12.48-9.6
		s12.48,4.299,12.48,9.6V128H86c2.2,0,4-1.8,4-4V98C90,86.955,78.358,78,64,78z"/>
	<polygon style="fill:#FFD464;" points="21.6,18 22,20 106,20 106.4,18 	"/>
</g>
</svg>
