<?xml version="1.0" encoding="iso-8859-1"?>
<!-- Generator: Adobe Illustrator 15.0.0, SVG Export Plug-In . SVG Version: 6.00 Build 0)  -->
<!DOCTYPE svg PUBLIC "-//W3C//DTD SVG 1.1//EN" "http://www.w3.org/Graphics/SVG/1.1/DTD/svg11.dtd">
<svg version="1.1" id="Layer_1" xmlns="http://www.w3.org/2000/svg" xmlns:xlink="http://www.w3.org/1999/xlink" x="0px" y="0px"
	 width="128px" height="128px" viewBox="0 0 128 128" style="enable-background:new 0 0 128 128;" xml:space="preserve">
<g>
	<circle style="fill:#FFC200;" cx="64" cy="68" r="60"/>
	<path style="fill:#F2B800;" d="M64,8c-1.686,0-3.35,0.087-5,0.224C89.796,10.767,114,36.547,114,68s-24.204,57.233-55,59.776
		c1.65,0.137,3.314,0.224,5,0.224c33.139,0,60-26.861,60-60S97.139,8,64,8z"/>
	<path style="fill:#F2B800;" d="M64,118c-25.471,0-47.706-18.078-52.871-42.984c-0.308-1.479,0.063-2.999,1.017-4.172
		C13.101,69.672,14.514,69,16.025,69H42c2.757,0,5,2.243,5,5s-2.243,5-5,5H22.627C28.88,96.203,45.52,108,64,108
		c20.755,0,38.873-14.727,43.08-35.016c0.479-2.31,2.535-3.984,4.893-3.984c0.34,0,0.682,0.035,1.016,0.104
		c2.701,0.562,4.443,3.213,3.884,5.911C111.706,99.922,89.471,118,64,118z"/>
	<path style="fill:#F5F5F5;" d="M64,116c-24.528,0-45.939-17.407-50.913-41.391c-0.184-0.885,0.041-1.804,0.61-2.503
		c0.57-0.7,1.425-1.106,2.327-1.106H42c1.657,0,3,1.344,3,3s-1.343,3-3,3H19.865C25.554,96.327,43.553,110,64,110
		c21.698,0,40.641-15.396,45.038-36.609c0.336-1.623,1.919-2.664,3.547-2.328c1.622,0.337,2.664,1.925,2.328,3.548
		C109.939,98.593,88.527,116,64,116z"/>
	<g>
		<path style="fill:#263740;" d="M39,58c-7.72,0-14-6.28-14-14s6.28-14,14-14s14,6.28,14,14S46.72,58,39,58z M39,36
			c-4.411,0-8,3.589-8,8s3.589,8,8,8s8-3.589,8-8S43.411,36,39,36z"/>
		<path style="fill:#263740;" d="M89,58c-7.721,0-14-6.28-14-14s6.279-14,14-14s14,6.28,14,14S96.721,58,89,58z M89,36
			c-4.411,0-8,3.589-8,8s3.589,8,8,8s8-3.589,8-8S93.411,36,89,36z"/>
	</g>
	<path style="fill:#263740;" d="M72,26c0,2.2-1.8,4-4,4H58c-2.2,0-4-1.8-4-4L52,4c0-2.2,1.8-4,4-4h14c2.2,0,4,1.8,4,4L72,26z"/>
	<path style="fill:#1E2C33;" d="M70,0h-4c2.2,0,4,1.8,4,4l-2,22c0,2.2-1.8,4-4,4h4c2.2,0,4-1.8,4-4l2-22C74,1.8,72.2,0,70,0z"/>
</g>
</svg>
