<?xml version="1.0" encoding="iso-8859-1"?>
<!-- Generator: Adobe Illustrator 15.0.0, SVG Export Plug-In . SVG Version: 6.00 Build 0)  -->
<!DOCTYPE svg PUBLIC "-//W3C//DTD SVG 1.1//EN" "http://www.w3.org/Graphics/SVG/1.1/DTD/svg11.dtd">
<svg version="1.1" id="Layer_1" xmlns="http://www.w3.org/2000/svg" xmlns:xlink="http://www.w3.org/1999/xlink" x="0px" y="0px"
	 width="128px" height="128px" viewBox="0 0 128 128" style="enable-background:new 0 0 128 128;" xml:space="preserve">
<g>
	<circle style="fill:#FFC200;" cx="64" cy="64" r="64"/>
	<path style="fill:#F2B800;" d="M107,76c-2.458,0-4.496,1.787-4.912,4.127C101.737,80.049,101.375,80,101,80
		s-0.737,0.049-1.088,0.127C99.496,77.787,97.458,76,95,76s-4.496,1.787-4.912,4.127C89.737,80.049,89.375,80,89,80
		s-0.737,0.049-1.088,0.127C87.496,77.787,85.458,76,83,76s-4.496,1.787-4.912,4.127C77.737,80.049,77.375,80,77,80
		s-0.737,0.049-1.088,0.127C75.496,77.787,73.458,76,71,76s-4.496,1.787-4.912,4.127C65.737,80.049,65.375,80,65,80
		s-0.737,0.049-1.088,0.127C63.496,77.787,61.458,76,59,76s-4.496,1.787-4.912,4.127C53.737,80.049,53.375,80,53,80
		s-0.737,0.049-1.088,0.127C51.496,77.787,49.458,76,47,76s-4.496,1.787-4.912,4.127C41.737,80.049,41.375,80,41,80
		s-0.737,0.049-1.088,0.127C39.496,77.787,37.458,76,35,76s-4.496,1.787-4.912,4.127C29.737,80.049,29.375,80,29,80
		s-0.737,0.049-1.088,0.127C27.496,77.787,25.458,76,23,76c-2.757,0-5,2.243-5,5v6c0,2.757,2.243,5,5,5
		c0.375,0,0.737-0.049,1.088-0.127C24.504,94.213,26.542,96,29,96s4.496-1.787,4.912-4.127C34.263,91.951,34.625,92,35,92
		s0.737-0.049,1.088-0.127C36.504,94.213,38.542,96,41,96s4.496-1.787,4.912-4.127C46.263,91.951,46.625,92,47,92
		s0.737-0.049,1.088-0.127C48.504,94.213,50.542,96,53,96s4.496-1.787,4.912-4.127C58.263,91.951,58.625,92,59,92
		s0.737-0.049,1.088-0.127C60.504,94.213,62.542,96,65,96s4.496-1.787,4.912-4.127C70.263,91.951,70.625,92,71,92
		s0.737-0.049,1.088-0.127C72.504,94.213,74.542,96,77,96s4.496-1.787,4.912-4.127C82.263,91.951,82.625,92,83,92
		s0.737-0.049,1.088-0.127C84.504,94.213,86.542,96,89,96s4.496-1.787,4.912-4.127C94.263,91.951,94.625,92,95,92
		s0.737-0.049,1.088-0.127C96.504,94.213,98.542,96,101,96s4.496-1.787,4.912-4.127C106.263,91.951,106.625,92,107,92
		c2.757,0,5-2.243,5-5v-6C112,78.243,109.757,76,107,76z"/>
	<path style="fill:#F5F5F5;" d="M23,90c-1.657,0-3-1.344-3-3v-6c0-1.656,1.343-3,3-3s3,1.344,3,3v6C26,88.656,24.657,90,23,90z"/>
	<path style="fill:#F5F5F5;" d="M29,94c-1.657,0-3-1.344-3-3v-6c0-1.656,1.343-3,3-3s3,1.344,3,3v6C32,92.656,30.657,94,29,94z"/>
	<path style="fill:#F5F5F5;" d="M35,90c-1.657,0-3-1.344-3-3v-6c0-1.656,1.343-3,3-3s3,1.344,3,3v6C38,88.656,36.657,90,35,90z"/>
	<path style="fill:#F5F5F5;" d="M41,94c-1.657,0-3-1.344-3-3v-6c0-1.656,1.343-3,3-3s3,1.344,3,3v6C44,92.656,42.657,94,41,94z"/>
	<path style="fill:#F5F5F5;" d="M47,90c-1.657,0-3-1.344-3-3v-6c0-1.656,1.343-3,3-3s3,1.344,3,3v6C50,88.656,48.657,90,47,90z"/>
	<path style="fill:#F5F5F5;" d="M53,94c-1.657,0-3-1.344-3-3v-6c0-1.656,1.343-3,3-3s3,1.344,3,3v6C56,92.656,54.657,94,53,94z"/>
	<path style="fill:#F5F5F5;" d="M59,90c-1.657,0-3-1.344-3-3v-6c0-1.656,1.343-3,3-3s3,1.344,3,3v6C62,88.656,60.657,90,59,90z"/>
	<path style="fill:#F5F5F5;" d="M65,94c-1.657,0-3-1.344-3-3v-6c0-1.656,1.343-3,3-3s3,1.344,3,3v6C68,92.656,66.657,94,65,94z"/>
	<path style="fill:#F5F5F5;" d="M71,90c-1.657,0-3-1.344-3-3v-6c0-1.656,1.343-3,3-3s3,1.344,3,3v6C74,88.656,72.657,90,71,90z"/>
	<path style="fill:#F5F5F5;" d="M77,94c-1.657,0-3-1.344-3-3v-6c0-1.656,1.343-3,3-3s3,1.344,3,3v6C80,92.656,78.657,94,77,94z"/>
	<path style="fill:#F5F5F5;" d="M83,90c-1.657,0-3-1.344-3-3v-6c0-1.656,1.343-3,3-3s3,1.344,3,3v6C86,88.656,84.657,90,83,90z"/>
	<path style="fill:#F5F5F5;" d="M89,94c-1.657,0-3-1.344-3-3v-6c0-1.656,1.343-3,3-3s3,1.344,3,3v6C92,92.656,90.657,94,89,94z"/>
	<path style="fill:#F5F5F5;" d="M95,90c-1.657,0-3-1.344-3-3v-6c0-1.656,1.343-3,3-3s3,1.344,3,3v6C98,88.656,96.657,90,95,90z"/>
	<path style="fill:#F5F5F5;" d="M101,94c-1.657,0-3-1.344-3-3v-6c0-1.656,1.343-3,3-3s3,1.344,3,3v6C104,92.656,102.657,94,101,94z"
		/>
	<path style="fill:#F5F5F5;" d="M107,90c-1.657,0-3-1.344-3-3v-6c0-1.656,1.343-3,3-3s3,1.344,3,3v6C110,88.656,108.657,90,107,90z"
		/>
	<path style="fill:#F2B800;" d="M64,0c-1.685,0-3.349,0.085-5,0.213C92.008,2.767,118,30.337,118,64
		c0,33.664-25.992,61.234-59,63.787c1.651,0.127,3.315,0.213,5,0.213c35.348,0,64-28.652,64-64S99.348,0,64,0z"/>
	<g>
		<path style="fill:#263740;" d="M51,42c-1.656,0-3-1.344-3-3c0-4.963-4.037-9-9-9s-9,4.037-9,9c0,1.656-1.344,3-3,3s-3-1.344-3-3
			c0-8.271,6.729-15,15-15s15,6.729,15,15C54,40.656,52.656,42,51,42z"/>
		<path style="fill:#263740;" d="M101,42c-1.656,0-3-1.344-3-3c0-4.963-4.037-9-9-9s-9,4.037-9,9c0,1.656-1.344,3-3,3s-3-1.344-3-3
			c0-8.271,6.729-15,15-15s15,6.729,15,15C104,40.656,102.656,42,101,42z"/>
	</g>
	<path style="fill:#E6E6E6;" d="M93,93V82c0-6.063,4.938-11,11-11c6.063,0,11,4.938,11,11v11h4V82c0-8.336-6.664-15-15-15
		s-15,6.664-15,15v11H93z"/>
	<path style="fill:#CC584C;" d="M128,123.877c0,2.277-1.846,4.123-4.123,4.123H85c-2.277,0-5-1.846-5-4.123V97.123
		C80,94.846,81.846,93,84.123,93h39.754c2.277,0,4.123,1.846,4.123,4.123V123.877z"/>
	<rect x="80" y="98" style="fill:#F5F5F5;" width="48" height="2"/>
	<rect x="80" y="121" style="fill:#F5F5F5;" width="48" height="2"/>
	<rect x="89" y="92" style="fill:#CCCCCC;" width="4" height="1"/>
	<rect x="115" y="92" style="fill:#CCCCCC;" width="4" height="1"/>
	<path style="fill:#F5F5F5;" d="M104,67c-8.336,0-15,6.664-15,15v2c1.104,0,2-0.896,2-2c0-7.289,5.71-13,13-13s13,5.711,13,13
		c0,1.104,0.896,2,2,2v-2C119,73.664,112.336,67,104,67z"/>
	<path style="fill:#994239;" d="M109,107c0-2.762-2.238-5-5-5s-5,2.238-5,5c0,1.631,0.792,3.064,2,3.978V116c0,1.656,1.343,3,3,3
		s3-1.344,3-3v-5.022C108.208,110.064,109,108.631,109,107z"/>
	<circle style="fill:#CC584C;" cx="104" cy="107" r="2"/>
</g>
</svg>
