<svg xmlns="http://www.w3.org/2000/svg" width="72" height="48" viewBox="0 0 72 48" fill="none"><g clip-path="url(#clip0_224_3703)"><g clip-path="url(#clip1_224_3703)"><path d="M24.8635 23.4626C23.2936 25.0398 21.4804 25.7735 19.9119 24.1963L28.736 15.332C30.3045 16.9079 29.5743 18.731 28.0044 20.3056L24.8635 23.4626Z" fill="#BF9D3E"></path><path d="M10.2353 8.76803L13.3775 5.61097C14.9461 4.03506 16.7606 3.30138 18.3291 4.87598L9.5038 13.7416C7.93527 12.167 8.66682 10.3439 10.2353 8.76803Z" fill="#BF9D3E"></path><path d="M11.1001 13.7371L18.3245 6.47876L27.1403 15.336L19.9159 22.5944L11.1001 13.7371Z" fill="#BF9D3E"></path><path d="M2.66433 27.4263C3.9621 26.1212 13.5476 17.7969 13.5476 17.7969L14.7113 18.9648L15.875 20.1327C15.875 20.1327 7.58859 29.7634 6.28951 31.0686C4.99043 32.3738 3.71999 32.0769 2.69166 31.0424C1.66204 30.008 1.36525 28.7315 2.66433 27.4263Z" fill="#BF9D3E"></path><path fill-rule="evenodd" clip-rule="evenodd" d="M12.4278 34.0854C13.0616 33.2221 16.2016 28.9441 16.6687 28.3012C17.1885 27.5855 17.6217 27.208 18.7094 27.208C19.7975 27.208 26.7045 27.208 27.6981 27.208C28.6921 27.208 29.167 27.9913 29.4234 28.2816C29.6008 28.4822 31.8912 31.4782 33.2908 33.3122L33.3184 33.3119C34.4703 33.2926 39.5533 34.3946 39.5533 36.21V39.8935C39.5533 41.0512 38.6103 41.9982 37.4584 41.9982H36.5188C36.5487 41.8128 36.5645 41.6224 36.5645 41.4286C36.5645 39.4741 34.9878 37.8897 33.0425 37.8897C31.0972 37.8897 29.5205 39.4741 29.5205 41.4286C29.5205 41.6224 29.5363 41.8128 29.5662 41.9982H20.9864C21.0163 41.8128 21.0321 41.6224 21.0321 41.4286C21.0321 39.4741 19.4551 37.8897 17.5098 37.8897C15.5648 37.8897 13.9877 39.4741 13.9877 41.4286C13.9877 41.6224 14.0035 41.8128 14.0334 41.9982H13.7663C12.614 41.9982 11.6714 41.0512 11.6714 39.8935V35.7454C11.6714 34.9098 12.0135 34.6505 12.4278 34.0854ZM33.0425 38.8573C34.4559 38.8573 35.6018 40.0083 35.6018 41.4286C35.6018 42.8487 34.4559 44 33.0425 44C31.6291 44 30.4832 42.8487 30.4832 41.4286C30.4832 40.0083 31.6291 38.8573 33.0425 38.8573ZM17.5098 38.8573C18.9235 38.8573 20.0694 40.0083 20.0694 41.4286C20.0694 42.8487 18.9235 44 17.5098 44C16.0964 44 14.9505 42.8487 14.9505 41.4286C14.9505 40.0083 16.0964 38.8573 17.5098 38.8573ZM23.1703 34.9406H27.0711V36.0821H23.1703V34.9406ZM31.534 33.3122L30.7931 32.3429C30.2641 31.6511 29.7349 30.9597 29.2036 30.2699C28.9321 29.9174 28.6558 29.5393 28.3816 29.2118C28.2213 29.0305 27.9663 28.6085 27.6981 28.6085H24.616V33.3122H31.534ZM23.5793 28.6085H21.1917L19.3466 33.3122H23.5793V28.6085ZM19.985 28.6085H18.7094C18.1711 28.6085 18.1062 28.6973 17.7944 29.1267C16.7782 30.5255 15.7533 31.9188 14.7287 33.3122H18.1398L19.985 28.6085Z" fill="#BF9D3E"></path><path d="M46.5505 37C53.178 37 58.5505 31.6274 58.5505 25C58.5505 18.3726 53.178 13 46.5505 13C39.9231 13 34.5505 18.3726 34.5505 25C34.5505 31.6274 39.9231 37 46.5505 37Z" fill="#BF9D3E"></path><path d="M43.5213 25.1055L44.0955 20.0469H49.6736V21.6943H45.7156L45.4695 23.834C45.9389 23.5833 46.4379 23.458 46.9666 23.458C47.9145 23.458 48.6573 23.752 49.1951 24.3398C49.7329 24.9277 50.0017 25.7503 50.0017 26.8076C50.0017 27.4502 49.865 28.0267 49.5916 28.5371C49.3227 29.043 48.9353 29.4372 48.4295 29.7197C47.9236 29.9977 47.3266 30.1367 46.6385 30.1367C46.0369 30.1367 45.4786 30.016 44.9637 29.7744C44.4487 29.5283 44.0408 29.1842 43.74 28.7422C43.4438 28.3001 43.2866 27.7965 43.2683 27.2314H45.2234C45.2644 27.6462 45.408 27.9697 45.6541 28.2021C45.9047 28.43 46.2306 28.5439 46.6316 28.5439C47.0782 28.5439 47.4223 28.3844 47.6639 28.0654C47.9054 27.7419 48.0262 27.2861 48.0262 26.6982C48.0262 26.1331 47.8872 25.7002 47.6092 25.3994C47.3312 25.0986 46.937 24.9482 46.4265 24.9482C45.9571 24.9482 45.5766 25.0713 45.2849 25.3174L45.0935 25.4951L43.5213 25.1055Z" fill="white"></path></g></g><defs><clipPath id="clip0_224_3703"><rect width="71" height="48" fill="white" transform="translate(0.420166)"></rect></clipPath><clipPath id="clip1_224_3703"><rect width="71" height="48" fill="white" transform="translate(0.420166)"></rect></clipPath></defs></svg>