<svg xmlns="http://www.w3.org/2000/svg" width="72" height="48" viewBox="0 0 72 48" fill="none"><g clip-path="url(#clip0_224_3667)"><g clip-path="url(#clip1_224_3667)"><g clip-path="url(#clip2_224_3667)"><path d="M55.7017 5H4.05C2.13694 5 0.580567 6.55453 0.580322 8.46551V39.5389C0.580322 41.4473 2.13682 43 4.05 43H55.7017C57.6123 43 59.1668 41.4474 59.1668 39.5389V8.46551C59.1668 6.55466 57.6123 5 55.7017 5ZM56.9597 39.5389C56.9597 40.2303 56.3953 40.7929 55.7017 40.7929H4.05C3.35379 40.7929 2.78742 40.2303 2.78742 39.5389V8.46564C2.78742 7.77163 3.35391 7.2071 4.05 7.2071H55.7017C56.3953 7.2071 56.9597 7.77163 56.9597 8.46551V39.5389Z" fill="#BF9D3E"></path><path d="M21.1702 26.373C20.0219 25.2557 18.5951 24.4947 17.0327 24.1423C19.1324 23.3319 20.6264 21.2952 20.6264 18.9154C20.6264 15.8237 18.1105 13.3083 15.0183 13.3083C13.5194 13.3083 12.1104 13.8916 11.0507 14.9509C9.99129 16.01 9.40788 17.4181 9.40788 18.9156C9.40788 21.2952 10.9021 23.3316 13.0023 24.1421C11.4394 24.4944 10.0124 25.2556 8.86383 26.3732C7.04444 28.1434 6.08276 30.6399 6.08276 33.5927C6.08276 34.2022 6.57678 34.6961 7.18631 34.6961H22.8477H22.8501C23.4597 34.6961 23.9537 34.2022 23.9537 33.5927C23.9537 33.5667 23.9528 33.5408 23.951 33.5153C23.9344 30.5959 22.9736 28.1277 21.1702 26.373ZM11.615 18.9151C11.615 18.0074 11.9688 17.1537 12.6112 16.5117C13.2539 15.8692 14.1088 15.5152 15.0183 15.5152C16.8936 15.5152 18.4193 17.0404 18.4193 18.9151C18.4193 20.7872 16.8936 22.3104 15.0183 22.3104C13.1417 22.3105 11.615 20.7872 11.615 18.9151ZM8.34676 32.4889C8.80951 28.1252 12.0192 26.1248 15.017 26.1248C18.0149 26.1248 21.2245 28.1252 21.6873 32.4889H8.34676Z" fill="#BF9D3E"></path><path d="M52.5653 16.502H28.9205C28.311 16.502 27.8169 16.996 27.8169 17.6055C27.8169 18.215 28.311 18.7091 28.9205 18.7091H52.5653C53.1748 18.7091 53.6688 18.215 53.6688 17.6055C53.6688 16.996 53.1748 16.502 52.5653 16.502Z" fill="#BF9D3E"></path><path d="M45.6994 23.6521H28.9205C28.311 23.6521 27.8169 24.1461 27.8169 24.7557C27.8169 25.3652 28.311 25.8592 28.9205 25.8592H45.6994C46.3089 25.8592 46.8029 25.3652 46.8029 24.7557C46.8029 24.1461 46.3089 23.6521 45.6994 23.6521Z" fill="#BF9D3E"></path><path d="M39.1069 29.2954H28.9205C28.311 29.2954 27.8169 29.7894 27.8169 30.399C27.8169 31.0085 28.311 31.5025 28.9205 31.5025H39.1069C39.7164 31.5025 40.2104 31.0085 40.2104 30.399C40.2104 29.7894 39.7164 29.2954 39.1069 29.2954Z" fill="#BF9D3E"></path><path d="M58.5803 35C65.2077 35 70.5803 29.6274 70.5803 23C70.5803 16.3726 65.2077 11 58.5803 11C51.9529 11 46.5803 16.3726 46.5803 23C46.5803 29.6274 51.9529 35 58.5803 35Z" fill="#BF9D3E"></path><path d="M57.2668 22.1484H58.3195C58.8208 22.1484 59.1923 22.0231 59.4338 21.7725C59.6753 21.5218 59.7961 21.1891 59.7961 20.7744C59.7961 20.3734 59.6753 20.0612 59.4338 19.8379C59.1968 19.6146 58.8687 19.5029 58.4494 19.5029C58.0712 19.5029 57.7544 19.6077 57.4992 19.8174C57.244 20.0225 57.1164 20.2913 57.1164 20.624H55.1408C55.1408 20.1045 55.2798 19.6396 55.5578 19.2295C55.8404 18.8148 56.2323 18.4912 56.7336 18.2588C57.2395 18.0264 57.7954 17.9102 58.4016 17.9102C59.4543 17.9102 60.2792 18.1631 60.8762 18.6689C61.4732 19.1702 61.7717 19.863 61.7717 20.7471C61.7717 21.2028 61.6327 21.6221 61.3547 22.0049C61.0767 22.3877 60.7121 22.6816 60.2609 22.8867C60.8215 23.0872 61.2385 23.388 61.5119 23.7891C61.7899 24.1901 61.9289 24.6641 61.9289 25.2109C61.9289 26.0951 61.6053 26.8037 60.9582 27.3369C60.3156 27.8701 59.4634 28.1367 58.4016 28.1367C57.4081 28.1367 56.5946 27.8747 55.9611 27.3506C55.3322 26.8265 55.0178 26.1338 55.0178 25.2725H56.9934C56.9934 25.6462 57.1324 25.9515 57.4103 26.1885C57.6929 26.4255 58.0393 26.5439 58.4494 26.5439C58.9188 26.5439 59.2857 26.4209 59.55 26.1748C59.8189 25.9242 59.9533 25.5938 59.9533 25.1836C59.9533 24.1901 59.4064 23.6934 58.3127 23.6934H57.2668V22.1484Z" fill="white"></path></g></g></g><defs><clipPath id="clip0_224_3667"><rect width="71" height="48" fill="white" transform="translate(0.449951)"></rect></clipPath><clipPath id="clip1_224_3667"><rect width="71" height="48" fill="white" transform="translate(0.449951)"></rect></clipPath><clipPath id="clip2_224_3667"><rect width="71" height="48" fill="white" transform="translate(0.449951)"></rect></clipPath></defs></svg>