<svg xmlns="http://www.w3.org/2000/svg" width="72" height="48" viewBox="0 0 72 48" fill="none"><g clip-path="url(#clip0_224_3648)"><g clip-path="url(#clip1_224_3648)"><g clip-path="url(#clip2_224_3648)"><mask id="mask0_224_3648" style="mask-type:luminance" maskUnits="userSpaceOnUse" x="0" y="0" width="49" height="48"><path d="M48.6504 0H0.650391V48H48.6504V0Z" fill="white"></path></mask><g mask="url(#mask0_224_3648)"><path d="M47.2441 13.3125H41.4316C40.6535 13.3125 40.0254 13.9406 40.0254 14.7188V15.0844L33.4629 11.25C31.4941 10.1062 29.1879 9.75 26.9754 10.2656L19.1379 12.075C18.3222 11.8031 17.4691 11.6156 16.5972 11.5219V7.21875C16.5972 4.89375 14.7035 3 12.3785 3H4.86914C2.54414 3 0.650391 4.89375 0.650391 7.21875V40.9688C0.650391 43.2938 2.54414 45.1875 4.86914 45.1875H12.3691C14.6941 45.1875 16.5879 43.2938 16.5879 40.9688V36.675C19.091 36.3938 21.4629 35.3719 23.3941 33.7219C23.4879 33.6375 23.5816 33.5531 23.6754 33.4688L27.7816 35.0062C29.2066 35.5406 30.7066 35.8125 32.2254 35.8125H40.0254V37.2188C40.0254 37.9969 40.6535 38.625 41.4316 38.625H47.2441C48.0222 38.625 48.6504 37.9969 48.6504 37.2188V14.7188C48.6504 13.9406 48.0222 13.3125 47.2441 13.3125ZM12.3691 42.375H4.86914C4.09102 42.375 3.46289 41.7469 3.46289 40.9688V7.21875C3.46289 6.44062 4.09102 5.8125 4.86914 5.8125H12.3691C13.1472 5.8125 13.7754 6.44062 13.7754 7.21875V11.5125C12.4722 11.6531 11.216 12.0094 10.0254 12.5438V10.0312C10.0254 9.25313 9.39727 8.625 8.61914 8.625C7.84102 8.625 7.21289 9.25313 7.21289 10.0312V38.1562C7.21289 38.9344 7.84102 39.5625 8.61914 39.5625C9.39727 39.5625 10.0254 38.9344 10.0254 38.1562V35.6438C11.216 36.1781 12.4722 36.525 13.7754 36.6656V40.9688C13.7754 41.7469 13.1472 42.375 12.3691 42.375ZM15.1816 33.9375C13.3441 33.9375 11.5816 33.4312 10.0254 32.4656V15.7219C11.5816 14.7562 13.3441 14.25 15.1816 14.25C18.6316 14.25 21.791 16.0688 23.5535 18.9375H20.8066C18.4816 18.9375 16.5879 20.8312 16.5879 23.1562C16.5879 25.4813 18.4816 27.375 20.8066 27.375H24.4535C23.0941 31.2563 19.4285 33.9375 15.1816 33.9375ZM32.2254 33C31.0441 33 29.8816 32.7937 28.766 32.3719L25.6441 31.2C26.4316 30.0375 27.0316 28.7437 27.3972 27.375H28.541C30.0035 29.1469 32.1785 30.1875 34.5035 30.1875H35.8066C36.5847 30.1875 37.2129 29.5594 37.2129 28.7812C37.2129 28.0031 36.5847 27.375 35.8066 27.375H34.5035C32.8629 27.375 31.3347 26.5594 30.416 25.1906C30.1535 24.7969 29.7129 24.5625 29.2441 24.5625H20.8066C20.0285 24.5625 19.4004 23.9344 19.4004 23.1562C19.4004 22.3781 20.0285 21.75 20.8066 21.75H29.2441C30.0222 21.75 30.6504 21.1219 30.6504 20.3438C30.6504 19.5656 30.0222 18.9375 29.2441 18.9375H26.7316C25.8691 16.9969 24.5379 15.3469 22.916 14.0906L27.6035 13.0125C29.1222 12.6656 30.6972 12.9 32.0472 13.6875L40.0347 18.3469V33H32.2254ZM45.8379 35.8125H42.8379V16.125H45.8379V35.8125Z" fill="#BF9D3E"></path></g><path d="M57.6504 36C64.2778 36 69.6504 30.6274 69.6504 24C69.6504 17.3726 64.2778 12 57.6504 12C51.023 12 45.6504 17.3726 45.6504 24C45.6504 30.6274 51.023 36 57.6504 36Z" fill="#BF9D3E"></path><path d="M60.4492 28H54.8594V27.2207L57.8125 23.9395C58.25 23.4434 58.5508 23.041 58.7148 22.7324C58.8828 22.4199 58.9668 22.0977 58.9668 21.7656C58.9668 21.3203 58.832 20.9551 58.5625 20.6699C58.2929 20.3848 57.9336 20.2422 57.4844 20.2422C56.9453 20.2422 56.5254 20.3965 56.2246 20.7051C55.9277 21.0098 55.7793 21.4355 55.7793 21.9824H54.6953C54.6953 21.1973 54.9472 20.5625 55.4512 20.0781C55.959 19.5938 56.6367 19.3516 57.4844 19.3516C58.2773 19.3516 58.9043 19.5605 59.3652 19.9785C59.8262 20.3926 60.0566 20.9453 60.0566 21.6367C60.0566 22.4766 59.5215 23.4766 58.4512 24.6367L56.166 27.1152H60.4492V28Z" fill="white"></path></g></g></g><defs><clipPath id="clip0_224_3648"><rect width="71" height="48" fill="white" transform="translate(0.52002)"></rect></clipPath><clipPath id="clip1_224_3648"><rect width="71" height="48" fill="white" transform="translate(0.52002)"></rect></clipPath><clipPath id="clip2_224_3648"><rect width="71" height="48" fill="white" transform="translate(0.52002)"></rect></clipPath></defs></svg>