<svg xmlns="http://www.w3.org/2000/svg" width="72" height="48" viewBox="0 0 72 48" fill="none"><g clip-path="url(#clip0_224_3718)"><g clip-path="url(#clip1_224_3718)"><g clip-path="url(#clip2_224_3718)"><path d="M57.1604 37C63.7878 37 69.1604 31.6274 69.1604 25C69.1604 18.3726 63.7878 13 57.1604 13C50.533 13 45.1604 18.3726 45.1604 25C45.1604 31.6274 50.533 37 57.1604 37Z" fill="#BF9D3E"></path><path d="M59.1965 19.9443V21.5713H59.0051C58.1119 21.585 57.3918 21.8174 56.8449 22.2686C56.3026 22.7197 55.9768 23.3464 55.8674 24.1484C56.396 23.6107 57.0637 23.3418 57.8703 23.3418C58.7362 23.3418 59.4244 23.6517 59.9348 24.2715C60.4452 24.8913 60.7004 25.707 60.7004 26.7188C60.7004 27.3659 60.5591 27.9515 60.2766 28.4756C59.9986 28.9997 59.6021 29.4076 59.0871 29.6992C58.5767 29.9909 57.9979 30.1367 57.3508 30.1367C56.3026 30.1367 55.455 29.7721 54.8078 29.043C54.1653 28.3138 53.844 27.3408 53.844 26.124V25.4131C53.844 24.333 54.0468 23.3805 54.4524 22.5557C54.8625 21.7262 55.4481 21.0859 56.2092 20.6348C56.9748 20.179 57.8612 19.9489 58.8684 19.9443H59.1965ZM57.2688 24.9277C56.9498 24.9277 56.6604 25.012 56.4006 25.1807C56.1408 25.3447 55.9494 25.5635 55.8264 25.8369V26.4385C55.8264 27.0993 55.9563 27.6165 56.216 27.9902C56.4758 28.3594 56.8404 28.5439 57.3098 28.5439C57.7336 28.5439 58.0754 28.3776 58.3352 28.0449C58.5995 27.7077 58.7317 27.2725 58.7317 26.7393C58.7317 26.1969 58.5995 25.7594 58.3352 25.4268C58.0709 25.0941 57.7154 24.9277 57.2688 24.9277Z" fill="white"></path><mask id="mask0_224_3718" style="mask-type:luminance" maskUnits="userSpaceOnUse" x="0" y="0" width="49" height="48"><path d="M48.1604 0H0.1604V48H48.1604V0Z" fill="white"></path></mask><g mask="url(#mask0_224_3718)"><path fill-rule="evenodd" clip-rule="evenodd" d="M40.0791 18.8969C35.626 18.8969 31.9979 22.525 31.9979 26.9781C31.9979 29.1906 33.1979 32.0687 35.5791 35.5562C36.1041 36.325 36.6197 37.0281 37.0979 37.6469H30.0572C27.5635 37.6469 25.5291 35.6125 25.5291 33.1187C25.5291 29.0594 22.2291 25.75 18.1604 25.75H11.2416C11.7104 25.1312 12.2354 24.4281 12.7604 23.6594C15.1322 20.1812 16.3416 17.2937 16.3416 15.0812C16.3229 10.6281 12.7041 7 8.24165 7C3.77915 7 0.1604 10.6281 0.1604 15.0812C0.1604 17.2937 1.3604 20.1719 3.74165 23.6594C5.43853 26.1531 7.11665 28.0375 7.19165 28.1125C7.46353 28.4125 7.8479 28.5812 8.25103 28.5812H18.1604C20.6541 28.5812 22.6885 30.6156 22.6885 33.1094C22.6885 37.1687 25.9885 40.4781 30.0572 40.4781H40.0885C40.4916 40.4781 40.876 40.3094 41.1479 40.0094C41.2229 39.9344 42.8916 38.05 44.5979 35.5562C46.9697 32.0781 48.1791 29.1906 48.1791 26.9781C48.1604 22.525 44.5322 18.8969 40.0791 18.8969ZM8.24165 24.9719C6.16978 22.4125 2.99165 17.8844 2.99165 15.0812C2.99165 12.1844 5.34478 9.83125 8.24165 9.83125C11.1385 9.83125 13.4916 12.1844 13.4916 15.0812C13.4916 17.875 10.3135 22.4125 8.24165 24.9719ZM40.0791 36.8687C38.0072 34.3094 34.8291 29.7719 34.8291 26.9781C34.8291 24.0812 37.1822 21.7281 40.0791 21.7281C42.976 21.7281 45.3291 24.0812 45.3291 26.9781C45.3291 29.7719 42.1416 34.3094 40.0791 36.8687ZM8.24155 11.3219C6.16968 11.3219 4.48218 13.0094 4.48218 15.0813C4.48218 17.1532 6.16968 18.8407 8.24155 18.8407C10.3134 18.8407 12.0009 17.1532 12.0009 15.0813C12.0009 13.0094 10.3134 11.3219 8.24155 11.3219ZM8.24155 16.0094C7.7353 16.0094 7.3228 15.5969 7.3228 15.0907C7.3228 14.5844 7.7353 14.1719 8.24155 14.1719C8.7478 14.1719 9.1603 14.5844 9.1603 15.0907C9.1603 15.5969 8.75718 16.0094 8.24155 16.0094ZM36.3196 26.9781C36.3196 24.9062 38.007 23.2188 40.0789 23.2188C42.1508 23.2188 43.8383 24.9062 43.8383 26.9781C43.8383 29.05 42.1508 30.7375 40.0789 30.7375C38.007 30.7375 36.3196 29.05 36.3196 26.9781ZM39.1602 26.9875C39.1602 27.4937 39.5727 27.9062 40.0789 27.9062C40.5852 27.9062 40.9977 27.4844 40.9977 26.9875C40.9977 26.4812 40.5852 26.0687 40.0789 26.0687C39.5727 26.0687 39.1602 26.4812 39.1602 26.9875Z" fill="#BF9D3E"></path></g></g></g></g><defs><clipPath id="clip0_224_3718"><rect width="71" height="48" fill="white" transform="translate(0.0300293)"></rect></clipPath><clipPath id="clip1_224_3718"><rect width="71" height="48" fill="white" transform="translate(0.0300293)"></rect></clipPath><clipPath id="clip2_224_3718"><rect width="71" height="48" fill="white" transform="translate(0.0300293)"></rect></clipPath></defs></svg>