<svg xmlns="http://www.w3.org/2000/svg" width="71" height="48" viewBox="0 0 71 48" fill="none"><g clip-path="url(#clip0_224_3686)"><g clip-path="url(#clip1_224_3686)"><path d="M23.4682 4C26.7637 4 29.9853 4.97724 32.7254 6.80814C35.4655 8.63904 37.6012 11.2414 38.8623 14.286C40.1235 17.3307 40.4535 20.681 39.8105 23.9132C39.1676 27.1454 37.5807 30.1144 35.2504 32.4447C32.9201 34.775 29.9511 36.3619 26.7189 37.0049C23.4867 37.6478 20.1364 37.3178 17.0917 36.0567C14.0471 34.7955 11.4447 32.6598 9.6138 29.9197C7.7829 27.1796 6.80566 23.958 6.80566 20.6625C6.80566 18.4744 7.23665 16.3076 8.07402 14.286C8.91139 12.2645 10.1388 10.4276 11.686 8.88034C13.2333 7.33308 15.0701 6.10573 17.0917 5.26836C19.1133 4.43099 21.28 4 23.4682 4ZM23.4682 33.9925C26.1046 33.9925 28.6818 33.2107 30.874 31.746C33.0661 30.2813 34.7746 28.1994 35.7835 25.7637C36.7924 23.3279 37.0564 20.6477 36.5421 18.062C36.0277 15.4762 34.7582 13.101 32.8939 11.2368C31.0297 9.37254 28.6545 8.10298 26.0688 7.58864C23.483 7.07429 20.8028 7.33827 18.367 8.34719C15.9313 9.35611 13.8494 11.0646 12.3847 13.2568C10.92 15.4489 10.1382 18.0261 10.1382 20.6625C10.1382 24.1979 11.5426 27.5884 14.0425 30.0883C16.5423 32.5881 19.9329 33.9925 23.4682 33.9925Z" fill="#BF9D3E"></path><path d="M0.623491 41.1411L7.2885 34.4761C7.60226 34.1624 8.02781 33.9861 8.47153 33.9861C8.91526 33.9861 9.34081 34.1624 9.65457 34.4761C9.96833 34.7899 10.1446 35.2154 10.1446 35.6592C10.1446 36.1029 9.96833 36.5284 9.65457 36.8422L2.98956 43.5072C2.83466 43.6634 2.65038 43.7874 2.44733 43.8719C2.24428 43.9565 2.02649 44.0001 1.80653 44.0001C1.58656 44.0001 1.36877 43.9565 1.16573 43.8719C0.962678 43.7874 0.77839 43.6634 0.623491 43.5072C0.467316 43.3523 0.343354 43.168 0.25876 42.965C0.174166 42.7619 0.130615 42.5441 0.130615 42.3242C0.130615 42.1042 0.174166 41.8864 0.25876 41.6834C0.343354 41.4803 0.467316 41.296 0.623491 41.1411Z" fill="#BF9D3E"></path><path d="M13.3709 14.8307C14.2762 13.2624 15.5342 11.9264 17.0453 10.9286C18.5564 9.93075 20.2791 9.29847 22.077 9.08182C23.8748 8.86518 25.6984 9.07012 27.4033 9.68041C29.1082 10.2907 30.6476 11.2896 31.8996 12.5979C32.2045 12.9183 32.3697 13.3467 32.3587 13.7889C32.3478 14.2311 32.1616 14.6508 31.8413 14.9557C31.5209 15.2606 31.0925 15.4258 30.6503 15.4148C30.2081 15.4039 29.7884 15.2178 29.4835 14.8974C28.7058 14.0861 27.772 13.4405 26.7382 12.9995C25.7045 12.5585 24.5922 12.3312 23.4683 12.3313C22.0059 12.3314 20.5693 12.7164 19.3028 13.4476C18.0364 14.1788 16.9847 15.2305 16.2535 16.497C16.1067 16.7512 15.8953 16.9622 15.6407 17.1085C15.3862 17.2548 15.0974 17.3313 14.8038 17.3301C14.5104 17.327 14.223 17.2466 13.9707 17.0968C13.5924 16.8742 13.3172 16.5114 13.2049 16.0871C13.0926 15.6628 13.1522 15.2113 13.3709 14.8307Z" fill="#BF9D3E"></path><path d="M46.1306 37C52.758 37 58.1306 31.6274 58.1306 25C58.1306 18.3726 52.758 13 46.1306 13C39.5032 13 34.1306 18.3726 34.1306 25C34.1306 31.6274 39.5032 37 46.1306 37Z" fill="#BF9D3E"></path><path d="M48.6521 26.2539H49.78V27.8467H48.6521V30H46.6765V27.8467H42.5955L42.5066 26.6025L46.656 20.0469H48.6521V26.2539ZM44.4753 26.2539H46.6765V22.7402L46.5466 22.9658L44.4753 26.2539Z" fill="white"></path></g></g><defs><clipPath id="clip0_224_3686"><rect width="71" height="48" fill="white"></rect></clipPath><clipPath id="clip1_224_3686"><rect width="71" height="48" fill="white"></rect></clipPath></defs></svg>