<svg xmlns="http://www.w3.org/2000/svg" width="72" height="48" viewBox="0 0 72 48" fill="none"><g clip-path="url(#clip0_224_3626)"><g clip-path="url(#clip1_224_3626)"><g clip-path="url(#clip2_224_3626)"><mask id="mask0_224_3626" style="mask-type:luminance" maskUnits="userSpaceOnUse" x="0" y="0" width="49" height="48"><path d="M48.8303 0H0.830322V47.2941H48.8303V0Z" fill="white"></path></mask><g mask="url(#mask0_224_3626)"><path d="M24.8304 47.2941C18.4148 47.2941 12.3821 44.8374 7.85289 40.3748C3.32371 35.903 0.830322 29.9683 0.830322 23.6471C0.830322 17.3258 3.32371 11.3819 7.85289 6.91929C12.3915 2.45672 18.4148 0 24.8304 0C31.2459 0 37.2785 2.45672 41.8078 6.91929C46.337 11.3911 48.8304 17.3258 48.8304 23.6471C48.8304 29.9683 46.337 35.9122 41.8078 40.3748C37.2692 44.8374 31.2459 47.2941 24.8304 47.2941ZM10.1595 38.4518C14.1097 42.2611 19.3206 44.3497 24.8304 44.3497C30.34 44.3497 35.5417 42.2611 39.5012 38.4518C37.5494 35.8294 34.2528 33.75 30.4522 32.7378C30.0786 34.7253 28.3323 36.1607 26.2685 36.1607H23.3922C21.3284 36.1607 19.5821 34.7253 19.2086 32.7378C15.3518 33.7684 12.1393 35.7926 10.1595 38.4518ZM30.5269 29.7198C35.0841 30.7872 38.9781 33.0875 41.5182 36.2067C44.3479 32.5722 45.8419 28.2292 45.8419 23.6471C45.8419 12.2284 36.4194 2.94438 24.8304 2.94438C13.2413 2.94438 3.81865 12.2284 3.81865 23.6471C3.81865 28.2292 5.31281 32.5722 8.14238 36.2159C10.6825 33.0875 14.5767 30.7872 19.1339 29.729V28.7353C16.5004 26.7755 14.9315 23.5826 14.9315 20.1966C14.9315 14.4367 19.3767 9.75326 24.8304 9.75326C30.284 9.75326 34.7292 14.4367 34.7292 20.1966C34.7292 23.5826 33.1603 26.7755 30.5269 28.7353V29.7198ZM22.1222 31.9649C22.1222 32.655 22.6918 33.2163 23.3922 33.2163H26.2685C26.9689 33.2163 27.5385 32.655 27.5385 31.9649V30.2443C26.6607 30.5111 25.7455 30.64 24.8304 30.64C23.9152 30.64 23 30.5019 22.1222 30.2443V31.9649ZM18.4522 23.0674C19.5261 25.8829 22.0288 27.6956 24.8304 27.6956C26.8755 27.6956 28.7992 26.7203 30.116 25.0272C31.5915 23.1226 32.1051 20.5739 31.4887 18.2C29.5276 20.169 25.8109 20.9971 22.8039 21.6596C20.8055 22.0921 19.0778 22.4693 18.4522 23.0674ZM24.8304 12.6976C21.1043 12.6976 18.0319 15.9549 17.9199 19.9758C19.1059 19.4513 20.7681 19.0741 22.5144 18.6784C25.9417 17.8963 29.4903 17.0866 29.9012 15.1176C28.6031 13.581 26.7541 12.6976 24.8304 12.6976Z" fill="#BF9D3E"></path></g><path d="M51.8303 35.4715C58.4577 35.4715 63.8303 30.1779 63.8303 23.648C63.8303 17.118 58.4577 11.8245 51.8303 11.8245C45.2029 11.8245 39.8303 17.118 39.8303 23.648C39.8303 30.1779 45.2029 35.4715 51.8303 35.4715Z" fill="#BF9D3E"></path><path d="M52.6018 27.5885H51.5119V20.4701L49.3264 21.2611V20.2912L52.4318 19.1423H52.6018V27.5885Z" fill="white"></path></g></g></g><defs><clipPath id="clip0_224_3626"><rect width="71" height="48" fill="white" transform="translate(0.699951)"></rect></clipPath><clipPath id="clip1_224_3626"><rect width="71" height="48" fill="white" transform="translate(0.699951)"></rect></clipPath><clipPath id="clip2_224_3626"><rect width="71" height="48" fill="white" transform="translate(0.699951)"></rect></clipPath></defs></svg>