<svg xmlns="http://www.w3.org/2000/svg" width="953" height="90" viewBox="0 0 953 90" fill="none"><g filter="url(#filter0_d_2_94)"><rect x="4" y="1" width="945" height="82" rx="8" fill="white"></rect></g><path d="M139.555 47.4336L143 50.8789L146.445 47.4336L147.5 48.4883L143 52.9883L138.5 48.4883L139.555 47.4336Z" fill="#0D0A19"></path><path d="M24.8849 56V45.8182H31.7457V47.593H27.0376V50.0192H31.3928V51.794H27.0376V54.2251H31.7656V56H24.8849ZM35.4353 51.5852V56H33.3174V48.3636H35.3359V49.7109H35.4254C35.5944 49.2668 35.8778 48.9155 36.2755 48.657C36.6733 48.3951 37.1555 48.2642 37.7223 48.2642C38.2526 48.2642 38.7149 48.3802 39.1093 48.6122C39.5038 48.8442 39.8103 49.1757 40.0291 49.6065C40.2478 50.0341 40.3572 50.5445 40.3572 51.1378V56H38.2393V51.5156C38.2426 51.0483 38.1233 50.6837 37.8814 50.4219C37.6394 50.1567 37.3063 50.0241 36.8821 50.0241C36.597 50.0241 36.3451 50.0855 36.1264 50.2081C35.9109 50.3307 35.7419 50.5097 35.6193 50.745C35.5 50.977 35.4386 51.2571 35.4353 51.5852ZM44.7403 56.1243C44.1603 56.1243 43.635 55.9751 43.1643 55.6768C42.697 55.3752 42.3258 54.9328 42.0507 54.3494C41.7789 53.7628 41.643 53.0436 41.643 52.1918C41.643 51.3168 41.7839 50.5893 42.0656 50.0092C42.3473 49.4259 42.7219 48.9901 43.1892 48.7017C43.6598 48.41 44.1752 48.2642 44.7354 48.2642C45.1629 48.2642 45.5192 48.3371 45.8043 48.483C46.0926 48.6255 46.3246 48.8045 46.5003 49.0199C46.6793 49.232 46.8152 49.4408 46.908 49.6463H46.9726V45.8182H49.0855V56H46.9974V54.777H46.908C46.8085 54.9891 46.6677 55.1996 46.4854 55.4084C46.3064 55.6139 46.0727 55.7846 45.7844 55.9205C45.4993 56.0563 45.1513 56.1243 44.7403 56.1243ZM45.4115 54.4389C45.7529 54.4389 46.0412 54.3461 46.2766 54.1605C46.5152 53.9716 46.6975 53.7081 46.8234 53.37C46.9527 53.032 47.0173 52.6359 47.0173 52.1818C47.0173 51.7277 46.9544 51.3333 46.8284 50.9986C46.7025 50.6638 46.5202 50.4053 46.2815 50.223C46.0429 50.0407 45.7529 49.9496 45.4115 49.9496C45.0635 49.9496 44.7702 50.044 44.5315 50.233C44.2929 50.4219 44.1123 50.6837 43.9896 51.0185C43.867 51.3532 43.8057 51.741 43.8057 52.1818C43.8057 52.6259 43.867 53.0187 43.9896 53.3601C44.1156 53.6982 44.2962 53.9633 44.5315 54.1555C44.7702 54.3445 45.0635 54.4389 45.4115 54.4389ZM50.7268 56V48.3636H52.8447V56H50.7268ZM51.7907 47.3793C51.4759 47.3793 51.2057 47.2749 50.9804 47.0661C50.7583 46.8539 50.6473 46.6004 50.6473 46.3054C50.6473 46.0137 50.7583 45.7635 50.9804 45.5547C51.2057 45.3426 51.4759 45.2365 51.7907 45.2365C52.1056 45.2365 52.3741 45.3426 52.5961 45.5547C52.8215 45.7635 52.9342 46.0137 52.9342 46.3054C52.9342 46.6004 52.8215 46.8539 52.5961 47.0661C52.3741 47.2749 52.1056 47.3793 51.7907 47.3793ZM56.5592 51.5852V56H54.4413V48.3636H56.4597V49.7109H56.5492C56.7183 49.2668 57.0016 48.9155 57.3994 48.657C57.7971 48.3951 58.2793 48.2642 58.8461 48.2642C59.3764 48.2642 59.8388 48.3802 60.2332 48.6122C60.6276 48.8442 60.9342 49.1757 61.1529 49.6065C61.3717 50.0341 61.481 50.5445 61.481 51.1378V56H59.3631V51.5156C59.3665 51.0483 59.2471 50.6837 59.0052 50.4219C58.7632 50.1567 58.4301 50.0241 58.0059 50.0241C57.7209 50.0241 57.469 50.0855 57.2502 50.2081C57.0348 50.3307 56.8657 50.5097 56.7431 50.745C56.6238 50.977 56.5625 51.2571 56.5592 51.5852ZM66.4906 59.0227C65.8045 59.0227 65.2162 58.9283 64.7257 58.7393C64.2385 58.5537 63.8507 58.3002 63.5623 57.9787C63.274 57.6572 63.0867 57.2959 63.0005 56.8949L64.9593 56.6314C65.019 56.7839 65.1135 56.9264 65.2427 57.0589C65.372 57.1915 65.5427 57.2976 65.7548 57.3771C65.9702 57.46 66.2321 57.5014 66.5403 57.5014C67.001 57.5014 67.3805 57.3887 67.6788 57.1634C67.9804 56.9413 68.1312 56.5684 68.1312 56.0447V54.6477H68.0417C67.9489 54.8598 67.8097 55.0604 67.6241 55.2493C67.4385 55.4382 67.1999 55.5923 66.9082 55.7116C66.6165 55.831 66.2685 55.8906 65.8642 55.8906C65.2908 55.8906 64.7688 55.758 64.2981 55.4929C63.8308 55.2244 63.4579 54.8151 63.1795 54.2649C62.9044 53.7114 62.7669 53.0121 62.7669 52.1669C62.7669 51.3018 62.9077 50.5793 63.1895 49.9993C63.4712 49.4193 63.8457 48.9851 64.313 48.6967C64.7837 48.4084 65.2991 48.2642 65.8592 48.2642C66.2868 48.2642 66.6447 48.3371 66.9331 48.483C67.2214 48.6255 67.4534 48.8045 67.6291 49.0199C67.8081 49.232 67.9456 49.4408 68.0417 49.6463H68.1213V48.3636H70.2243V56.0746C70.2243 56.7242 70.0652 57.2678 69.747 57.7053C69.4288 58.1428 68.988 58.4709 68.4245 58.6896C67.8644 58.9117 67.2198 59.0227 66.4906 59.0227ZM66.5353 54.2997C66.8767 54.2997 67.1651 54.2152 67.4004 54.0462C67.639 53.8738 67.8213 53.6286 67.9473 53.3104C68.0765 52.9889 68.1412 52.6044 68.1412 52.157C68.1412 51.7095 68.0782 51.3217 67.9522 50.9936C67.8263 50.6622 67.644 50.4053 67.4054 50.223C67.1667 50.0407 66.8767 49.9496 66.5353 49.9496C66.1873 49.9496 65.894 50.044 65.6554 50.233C65.4167 50.4186 65.2361 50.6771 65.1135 51.0085C64.9908 51.34 64.9295 51.7228 64.9295 52.157C64.9295 52.5978 64.9908 52.9789 65.1135 53.3004C65.2394 53.6186 65.42 53.8655 65.6554 54.0412C65.894 54.2135 66.1873 54.2997 66.5353 54.2997ZM80.5131 48.7464C80.4733 48.3454 80.3026 48.0339 80.001 47.8118C79.6994 47.5897 79.2901 47.4787 78.773 47.4787C78.4217 47.4787 78.125 47.5284 77.8831 47.6278C77.6411 47.724 77.4555 47.8582 77.3263 48.0305C77.2003 48.2029 77.1374 48.3984 77.1374 48.6172C77.1307 48.7995 77.1688 48.9586 77.2517 49.0945C77.3379 49.2304 77.4555 49.348 77.6047 49.4474C77.7538 49.5436 77.9262 49.6281 78.1217 49.701C78.3173 49.7706 78.5261 49.8303 78.7482 49.88L79.6629 50.0987C80.1071 50.1982 80.5147 50.3307 80.8859 50.4964C81.2571 50.6622 81.5786 50.866 81.8504 51.108C82.1222 51.3499 82.3327 51.6349 82.4818 51.9631C82.6343 52.2912 82.7122 52.6674 82.7155 53.0916C82.7122 53.7147 82.5531 54.255 82.2382 54.7124C81.9267 55.1664 81.4759 55.5194 80.8859 55.7713C80.2993 56.0199 79.5917 56.1442 78.7631 56.1442C77.9411 56.1442 77.2252 56.0182 76.6153 55.7663C76.0088 55.5144 75.5348 55.1416 75.1935 54.6477C74.8554 54.1506 74.6781 53.5357 74.6615 52.8033H76.7446C76.7678 53.1446 76.8656 53.4297 77.0379 53.6584C77.2136 53.8838 77.4473 54.0545 77.7389 54.1705C78.0339 54.2831 78.367 54.3395 78.7382 54.3395C79.1028 54.3395 79.4193 54.2865 79.6878 54.1804C79.9596 54.0743 80.17 53.9268 80.3192 53.7379C80.4683 53.549 80.5429 53.3319 80.5429 53.0866C80.5429 52.858 80.475 52.6657 80.3391 52.5099C80.2065 52.3542 80.0109 52.2216 79.7524 52.1122C79.4972 52.0028 79.184 51.9034 78.8128 51.8139L77.7041 51.5355C76.8457 51.3267 76.1679 51.0002 75.6707 50.5561C75.1736 50.112 74.9267 49.5137 74.93 48.7614C74.9267 48.1449 75.0907 47.6063 75.4222 47.1456C75.7569 46.6849 76.216 46.3253 76.7993 46.0668C77.3826 45.8082 78.0455 45.679 78.7879 45.679C79.5436 45.679 80.2032 45.8082 80.7666 46.0668C81.3334 46.3253 81.7742 46.6849 82.0891 47.1456C82.4039 47.6063 82.5663 48.1399 82.5763 48.7464H80.5131ZM87.474 56.1491C86.7017 56.1491 86.0339 55.9851 85.4704 55.657C84.9103 55.3255 84.4778 54.8648 84.1728 54.2749C83.8679 53.6816 83.7154 52.9938 83.7154 52.2116C83.7154 51.4228 83.8679 50.7334 84.1728 50.1435C84.4778 49.5502 84.9103 49.0895 85.4704 48.7614C86.0339 48.4299 86.7017 48.2642 87.474 48.2642C88.2462 48.2642 88.9124 48.4299 89.4726 48.7614C90.036 49.0895 90.4702 49.5502 90.7751 50.1435C91.08 50.7334 91.2325 51.4228 91.2325 52.2116C91.2325 52.9938 91.08 53.6816 90.7751 54.2749C90.4702 54.8648 90.036 55.3255 89.4726 55.657C88.9124 55.9851 88.2462 56.1491 87.474 56.1491ZM87.4839 54.5085C87.8352 54.5085 88.1286 54.4091 88.3639 54.2102C88.5992 54.008 88.7765 53.733 88.8958 53.3849C89.0185 53.0369 89.0798 52.6409 89.0798 52.1967C89.0798 51.7526 89.0185 51.3565 88.8958 51.0085C88.7765 50.6605 88.5992 50.3854 88.3639 50.1832C88.1286 49.9811 87.8352 49.88 87.4839 49.88C87.1293 49.88 86.831 49.9811 86.589 50.1832C86.3504 50.3854 86.1698 50.6605 86.0471 51.0085C85.9278 51.3565 85.8681 51.7526 85.8681 52.1967C85.8681 52.6409 85.9278 53.0369 86.0471 53.3849C86.1698 53.733 86.3504 54.008 86.589 54.2102C86.831 54.4091 87.1293 54.5085 87.4839 54.5085ZM95.9599 56.1491C95.1877 56.1491 94.5198 55.9851 93.9564 55.657C93.3962 55.3255 92.9637 54.8648 92.6588 54.2749C92.3538 53.6816 92.2014 52.9938 92.2014 52.2116C92.2014 51.4228 92.3538 50.7334 92.6588 50.1435C92.9637 49.5502 93.3962 49.0895 93.9564 48.7614C94.5198 48.4299 95.1877 48.2642 95.9599 48.2642C96.7322 48.2642 97.3984 48.4299 97.9585 48.7614C98.5219 49.0895 98.9561 49.5502 99.261 50.1435C99.566 50.7334 99.7184 51.4228 99.7184 52.2116C99.7184 52.9938 99.566 53.6816 99.261 54.2749C98.9561 54.8648 98.5219 55.3255 97.9585 55.657C97.3984 55.9851 96.7322 56.1491 95.9599 56.1491ZM95.9698 54.5085C96.3212 54.5085 96.6145 54.4091 96.8498 54.2102C97.0851 54.008 97.2625 53.733 97.3818 53.3849C97.5044 53.0369 97.5657 52.6409 97.5657 52.1967C97.5657 51.7526 97.5044 51.3565 97.3818 51.0085C97.2625 50.6605 97.0851 50.3854 96.8498 50.1832C96.6145 49.9811 96.3212 49.88 95.9698 49.88C95.6152 49.88 95.3169 49.9811 95.075 50.1832C94.8363 50.3854 94.6557 50.6605 94.5331 51.0085C94.4137 51.3565 94.3541 51.7526 94.3541 52.1967C94.3541 52.6409 94.4137 53.0369 94.5331 53.3849C94.6557 53.733 94.8363 54.008 95.075 54.2102C95.3169 54.4091 95.6152 54.5085 95.9698 54.5085ZM103.113 51.5852V56H100.996V48.3636H103.014V49.7109H103.104C103.273 49.2668 103.556 48.9155 103.954 48.657C104.351 48.3951 104.834 48.2642 105.4 48.2642C105.931 48.2642 106.393 48.3802 106.787 48.6122C107.182 48.8442 107.488 49.1757 107.707 49.6065C107.926 50.0341 108.035 50.5445 108.035 51.1378V56H105.917V51.5156C105.921 51.0483 105.801 50.6837 105.559 50.4219C105.318 50.1567 104.984 50.0241 104.56 50.0241C104.275 50.0241 104.023 50.0855 103.805 50.2081C103.589 50.3307 103.42 50.5097 103.297 50.745C103.178 50.977 103.117 51.2571 103.113 51.5852Z" fill="#0D0A19"></path><path d="M25.4148 32H24.3068L27.5114 23.2727H28.6023L31.8068 32H30.6989L28.0909 24.6534H28.0227L25.4148 32ZM25.8239 28.5909H30.2898V29.5284H25.8239V28.5909ZM37.0548 29.3239V25.4545H38.0605V32H37.0548V30.892H36.9866C36.8332 31.2244 36.5946 31.5071 36.2707 31.7401C35.9469 31.9702 35.5378 32.0852 35.0435 32.0852C34.6344 32.0852 34.2707 31.9957 33.9526 31.8168C33.6344 31.6349 33.3844 31.3622 33.2026 30.9986C33.0207 30.6321 32.9298 30.1705 32.9298 29.6136V25.4545H33.9355V29.5455C33.9355 30.0227 34.069 30.4034 34.3361 30.6875C34.606 30.9716 34.9497 31.1136 35.3673 31.1136C35.6173 31.1136 35.8716 31.0497 36.1301 30.9219C36.3915 30.794 36.6102 30.598 36.7864 30.3338C36.9653 30.0696 37.0548 29.733 37.0548 29.3239ZM42.4616 32.1364C41.8479 32.1364 41.3195 31.9915 40.8763 31.7017C40.4332 31.4119 40.0923 31.0128 39.8536 30.5043C39.615 29.9957 39.4957 29.4148 39.4957 28.7614C39.4957 28.0966 39.6178 27.5099 39.8621 27.0014C40.1093 26.4901 40.4531 26.0909 40.8934 25.804C41.3366 25.5142 41.8536 25.3693 42.4445 25.3693C42.9048 25.3693 43.3195 25.4545 43.6888 25.625C44.0582 25.7955 44.3607 26.0341 44.5965 26.3409C44.8323 26.6477 44.9786 27.0057 45.0354 27.4148H44.0298C43.9531 27.1165 43.7826 26.8523 43.5184 26.6222C43.257 26.3892 42.9048 26.2727 42.4616 26.2727C42.0695 26.2727 41.7258 26.375 41.4303 26.5795C41.1377 26.7812 40.909 27.0668 40.7442 27.4361C40.5823 27.8026 40.5013 28.233 40.5013 28.7273C40.5013 29.233 40.5809 29.6733 40.74 30.0483C40.9019 30.4233 41.1292 30.7145 41.4218 30.9219C41.7173 31.1293 42.0638 31.233 42.4616 31.233C42.7229 31.233 42.9602 31.1875 43.1732 31.0966C43.3863 31.0057 43.5667 30.875 43.7144 30.7045C43.8621 30.5341 43.9673 30.3295 44.0298 30.0909H45.0354C44.9786 30.4773 44.838 30.8253 44.6136 31.1349C44.392 31.4418 44.0979 31.6861 43.7315 31.8679C43.3678 32.0469 42.9445 32.1364 42.4616 32.1364ZM49.2522 25.4545V26.3068H45.8602V25.4545H49.2522ZM46.8488 23.8864H47.8545V30.125C47.8545 30.4091 47.8957 30.6222 47.9781 30.7642C48.0633 30.9034 48.1712 30.9972 48.3019 31.0455C48.4354 31.0909 48.5761 31.1136 48.7238 31.1136C48.8346 31.1136 48.9255 31.108 48.9965 31.0966C49.0675 31.0824 49.1244 31.071 49.167 31.0625L49.3715 31.9659C49.3033 31.9915 49.2082 32.017 49.086 32.0426C48.9639 32.071 48.809 32.0852 48.6215 32.0852C48.3374 32.0852 48.059 32.0241 47.7863 31.902C47.5164 31.7798 47.292 31.5938 47.113 31.3438C46.9369 31.0938 46.8488 30.7784 46.8488 30.3977V23.8864ZM50.665 32V25.4545H51.6707V32H50.665ZM51.1763 24.3636C50.9803 24.3636 50.8113 24.2969 50.6692 24.1634C50.53 24.0298 50.4604 23.8693 50.4604 23.6818C50.4604 23.4943 50.53 23.3338 50.6692 23.2003C50.8113 23.0668 50.9803 23 51.1763 23C51.3724 23 51.54 23.0668 51.6792 23.2003C51.8212 23.3338 51.8923 23.4943 51.8923 23.6818C51.8923 23.8693 51.8212 24.0298 51.6792 24.1634C51.54 24.2969 51.3724 24.3636 51.1763 24.3636ZM56.0717 32.1364C55.4808 32.1364 54.9624 31.9957 54.5163 31.7145C54.0732 31.4332 53.7266 31.0398 53.4766 30.5341C53.2294 30.0284 53.1058 29.4375 53.1058 28.7614C53.1058 28.0795 53.2294 27.4844 53.4766 26.9759C53.7266 26.4673 54.0732 26.0724 54.5163 25.7912C54.9624 25.5099 55.4808 25.3693 56.0717 25.3693C56.6626 25.3693 57.1797 25.5099 57.6229 25.7912C58.0689 26.0724 58.4155 26.4673 58.6626 26.9759C58.9126 27.4844 59.0376 28.0795 59.0376 28.7614C59.0376 29.4375 58.9126 30.0284 58.6626 30.5341C58.4155 31.0398 58.0689 31.4332 57.6229 31.7145C57.1797 31.9957 56.6626 32.1364 56.0717 32.1364ZM56.0717 31.233C56.5206 31.233 56.8899 31.1179 57.1797 30.8878C57.4695 30.6577 57.6839 30.3551 57.8232 29.9801C57.9624 29.6051 58.032 29.1989 58.032 28.7614C58.032 28.3239 57.9624 27.9162 57.8232 27.5384C57.6839 27.1605 57.4695 26.8551 57.1797 26.6222C56.8899 26.3892 56.5206 26.2727 56.0717 26.2727C55.6229 26.2727 55.2536 26.3892 54.9638 26.6222C54.674 26.8551 54.4595 27.1605 54.3203 27.5384C54.1811 27.9162 54.1115 28.3239 54.1115 28.7614C54.1115 29.1989 54.1811 29.6051 54.3203 29.9801C54.4595 30.3551 54.674 30.6577 54.9638 30.8878C55.2536 31.1179 55.6229 31.233 56.0717 31.233ZM61.4785 28.0625V32H60.4728V25.4545H61.4444V26.4773H61.5296C61.683 26.1449 61.916 25.8778 62.2285 25.6761C62.541 25.4716 62.9444 25.3693 63.4387 25.3693C63.8819 25.3693 64.2697 25.4602 64.6021 25.642C64.9344 25.821 65.193 26.0938 65.3776 26.4602C65.5623 26.8239 65.6546 27.2841 65.6546 27.8409V32H64.6489V27.9091C64.6489 27.3949 64.5154 26.9943 64.2484 26.7074C63.9813 26.4176 63.6148 26.2727 63.1489 26.2727C62.8279 26.2727 62.541 26.3423 62.2881 26.4815C62.0381 26.6207 61.8407 26.8239 61.6958 27.0909C61.5509 27.358 61.4785 27.6818 61.4785 28.0625ZM72.0287 26.9205L71.1253 27.1761C71.0685 27.0256 70.9847 26.8793 70.8739 26.7372C70.7659 26.5923 70.6182 26.473 70.4307 26.3793C70.2432 26.2855 70.0031 26.2386 69.7105 26.2386C69.3099 26.2386 68.9761 26.331 68.7091 26.5156C68.4449 26.6974 68.3128 26.929 68.3128 27.2102C68.3128 27.4602 68.4037 27.6577 68.5855 27.8026C68.7673 27.9474 69.0514 28.0682 69.4378 28.1648L70.4094 28.4034C70.9946 28.5455 71.4307 28.7628 71.7176 29.0554C72.0045 29.3452 72.148 29.7187 72.148 30.1761C72.148 30.5511 72.0401 30.8864 71.8241 31.1818C71.6111 31.4773 71.3128 31.7102 70.9293 31.8807C70.5457 32.0511 70.0997 32.1364 69.5912 32.1364C68.9236 32.1364 68.371 31.9915 67.9335 31.7017C67.496 31.4119 67.219 30.9886 67.1026 30.4318L68.0571 30.1932C68.148 30.5455 68.3199 30.8097 68.5727 30.9858C68.8284 31.1619 69.1622 31.25 69.5741 31.25C70.0429 31.25 70.4151 31.1506 70.6906 30.9517C70.969 30.75 71.1082 30.5085 71.1082 30.2273C71.1082 30 71.0287 29.8097 70.8696 29.6562C70.7105 29.5 70.4662 29.3835 70.1366 29.3068L69.0457 29.0511C68.4463 28.9091 68.006 28.6889 67.7247 28.3906C67.4463 28.0895 67.3071 27.7131 67.3071 27.2614C67.3071 26.892 67.4108 26.5653 67.6182 26.2812C67.8284 25.9972 68.1139 25.7741 68.4747 25.6122C68.8384 25.4503 69.2503 25.3693 69.7105 25.3693C70.3582 25.3693 70.8668 25.5114 71.2361 25.7955C71.6082 26.0795 71.8724 26.4545 72.0287 26.9205Z" fill="#9A9EA7"></path><path d="M303.555 47.4336L307 50.8789L310.445 47.4336L311.5 48.4883L307 52.9883L302.5 48.4883L303.555 47.4336Z" fill="#0D0A19"></path><path d="M191.038 45.8182V56H188.885V45.8182H191.038ZM194.787 51.5852V56H192.669V48.3636H194.687V49.7109H194.777C194.946 49.2668 195.229 48.9155 195.627 48.657C196.025 48.3951 196.507 48.2642 197.074 48.2642C197.604 48.2642 198.066 48.3802 198.461 48.6122C198.855 48.8442 199.162 49.1757 199.381 49.6065C199.599 50.0341 199.709 50.5445 199.709 51.1378V56H197.591V51.5156C197.594 51.0483 197.475 50.6837 197.233 50.4219C196.991 50.1567 196.658 50.0241 196.234 50.0241C195.949 50.0241 195.697 50.0855 195.478 50.2081C195.263 50.3307 195.093 50.5097 194.971 50.745C194.852 50.977 194.79 51.2571 194.787 51.5852ZM205.385 48.3636V49.9545H200.671V48.3636H205.385ZM201.75 56V47.8118C201.75 47.2583 201.858 46.7992 202.073 46.4347C202.292 46.0701 202.59 45.7966 202.968 45.6143C203.346 45.4321 203.775 45.3409 204.256 45.3409C204.581 45.3409 204.877 45.3658 205.146 45.4155C205.418 45.4652 205.62 45.5099 205.752 45.5497L205.375 47.1406C205.292 47.1141 205.189 47.0893 205.066 47.0661C204.947 47.0429 204.824 47.0312 204.698 47.0312C204.387 47.0312 204.17 47.1042 204.047 47.25C203.925 47.3925 203.863 47.593 203.863 47.8516V56H201.75ZM206.578 56V48.3636H208.696V56H206.578ZM207.642 47.3793C207.327 47.3793 207.057 47.2749 206.832 47.0661C206.61 46.8539 206.499 46.6004 206.499 46.3054C206.499 46.0137 206.61 45.7635 206.832 45.5547C207.057 45.3426 207.327 45.2365 207.642 45.2365C207.957 45.2365 208.226 45.3426 208.448 45.5547C208.673 45.7635 208.786 46.0137 208.786 46.3054C208.786 46.6004 208.673 46.8539 208.448 47.0661C208.226 47.2749 207.957 47.3793 207.642 47.3793ZM212.411 51.5852V56H210.293V48.3636H212.311V49.7109H212.401C212.57 49.2668 212.853 48.9155 213.251 48.657C213.649 48.3951 214.131 48.2642 214.698 48.2642C215.228 48.2642 215.69 48.3802 216.085 48.6122C216.479 48.8442 216.786 49.1757 217.004 49.6065C217.223 50.0341 217.333 50.5445 217.333 51.1378V56H215.215V51.5156C215.218 51.0483 215.099 50.6837 214.857 50.4219C214.615 50.1567 214.282 50.0241 213.857 50.0241C213.572 50.0241 213.321 50.0855 213.102 50.2081C212.886 50.3307 212.717 50.5097 212.595 50.745C212.475 50.977 212.414 51.2571 212.411 51.5852ZM218.902 56V48.3636H221.02V56H218.902ZM219.966 47.3793C219.651 47.3793 219.381 47.2749 219.155 47.0661C218.933 46.8539 218.822 46.6004 218.822 46.3054C218.822 46.0137 218.933 45.7635 219.155 45.5547C219.381 45.3426 219.651 45.2365 219.966 45.2365C220.281 45.2365 220.549 45.3426 220.771 45.5547C220.997 45.7635 221.109 46.0137 221.109 46.3054C221.109 46.6004 220.997 46.8539 220.771 47.0661C220.549 47.2749 220.281 47.3793 219.966 47.3793ZM226.678 48.3636V49.9545H222.079V48.3636H226.678ZM223.123 46.5341H225.241V53.6534C225.241 53.849 225.271 54.0014 225.331 54.1108C225.39 54.2169 225.473 54.2914 225.579 54.3345C225.689 54.3776 225.815 54.3991 225.957 54.3991C226.057 54.3991 226.156 54.3909 226.255 54.3743C226.355 54.3544 226.431 54.3395 226.484 54.3295L226.817 55.9055C226.711 55.9387 226.562 55.9768 226.37 56.0199C226.178 56.0663 225.944 56.0945 225.669 56.1044C225.158 56.1243 224.711 56.0563 224.326 55.9006C223.945 55.7448 223.649 55.5028 223.437 55.1747C223.224 54.8466 223.12 54.4323 223.123 53.9318V46.5341ZM227.958 56V48.3636H230.076V56H227.958ZM229.022 47.3793C228.707 47.3793 228.437 47.2749 228.211 47.0661C227.989 46.8539 227.878 46.6004 227.878 46.3054C227.878 46.0137 227.989 45.7635 228.211 45.5547C228.437 45.3426 228.707 45.2365 229.022 45.2365C229.336 45.2365 229.605 45.3426 229.827 45.5547C230.052 45.7635 230.165 46.0137 230.165 46.3054C230.165 46.6004 230.052 46.8539 229.827 47.0661C229.605 47.2749 229.336 47.3793 229.022 47.3793Z" fill="#0D0A19"></path><path d="M189.057 23.2727H190.318L193.284 30.517H193.386L196.352 23.2727H197.614V32H196.625V25.3693H196.54L193.812 32H192.858L190.131 25.3693H190.045V32H189.057V23.2727ZM201.422 32.1534C201.008 32.1534 200.631 32.0753 200.293 31.919C199.955 31.7599 199.687 31.5312 199.488 31.233C199.289 30.9318 199.189 30.5682 199.189 30.142C199.189 29.767 199.263 29.4631 199.411 29.2301C199.559 28.9943 199.756 28.8097 200.003 28.6761C200.25 28.5426 200.523 28.4432 200.822 28.3778C201.123 28.3097 201.425 28.2557 201.729 28.2159C202.127 28.1648 202.449 28.1264 202.697 28.1009C202.947 28.0724 203.128 28.0256 203.242 27.9602C203.358 27.8949 203.417 27.7812 203.417 27.6193V27.5852C203.417 27.1648 203.302 26.8381 203.072 26.6051C202.844 26.3722 202.499 26.2557 202.036 26.2557C201.556 26.2557 201.179 26.3608 200.907 26.571C200.634 26.7812 200.442 27.0057 200.331 27.2443L199.377 26.9034C199.547 26.5057 199.775 26.196 200.059 25.9744C200.346 25.75 200.658 25.5937 200.996 25.5057C201.337 25.4148 201.672 25.3693 202.002 25.3693C202.212 25.3693 202.454 25.3949 202.726 25.446C203.002 25.4943 203.268 25.5952 203.523 25.7486C203.782 25.902 203.996 26.1335 204.167 26.4432C204.337 26.7528 204.422 27.1676 204.422 27.6875V32H203.417V31.1136H203.366C203.297 31.2557 203.184 31.4077 203.025 31.5696C202.866 31.7315 202.654 31.8693 202.39 31.983C202.125 32.0966 201.803 32.1534 201.422 32.1534ZM201.576 31.25C201.974 31.25 202.309 31.1719 202.581 31.0156C202.857 30.8594 203.064 30.6577 203.204 30.4105C203.346 30.1634 203.417 29.9034 203.417 29.6307V28.7102C203.374 28.7614 203.28 28.8082 203.135 28.8509C202.993 28.8906 202.829 28.9261 202.641 28.9574C202.456 28.9858 202.276 29.0114 202.1 29.0341C201.927 29.054 201.786 29.071 201.678 29.0852C201.417 29.1193 201.172 29.1747 200.945 29.2514C200.721 29.3253 200.539 29.4375 200.4 29.5881C200.263 29.7358 200.195 29.9375 200.195 30.1932C200.195 30.5426 200.324 30.8068 200.583 30.9858C200.844 31.1619 201.175 31.25 201.576 31.25ZM207.095 29.6136L207.078 28.3693H207.283L210.147 25.4545H211.391L208.34 28.5398H208.255L207.095 29.6136ZM206.158 32V23.2727H207.164V32H206.158ZM210.317 32L207.76 28.7614L208.476 28.0625L211.595 32H210.317ZM215.06 32.1364C214.429 32.1364 213.885 31.9972 213.428 31.7188C212.973 31.4375 212.623 31.0455 212.375 30.5426C212.131 30.0369 212.009 29.4489 212.009 28.7784C212.009 28.108 212.131 27.517 212.375 27.0057C212.623 26.4915 212.966 26.0909 213.407 25.804C213.85 25.5142 214.367 25.3693 214.958 25.3693C215.299 25.3693 215.635 25.4261 215.968 25.5398C216.3 25.6534 216.603 25.8381 216.875 26.0938C217.148 26.3466 217.365 26.6818 217.527 27.0994C217.689 27.517 217.77 28.0312 217.77 28.642V29.0682H212.725V28.1989H216.748C216.748 27.8295 216.674 27.5 216.526 27.2102C216.381 26.9205 216.174 26.6918 215.904 26.5241C215.637 26.3565 215.321 26.2727 214.958 26.2727C214.557 26.2727 214.211 26.3722 213.918 26.571C213.628 26.767 213.405 27.0227 213.249 27.3381C213.093 27.6534 213.015 27.9915 213.015 28.3523V28.9318C213.015 29.4261 213.1 29.8452 213.27 30.1889C213.444 30.5298 213.684 30.7898 213.99 30.9688C214.297 31.1449 214.654 31.233 215.06 31.233C215.324 31.233 215.563 31.196 215.776 31.1222C215.992 31.0455 216.178 30.9318 216.334 30.7812C216.49 30.6278 216.611 30.4375 216.696 30.2102L217.668 30.483C217.566 30.8125 217.394 31.1023 217.152 31.3523C216.911 31.5994 216.613 31.7926 216.258 31.9318C215.902 32.0682 215.503 32.1364 215.06 32.1364Z" fill="#9A9EA7"></path><path d="M456.555 39.4336L460 42.8789L463.445 39.4336L464.5 40.4883L460 44.9883L455.5 40.4883L456.555 39.4336Z" fill="#9A9EA7"></path><path d="M352.288 37.8182H354.7L357.021 42.2031H357.121L359.442 37.8182H361.854L358.14 44.4006V48H356.002V44.4006L352.288 37.8182ZM364.77 48.1491C363.985 48.1491 363.309 47.9901 362.742 47.6719C362.178 47.3504 361.744 46.8963 361.439 46.3097C361.134 45.7197 360.982 45.022 360.982 44.2166C360.982 43.4311 361.134 42.7417 361.439 42.1484C361.744 41.5552 362.173 41.0928 362.727 40.7614C363.284 40.4299 363.937 40.2642 364.686 40.2642C365.189 40.2642 365.658 40.3454 366.093 40.5078C366.53 40.6669 366.911 40.9072 367.236 41.2287C367.564 41.5502 367.819 41.9545 368.002 42.4418C368.184 42.9257 368.275 43.4924 368.275 44.142V44.7237H361.827V43.4112H366.282C366.282 43.1063 366.215 42.8362 366.083 42.6009C365.95 42.3655 365.766 42.1816 365.531 42.049C365.299 41.9131 365.029 41.8452 364.72 41.8452C364.399 41.8452 364.114 41.9197 363.865 42.0689C363.62 42.2147 363.428 42.4119 363.289 42.6605C363.149 42.9058 363.078 43.1792 363.075 43.4808V44.7287C363.075 45.1065 363.144 45.433 363.284 45.7081C363.426 45.9832 363.627 46.1953 363.885 46.3445C364.144 46.4936 364.45 46.5682 364.805 46.5682C365.04 46.5682 365.256 46.535 365.451 46.4688C365.647 46.4025 365.814 46.303 365.953 46.1705C366.093 46.0379 366.199 45.8755 366.272 45.6832L368.23 45.8125C368.131 46.2831 367.927 46.6941 367.619 47.0455C367.314 47.3935 366.92 47.6652 366.436 47.8608C365.955 48.053 365.4 48.1491 364.77 48.1491ZM371.735 48.1442C371.248 48.1442 370.813 48.0597 370.432 47.8906C370.051 47.7183 369.75 47.4647 369.527 47.13C369.309 46.7919 369.199 46.371 369.199 45.8672C369.199 45.4429 369.277 45.0866 369.433 44.7983C369.589 44.5099 369.801 44.2779 370.069 44.1023C370.338 43.9266 370.643 43.794 370.984 43.7045C371.329 43.6151 371.69 43.5521 372.068 43.5156C372.512 43.4692 372.87 43.4261 373.142 43.3864C373.414 43.3433 373.611 43.2803 373.733 43.1974C373.856 43.1146 373.917 42.992 373.917 42.8295V42.7997C373.917 42.4848 373.818 42.2412 373.619 42.0689C373.424 41.8965 373.145 41.8104 372.784 41.8104C372.403 41.8104 372.099 41.8949 371.874 42.0639C371.649 42.2296 371.5 42.4384 371.427 42.6903L369.468 42.5312C369.567 42.0672 369.763 41.6662 370.054 41.3281C370.346 40.9867 370.722 40.7249 371.183 40.5426C371.647 40.357 372.184 40.2642 372.794 40.2642C373.218 40.2642 373.624 40.3139 374.012 40.4134C374.403 40.5128 374.749 40.6669 375.051 40.8757C375.356 41.0845 375.596 41.353 375.772 41.6811C375.947 42.0059 376.035 42.3954 376.035 42.8494V48H374.027V46.9411H373.967C373.844 47.1797 373.68 47.3902 373.475 47.5724C373.269 47.7514 373.022 47.8923 372.734 47.995C372.446 48.0945 372.113 48.1442 371.735 48.1442ZM372.341 46.6825C372.653 46.6825 372.928 46.6212 373.167 46.4986C373.405 46.3726 373.593 46.2036 373.728 45.9915C373.864 45.7794 373.932 45.5391 373.932 45.2706V44.4602C373.866 44.5033 373.775 44.5431 373.659 44.5795C373.546 44.6127 373.419 44.6442 373.276 44.674C373.134 44.7005 372.991 44.7254 372.848 44.7486C372.706 44.7685 372.577 44.7867 372.461 44.8033C372.212 44.8397 371.995 44.8977 371.809 44.9773C371.624 45.0568 371.48 45.1645 371.377 45.3004C371.274 45.433 371.223 45.5987 371.223 45.7976C371.223 46.0859 371.327 46.3063 371.536 46.4588C371.748 46.608 372.017 46.6825 372.341 46.6825ZM377.578 48V40.3636H379.632V41.696H379.711C379.85 41.2221 380.084 40.8641 380.412 40.6222C380.74 40.3769 381.118 40.2543 381.546 40.2543C381.652 40.2543 381.766 40.2609 381.889 40.2741C382.011 40.2874 382.119 40.3056 382.212 40.3288V42.2081C382.112 42.1783 381.975 42.1518 381.799 42.1286C381.624 42.1054 381.463 42.0938 381.317 42.0938C381.005 42.0938 380.727 42.1617 380.482 42.2976C380.24 42.4302 380.048 42.6158 379.905 42.8544C379.766 43.093 379.696 43.3681 379.696 43.6797V48H377.578Z" fill="#9A9EA7"></path><path d="M620.555 39.4336L624 42.8789L627.445 39.4336L628.5 40.4883L624 44.9883L619.5 40.4883L620.555 39.4336Z" fill="#9A9EA7"></path><path d="M505.885 37.8182H508.54L511.344 44.6591H511.463L514.267 37.8182H516.922V48H514.834V41.3729H514.749L512.114 47.9503H510.692L508.058 41.348H507.973V48H505.885V37.8182ZM522.006 48.1491C521.234 48.1491 520.566 47.9851 520.002 47.657C519.442 47.3255 519.01 46.8648 518.705 46.2749C518.4 45.6816 518.247 44.9938 518.247 44.2116C518.247 43.4228 518.4 42.7334 518.705 42.1435C519.01 41.5502 519.442 41.0895 520.002 40.7614C520.566 40.4299 521.234 40.2642 522.006 40.2642C522.778 40.2642 523.444 40.4299 524.005 40.7614C524.568 41.0895 525.002 41.5502 525.307 42.1435C525.612 42.7334 525.765 43.4228 525.765 44.2116C525.765 44.9938 525.612 45.6816 525.307 46.2749C525.002 46.8648 524.568 47.3255 524.005 47.657C523.444 47.9851 522.778 48.1491 522.006 48.1491ZM522.016 46.5085C522.367 46.5085 522.661 46.4091 522.896 46.2102C523.131 46.008 523.309 45.733 523.428 45.3849C523.551 45.0369 523.612 44.6409 523.612 44.1967C523.612 43.7526 523.551 43.3565 523.428 43.0085C523.309 42.6605 523.131 42.3854 522.896 42.1832C522.661 41.9811 522.367 41.88 522.016 41.88C521.661 41.88 521.363 41.9811 521.121 42.1832C520.882 42.3854 520.702 42.6605 520.579 43.0085C520.46 43.3565 520.4 43.7526 520.4 44.1967C520.4 44.6409 520.46 45.0369 520.579 45.3849C520.702 45.733 520.882 46.008 521.121 46.2102C521.363 46.4091 521.661 46.5085 522.016 46.5085ZM529.856 48.1243C529.276 48.1243 528.75 47.9751 528.28 47.6768C527.812 47.3752 527.441 46.9328 527.166 46.3494C526.894 45.7628 526.758 45.0436 526.758 44.1918C526.758 43.3168 526.899 42.5893 527.181 42.0092C527.463 41.4259 527.837 40.9901 528.304 40.7017C528.775 40.41 529.29 40.2642 529.851 40.2642C530.278 40.2642 530.634 40.3371 530.919 40.483C531.208 40.6255 531.44 40.8045 531.616 41.0199C531.794 41.232 531.93 41.4408 532.023 41.6463H532.088V37.8182H534.201V48H532.113V46.777H532.023C531.924 46.9891 531.783 47.1996 531.601 47.4084C531.422 47.6139 531.188 47.7846 530.9 47.9205C530.615 48.0563 530.267 48.1243 529.856 48.1243ZM530.527 46.4389C530.868 46.4389 531.156 46.3461 531.392 46.1605C531.63 45.9716 531.813 45.7081 531.939 45.37C532.068 45.032 532.133 44.6359 532.133 44.1818C532.133 43.7277 532.07 43.3333 531.944 42.9986C531.818 42.6638 531.635 42.4053 531.397 42.223C531.158 42.0407 530.868 41.9496 530.527 41.9496C530.179 41.9496 529.885 42.044 529.647 42.233C529.408 42.4219 529.227 42.6837 529.105 43.0185C528.982 43.3532 528.921 43.741 528.921 44.1818C528.921 44.6259 528.982 45.0187 529.105 45.3601C529.231 45.6982 529.411 45.9633 529.647 46.1555C529.885 46.3445 530.179 46.4389 530.527 46.4389ZM539.322 48.1491C538.537 48.1491 537.861 47.9901 537.294 47.6719C536.73 47.3504 536.296 46.8963 535.991 46.3097C535.686 45.7197 535.534 45.022 535.534 44.2166C535.534 43.4311 535.686 42.7417 535.991 42.1484C536.296 41.5552 536.725 41.0928 537.279 40.7614C537.836 40.4299 538.489 40.2642 539.238 40.2642C539.741 40.2642 540.21 40.3454 540.645 40.5078C541.082 40.6669 541.463 40.9072 541.788 41.2287C542.116 41.5502 542.371 41.9545 542.554 42.4418C542.736 42.9257 542.827 43.4924 542.827 44.142V44.7237H536.379V43.4112H540.834C540.834 43.1063 540.767 42.8362 540.635 42.6009C540.502 42.3655 540.318 42.1816 540.083 42.049C539.851 41.9131 539.581 41.8452 539.272 41.8452C538.951 41.8452 538.666 41.9197 538.417 42.0689C538.172 42.2147 537.98 42.4119 537.841 42.6605C537.701 42.9058 537.63 43.1792 537.627 43.4808V44.7287C537.627 45.1065 537.696 45.433 537.836 45.7081C537.978 45.9832 538.179 46.1953 538.437 46.3445C538.696 46.4936 539.002 46.5682 539.357 46.5682C539.592 46.5682 539.808 46.535 540.003 46.4688C540.199 46.4025 540.366 46.303 540.505 46.1705C540.645 46.0379 540.751 45.8755 540.824 45.6832L542.782 45.8125C542.683 46.2831 542.479 46.6941 542.171 47.0455C541.866 47.3935 541.472 47.6652 540.988 47.8608C540.507 48.053 539.952 48.1491 539.322 48.1491ZM546.227 37.8182V48H544.109V37.8182H546.227Z" fill="#9A9EA7"></path><path d="M782.555 39.4336L786 42.8789L789.445 39.4336L790.5 40.4883L786 44.9883L781.5 40.4883L782.555 39.4336Z" fill="#9A9EA7"></path><path d="M667.885 48V37.8182H671.902C672.674 37.8182 673.332 37.9657 673.876 38.2607C674.419 38.5523 674.834 38.9583 675.119 39.4787C675.407 39.9957 675.551 40.5923 675.551 41.2685C675.551 41.9446 675.405 42.5412 675.114 43.0582C674.822 43.5753 674.399 43.978 673.846 44.2663C673.296 44.5547 672.629 44.6989 671.847 44.6989H669.287V42.9737H671.499C671.914 42.9737 672.255 42.9025 672.523 42.7599C672.795 42.6141 672.997 42.4136 673.13 42.1584C673.266 41.8999 673.334 41.6032 673.334 41.2685C673.334 40.9304 673.266 40.6354 673.13 40.3835C672.997 40.1283 672.795 39.9311 672.523 39.7919C672.252 39.6494 671.907 39.5781 671.489 39.5781H670.038V48H667.885ZM676.81 48V40.3636H678.863V41.696H678.942C679.082 41.2221 679.315 40.8641 679.643 40.6222C679.972 40.3769 680.349 40.2543 680.777 40.2543C680.883 40.2543 680.997 40.2609 681.12 40.2741C681.243 40.2874 681.35 40.3056 681.443 40.3288V42.2081C681.344 42.1783 681.206 42.1518 681.031 42.1286C680.855 42.1054 680.694 42.0938 680.548 42.0938C680.237 42.0938 679.958 42.1617 679.713 42.2976C679.471 42.4302 679.279 42.6158 679.136 42.8544C678.997 43.093 678.928 43.3681 678.928 43.6797V48H676.81ZM682.438 48V40.3636H684.556V48H682.438ZM683.502 39.3793C683.187 39.3793 682.917 39.2749 682.692 39.0661C682.47 38.8539 682.359 38.6004 682.359 38.3054C682.359 38.0137 682.47 37.7635 682.692 37.5547C682.917 37.3426 683.187 37.2365 683.502 37.2365C683.817 37.2365 684.085 37.3426 684.307 37.5547C684.533 37.7635 684.646 38.0137 684.646 38.3054C684.646 38.6004 684.533 38.8539 684.307 39.0661C684.085 39.2749 683.817 39.3793 683.502 39.3793ZM689.603 48.1491C688.821 48.1491 688.148 47.9834 687.584 47.652C687.024 47.3172 686.593 46.8532 686.292 46.2599C685.994 45.6667 685.844 44.9839 685.844 44.2116C685.844 43.4295 685.995 42.7434 686.297 42.1534C686.602 41.5601 687.034 41.0978 687.594 40.7663C688.154 40.4316 688.821 40.2642 689.593 40.2642C690.259 40.2642 690.842 40.3852 691.343 40.6271C691.843 40.8691 692.239 41.2088 692.531 41.6463C692.823 42.0838 692.984 42.5975 693.013 43.1875H691.015C690.958 42.8063 690.809 42.4998 690.567 42.2678C690.329 42.0324 690.016 41.9148 689.628 41.9148C689.3 41.9148 689.013 42.0043 688.768 42.1832C688.526 42.3589 688.337 42.6158 688.201 42.9538C688.065 43.2919 687.997 43.7012 687.997 44.1818C687.997 44.669 688.063 45.0833 688.196 45.4247C688.332 45.7661 688.522 46.0263 688.768 46.2053C689.013 46.3842 689.3 46.4737 689.628 46.4737C689.87 46.4737 690.087 46.424 690.279 46.3246C690.475 46.2251 690.635 46.081 690.761 45.892C690.891 45.6998 690.975 45.4695 691.015 45.201H693.013C692.98 45.7843 692.821 46.2981 692.536 46.7422C692.254 47.183 691.865 47.5277 691.368 47.7763C690.871 48.0249 690.282 48.1491 689.603 48.1491ZM697.75 48.1491C696.964 48.1491 696.288 47.9901 695.721 47.6719C695.158 47.3504 694.723 46.8963 694.419 46.3097C694.114 45.7197 693.961 45.022 693.961 44.2166C693.961 43.4311 694.114 42.7417 694.419 42.1484C694.723 41.5552 695.153 41.0928 695.706 40.7614C696.263 40.4299 696.916 40.2642 697.665 40.2642C698.169 40.2642 698.638 40.3454 699.072 40.5078C699.509 40.6669 699.891 40.9072 700.215 41.2287C700.544 41.5502 700.799 41.9545 700.981 42.4418C701.163 42.9257 701.254 43.4924 701.254 44.142V44.7237H694.806V43.4112H699.261C699.261 43.1063 699.195 42.8362 699.062 42.6009C698.929 42.3655 698.745 42.1816 698.51 42.049C698.278 41.9131 698.008 41.8452 697.7 41.8452C697.378 41.8452 697.093 41.9197 696.845 42.0689C696.599 42.2147 696.407 42.4119 696.268 42.6605C696.129 42.9058 696.058 43.1792 696.054 43.4808V44.7287C696.054 45.1065 696.124 45.433 696.263 45.7081C696.406 45.9832 696.606 46.1953 696.865 46.3445C697.123 46.4936 697.43 46.5682 697.784 46.5682C698.02 46.5682 698.235 46.535 698.431 46.4688C698.626 46.4025 698.794 46.303 698.933 46.1705C699.072 46.0379 699.178 45.8755 699.251 45.6832L701.21 45.8125C701.11 46.2831 700.906 46.6941 700.598 47.0455C700.293 47.3935 699.899 47.6652 699.415 47.8608C698.934 48.053 698.379 48.1491 697.75 48.1491Z" fill="#9A9EA7"></path><path d="M167.5 26V58" stroke="#EDE8E9" stroke-linecap="square"></path><path d="M331.5 26V58" stroke="#EDE8E9" stroke-linecap="square"></path><path d="M483.5 26V58" stroke="#EDE8E9" stroke-linecap="square"></path><path d="M648.5 26V58" stroke="#EDE8E9" stroke-linecap="square"></path><defs><filter id="filter0_d_2_94" x="0" y="0" width="953" height="90" filterUnits="userSpaceOnUse" color-interpolation-filters="sRGB"><feGaussianBlur stdDeviation="2"></feGaussianBlur></filter></defs></svg>