<svg xmlns="http://www.w3.org/2000/svg" width="1906" height="814" viewBox="0 0 1906 814" fill="none"><path d="M976 36C976 16.1178 992.118 0 1012 0H1906V800H1012C992.118 800 976 783.882 976 764V36Z" fill="#004225"></path><path d="M1076.92 238H1081.75V255.16H1091.56V259H1076.92V238ZM1094.03 238H1108.4V241.84H1098.86V246.07H1107.38V249.91H1098.86V255.16H1108.4V259H1094.03V238ZM1122.71 255.88H1115.81L1114.88 259H1109.84L1117.16 238H1121.36L1128.68 259H1123.64L1122.71 255.88ZM1121.54 252.04L1119.26 244.48L1116.98 252.04H1121.54ZM1131.03 238H1138.74C1143.56 238 1145.97 239.98 1145.97 243.94C1145.97 245.3 1145.69 246.47 1145.13 247.45C1144.59 248.43 1143.8 249.16 1142.76 249.64V249.7C1143.12 249.96 1143.4 250.21 1143.6 250.45C1143.8 250.69 1143.96 250.95 1144.08 251.23L1147.14 259H1142.04L1139.7 252.73C1139.48 252.17 1139.19 251.8 1138.83 251.62C1138.49 251.44 1137.87 251.35 1136.97 251.35H1135.86V259H1131.03V238ZM1138.2 247.54C1139.18 247.54 1139.93 247.29 1140.45 246.79C1140.99 246.27 1141.26 245.53 1141.26 244.57C1141.26 242.75 1140.22 241.84 1138.14 241.84H1135.86V247.54H1138.2ZM1166.33 238V259H1161.95L1153.85 246.13V259H1149.05V238H1153.64L1161.53 250.63V238H1166.33ZM1197.91 238V259H1193.14V247.9L1189.21 259H1185.79L1181.86 247.9V259H1177.09V238H1182.07L1187.5 253.81L1192.93 238H1197.91ZM1210.33 259.3C1208.33 259.3 1206.61 258.87 1205.17 258.01C1203.73 257.15 1202.63 255.91 1201.87 254.29C1201.11 252.67 1200.73 250.74 1200.73 248.5C1200.73 246.26 1201.11 244.33 1201.87 242.71C1202.63 241.09 1203.73 239.85 1205.17 238.99C1206.61 238.13 1208.33 237.7 1210.33 237.7C1212.33 237.7 1214.05 238.13 1215.49 238.99C1216.93 239.85 1218.03 241.09 1218.79 242.71C1219.55 244.33 1219.93 246.26 1219.93 248.5C1219.93 250.74 1219.55 252.67 1218.79 254.29C1218.03 255.91 1216.93 257.15 1215.49 258.01C1214.05 258.87 1212.33 259.3 1210.33 259.3ZM1210.33 255.49C1211.81 255.49 1212.97 254.87 1213.81 253.63C1214.67 252.39 1215.1 250.68 1215.1 248.5C1215.1 246.32 1214.67 244.61 1213.81 243.37C1212.97 242.13 1211.81 241.51 1210.33 241.51C1208.85 241.51 1207.68 242.13 1206.82 243.37C1205.98 244.61 1205.56 246.32 1205.56 248.5C1205.56 250.68 1205.98 252.39 1206.82 253.63C1207.68 254.87 1208.85 255.49 1210.33 255.49ZM1222.76 238H1230.47C1235.29 238 1237.7 239.98 1237.7 243.94C1237.7 245.3 1237.42 246.47 1236.86 247.45C1236.32 248.43 1235.53 249.16 1234.49 249.64V249.7C1234.85 249.96 1235.13 250.21 1235.33 250.45C1235.53 250.69 1235.69 250.95 1235.81 251.23L1238.87 259H1233.77L1231.43 252.73C1231.21 252.17 1230.92 251.8 1230.56 251.62C1230.22 251.44 1229.6 251.35 1228.7 251.35H1227.59V259H1222.76V238ZM1229.93 247.54C1230.91 247.54 1231.66 247.29 1232.18 246.79C1232.72 246.27 1232.99 245.53 1232.99 244.57C1232.99 242.75 1231.95 241.84 1229.87 241.84H1227.59V247.54H1229.93ZM1240.78 238H1255.15V241.84H1245.61V246.07H1254.13V249.91H1245.61V255.16H1255.15V259H1240.78V238Z" fill="#BF9D3E"></path><path d="M1075 262H1256.17V263.5H1075V262Z" fill="#BF9D3E"></path><path d="M1067.88 58L1053.18 100H1044.54L1029.84 58H1039.92L1048.86 87.7L1057.8 58H1067.88ZM1072.57 58H1101.31V65.68H1082.23V74.14H1099.27V81.82H1082.23V92.32H1101.31V100H1072.57V58ZM1107.2 58H1116.86V74.74H1131.68V58H1141.34V100H1131.68V82.42H1116.86V100H1107.2V58ZM1150.35 58H1160.01V100H1150.35V58ZM1186.83 100.6C1182.83 100.6 1179.33 99.72 1176.33 97.96C1173.33 96.2 1171.01 93.7 1169.37 90.46C1167.77 87.18 1166.97 83.36 1166.97 79C1166.97 74.64 1167.77 70.84 1169.37 67.6C1171.01 64.32 1173.33 61.8 1176.33 60.04C1179.33 58.28 1182.83 57.4 1186.83 57.4C1190.35 57.4 1193.39 58.08 1195.95 59.44C1198.51 60.76 1200.39 62.64 1201.59 65.08L1196.07 69.82C1193.99 66.66 1190.95 65.08 1186.95 65.08C1183.55 65.08 1180.97 66.26 1179.21 68.62C1177.49 70.94 1176.63 74.4 1176.63 79C1176.63 83.56 1177.49 87.02 1179.21 89.38C1180.93 91.74 1183.45 92.92 1186.77 92.92C1190.97 92.92 1194.07 91.34 1196.07 88.18L1201.59 92.92C1200.39 95.36 1198.51 97.26 1195.95 98.62C1193.39 99.94 1190.35 100.6 1186.83 100.6ZM1206.86 58H1216.52V92.32H1236.14V100H1206.86V58ZM1241.08 58H1269.82V65.68H1250.74V74.14H1267.78V81.82H1250.74V92.32H1269.82V100H1241.08V58ZM1288.55 100.6C1285.27 100.6 1282.31 99.94 1279.67 98.62C1277.07 97.3 1274.95 95.38 1273.31 92.86L1278.89 87.58C1280.21 89.14 1281.79 90.42 1283.63 91.42C1285.51 92.42 1287.25 92.92 1288.85 92.92C1290.53 92.92 1291.87 92.56 1292.87 91.84C1293.87 91.12 1294.37 90.18 1294.37 89.02C1294.37 88.1 1294.21 87.38 1293.89 86.86C1293.61 86.34 1292.99 85.8 1292.03 85.24C1291.11 84.64 1289.51 83.76 1287.23 82.6C1284.19 81.08 1281.81 79.68 1280.09 78.4C1278.37 77.12 1277.07 75.72 1276.19 74.2C1275.35 72.64 1274.93 70.8 1274.93 68.68C1274.93 66.48 1275.53 64.52 1276.73 62.8C1277.93 61.08 1279.61 59.76 1281.77 58.84C1283.97 57.88 1286.49 57.4 1289.33 57.4C1292.49 57.4 1295.25 57.98 1297.61 59.14C1300.01 60.3 1301.77 61.92 1302.89 64L1296.83 68.56C1294.87 66.24 1292.53 65.08 1289.81 65.08C1288.13 65.08 1286.83 65.4 1285.91 66.04C1285.03 66.64 1284.59 67.5 1284.59 68.62C1284.59 69.34 1284.85 70 1285.37 70.6C1285.89 71.2 1286.79 71.88 1288.07 72.64C1289.39 73.36 1291.35 74.32 1293.95 75.52C1296.47 76.68 1298.45 77.86 1299.89 79.06C1301.33 80.22 1302.35 81.56 1302.95 83.08C1303.59 84.56 1303.91 86.36 1303.91 88.48C1303.91 90.92 1303.27 93.06 1301.99 94.9C1300.75 96.7 1298.97 98.1 1296.65 99.1C1294.33 100.1 1291.63 100.6 1288.55 100.6Z" fill="#BF9D3E"></path><path d="M1030.15 137.4H1033.05V147.696H1038.94V150H1030.15V137.4ZM1041.8 140.136C1041.32 140.136 1040.93 140.004 1040.63 139.74C1040.35 139.476 1040.2 139.122 1040.2 138.678C1040.2 138.234 1040.35 137.88 1040.63 137.616C1040.93 137.352 1041.32 137.22 1041.8 137.22C1042.28 137.22 1042.67 137.352 1042.96 137.616C1043.26 137.88 1043.41 138.234 1043.41 138.678C1043.41 139.122 1043.26 139.476 1042.96 139.74C1042.67 140.004 1042.28 140.136 1041.8 140.136ZM1040.53 141H1043.08V150H1040.53V141ZM1048.2 150.18C1047.38 150.18 1046.67 150.018 1046.06 149.694C1045.44 149.37 1045.02 148.938 1044.78 148.398L1046.36 147.318C1046.58 147.618 1046.85 147.858 1047.17 148.038C1047.5 148.206 1047.83 148.29 1048.16 148.29C1048.53 148.29 1048.84 148.2 1049.08 148.02C1049.32 147.84 1049.44 147.612 1049.44 147.336C1049.44 147.192 1049.4 147.078 1049.33 146.994C1049.27 146.898 1049.15 146.802 1048.95 146.706C1048.76 146.61 1048.46 146.478 1048.04 146.31C1046.91 145.866 1046.12 145.428 1045.66 144.996C1045.22 144.552 1044.99 144.006 1044.99 143.358C1044.99 142.59 1045.31 141.978 1045.93 141.522C1046.55 141.054 1047.38 140.82 1048.41 140.82C1049.12 140.82 1049.75 140.952 1050.3 141.216C1050.87 141.468 1051.33 141.84 1051.69 142.332L1050.21 143.43C1049.81 142.95 1049.25 142.71 1048.54 142.71C1048.22 142.71 1047.96 142.764 1047.78 142.872C1047.62 142.98 1047.53 143.13 1047.53 143.322C1047.53 143.466 1047.57 143.586 1047.64 143.682C1047.71 143.766 1047.86 143.868 1048.07 143.988C1048.3 144.096 1048.68 144.252 1049.21 144.456C1049.95 144.744 1050.52 145.02 1050.92 145.284C1051.31 145.548 1051.59 145.83 1051.74 146.13C1051.91 146.418 1052 146.778 1052 147.21C1052 147.798 1051.83 148.32 1051.51 148.776C1051.2 149.22 1050.75 149.568 1050.18 149.82C1049.6 150.06 1048.94 150.18 1048.2 150.18ZM1057.36 150.18C1056.39 150.18 1055.64 149.928 1055.1 149.424C1054.57 148.92 1054.3 148.212 1054.3 147.3V142.89H1052.67V141H1054.3V138.714L1056.79 137.994H1056.86V141H1059.49V142.89H1056.86V146.904C1056.86 147.384 1056.98 147.738 1057.22 147.966C1057.46 148.182 1057.83 148.29 1058.34 148.29C1058.82 148.29 1059.26 148.212 1059.67 148.056L1059.78 149.784C1059.18 150.048 1058.37 150.18 1057.36 150.18ZM1073.47 141L1069.98 150.504C1069.63 151.452 1069.12 152.172 1068.45 152.664C1067.79 153.156 1067 153.402 1066.08 153.402C1065.58 153.402 1065.04 153.324 1064.46 153.168V151.134C1064.6 151.182 1064.79 151.224 1065.03 151.26C1065.27 151.308 1065.49 151.332 1065.68 151.332C1066.17 151.332 1066.6 151.164 1066.96 150.828C1067.33 150.492 1067.65 149.97 1067.91 149.262L1064.56 141H1067.26L1069.12 146.382L1070.77 141H1073.47ZM1078.82 150.18C1077.33 150.18 1076.16 149.766 1075.32 148.938C1074.5 148.11 1074.08 146.964 1074.08 145.5C1074.08 144.036 1074.5 142.89 1075.32 142.062C1076.16 141.234 1077.33 140.82 1078.82 140.82C1080.3 140.82 1081.46 141.234 1082.29 142.062C1083.13 142.89 1083.55 144.036 1083.55 145.5C1083.55 146.964 1083.13 148.11 1082.29 148.938C1081.46 149.766 1080.3 150.18 1078.82 150.18ZM1078.82 148.29C1079.5 148.29 1080.03 148.044 1080.42 147.552C1080.8 147.06 1080.99 146.376 1080.99 145.5C1080.99 144.624 1080.8 143.94 1080.42 143.448C1080.03 142.956 1079.5 142.71 1078.82 142.71C1078.13 142.71 1077.6 142.956 1077.21 143.448C1076.83 143.94 1076.64 144.624 1076.64 145.5C1076.64 146.376 1076.83 147.06 1077.21 147.552C1077.6 148.044 1078.13 148.29 1078.82 148.29ZM1088.01 150.18C1086.98 150.18 1086.2 149.832 1085.67 149.136C1085.15 148.44 1084.88 147.408 1084.88 146.04V141H1087.44V146.058C1087.44 146.778 1087.55 147.3 1087.78 147.624C1088.01 147.948 1088.37 148.11 1088.86 148.11C1089.45 148.11 1089.93 147.882 1090.3 147.426C1090.68 146.97 1090.88 146.406 1090.88 145.734V141H1093.43V147.588C1093.43 148.236 1093.48 149.04 1093.58 150H1091.13C1091.03 149.352 1090.98 148.83 1090.98 148.434H1090.95C1090.74 148.962 1090.37 149.388 1089.83 149.712C1089.3 150.024 1088.7 150.18 1088.01 150.18ZM1095.15 143.196C1095.15 142.176 1095.13 141.444 1095.1 141H1097.53C1097.57 141.468 1097.6 141.996 1097.6 142.584V142.764H1097.67C1097.9 142.176 1098.31 141.708 1098.89 141.36C1099.49 141 1100.18 140.82 1100.95 140.82C1101.1 140.82 1101.29 140.838 1101.5 140.874V142.872C1101.48 142.86 1101.36 142.854 1101.14 142.854C1100.53 142.854 1099.96 143.01 1099.43 143.322C1098.91 143.634 1098.49 144.048 1098.17 144.564C1097.86 145.08 1097.71 145.638 1097.71 146.238V150H1095.15V143.196ZM1110.86 150.18C1109.43 150.18 1108.31 149.766 1107.49 148.938C1106.69 148.098 1106.28 146.952 1106.28 145.5C1106.28 144.048 1106.69 142.908 1107.49 142.08C1108.31 141.24 1109.43 140.82 1110.86 140.82C1111.72 140.82 1112.47 140.982 1113.11 141.306C1113.75 141.618 1114.24 142.068 1114.56 142.656L1113.03 143.988C1112.81 143.604 1112.51 143.304 1112.15 143.088C1111.79 142.872 1111.4 142.764 1110.98 142.764C1110.31 142.764 1109.78 143.01 1109.4 143.502C1109.01 143.982 1108.82 144.648 1108.82 145.5C1108.82 146.352 1109.01 147.024 1109.4 147.516C1109.78 147.996 1110.31 148.236 1110.98 148.236C1111.4 148.236 1111.79 148.128 1112.15 147.912C1112.51 147.696 1112.81 147.396 1113.03 147.012L1114.56 148.344C1114.24 148.932 1113.75 149.388 1113.11 149.712C1112.47 150.024 1111.72 150.18 1110.86 150.18ZM1118.36 150.18C1117.77 150.18 1117.25 150.054 1116.78 149.802C1116.31 149.55 1115.94 149.208 1115.68 148.776C1115.42 148.332 1115.28 147.834 1115.28 147.282C1115.28 146.358 1115.66 145.65 1116.4 145.158C1117.14 144.666 1118.21 144.42 1119.6 144.42H1120.86V144.06C1120.86 143.652 1120.73 143.334 1120.47 143.106C1120.2 142.878 1119.84 142.764 1119.39 142.764C1118.85 142.764 1118.33 142.854 1117.82 143.034C1117.33 143.214 1116.92 143.46 1116.6 143.772L1115.5 142.314C1116.02 141.858 1116.62 141.498 1117.32 141.234C1118.03 140.958 1118.74 140.82 1119.46 140.82C1120.68 140.82 1121.65 141.108 1122.36 141.684C1123.07 142.248 1123.42 143.022 1123.42 144.006V148.056C1123.42 148.344 1123.44 148.686 1123.49 149.082C1123.54 149.478 1123.59 149.784 1123.65 150H1121.37C1121.3 149.832 1121.24 149.682 1121.21 149.55C1121.17 149.418 1121.14 149.232 1121.12 148.992H1121.08C1120.41 149.784 1119.5 150.18 1118.36 150.18ZM1119.05 148.29C1119.57 148.29 1120.01 148.158 1120.34 147.894C1120.69 147.618 1120.86 147.27 1120.86 146.85V146.094H1119.53C1118.97 146.094 1118.54 146.196 1118.24 146.4C1117.94 146.604 1117.79 146.898 1117.79 147.282C1117.79 147.606 1117.89 147.858 1118.11 148.038C1118.33 148.206 1118.64 148.29 1119.05 148.29ZM1125.31 143.196C1125.31 142.176 1125.3 141.444 1125.26 141H1127.69C1127.74 141.468 1127.76 141.996 1127.76 142.584V142.764H1127.83C1128.06 142.176 1128.47 141.708 1129.06 141.36C1129.66 141 1130.34 140.82 1131.11 140.82C1131.27 140.82 1131.45 140.838 1131.67 140.874V142.872C1131.64 142.86 1131.52 142.854 1131.31 142.854C1130.7 142.854 1130.13 143.01 1129.6 143.322C1129.07 143.634 1128.65 144.048 1128.34 144.564C1128.03 145.08 1127.87 145.638 1127.87 146.238V150H1125.31V143.196ZM1140.93 150.18C1139.96 150.18 1139.2 149.928 1138.66 149.424C1138.13 148.92 1137.87 148.212 1137.87 147.3V142.89H1136.23V141H1137.87V138.714L1140.35 137.994H1140.43V141H1143.05V142.89H1140.43V146.904C1140.43 147.384 1140.55 147.738 1140.79 147.966C1141.03 148.182 1141.4 148.29 1141.9 148.29C1142.38 148.29 1142.83 148.212 1143.23 148.056L1143.34 149.784C1142.74 150.048 1141.94 150.18 1140.93 150.18ZM1148.53 150.18C1147.04 150.18 1145.88 149.766 1145.04 148.938C1144.21 148.11 1143.8 146.964 1143.8 145.5C1143.8 144.036 1144.21 142.89 1145.04 142.062C1145.88 141.234 1147.04 140.82 1148.53 140.82C1150.02 140.82 1151.18 141.234 1152.01 142.062C1152.85 142.89 1153.27 144.036 1153.27 145.5C1153.27 146.964 1152.85 148.11 1152.01 148.938C1151.18 149.766 1150.02 150.18 1148.53 150.18ZM1148.53 148.29C1149.22 148.29 1149.75 148.044 1150.13 147.552C1150.52 147.06 1150.71 146.376 1150.71 145.5C1150.71 144.624 1150.52 143.94 1150.13 143.448C1149.75 142.956 1149.22 142.71 1148.53 142.71C1147.85 142.71 1147.31 142.956 1146.93 143.448C1146.55 143.94 1146.35 144.624 1146.35 145.5C1146.35 146.376 1146.55 147.06 1146.93 147.552C1147.31 148.044 1147.85 148.29 1148.53 148.29ZM1158.05 150.18C1156.86 150.18 1155.93 149.754 1155.26 148.902C1154.59 148.05 1154.25 146.868 1154.25 145.356C1154.25 144.444 1154.41 143.646 1154.72 142.962C1155.03 142.278 1155.48 141.75 1156.05 141.378C1156.64 141.006 1157.33 140.82 1158.11 140.82C1158.63 140.82 1159.08 140.904 1159.46 141.072C1159.84 141.228 1160.18 141.48 1160.48 141.828H1160.52V136.644H1163.07V147.57C1163.07 148.866 1163.09 149.676 1163.13 150H1160.72C1160.7 149.82 1160.7 149.448 1160.7 148.884H1160.66C1160.39 149.268 1160.01 149.58 1159.53 149.82C1159.06 150.06 1158.57 150.18 1158.05 150.18ZM1158.57 148.236C1159.16 148.236 1159.63 148.074 1159.98 147.75C1160.34 147.414 1160.52 146.97 1160.52 146.418V144.492C1160.52 144 1160.33 143.58 1159.96 143.232C1159.59 142.884 1159.13 142.71 1158.57 142.71C1157.99 142.71 1157.54 142.938 1157.24 143.394C1156.94 143.85 1156.79 144.516 1156.79 145.392C1156.79 146.316 1156.94 147.024 1157.24 147.516C1157.54 147.996 1157.99 148.236 1158.57 148.236ZM1167.51 150.18C1166.92 150.18 1166.4 150.054 1165.93 149.802C1165.46 149.55 1165.09 149.208 1164.83 148.776C1164.57 148.332 1164.43 147.834 1164.43 147.282C1164.43 146.358 1164.81 145.65 1165.55 145.158C1166.29 144.666 1167.36 144.42 1168.75 144.42H1170.01V144.06C1170.01 143.652 1169.88 143.334 1169.62 143.106C1169.35 142.878 1168.99 142.764 1168.54 142.764C1168 142.764 1167.48 142.854 1166.97 143.034C1166.48 143.214 1166.07 143.46 1165.75 143.772L1164.65 142.314C1165.17 141.858 1165.77 141.498 1166.47 141.234C1167.18 140.958 1167.89 140.82 1168.61 140.82C1169.83 140.82 1170.8 141.108 1171.51 141.684C1172.22 142.248 1172.57 143.022 1172.57 144.006V148.056C1172.57 148.344 1172.59 148.686 1172.64 149.082C1172.69 149.478 1172.74 149.784 1172.8 150H1170.52C1170.45 149.832 1170.39 149.682 1170.36 149.55C1170.32 149.418 1170.29 149.232 1170.27 148.992H1170.23C1169.56 149.784 1168.65 150.18 1167.51 150.18ZM1168.2 148.29C1168.72 148.29 1169.16 148.158 1169.49 147.894C1169.84 147.618 1170.01 147.27 1170.01 146.85V146.094H1168.68C1168.12 146.094 1167.69 146.196 1167.39 146.4C1167.09 146.604 1166.94 146.898 1166.94 147.282C1166.94 147.606 1167.04 147.858 1167.26 148.038C1167.48 148.206 1167.79 148.29 1168.2 148.29ZM1182.65 141L1179.16 150.504C1178.81 151.452 1178.3 152.172 1177.63 152.664C1176.97 153.156 1176.18 153.402 1175.25 153.402C1174.76 153.402 1174.22 153.324 1173.63 153.168V151.134C1173.78 151.182 1173.97 151.224 1174.21 151.26C1174.45 151.308 1174.67 151.332 1174.86 151.332C1175.35 151.332 1175.78 151.164 1176.14 150.828C1176.51 150.492 1176.83 149.97 1177.09 149.262L1173.74 141H1176.44L1178.3 146.382L1179.95 141H1182.65ZM1184.93 146.994C1185.47 146.994 1185.91 147.186 1186.24 147.57C1186.58 147.942 1186.75 148.434 1186.75 149.046C1186.75 149.826 1186.51 150.636 1186.05 151.476C1185.58 152.328 1184.97 153.018 1184.23 153.546L1183.08 152.232C1183.38 152.004 1183.65 151.704 1183.9 151.332C1184.17 150.972 1184.37 150.582 1184.52 150.162C1184.48 150.174 1184.43 150.18 1184.35 150.18C1184.01 150.18 1183.71 150.048 1183.45 149.784C1183.21 149.508 1183.09 149.154 1183.09 148.722C1183.09 148.206 1183.26 147.792 1183.6 147.48C1183.95 147.156 1184.39 146.994 1184.93 146.994ZM1204.5 141L1202.18 150H1199.95L1198.27 143.772L1196.6 150H1194.37L1192.04 141H1194.69L1195.72 146.13L1197.16 141H1199.39L1200.83 146.13L1201.85 141H1204.5ZM1214.11 146.436H1207.91C1208.02 146.976 1208.24 147.378 1208.58 147.642C1208.93 147.906 1209.4 148.038 1209.98 148.038C1210.5 148.038 1210.95 147.954 1211.33 147.786C1211.72 147.618 1212.1 147.33 1212.49 146.922L1213.85 148.218C1213.51 148.806 1212.96 149.28 1212.22 149.64C1211.48 150 1210.69 150.18 1209.82 150.18C1208.41 150.18 1207.3 149.772 1206.49 148.956C1205.69 148.128 1205.29 146.988 1205.29 145.536C1205.29 144.072 1205.69 142.92 1206.49 142.08C1207.3 141.24 1208.4 140.82 1209.8 140.82C1211.15 140.82 1212.2 141.24 1212.95 142.08C1213.72 142.908 1214.11 144.054 1214.11 145.518V146.436ZM1211.59 144.618C1211.59 144.09 1211.42 143.676 1211.1 143.376C1210.78 143.064 1210.33 142.908 1209.77 142.908C1209.26 142.908 1208.85 143.07 1208.53 143.394C1208.2 143.706 1207.99 144.15 1207.88 144.726H1211.59V144.618ZM1223.72 150.18C1222.75 150.18 1222 149.928 1221.46 149.424C1220.93 148.92 1220.66 148.212 1220.66 147.3V142.89H1219.03V141H1220.66V138.714L1223.15 137.994H1223.22V141H1225.85V142.89H1223.22V146.904C1223.22 147.384 1223.34 147.738 1223.58 147.966C1223.82 148.182 1224.19 148.29 1224.7 148.29C1225.18 148.29 1225.62 148.212 1226.03 148.056L1226.14 149.784C1225.54 150.048 1224.73 150.18 1223.72 150.18ZM1230.16 150.18C1229.57 150.18 1229.04 150.054 1228.58 149.802C1228.11 149.55 1227.74 149.208 1227.48 148.776C1227.21 148.332 1227.08 147.834 1227.08 147.282C1227.08 146.358 1227.45 145.65 1228.2 145.158C1228.94 144.666 1230.01 144.42 1231.4 144.42H1232.66V144.06C1232.66 143.652 1232.53 143.334 1232.27 143.106C1232 142.878 1231.64 142.764 1231.19 142.764C1230.65 142.764 1230.12 142.854 1229.62 143.034C1229.13 143.214 1228.72 143.46 1228.4 143.772L1227.3 142.314C1227.81 141.858 1228.42 141.498 1229.12 141.234C1229.82 140.958 1230.54 140.82 1231.26 140.82C1232.48 140.82 1233.45 141.108 1234.16 141.684C1234.86 142.248 1235.22 143.022 1235.22 144.006V148.056C1235.22 148.344 1235.24 148.686 1235.29 149.082C1235.34 149.478 1235.39 149.784 1235.45 150H1233.17C1233.09 149.832 1233.04 149.682 1233 149.55C1232.97 149.418 1232.94 149.232 1232.91 148.992H1232.88C1232.21 149.784 1231.3 150.18 1230.16 150.18ZM1230.84 148.29C1231.37 148.29 1231.8 148.158 1232.14 147.894C1232.49 147.618 1232.66 147.27 1232.66 146.85V146.094H1231.33C1230.77 146.094 1230.33 146.196 1230.03 146.4C1229.73 146.604 1229.58 146.898 1229.58 147.282C1229.58 147.606 1229.69 147.858 1229.91 148.038C1230.12 148.206 1230.44 148.29 1230.84 148.29ZM1243.16 150L1240.6 145.914L1239.59 146.886V150H1237.04V136.644H1239.59V143.826L1242.51 141H1245.68L1242.38 144.186L1246.04 150H1243.16ZM1255.08 146.436H1248.89C1249 146.976 1249.22 147.378 1249.55 147.642C1249.9 147.906 1250.37 148.038 1250.96 148.038C1251.47 148.038 1251.92 147.954 1252.31 147.786C1252.69 147.618 1253.08 147.33 1253.46 146.922L1254.83 148.218C1254.48 148.806 1253.93 149.28 1253.19 149.64C1252.46 150 1251.66 150.18 1250.8 150.18C1249.38 150.18 1248.27 149.772 1247.47 148.956C1246.66 148.128 1246.26 146.988 1246.26 145.536C1246.26 144.072 1246.66 142.92 1247.47 142.08C1248.27 141.24 1249.37 140.82 1250.78 140.82C1252.12 140.82 1253.17 141.24 1253.93 142.08C1254.7 142.908 1255.08 144.054 1255.08 145.518V146.436ZM1252.56 144.618C1252.56 144.09 1252.4 143.676 1252.07 143.376C1251.75 143.064 1251.31 142.908 1250.74 142.908C1250.24 142.908 1249.82 143.07 1249.5 143.394C1249.18 143.706 1248.96 144.15 1248.85 144.726H1252.56V144.618ZM1263.33 150.18C1262.74 150.18 1262.21 150.054 1261.75 149.802C1261.28 149.55 1260.91 149.208 1260.65 148.776C1260.38 148.332 1260.25 147.834 1260.25 147.282C1260.25 146.358 1260.62 145.65 1261.37 145.158C1262.11 144.666 1263.18 144.42 1264.57 144.42H1265.83V144.06C1265.83 143.652 1265.7 143.334 1265.44 143.106C1265.17 142.878 1264.81 142.764 1264.36 142.764C1263.82 142.764 1263.29 142.854 1262.79 143.034C1262.3 143.214 1261.89 143.46 1261.57 143.772L1260.47 142.314C1260.98 141.858 1261.59 141.498 1262.29 141.234C1262.99 140.958 1263.71 140.82 1264.43 140.82C1265.65 140.82 1266.62 141.108 1267.33 141.684C1268.03 142.248 1268.39 143.022 1268.39 144.006V148.056C1268.39 148.344 1268.41 148.686 1268.46 149.082C1268.51 149.478 1268.56 149.784 1268.62 150H1266.34C1266.26 149.832 1266.21 149.682 1266.17 149.55C1266.14 149.418 1266.11 149.232 1266.08 148.992H1266.05C1265.38 149.784 1264.47 150.18 1263.33 150.18ZM1264.01 148.29C1264.54 148.29 1264.97 148.158 1265.31 147.894C1265.66 147.618 1265.83 147.27 1265.83 146.85V146.094H1264.5C1263.94 146.094 1263.5 146.196 1263.2 146.4C1262.9 146.604 1262.75 146.898 1262.75 147.282C1262.75 147.606 1262.86 147.858 1263.08 148.038C1263.29 148.206 1263.61 148.29 1264.01 148.29ZM1270.15 143.412C1270.15 142.344 1270.13 141.54 1270.08 141H1272.48C1272.55 141.552 1272.58 142.074 1272.58 142.566H1272.62C1272.82 142.05 1273.2 141.63 1273.74 141.306C1274.29 140.982 1274.9 140.82 1275.57 140.82C1276.6 140.82 1277.38 141.168 1277.91 141.864C1278.44 142.56 1278.7 143.592 1278.7 144.96V150H1276.15V144.942C1276.15 144.222 1276.03 143.7 1275.81 143.376C1275.58 143.052 1275.21 142.89 1274.71 142.89C1274.11 142.89 1273.62 143.094 1273.25 143.502C1272.89 143.898 1272.71 144.426 1272.71 145.086V150H1270.15V143.412ZM1288.7 141L1285.21 150.504C1284.86 151.452 1284.35 152.172 1283.68 152.664C1283.02 153.156 1282.23 153.402 1281.3 153.402C1280.81 153.402 1280.27 153.324 1279.68 153.168V151.134C1279.83 151.182 1280.02 151.224 1280.26 151.26C1280.5 151.308 1280.72 151.332 1280.91 151.332C1281.4 151.332 1281.83 151.164 1282.19 150.828C1282.56 150.492 1282.88 149.97 1283.14 149.262L1279.79 141H1282.49L1284.35 146.382L1286 141H1288.7ZM1302.63 141L1299.09 150H1296.89L1293.35 141H1295.97L1297.99 146.85L1300.01 141H1302.63ZM1311.89 146.436H1305.7C1305.81 146.976 1306.03 147.378 1306.37 147.642C1306.72 147.906 1307.18 148.038 1307.77 148.038C1308.29 148.038 1308.74 147.954 1309.12 147.786C1309.51 147.618 1309.89 147.33 1310.27 146.922L1311.64 148.218C1311.29 148.806 1310.75 149.28 1310 149.64C1309.27 150 1308.47 150.18 1307.61 150.18C1306.19 150.18 1305.08 149.772 1304.28 148.956C1303.48 148.128 1303.07 146.988 1303.07 145.536C1303.07 144.072 1303.48 142.92 1304.28 142.08C1305.08 141.24 1306.19 140.82 1307.59 140.82C1308.94 140.82 1309.99 141.24 1310.74 142.08C1311.51 142.908 1311.89 144.054 1311.89 145.518V146.436ZM1309.37 144.618C1309.37 144.09 1309.21 143.676 1308.89 143.376C1308.56 143.064 1308.12 142.908 1307.56 142.908C1307.05 142.908 1306.64 143.07 1306.31 143.394C1305.99 143.706 1305.77 144.15 1305.67 144.726H1309.37V144.618ZM1313.22 136.644H1315.78V141.954C1316.05 141.606 1316.43 141.33 1316.91 141.126C1317.4 140.922 1317.93 140.82 1318.5 140.82C1319.16 140.82 1319.74 140.97 1320.26 141.27C1320.78 141.558 1321.18 141.984 1321.47 142.548C1321.75 143.1 1321.9 143.754 1321.9 144.51V150H1319.34V144.744C1319.34 144.12 1319.2 143.628 1318.91 143.268C1318.63 142.896 1318.25 142.71 1317.76 142.71C1317.15 142.71 1316.66 142.926 1316.3 143.358C1315.95 143.778 1315.78 144.36 1315.78 145.104V150H1313.22V136.644ZM1325.23 140.136C1324.75 140.136 1324.36 140.004 1324.06 139.74C1323.78 139.476 1323.63 139.122 1323.63 138.678C1323.63 138.234 1323.78 137.88 1324.06 137.616C1324.36 137.352 1324.75 137.22 1325.23 137.22C1325.71 137.22 1326.1 137.352 1326.39 137.616C1326.69 137.88 1326.84 138.234 1326.84 138.678C1326.84 139.122 1326.69 139.476 1326.39 139.74C1326.1 140.004 1325.71 140.136 1325.23 140.136ZM1323.96 141H1326.51V150H1323.96V141ZM1332.8 150.18C1331.37 150.18 1330.25 149.766 1329.43 148.938C1328.63 148.098 1328.23 146.952 1328.23 145.5C1328.23 144.048 1328.63 142.908 1329.43 142.08C1330.25 141.24 1331.37 140.82 1332.8 140.82C1333.66 140.82 1334.41 140.982 1335.05 141.306C1335.7 141.618 1336.18 142.068 1336.51 142.656L1334.98 143.988C1334.75 143.604 1334.45 143.304 1334.09 143.088C1333.73 142.872 1333.34 142.764 1332.92 142.764C1332.25 142.764 1331.72 143.01 1331.34 143.502C1330.96 143.982 1330.76 144.648 1330.76 145.5C1330.76 146.352 1330.96 147.024 1331.34 147.516C1331.72 147.996 1332.25 148.236 1332.92 148.236C1333.34 148.236 1333.73 148.128 1334.09 147.912C1334.45 147.696 1334.75 147.396 1334.98 147.012L1336.51 148.344C1336.18 148.932 1335.7 149.388 1335.05 149.712C1334.41 150.024 1333.66 150.18 1332.8 150.18ZM1340.18 150.18C1339.37 150.18 1338.76 149.97 1338.32 149.55C1337.89 149.13 1337.68 148.524 1337.68 147.732V136.644H1340.23V147.786C1340.23 148.218 1340.5 148.434 1341.02 148.434C1341.32 148.434 1341.68 148.35 1342.09 148.182L1342.46 149.514C1341.89 149.958 1341.13 150.18 1340.18 150.18ZM1351.02 146.436H1344.83C1344.94 146.976 1345.16 147.378 1345.5 147.642C1345.84 147.906 1346.31 148.038 1346.9 148.038C1347.42 148.038 1347.87 147.954 1348.25 147.786C1348.63 147.618 1349.02 147.33 1349.4 146.922L1350.77 148.218C1350.42 148.806 1349.88 149.28 1349.13 149.64C1348.4 150 1347.6 150.18 1346.74 150.18C1345.32 150.18 1344.21 149.772 1343.41 148.956C1342.6 148.128 1342.2 146.988 1342.2 145.536C1342.2 144.072 1342.6 142.92 1343.41 142.08C1344.21 141.24 1345.32 140.82 1346.72 140.82C1348.06 140.82 1349.11 141.24 1349.87 142.08C1350.64 142.908 1351.02 144.054 1351.02 145.518V146.436ZM1348.5 144.618C1348.5 144.09 1348.34 143.676 1348.02 143.376C1347.69 143.064 1347.25 142.908 1346.68 142.908C1346.18 142.908 1345.77 143.07 1345.44 143.394C1345.12 143.706 1344.9 144.15 1344.79 144.726H1348.5V144.618ZM1357.38 142.71H1355.92V141H1357.38V139.938C1357.38 139.05 1357.66 138.354 1358.23 137.85C1358.8 137.346 1359.58 137.094 1360.57 137.094C1361.04 137.094 1361.47 137.166 1361.88 137.31C1362.29 137.454 1362.63 137.658 1362.89 137.922L1362.01 139.416C1361.86 139.284 1361.7 139.182 1361.5 139.11C1361.31 139.038 1361.13 139.002 1360.95 139.002C1360.63 139.002 1360.39 139.11 1360.21 139.326C1360.03 139.53 1359.94 139.812 1359.94 140.172V141H1362.46V142.71H1359.94V150H1357.38V142.71ZM1363.66 143.196C1363.66 142.176 1363.64 141.444 1363.6 141H1366.03C1366.08 141.468 1366.1 141.996 1366.1 142.584V142.764H1366.18C1366.4 142.176 1366.81 141.708 1367.4 141.36C1368 141 1368.68 140.82 1369.45 140.82C1369.61 140.82 1369.79 140.838 1370.01 140.874V142.872C1369.99 142.86 1369.87 142.854 1369.65 142.854C1369.04 142.854 1368.47 143.01 1367.94 143.322C1367.41 143.634 1366.99 144.048 1366.68 144.564C1366.37 145.08 1366.21 145.638 1366.21 146.238V150H1363.66V143.196ZM1375.29 150.18C1373.8 150.18 1372.64 149.766 1371.8 148.938C1370.97 148.11 1370.56 146.964 1370.56 145.5C1370.56 144.036 1370.97 142.89 1371.8 142.062C1372.64 141.234 1373.8 140.82 1375.29 140.82C1376.78 140.82 1377.94 141.234 1378.76 142.062C1379.6 142.89 1380.02 144.036 1380.02 145.5C1380.02 146.964 1379.6 148.11 1378.76 148.938C1377.94 149.766 1376.78 150.18 1375.29 150.18ZM1375.29 148.29C1375.97 148.29 1376.51 148.044 1376.89 147.552C1377.28 147.06 1377.47 146.376 1377.47 145.5C1377.47 144.624 1377.28 143.94 1376.89 143.448C1376.51 142.956 1375.97 142.71 1375.29 142.71C1374.61 142.71 1374.07 142.956 1373.69 143.448C1373.3 143.94 1373.11 144.624 1373.11 145.5C1373.11 146.376 1373.3 147.06 1373.69 147.552C1374.07 148.044 1374.61 148.29 1375.29 148.29ZM1381.35 143.43C1381.35 142.218 1381.33 141.408 1381.28 141H1383.51C1383.57 141.444 1383.6 141.966 1383.6 142.566H1383.64C1383.81 142.026 1384.14 141.6 1384.63 141.288C1385.13 140.976 1385.73 140.82 1386.43 140.82C1387.08 140.82 1387.63 140.958 1388.09 141.234C1388.55 141.498 1388.86 141.858 1389 142.314C1389.24 141.858 1389.6 141.498 1390.08 141.234C1390.58 140.958 1391.12 140.82 1391.7 140.82C1392.7 140.82 1393.49 141.144 1394.06 141.792C1394.64 142.428 1394.93 143.31 1394.93 144.438V150H1392.39V144.744C1392.39 144.168 1392.26 143.718 1392.01 143.394C1391.76 143.058 1391.42 142.89 1390.98 142.89C1390.49 142.89 1390.1 143.058 1389.81 143.394C1389.54 143.718 1389.4 144.174 1389.4 144.762V150H1386.88V144.816C1386.88 144.216 1386.75 143.748 1386.5 143.412C1386.26 143.064 1385.93 142.89 1385.49 142.89C1385 142.89 1384.61 143.064 1384.32 143.412C1384.04 143.748 1383.89 144.216 1383.89 144.816V150H1381.35V143.43ZM1402 147.876H1404V140.622L1401.7 141.972V139.416L1404.99 137.4H1406.9V147.876H1408.88V150H1402V147.876ZM1411.67 148.11C1412.61 147.942 1413.47 147.654 1414.27 147.246C1415.06 146.838 1415.66 146.334 1416.07 145.734C1415.68 145.782 1415.38 145.806 1415.17 145.806C1414.31 145.806 1413.56 145.626 1412.9 145.266C1412.25 144.906 1411.75 144.402 1411.39 143.754C1411.03 143.106 1410.85 142.356 1410.85 141.504C1410.85 140.664 1411.03 139.92 1411.4 139.272C1411.78 138.624 1412.3 138.126 1412.97 137.778C1413.64 137.418 1414.42 137.238 1415.29 137.238C1416.2 137.238 1417.01 137.448 1417.7 137.868C1418.4 138.276 1418.94 138.852 1419.32 139.596C1419.71 140.34 1419.9 141.204 1419.9 142.188C1419.9 143.688 1419.58 145.026 1418.93 146.202C1418.28 147.378 1417.37 148.32 1416.19 149.028C1415.02 149.736 1413.66 150.156 1412.12 150.288L1411.67 148.11ZM1415.29 143.7C1415.78 143.7 1416.18 143.502 1416.48 143.106C1416.78 142.71 1416.93 142.182 1416.93 141.522C1416.93 140.922 1416.78 140.442 1416.48 140.082C1416.18 139.71 1415.78 139.524 1415.29 139.524C1414.81 139.524 1414.42 139.71 1414.12 140.082C1413.83 140.442 1413.69 140.922 1413.69 141.522C1413.69 142.182 1413.83 142.71 1414.12 143.106C1414.42 143.502 1414.81 143.7 1415.29 143.7ZM1425.72 150.18C1424.81 150.18 1424 149.976 1423.31 149.568C1422.61 149.16 1422.07 148.59 1421.69 147.858C1421.3 147.114 1421.11 146.256 1421.11 145.284C1421.11 143.916 1421.47 142.626 1422.17 141.414C1422.88 140.19 1423.84 139.194 1425.05 138.426C1426.28 137.646 1427.62 137.208 1429.07 137.112L1429.34 139.29C1428.46 139.41 1427.66 139.668 1426.93 140.064C1426.19 140.448 1425.59 140.976 1425.13 141.648C1425.34 141.612 1425.58 141.594 1425.85 141.594C1427.19 141.594 1428.25 141.978 1429.01 142.746C1429.78 143.502 1430.17 144.552 1430.17 145.896C1430.17 146.748 1429.98 147.498 1429.61 148.146C1429.24 148.794 1428.71 149.298 1428.04 149.658C1427.37 150.006 1426.6 150.18 1425.72 150.18ZM1425.7 147.876C1426.19 147.876 1426.58 147.696 1426.87 147.336C1427.17 146.964 1427.32 146.478 1427.32 145.878C1427.32 145.278 1427.17 144.798 1426.87 144.438C1426.58 144.066 1426.19 143.88 1425.7 143.88C1425.21 143.88 1424.81 144.066 1424.51 144.438C1424.23 144.798 1424.08 145.278 1424.08 145.878C1424.08 146.478 1424.23 146.964 1424.51 147.336C1424.81 147.696 1425.21 147.876 1425.7 147.876ZM1435.9 150.18C1434.36 150.18 1433.18 149.628 1432.37 148.524C1431.56 147.42 1431.16 145.812 1431.16 143.7C1431.16 141.588 1431.56 139.98 1432.37 138.876C1433.18 137.772 1434.36 137.22 1435.9 137.22C1437.43 137.22 1438.6 137.772 1439.41 138.876C1440.22 139.98 1440.63 141.588 1440.63 143.7C1440.63 145.812 1440.22 147.42 1439.41 148.524C1438.6 149.628 1437.43 150.18 1435.9 150.18ZM1435.9 148.11C1436.52 148.11 1436.98 147.756 1437.28 147.048C1437.58 146.328 1437.73 145.212 1437.73 143.7C1437.73 142.188 1437.58 141.078 1437.28 140.37C1436.98 139.65 1436.52 139.29 1435.9 139.29C1435.27 139.29 1434.81 139.65 1434.51 140.37C1434.21 141.078 1434.06 142.188 1434.06 143.7C1434.06 145.212 1434.21 146.328 1434.51 147.048C1434.81 147.756 1435.27 148.11 1435.9 148.11ZM1444.88 150.18C1444.07 150.18 1443.35 150.018 1442.74 149.694C1442.13 149.37 1441.7 148.938 1441.46 148.398L1443.05 147.318C1443.26 147.618 1443.53 147.858 1443.86 148.038C1444.18 148.206 1444.51 148.29 1444.85 148.29C1445.22 148.29 1445.53 148.2 1445.77 148.02C1446.01 147.84 1446.13 147.612 1446.13 147.336C1446.13 147.192 1446.09 147.078 1446.02 146.994C1445.96 146.898 1445.83 146.802 1445.64 146.706C1445.45 146.61 1445.14 146.478 1444.72 146.31C1443.59 145.866 1442.8 145.428 1442.35 144.996C1441.9 144.552 1441.68 144.006 1441.68 143.358C1441.68 142.59 1441.99 141.978 1442.62 141.522C1443.24 141.054 1444.07 140.82 1445.1 140.82C1445.81 140.82 1446.44 140.952 1446.99 141.216C1447.55 141.468 1448.02 141.84 1448.38 142.332L1446.9 143.43C1446.49 142.95 1445.93 142.71 1445.23 142.71C1444.9 142.71 1444.65 142.764 1444.47 142.872C1444.3 142.98 1444.22 143.13 1444.22 143.322C1444.22 143.466 1444.25 143.586 1444.33 143.682C1444.4 143.766 1444.54 143.868 1444.76 143.988C1444.99 144.096 1445.36 144.252 1445.89 144.456C1446.64 144.744 1447.21 145.02 1447.6 145.284C1448 145.548 1448.27 145.83 1448.43 146.13C1448.6 146.418 1448.68 146.778 1448.68 147.21C1448.68 147.798 1448.52 148.32 1448.2 148.776C1447.88 149.22 1447.44 149.568 1446.86 149.82C1446.29 150.06 1445.63 150.18 1444.88 150.18ZM1449.48 144.348H1454.88V146.076H1449.48V144.348ZM1460.28 143.43C1460.28 143.01 1460.27 142.578 1460.25 142.134C1460.23 141.69 1460.22 141.312 1460.19 141H1462.62C1462.66 141.336 1462.68 141.708 1462.68 142.116H1462.71C1463.02 141.696 1463.41 141.378 1463.86 141.162C1464.32 140.934 1464.84 140.82 1465.43 140.82C1466.57 140.82 1467.47 141.24 1468.13 142.08C1468.79 142.92 1469.12 144.066 1469.12 145.518C1469.12 146.982 1468.78 148.128 1468.11 148.956C1467.45 149.772 1466.53 150.18 1465.36 150.18C1464.81 150.18 1464.31 150.09 1463.86 149.91C1463.43 149.73 1463.11 149.484 1462.89 149.172H1462.84V154.356H1460.28V143.43ZM1464.76 148.29C1465.35 148.29 1465.8 148.05 1466.1 147.57C1466.41 147.078 1466.56 146.37 1466.56 145.446C1466.56 143.658 1465.98 142.764 1464.8 142.764C1464.21 142.764 1463.74 142.932 1463.38 143.268C1463.02 143.604 1462.84 144.042 1462.84 144.582V146.508C1462.84 147 1463.02 147.42 1463.4 147.768C1463.78 148.116 1464.24 148.29 1464.76 148.29ZM1470.57 143.196C1470.57 142.176 1470.55 141.444 1470.51 141H1472.94C1472.99 141.468 1473.01 141.996 1473.01 142.584V142.764H1473.09C1473.31 142.176 1473.72 141.708 1474.31 141.36C1474.91 141 1475.59 140.82 1476.36 140.82C1476.52 140.82 1476.7 140.838 1476.92 140.874V142.872C1476.9 142.86 1476.78 142.854 1476.56 142.854C1475.95 142.854 1475.38 143.01 1474.85 143.322C1474.32 143.634 1473.9 144.048 1473.59 144.564C1473.28 145.08 1473.12 145.638 1473.12 146.238V150H1470.57V143.196ZM1486.46 146.436H1480.27C1480.38 146.976 1480.6 147.378 1480.94 147.642C1481.28 147.906 1481.75 148.038 1482.34 148.038C1482.86 148.038 1483.31 147.954 1483.69 147.786C1484.07 147.618 1484.46 147.33 1484.84 146.922L1486.21 148.218C1485.86 148.806 1485.32 149.28 1484.57 149.64C1483.84 150 1483.04 150.18 1482.18 150.18C1480.76 150.18 1479.65 149.772 1478.85 148.956C1478.04 148.128 1477.64 146.988 1477.64 145.536C1477.64 144.072 1478.04 142.92 1478.85 142.08C1479.65 141.24 1480.76 140.82 1482.16 140.82C1483.5 140.82 1484.55 141.24 1485.31 142.08C1486.08 142.908 1486.46 144.054 1486.46 145.518V146.436ZM1483.94 144.618C1483.94 144.09 1483.78 143.676 1483.46 143.376C1483.13 143.064 1482.69 142.908 1482.12 142.908C1481.62 142.908 1481.21 143.07 1480.88 143.394C1480.56 143.706 1480.34 144.15 1480.23 144.726H1483.94V144.618ZM1491.2 150.18C1490.39 150.18 1489.67 150.018 1489.06 149.694C1488.45 149.37 1488.02 148.938 1487.78 148.398L1489.37 147.318C1489.58 147.618 1489.85 147.858 1490.18 148.038C1490.5 148.206 1490.83 148.29 1491.17 148.29C1491.54 148.29 1491.84 148.2 1492.08 148.02C1492.32 147.84 1492.44 147.612 1492.44 147.336C1492.44 147.192 1492.41 147.078 1492.34 146.994C1492.28 146.898 1492.15 146.802 1491.96 146.706C1491.77 146.61 1491.46 146.478 1491.04 146.31C1489.91 145.866 1489.12 145.428 1488.66 144.996C1488.22 144.552 1488 144.006 1488 143.358C1488 142.59 1488.31 141.978 1488.93 141.522C1489.56 141.054 1490.39 140.82 1491.42 140.82C1492.13 140.82 1492.76 140.952 1493.31 141.216C1493.87 141.468 1494.33 141.84 1494.69 142.332L1493.22 143.43C1492.81 142.95 1492.25 142.71 1491.54 142.71C1491.22 142.71 1490.97 142.764 1490.79 142.872C1490.62 142.98 1490.54 143.13 1490.54 143.322C1490.54 143.466 1490.57 143.586 1490.64 143.682C1490.72 143.766 1490.86 143.868 1491.08 143.988C1491.3 144.096 1491.68 144.252 1492.21 144.456C1492.95 144.744 1493.52 145.02 1493.92 145.284C1494.32 145.548 1494.59 145.83 1494.75 146.13C1494.92 146.418 1495 146.778 1495 147.21C1495 147.798 1494.84 148.32 1494.51 148.776C1494.2 149.22 1493.76 149.568 1493.18 149.82C1492.61 150.06 1491.95 150.18 1491.2 150.18ZM1505.15 146.436H1498.96C1499.06 146.976 1499.29 147.378 1499.62 147.642C1499.97 147.906 1500.44 148.038 1501.03 148.038C1501.54 148.038 1501.99 147.954 1502.38 147.786C1502.76 147.618 1503.14 147.33 1503.53 146.922L1504.9 148.218C1504.55 148.806 1504 149.28 1503.26 149.64C1502.53 150 1501.73 150.18 1500.86 150.18C1499.45 150.18 1498.34 149.772 1497.53 148.956C1496.73 148.128 1496.33 146.988 1496.33 145.536C1496.33 144.072 1496.73 142.92 1497.53 142.08C1498.34 141.24 1499.44 140.82 1500.85 140.82C1502.19 140.82 1503.24 141.24 1504 142.08C1504.76 142.908 1505.15 144.054 1505.15 145.518V146.436ZM1502.63 144.618C1502.63 144.09 1502.47 143.676 1502.14 143.376C1501.82 143.064 1501.37 142.908 1500.81 142.908C1500.31 142.908 1499.89 143.07 1499.57 143.394C1499.24 143.706 1499.03 144.15 1498.92 144.726H1502.63V144.618ZM1506.46 143.412C1506.46 142.344 1506.43 141.54 1506.39 141H1508.78C1508.85 141.552 1508.89 142.074 1508.89 142.566H1508.92C1509.13 142.05 1509.5 141.63 1510.04 141.306C1510.59 140.982 1511.2 140.82 1511.88 140.82C1512.91 140.82 1513.69 141.168 1514.22 141.864C1514.74 142.56 1515.01 143.592 1515.01 144.96V150H1512.45V144.942C1512.45 144.222 1512.34 143.7 1512.11 143.376C1511.88 143.052 1511.52 142.89 1511.01 142.89C1510.41 142.89 1509.93 143.094 1509.55 143.502C1509.19 143.898 1509.01 144.426 1509.01 145.086V150H1506.46V143.412ZM1520.85 150.18C1519.87 150.18 1519.12 149.928 1518.58 149.424C1518.05 148.92 1517.79 148.212 1517.79 147.3V142.89H1516.15V141H1517.79V138.714L1520.27 137.994H1520.34V141H1522.97V142.89H1520.34V146.904C1520.34 147.384 1520.46 147.738 1520.7 147.966C1520.94 148.182 1521.31 148.29 1521.82 148.29C1522.3 148.29 1522.74 148.212 1523.15 148.056L1523.26 149.784C1522.66 150.048 1521.85 150.18 1520.85 150.18Z" fill="#BF9D3E"></path><g opacity="0.08" filter="url(#filter0_b_258_1577)"><path d="M-8 14H886C905.882 14 922 30.1178 922 50V778C922 797.882 905.882 814 886 814H-8V14Z" fill="white"></path><path d="M-7.5 14.5H886C905.606 14.5 921.5 30.3939 921.5 50V778C921.5 797.606 905.606 813.5 886 813.5H-7.5V14.5Z" stroke="url(#paint0_linear_258_1577)"></path></g><defs><filter id="filter0_b_258_1577" x="-20" y="2" width="954" height="824" filterUnits="userSpaceOnUse" color-interpolation-filters="sRGB"><feGaussianBlur stdDeviation="6"></feGaussianBlur></filter><linearGradient id="paint0_linear_258_1577" x1="181" y1="389.5" x2="181" y2="1836.5" gradientUnits="userSpaceOnUse"><stop stop-color="#31D38C"></stop><stop offset="1" stop-color="white" stop-opacity="0"></stop></linearGradient></defs></svg>