<svg xmlns="http://www.w3.org/2000/svg" width="1668" height="133" viewBox="0 0 1668 133" fill="none"><g opacity="0.12" filter="url(#filter0_b_258_1840)"><rect x="84" y="129" width="1500" height="4" rx="2" fill="white"></rect></g><g filter="url(#filter1_b_258_1840)"><rect x="84" y="129" width="150" height="4" rx="2" fill="white"></rect></g><rect x="0.5" y="-0.5" width="47" height="47" rx="23.5" transform="matrix(1 1.74846e-07 1.74846e-07 -1 1620 47)" fill="#03040B" stroke="#43454E"></rect><path d="M1647.12 29.7698C1647.06 29.8381 1646.99 29.8938 1646.91 29.9333C1646.83 29.9728 1646.74 29.9953 1646.65 29.9993C1646.56 30.0034 1646.48 29.9888 1646.39 29.9566C1646.31 29.9245 1646.23 29.8754 1646.17 29.8125C1646.11 29.7496 1646.06 29.6743 1646.03 29.5913C1646 29.5084 1645.98 29.4197 1645.98 29.3309C1645.99 29.242 1646.01 29.155 1646.05 29.0753C1646.09 28.9956 1646.15 28.925 1646.21 28.868L1650.82 24.2619L1635.61 24.2619C1635.44 24.2531 1635.29 24.1818 1635.18 24.0625C1635.06 23.9432 1635 23.7851 1635 23.6207C1635 23.4563 1635.06 23.2982 1635.18 23.1789C1635.29 23.0596 1635.44 22.9883 1635.61 22.9796L1650.82 22.9796L1646.21 18.3788C1646.09 18.2573 1646.03 18.0958 1646.03 17.9279C1646.03 17.76 1646.09 17.5985 1646.21 17.477C1646.27 17.4177 1646.34 17.3706 1646.41 17.3385C1646.49 17.3064 1646.57 17.2899 1646.66 17.2899C1646.74 17.2899 1646.82 17.3064 1646.9 17.3385C1646.98 17.3706 1647.05 17.4177 1647.11 17.477L1652.81 23.1761C1652.87 23.2345 1652.92 23.3046 1652.95 23.382C1652.98 23.4595 1653 23.5428 1653 23.627C1653 23.7112 1652.98 23.7945 1652.95 23.872C1652.92 23.9495 1652.87 24.0195 1652.81 24.0779L1647.12 29.7698Z" fill="white" stroke="white"></path><rect x="-0.5" y="0.5" width="47" height="47" rx="23.5" transform="matrix(-1 0 0 1 47 0)" fill="#03040B" stroke="#43454E"></rect><path d="M20.8837 18.2302C20.9407 18.1619 21.0113 18.1062 21.0909 18.0667C21.1706 18.0272 21.2577 18.0047 21.3465 18.0007C21.4354 17.9966 21.5241 18.0112 21.607 18.0434C21.6899 18.0755 21.7653 18.1246 21.8282 18.1875C21.891 18.2504 21.9401 18.3257 21.9723 18.4087C22.0045 18.4916 22.019 18.5803 22.015 18.6691C22.011 18.758 21.9885 18.845 21.949 18.9247C21.9095 19.0044 21.8538 19.075 21.7855 19.132L17.1847 23.7381H32.392C32.5561 23.7469 32.7107 23.8182 32.8238 23.9375C32.9369 24.0568 33 24.2149 33 24.3793C33 24.5437 32.9369 24.7018 32.8238 24.8211C32.7107 24.9404 32.5561 25.0117 32.392 25.0204H17.1847L21.7927 29.6212C21.9087 29.7427 21.9734 29.9042 21.9734 30.0721C21.9734 30.24 21.9087 30.4015 21.7927 30.523C21.7335 30.5823 21.6633 30.6294 21.5859 30.6615C21.5085 30.6936 21.4256 30.7101 21.3418 30.7101C21.258 30.7101 21.1751 30.6936 21.0977 30.6615C21.0203 30.6294 20.9501 30.5823 20.8909 30.523L15.1918 24.8239C15.1312 24.7655 15.0829 24.6954 15.0499 24.618C15.017 24.5405 15 24.4572 15 24.373C15 24.2888 15.017 24.2055 15.0499 24.128C15.0829 24.0505 15.1312 23.9805 15.1918 23.9221L20.8837 18.2302Z" fill="white" stroke="white"></path><defs><filter id="filter0_b_258_1840" x="74" y="119" width="1520" height="24" filterUnits="userSpaceOnUse" color-interpolation-filters="sRGB"><feGaussianBlur stdDeviation="5"></feGaussianBlur></filter><filter id="filter1_b_258_1840" x="74" y="119" width="170" height="24" filterUnits="userSpaceOnUse" color-interpolation-filters="sRGB"><feGaussianBlur stdDeviation="5"></feGaussianBlur></filter></defs></svg>