<svg xmlns="http://www.w3.org/2000/svg" width="1920" height="174" viewBox="0 0 1920 174" fill="none"><rect y="60" width="1920" height="114" fill="white"></rect><path d="M734.079 112.8H736.655V117.264H740.607V112.8H743.183V124H740.607V119.312H736.655V124H734.079V112.8ZM748.899 124.16C747.576 124.16 746.542 123.792 745.795 123.056C745.059 122.32 744.691 121.301 744.691 120C744.691 118.699 745.059 117.68 745.795 116.944C746.542 116.208 747.576 115.84 748.899 115.84C750.222 115.84 751.251 116.208 751.987 116.944C752.734 117.68 753.107 118.699 753.107 120C753.107 121.301 752.734 122.32 751.987 123.056C751.251 123.792 750.222 124.16 748.899 124.16ZM748.899 122.48C749.507 122.48 749.982 122.261 750.323 121.824C750.664 121.387 750.835 120.779 750.835 120C750.835 119.221 750.664 118.613 750.323 118.176C749.982 117.739 749.507 117.52 748.899 117.52C748.291 117.52 747.816 117.739 747.475 118.176C747.134 118.613 746.963 119.221 746.963 120C746.963 120.779 747.134 121.387 747.475 121.824C747.816 122.261 748.291 122.48 748.899 122.48ZM754.29 118.16C754.29 117.083 754.269 116.363 754.226 116H756.21C756.263 116.395 756.29 116.859 756.29 117.392H756.322C756.471 116.912 756.765 116.533 757.202 116.256C757.65 115.979 758.183 115.84 758.802 115.84C759.378 115.84 759.869 115.963 760.274 116.208C760.69 116.443 760.962 116.763 761.09 117.168C761.303 116.763 761.623 116.443 762.05 116.208C762.487 115.963 762.967 115.84 763.49 115.84C764.375 115.84 765.074 116.128 765.586 116.704C766.098 117.269 766.354 118.053 766.354 119.056V124H764.098V119.328C764.098 118.816 763.986 118.416 763.762 118.128C763.538 117.829 763.234 117.68 762.85 117.68C762.413 117.68 762.066 117.829 761.81 118.128C761.565 118.416 761.442 118.821 761.442 119.344V124H759.202V119.392C759.202 118.859 759.09 118.443 758.866 118.144C758.653 117.835 758.354 117.68 757.97 117.68C757.533 117.68 757.186 117.835 756.93 118.144C756.674 118.443 756.546 118.859 756.546 119.392V124H754.29V118.16ZM775.468 120.832H769.964C770.06 121.312 770.258 121.669 770.556 121.904C770.866 122.139 771.282 122.256 771.804 122.256C772.263 122.256 772.663 122.181 773.004 122.032C773.346 121.883 773.687 121.627 774.028 121.264L775.244 122.416C774.935 122.939 774.45 123.36 773.788 123.68C773.138 124 772.428 124.16 771.66 124.16C770.402 124.16 769.415 123.797 768.7 123.072C767.986 122.336 767.628 121.323 767.628 120.032C767.628 118.731 767.986 117.707 768.7 116.96C769.415 116.213 770.396 115.84 771.644 115.84C772.839 115.84 773.772 116.213 774.444 116.96C775.127 117.696 775.468 118.715 775.468 120.016V120.832ZM773.228 119.216C773.228 118.747 773.084 118.379 772.796 118.112C772.508 117.835 772.114 117.696 771.612 117.696C771.164 117.696 770.796 117.84 770.508 118.128C770.22 118.405 770.028 118.8 769.932 119.312H773.228V119.216Z" fill="black"></path><path d="M813.205 122.336H809.525L809.029 124H806.341L810.245 112.8H812.485L816.389 124H813.701L813.205 122.336ZM812.581 120.288L811.365 116.256L810.149 120.288H812.581ZM821.849 124.16C821.391 124.16 820.948 124.053 820.521 123.84C820.105 123.627 819.775 123.349 819.529 123.008H819.497C819.497 123.509 819.492 123.84 819.481 124H817.337C817.369 123.712 817.385 122.992 817.385 121.84V112.128H819.657V116.736H819.689C820.105 116.139 820.863 115.84 821.961 115.84C822.985 115.84 823.785 116.197 824.361 116.912C824.937 117.616 825.225 118.603 825.225 119.872C825.225 121.216 824.927 122.267 824.329 123.024C823.732 123.781 822.905 124.16 821.849 124.16ZM821.385 122.432C821.908 122.432 822.303 122.219 822.569 121.792C822.836 121.355 822.969 120.725 822.969 119.904C822.969 119.125 822.836 118.533 822.569 118.128C822.303 117.723 821.908 117.52 821.385 117.52C820.905 117.52 820.495 117.675 820.153 117.984C819.823 118.293 819.657 118.667 819.657 119.104V120.816C819.657 121.307 819.812 121.701 820.121 122C820.441 122.288 820.863 122.432 821.385 122.432ZM830.321 124.16C828.998 124.16 827.963 123.792 827.217 123.056C826.481 122.32 826.113 121.301 826.113 120C826.113 118.699 826.481 117.68 827.217 116.944C827.963 116.208 828.998 115.84 830.321 115.84C831.643 115.84 832.673 116.208 833.409 116.944C834.155 117.68 834.529 118.699 834.529 120C834.529 121.301 834.155 122.32 833.409 123.056C832.673 123.792 831.643 124.16 830.321 124.16ZM830.321 122.48C830.929 122.48 831.403 122.261 831.745 121.824C832.086 121.387 832.257 120.779 832.257 120C832.257 119.221 832.086 118.613 831.745 118.176C831.403 117.739 830.929 117.52 830.321 117.52C829.713 117.52 829.238 117.739 828.897 118.176C828.555 118.613 828.385 119.221 828.385 120C828.385 120.779 828.555 121.387 828.897 121.824C829.238 122.261 829.713 122.48 830.321 122.48ZM838.496 124.16C837.578 124.16 836.885 123.851 836.416 123.232C835.946 122.613 835.712 121.696 835.712 120.48V116H837.984V120.496C837.984 121.136 838.085 121.6 838.288 121.888C838.49 122.176 838.81 122.32 839.248 122.32C839.77 122.32 840.197 122.117 840.528 121.712C840.869 121.307 841.04 120.805 841.04 120.208V116H843.312V121.856C843.312 122.432 843.354 123.147 843.44 124H841.264C841.178 123.424 841.136 122.96 841.136 122.608H841.104C840.922 123.077 840.592 123.456 840.112 123.744C839.642 124.021 839.104 124.16 838.496 124.16ZM848.423 124.16C847.559 124.16 846.887 123.936 846.407 123.488C845.938 123.04 845.703 122.411 845.703 121.6V117.68H844.247V116H845.703V113.968L847.911 113.328H847.975V116H850.311V117.68H847.975V121.248C847.975 121.675 848.082 121.989 848.295 122.192C848.508 122.384 848.839 122.48 849.287 122.48C849.714 122.48 850.108 122.411 850.471 122.272L850.567 123.808C850.034 124.043 849.319 124.16 848.423 124.16ZM858.152 124.16C857.235 124.16 856.541 123.851 856.072 123.232C855.603 122.613 855.368 121.696 855.368 120.48V116H857.64V120.496C857.64 121.136 857.741 121.6 857.944 121.888C858.147 122.176 858.467 122.32 858.904 122.32C859.427 122.32 859.853 122.117 860.184 121.712C860.525 121.307 860.696 120.805 860.696 120.208V116H862.968V121.856C862.968 122.432 863.011 123.147 863.096 124H860.92C860.835 123.424 860.792 122.96 860.792 122.608H860.76C860.579 123.077 860.248 123.456 859.768 123.744C859.299 124.021 858.76 124.16 858.152 124.16ZM867.119 124.16C866.394 124.16 865.759 124.016 865.215 123.728C864.671 123.44 864.293 123.056 864.079 122.576L865.487 121.616C865.679 121.883 865.919 122.096 866.207 122.256C866.495 122.405 866.789 122.48 867.087 122.48C867.418 122.48 867.69 122.4 867.903 122.24C868.117 122.08 868.223 121.877 868.223 121.632C868.223 121.504 868.191 121.403 868.127 121.328C868.074 121.243 867.962 121.157 867.791 121.072C867.621 120.987 867.349 120.869 866.975 120.72C865.973 120.325 865.269 119.936 864.863 119.552C864.469 119.157 864.271 118.672 864.271 118.096C864.271 117.413 864.549 116.869 865.103 116.464C865.658 116.048 866.394 115.84 867.311 115.84C867.941 115.84 868.501 115.957 868.991 116.192C869.493 116.416 869.903 116.747 870.223 117.184L868.911 118.16C868.549 117.733 868.053 117.52 867.423 117.52C867.135 117.52 866.911 117.568 866.751 117.664C866.602 117.76 866.527 117.893 866.527 118.064C866.527 118.192 866.559 118.299 866.623 118.384C866.687 118.459 866.815 118.549 867.007 118.656C867.21 118.752 867.546 118.891 868.015 119.072C868.677 119.328 869.183 119.573 869.535 119.808C869.887 120.043 870.133 120.293 870.271 120.56C870.421 120.816 870.495 121.136 870.495 121.52C870.495 122.043 870.351 122.507 870.063 122.912C869.786 123.307 869.391 123.616 868.879 123.84C868.367 124.053 867.781 124.16 867.119 124.16Z" fill="black"></path><path d="M902.352 112.8H904.928V121.952H910.16V124H902.352V112.8ZM912.709 115.232C912.282 115.232 911.936 115.115 911.669 114.88C911.413 114.645 911.285 114.331 911.285 113.936C911.285 113.541 911.413 113.227 911.669 112.992C911.936 112.757 912.282 112.64 912.709 112.64C913.136 112.64 913.477 112.757 913.733 112.992C914 113.227 914.133 113.541 914.133 113.936C914.133 114.331 914 114.645 913.733 114.88C913.477 115.115 913.136 115.232 912.709 115.232ZM911.573 116H913.845V124H911.573V116ZM923.449 116L920.297 124H918.345L915.193 116H917.529L919.321 121.2L921.113 116H923.449ZM931.679 120.832H926.175C926.271 121.312 926.469 121.669 926.767 121.904C927.077 122.139 927.493 122.256 928.015 122.256C928.474 122.256 928.874 122.181 929.215 122.032C929.557 121.883 929.898 121.627 930.239 121.264L931.455 122.416C931.146 122.939 930.661 123.36 929.999 123.68C929.349 124 928.639 124.16 927.871 124.16C926.613 124.16 925.626 123.797 924.911 123.072C924.197 122.336 923.839 121.323 923.839 120.032C923.839 118.731 924.197 117.707 924.911 116.96C925.626 116.213 926.607 115.84 927.855 115.84C929.05 115.84 929.983 116.213 930.655 116.96C931.338 117.696 931.679 118.715 931.679 120.016V120.832ZM929.439 119.216C929.439 118.747 929.295 118.379 929.007 118.112C928.719 117.835 928.325 117.696 927.823 117.696C927.375 117.696 927.007 117.84 926.719 118.128C926.431 118.405 926.239 118.8 926.143 119.312H929.439V119.216ZM940.532 124.16C939.209 124.16 938.174 123.792 937.428 123.056C936.692 122.32 936.324 121.301 936.324 120C936.324 118.699 936.692 117.68 937.428 116.944C938.174 116.208 939.209 115.84 940.532 115.84C941.854 115.84 942.884 116.208 943.62 116.944C944.366 117.68 944.74 118.699 944.74 120C944.74 121.301 944.366 122.32 943.62 123.056C942.884 123.792 941.854 124.16 940.532 124.16ZM940.532 122.48C941.14 122.48 941.614 122.261 941.956 121.824C942.297 121.387 942.468 120.779 942.468 120C942.468 119.221 942.297 118.613 941.956 118.176C941.614 117.739 941.14 117.52 940.532 117.52C939.924 117.52 939.449 117.739 939.108 118.176C938.766 118.613 938.596 119.221 938.596 120C938.596 120.779 938.766 121.387 939.108 121.824C939.449 122.261 939.924 122.48 940.532 122.48ZM946.707 117.52H945.411V116H946.707V115.056C946.707 114.267 946.957 113.648 947.459 113.2C947.971 112.752 948.664 112.528 949.539 112.528C949.955 112.528 950.344 112.592 950.707 112.72C951.069 112.848 951.368 113.029 951.603 113.264L950.819 114.592C950.691 114.475 950.541 114.384 950.371 114.32C950.2 114.256 950.035 114.224 949.875 114.224C949.597 114.224 949.379 114.32 949.219 114.512C949.059 114.693 948.979 114.944 948.979 115.264V116H951.219V117.52H948.979V124H946.707V117.52ZM952.972 117.52H951.676V116H952.972V115.056C952.972 114.267 953.223 113.648 953.724 113.2C954.236 112.752 954.93 112.528 955.804 112.528C956.22 112.528 956.61 112.592 956.972 112.72C957.335 112.848 957.634 113.029 957.868 113.264L957.084 114.592C956.956 114.475 956.807 114.384 956.636 114.32C956.466 114.256 956.3 114.224 956.14 114.224C955.863 114.224 955.644 114.32 955.484 114.512C955.324 114.693 955.244 114.944 955.244 115.264V116H957.484V117.52H955.244V124H952.972V117.52ZM965.586 120.832H960.082C960.178 121.312 960.375 121.669 960.674 121.904C960.983 122.139 961.399 122.256 961.922 122.256C962.38 122.256 962.78 122.181 963.122 122.032C963.463 121.883 963.804 121.627 964.146 121.264L965.362 122.416C965.052 122.939 964.567 123.36 963.906 123.68C963.255 124 962.546 124.16 961.778 124.16C960.519 124.16 959.532 123.797 958.818 123.072C958.103 122.336 957.746 121.323 957.746 120.032C957.746 118.731 958.103 117.707 958.818 116.96C959.532 116.213 960.514 115.84 961.762 115.84C962.956 115.84 963.89 116.213 964.562 116.96C965.244 117.696 965.586 118.715 965.586 120.016V120.832ZM963.346 119.216C963.346 118.747 963.202 118.379 962.914 118.112C962.626 117.835 962.231 117.696 961.73 117.696C961.282 117.696 960.914 117.84 960.626 118.128C960.338 118.405 960.146 118.8 960.05 119.312H963.346V119.216ZM966.863 117.952C966.863 117.045 966.847 116.395 966.815 116H968.975C969.017 116.416 969.039 116.885 969.039 117.408V117.568H969.103C969.305 117.045 969.668 116.629 970.191 116.32C970.724 116 971.332 115.84 972.015 115.84C972.153 115.84 972.319 115.856 972.511 115.888V117.664C972.489 117.653 972.383 117.648 972.191 117.648C971.647 117.648 971.14 117.787 970.671 118.064C970.201 118.341 969.828 118.709 969.551 119.168C969.273 119.627 969.135 120.123 969.135 120.656V124H966.863V117.952Z" fill="black"></path><path d="M1004.48 112.8H1012.22V114.848H1007.05V117.52H1011.89V119.568H1007.05V124H1004.48V112.8ZM1015.02 115.232C1014.59 115.232 1014.25 115.115 1013.98 114.88C1013.73 114.645 1013.6 114.331 1013.6 113.936C1013.6 113.541 1013.73 113.227 1013.98 112.992C1014.25 112.757 1014.59 112.64 1015.02 112.64C1015.45 112.64 1015.79 112.757 1016.05 112.992C1016.31 113.227 1016.45 113.541 1016.45 113.936C1016.45 114.331 1016.31 114.645 1016.05 114.88C1015.79 115.115 1015.45 115.232 1015.02 115.232ZM1013.89 116H1016.16V124H1013.89V116ZM1017.97 118.144C1017.97 117.195 1017.95 116.48 1017.91 116H1020.03C1020.1 116.491 1020.13 116.955 1020.13 117.392H1020.16C1020.34 116.933 1020.67 116.56 1021.15 116.272C1021.64 115.984 1022.19 115.84 1022.79 115.84C1023.7 115.84 1024.4 116.149 1024.87 116.768C1025.33 117.387 1025.57 118.304 1025.57 119.52V124H1023.3V119.504C1023.3 118.864 1023.2 118.4 1022.99 118.112C1022.79 117.824 1022.47 117.68 1022.02 117.68C1021.48 117.68 1021.05 117.861 1020.72 118.224C1020.4 118.576 1020.24 119.045 1020.24 119.632V124H1017.97V118.144ZM1030.15 124.16C1029.1 124.16 1028.27 123.781 1027.67 123.024C1027.07 122.267 1026.78 121.216 1026.78 119.872C1026.78 119.061 1026.91 118.352 1027.19 117.744C1027.47 117.136 1027.86 116.667 1028.38 116.336C1028.9 116.005 1029.51 115.84 1030.2 115.84C1030.67 115.84 1031.07 115.915 1031.4 116.064C1031.74 116.203 1032.04 116.427 1032.31 116.736H1032.34V112.128H1034.62V121.84C1034.62 122.992 1034.63 123.712 1034.66 124H1032.52C1032.51 123.84 1032.5 123.509 1032.5 123.008H1032.47C1032.23 123.349 1031.89 123.627 1031.46 123.84C1031.05 124.053 1030.61 124.16 1030.15 124.16ZM1030.62 122.432C1031.14 122.432 1031.55 122.288 1031.86 122C1032.18 121.701 1032.34 121.307 1032.34 120.816V119.104C1032.34 118.667 1032.18 118.293 1031.85 117.984C1031.52 117.675 1031.11 117.52 1030.62 117.52C1030.09 117.52 1029.7 117.723 1029.43 118.128C1029.16 118.533 1029.03 119.125 1029.03 119.904C1029.03 120.725 1029.16 121.355 1029.43 121.792C1029.7 122.219 1030.09 122.432 1030.62 122.432ZM1047.56 116L1044.41 124H1042.45L1039.3 116H1041.64L1043.43 121.2L1045.22 116H1047.56ZM1055.79 120.832H1050.28C1050.38 121.312 1050.58 121.669 1050.88 121.904C1051.19 122.139 1051.6 122.256 1052.12 122.256C1052.58 122.256 1052.98 122.181 1053.32 122.032C1053.67 121.883 1054.01 121.627 1054.35 121.264L1055.56 122.416C1055.26 122.939 1054.77 123.36 1054.11 123.68C1053.46 124 1052.75 124.16 1051.98 124.16C1050.72 124.16 1049.74 123.797 1049.02 123.072C1048.31 122.336 1047.95 121.323 1047.95 120.032C1047.95 118.731 1048.31 117.707 1049.02 116.96C1049.74 116.213 1050.72 115.84 1051.96 115.84C1053.16 115.84 1054.09 116.213 1054.76 116.96C1055.45 117.696 1055.79 118.715 1055.79 120.016V120.832ZM1053.55 119.216C1053.55 118.747 1053.4 118.379 1053.12 118.112C1052.83 117.835 1052.43 117.696 1051.93 117.696C1051.48 117.696 1051.12 117.84 1050.83 118.128C1050.54 118.405 1050.35 118.8 1050.25 119.312H1053.55V119.216ZM1056.97 112.128H1059.24V116.848C1059.49 116.539 1059.82 116.293 1060.25 116.112C1060.69 115.931 1061.16 115.84 1061.66 115.84C1062.24 115.84 1062.77 115.973 1063.23 116.24C1063.68 116.496 1064.04 116.875 1064.3 117.376C1064.55 117.867 1064.68 118.448 1064.68 119.12V124H1062.41V119.328C1062.41 118.773 1062.28 118.336 1062.03 118.016C1061.78 117.685 1061.44 117.52 1061 117.52C1060.46 117.52 1060.03 117.712 1059.71 118.096C1059.4 118.469 1059.24 118.987 1059.24 119.648V124H1056.97V112.128ZM1067.65 115.232C1067.22 115.232 1066.87 115.115 1066.61 114.88C1066.35 114.645 1066.22 114.331 1066.22 113.936C1066.22 113.541 1066.35 113.227 1066.61 112.992C1066.87 112.757 1067.22 112.64 1067.65 112.64C1068.07 112.64 1068.41 112.757 1068.67 112.992C1068.94 113.227 1069.07 113.541 1069.07 113.936C1069.07 114.331 1068.94 114.645 1068.67 114.88C1068.41 115.115 1068.07 115.232 1067.65 115.232ZM1066.51 116H1068.78V124H1066.51V116ZM1074.37 124.16C1073.1 124.16 1072.1 123.792 1071.38 123.056C1070.66 122.309 1070.31 121.291 1070.31 120C1070.31 118.709 1070.66 117.696 1071.38 116.96C1072.1 116.213 1073.1 115.84 1074.37 115.84C1075.14 115.84 1075.8 115.984 1076.37 116.272C1076.95 116.549 1077.38 116.949 1077.67 117.472L1076.31 118.656C1076.1 118.315 1075.84 118.048 1075.52 117.856C1075.2 117.664 1074.86 117.568 1074.48 117.568C1073.88 117.568 1073.42 117.787 1073.07 118.224C1072.73 118.651 1072.56 119.243 1072.56 120C1072.56 120.757 1072.73 121.355 1073.07 121.792C1073.42 122.219 1073.88 122.432 1074.48 122.432C1074.86 122.432 1075.2 122.336 1075.52 122.144C1075.84 121.952 1076.1 121.685 1076.31 121.344L1077.67 122.528C1077.38 123.051 1076.95 123.456 1076.37 123.744C1075.8 124.021 1075.14 124.16 1074.37 124.16ZM1080.93 124.16C1080.22 124.16 1079.67 123.973 1079.28 123.6C1078.9 123.227 1078.71 122.688 1078.71 121.984V112.128H1080.98V122.032C1080.98 122.416 1081.21 122.608 1081.68 122.608C1081.95 122.608 1082.26 122.533 1082.63 122.384L1082.96 123.568C1082.45 123.963 1081.77 124.16 1080.93 124.16ZM1090.57 120.832H1085.07C1085.16 121.312 1085.36 121.669 1085.66 121.904C1085.97 122.139 1086.38 122.256 1086.91 122.256C1087.36 122.256 1087.76 122.181 1088.11 122.032C1088.45 121.883 1088.79 121.627 1089.13 121.264L1090.35 122.416C1090.04 122.939 1089.55 123.36 1088.89 123.68C1088.24 124 1087.53 124.16 1086.76 124.16C1085.5 124.16 1084.52 123.797 1083.8 123.072C1083.09 122.336 1082.73 121.323 1082.73 120.032C1082.73 118.731 1083.09 117.707 1083.8 116.96C1084.52 116.213 1085.5 115.84 1086.75 115.84C1087.94 115.84 1088.87 116.213 1089.55 116.96C1090.23 117.696 1090.57 118.715 1090.57 120.016V120.832ZM1088.33 119.216C1088.33 118.747 1088.19 118.379 1087.9 118.112C1087.61 117.835 1087.22 117.696 1086.71 117.696C1086.27 117.696 1085.9 117.84 1085.61 118.128C1085.32 118.405 1085.13 118.8 1085.03 119.312H1088.33V119.216ZM1094.78 124.16C1094.06 124.16 1093.42 124.016 1092.88 123.728C1092.34 123.44 1091.96 123.056 1091.74 122.576L1093.15 121.616C1093.34 121.883 1093.58 122.096 1093.87 122.256C1094.16 122.405 1094.45 122.48 1094.75 122.48C1095.08 122.48 1095.35 122.4 1095.57 122.24C1095.78 122.08 1095.89 121.877 1095.89 121.632C1095.89 121.504 1095.86 121.403 1095.79 121.328C1095.74 121.243 1095.63 121.157 1095.46 121.072C1095.28 120.987 1095.01 120.869 1094.64 120.72C1093.64 120.325 1092.93 119.936 1092.53 119.552C1092.13 119.157 1091.94 118.672 1091.94 118.096C1091.94 117.413 1092.21 116.869 1092.77 116.464C1093.32 116.048 1094.06 115.84 1094.98 115.84C1095.6 115.84 1096.16 115.957 1096.66 116.192C1097.16 116.416 1097.57 116.747 1097.89 117.184L1096.58 118.16C1096.21 117.733 1095.72 117.52 1095.09 117.52C1094.8 117.52 1094.58 117.568 1094.42 117.664C1094.27 117.76 1094.19 117.893 1094.19 118.064C1094.19 118.192 1094.22 118.299 1094.29 118.384C1094.35 118.459 1094.48 118.549 1094.67 118.656C1094.87 118.752 1095.21 118.891 1095.68 119.072C1096.34 119.328 1096.85 119.573 1097.2 119.808C1097.55 120.043 1097.8 120.293 1097.94 120.56C1098.08 120.816 1098.16 121.136 1098.16 121.52C1098.16 122.043 1098.02 122.507 1097.73 122.912C1097.45 123.307 1097.06 123.616 1096.54 123.84C1096.03 124.053 1095.44 124.16 1094.78 124.16Z" fill="black"></path><path d="M1134.96 124.16C1133.89 124.16 1132.96 123.925 1132.16 123.456C1131.36 122.987 1130.74 122.32 1130.3 121.456C1129.87 120.581 1129.66 119.563 1129.66 118.4C1129.66 117.237 1129.87 116.224 1130.3 115.36C1130.74 114.485 1131.36 113.813 1132.16 113.344C1132.96 112.875 1133.89 112.64 1134.96 112.64C1135.89 112.64 1136.71 112.821 1137.39 113.184C1138.07 113.536 1138.57 114.037 1138.89 114.688L1137.42 115.952C1136.87 115.109 1136.05 114.688 1134.99 114.688C1134.08 114.688 1133.39 115.003 1132.92 115.632C1132.47 116.251 1132.24 117.173 1132.24 118.4C1132.24 119.616 1132.47 120.539 1132.92 121.168C1133.38 121.797 1134.05 122.112 1134.94 122.112C1136.06 122.112 1136.89 121.691 1137.42 120.848L1138.89 122.112C1138.57 122.763 1138.07 123.269 1137.39 123.632C1136.71 123.984 1135.89 124.16 1134.96 124.16ZM1142.44 124.16C1141.92 124.16 1141.45 124.048 1141.03 123.824C1140.62 123.6 1140.29 123.296 1140.06 122.912C1139.82 122.517 1139.71 122.075 1139.71 121.584C1139.71 120.763 1140.04 120.133 1140.7 119.696C1141.36 119.259 1142.31 119.04 1143.55 119.04H1144.67V118.72C1144.67 118.357 1144.55 118.075 1144.31 117.872C1144.08 117.669 1143.76 117.568 1143.35 117.568C1142.87 117.568 1142.41 117.648 1141.96 117.808C1141.52 117.968 1141.16 118.187 1140.87 118.464L1139.9 117.168C1140.36 116.763 1140.89 116.443 1141.51 116.208C1142.14 115.963 1142.78 115.84 1143.42 115.84C1144.51 115.84 1145.36 116.096 1145.99 116.608C1146.62 117.109 1146.94 117.797 1146.94 118.672V122.272C1146.94 122.528 1146.96 122.832 1147 123.184C1147.04 123.536 1147.09 123.808 1147.15 124H1145.11C1145.05 123.851 1145 123.717 1144.97 123.6C1144.94 123.483 1144.91 123.317 1144.89 123.104H1144.86C1144.26 123.808 1143.45 124.16 1142.44 124.16ZM1143.05 122.48C1143.52 122.48 1143.9 122.363 1144.2 122.128C1144.51 121.883 1144.67 121.573 1144.67 121.2V120.528H1143.48C1142.98 120.528 1142.6 120.619 1142.33 120.8C1142.06 120.981 1141.93 121.243 1141.93 121.584C1141.93 121.872 1142.03 122.096 1142.22 122.256C1142.41 122.405 1142.69 122.48 1143.05 122.48ZM1148.62 117.952C1148.62 117.045 1148.6 116.395 1148.57 116H1150.73C1150.77 116.416 1150.8 116.885 1150.8 117.408V117.568H1150.86C1151.06 117.045 1151.43 116.629 1151.95 116.32C1152.48 116 1153.09 115.84 1153.77 115.84C1153.91 115.84 1154.08 115.856 1154.27 115.888V117.664C1154.25 117.653 1154.14 117.648 1153.95 117.648C1153.4 117.648 1152.9 117.787 1152.43 118.064C1151.96 118.341 1151.59 118.709 1151.31 119.168C1151.03 119.627 1150.89 120.123 1150.89 120.656V124H1148.62V117.952ZM1162.75 120.832H1157.25C1157.34 121.312 1157.54 121.669 1157.84 121.904C1158.15 122.139 1158.56 122.256 1159.09 122.256C1159.54 122.256 1159.94 122.181 1160.29 122.032C1160.63 121.883 1160.97 121.627 1161.31 121.264L1162.53 122.416C1162.22 122.939 1161.73 123.36 1161.07 123.68C1160.42 124 1159.71 124.16 1158.94 124.16C1157.68 124.16 1156.7 123.797 1155.98 123.072C1155.27 122.336 1154.91 121.323 1154.91 120.032C1154.91 118.731 1155.27 117.707 1155.98 116.96C1156.7 116.213 1157.68 115.84 1158.93 115.84C1160.12 115.84 1161.05 116.213 1161.73 116.96C1162.41 117.696 1162.75 118.715 1162.75 120.016V120.832ZM1160.51 119.216C1160.51 118.747 1160.37 118.379 1160.08 118.112C1159.79 117.835 1159.4 117.696 1158.89 117.696C1158.45 117.696 1158.08 117.84 1157.79 118.128C1157.5 118.405 1157.31 118.8 1157.21 119.312H1160.51V119.216ZM1171.55 120.832H1166.04C1166.14 121.312 1166.34 121.669 1166.63 121.904C1166.94 122.139 1167.36 122.256 1167.88 122.256C1168.34 122.256 1168.74 122.181 1169.08 122.032C1169.42 121.883 1169.77 121.627 1170.11 121.264L1171.32 122.416C1171.01 122.939 1170.53 123.36 1169.87 123.68C1169.22 124 1168.51 124.16 1167.74 124.16C1166.48 124.16 1165.49 123.797 1164.78 123.072C1164.06 122.336 1163.71 121.323 1163.71 120.032C1163.71 118.731 1164.06 117.707 1164.78 116.96C1165.49 116.213 1166.47 115.84 1167.72 115.84C1168.92 115.84 1169.85 116.213 1170.52 116.96C1171.21 117.696 1171.55 118.715 1171.55 120.016V120.832ZM1169.31 119.216C1169.31 118.747 1169.16 118.379 1168.87 118.112C1168.59 117.835 1168.19 117.696 1167.69 117.696C1167.24 117.696 1166.87 117.84 1166.59 118.128C1166.3 118.405 1166.11 118.8 1166.01 119.312H1169.31V119.216ZM1172.82 117.952C1172.82 117.045 1172.81 116.395 1172.78 116H1174.94C1174.98 116.416 1175 116.885 1175 117.408V117.568H1175.06C1175.27 117.045 1175.63 116.629 1176.15 116.32C1176.68 116 1177.29 115.84 1177.98 115.84C1178.11 115.84 1178.28 115.856 1178.47 115.888V117.664C1178.45 117.653 1178.34 117.648 1178.15 117.648C1177.61 117.648 1177.1 117.787 1176.63 118.064C1176.16 118.341 1175.79 118.709 1175.51 119.168C1175.23 119.627 1175.1 120.123 1175.1 120.656V124H1172.82V117.952ZM1182.06 124.16C1181.33 124.16 1180.7 124.016 1180.15 123.728C1179.61 123.44 1179.23 123.056 1179.02 122.576L1180.42 121.616C1180.62 121.883 1180.86 122.096 1181.14 122.256C1181.43 122.405 1181.73 122.48 1182.02 122.48C1182.36 122.48 1182.63 122.4 1182.84 122.24C1183.05 122.08 1183.16 121.877 1183.16 121.632C1183.16 121.504 1183.13 121.403 1183.06 121.328C1183.01 121.243 1182.9 121.157 1182.73 121.072C1182.56 120.987 1182.29 120.869 1181.91 120.72C1180.91 120.325 1180.21 119.936 1179.8 119.552C1179.41 119.157 1179.21 118.672 1179.21 118.096C1179.21 117.413 1179.49 116.869 1180.04 116.464C1180.6 116.048 1181.33 115.84 1182.25 115.84C1182.88 115.84 1183.44 115.957 1183.93 116.192C1184.43 116.416 1184.84 116.747 1185.16 117.184L1183.85 118.16C1183.49 117.733 1182.99 117.52 1182.36 117.52C1182.07 117.52 1181.85 117.568 1181.69 117.664C1181.54 117.76 1181.46 117.893 1181.46 118.064C1181.46 118.192 1181.5 118.299 1181.56 118.384C1181.62 118.459 1181.75 118.549 1181.94 118.656C1182.15 118.752 1182.48 118.891 1182.95 119.072C1183.61 119.328 1184.12 119.573 1184.47 119.808C1184.82 120.043 1185.07 120.293 1185.21 120.56C1185.36 120.816 1185.43 121.136 1185.43 121.52C1185.43 122.043 1185.29 122.507 1185 122.912C1184.72 123.307 1184.33 123.616 1183.82 123.84C1183.3 124.053 1182.72 124.16 1182.06 124.16Z" fill="black"></path><path d="M1217.28 112.8H1221.14C1222.41 112.8 1223.38 113.045 1224.07 113.536C1224.75 114.027 1225.09 114.725 1225.09 115.632C1225.09 116.133 1224.97 116.571 1224.74 116.944C1224.5 117.317 1224.14 117.653 1223.63 117.952V117.984C1224.3 118.261 1224.77 118.613 1225.06 119.04C1225.36 119.467 1225.51 120.011 1225.51 120.672C1225.51 121.739 1225.19 122.56 1224.55 123.136C1223.92 123.712 1223.02 124 1221.86 124H1217.28V112.8ZM1221.28 117.184C1221.66 117.184 1221.95 117.072 1222.16 116.848C1222.39 116.613 1222.5 116.304 1222.5 115.92C1222.5 115.152 1221.99 114.768 1220.98 114.768H1219.86V117.184H1221.28ZM1221.62 122.032C1222.03 122.032 1222.36 121.893 1222.59 121.616C1222.84 121.339 1222.96 120.965 1222.96 120.496C1222.96 119.984 1222.82 119.616 1222.53 119.392C1222.24 119.157 1221.77 119.04 1221.12 119.04H1219.86V122.032H1221.62ZM1229.11 124.16C1228.4 124.16 1227.85 123.973 1227.46 123.6C1227.08 123.227 1226.89 122.688 1226.89 121.984V112.128H1229.16V122.032C1229.16 122.416 1229.39 122.608 1229.86 122.608C1230.13 122.608 1230.44 122.533 1230.81 122.384L1231.14 123.568C1230.63 123.963 1229.95 124.16 1229.11 124.16ZM1235.12 124.16C1233.8 124.16 1232.76 123.792 1232.01 123.056C1231.28 122.32 1230.91 121.301 1230.91 120C1230.91 118.699 1231.28 117.68 1232.01 116.944C1232.76 116.208 1233.8 115.84 1235.12 115.84C1236.44 115.84 1237.47 116.208 1238.21 116.944C1238.95 117.68 1239.33 118.699 1239.33 120C1239.33 121.301 1238.95 122.32 1238.21 123.056C1237.47 123.792 1236.44 124.16 1235.12 124.16ZM1235.12 122.48C1235.73 122.48 1236.2 122.261 1236.54 121.824C1236.88 121.387 1237.05 120.779 1237.05 120C1237.05 119.221 1236.88 118.613 1236.54 118.176C1236.2 117.739 1235.73 117.52 1235.12 117.52C1234.51 117.52 1234.04 117.739 1233.69 118.176C1233.35 118.613 1233.18 119.221 1233.18 120C1233.18 120.779 1233.35 121.387 1233.69 121.824C1234.04 122.261 1234.51 122.48 1235.12 122.48ZM1248.04 116V123.664C1248.04 125.029 1247.7 126.059 1247 126.752C1246.32 127.456 1245.3 127.808 1243.95 127.808C1243.3 127.808 1242.69 127.728 1242.12 127.568C1241.56 127.419 1241.06 127.2 1240.64 126.912L1241.39 125.392C1241.76 125.584 1242.17 125.739 1242.6 125.856C1243.05 125.973 1243.46 126.032 1243.84 126.032C1244.52 126.032 1245.03 125.808 1245.36 125.36C1245.69 124.923 1245.85 124.256 1245.85 123.36V123.248C1245.4 123.76 1244.7 124.016 1243.74 124.016C1242.61 124.016 1241.74 123.664 1241.12 122.96C1240.51 122.245 1240.2 121.227 1240.2 119.904C1240.2 118.603 1240.5 117.6 1241.08 116.896C1241.67 116.192 1242.5 115.84 1243.56 115.84C1244.66 115.84 1245.46 116.213 1245.96 116.96H1246L1246.14 116H1248.04ZM1245.77 119.52C1245.77 118.859 1245.64 118.363 1245.37 118.032C1245.11 117.691 1244.71 117.52 1244.19 117.52C1243.62 117.52 1243.19 117.728 1242.89 118.144C1242.6 118.549 1242.46 119.152 1242.46 119.952C1242.46 121.509 1243.03 122.288 1244.17 122.288C1244.7 122.288 1245.09 122.133 1245.36 121.824C1245.63 121.515 1245.77 121.067 1245.77 120.48V119.52Z" fill="black"></path><path d="M1284.8 124.16C1283.73 124.16 1282.8 123.925 1282 123.456C1281.2 122.987 1280.58 122.32 1280.14 121.456C1279.72 120.581 1279.5 119.563 1279.5 118.4C1279.5 117.237 1279.72 116.224 1280.14 115.36C1280.58 114.485 1281.2 113.813 1282 113.344C1282.8 112.875 1283.73 112.64 1284.8 112.64C1285.74 112.64 1286.55 112.821 1287.23 113.184C1287.91 113.536 1288.42 114.037 1288.74 114.688L1287.26 115.952C1286.71 115.109 1285.9 114.688 1284.83 114.688C1283.92 114.688 1283.24 115.003 1282.77 115.632C1282.31 116.251 1282.08 117.173 1282.08 118.4C1282.08 119.616 1282.31 120.539 1282.77 121.168C1283.23 121.797 1283.9 122.112 1284.78 122.112C1285.9 122.112 1286.73 121.691 1287.26 120.848L1288.74 122.112C1288.42 122.763 1287.91 123.269 1287.23 123.632C1286.55 123.984 1285.74 124.16 1284.8 124.16ZM1293.81 124.16C1292.48 124.16 1291.45 123.792 1290.7 123.056C1289.97 122.32 1289.6 121.301 1289.6 120C1289.6 118.699 1289.97 117.68 1290.7 116.944C1291.45 116.208 1292.48 115.84 1293.81 115.84C1295.13 115.84 1296.16 116.208 1296.89 116.944C1297.64 117.68 1298.01 118.699 1298.01 120C1298.01 121.301 1297.64 122.32 1296.89 123.056C1296.16 123.792 1295.13 124.16 1293.81 124.16ZM1293.81 122.48C1294.41 122.48 1294.89 122.261 1295.23 121.824C1295.57 121.387 1295.74 120.779 1295.74 120C1295.74 119.221 1295.57 118.613 1295.23 118.176C1294.89 117.739 1294.41 117.52 1293.81 117.52C1293.2 117.52 1292.72 117.739 1292.38 118.176C1292.04 118.613 1291.87 119.221 1291.87 120C1291.87 120.779 1292.04 121.387 1292.38 121.824C1292.72 122.261 1293.2 122.48 1293.81 122.48ZM1299.18 118.144C1299.18 117.195 1299.16 116.48 1299.12 116H1301.24C1301.31 116.491 1301.34 116.955 1301.34 117.392H1301.37C1301.55 116.933 1301.88 116.56 1302.36 116.272C1302.85 115.984 1303.4 115.84 1304 115.84C1304.91 115.84 1305.61 116.149 1306.08 116.768C1306.55 117.387 1306.78 118.304 1306.78 119.52V124H1304.51V119.504C1304.51 118.864 1304.41 118.4 1304.2 118.112C1304 117.824 1303.68 117.68 1303.23 117.68C1302.69 117.68 1302.26 117.861 1301.93 118.224C1301.61 118.576 1301.45 119.045 1301.45 119.632V124H1299.18V118.144ZM1311.97 124.16C1311.11 124.16 1310.43 123.936 1309.95 123.488C1309.48 123.04 1309.25 122.411 1309.25 121.6V117.68H1307.79V116H1309.25V113.968L1311.46 113.328H1311.52V116H1313.86V117.68H1311.52V121.248C1311.52 121.675 1311.63 121.989 1311.84 122.192C1312.06 122.384 1312.39 122.48 1312.83 122.48C1313.26 122.48 1313.66 122.411 1314.02 122.272L1314.11 123.808C1313.58 124.043 1312.87 124.16 1311.97 124.16ZM1317.69 124.16C1317.17 124.16 1316.7 124.048 1316.28 123.824C1315.87 123.6 1315.54 123.296 1315.31 122.912C1315.07 122.517 1314.96 122.075 1314.96 121.584C1314.96 120.763 1315.29 120.133 1315.95 119.696C1316.61 119.259 1317.56 119.04 1318.8 119.04H1319.92V118.72C1319.92 118.357 1319.8 118.075 1319.56 117.872C1319.33 117.669 1319.01 117.568 1318.6 117.568C1318.12 117.568 1317.66 117.648 1317.21 117.808C1316.77 117.968 1316.41 118.187 1316.12 118.464L1315.15 117.168C1315.61 116.763 1316.14 116.443 1316.76 116.208C1317.39 115.963 1318.03 115.84 1318.67 115.84C1319.76 115.84 1320.61 116.096 1321.24 116.608C1321.87 117.109 1322.19 117.797 1322.19 118.672V122.272C1322.19 122.528 1322.21 122.832 1322.25 123.184C1322.29 123.536 1322.34 123.808 1322.4 124H1320.36C1320.3 123.851 1320.25 123.717 1320.22 123.6C1320.19 123.483 1320.16 123.317 1320.14 123.104H1320.11C1319.51 123.808 1318.7 124.16 1317.69 124.16ZM1318.3 122.48C1318.77 122.48 1319.15 122.363 1319.45 122.128C1319.76 121.883 1319.92 121.573 1319.92 121.2V120.528H1318.73C1318.23 120.528 1317.85 120.619 1317.58 120.8C1317.31 120.981 1317.18 121.243 1317.18 121.584C1317.18 121.872 1317.28 122.096 1317.47 122.256C1317.66 122.405 1317.94 122.48 1318.3 122.48ZM1327.53 124.16C1326.26 124.16 1325.27 123.792 1324.54 123.056C1323.83 122.309 1323.47 121.291 1323.47 120C1323.47 118.709 1323.83 117.696 1324.54 116.96C1325.27 116.213 1326.26 115.84 1327.53 115.84C1328.3 115.84 1328.97 115.984 1329.53 116.272C1330.11 116.549 1330.54 116.949 1330.83 117.472L1329.47 118.656C1329.27 118.315 1329.01 118.048 1328.69 117.856C1328.37 117.664 1328.02 117.568 1327.65 117.568C1327.05 117.568 1326.58 117.787 1326.24 118.224C1325.9 118.651 1325.73 119.243 1325.73 120C1325.73 120.757 1325.9 121.355 1326.24 121.792C1326.58 122.219 1327.05 122.432 1327.65 122.432C1328.02 122.432 1328.37 122.336 1328.69 122.144C1329.01 121.952 1329.27 121.685 1329.47 121.344L1330.83 122.528C1330.54 123.051 1330.11 123.456 1329.53 123.744C1328.97 124.021 1328.3 124.16 1327.53 124.16ZM1335.42 124.16C1334.56 124.16 1333.89 123.936 1333.41 123.488C1332.94 123.04 1332.7 122.411 1332.7 121.6V117.68H1331.25V116H1332.7V113.968L1334.91 113.328H1334.98V116H1337.31V117.68H1334.98V121.248C1334.98 121.675 1335.08 121.989 1335.3 122.192C1335.51 122.384 1335.84 122.48 1336.29 122.48C1336.71 122.48 1337.11 122.411 1337.47 122.272L1337.57 123.808C1337.03 124.043 1336.32 124.16 1335.42 124.16Z" fill="black"></path><rect x="1500" y="90" width="180" height="54" rx="27" fill="#BF9D3E"></rect><path d="M1563.38 125.18C1562.4 125.18 1561.51 124.982 1560.72 124.586C1559.94 124.19 1559.3 123.614 1558.81 122.858L1560.48 121.274C1560.88 121.742 1561.35 122.126 1561.9 122.426C1562.47 122.726 1562.99 122.876 1563.47 122.876C1563.97 122.876 1564.38 122.768 1564.68 122.552C1564.98 122.336 1565.13 122.054 1565.13 121.706C1565.13 121.43 1565.08 121.214 1564.98 121.058C1564.9 120.902 1564.71 120.74 1564.42 120.572C1564.15 120.392 1563.67 120.128 1562.98 119.78C1562.07 119.324 1561.36 118.904 1560.84 118.52C1560.33 118.136 1559.94 117.716 1559.67 117.26C1559.42 116.792 1559.29 116.24 1559.29 115.604C1559.29 114.944 1559.47 114.356 1559.83 113.84C1560.19 113.324 1560.7 112.928 1561.35 112.652C1562.01 112.364 1562.76 112.22 1563.61 112.22C1564.56 112.22 1565.39 112.394 1566.1 112.742C1566.82 113.09 1567.35 113.576 1567.68 114.2L1565.86 115.568C1565.28 114.872 1564.57 114.524 1563.76 114.524C1563.25 114.524 1562.86 114.62 1562.59 114.812C1562.32 114.992 1562.19 115.25 1562.19 115.586C1562.19 115.802 1562.27 116 1562.43 116.18C1562.58 116.36 1562.85 116.564 1563.24 116.792C1563.63 117.008 1564.22 117.296 1565 117.656C1565.76 118.004 1566.35 118.358 1566.78 118.718C1567.21 119.066 1567.52 119.468 1567.7 119.924C1567.89 120.368 1567.99 120.908 1567.99 121.544C1567.99 122.276 1567.8 122.918 1567.41 123.47C1567.04 124.01 1566.51 124.43 1565.81 124.73C1565.11 125.03 1564.3 125.18 1563.38 125.18ZM1569.96 112.4H1572.86V125H1569.96V112.4ZM1585.44 118.052V125H1583.21L1582.98 124.334C1582.18 124.898 1581.27 125.18 1580.22 125.18C1578.54 125.18 1577.24 124.616 1576.32 123.488C1575.4 122.36 1574.95 120.764 1574.95 118.7C1574.95 117.392 1575.19 116.252 1575.67 115.28C1576.16 114.296 1576.85 113.54 1577.74 113.012C1578.64 112.484 1579.69 112.22 1580.89 112.22C1581.94 112.22 1582.86 112.424 1583.62 112.832C1584.4 113.228 1584.97 113.792 1585.32 114.524L1583.66 115.946C1583.37 115.49 1582.99 115.142 1582.53 114.902C1582.06 114.65 1581.52 114.524 1580.92 114.524C1579.92 114.524 1579.15 114.878 1578.62 115.586C1578.1 116.294 1577.85 117.332 1577.85 118.7C1577.85 121.616 1578.78 123.074 1580.64 123.074C1581.34 123.074 1581.99 122.912 1582.58 122.588V120.086H1579.95V118.052H1585.44ZM1597.79 112.4V125H1595.17L1590.31 117.278V125H1587.43V112.4H1590.18L1594.91 119.978V112.4H1597.79ZM1604.92 125.18C1603.28 125.18 1602.03 124.754 1601.18 123.902C1600.34 123.038 1599.92 121.772 1599.92 120.104V112.4H1602.82V120.068C1602.82 120.992 1602.99 121.694 1603.34 122.174C1603.7 122.642 1604.23 122.876 1604.92 122.876C1605.62 122.876 1606.14 122.642 1606.49 122.174C1606.85 121.694 1607.03 120.992 1607.03 120.068V112.4H1609.93V120.104C1609.93 121.772 1609.5 123.038 1608.65 123.902C1607.81 124.754 1606.57 125.18 1604.92 125.18ZM1612.05 112.4H1616.41C1617.92 112.4 1619.07 112.748 1619.85 113.444C1620.64 114.128 1621.03 115.142 1621.03 116.486C1621.03 117.902 1620.63 118.976 1619.83 119.708C1619.04 120.44 1617.87 120.806 1616.32 120.806H1614.95V125H1612.05V112.4ZM1616.52 118.52C1617.07 118.52 1617.49 118.352 1617.78 118.016C1618.06 117.68 1618.21 117.194 1618.21 116.558C1618.21 115.946 1618.05 115.484 1617.74 115.172C1617.44 114.86 1616.99 114.704 1616.39 114.704H1614.95V118.52H1616.52Z" fill="white"></path><rect width="1920" height="60" fill="#BF9D3E"></rect><rect x="1574" y="15" width="30" height="30" rx="15" fill="white"></rect><path d="M1586.72 37L1586.7 30.875H1584V28.25H1586.7V26.5C1586.7 24.1382 1588.2 23 1590.37 23C1591.41 23 1592.3 23.0751 1592.56 23.1087V25.5769L1591.06 25.5776C1589.88 25.5776 1589.65 26.1221 1589.65 26.9211V28.25H1593L1592.1 30.875H1589.65V37H1586.72Z" fill="#BF9D3E"></path><rect x="1612" y="15" width="30" height="30" rx="15" fill="white"></rect><path d="M1631.01 25.095C1630.83 25.095 1630.65 25.1478 1630.5 25.2467C1630.36 25.3456 1630.24 25.4861 1630.17 25.6506C1630.11 25.815 1630.09 25.996 1630.12 26.1706C1630.16 26.3452 1630.24 26.5055 1630.37 26.6314C1630.49 26.7573 1630.65 26.843 1630.83 26.8777C1631 26.9124 1631.18 26.8946 1631.35 26.8265C1631.51 26.7584 1631.65 26.643 1631.75 26.495C1631.85 26.347 1631.91 26.173 1631.91 25.995C1631.91 25.7563 1631.81 25.5274 1631.64 25.3586C1631.47 25.1898 1631.24 25.095 1631.01 25.095ZM1634.45 26.91C1634.44 26.2877 1634.32 25.6721 1634.11 25.0875C1633.92 24.5873 1633.62 24.1345 1633.24 23.76C1632.87 23.3756 1632.41 23.0806 1631.91 22.8975C1631.33 22.6771 1630.71 22.5579 1630.09 22.545C1629.3 22.5 1629.04 22.5 1627 22.5C1624.96 22.5 1624.7 22.5 1623.91 22.545C1623.29 22.5579 1622.67 22.6771 1622.09 22.8975C1621.59 23.0825 1621.13 23.3772 1620.76 23.76C1620.38 24.1314 1620.08 24.5853 1619.9 25.0875C1619.68 25.6705 1619.56 26.2869 1619.54 26.91C1619.5 27.705 1619.5 27.96 1619.5 30C1619.5 32.04 1619.5 32.295 1619.54 33.09C1619.56 33.7131 1619.68 34.3295 1619.9 34.9125C1620.08 35.4147 1620.38 35.8686 1620.76 36.24C1621.13 36.6228 1621.59 36.9175 1622.09 37.1025C1622.67 37.3229 1623.29 37.4421 1623.91 37.455C1624.7 37.5 1624.96 37.5 1627 37.5C1629.04 37.5 1629.3 37.5 1630.09 37.455C1630.71 37.4421 1631.33 37.3229 1631.91 37.1025C1632.41 36.9194 1632.87 36.6244 1633.24 36.24C1633.62 35.8669 1633.92 35.4136 1634.11 34.9125C1634.32 34.3279 1634.44 33.7123 1634.45 33.09C1634.45 32.295 1634.5 32.04 1634.5 30C1634.5 27.96 1634.5 27.705 1634.45 26.91ZM1633.1 33C1633.1 33.4761 1633.01 33.9478 1632.85 34.395C1632.73 34.7214 1632.54 35.0163 1632.29 35.2575C1632.04 35.5054 1631.75 35.6973 1631.42 35.82C1630.98 35.9833 1630.51 36.0695 1630.03 36.075C1629.28 36.1125 1629 36.12 1627.03 36.12C1625.06 36.12 1624.78 36.12 1624.03 36.075C1623.54 36.0843 1623.04 36.0081 1622.57 35.85C1622.26 35.7211 1621.98 35.5296 1621.75 35.2875C1621.5 35.0466 1621.31 34.7514 1621.2 34.425C1621.01 33.9714 1620.91 33.489 1620.89 33C1620.89 32.25 1620.85 31.9725 1620.85 30C1620.85 28.0275 1620.85 27.75 1620.89 27C1620.9 26.5133 1620.99 26.031 1621.16 25.575C1621.29 25.2584 1621.49 24.9762 1621.75 24.75C1621.98 24.4921 1622.26 24.2873 1622.57 24.15C1623.03 23.985 1623.51 23.8988 1624 23.895C1624.75 23.895 1625.03 23.85 1627 23.85C1628.97 23.85 1629.25 23.85 1630 23.895C1630.48 23.9005 1630.95 23.9867 1631.4 24.15C1631.74 24.2765 1632.04 24.4821 1632.29 24.75C1632.53 24.9804 1632.73 25.262 1632.85 25.575C1633.02 26.0317 1633.1 26.5138 1633.1 27C1633.14 27.75 1633.15 28.0275 1633.15 30C1633.15 31.9725 1633.14 32.25 1633.1 33ZM1627 26.1525C1626.24 26.154 1625.5 26.3809 1624.86 26.8046C1624.23 27.2282 1623.74 27.8296 1623.45 28.5328C1623.16 29.236 1623.09 30.0093 1623.23 30.7552C1623.38 31.501 1623.75 32.1859 1624.29 32.7232C1624.83 33.2606 1625.51 33.6263 1626.26 33.7741C1627.01 33.922 1627.78 33.8453 1628.48 33.5539C1629.18 33.2625 1629.78 32.7693 1630.21 32.1368C1630.63 31.5042 1630.85 30.7606 1630.85 30C1630.86 29.4938 1630.76 28.9925 1630.56 28.5247C1630.37 28.057 1630.09 27.6321 1629.73 27.2745C1629.37 26.917 1628.94 26.6338 1628.48 26.4412C1628.01 26.2486 1627.51 26.1505 1627 26.1525ZM1627 32.4975C1626.51 32.4975 1626.02 32.351 1625.61 32.0766C1625.2 31.8022 1624.88 31.4121 1624.69 30.9558C1624.5 30.4994 1624.45 29.9972 1624.55 29.5128C1624.65 29.0283 1624.88 28.5833 1625.23 28.234C1625.58 27.8847 1626.03 27.6469 1626.51 27.5505C1627 27.4541 1627.5 27.5036 1627.96 27.6926C1628.41 27.8816 1628.8 28.2018 1629.08 28.6125C1629.35 29.0232 1629.5 29.506 1629.5 30C1629.5 30.328 1629.43 30.6527 1629.31 30.9558C1629.18 31.2588 1629 31.5341 1628.77 31.766C1628.53 31.9979 1628.26 32.1819 1627.96 32.3074C1627.65 32.4329 1627.33 32.4975 1627 32.4975Z" fill="#BF9D3E"></path><rect x="1650" y="15" width="30" height="30" rx="15" fill="white"></rect><path d="M1673.25 28.2825C1673.29 27.209 1673.05 26.1435 1672.57 25.185C1672.24 24.7917 1671.78 24.5263 1671.28 24.435C1669.19 24.2456 1667.1 24.168 1665 24.2025C1662.91 24.1665 1660.82 24.2416 1658.75 24.4275C1658.33 24.5023 1657.95 24.6951 1657.65 24.9825C1656.98 25.605 1656.9 26.67 1656.83 27.57C1656.72 29.1882 1656.72 30.8118 1656.83 32.43C1656.85 32.9365 1656.92 33.4394 1657.05 33.93C1657.14 34.3088 1657.32 34.6592 1657.58 34.95C1657.89 35.2526 1658.28 35.4564 1658.7 35.535C1660.32 35.7346 1661.95 35.8173 1663.58 35.7825C1666.2 35.82 1668.5 35.7825 1671.23 35.5725C1671.66 35.4987 1672.06 35.2946 1672.37 34.9875C1672.58 34.7774 1672.74 34.5203 1672.83 34.2375C1673.1 33.4144 1673.23 32.5531 1673.22 31.6875C1673.25 31.2675 1673.25 28.7325 1673.25 28.2825ZM1663.31 32.1375V27.495L1667.75 29.8275C1666.5 30.5175 1664.86 31.2975 1663.31 32.1375Z" fill="#BF9D3E"></path><g clip-path="url(#clip0_258_1937)"><path fill-rule="evenodd" clip-rule="evenodd" d="M263.568 38.7935C262.828 41.0447 259.925 42.1679 257.852 41.9807C255.02 41.7247 251.938 40.2223 249.599 38.5679C246.16 36.1359 242.94 32.3743 241.063 28.3823C239.736 25.5615 239.439 22.0927 241.412 19.5215C242.141 18.5711 242.932 18.0639 244.116 18.0047C245.76 17.9247 245.991 18.8655 246.556 20.3311C246.976 21.4271 247.538 22.5455 247.852 23.6815C248.439 25.8015 246.386 25.8895 246.127 27.6223C245.967 28.7151 247.29 30.1807 247.888 30.9599C249.042 32.4775 250.455 33.7791 252.061 34.8047C252.973 35.3791 254.442 36.4143 255.485 35.8431C257.092 34.9631 256.941 32.2543 259.186 33.1711C260.349 33.6447 261.476 34.3279 262.586 34.9263C264.303 35.8495 264.223 36.8063 263.568 38.7935C264.058 37.3087 263.079 40.2783 263.568 38.7935Z" fill="white"></path></g><path d="M279.872 33.656H276.72V31.96H279.872V28.616H282.048V31.96H285.2V33.656H282.048V37H279.872V33.656ZM287.73 35.112H289.506V28.664L287.458 29.864V27.592L290.386 25.8H292.082V35.112H293.842V37H287.73V35.112ZM303.374 37.16C302.564 37.16 301.849 36.9787 301.23 36.616C300.612 36.2533 300.132 35.7467 299.79 35.096C299.449 34.4347 299.278 33.672 299.278 32.808C299.278 31.592 299.593 30.4453 300.222 29.368C300.852 28.28 301.705 27.3947 302.782 26.712C303.87 26.0187 305.06 25.6293 306.35 25.544L306.59 27.48C305.812 27.5867 305.097 27.816 304.446 28.168C303.796 28.5093 303.262 28.9787 302.846 29.576C303.038 29.544 303.252 29.528 303.486 29.528C304.681 29.528 305.62 29.8693 306.302 30.552C306.985 31.224 307.326 32.1573 307.326 33.352C307.326 34.1093 307.161 34.776 306.83 35.352C306.5 35.928 306.036 36.376 305.438 36.696C304.841 37.0053 304.153 37.16 303.374 37.16ZM303.358 35.112C303.796 35.112 304.142 34.952 304.398 34.632C304.665 34.3013 304.798 33.8693 304.798 33.336C304.798 32.8027 304.665 32.376 304.398 32.056C304.142 31.7253 303.796 31.56 303.358 31.56C302.921 31.56 302.569 31.7253 302.302 32.056C302.046 32.376 301.918 32.8027 301.918 33.336C301.918 33.8693 302.046 34.3013 302.302 34.632C302.569 34.952 302.921 35.112 303.358 35.112ZM312.995 35.32H308.115V33.592L312.899 25.8H315.571V33.288H316.723V35.32H315.571V37H312.995V35.32ZM312.995 33.288V29.384L310.547 33.288H312.995ZM319.624 37C319.678 35.0587 319.912 33.352 320.328 31.88C320.744 30.408 321.406 29.0587 322.312 27.832H317.656V25.8H325.448V27.4C324.403 28.4987 323.598 29.9013 323.032 31.608C322.478 33.304 322.2 35.1013 322.2 37H319.624ZM326.429 31.976H331.229V33.512H326.429V31.976ZM332.827 35.32C333.659 35.1707 334.427 34.9147 335.131 34.552C335.835 34.1893 336.368 33.7413 336.731 33.208C336.39 33.2507 336.123 33.272 335.931 33.272C335.174 33.272 334.502 33.112 333.915 32.792C333.339 32.472 332.891 32.024 332.571 31.448C332.251 30.872 332.091 30.2053 332.091 29.448C332.091 28.7013 332.256 28.04 332.587 27.464C332.918 26.888 333.382 26.4453 333.979 26.136C334.576 25.816 335.264 25.656 336.043 25.656C336.854 25.656 337.568 25.8427 338.187 26.216C338.806 26.5787 339.286 27.0907 339.627 27.752C339.968 28.4133 340.139 29.1813 340.139 30.056C340.139 31.3893 339.851 32.5787 339.275 33.624C338.699 34.6693 337.888 35.5067 336.843 36.136C335.798 36.7653 334.592 37.1387 333.227 37.256L332.827 35.32ZM336.043 31.4C336.48 31.4 336.832 31.224 337.099 30.872C337.366 30.52 337.499 30.0507 337.499 29.464C337.499 28.9307 337.366 28.504 337.099 28.184C336.832 27.8533 336.48 27.688 336.043 27.688C335.616 27.688 335.27 27.8533 335.003 28.184C334.747 28.504 334.619 28.9307 334.619 29.464C334.619 30.0507 334.747 30.52 335.003 30.872C335.27 31.224 335.616 31.4 336.043 31.4ZM345.312 37.16C344.501 37.16 343.787 36.9787 343.168 36.616C342.549 36.2533 342.069 35.7467 341.728 35.096C341.387 34.4347 341.216 33.672 341.216 32.808C341.216 31.592 341.531 30.4453 342.16 29.368C342.789 28.28 343.643 27.3947 344.72 26.712C345.808 26.0187 346.997 25.6293 348.288 25.544L348.528 27.48C347.749 27.5867 347.035 27.816 346.384 28.168C345.733 28.5093 345.2 28.9787 344.784 29.576C344.976 29.544 345.189 29.528 345.424 29.528C346.619 29.528 347.557 29.8693 348.24 30.552C348.923 31.224 349.264 32.1573 349.264 33.352C349.264 34.1093 349.099 34.776 348.768 35.352C348.437 35.928 347.973 36.376 347.376 36.696C346.779 37.0053 346.091 37.16 345.312 37.16ZM345.296 35.112C345.733 35.112 346.08 34.952 346.336 34.632C346.603 34.3013 346.736 33.8693 346.736 33.336C346.736 32.8027 346.603 32.376 346.336 32.056C346.08 31.7253 345.733 31.56 345.296 31.56C344.859 31.56 344.507 31.7253 344.24 32.056C343.984 32.376 343.856 32.8027 343.856 33.336C343.856 33.8693 343.984 34.3013 344.24 34.632C344.507 34.952 344.859 35.112 345.296 35.112ZM354.437 37.16C353.626 37.16 352.912 36.9787 352.293 36.616C351.674 36.2533 351.194 35.7467 350.853 35.096C350.512 34.4347 350.341 33.672 350.341 32.808C350.341 31.592 350.656 30.4453 351.285 29.368C351.914 28.28 352.768 27.3947 353.845 26.712C354.933 26.0187 356.122 25.6293 357.413 25.544L357.653 27.48C356.874 27.5867 356.16 27.816 355.509 28.168C354.858 28.5093 354.325 28.9787 353.909 29.576C354.101 29.544 354.314 29.528 354.549 29.528C355.744 29.528 356.682 29.8693 357.365 30.552C358.048 31.224 358.389 32.1573 358.389 33.352C358.389 34.1093 358.224 34.776 357.893 35.352C357.562 35.928 357.098 36.376 356.501 36.696C355.904 37.0053 355.216 37.16 354.437 37.16ZM354.421 35.112C354.858 35.112 355.205 34.952 355.461 34.632C355.728 34.3013 355.861 33.8693 355.861 33.336C355.861 32.8027 355.728 32.376 355.461 32.056C355.205 31.7253 354.858 31.56 354.421 31.56C353.984 31.56 353.632 31.7253 353.365 32.056C353.109 32.376 352.981 32.8027 352.981 33.336C352.981 33.8693 353.109 34.3013 353.365 34.632C353.632 34.952 353.984 35.112 354.421 35.112ZM359.242 31.976H364.042V33.512H359.242V31.976ZM368.807 37.144C367.954 37.144 367.197 36.9893 366.535 36.68C365.874 36.3707 365.373 35.9333 365.031 35.368L366.279 33.992C366.589 34.3227 366.967 34.5947 367.415 34.808C367.863 35.0107 368.29 35.112 368.695 35.112C369.175 35.112 369.559 34.9733 369.847 34.696C370.146 34.408 370.295 34.0347 370.295 33.576C370.295 33.0853 370.125 32.7067 369.783 32.44C369.442 32.1733 368.957 32.04 368.327 32.04H367.239V30.248H368.311C368.781 30.248 369.165 30.1147 369.463 29.848C369.773 29.5707 369.927 29.2187 369.927 28.792C369.927 28.4293 369.81 28.1573 369.575 27.976C369.341 27.784 368.994 27.688 368.535 27.688C367.618 27.688 366.829 28.0613 366.167 28.808L364.983 27.416C365.389 26.872 365.938 26.4453 366.631 26.136C367.325 25.816 368.077 25.656 368.887 25.656C369.602 25.656 370.231 25.7787 370.775 26.024C371.319 26.2587 371.741 26.5947 372.039 27.032C372.338 27.4587 372.487 27.9547 372.487 28.52C372.487 29.064 372.349 29.5493 372.071 29.976C371.794 30.4027 371.383 30.7547 370.839 31.032C371.533 31.3093 372.045 31.672 372.375 32.12C372.706 32.568 372.871 33.1173 372.871 33.768C372.871 34.44 372.701 35.032 372.359 35.544C372.029 36.056 371.554 36.4507 370.935 36.728C370.327 37.0053 369.618 37.144 368.807 37.144ZM377.932 37.144C377.079 37.144 376.322 36.9893 375.66 36.68C374.999 36.3707 374.498 35.9333 374.156 35.368L375.404 33.992C375.714 34.3227 376.092 34.5947 376.54 34.808C376.988 35.0107 377.415 35.112 377.82 35.112C378.3 35.112 378.684 34.9733 378.972 34.696C379.271 34.408 379.42 34.0347 379.42 33.576C379.42 33.0853 379.25 32.7067 378.908 32.44C378.567 32.1733 378.082 32.04 377.452 32.04H376.364V30.248H377.436C377.906 30.248 378.29 30.1147 378.588 29.848C378.898 29.5707 379.052 29.2187 379.052 28.792C379.052 28.4293 378.935 28.1573 378.7 27.976C378.466 27.784 378.119 27.688 377.66 27.688C376.743 27.688 375.954 28.0613 375.292 28.808L374.108 27.416C374.514 26.872 375.063 26.4453 375.756 26.136C376.45 25.816 377.202 25.656 378.012 25.656C378.727 25.656 379.356 25.7787 379.9 26.024C380.444 26.2587 380.866 26.5947 381.164 27.032C381.463 27.4587 381.612 27.9547 381.612 28.52C381.612 29.064 381.474 29.5493 381.196 29.976C380.919 30.4027 380.508 30.7547 379.964 31.032C380.658 31.3093 381.17 31.672 381.5 32.12C381.831 32.568 381.996 33.1173 381.996 33.768C381.996 34.44 381.826 35.032 381.484 35.544C381.154 36.056 380.679 36.4507 380.06 36.728C379.452 37.0053 378.743 37.144 377.932 37.144ZM387.249 37.16C386.439 37.16 385.724 36.9787 385.105 36.616C384.487 36.2533 384.007 35.7467 383.665 35.096C383.324 34.4347 383.153 33.672 383.153 32.808C383.153 31.592 383.468 30.4453 384.097 29.368C384.727 28.28 385.58 27.3947 386.657 26.712C387.745 26.0187 388.935 25.6293 390.225 25.544L390.465 27.48C389.687 27.5867 388.972 27.816 388.321 28.168C387.671 28.5093 387.137 28.9787 386.721 29.576C386.913 29.544 387.127 29.528 387.361 29.528C388.556 29.528 389.495 29.8693 390.177 30.552C390.86 31.224 391.201 32.1573 391.201 33.352C391.201 34.1093 391.036 34.776 390.705 35.352C390.375 35.928 389.911 36.376 389.313 36.696C388.716 37.0053 388.028 37.16 387.249 37.16ZM387.233 35.112C387.671 35.112 388.017 34.952 388.273 34.632C388.54 34.3013 388.673 33.8693 388.673 33.336C388.673 32.8027 388.54 32.376 388.273 32.056C388.017 31.7253 387.671 31.56 387.233 31.56C386.796 31.56 386.444 31.7253 386.177 32.056C385.921 32.376 385.793 32.8027 385.793 33.336C385.793 33.8693 385.921 34.3013 386.177 34.632C386.444 34.952 386.796 35.112 387.233 35.112ZM396.182 37.144C395.329 37.144 394.572 36.9893 393.91 36.68C393.249 36.3707 392.748 35.9333 392.406 35.368L393.654 33.992C393.964 34.3227 394.342 34.5947 394.79 34.808C395.238 35.0107 395.665 35.112 396.07 35.112C396.55 35.112 396.934 34.9733 397.222 34.696C397.521 34.408 397.67 34.0347 397.67 33.576C397.67 33.0853 397.5 32.7067 397.158 32.44C396.817 32.1733 396.332 32.04 395.702 32.04H394.614V30.248H395.686C396.156 30.248 396.54 30.1147 396.838 29.848C397.148 29.5707 397.302 29.2187 397.302 28.792C397.302 28.4293 397.185 28.1573 396.95 27.976C396.716 27.784 396.369 27.688 395.91 27.688C394.993 27.688 394.204 28.0613 393.542 28.808L392.358 27.416C392.764 26.872 393.313 26.4453 394.006 26.136C394.7 25.816 395.452 25.656 396.262 25.656C396.977 25.656 397.606 25.7787 398.15 26.024C398.694 26.2587 399.116 26.5947 399.414 27.032C399.713 27.4587 399.862 27.9547 399.862 28.52C399.862 29.064 399.724 29.5493 399.446 29.976C399.169 30.4027 398.758 30.7547 398.214 31.032C398.908 31.3093 399.42 31.672 399.75 32.12C400.081 32.568 400.246 33.1173 400.246 33.768C400.246 34.44 400.076 35.032 399.734 35.544C399.404 36.056 398.929 36.4507 398.31 36.728C397.702 37.0053 396.993 37.144 396.182 37.144Z" fill="white"></path><g clip-path="url(#clip1_258_1937)"><path d="M440.515 38.486C438.264 36.2354 437 33.183 437 30.0003C437 26.8176 438.264 23.7653 440.515 21.5147C442.765 19.2643 445.817 18 449 18C452.183 18 455.235 19.2643 457.485 21.5147C459.736 23.7653 461 26.8176 461 30.0003C461 33.183 459.736 36.2354 457.485 38.486C456.372 39.6019 455.05 40.4868 453.593 41.0898C452.137 41.6929 450.576 42.0022 449 42C447.424 42.0021 445.863 41.6927 444.407 41.0896C442.951 40.4866 441.628 39.6018 440.515 38.486ZM442.106 23.1098C440.28 24.9399 439.255 27.4195 439.255 30.0047C439.255 32.5899 440.28 35.0695 442.106 36.8996C443.936 38.7258 446.415 39.7515 449.001 39.7515C451.586 39.7515 454.065 38.7258 455.895 36.8996C457.721 35.0695 458.747 32.5899 458.747 30.0047C458.747 27.4195 457.721 24.9399 455.895 23.1098C454.991 22.2019 453.917 21.4817 452.733 20.9906C451.55 20.4995 450.281 20.2473 449 20.2484C447.719 20.2469 446.451 20.4985 445.268 20.9887C444.085 21.4789 443.01 22.1981 442.106 23.1048V23.1098ZM450.828 33.4268L448.175 30.7741C447.947 30.546 447.819 30.2366 447.819 29.9141V23.8536C447.819 23.6939 447.85 23.5357 447.911 23.3882C447.972 23.2406 448.062 23.1065 448.175 22.9935C448.288 22.8806 448.422 22.791 448.57 22.7299C448.717 22.6687 448.875 22.6373 449.035 22.6373C449.358 22.6373 449.667 22.7654 449.895 22.9935C450.123 23.2217 450.251 23.531 450.251 23.8536V29.4053L452.548 31.7017C452.776 31.9298 452.904 32.2392 452.904 32.5618C452.904 32.8844 452.776 33.1937 452.548 33.4218C452.435 33.535 452.301 33.6247 452.153 33.6858C452.006 33.7469 451.847 33.7783 451.688 33.7781C451.528 33.7783 451.37 33.7468 451.222 33.6857C451.075 33.6246 450.94 33.5349 450.828 33.4218V33.4268Z" fill="white"></path></g><path d="M476.424 37.16C475.699 37.16 475.064 37.016 474.52 36.728C473.976 36.44 473.597 36.056 473.384 35.576L474.792 34.616C474.984 34.8827 475.224 35.096 475.512 35.256C475.8 35.4053 476.093 35.48 476.392 35.48C476.723 35.48 476.995 35.4 477.208 35.24C477.421 35.08 477.528 34.8773 477.528 34.632C477.528 34.504 477.496 34.4027 477.432 34.328C477.379 34.2427 477.267 34.1573 477.096 34.072C476.925 33.9867 476.653 33.8693 476.28 33.72C475.277 33.3253 474.573 32.936 474.168 32.552C473.773 32.1573 473.576 31.672 473.576 31.096C473.576 30.4133 473.853 29.8693 474.408 29.464C474.963 29.048 475.699 28.84 476.616 28.84C477.245 28.84 477.805 28.9573 478.296 29.192C478.797 29.416 479.208 29.7467 479.528 30.184L478.216 31.16C477.853 30.7333 477.357 30.52 476.728 30.52C476.44 30.52 476.216 30.568 476.056 30.664C475.907 30.76 475.832 30.8933 475.832 31.064C475.832 31.192 475.864 31.2987 475.928 31.384C475.992 31.4587 476.12 31.5493 476.312 31.656C476.515 31.752 476.851 31.8907 477.32 32.072C477.981 32.328 478.488 32.5733 478.84 32.808C479.192 33.0427 479.437 33.2933 479.576 33.56C479.725 33.816 479.8 34.136 479.8 34.52C479.8 35.0427 479.656 35.5067 479.368 35.912C479.091 36.3067 478.696 36.616 478.184 36.84C477.672 37.0533 477.085 37.16 476.424 37.16ZM483.356 37.16C482.833 37.16 482.364 37.048 481.948 36.824C481.532 36.6 481.206 36.296 480.972 35.912C480.737 35.5173 480.62 35.0747 480.62 34.584C480.62 33.7627 480.95 33.1333 481.612 32.696C482.273 32.2587 483.222 32.04 484.46 32.04H485.58V31.72C485.58 31.3573 485.462 31.0747 485.228 30.872C484.993 30.6693 484.673 30.568 484.268 30.568C483.788 30.568 483.324 30.648 482.876 30.808C482.438 30.968 482.076 31.1867 481.788 31.464L480.812 30.168C481.27 29.7627 481.809 29.4427 482.428 29.208C483.057 28.9627 483.692 28.84 484.332 28.84C485.42 28.84 486.278 29.096 486.908 29.608C487.537 30.1093 487.852 30.7973 487.852 31.672V35.272C487.852 35.528 487.873 35.832 487.916 36.184C487.958 36.536 488.006 36.808 488.06 37H486.028C485.964 36.8507 485.916 36.7173 485.884 36.6C485.852 36.4827 485.825 36.3173 485.804 36.104H485.772C485.174 36.808 484.369 37.16 483.356 37.16ZM483.964 35.48C484.433 35.48 484.817 35.3627 485.116 35.128C485.425 34.8827 485.58 34.5733 485.58 34.2V33.528H484.396C483.894 33.528 483.51 33.6187 483.244 33.8C482.977 33.9813 482.844 34.2427 482.844 34.584C482.844 34.872 482.94 35.096 483.132 35.256C483.324 35.4053 483.601 35.48 483.964 35.48ZM491.79 37.16C491.076 37.16 490.526 36.9733 490.142 36.6C489.758 36.2267 489.566 35.688 489.566 34.984V25.128H491.838V35.032C491.838 35.416 492.073 35.608 492.542 35.608C492.809 35.608 493.124 35.5333 493.486 35.384L493.822 36.568C493.31 36.9627 492.633 37.16 491.79 37.16ZM501.429 33.832H495.925C496.021 34.312 496.219 34.6693 496.517 34.904C496.827 35.1387 497.243 35.256 497.765 35.256C498.224 35.256 498.624 35.1813 498.965 35.032C499.307 34.8827 499.648 34.6267 499.989 34.264L501.205 35.416C500.896 35.9387 500.411 36.36 499.749 36.68C499.099 37 498.389 37.16 497.621 37.16C496.363 37.16 495.376 36.7973 494.661 36.072C493.947 35.336 493.589 34.3227 493.589 33.032C493.589 31.7307 493.947 30.7067 494.661 29.96C495.376 29.2133 496.357 28.84 497.605 28.84C498.8 28.84 499.733 29.2133 500.405 29.96C501.088 30.696 501.429 31.7147 501.429 33.016V33.832ZM499.189 32.216C499.189 31.7467 499.045 31.3787 498.757 31.112C498.469 30.8347 498.075 30.696 497.573 30.696C497.125 30.696 496.757 30.84 496.469 31.128C496.181 31.4053 495.989 31.8 495.893 32.312H499.189V32.216ZM505.643 37.16C504.917 37.16 504.283 37.016 503.739 36.728C503.195 36.44 502.816 36.056 502.603 35.576L504.011 34.616C504.203 34.8827 504.443 35.096 504.731 35.256C505.019 35.4053 505.312 35.48 505.611 35.48C505.941 35.48 506.213 35.4 506.427 35.24C506.64 35.08 506.747 34.8773 506.747 34.632C506.747 34.504 506.715 34.4027 506.651 34.328C506.597 34.2427 506.485 34.1573 506.315 34.072C506.144 33.9867 505.872 33.8693 505.499 33.72C504.496 33.3253 503.792 32.936 503.387 32.552C502.992 32.1573 502.795 31.672 502.795 31.096C502.795 30.4133 503.072 29.8693 503.627 29.464C504.181 29.048 504.917 28.84 505.835 28.84C506.464 28.84 507.024 28.9573 507.515 29.192C508.016 29.416 508.427 29.7467 508.747 30.184L507.435 31.16C507.072 30.7333 506.576 30.52 505.947 30.52C505.659 30.52 505.435 30.568 505.275 30.664C505.125 30.76 505.051 30.8933 505.051 31.064C505.051 31.192 505.083 31.2987 505.147 31.384C505.211 31.4587 505.339 31.5493 505.531 31.656C505.733 31.752 506.069 31.8907 506.539 32.072C507.2 32.328 507.707 32.5733 508.059 32.808C508.411 33.0427 508.656 33.2933 508.795 33.56C508.944 33.816 509.019 34.136 509.019 34.52C509.019 35.0427 508.875 35.5067 508.587 35.912C508.309 36.3067 507.915 36.616 507.403 36.84C506.891 37.0533 506.304 37.16 505.643 37.16ZM515.518 39.432C514.441 39.432 513.476 39.192 512.622 38.712C511.78 38.232 511.124 37.56 510.654 36.696C510.185 35.8213 509.95 34.8293 509.95 33.72C509.95 32.4933 510.212 31.4 510.734 30.44C511.257 29.48 511.988 28.7333 512.926 28.2C513.865 27.6667 514.937 27.4 516.142 27.4C517.23 27.4 518.196 27.624 519.038 28.072C519.892 28.52 520.553 29.1493 521.022 29.96C521.492 30.76 521.726 31.672 521.726 32.696C521.726 33.4533 521.588 34.1307 521.31 34.728C521.044 35.3147 520.665 35.7733 520.174 36.104C519.694 36.4347 519.14 36.6 518.51 36.6H518.094L517.63 35.656C517.364 35.9547 517.022 36.2 516.606 36.392C516.201 36.5733 515.801 36.664 515.406 36.664C514.713 36.664 514.148 36.4613 513.71 36.056C513.273 35.6507 513.054 35.1227 513.054 34.472C513.054 33.832 513.316 33.3147 513.838 32.92C514.361 32.5147 515.038 32.312 515.87 32.312H516.974V32.136C516.974 31.8373 516.878 31.5973 516.686 31.416C516.494 31.2347 516.244 31.144 515.934 31.144C515.561 31.144 515.188 31.224 514.814 31.384C514.452 31.544 514.158 31.752 513.934 32.008L513.182 31.144C513.492 30.7813 513.902 30.4827 514.414 30.248C514.937 30.0133 515.449 29.896 515.95 29.896C516.676 29.896 517.268 30.1253 517.726 30.584C518.185 31.032 518.414 31.6133 518.414 32.328V34.104C518.414 34.3387 518.446 34.5733 518.51 34.808C518.585 35.032 518.676 35.208 518.782 35.336C519.177 35.1973 519.497 34.8827 519.742 34.392C519.998 33.9013 520.126 33.336 520.126 32.696C520.126 31.96 519.956 31.3093 519.614 30.744C519.284 30.168 518.814 29.7253 518.206 29.416C517.609 29.096 516.921 28.936 516.142 28.936C515.268 28.936 514.489 29.1387 513.806 29.544C513.124 29.9387 512.59 30.4987 512.206 31.224C511.833 31.9493 511.646 32.776 511.646 33.704C511.646 34.5253 511.812 35.256 512.142 35.896C512.484 36.5253 512.953 37.016 513.55 37.368C514.158 37.72 514.852 37.896 515.63 37.896C516.121 37.896 516.612 37.8267 517.102 37.688C517.593 37.56 517.982 37.3947 518.27 37.192L518.878 38.44C518.548 38.7387 518.068 38.9787 517.438 39.16C516.82 39.3413 516.18 39.432 515.518 39.432ZM515.582 35.448C515.806 35.448 516.025 35.3947 516.238 35.288C516.462 35.1813 516.638 35.0533 516.766 34.904C516.905 34.744 516.974 34.5947 516.974 34.456V33.4H515.934C515.529 33.4 515.209 33.5013 514.974 33.704C514.74 33.896 514.622 34.1467 514.622 34.456C514.622 34.7547 514.708 34.9947 514.878 35.176C515.049 35.3573 515.284 35.448 515.582 35.448ZM526.712 37.16C525.848 37.16 525.176 36.936 524.696 36.488C524.227 36.04 523.992 35.4107 523.992 34.6V30.68H522.536V29H523.992V26.968L526.2 26.328H526.264V29H528.6V30.68H526.264V34.248C526.264 34.6747 526.371 34.9893 526.584 35.192C526.797 35.384 527.128 35.48 527.576 35.48C528.003 35.48 528.397 35.4107 528.76 35.272L528.856 36.808C528.323 37.0427 527.608 37.16 526.712 37.16ZM532.754 37.16C531.836 37.16 531.143 36.8507 530.674 36.232C530.204 35.6133 529.97 34.696 529.97 33.48V29H532.242V33.496C532.242 34.136 532.343 34.6 532.546 34.888C532.748 35.176 533.068 35.32 533.506 35.32C534.028 35.32 534.455 35.1173 534.786 34.712C535.127 34.3067 535.298 33.8053 535.298 33.208V29H537.57V34.856C537.57 35.432 537.612 36.1467 537.698 37H535.522C535.436 36.424 535.394 35.96 535.394 35.608H535.362C535.18 36.0773 534.85 36.456 534.37 36.744C533.9 37.0213 533.362 37.16 532.754 37.16ZM539.097 30.952C539.097 30.0453 539.081 29.3947 539.049 29H541.209C541.252 29.416 541.273 29.8853 541.273 30.408V30.568H541.337C541.54 30.0453 541.902 29.6293 542.425 29.32C542.958 29 543.566 28.84 544.249 28.84C544.388 28.84 544.553 28.856 544.745 28.888V30.664C544.724 30.6533 544.617 30.648 544.425 30.648C543.881 30.648 543.374 30.7867 542.905 31.064C542.436 31.3413 542.062 31.7093 541.785 32.168C541.508 32.6267 541.369 33.1227 541.369 33.656V37H539.097V30.952ZM550.138 37.16C549.68 37.16 549.237 37.0533 548.81 36.84C548.394 36.6267 548.064 36.3493 547.818 36.008H547.786C547.786 36.5093 547.781 36.84 547.77 37H545.626C545.658 36.712 545.674 35.992 545.674 34.84V25.128H547.946V29.736H547.978C548.394 29.1387 549.152 28.84 550.25 28.84C551.274 28.84 552.074 29.1973 552.65 29.912C553.226 30.616 553.514 31.6027 553.514 32.872C553.514 34.216 553.216 35.2667 552.618 36.024C552.021 36.7813 551.194 37.16 550.138 37.16ZM549.674 35.432C550.197 35.432 550.592 35.2187 550.858 34.792C551.125 34.3547 551.258 33.7253 551.258 32.904C551.258 32.1253 551.125 31.5333 550.858 31.128C550.592 30.7227 550.197 30.52 549.674 30.52C549.194 30.52 548.784 30.6747 548.442 30.984C548.112 31.2933 547.946 31.6667 547.946 32.104V33.816C547.946 34.3067 548.101 34.7013 548.41 35C548.73 35.288 549.152 35.432 549.674 35.432ZM558.61 37.16C557.287 37.16 556.253 36.792 555.506 36.056C554.77 35.32 554.402 34.3013 554.402 33C554.402 31.6987 554.77 30.68 555.506 29.944C556.253 29.208 557.287 28.84 558.61 28.84C559.933 28.84 560.962 29.208 561.698 29.944C562.445 30.68 562.818 31.6987 562.818 33C562.818 34.3013 562.445 35.32 561.698 36.056C560.962 36.792 559.933 37.16 558.61 37.16ZM558.61 35.48C559.218 35.48 559.693 35.2613 560.034 34.824C560.375 34.3867 560.546 33.7787 560.546 33C560.546 32.2213 560.375 31.6133 560.034 31.176C559.693 30.7387 559.218 30.52 558.61 30.52C558.002 30.52 557.527 30.7387 557.186 31.176C556.845 31.6133 556.674 32.2213 556.674 33C556.674 33.7787 556.845 34.3867 557.186 34.824C557.527 35.2613 558.002 35.48 558.61 35.48ZM568.529 37.16C568.07 37.16 567.628 37.0533 567.201 36.84C566.785 36.6267 566.454 36.3493 566.209 36.008H566.177C566.177 36.5093 566.172 36.84 566.161 37H564.017C564.049 36.712 564.065 35.992 564.065 34.84V25.128H566.337V29.736H566.369C566.785 29.1387 567.542 28.84 568.641 28.84C569.665 28.84 570.465 29.1973 571.041 29.912C571.617 30.616 571.905 31.6027 571.905 32.872C571.905 34.216 571.606 35.2667 571.009 36.024C570.412 36.7813 569.585 37.16 568.529 37.16ZM568.065 35.432C568.588 35.432 568.982 35.2187 569.249 34.792C569.516 34.3547 569.649 33.7253 569.649 32.904C569.649 32.1253 569.516 31.5333 569.249 31.128C568.982 30.7227 568.588 30.52 568.065 30.52C567.585 30.52 567.174 30.6747 566.833 30.984C566.502 31.2933 566.337 31.6667 566.337 32.104V33.816C566.337 34.3067 566.492 34.7013 566.801 35C567.121 35.288 567.542 35.432 568.065 35.432ZM574.569 28.232C574.142 28.232 573.795 28.1147 573.529 27.88C573.273 27.6453 573.145 27.3307 573.145 26.936C573.145 26.5413 573.273 26.2267 573.529 25.992C573.795 25.7573 574.142 25.64 574.569 25.64C574.995 25.64 575.337 25.7573 575.593 25.992C575.859 26.2267 575.993 26.5413 575.993 26.936C575.993 27.3307 575.859 27.6453 575.593 27.88C575.337 28.1147 574.995 28.232 574.569 28.232ZM573.433 29H575.705V37H573.433V29ZM580.604 37.16C579.548 37.16 578.721 36.7813 578.124 36.024C577.527 35.2667 577.228 34.216 577.228 32.872C577.228 32.0613 577.367 31.352 577.644 30.744C577.921 30.136 578.316 29.6667 578.828 29.336C579.351 29.0053 579.959 28.84 580.652 28.84C581.121 28.84 581.521 28.9147 581.852 29.064C582.193 29.2027 582.497 29.4267 582.764 29.736H582.796V25.128H585.068V34.84C585.068 35.992 585.084 36.712 585.116 37H582.972C582.961 36.84 582.956 36.5093 582.956 36.008H582.924C582.679 36.3493 582.343 36.6267 581.916 36.84C581.5 37.0533 581.063 37.16 580.604 37.16ZM581.068 35.432C581.591 35.432 582.007 35.288 582.316 35C582.636 34.7013 582.796 34.3067 582.796 33.816V32.104C582.796 31.6667 582.631 31.2933 582.3 30.984C581.969 30.6747 581.559 30.52 581.068 30.52C580.545 30.52 580.151 30.7227 579.884 31.128C579.617 31.5333 579.484 32.1253 579.484 32.904C579.484 33.7253 579.617 34.3547 579.884 34.792C580.151 35.2187 580.545 35.432 581.068 35.432ZM588.276 37.144C587.849 37.144 587.497 37.0053 587.22 36.728C586.942 36.4507 586.804 36.0987 586.804 35.672C586.804 35.2347 586.942 34.8827 587.22 34.616C587.497 34.3387 587.849 34.2 588.276 34.2C588.713 34.2 589.065 34.3387 589.332 34.616C589.609 34.8827 589.748 35.2347 589.748 35.672C589.748 36.0987 589.609 36.4507 589.332 36.728C589.065 37.0053 588.713 37.144 588.276 37.144ZM595.167 37.16C593.898 37.16 592.9 36.792 592.175 36.056C591.46 35.3093 591.103 34.2907 591.103 33C591.103 31.7093 591.46 30.696 592.175 29.96C592.9 29.2133 593.898 28.84 595.167 28.84C595.935 28.84 596.602 28.984 597.167 29.272C597.743 29.5493 598.175 29.9493 598.463 30.472L597.103 31.656C596.9 31.3147 596.639 31.048 596.319 30.856C595.999 30.664 595.652 30.568 595.279 30.568C594.682 30.568 594.212 30.7867 593.871 31.224C593.53 31.6507 593.359 32.2427 593.359 33C593.359 33.7573 593.53 34.3547 593.871 34.792C594.212 35.2187 594.682 35.432 595.279 35.432C595.652 35.432 595.999 35.336 596.319 35.144C596.639 34.952 596.9 34.6853 597.103 34.344L598.463 35.528C598.175 36.0507 597.743 36.456 597.167 36.744C596.602 37.0213 595.935 37.16 595.167 37.16ZM601.84 37.16C601.317 37.16 600.848 37.048 600.432 36.824C600.016 36.6 599.691 36.296 599.456 35.912C599.221 35.5173 599.104 35.0747 599.104 34.584C599.104 33.7627 599.435 33.1333 600.096 32.696C600.757 32.2587 601.707 32.04 602.944 32.04H604.064V31.72C604.064 31.3573 603.947 31.0747 603.712 30.872C603.477 30.6693 603.157 30.568 602.752 30.568C602.272 30.568 601.808 30.648 601.36 30.808C600.923 30.968 600.56 31.1867 600.272 31.464L599.296 30.168C599.755 29.7627 600.293 29.4427 600.912 29.208C601.541 28.9627 602.176 28.84 602.816 28.84C603.904 28.84 604.763 29.096 605.392 29.608C606.021 30.1093 606.336 30.7973 606.336 31.672V35.272C606.336 35.528 606.357 35.832 606.4 36.184C606.443 36.536 606.491 36.808 606.544 37H604.512C604.448 36.8507 604.4 36.7173 604.368 36.6C604.336 36.4827 604.309 36.3173 604.288 36.104H604.256C603.659 36.808 602.853 37.16 601.84 37.16ZM602.448 35.48C602.917 35.48 603.301 35.3627 603.6 35.128C603.909 34.8827 604.064 34.5733 604.064 34.2V33.528H602.88C602.379 33.528 601.995 33.6187 601.728 33.8C601.461 33.9813 601.328 34.2427 601.328 34.584C601.328 34.872 601.424 35.096 601.616 35.256C601.808 35.4053 602.085 35.48 602.448 35.48Z" fill="white"></path><defs><clipPath id="clip0_258_1937"><rect width="24" height="24" fill="white" transform="translate(240 18)"></rect></clipPath><clipPath id="clip1_258_1937"><rect width="24" height="24" fill="white" transform="translate(437 18)"></rect></clipPath></defs></svg>