<svg xmlns="http://www.w3.org/2000/svg" width="611" height="226" viewBox="0 0 611 226" fill="none"><path d="M283.92 199H288.75V216.16H298.56V220H283.92V199ZM301.029 199H315.399V202.84H305.859V207.07H314.379V210.91H305.859V216.16H315.399V220H301.029V199ZM329.714 216.88H322.814L321.884 220H316.844L324.164 199H328.364L335.684 220H330.644L329.714 216.88ZM328.544 213.04L326.264 205.48L323.984 213.04H328.544ZM338.031 199H345.741C350.561 199 352.971 200.98 352.971 204.94C352.971 206.3 352.691 207.47 352.131 208.45C351.591 209.43 350.801 210.16 349.761 210.64V210.7C350.121 210.96 350.401 211.21 350.601 211.45C350.801 211.69 350.961 211.95 351.081 212.23L354.141 220H349.041L346.701 213.73C346.481 213.17 346.191 212.8 345.831 212.62C345.491 212.44 344.871 212.35 343.971 212.35H342.861V220H338.031V199ZM345.201 208.54C346.181 208.54 346.931 208.29 347.451 207.79C347.991 207.27 348.261 206.53 348.261 205.57C348.261 203.75 347.221 202.84 345.141 202.84H342.861V208.54H345.201ZM373.329 199V220H368.949L360.849 207.13V220H356.049V199H360.639L368.529 211.63V199H373.329ZM404.906 199V220H400.136V208.9L396.206 220H392.786L388.856 208.9V220H384.086V199H389.066L394.496 214.81L399.926 199H404.906ZM417.334 220.3C415.334 220.3 413.614 219.87 412.174 219.01C410.734 218.15 409.634 216.91 408.874 215.29C408.114 213.67 407.734 211.74 407.734 209.5C407.734 207.26 408.114 205.33 408.874 203.71C409.634 202.09 410.734 200.85 412.174 199.99C413.614 199.13 415.334 198.7 417.334 198.7C419.334 198.7 421.054 199.13 422.494 199.99C423.934 200.85 425.034 202.09 425.794 203.71C426.554 205.33 426.934 207.26 426.934 209.5C426.934 211.74 426.554 213.67 425.794 215.29C425.034 216.91 423.934 218.15 422.494 219.01C421.054 219.87 419.334 220.3 417.334 220.3ZM417.334 216.49C418.814 216.49 419.974 215.87 420.814 214.63C421.674 213.39 422.104 211.68 422.104 209.5C422.104 207.32 421.674 205.61 420.814 204.37C419.974 203.13 418.814 202.51 417.334 202.51C415.854 202.51 414.684 203.13 413.824 204.37C412.984 205.61 412.564 207.32 412.564 209.5C412.564 211.68 412.984 213.39 413.824 214.63C414.684 215.87 415.854 216.49 417.334 216.49ZM429.76 199H437.47C442.29 199 444.7 200.98 444.7 204.94C444.7 206.3 444.42 207.47 443.86 208.45C443.32 209.43 442.53 210.16 441.49 210.64V210.7C441.85 210.96 442.13 211.21 442.33 211.45C442.53 211.69 442.69 211.95 442.81 212.23L445.87 220H440.77L438.43 213.73C438.21 213.17 437.92 212.8 437.56 212.62C437.22 212.44 436.6 212.35 435.7 212.35H434.59V220H429.76V199ZM436.93 208.54C437.91 208.54 438.66 208.29 439.18 207.79C439.72 207.27 439.99 206.53 439.99 205.57C439.99 203.75 438.95 202.84 436.87 202.84H434.59V208.54H436.93ZM447.777 199H462.147V202.84H452.607V207.07H461.127V210.91H452.607V216.16H462.147V220H447.777V199Z" fill="#004225"></path><path d="M282 223H463.167V224.5H282V223Z" fill="#004225"></path><path d="M237.242 19V61H227.702V38.8L219.842 61H213.002L205.142 38.8V61H195.602V19H205.562L216.422 50.62L227.282 19H237.242ZM262.098 61.6C258.098 61.6 254.658 60.74 251.778 59.02C248.898 57.3 246.698 54.82 245.178 51.58C243.658 48.34 242.898 44.48 242.898 40C242.898 35.52 243.658 31.66 245.178 28.42C246.698 25.18 248.898 22.7 251.778 20.98C254.658 19.26 258.098 18.4 262.098 18.4C266.098 18.4 269.538 19.26 272.418 20.98C275.298 22.7 277.498 25.18 279.018 28.42C280.538 31.66 281.298 35.52 281.298 40C281.298 44.48 280.538 48.34 279.018 51.58C277.498 54.82 275.298 57.3 272.418 59.02C269.538 60.74 266.098 61.6 262.098 61.6ZM262.098 53.98C265.058 53.98 267.378 52.74 269.058 50.26C270.778 47.78 271.638 44.36 271.638 40C271.638 35.64 270.778 32.22 269.058 29.74C267.378 27.26 265.058 26.02 262.098 26.02C259.138 26.02 256.798 27.26 255.078 29.74C253.398 32.22 252.558 35.64 252.558 40C252.558 44.36 253.398 47.78 255.078 50.26C256.798 52.74 259.138 53.98 262.098 53.98ZM296.309 26.02H283.949V19H318.329V26.02H305.969V61H296.309V26.02ZM340.145 61.6C336.145 61.6 332.705 60.74 329.825 59.02C326.945 57.3 324.745 54.82 323.225 51.58C321.705 48.34 320.945 44.48 320.945 40C320.945 35.52 321.705 31.66 323.225 28.42C324.745 25.18 326.945 22.7 329.825 20.98C332.705 19.26 336.145 18.4 340.145 18.4C344.145 18.4 347.585 19.26 350.465 20.98C353.345 22.7 355.545 25.18 357.065 28.42C358.585 31.66 359.345 35.52 359.345 40C359.345 44.48 358.585 48.34 357.065 51.58C355.545 54.82 353.345 57.3 350.465 59.02C347.585 60.74 344.145 61.6 340.145 61.6ZM340.145 53.98C343.105 53.98 345.425 52.74 347.105 50.26C348.825 47.78 349.685 44.36 349.685 40C349.685 35.64 348.825 32.22 347.105 29.74C345.425 27.26 343.105 26.02 340.145 26.02C337.185 26.02 334.845 27.26 333.125 29.74C331.445 32.22 330.605 35.64 330.605 40C330.605 44.36 331.445 47.78 333.125 50.26C334.845 52.74 337.185 53.98 340.145 53.98ZM364.996 19H380.416C390.056 19 394.876 22.96 394.876 30.88C394.876 33.6 394.316 35.94 393.196 37.9C392.116 39.86 390.536 41.32 388.456 42.28V42.4C389.176 42.92 389.736 43.42 390.136 43.9C390.536 44.38 390.856 44.9 391.096 45.46L397.216 61H387.016L382.336 48.46C381.896 47.34 381.316 46.6 380.596 46.24C379.916 45.88 378.676 45.7 376.876 45.7H374.656V61H364.996V19ZM379.336 38.08C381.296 38.08 382.796 37.58 383.836 36.58C384.916 35.54 385.456 34.06 385.456 32.14C385.456 28.5 383.376 26.68 379.216 26.68H374.656V38.08H379.336ZM418.851 61.6C414.851 61.6 411.351 60.72 408.351 58.96C405.351 57.2 403.031 54.7 401.391 51.46C399.791 48.18 398.991 44.36 398.991 40C398.991 35.64 399.791 31.84 401.391 28.6C403.031 25.32 405.351 22.8 408.351 21.04C411.351 19.28 414.851 18.4 418.851 18.4C422.371 18.4 425.411 19.08 427.971 20.44C430.531 21.76 432.411 23.64 433.611 26.08L428.091 30.82C426.011 27.66 422.971 26.08 418.971 26.08C415.571 26.08 412.991 27.26 411.231 29.62C409.511 31.94 408.651 35.4 408.651 40C408.651 44.56 409.511 48.02 411.231 50.38C412.951 52.74 415.471 53.92 418.791 53.92C422.991 53.92 426.091 52.34 428.091 49.18L433.611 53.92C432.411 56.36 430.531 58.26 427.971 59.62C425.411 60.94 422.371 61.6 418.851 61.6ZM449.623 44.2L435.883 19H446.323L454.423 35.56L462.523 19H472.963L459.283 44.2V61H449.623V44.2ZM492.504 61.6C488.504 61.6 485.004 60.72 482.004 58.96C479.004 57.2 476.684 54.7 475.044 51.46C473.444 48.18 472.644 44.36 472.644 40C472.644 35.64 473.444 31.84 475.044 28.6C476.684 25.32 479.004 22.8 482.004 21.04C485.004 19.28 488.504 18.4 492.504 18.4C496.024 18.4 499.064 19.08 501.624 20.44C504.184 21.76 506.064 23.64 507.264 26.08L501.744 30.82C499.664 27.66 496.624 26.08 492.624 26.08C489.224 26.08 486.644 27.26 484.884 29.62C483.164 31.94 482.304 35.4 482.304 40C482.304 44.56 483.164 48.02 484.884 50.38C486.604 52.74 489.124 53.92 492.444 53.92C496.644 53.92 499.744 52.34 501.744 49.18L507.264 53.92C506.064 56.36 504.184 58.26 501.624 59.62C499.064 60.94 496.024 61.6 492.504 61.6ZM512.535 19H522.195V53.32H541.815V61H512.535V19ZM546.754 19H575.494V26.68H556.414V35.14H573.454V42.82H556.414V53.32H575.494V61H546.754V19ZM594.223 61.6C590.943 61.6 587.983 60.94 585.343 59.62C582.743 58.3 580.623 56.38 578.983 53.86L584.563 48.58C585.883 50.14 587.463 51.42 589.303 52.42C591.183 53.42 592.923 53.92 594.523 53.92C596.203 53.92 597.543 53.56 598.543 52.84C599.543 52.12 600.043 51.18 600.043 50.02C600.043 49.1 599.883 48.38 599.563 47.86C599.283 47.34 598.663 46.8 597.703 46.24C596.783 45.64 595.183 44.76 592.903 43.6C589.863 42.08 587.483 40.68 585.763 39.4C584.043 38.12 582.743 36.72 581.863 35.2C581.023 33.64 580.603 31.8 580.603 29.68C580.603 27.48 581.203 25.52 582.403 23.8C583.603 22.08 585.283 20.76 587.443 19.84C589.643 18.88 592.163 18.4 595.003 18.4C598.163 18.4 600.923 18.98 603.283 20.14C605.683 21.3 607.443 22.92 608.563 25L602.503 29.56C600.543 27.24 598.203 26.08 595.483 26.08C593.803 26.08 592.503 26.4 591.583 27.04C590.703 27.64 590.263 28.5 590.263 29.62C590.263 30.34 590.523 31 591.043 31.6C591.563 32.2 592.463 32.88 593.743 33.64C595.063 34.36 597.023 35.32 599.623 36.52C602.143 37.68 604.123 38.86 605.563 40.06C607.003 41.22 608.023 42.56 608.623 44.08C609.263 45.56 609.583 47.36 609.583 49.48C609.583 51.92 608.943 54.06 607.663 55.9C606.423 57.7 604.643 59.1 602.323 60.1C600.003 61.1 597.303 61.6 594.223 61.6Z" fill="#004225"></path><path d="M127.833 98.4V111H124.971V104.34L122.613 111H120.561L118.203 104.34V111H115.341V98.4H118.329L121.587 107.886L124.845 98.4H127.833ZM132.554 111.18C131.966 111.18 131.438 111.054 130.97 110.802C130.502 110.55 130.136 110.208 129.872 109.776C129.608 109.332 129.476 108.834 129.476 108.282C129.476 107.358 129.848 106.65 130.592 106.158C131.336 105.666 132.404 105.42 133.796 105.42H135.056V105.06C135.056 104.652 134.924 104.334 134.66 104.106C134.396 103.878 134.036 103.764 133.58 103.764C133.04 103.764 132.518 103.854 132.014 104.034C131.522 104.214 131.114 104.46 130.79 104.772L129.692 103.314C130.208 102.858 130.814 102.498 131.51 102.234C132.218 101.958 132.932 101.82 133.652 101.82C134.876 101.82 135.842 102.108 136.55 102.684C137.258 103.248 137.612 104.022 137.612 105.006V109.056C137.612 109.344 137.636 109.686 137.684 110.082C137.732 110.478 137.786 110.784 137.846 111H135.56C135.488 110.832 135.434 110.682 135.398 110.55C135.362 110.418 135.332 110.232 135.308 109.992H135.272C134.6 110.784 133.694 111.18 132.554 111.18ZM133.238 109.29C133.766 109.29 134.198 109.158 134.534 108.894C134.882 108.618 135.056 108.27 135.056 107.85V107.094H133.724C133.16 107.094 132.728 107.196 132.428 107.4C132.128 107.604 131.978 107.898 131.978 108.282C131.978 108.606 132.086 108.858 132.302 109.038C132.518 109.206 132.83 109.29 133.238 109.29ZM142.133 106.428L139.109 102H141.917L143.465 104.43L145.013 102H147.821L144.797 106.428L148.073 111H145.229L143.465 108.3L141.701 111H138.857L142.133 106.428ZM150.864 101.136C150.384 101.136 149.994 101.004 149.694 100.74C149.406 100.476 149.262 100.122 149.262 99.678C149.262 99.234 149.406 98.88 149.694 98.616C149.994 98.352 150.384 98.22 150.864 98.22C151.344 98.22 151.728 98.352 152.016 98.616C152.316 98.88 152.466 99.234 152.466 99.678C152.466 100.122 152.316 100.476 152.016 100.74C151.728 101.004 151.344 101.136 150.864 101.136ZM149.586 102H152.142V111H149.586V102ZM154.198 104.43C154.198 103.218 154.174 102.408 154.126 102H156.358C156.418 102.444 156.448 102.966 156.448 103.566H156.484C156.652 103.026 156.982 102.6 157.474 102.288C157.978 101.976 158.578 101.82 159.274 101.82C159.922 101.82 160.474 101.958 160.93 102.234C161.398 102.498 161.704 102.858 161.848 103.314C162.088 102.858 162.448 102.498 162.928 102.234C163.42 101.958 163.96 101.82 164.548 101.82C165.544 101.82 166.33 102.144 166.906 102.792C167.482 103.428 167.77 104.31 167.77 105.438V111H165.232V105.744C165.232 105.168 165.106 104.718 164.854 104.394C164.602 104.058 164.26 103.89 163.828 103.89C163.336 103.89 162.946 104.058 162.658 104.394C162.382 104.718 162.244 105.174 162.244 105.762V111H159.724V105.816C159.724 105.216 159.598 104.748 159.346 104.412C159.106 104.064 158.77 103.89 158.338 103.89C157.846 103.89 157.456 104.064 157.168 104.412C156.88 104.748 156.736 105.216 156.736 105.816V111H154.198V104.43ZM171.202 101.136C170.722 101.136 170.332 101.004 170.032 100.74C169.744 100.476 169.6 100.122 169.6 99.678C169.6 99.234 169.744 98.88 170.032 98.616C170.332 98.352 170.722 98.22 171.202 98.22C171.682 98.22 172.066 98.352 172.354 98.616C172.654 98.88 172.804 99.234 172.804 99.678C172.804 100.122 172.654 100.476 172.354 100.74C172.066 101.004 171.682 101.136 171.202 101.136ZM169.924 102H172.48V111H169.924V102ZM174.086 109.65L178.784 103.908H174.338V102H181.916V103.206L177.29 109.092H182.114V111H174.086V109.65ZM191.823 107.436H185.631C185.739 107.976 185.961 108.378 186.297 108.642C186.645 108.906 187.113 109.038 187.701 109.038C188.217 109.038 188.667 108.954 189.051 108.786C189.435 108.618 189.819 108.33 190.203 107.922L191.571 109.218C191.223 109.806 190.677 110.28 189.933 110.64C189.201 111 188.403 111.18 187.539 111.18C186.123 111.18 185.013 110.772 184.209 109.956C183.405 109.128 183.003 107.988 183.003 106.536C183.003 105.072 183.405 103.92 184.209 103.08C185.013 102.24 186.117 101.82 187.521 101.82C188.865 101.82 189.915 102.24 190.671 103.08C191.439 103.908 191.823 105.054 191.823 106.518V107.436ZM189.303 105.618C189.303 105.09 189.141 104.676 188.817 104.376C188.493 104.064 188.049 103.908 187.485 103.908C186.981 103.908 186.567 104.07 186.243 104.394C185.919 104.706 185.703 105.15 185.595 105.726H189.303V105.618ZM205.598 102L202.106 111.504C201.758 112.452 201.248 113.172 200.576 113.664C199.916 114.156 199.124 114.402 198.2 114.402C197.708 114.402 197.168 114.324 196.58 114.168V112.134C196.724 112.182 196.916 112.224 197.156 112.26C197.396 112.308 197.612 112.332 197.804 112.332C198.296 112.332 198.722 112.164 199.082 111.828C199.454 111.492 199.772 110.97 200.036 110.262L196.688 102H199.388L201.242 107.382L202.898 102H205.598ZM210.94 111.18C209.452 111.18 208.288 110.766 207.448 109.938C206.62 109.11 206.206 107.964 206.206 106.5C206.206 105.036 206.62 103.89 207.448 103.062C208.288 102.234 209.452 101.82 210.94 101.82C212.428 101.82 213.586 102.234 214.414 103.062C215.254 103.89 215.674 105.036 215.674 106.5C215.674 107.964 215.254 109.11 214.414 109.938C213.586 110.766 212.428 111.18 210.94 111.18ZM210.94 109.29C211.624 109.29 212.158 109.044 212.542 108.552C212.926 108.06 213.118 107.376 213.118 106.5C213.118 105.624 212.926 104.94 212.542 104.448C212.158 103.956 211.624 103.71 210.94 103.71C210.256 103.71 209.722 103.956 209.338 104.448C208.954 104.94 208.762 105.624 208.762 106.5C208.762 107.376 208.954 108.06 209.338 108.552C209.722 109.044 210.256 109.29 210.94 109.29ZM220.137 111.18C219.105 111.18 218.325 110.832 217.797 110.136C217.269 109.44 217.005 108.408 217.005 107.04V102H219.561V107.058C219.561 107.778 219.675 108.3 219.903 108.624C220.131 108.948 220.491 109.11 220.983 109.11C221.571 109.11 222.051 108.882 222.423 108.426C222.807 107.97 222.999 107.406 222.999 106.734V102H225.555V108.588C225.555 109.236 225.603 110.04 225.699 111H223.251C223.155 110.352 223.107 109.83 223.107 109.434H223.071C222.867 109.962 222.495 110.388 221.955 110.712C221.427 111.024 220.821 111.18 220.137 111.18ZM227.273 104.196C227.273 103.176 227.255 102.444 227.219 102H229.649C229.697 102.468 229.721 102.996 229.721 103.584V103.764H229.793C230.021 103.176 230.429 102.708 231.017 102.36C231.617 102 232.301 101.82 233.069 101.82C233.225 101.82 233.411 101.838 233.627 101.874V103.872C233.603 103.86 233.483 103.854 233.267 103.854C232.655 103.854 232.085 104.01 231.557 104.322C231.029 104.634 230.609 105.048 230.297 105.564C229.985 106.08 229.829 106.638 229.829 107.238V111H227.273V104.196ZM238.749 104.43C238.749 103.218 238.725 102.408 238.677 102H240.909C240.969 102.444 240.999 102.966 240.999 103.566H241.035C241.203 103.026 241.533 102.6 242.025 102.288C242.529 101.976 243.129 101.82 243.825 101.82C244.473 101.82 245.025 101.958 245.481 102.234C245.949 102.498 246.255 102.858 246.399 103.314C246.639 102.858 246.999 102.498 247.479 102.234C247.971 101.958 248.511 101.82 249.099 101.82C250.095 101.82 250.881 102.144 251.457 102.792C252.033 103.428 252.321 104.31 252.321 105.438V111H249.783V105.744C249.783 105.168 249.657 104.718 249.405 104.394C249.153 104.058 248.811 103.89 248.379 103.89C247.887 103.89 247.497 104.058 247.209 104.394C246.933 104.718 246.795 105.174 246.795 105.762V111H244.275V105.816C244.275 105.216 244.149 104.748 243.897 104.412C243.657 104.064 243.321 103.89 242.889 103.89C242.397 103.89 242.007 104.064 241.719 104.412C241.431 104.748 241.287 105.216 241.287 105.816V111H238.749V104.43ZM258.489 111.18C257.001 111.18 255.837 110.766 254.997 109.938C254.169 109.11 253.755 107.964 253.755 106.5C253.755 105.036 254.169 103.89 254.997 103.062C255.837 102.234 257.001 101.82 258.489 101.82C259.977 101.82 261.135 102.234 261.963 103.062C262.803 103.89 263.223 105.036 263.223 106.5C263.223 107.964 262.803 109.11 261.963 109.938C261.135 110.766 259.977 111.18 258.489 111.18ZM258.489 109.29C259.173 109.29 259.707 109.044 260.091 108.552C260.475 108.06 260.667 107.376 260.667 106.5C260.667 105.624 260.475 104.94 260.091 104.448C259.707 103.956 259.173 103.71 258.489 103.71C257.805 103.71 257.271 103.956 256.887 104.448C256.503 104.94 256.311 105.624 256.311 106.5C256.311 107.376 256.503 108.06 256.887 108.552C257.271 109.044 257.805 109.29 258.489 109.29ZM268.694 111.18C267.722 111.18 266.966 110.928 266.426 110.424C265.898 109.92 265.634 109.212 265.634 108.3V103.89H263.996V102H265.634V99.714L268.118 98.994H268.19V102H270.818V103.89H268.19V107.904C268.19 108.384 268.31 108.738 268.55 108.966C268.79 109.182 269.162 109.29 269.666 109.29C270.146 109.29 270.59 109.212 270.998 109.056L271.106 110.784C270.506 111.048 269.702 111.18 268.694 111.18ZM276.295 111.18C274.807 111.18 273.643 110.766 272.803 109.938C271.975 109.11 271.561 107.964 271.561 106.5C271.561 105.036 271.975 103.89 272.803 103.062C273.643 102.234 274.807 101.82 276.295 101.82C277.783 101.82 278.941 102.234 279.769 103.062C280.609 103.89 281.029 105.036 281.029 106.5C281.029 107.964 280.609 109.11 279.769 109.938C278.941 110.766 277.783 111.18 276.295 111.18ZM276.295 109.29C276.979 109.29 277.513 109.044 277.897 108.552C278.281 108.06 278.473 107.376 278.473 106.5C278.473 105.624 278.281 104.94 277.897 104.448C277.513 103.956 276.979 103.71 276.295 103.71C275.611 103.71 275.077 103.956 274.693 104.448C274.309 104.94 274.117 105.624 274.117 106.5C274.117 107.376 274.309 108.06 274.693 108.552C275.077 109.044 275.611 109.29 276.295 109.29ZM282.468 104.196C282.468 103.176 282.45 102.444 282.414 102H284.844C284.892 102.468 284.916 102.996 284.916 103.584V103.764H284.988C285.216 103.176 285.624 102.708 286.212 102.36C286.812 102 287.496 101.82 288.264 101.82C288.42 101.82 288.606 101.838 288.822 101.874V103.872C288.798 103.86 288.678 103.854 288.462 103.854C287.85 103.854 287.28 104.01 286.752 104.322C286.224 104.634 285.804 105.048 285.492 105.564C285.18 106.08 285.024 106.638 285.024 107.238V111H282.468V104.196ZM294.026 111.18C292.598 111.18 291.476 110.766 290.66 109.938C289.856 109.098 289.454 107.952 289.454 106.5C289.454 105.048 289.856 103.908 290.66 103.08C291.476 102.24 292.598 101.82 294.026 101.82C294.89 101.82 295.64 101.982 296.276 102.306C296.924 102.618 297.41 103.068 297.734 103.656L296.204 104.988C295.976 104.604 295.682 104.304 295.322 104.088C294.962 103.872 294.572 103.764 294.152 103.764C293.48 103.764 292.952 104.01 292.568 104.502C292.184 104.982 291.992 105.648 291.992 106.5C291.992 107.352 292.184 108.024 292.568 108.516C292.952 108.996 293.48 109.236 294.152 109.236C294.572 109.236 294.962 109.128 295.322 108.912C295.682 108.696 295.976 108.396 296.204 108.012L297.734 109.344C297.41 109.932 296.924 110.388 296.276 110.712C295.64 111.024 294.89 111.18 294.026 111.18ZM307.059 102L303.567 111.504C303.219 112.452 302.709 113.172 302.037 113.664C301.377 114.156 300.585 114.402 299.661 114.402C299.169 114.402 298.629 114.324 298.041 114.168V112.134C298.185 112.182 298.377 112.224 298.617 112.26C298.857 112.308 299.073 112.332 299.265 112.332C299.757 112.332 300.183 112.164 300.543 111.828C300.915 111.492 301.233 110.97 301.497 110.262L298.149 102H300.849L302.703 107.382L304.359 102H307.059ZM312.325 111.18C310.897 111.18 309.775 110.766 308.959 109.938C308.155 109.098 307.753 107.952 307.753 106.5C307.753 105.048 308.155 103.908 308.959 103.08C309.775 102.24 310.897 101.82 312.325 101.82C313.189 101.82 313.939 101.982 314.575 102.306C315.223 102.618 315.709 103.068 316.033 103.656L314.503 104.988C314.275 104.604 313.981 104.304 313.621 104.088C313.261 103.872 312.871 103.764 312.451 103.764C311.779 103.764 311.251 104.01 310.867 104.502C310.483 104.982 310.291 105.648 310.291 106.5C310.291 107.352 310.483 108.024 310.867 108.516C311.251 108.996 311.779 109.236 312.451 109.236C312.871 109.236 313.261 109.128 313.621 108.912C313.981 108.696 314.275 108.396 314.503 108.012L316.033 109.344C315.709 109.932 315.223 110.388 314.575 110.712C313.939 111.024 313.189 111.18 312.325 111.18ZM319.706 111.18C318.902 111.18 318.284 110.97 317.852 110.55C317.42 110.13 317.204 109.524 317.204 108.732V97.644H319.76V108.786C319.76 109.218 320.024 109.434 320.552 109.434C320.852 109.434 321.206 109.35 321.614 109.182L321.992 110.514C321.416 110.958 320.654 111.18 319.706 111.18ZM330.549 107.436H324.357C324.465 107.976 324.687 108.378 325.023 108.642C325.371 108.906 325.839 109.038 326.427 109.038C326.943 109.038 327.393 108.954 327.777 108.786C328.161 108.618 328.545 108.33 328.929 107.922L330.297 109.218C329.949 109.806 329.403 110.28 328.659 110.64C327.927 111 327.129 111.18 326.265 111.18C324.849 111.18 323.739 110.772 322.935 109.956C322.131 109.128 321.729 107.988 321.729 106.536C321.729 105.072 322.131 103.92 322.935 103.08C323.739 102.24 324.843 101.82 326.247 101.82C327.591 101.82 328.641 102.24 329.397 103.08C330.165 103.908 330.549 105.054 330.549 106.518V107.436ZM328.029 105.618C328.029 105.09 327.867 104.676 327.543 104.376C327.219 104.064 326.775 103.908 326.211 103.908C325.707 103.908 325.293 104.07 324.969 104.394C324.645 104.706 324.429 105.15 324.321 105.726H328.029V105.618ZM331.626 98.22H334.308L334.11 103.026H331.806L331.626 98.22ZM338.7 111.18C337.884 111.18 337.17 111.018 336.558 110.694C335.946 110.37 335.52 109.938 335.28 109.398L336.864 108.318C337.08 108.618 337.35 108.858 337.674 109.038C337.998 109.206 338.328 109.29 338.664 109.29C339.036 109.29 339.342 109.2 339.582 109.02C339.822 108.84 339.942 108.612 339.942 108.336C339.942 108.192 339.906 108.078 339.834 107.994C339.774 107.898 339.648 107.802 339.456 107.706C339.264 107.61 338.958 107.478 338.538 107.31C337.41 106.866 336.618 106.428 336.162 105.996C335.718 105.552 335.496 105.006 335.496 104.358C335.496 103.59 335.808 102.978 336.432 102.522C337.056 102.054 337.884 101.82 338.916 101.82C339.624 101.82 340.254 101.952 340.806 102.216C341.37 102.468 341.832 102.84 342.192 103.332L340.716 104.43C340.308 103.95 339.75 103.71 339.042 103.71C338.718 103.71 338.466 103.764 338.286 103.872C338.118 103.98 338.034 104.13 338.034 104.322C338.034 104.466 338.07 104.586 338.142 104.682C338.214 104.766 338.358 104.868 338.574 104.988C338.802 105.096 339.18 105.252 339.708 105.456C340.452 105.744 341.022 106.02 341.418 106.284C341.814 106.548 342.09 106.83 342.246 107.13C342.414 107.418 342.498 107.778 342.498 108.21C342.498 108.798 342.336 109.32 342.012 109.776C341.7 110.22 341.256 110.568 340.68 110.82C340.104 111.06 339.444 111.18 338.7 111.18ZM356.442 107.436H350.25C350.358 107.976 350.58 108.378 350.916 108.642C351.264 108.906 351.732 109.038 352.32 109.038C352.836 109.038 353.286 108.954 353.67 108.786C354.054 108.618 354.438 108.33 354.822 107.922L356.19 109.218C355.842 109.806 355.296 110.28 354.552 110.64C353.82 111 353.022 111.18 352.158 111.18C350.742 111.18 349.632 110.772 348.828 109.956C348.024 109.128 347.622 107.988 347.622 106.536C347.622 105.072 348.024 103.92 348.828 103.08C349.632 102.24 350.736 101.82 352.14 101.82C353.484 101.82 354.534 102.24 355.29 103.08C356.058 103.908 356.442 105.054 356.442 106.518V107.436ZM353.922 105.618C353.922 105.09 353.76 104.676 353.436 104.376C353.112 104.064 352.668 103.908 352.104 103.908C351.6 103.908 351.186 104.07 350.862 104.394C350.538 104.706 350.322 105.15 350.214 105.726H353.922V105.618ZM360.507 106.428L357.483 102H360.291L361.839 104.43L363.387 102H366.195L363.171 106.428L366.447 111H363.603L361.839 108.3L360.075 111H357.231L360.507 106.428ZM367.599 104.43C367.599 104.01 367.587 103.578 367.563 103.134C367.551 102.69 367.533 102.312 367.509 102H369.939C369.975 102.336 369.993 102.708 369.993 103.116H370.029C370.341 102.696 370.725 102.378 371.181 102.162C371.637 101.934 372.159 101.82 372.747 101.82C373.887 101.82 374.787 102.24 375.447 103.08C376.107 103.92 376.437 105.066 376.437 106.518C376.437 107.982 376.101 109.128 375.429 109.956C374.769 110.772 373.851 111.18 372.675 111.18C372.123 111.18 371.625 111.09 371.181 110.91C370.749 110.73 370.425 110.484 370.209 110.172H370.155V115.356H367.599V104.43ZM372.081 109.29C372.669 109.29 373.113 109.05 373.413 108.57C373.725 108.078 373.881 107.37 373.881 106.446C373.881 104.658 373.293 103.764 372.117 103.764C371.529 103.764 371.055 103.932 370.695 104.268C370.335 104.604 370.155 105.042 370.155 105.582V107.508C370.155 108 370.341 108.42 370.713 108.768C371.097 109.116 371.553 109.29 372.081 109.29ZM382.256 111.18C380.768 111.18 379.604 110.766 378.764 109.938C377.936 109.11 377.522 107.964 377.522 106.5C377.522 105.036 377.936 103.89 378.764 103.062C379.604 102.234 380.768 101.82 382.256 101.82C383.744 101.82 384.902 102.234 385.73 103.062C386.57 103.89 386.99 105.036 386.99 106.5C386.99 107.964 386.57 109.11 385.73 109.938C384.902 110.766 383.744 111.18 382.256 111.18ZM382.256 109.29C382.94 109.29 383.474 109.044 383.858 108.552C384.242 108.06 384.434 107.376 384.434 106.5C384.434 105.624 384.242 104.94 383.858 104.448C383.474 103.956 382.94 103.71 382.256 103.71C381.572 103.71 381.038 103.956 380.654 104.448C380.27 104.94 380.078 105.624 380.078 106.5C380.078 107.376 380.27 108.06 380.654 108.552C381.038 109.044 381.572 109.29 382.256 109.29ZM391.381 111.18C390.565 111.18 389.851 111.018 389.239 110.694C388.627 110.37 388.201 109.938 387.961 109.398L389.545 108.318C389.761 108.618 390.031 108.858 390.355 109.038C390.679 109.206 391.009 109.29 391.345 109.29C391.717 109.29 392.023 109.2 392.263 109.02C392.503 108.84 392.623 108.612 392.623 108.336C392.623 108.192 392.587 108.078 392.515 107.994C392.455 107.898 392.329 107.802 392.137 107.706C391.945 107.61 391.639 107.478 391.219 107.31C390.091 106.866 389.299 106.428 388.843 105.996C388.399 105.552 388.177 105.006 388.177 104.358C388.177 103.59 388.489 102.978 389.113 102.522C389.737 102.054 390.565 101.82 391.597 101.82C392.305 101.82 392.935 101.952 393.487 102.216C394.051 102.468 394.513 102.84 394.873 103.332L393.397 104.43C392.989 103.95 392.431 103.71 391.723 103.71C391.399 103.71 391.147 103.764 390.967 103.872C390.799 103.98 390.715 104.13 390.715 104.322C390.715 104.466 390.751 104.586 390.823 104.682C390.895 104.766 391.039 104.868 391.255 104.988C391.483 105.096 391.861 105.252 392.389 105.456C393.133 105.744 393.703 106.02 394.099 106.284C394.495 106.548 394.771 106.83 394.927 107.13C395.095 107.418 395.179 107.778 395.179 108.21C395.179 108.798 395.017 109.32 394.693 109.776C394.381 110.22 393.937 110.568 393.361 110.82C392.785 111.06 392.125 111.18 391.381 111.18ZM399.539 111.18C398.507 111.18 397.727 110.832 397.199 110.136C396.671 109.44 396.407 108.408 396.407 107.04V102H398.963V107.058C398.963 107.778 399.077 108.3 399.305 108.624C399.533 108.948 399.893 109.11 400.385 109.11C400.973 109.11 401.453 108.882 401.825 108.426C402.209 107.97 402.401 107.406 402.401 106.734V102H404.957V108.588C404.957 109.236 405.005 110.04 405.101 111H402.653C402.557 110.352 402.509 109.83 402.509 109.434H402.473C402.269 109.962 401.897 110.388 401.357 110.712C400.829 111.024 400.223 111.18 399.539 111.18ZM406.675 104.196C406.675 103.176 406.657 102.444 406.621 102H409.051C409.099 102.468 409.123 102.996 409.123 103.584V103.764H409.195C409.423 103.176 409.831 102.708 410.419 102.36C411.019 102 411.703 101.82 412.471 101.82C412.627 101.82 412.813 101.838 413.029 101.874V103.872C413.005 103.86 412.885 103.854 412.669 103.854C412.057 103.854 411.487 104.01 410.959 104.322C410.431 104.634 410.011 105.048 409.699 105.564C409.387 106.08 409.231 106.638 409.231 107.238V111H406.675V104.196ZM422.571 107.436H416.379C416.487 107.976 416.709 108.378 417.045 108.642C417.393 108.906 417.861 109.038 418.449 109.038C418.965 109.038 419.415 108.954 419.799 108.786C420.183 108.618 420.567 108.33 420.951 107.922L422.319 109.218C421.971 109.806 421.425 110.28 420.681 110.64C419.949 111 419.151 111.18 418.287 111.18C416.871 111.18 415.761 110.772 414.957 109.956C414.153 109.128 413.751 107.988 413.751 106.536C413.751 105.072 414.153 103.92 414.957 103.08C415.761 102.24 416.865 101.82 418.269 101.82C419.613 101.82 420.663 102.24 421.419 103.08C422.187 103.908 422.571 105.054 422.571 106.518V107.436ZM420.051 105.618C420.051 105.09 419.889 104.676 419.565 104.376C419.241 104.064 418.797 103.908 418.233 103.908C417.729 103.908 417.315 104.07 416.991 104.394C416.667 104.706 416.451 105.15 416.343 105.726H420.051V105.618ZM430.82 111.18C430.232 111.18 429.704 111.054 429.236 110.802C428.768 110.55 428.402 110.208 428.138 109.776C427.874 109.332 427.742 108.834 427.742 108.282C427.742 107.358 428.114 106.65 428.858 106.158C429.602 105.666 430.67 105.42 432.062 105.42H433.322V105.06C433.322 104.652 433.19 104.334 432.926 104.106C432.662 103.878 432.302 103.764 431.846 103.764C431.306 103.764 430.784 103.854 430.28 104.034C429.788 104.214 429.38 104.46 429.056 104.772L427.958 103.314C428.474 102.858 429.08 102.498 429.776 102.234C430.484 101.958 431.198 101.82 431.918 101.82C433.142 101.82 434.108 102.108 434.816 102.684C435.524 103.248 435.878 104.022 435.878 105.006V109.056C435.878 109.344 435.902 109.686 435.95 110.082C435.998 110.478 436.052 110.784 436.112 111H433.826C433.754 110.832 433.7 110.682 433.664 110.55C433.628 110.418 433.598 110.232 433.574 109.992H433.538C432.866 110.784 431.96 111.18 430.82 111.18ZM431.504 109.29C432.032 109.29 432.464 109.158 432.8 108.894C433.148 108.618 433.322 108.27 433.322 107.85V107.094H431.99C431.426 107.094 430.994 107.196 430.694 107.4C430.394 107.604 430.244 107.898 430.244 108.282C430.244 108.606 430.352 108.858 430.568 109.038C430.784 109.206 431.096 109.29 431.504 109.29ZM437.645 104.412C437.645 103.344 437.621 102.54 437.573 102H439.967C440.039 102.552 440.075 103.074 440.075 103.566H440.111C440.315 103.05 440.687 102.63 441.227 102.306C441.779 101.982 442.391 101.82 443.063 101.82C444.095 101.82 444.875 102.168 445.403 102.864C445.931 103.56 446.195 104.592 446.195 105.96V111H443.639V105.942C443.639 105.222 443.525 104.7 443.297 104.376C443.069 104.052 442.703 103.89 442.199 103.89C441.599 103.89 441.113 104.094 440.741 104.502C440.381 104.898 440.201 105.426 440.201 106.086V111H437.645V104.412ZM451.35 111.18C450.162 111.18 449.232 110.754 448.56 109.902C447.888 109.05 447.552 107.868 447.552 106.356C447.552 105.444 447.708 104.646 448.02 103.962C448.332 103.278 448.776 102.75 449.352 102.378C449.94 102.006 450.624 101.82 451.404 101.82C451.932 101.82 452.382 101.904 452.754 102.072C453.138 102.228 453.48 102.48 453.78 102.828H453.816V97.644H456.372V108.57C456.372 109.866 456.39 110.676 456.426 111H454.014C454.002 110.82 453.996 110.448 453.996 109.884H453.96C453.684 110.268 453.306 110.58 452.826 110.82C452.358 111.06 451.866 111.18 451.35 111.18ZM451.872 109.236C452.46 109.236 452.928 109.074 453.276 108.75C453.636 108.414 453.816 107.97 453.816 107.418V105.492C453.816 105 453.63 104.58 453.258 104.232C452.886 103.884 452.424 103.71 451.872 103.71C451.284 103.71 450.84 103.938 450.54 104.394C450.24 104.85 450.09 105.516 450.09 106.392C450.09 107.316 450.24 108.024 450.54 108.516C450.84 108.996 451.284 109.236 451.872 109.236ZM465.245 111.18C464.429 111.18 463.715 111.018 463.103 110.694C462.491 110.37 462.065 109.938 461.825 109.398L463.409 108.318C463.625 108.618 463.895 108.858 464.219 109.038C464.543 109.206 464.873 109.29 465.209 109.29C465.581 109.29 465.887 109.2 466.127 109.02C466.367 108.84 466.487 108.612 466.487 108.336C466.487 108.192 466.451 108.078 466.379 107.994C466.319 107.898 466.193 107.802 466.001 107.706C465.809 107.61 465.503 107.478 465.083 107.31C463.955 106.866 463.163 106.428 462.707 105.996C462.263 105.552 462.041 105.006 462.041 104.358C462.041 103.59 462.353 102.978 462.977 102.522C463.601 102.054 464.429 101.82 465.461 101.82C466.169 101.82 466.799 101.952 467.351 102.216C467.915 102.468 468.377 102.84 468.737 103.332L467.261 104.43C466.853 103.95 466.295 103.71 465.587 103.71C465.263 103.71 465.011 103.764 464.831 103.872C464.663 103.98 464.579 104.13 464.579 104.322C464.579 104.466 464.615 104.586 464.687 104.682C464.759 104.766 464.903 104.868 465.119 104.988C465.347 105.096 465.725 105.252 466.253 105.456C466.997 105.744 467.567 106.02 467.963 106.284C468.359 106.548 468.635 106.83 468.791 107.13C468.959 107.418 469.043 107.778 469.043 108.21C469.043 108.798 468.881 109.32 468.557 109.776C468.245 110.22 467.801 110.568 467.225 110.82C466.649 111.06 465.989 111.18 465.245 111.18ZM479.19 107.436H472.998C473.106 107.976 473.328 108.378 473.664 108.642C474.012 108.906 474.48 109.038 475.068 109.038C475.584 109.038 476.034 108.954 476.418 108.786C476.802 108.618 477.186 108.33 477.57 107.922L478.938 109.218C478.59 109.806 478.044 110.28 477.3 110.64C476.568 111 475.77 111.18 474.906 111.18C473.49 111.18 472.38 110.772 471.576 109.956C470.772 109.128 470.37 107.988 470.37 106.536C470.37 105.072 470.772 103.92 471.576 103.08C472.38 102.24 473.484 101.82 474.888 101.82C476.232 101.82 477.282 102.24 478.038 103.08C478.806 103.908 479.19 105.054 479.19 106.518V107.436ZM476.67 105.618C476.67 105.09 476.508 104.676 476.184 104.376C475.86 104.064 475.416 103.908 474.852 103.908C474.348 103.908 473.934 104.07 473.61 104.394C473.286 104.706 473.07 105.15 472.962 105.726H476.67V105.618ZM483.165 111.18C482.361 111.18 481.743 110.97 481.311 110.55C480.879 110.13 480.663 109.524 480.663 108.732V97.644H483.219V108.786C483.219 109.218 483.483 109.434 484.011 109.434C484.311 109.434 484.665 109.35 485.073 109.182L485.451 110.514C484.875 110.958 484.113 111.18 483.165 111.18ZM488.631 111.18C487.827 111.18 487.209 110.97 486.777 110.55C486.345 110.13 486.129 109.524 486.129 108.732V97.644H488.685V108.786C488.685 109.218 488.949 109.434 489.477 109.434C489.777 109.434 490.131 109.35 490.539 109.182L490.917 110.514C490.341 110.958 489.579 111.18 488.631 111.18ZM495.601 97.644H498.157V102.954C498.433 102.606 498.811 102.33 499.291 102.126C499.783 101.922 500.311 101.82 500.875 101.82C501.535 101.82 502.123 101.97 502.639 102.27C503.155 102.558 503.557 102.984 503.845 103.548C504.133 104.1 504.277 104.754 504.277 105.51V111H501.721V105.744C501.721 105.12 501.577 104.628 501.289 104.268C501.013 103.896 500.629 103.71 500.137 103.71C499.525 103.71 499.039 103.926 498.679 104.358C498.331 104.778 498.157 105.36 498.157 106.104V111H495.601V97.644ZM508.638 111.18C508.05 111.18 507.522 111.054 507.054 110.802C506.586 110.55 506.22 110.208 505.956 109.776C505.692 109.332 505.56 108.834 505.56 108.282C505.56 107.358 505.932 106.65 506.676 106.158C507.42 105.666 508.488 105.42 509.88 105.42H511.14V105.06C511.14 104.652 511.008 104.334 510.744 104.106C510.48 103.878 510.12 103.764 509.664 103.764C509.124 103.764 508.602 103.854 508.098 104.034C507.606 104.214 507.198 104.46 506.874 104.772L505.776 103.314C506.292 102.858 506.898 102.498 507.594 102.234C508.302 101.958 509.016 101.82 509.736 101.82C510.96 101.82 511.926 102.108 512.634 102.684C513.342 103.248 513.696 104.022 513.696 105.006V109.056C513.696 109.344 513.72 109.686 513.768 110.082C513.816 110.478 513.87 110.784 513.93 111H511.644C511.572 110.832 511.518 110.682 511.482 110.55C511.446 110.418 511.416 110.232 511.392 109.992H511.356C510.684 110.784 509.778 111.18 508.638 111.18ZM509.322 109.29C509.85 109.29 510.282 109.158 510.618 108.894C510.966 108.618 511.14 108.27 511.14 107.85V107.094H509.808C509.244 107.094 508.812 107.196 508.512 107.4C508.212 107.604 508.062 107.898 508.062 108.282C508.062 108.606 508.17 108.858 508.386 109.038C508.602 109.206 508.914 109.29 509.322 109.29ZM518.541 111.18C517.725 111.18 517.011 111.018 516.399 110.694C515.787 110.37 515.361 109.938 515.121 109.398L516.705 108.318C516.921 108.618 517.191 108.858 517.515 109.038C517.839 109.206 518.169 109.29 518.505 109.29C518.877 109.29 519.183 109.2 519.423 109.02C519.663 108.84 519.783 108.612 519.783 108.336C519.783 108.192 519.747 108.078 519.675 107.994C519.615 107.898 519.489 107.802 519.297 107.706C519.105 107.61 518.799 107.478 518.379 107.31C517.251 106.866 516.459 106.428 516.003 105.996C515.559 105.552 515.337 105.006 515.337 104.358C515.337 103.59 515.649 102.978 516.273 102.522C516.897 102.054 517.725 101.82 518.757 101.82C519.465 101.82 520.095 101.952 520.647 102.216C521.211 102.468 521.673 102.84 522.033 103.332L520.557 104.43C520.149 103.95 519.591 103.71 518.883 103.71C518.559 103.71 518.307 103.764 518.127 103.872C517.959 103.98 517.875 104.13 517.875 104.322C517.875 104.466 517.911 104.586 517.983 104.682C518.055 104.766 518.199 104.868 518.415 104.988C518.643 105.096 519.021 105.252 519.549 105.456C520.293 105.744 520.863 106.02 521.259 106.284C521.655 106.548 521.931 106.83 522.087 107.13C522.255 107.418 522.339 107.778 522.339 108.21C522.339 108.798 522.177 109.32 521.853 109.776C521.541 110.22 521.097 110.568 520.521 110.82C519.945 111.06 519.285 111.18 518.541 111.18ZM526.627 111.18C525.811 111.18 525.097 111.018 524.485 110.694C523.873 110.37 523.447 109.938 523.207 109.398L524.791 108.318C525.007 108.618 525.277 108.858 525.601 109.038C525.925 109.206 526.255 109.29 526.591 109.29C526.963 109.29 527.269 109.2 527.509 109.02C527.749 108.84 527.869 108.612 527.869 108.336C527.869 108.192 527.833 108.078 527.761 107.994C527.701 107.898 527.575 107.802 527.383 107.706C527.191 107.61 526.885 107.478 526.465 107.31C525.337 106.866 524.545 106.428 524.089 105.996C523.645 105.552 523.423 105.006 523.423 104.358C523.423 103.59 523.735 102.978 524.359 102.522C524.983 102.054 525.811 101.82 526.843 101.82C527.551 101.82 528.181 101.952 528.733 102.216C529.297 102.468 529.759 102.84 530.119 103.332L528.643 104.43C528.235 103.95 527.677 103.71 526.969 103.71C526.645 103.71 526.393 103.764 526.213 103.872C526.045 103.98 525.961 104.13 525.961 104.322C525.961 104.466 525.997 104.586 526.069 104.682C526.141 104.766 526.285 104.868 526.501 104.988C526.729 105.096 527.107 105.252 527.635 105.456C528.379 105.744 528.949 106.02 529.345 106.284C529.741 106.548 530.017 106.83 530.173 107.13C530.341 107.418 530.425 107.778 530.425 108.21C530.425 108.798 530.263 109.32 529.939 109.776C529.627 110.22 529.183 110.568 528.607 110.82C528.031 111.06 527.371 111.18 526.627 111.18ZM534.299 111.18C533.495 111.18 532.877 110.97 532.445 110.55C532.013 110.13 531.797 109.524 531.797 108.732V97.644H534.353V108.786C534.353 109.218 534.617 109.434 535.145 109.434C535.445 109.434 535.799 109.35 536.207 109.182L536.585 110.514C536.009 110.958 535.247 111.18 534.299 111.18ZM545.143 107.436H538.951C539.059 107.976 539.281 108.378 539.617 108.642C539.965 108.906 540.433 109.038 541.021 109.038C541.537 109.038 541.987 108.954 542.371 108.786C542.755 108.618 543.139 108.33 543.523 107.922L544.891 109.218C544.543 109.806 543.997 110.28 543.253 110.64C542.521 111 541.723 111.18 540.859 111.18C539.443 111.18 538.333 110.772 537.529 109.956C536.725 109.128 536.323 107.988 536.323 106.536C536.323 105.072 536.725 103.92 537.529 103.08C538.333 102.24 539.437 101.82 540.841 101.82C542.185 101.82 543.235 102.24 543.991 103.08C544.759 103.908 545.143 105.054 545.143 106.518V107.436ZM542.623 105.618C542.623 105.09 542.461 104.676 542.137 104.376C541.813 104.064 541.369 103.908 540.805 103.908C540.301 103.908 539.887 104.07 539.563 104.394C539.239 104.706 539.023 105.15 538.915 105.726H542.623V105.618ZM546.04 105.348H551.44V107.076H546.04V105.348ZM553.471 103.71H552.013V102H553.471V100.938C553.471 100.05 553.753 99.354 554.317 98.85C554.893 98.346 555.673 98.094 556.657 98.094C557.125 98.094 557.563 98.166 557.971 98.31C558.379 98.454 558.715 98.658 558.979 98.922L558.097 100.416C557.953 100.284 557.785 100.182 557.593 100.11C557.401 100.038 557.215 100.002 557.035 100.002C556.723 100.002 556.477 100.11 556.297 100.326C556.117 100.53 556.027 100.812 556.027 101.172V102H558.547V103.71H556.027V111H553.471V103.71ZM559.746 104.196C559.746 103.176 559.728 102.444 559.692 102H562.122C562.17 102.468 562.194 102.996 562.194 103.584V103.764H562.266C562.494 103.176 562.902 102.708 563.49 102.36C564.09 102 564.774 101.82 565.542 101.82C565.698 101.82 565.884 101.838 566.1 101.874V103.872C566.076 103.86 565.956 103.854 565.74 103.854C565.128 103.854 564.558 104.01 564.03 104.322C563.502 104.634 563.082 105.048 562.77 105.564C562.458 106.08 562.302 106.638 562.302 107.238V111H559.746V104.196ZM575.641 107.436H569.449C569.557 107.976 569.779 108.378 570.115 108.642C570.463 108.906 570.931 109.038 571.519 109.038C572.035 109.038 572.485 108.954 572.869 108.786C573.253 108.618 573.637 108.33 574.021 107.922L575.389 109.218C575.041 109.806 574.495 110.28 573.751 110.64C573.019 111 572.221 111.18 571.357 111.18C569.941 111.18 568.831 110.772 568.027 109.956C567.223 109.128 566.821 107.988 566.821 106.536C566.821 105.072 567.223 103.92 568.027 103.08C568.831 102.24 569.935 101.82 571.339 101.82C572.683 101.82 573.733 102.24 574.489 103.08C575.257 103.908 575.641 105.054 575.641 106.518V107.436ZM573.121 105.618C573.121 105.09 572.959 104.676 572.635 104.376C572.311 104.064 571.867 103.908 571.303 103.908C570.799 103.908 570.385 104.07 570.061 104.394C569.737 104.706 569.521 105.15 569.413 105.726H573.121V105.618ZM585.538 107.436H579.346C579.454 107.976 579.676 108.378 580.012 108.642C580.36 108.906 580.828 109.038 581.416 109.038C581.932 109.038 582.382 108.954 582.766 108.786C583.15 108.618 583.534 108.33 583.918 107.922L585.286 109.218C584.938 109.806 584.392 110.28 583.648 110.64C582.916 111 582.118 111.18 581.254 111.18C579.838 111.18 578.728 110.772 577.924 109.956C577.12 109.128 576.718 107.988 576.718 106.536C576.718 105.072 577.12 103.92 577.924 103.08C578.728 102.24 579.832 101.82 581.236 101.82C582.58 101.82 583.63 102.24 584.386 103.08C585.154 103.908 585.538 105.054 585.538 106.518V107.436ZM583.018 105.618C583.018 105.09 582.856 104.676 582.532 104.376C582.208 104.064 581.764 103.908 581.2 103.908C580.696 103.908 580.282 104.07 579.958 104.394C579.634 104.706 579.418 105.15 579.31 105.726H583.018V105.618ZM595.497 111.18C594.009 111.18 592.845 110.766 592.005 109.938C591.177 109.11 590.763 107.964 590.763 106.5C590.763 105.036 591.177 103.89 592.005 103.062C592.845 102.234 594.009 101.82 595.497 101.82C596.985 101.82 598.143 102.234 598.971 103.062C599.811 103.89 600.231 105.036 600.231 106.5C600.231 107.964 599.811 109.11 598.971 109.938C598.143 110.766 596.985 111.18 595.497 111.18ZM595.497 109.29C596.181 109.29 596.715 109.044 597.099 108.552C597.483 108.06 597.675 107.376 597.675 106.5C597.675 105.624 597.483 104.94 597.099 104.448C596.715 103.956 596.181 103.71 595.497 103.71C594.813 103.71 594.279 103.956 593.895 104.448C593.511 104.94 593.319 105.624 593.319 106.5C593.319 107.376 593.511 108.06 593.895 108.552C594.279 109.044 594.813 109.29 595.497 109.29ZM601.544 104.412C601.544 103.344 601.52 102.54 601.472 102H603.866C603.938 102.552 603.974 103.074 603.974 103.566H604.01C604.214 103.05 604.586 102.63 605.126 102.306C605.678 101.982 606.29 101.82 606.962 101.82C607.994 101.82 608.774 102.168 609.302 102.864C609.83 103.56 610.094 104.592 610.094 105.96V111H607.538V105.942C607.538 105.222 607.424 104.7 607.196 104.376C606.968 104.052 606.602 103.89 606.098 103.89C605.498 103.89 605.012 104.094 604.64 104.502C604.28 104.898 604.1 105.426 604.1 106.086V111H601.544V104.412ZM291.786 126.506H288.078V124.4H298.392V126.506H294.684V137H291.786V126.506ZM301.488 137.18C300.456 137.18 299.676 136.832 299.148 136.136C298.62 135.44 298.356 134.408 298.356 133.04V128H300.912V133.058C300.912 133.778 301.026 134.3 301.254 134.624C301.482 134.948 301.842 135.11 302.334 135.11C302.922 135.11 303.402 134.882 303.774 134.426C304.158 133.97 304.35 133.406 304.35 132.734V128H306.906V134.588C306.906 135.236 306.954 136.04 307.05 137H304.602C304.506 136.352 304.458 135.83 304.458 135.434H304.422C304.218 135.962 303.846 136.388 303.306 136.712C302.778 137.024 302.172 137.18 301.488 137.18ZM308.625 130.196C308.625 129.176 308.607 128.444 308.571 128H311.001C311.049 128.468 311.073 128.996 311.073 129.584V129.764H311.145C311.373 129.176 311.781 128.708 312.369 128.36C312.969 128 313.653 127.82 314.421 127.82C314.577 127.82 314.763 127.838 314.979 127.874V129.872C314.955 129.86 314.835 129.854 314.619 129.854C314.007 129.854 313.437 130.01 312.909 130.322C312.381 130.634 311.961 131.048 311.649 131.564C311.337 132.08 311.181 132.638 311.181 133.238V137H308.625V130.196ZM321.046 137.18C320.53 137.18 320.032 137.06 319.552 136.82C319.084 136.58 318.712 136.268 318.436 135.884H318.4C318.4 136.448 318.394 136.82 318.382 137H315.97C316.006 136.676 316.024 135.866 316.024 134.57V123.644H318.58V128.828H318.616C319.084 128.156 319.936 127.82 321.172 127.82C322.324 127.82 323.224 128.222 323.872 129.026C324.52 129.818 324.844 130.928 324.844 132.356C324.844 133.868 324.508 135.05 323.836 135.902C323.164 136.754 322.234 137.18 321.046 137.18ZM320.524 135.236C321.112 135.236 321.556 134.996 321.856 134.516C322.156 134.024 322.306 133.316 322.306 132.392C322.306 131.516 322.156 130.85 321.856 130.394C321.556 129.938 321.112 129.71 320.524 129.71C319.984 129.71 319.522 129.884 319.138 130.232C318.766 130.58 318.58 131 318.58 131.492V133.418C318.58 133.97 318.754 134.414 319.102 134.75C319.462 135.074 319.936 135.236 320.524 135.236ZM330.577 137.18C329.089 137.18 327.925 136.766 327.085 135.938C326.257 135.11 325.843 133.964 325.843 132.5C325.843 131.036 326.257 129.89 327.085 129.062C327.925 128.234 329.089 127.82 330.577 127.82C332.065 127.82 333.223 128.234 334.051 129.062C334.891 129.89 335.311 131.036 335.311 132.5C335.311 133.964 334.891 135.11 334.051 135.938C333.223 136.766 332.065 137.18 330.577 137.18ZM330.577 135.29C331.261 135.29 331.795 135.044 332.179 134.552C332.563 134.06 332.755 133.376 332.755 132.5C332.755 131.624 332.563 130.94 332.179 130.448C331.795 129.956 331.261 129.71 330.577 129.71C329.893 129.71 329.359 129.956 328.975 130.448C328.591 130.94 328.399 131.624 328.399 132.5C328.399 133.376 328.591 134.06 328.975 134.552C329.359 135.044 329.893 135.29 330.577 135.29ZM337.002 124.4H341.34C342.768 124.4 343.866 124.676 344.634 125.228C345.402 125.78 345.786 126.566 345.786 127.586C345.786 128.15 345.654 128.642 345.39 129.062C345.126 129.482 344.712 129.86 344.148 130.196V130.232C344.892 130.544 345.426 130.94 345.75 131.42C346.086 131.9 346.254 132.512 346.254 133.256C346.254 134.456 345.894 135.38 345.174 136.028C344.466 136.676 343.458 137 342.15 137H337.002V124.4ZM341.502 129.332C341.922 129.332 342.252 129.206 342.492 128.954C342.744 128.69 342.87 128.342 342.87 127.91C342.87 127.046 342.3 126.614 341.16 126.614H339.9V129.332H341.502ZM341.88 134.786C342.348 134.786 342.714 134.63 342.978 134.318C343.254 134.006 343.392 133.586 343.392 133.058C343.392 132.482 343.23 132.068 342.906 131.816C342.582 131.552 342.054 131.42 341.322 131.42H339.9V134.786H341.88ZM349.409 127.136C348.929 127.136 348.539 127.004 348.239 126.74C347.951 126.476 347.807 126.122 347.807 125.678C347.807 125.234 347.951 124.88 348.239 124.616C348.539 124.352 348.929 124.22 349.409 124.22C349.889 124.22 350.273 124.352 350.561 124.616C350.861 124.88 351.011 125.234 351.011 125.678C351.011 126.122 350.861 126.476 350.561 126.74C350.273 127.004 349.889 127.136 349.409 127.136ZM348.131 128H350.687V137H348.131V128ZM356.199 137.18C355.011 137.18 354.081 136.754 353.409 135.902C352.737 135.05 352.401 133.868 352.401 132.356C352.401 131.444 352.557 130.646 352.869 129.962C353.181 129.278 353.625 128.75 354.201 128.378C354.789 128.006 355.473 127.82 356.253 127.82C356.781 127.82 357.231 127.904 357.603 128.072C357.987 128.228 358.329 128.48 358.629 128.828H358.665V123.644H361.221V134.57C361.221 135.866 361.239 136.676 361.275 137H358.863C358.851 136.82 358.845 136.448 358.845 135.884H358.809C358.533 136.268 358.155 136.58 357.675 136.82C357.207 137.06 356.715 137.18 356.199 137.18ZM356.721 135.236C357.309 135.236 357.777 135.074 358.125 134.75C358.485 134.414 358.665 133.97 358.665 133.418V131.492C358.665 131 358.479 130.58 358.107 130.232C357.735 129.884 357.273 129.71 356.721 129.71C356.133 129.71 355.689 129.938 355.389 130.394C355.089 130.85 354.939 131.516 354.939 132.392C354.939 133.316 355.089 134.024 355.389 134.516C355.689 134.996 356.133 135.236 356.721 135.236ZM366.602 131.348H375.602V133.076H366.602V131.348ZM383.549 137.18C382.745 137.18 382.127 136.97 381.695 136.55C381.263 136.13 381.047 135.524 381.047 134.732V123.644H383.603V134.786C383.603 135.218 383.867 135.434 384.395 135.434C384.695 135.434 385.049 135.35 385.457 135.182L385.835 136.514C385.259 136.958 384.497 137.18 383.549 137.18ZM388.116 127.136C387.636 127.136 387.246 127.004 386.946 126.74C386.658 126.476 386.514 126.122 386.514 125.678C386.514 125.234 386.658 124.88 386.946 124.616C387.246 124.352 387.636 124.22 388.116 124.22C388.596 124.22 388.98 124.352 389.268 124.616C389.568 124.88 389.718 125.234 389.718 125.678C389.718 126.122 389.568 126.476 389.268 126.74C388.98 127.004 388.596 127.136 388.116 127.136ZM386.838 128H389.394V137H386.838V128ZM394.51 137.18C393.694 137.18 392.98 137.018 392.368 136.694C391.756 136.37 391.33 135.938 391.09 135.398L392.674 134.318C392.89 134.618 393.16 134.858 393.484 135.038C393.808 135.206 394.138 135.29 394.474 135.29C394.846 135.29 395.152 135.2 395.392 135.02C395.632 134.84 395.752 134.612 395.752 134.336C395.752 134.192 395.716 134.078 395.644 133.994C395.584 133.898 395.458 133.802 395.266 133.706C395.074 133.61 394.768 133.478 394.348 133.31C393.22 132.866 392.428 132.428 391.972 131.996C391.528 131.552 391.306 131.006 391.306 130.358C391.306 129.59 391.618 128.978 392.242 128.522C392.866 128.054 393.694 127.82 394.726 127.82C395.434 127.82 396.064 127.952 396.616 128.216C397.18 128.468 397.642 128.84 398.002 129.332L396.526 130.43C396.118 129.95 395.56 129.71 394.852 129.71C394.528 129.71 394.276 129.764 394.096 129.872C393.928 129.98 393.844 130.13 393.844 130.322C393.844 130.466 393.88 130.586 393.952 130.682C394.024 130.766 394.168 130.868 394.384 130.988C394.612 131.096 394.99 131.252 395.518 131.456C396.262 131.744 396.832 132.02 397.228 132.284C397.624 132.548 397.9 132.83 398.056 133.13C398.224 133.418 398.308 133.778 398.308 134.21C398.308 134.798 398.146 135.32 397.822 135.776C397.51 136.22 397.066 136.568 396.49 136.82C395.914 137.06 395.254 137.18 394.51 137.18ZM403.676 137.18C402.704 137.18 401.948 136.928 401.408 136.424C400.88 135.92 400.616 135.212 400.616 134.3V129.89H398.978V128H400.616V125.714L403.1 124.994H403.172V128H405.8V129.89H403.172V133.904C403.172 134.384 403.292 134.738 403.532 134.966C403.772 135.182 404.144 135.29 404.648 135.29C405.128 135.29 405.572 135.212 405.98 135.056L406.088 136.784C405.488 137.048 404.684 137.18 403.676 137.18ZM411.471 130.412C411.471 129.344 411.447 128.54 411.399 128H413.793C413.865 128.552 413.901 129.074 413.901 129.566H413.937C414.141 129.05 414.513 128.63 415.053 128.306C415.605 127.982 416.217 127.82 416.889 127.82C417.921 127.82 418.701 128.168 419.229 128.864C419.757 129.56 420.021 130.592 420.021 131.96V137H417.465V131.942C417.465 131.222 417.351 130.7 417.123 130.376C416.895 130.052 416.529 129.89 416.025 129.89C415.425 129.89 414.939 130.094 414.567 130.502C414.207 130.898 414.027 131.426 414.027 132.086V137H411.471V130.412ZM426.202 137.18C424.714 137.18 423.55 136.766 422.71 135.938C421.882 135.11 421.468 133.964 421.468 132.5C421.468 131.036 421.882 129.89 422.71 129.062C423.55 128.234 424.714 127.82 426.202 127.82C427.69 127.82 428.848 128.234 429.676 129.062C430.516 129.89 430.936 131.036 430.936 132.5C430.936 133.964 430.516 135.11 429.676 135.938C428.848 136.766 427.69 137.18 426.202 137.18ZM426.202 135.29C426.886 135.29 427.42 135.044 427.804 134.552C428.188 134.06 428.38 133.376 428.38 132.5C428.38 131.624 428.188 130.94 427.804 130.448C427.42 129.956 426.886 129.71 426.202 129.71C425.518 129.71 424.984 129.956 424.6 130.448C424.216 130.94 424.024 131.624 424.024 132.5C424.024 133.376 424.216 134.06 424.6 134.552C424.984 135.044 425.518 135.29 426.202 135.29ZM444.183 128L441.861 137H439.629L437.955 130.772L436.281 137H434.049L431.727 128H434.373L435.399 133.13L436.839 128H439.071L440.511 133.13L441.537 128H444.183ZM461.286 128L458.964 137H456.732L455.058 130.772L453.384 137H451.152L448.83 128H451.476L452.502 133.13L453.942 128H456.174L457.614 133.13L458.64 128H461.286ZM464.071 127.136C463.591 127.136 463.201 127.004 462.901 126.74C462.613 126.476 462.469 126.122 462.469 125.678C462.469 125.234 462.613 124.88 462.901 124.616C463.201 124.352 463.591 124.22 464.071 124.22C464.551 124.22 464.935 124.352 465.223 124.616C465.523 124.88 465.673 125.234 465.673 125.678C465.673 126.122 465.523 126.476 465.223 126.74C464.935 127.004 464.551 127.136 464.071 127.136ZM462.793 128H465.349V137H462.793V128ZM471.545 137.18C470.573 137.18 469.817 136.928 469.277 136.424C468.749 135.92 468.485 135.212 468.485 134.3V129.89H466.847V128H468.485V125.714L470.969 124.994H471.041V128H473.669V129.89H471.041V133.904C471.041 134.384 471.161 134.738 471.401 134.966C471.641 135.182 472.013 135.29 472.517 135.29C472.997 135.29 473.441 135.212 473.849 135.056L473.957 136.784C473.357 137.048 472.553 137.18 471.545 137.18ZM475.21 123.644H477.766V128.954C478.042 128.606 478.42 128.33 478.9 128.126C479.392 127.922 479.92 127.82 480.484 127.82C481.144 127.82 481.732 127.97 482.248 128.27C482.764 128.558 483.166 128.984 483.454 129.548C483.742 130.1 483.886 130.754 483.886 131.51V137H481.33V131.744C481.33 131.12 481.186 130.628 480.898 130.268C480.622 129.896 480.238 129.71 479.746 129.71C479.134 129.71 478.648 129.926 478.288 130.358C477.94 130.778 477.766 131.36 477.766 132.104V137H475.21V123.644ZM489.606 130.412C489.606 129.344 489.582 128.54 489.534 128H491.928C492 128.552 492.036 129.074 492.036 129.566H492.072C492.276 129.05 492.648 128.63 493.188 128.306C493.74 127.982 494.352 127.82 495.024 127.82C496.056 127.82 496.836 128.168 497.364 128.864C497.892 129.56 498.156 130.592 498.156 131.96V137H495.6V131.942C495.6 131.222 495.486 130.7 495.258 130.376C495.03 130.052 494.664 129.89 494.16 129.89C493.56 129.89 493.074 130.094 492.702 130.502C492.342 130.898 492.162 131.426 492.162 132.086V137H489.606V130.412ZM504.337 137.18C502.849 137.18 501.685 136.766 500.845 135.938C500.017 135.11 499.603 133.964 499.603 132.5C499.603 131.036 500.017 129.89 500.845 129.062C501.685 128.234 502.849 127.82 504.337 127.82C505.825 127.82 506.983 128.234 507.811 129.062C508.651 129.89 509.071 131.036 509.071 132.5C509.071 133.964 508.651 135.11 507.811 135.938C506.983 136.766 505.825 137.18 504.337 137.18ZM504.337 135.29C505.021 135.29 505.555 135.044 505.939 134.552C506.323 134.06 506.515 133.376 506.515 132.5C506.515 131.624 506.323 130.94 505.939 130.448C505.555 129.956 505.021 129.71 504.337 129.71C503.653 129.71 503.119 129.956 502.735 130.448C502.351 130.94 502.159 131.624 502.159 132.5C502.159 133.376 502.351 134.06 502.735 134.552C503.119 135.044 503.653 135.29 504.337 135.29ZM517.61 137.18C516.794 137.18 516.08 137.018 515.468 136.694C514.856 136.37 514.43 135.938 514.19 135.398L515.774 134.318C515.99 134.618 516.26 134.858 516.584 135.038C516.908 135.206 517.238 135.29 517.574 135.29C517.946 135.29 518.252 135.2 518.492 135.02C518.732 134.84 518.852 134.612 518.852 134.336C518.852 134.192 518.816 134.078 518.744 133.994C518.684 133.898 518.558 133.802 518.366 133.706C518.174 133.61 517.868 133.478 517.448 133.31C516.32 132.866 515.528 132.428 515.072 131.996C514.628 131.552 514.406 131.006 514.406 130.358C514.406 129.59 514.718 128.978 515.342 128.522C515.966 128.054 516.794 127.82 517.826 127.82C518.534 127.82 519.164 127.952 519.716 128.216C520.28 128.468 520.742 128.84 521.102 129.332L519.626 130.43C519.218 129.95 518.66 129.71 517.952 129.71C517.628 129.71 517.376 129.764 517.196 129.872C517.028 129.98 516.944 130.13 516.944 130.322C516.944 130.466 516.98 130.586 517.052 130.682C517.124 130.766 517.268 130.868 517.484 130.988C517.712 131.096 518.09 131.252 518.618 131.456C519.362 131.744 519.932 132.02 520.328 132.284C520.724 132.548 521 132.83 521.156 133.13C521.324 133.418 521.408 133.778 521.408 134.21C521.408 134.798 521.246 135.32 520.922 135.776C520.61 136.22 520.166 136.568 519.59 136.82C519.014 137.06 518.354 137.18 517.61 137.18ZM531.555 133.436H525.363C525.471 133.976 525.693 134.378 526.029 134.642C526.377 134.906 526.845 135.038 527.433 135.038C527.949 135.038 528.399 134.954 528.783 134.786C529.167 134.618 529.551 134.33 529.935 133.922L531.303 135.218C530.955 135.806 530.409 136.28 529.665 136.64C528.933 137 528.135 137.18 527.271 137.18C525.855 137.18 524.745 136.772 523.941 135.956C523.137 135.128 522.735 133.988 522.735 132.536C522.735 131.072 523.137 129.92 523.941 129.08C524.745 128.24 525.849 127.82 527.253 127.82C528.597 127.82 529.647 128.24 530.403 129.08C531.171 129.908 531.555 131.054 531.555 132.518V133.436ZM529.035 131.618C529.035 131.09 528.873 130.676 528.549 130.376C528.225 130.064 527.781 129.908 527.217 129.908C526.713 129.908 526.299 130.07 525.975 130.394C525.651 130.706 525.435 131.15 525.327 131.726H529.035V131.618ZM535.53 137.18C534.726 137.18 534.108 136.97 533.676 136.55C533.244 136.13 533.028 135.524 533.028 134.732V123.644H535.584V134.786C535.584 135.218 535.848 135.434 536.376 135.434C536.676 135.434 537.03 135.35 537.438 135.182L537.816 136.514C537.24 136.958 536.478 137.18 535.53 137.18ZM540.997 137.18C540.193 137.18 539.575 136.97 539.143 136.55C538.711 136.13 538.495 135.524 538.495 134.732V123.644H541.051V134.786C541.051 135.218 541.315 135.434 541.843 135.434C542.143 135.434 542.497 135.35 542.905 135.182L543.283 136.514C542.707 136.958 541.945 137.18 540.997 137.18ZM551.84 133.436H545.648C545.756 133.976 545.978 134.378 546.314 134.642C546.662 134.906 547.13 135.038 547.718 135.038C548.234 135.038 548.684 134.954 549.068 134.786C549.452 134.618 549.836 134.33 550.22 133.922L551.588 135.218C551.24 135.806 550.694 136.28 549.95 136.64C549.218 137 548.42 137.18 547.556 137.18C546.14 137.18 545.03 136.772 544.226 135.956C543.422 135.128 543.02 133.988 543.02 132.536C543.02 131.072 543.422 129.92 544.226 129.08C545.03 128.24 546.134 127.82 547.538 127.82C548.882 127.82 549.932 128.24 550.688 129.08C551.456 129.908 551.84 131.054 551.84 132.518V133.436ZM549.32 131.618C549.32 131.09 549.158 130.676 548.834 130.376C548.51 130.064 548.066 129.908 547.502 129.908C546.998 129.908 546.584 130.07 546.26 130.394C545.936 130.706 545.72 131.15 545.612 131.726H549.32V131.618ZM553.277 130.196C553.277 129.176 553.259 128.444 553.223 128H555.653C555.701 128.468 555.725 128.996 555.725 129.584V129.764H555.797C556.025 129.176 556.433 128.708 557.021 128.36C557.621 128 558.305 127.82 559.073 127.82C559.229 127.82 559.415 127.838 559.631 127.874V129.872C559.607 129.86 559.487 129.854 559.271 129.854C558.659 129.854 558.089 130.01 557.561 130.322C557.033 130.634 556.613 131.048 556.301 131.564C555.989 132.08 555.833 132.638 555.833 133.238V137H553.277V130.196ZM565.635 129.71H564.177V128H565.635V126.938C565.635 126.05 565.917 125.354 566.481 124.85C567.057 124.346 567.837 124.094 568.821 124.094C569.289 124.094 569.727 124.166 570.135 124.31C570.543 124.454 570.879 124.658 571.143 124.922L570.261 126.416C570.117 126.284 569.949 126.182 569.757 126.11C569.565 126.038 569.379 126.002 569.199 126.002C568.887 126.002 568.641 126.11 568.461 126.326C568.281 126.53 568.191 126.812 568.191 127.172V128H570.711V129.71H568.191V137H565.635V129.71ZM579.825 133.436H573.633C573.741 133.976 573.963 134.378 574.299 134.642C574.647 134.906 575.115 135.038 575.703 135.038C576.219 135.038 576.669 134.954 577.053 134.786C577.437 134.618 577.821 134.33 578.205 133.922L579.573 135.218C579.225 135.806 578.679 136.28 577.935 136.64C577.203 137 576.405 137.18 575.541 137.18C574.125 137.18 573.015 136.772 572.211 135.956C571.407 135.128 571.005 133.988 571.005 132.536C571.005 131.072 571.407 129.92 572.211 129.08C573.015 128.24 574.119 127.82 575.523 127.82C576.867 127.82 577.917 128.24 578.673 129.08C579.441 129.908 579.825 131.054 579.825 132.518V133.436ZM577.305 131.618C577.305 131.09 577.143 130.676 576.819 130.376C576.495 130.064 576.051 129.908 575.487 129.908C574.983 129.908 574.569 130.07 574.245 130.394C573.921 130.706 573.705 131.15 573.597 131.726H577.305V131.618ZM589.721 133.436H583.529C583.637 133.976 583.859 134.378 584.195 134.642C584.543 134.906 585.011 135.038 585.599 135.038C586.115 135.038 586.565 134.954 586.949 134.786C587.333 134.618 587.717 134.33 588.101 133.922L589.469 135.218C589.121 135.806 588.575 136.28 587.831 136.64C587.099 137 586.301 137.18 585.437 137.18C584.021 137.18 582.911 136.772 582.107 135.956C581.303 135.128 580.901 133.988 580.901 132.536C580.901 131.072 581.303 129.92 582.107 129.08C582.911 128.24 584.015 127.82 585.419 127.82C586.763 127.82 587.813 128.24 588.569 129.08C589.337 129.908 589.721 131.054 589.721 132.518V133.436ZM587.201 131.618C587.201 131.09 587.039 130.676 586.715 130.376C586.391 130.064 585.947 129.908 585.383 129.908C584.879 129.908 584.465 130.07 584.141 130.394C583.817 130.706 583.601 131.15 583.493 131.726H587.201V131.618ZM594.461 137.18C593.645 137.18 592.931 137.018 592.319 136.694C591.707 136.37 591.281 135.938 591.041 135.398L592.625 134.318C592.841 134.618 593.111 134.858 593.435 135.038C593.759 135.206 594.089 135.29 594.425 135.29C594.797 135.29 595.103 135.2 595.343 135.02C595.583 134.84 595.703 134.612 595.703 134.336C595.703 134.192 595.667 134.078 595.595 133.994C595.535 133.898 595.409 133.802 595.217 133.706C595.025 133.61 594.719 133.478 594.299 133.31C593.171 132.866 592.379 132.428 591.923 131.996C591.479 131.552 591.257 131.006 591.257 130.358C591.257 129.59 591.569 128.978 592.193 128.522C592.817 128.054 593.645 127.82 594.677 127.82C595.385 127.82 596.015 127.952 596.567 128.216C597.131 128.468 597.593 128.84 597.953 129.332L596.477 130.43C596.069 129.95 595.511 129.71 594.803 129.71C594.479 129.71 594.227 129.764 594.047 129.872C593.879 129.98 593.795 130.13 593.795 130.322C593.795 130.466 593.831 130.586 593.903 130.682C593.975 130.766 594.119 130.868 594.335 130.988C594.563 131.096 594.941 131.252 595.469 131.456C596.213 131.744 596.783 132.02 597.179 132.284C597.575 132.548 597.851 132.83 598.007 133.13C598.175 133.418 598.259 133.778 598.259 134.21C598.259 134.798 598.097 135.32 597.773 135.776C597.461 136.22 597.017 136.568 596.441 136.82C595.865 137.06 595.205 137.18 594.461 137.18ZM599.523 124.4H602.583L602.295 132.914H599.811L599.523 124.4ZM601.053 137.18C600.513 137.18 600.075 137.024 599.739 136.712C599.403 136.388 599.235 135.974 599.235 135.47C599.235 134.954 599.403 134.54 599.739 134.228C600.075 133.904 600.513 133.742 601.053 133.742C601.593 133.742 602.031 133.904 602.367 134.228C602.703 134.54 602.871 134.954 602.871 135.47C602.871 135.974 602.703 136.388 602.367 136.712C602.031 137.024 601.593 137.18 601.053 137.18ZM603.946 124.22H606.628L606.43 129.026H604.126L603.946 124.22ZM607.78 124.22H610.462L610.282 129.026H607.978L607.78 124.22Z" fill="#004225"></path></svg>