<svg width="71" height="71" viewBox="0 0 71 71" fill="none" xmlns="http://www.w3.org/2000/svg">
<circle cx="35.5" cy="35.5" r="35" fill="#004225" fill-opacity="0.2" stroke="#004225"/>
<path d="M51.845 45.2593L43.331 36.7453C47.7297 28.3023 41.4208 17.9254 31.8725 18.0025C24.955 17.8598 18.8591 23.9545 19.0025 30.8726C18.926 40.4204 29.3026 46.7304 37.7452 42.3309L46.2593 50.8451C47.7992 52.385 50.305 52.385 51.845 50.8451C53.385 49.305 53.385 46.7993 51.845 45.2593ZM24.1921 38.553C17.377 31.7613 22.2515 19.9935 31.8727 20.0107C37.7107 19.8903 42.8553 25.0339 42.7343 30.8726C42.7509 40.494 30.9831 45.3683 24.1921 38.553ZM40.9731 39.9731C41.437 39.5092 41.8608 39.016 42.2435 38.4979L44.0527 40.3071L41.3071 43.0526L39.4979 41.2434C40.016 40.8608 40.5092 40.437 40.9731 39.9731ZM50.4249 49.4249C49.6679 50.1818 48.4363 50.1818 47.6794 49.4249L42.7272 44.4727L45.4728 41.7272L50.4249 46.6793C51.1819 47.4363 51.1819 48.668 50.4249 49.4249Z" fill="#004225"/>
<path d="M40.075 31.821C39.8897 31.5869 39.61 31.4474 39.3115 31.4403C39.0059 31.4331 38.7574 31.1783 38.7574 30.8726C38.7574 30.5669 39.006 30.3121 39.3116 30.3048C39.9207 30.3052 40.4112 29.6871 40.2702 29.0936C40.0517 28.0583 39.6473 27.0827 39.0681 26.1939C38.9052 25.9438 38.6396 25.7792 38.3432 25.7447C38.0469 25.7099 37.7504 25.8091 37.5343 26.0149C37.313 26.2257 36.9574 26.2212 36.7412 26.0051C36.5252 25.789 36.5208 25.4333 36.7314 25.2122C36.9372 24.996 37.0361 24.6997 37.0016 24.4033C36.9669 24.1069 36.8023 23.8413 36.5523 23.6784C35.6631 23.0991 34.6875 22.6947 33.6525 22.4764C33.0589 22.3369 32.4413 22.8245 32.4414 23.435C32.4341 23.7405 32.1794 23.989 31.8737 23.989C31.568 23.989 31.3133 23.7405 31.306 23.435C31.3063 22.8259 30.6882 22.3356 30.0948 22.4765C29.0599 22.6948 28.0843 23.0992 27.1952 23.6785C26.677 23.9994 26.5849 24.7806 27.0161 25.2123C27.5049 25.7629 26.7568 26.5009 26.2131 26.0151C25.7826 25.5849 24.9992 25.6751 24.6794 26.1942C24.1002 27.0832 23.6958 28.0588 23.4774 29.094C23.3378 29.6875 23.8255 30.3052 24.4359 30.3051C25.1723 30.3512 25.1655 31.3974 24.436 31.4406C23.8269 31.4403 23.3366 32.0584 23.4775 32.6517C23.6958 33.6865 24.1002 34.6621 24.6794 35.5514C25.0003 36.0696 25.7819 36.1621 26.2133 35.7305C26.7638 35.2416 27.5022 35.9898 27.0161 36.5335C26.8103 36.7496 26.7112 37.0461 26.7458 37.3424C26.7804 37.6388 26.945 37.9045 27.1949 38.0674C28.0838 38.6466 29.0595 39.0511 30.0948 39.2696C30.3845 39.3311 30.6912 39.2603 30.9254 39.0745C31.1595 38.8892 31.299 38.6094 31.3061 38.311C31.3519 37.5745 32.3985 37.5813 32.4415 38.311C32.441 38.9201 33.0595 39.4107 33.6528 39.2696C34.6881 39.051 35.6637 38.6466 36.5526 38.0675C37.0708 37.7465 37.1629 36.9653 36.7316 36.5336C36.2425 35.9832 36.9908 35.2448 37.5344 35.7307C37.7505 35.9365 38.0469 36.0357 38.3433 36.001C38.6397 35.9664 38.9054 35.8018 39.0683 35.5519C39.6475 34.6631 40.0519 33.6874 40.2705 32.652C40.3318 32.3595 40.2603 32.0551 40.075 31.821ZM38.0565 33.1101C37.9886 33.2976 37.9122 33.4818 37.8273 33.6624C35.9148 33.1268 34.1278 34.9148 34.6633 36.8264C34.4827 36.9112 34.2984 36.9877 34.1109 37.0555C33.1377 35.3239 30.6086 35.3249 29.636 37.0556C29.4484 36.9878 29.2643 36.9113 29.0836 36.8264C29.6193 34.914 27.8314 33.1269 25.92 33.6624C25.835 33.4816 25.7586 33.2975 25.6908 33.1099C27.4222 32.1364 27.4212 29.608 25.6908 28.6352C25.7586 28.4477 25.835 28.2634 25.9199 28.0828C27.8324 28.6183 29.619 26.8304 29.0837 24.9191C29.2644 24.8342 29.4486 24.7577 29.6362 24.6899C30.6097 26.4212 33.1381 26.4203 34.1109 24.6899C34.2984 24.7577 34.4827 24.8342 34.6633 24.9191C34.1278 26.8317 35.9158 28.6184 37.8273 28.0828C37.9122 28.2634 37.9886 28.4477 38.0565 28.6352C36.3249 29.6085 36.3257 32.1374 38.0565 33.1101Z" fill="#004225"/>
<path d="M31.8717 27.5596C30.0448 27.5596 28.5586 29.0458 28.5586 30.8726C28.7252 35.2618 35.0189 35.2606 35.1847 30.8726C35.1847 29.0458 33.6984 27.5596 31.8717 27.5596ZM31.8717 32.1774C31.1522 32.1774 30.5669 31.5921 30.5669 30.8726C30.6325 29.1441 33.1111 29.1446 33.1764 30.8726C33.1764 31.5921 32.5911 32.1774 31.8717 32.1774Z" fill="#004225"/>
</svg>
