<svg width="1728" height="1786" viewBox="0 0 1728 1786" fill="none" xmlns="http://www.w3.org/2000/svg">
<path d="M-417.335 14.9121C-396.794 291.287 -309.122 608.599 -61.5663 861.144C467.845 1401.22 1181.65 1504.48 1870.77 861.144C1870.77 861.144 1232.4 2079.94 52.984 1494.49C-852.892 1044.83 -1050.92 324.761 -1094.05 14.9121H-417.327H-417.335Z" fill="url(#paint0_linear_2247_6170)"/>
<g style="mix-blend-mode:multiply" opacity="0.3">
<path d="M-1345.49 1785.35L-1279.86 14.915H-823.403C-797.44 141.955 -760.249 276.669 -709.033 418.825C-458.886 1113.15 589.094 1753.71 1770.72 871.719L1786.21 1785.35H-1345.49Z" fill="#595959"/>
</g>
<path d="M-1335.94 1778.08L-1270.31 7.64453H-817.621C-791.547 139.319 -753.414 279.334 -700.069 427.428C-449.914 1121.74 598.066 1762.3 1779.69 880.312L1794.91 1778.07H-1335.94V1778.08Z" fill="#3B634C"/>
<path d="M-1254.98 110.259C-1254.98 110.259 -1130.96 931.387 2.94922 1239.96C2.94922 1239.96 -913.924 1187.66 -1348 706.49L-1254.98 110.259Z" fill="#BF9B3E"/>
<path d="M1779.85 631.654C1779.69 632.027 1778.8 633.34 1778.17 634.319L1775.97 637.621L1771.29 644.458C1768.14 649.052 1764.72 653.717 1761.41 658.352C1754.61 667.632 1747.64 676.902 1740.5 686.101C1726.26 704.529 1711.34 722.574 1696.13 740.356C1665.63 775.88 1633.66 810.172 1600.53 843.08C1534.2 908.827 1463.44 969.403 1389.26 1024.32C1352.12 1051.66 1314.33 1078.11 1275.53 1102.51C1256.29 1115.15 1236.55 1126.56 1216.96 1138.53C1207.11 1144.36 1197.13 1149.86 1187.21 1155.56C1177.27 1161.18 1167.36 1166.98 1157.26 1172.2C1076.97 1215.59 994.115 1253.39 909.273 1285.2C996.74 1265.82 1083.52 1240.06 1169.01 1208.04C1179.76 1204.24 1190.33 1199.85 1200.97 1195.62C1211.59 1191.33 1222.27 1187.21 1232.85 1182.76C1253.9 1173.54 1275.18 1164.82 1296.03 1154.83C1338.07 1135.71 1379.4 1114.35 1420.4 1091.83C1502.29 1046.52 1581.97 994.567 1658.61 935.778C1696.9 906.322 1734.38 875.07 1770.95 841.808C1789.21 825.126 1807.28 808.041 1825.03 790.077C1833.92 781.12 1842.75 771.952 1851.54 762.551C1855.93 757.744 1860.3 753.069 1864.71 748.06L1871.37 740.487L1874.77 736.509L1878.62 731.823L1886.83 721.826C1912.39 690.705 1911.74 641.014 1885.38 610.842C1859.03 580.66 1816.94 581.427 1791.39 612.549C1786.71 618.254 1782.78 624.918 1779.86 631.633L1779.85 631.654Z" fill="#3B634C"/>
<defs>
<linearGradient id="paint0_linear_2247_6170" x1="388.361" y1="14.9121" x2="388.361" y2="1653.58" gradientUnits="userSpaceOnUse">
<stop stop-color="#BF9B3E"/>
<stop offset="1" stop-color="#FCD462"/>
</linearGradient>
</defs>
</svg>
