<svg width="26" height="31" viewBox="0 0 26 31" fill="none" xmlns="http://www.w3.org/2000/svg">
<path d="M21.4332 29.2725C19.8024 30.8708 18.0219 30.6185 16.3079 29.8614C14.494 29.0875 12.83 29.0538 10.9163 29.8614C8.52006 30.9045 7.25537 30.6016 5.82428 29.2725C-2.29635 20.8101 -1.09822 7.92308 8.12068 7.45201C10.3672 7.56978 11.9314 8.69697 13.246 8.79792C15.2096 8.39414 17.09 7.2333 19.1867 7.38471C21.6994 7.5866 23.5965 8.59603 24.8445 10.413C19.6526 13.5591 20.884 20.4737 25.6433 22.4084C24.6947 24.932 23.4633 27.4387 21.4165 29.2894L21.4332 29.2725ZM13.0796 7.35107C12.83 3.59935 15.8419 0.503757 19.3032 0.200928C19.7858 4.54148 15.4093 7.77166 13.0796 7.35107Z" fill="black"/>
</svg>
