<svg width="1728" height="1054" viewBox="0 0 1728 1054" fill="none" xmlns="http://www.w3.org/2000/svg">
<path d="M1311.57 8.80176C1297.26 171.916 1236.16 359.189 1063.64 508.239C694.705 826.987 197.264 887.929 -282.977 508.239C-282.977 508.239 161.894 1227.56 983.816 882.035C1615.11 616.649 1753.11 191.672 1783.17 8.80176H1311.57H1311.57Z" fill="url(#paint0_linear_2309_6163)"/>
<g style="mix-blend-mode:multiply" opacity="0.3">
<path d="M1958.4 1053.7L1912.66 8.80273H1594.56C1576.47 83.7802 1550.55 163.287 1514.86 247.186C1340.53 656.967 610.209 1035.02 -213.25 514.479L-224.043 1053.7H1958.4Z" fill="#595959"/>
</g>
<path d="M1951.74 1049.4L1906 4.51123H1590.53C1572.36 82.2242 1545.79 164.86 1508.61 252.263C1334.28 662.038 603.96 1040.09 -219.499 519.55L-230.102 1049.4H1951.74V1049.4Z" fill="#3B634C"/>
<path d="M1570.71 0C1514.46 209.712 1382.25 507.929 1074 659.863C1074 659.863 1509.77 507.369 1761.3 0H1570.71Z" fill="url(#paint1_linear_2309_6163)"/>
<path d="M1895.32 65.0728C1895.32 65.0728 1808.88 549.694 1018.68 731.813C1018.68 731.813 1657.64 700.942 1960.14 416.962L1895.32 65.0728Z" fill="#BF9B3E"/>
<path d="M-207.376 324.04C-207.263 324.261 -206.649 325.036 -206.208 325.614L-204.676 327.562L-201.41 331.597C-199.217 334.309 -196.833 337.062 -194.527 339.797C-189.789 345.274 -184.932 350.745 -179.956 356.174C-170.033 367.051 -159.634 377.7 -149.032 388.195C-127.78 409.161 -105.503 429.4 -82.4154 448.822C-36.187 487.625 13.1226 523.376 64.816 555.791C90.6985 571.923 117.04 587.531 144.078 601.936C157.482 609.397 171.242 616.131 184.89 623.193C191.755 626.632 198.71 629.88 205.623 633.241C212.554 636.561 219.455 639.982 226.493 643.063C282.448 668.671 340.19 690.984 399.315 709.756C338.361 698.32 277.883 683.117 218.305 664.219C210.814 661.973 203.448 659.386 196.034 656.889C188.638 654.356 181.189 651.925 173.817 649.296C159.15 643.855 144.317 638.712 129.787 632.812C100.496 621.531 71.6874 608.92 43.1172 595.63C-13.9518 568.89 -69.4772 538.228 -122.887 503.531C-149.574 486.147 -175.689 467.702 -201.172 448.071C-213.902 438.226 -226.494 428.142 -238.866 417.54C-245.058 412.254 -251.209 406.843 -257.335 401.294C-260.398 398.458 -263.444 395.698 -266.519 392.742L-271.155 388.273L-273.527 385.925L-276.209 383.159L-281.93 377.259C-299.744 358.892 -299.291 329.565 -280.923 311.758C-262.556 293.944 -233.229 294.397 -215.421 312.765C-212.156 316.132 -209.42 320.065 -207.382 324.028L-207.376 324.04Z" fill="#BF9B3E"/>
<defs>
<linearGradient id="paint0_linear_2309_6163" x1="750.096" y1="8.80176" x2="750.096" y2="975.928" gradientUnits="userSpaceOnUse">
<stop stop-color="#BF9B3E"/>
<stop offset="1" stop-color="#FCD462"/>
</linearGradient>
<linearGradient id="paint1_linear_2309_6163" x1="1417.65" y1="727.695" x2="1417.65" y2="61.8127" gradientUnits="userSpaceOnUse">
<stop stop-color="#FD7E21"/>
<stop offset="0.01" stop-color="#FD8127"/>
<stop offset="0.11" stop-color="#FD9E59"/>
<stop offset="0.22" stop-color="#FDB885"/>
<stop offset="0.33" stop-color="#FECEAB"/>
<stop offset="0.44" stop-color="#FEE0C9"/>
<stop offset="0.56" stop-color="#FEEDE1"/>
<stop offset="0.69" stop-color="#FEF7F1"/>
<stop offset="0.82" stop-color="#FEFDFB"/>
<stop offset="1" stop-color="white"/>
</linearGradient>
</defs>
</svg>
