<svg width="33" height="33" viewBox="0 0 33 33" fill="none" xmlns="http://www.w3.org/2000/svg">
<path d="M29.9263 22.772V6.35281C29.9263 4.72042 28.5932 3.50972 26.9744 3.64576H26.8928C24.0361 3.89062 19.6966 5.34617 17.2752 6.86974L17.044 7.01937C16.6495 7.26423 15.9965 7.26423 15.602 7.01937L15.262 6.81532C12.8406 5.30536 8.51473 3.86341 5.65804 3.63215C4.03925 3.49612 2.71973 4.72042 2.71973 6.33921V22.772C2.71973 24.0779 3.78078 25.3022 5.0867 25.4654L5.4812 25.5199C8.43311 25.9143 12.9902 27.4107 15.602 28.8391L15.6565 28.8663C16.0237 29.0703 16.6087 29.0703 16.9624 28.8663C19.5742 27.4243 24.1449 25.9143 27.1104 25.5199L27.5593 25.4654C28.8653 25.3022 29.9263 24.0779 29.9263 22.772Z" stroke="#292D32" stroke-width="1.34647" stroke-linecap="round" stroke-linejoin="round"/>
<path d="M16.3232 7.46826V27.8732" stroke="#292D32" stroke-width="1.34647" stroke-linecap="round" stroke-linejoin="round"/>
<path d="M10.5432 11.5493H7.48242" stroke="#292D32" stroke-width="1.34647" stroke-linecap="round" stroke-linejoin="round"/>
<path d="M11.5634 15.6301H7.48242" stroke="#292D32" stroke-width="1.34647" stroke-linecap="round" stroke-linejoin="round"/>
</svg>
