<svg width="71" height="71" viewBox="0 0 71 71" fill="none" xmlns="http://www.w3.org/2000/svg">
<circle cx="35.5" cy="35.5" r="35" fill="#004225" fill-opacity="0.2" stroke="#004225"/>
<path d="M52.0039 46.0234H51.0078V27.0312C51.0078 26.4811 50.5618 26.0352 50.0117 26.0352H47.0234V18.9961C47.0234 18.446 46.5775 18 46.0273 18H32.0156C31.8163 18 31.6206 18.0622 31.4631 18.1673L25.4866 22.1517C25.4861 22.152 25.4857 22.1523 25.4852 22.1526C25.2191 22.3311 25.0472 22.6324 25.0435 22.9698C25.0435 22.9734 25.043 22.9769 25.043 22.9805V26.0352H21.9883C21.4382 26.0352 20.9922 26.4811 20.9922 27.0312V46.0234H19.9961C19.446 46.0234 19 46.4694 19 47.0195C19 49.7727 21.2933 52 24.0469 52H48.0195C50.7658 52 53 49.7658 53 47.0195C53 46.4694 52.554 46.0234 52.0039 46.0234ZM49.0156 28.0273V46.0234H47.0234V28.0273H49.0156ZM45.0312 46.0234H27.0352C27.0352 44.5482 27.0352 24.8877 27.0352 23.9766H32.0156C32.5657 23.9766 33.0117 23.5306 33.0117 22.9805V19.9922H45.0312V46.0234ZM31.0195 20.8573V21.9844H29.329L31.0195 20.8573ZM22.9844 28.0273H25.043V46.0234H22.9844V28.0273ZM48.0195 50.0078H24.0469C22.746 50.0078 21.6037 49.1633 21.1738 48.015H50.8371C50.426 49.1751 49.3182 50.0078 48.0195 50.0078Z" fill="#004225"/>
<path d="M36 32.0117H42.043C42.5931 32.0117 43.0391 31.5657 43.0391 31.0156C43.0391 30.4655 42.5931 30.0195 42.043 30.0195H36C35.4499 30.0195 35.0039 30.4655 35.0039 31.0156C35.0039 31.5657 35.4499 32.0117 36 32.0117Z" fill="#004225"/>
<path d="M42.043 34.0039H30.0234C29.4733 34.0039 29.0273 34.4499 29.0273 35C29.0273 35.5501 29.4733 35.9961 30.0234 35.9961H42.043C42.5931 35.9961 43.0391 35.5501 43.0391 35C43.0391 34.4499 42.5931 34.0039 42.043 34.0039Z" fill="#004225"/>
<path d="M39.9844 42.0391H38.4048L36.7043 40.3387C36.3154 39.9497 35.6847 39.9497 35.2957 40.3387L35.0039 40.6304V39.0508C35.0039 38.6479 34.7612 38.2847 34.389 38.1305C34.0167 37.9763 33.5883 38.0616 33.3035 38.3465L29.3191 42.3309C28.9301 42.7199 28.9301 43.3505 29.3191 43.7395C29.708 44.1286 30.3388 44.1286 30.7278 43.7395L33.0118 41.4556V43.0352C33.0118 43.4381 33.2545 43.8013 33.6267 43.9554C33.9989 44.1096 34.4273 44.0244 34.7122 43.7395L36 42.4517L37.2879 43.7395C37.4747 43.9263 37.7281 44.0313 37.9922 44.0313H39.9844C40.5345 44.0313 40.9805 43.5853 40.9805 43.0352C40.9805 42.4851 40.5345 42.0391 39.9844 42.0391Z" fill="#004225"/>
</svg>
