<svg width="21" height="34" viewBox="0 0 21 34" fill="none" xmlns="http://www.w3.org/2000/svg">
<path d="M20.3142 1.11882C20.3142 0.875409 20.2175 0.641968 20.0454 0.469851C19.8733 0.297734 19.6398 0.201039 19.3964 0.201039H14.8075C12.4968 0.0859325 10.2344 0.890093 8.51472 2.43782C6.79503 3.98554 5.75782 6.151 5.62973 8.46106V13.4171H1.04083C0.797417 13.4171 0.563976 13.5138 0.391859 13.6859C0.219742 13.858 0.123047 14.0914 0.123047 14.3349V19.1073C0.123047 19.3507 0.219742 19.5842 0.391859 19.7563C0.563976 19.9284 0.797417 20.0251 1.04083 20.0251H5.62973V32.3234C5.62973 32.5668 5.72642 32.8002 5.89854 32.9723C6.07066 33.1444 6.3041 33.2411 6.54751 33.2411H12.0542C12.2976 33.2411 12.531 33.1444 12.7032 32.9723C12.8753 32.8002 12.972 32.5668 12.972 32.3234V20.0251H17.7811C17.9852 20.028 18.1845 19.9628 18.3474 19.8398C18.5103 19.7168 18.6275 19.543 18.6806 19.3459L20.0022 14.5735C20.0387 14.4379 20.0436 14.2957 20.0165 14.1579C19.9894 14.0201 19.9311 13.8903 19.846 13.7786C19.7609 13.6669 19.6513 13.5762 19.5256 13.5136C19.3999 13.4509 19.2615 13.4179 19.1211 13.4171H12.972V8.46106C13.0176 8.00672 13.231 7.58571 13.5704 7.28023C13.9098 6.97476 14.3509 6.80677 14.8075 6.80906H19.3964C19.6398 6.80906 19.8733 6.71236 20.0454 6.54025C20.2175 6.36813 20.3142 6.13469 20.3142 5.89128V1.11882Z" fill="#4167B2"/>
</svg>
