<svg width="49" height="49" viewBox="0 0 49 49" fill="none" xmlns="http://www.w3.org/2000/svg">
<path d="M44.1342 20.3898H42.5078V20.306H24.3357V28.3825H35.7467C34.082 33.084 29.6086 36.459 24.3357 36.459C17.6454 36.459 12.221 31.0346 12.221 24.3442C12.221 17.6539 17.6454 12.2295 24.3357 12.2295C27.4239 12.2295 30.2335 13.3946 32.3728 15.2976L38.0839 9.58652C34.4777 6.2257 29.6541 4.15308 24.3357 4.15308C13.1851 4.15308 4.14453 13.1937 4.14453 24.3442C4.14453 35.4948 13.1851 44.5354 24.3357 44.5354C35.4863 44.5354 44.5269 35.4948 44.5269 24.3442C44.5269 22.9904 44.3876 21.6689 44.1342 20.3898Z" fill="#FFC107"/>
<path d="M6.4707 14.9463L13.1045 19.8113C14.8995 15.3673 19.2467 12.2295 24.3338 12.2295C27.4221 12.2295 30.2317 13.3946 32.3709 15.2976L38.082 9.58652C34.4759 6.2257 29.6522 4.15308 24.3338 4.15308C16.5784 4.15308 9.85272 8.53153 6.4707 14.9463Z" fill="#FF3D00"/>
<path d="M24.3346 44.5354C29.5499 44.5354 34.2888 42.5395 37.8717 39.2938L31.6226 34.0057C29.5273 35.5992 26.9669 36.4611 24.3346 36.459C19.0828 36.459 14.6236 33.1103 12.9437 28.437L6.35938 33.51C9.70101 40.049 16.4873 44.5354 24.3346 44.5354Z" fill="#4CAF50"/>
<path d="M44.1324 20.3902H42.506V20.3064H24.334V28.3829H35.745C34.9487 30.6205 33.5143 32.5757 31.619 34.0071L31.622 34.0051L37.8712 39.2932C37.429 39.695 44.5252 34.4402 44.5252 24.3446C44.5252 22.9908 44.3858 21.6693 44.1324 20.3902Z" fill="#1976D2"/>
</svg>
