<svg width="1728" height="1323" viewBox="0 0 1728 1323" fill="none" xmlns="http://www.w3.org/2000/svg">
<g opacity="0.1">
<path d="M253.18 1115.28C259.944 1136.25 273.374 1154.56 289.364 1167.62C305.344 1180.67 323.962 1188.54 341.137 1188.52C358.377 1188.5 374.084 1180.52 384.037 1162.06C393.952 1143.67 398.116 1114.97 392.635 1073.51C389.062 1046.49 388.695 999.867 392.641 943.04C394.419 917.433 412.708 897.558 433.635 875.446C434.092 874.963 434.551 874.479 435.01 873.993C455.489 852.366 478.015 828.577 488.722 795.42C505.917 742.168 482.324 697.029 457.252 658.493C453.49 652.71 449.699 647.083 446.005 641.599C437.351 628.753 429.23 616.696 423.251 605.28C414.723 588.997 410.738 574.338 415.652 560.893C428.828 524.842 455.605 498.944 484.818 477.053C496.79 468.082 509.146 459.802 521.131 451.77C523.769 450.002 526.389 448.246 528.983 446.497C543.346 436.817 556.911 427.36 568.211 417.373C610.781 379.747 637.827 319.455 648.207 257.573C657.314 203.286 653.618 147.634 636.206 104.797C618.783 61.9351 587.559 31.7866 541.641 28.9315C495.775 26.0797 435.554 50.493 360.185 115.963C326.533 145.195 296.868 169.278 270.513 188.745C253.634 201.212 242.46 202.93 233.879 199.028C229.533 197.052 225.726 193.587 222.113 189.073C218.499 184.557 215.127 179.058 211.623 173.075C210.861 171.774 210.094 170.451 209.317 169.111C195.861 145.916 179.552 117.801 140.78 115.713C128.904 115.073 117.025 121.199 105.445 129.626C97.9115 135.108 90.3805 141.664 82.986 148.102C79.0241 151.551 75.1014 154.965 71.2385 158.163C60.071 167.406 49.4033 174.835 39.3583 176.662C34.3787 177.568 29.5663 177.092 24.9028 174.77C20.2235 172.44 15.6176 168.211 11.137 161.482C7.95947 156.71 4.72339 151.811 1.41235 146.799C-22.2137 111.033 -49.6562 69.4896 -86.8838 26.931C-124.176 -15.701 -166.331 -40.3982 -201.019 -38.9668C-218.419 -38.2489 -233.892 -30.9526 -245.821 -16.1425C-257.726 -1.36157 -266.055 20.8412 -269.359 51.322C-275.596 108.87 -263.954 196.226 -224.171 319.792C-217.848 339.432 -217.066 353.897 -219.493 366.121C-221.924 378.363 -227.59 388.456 -234.361 399.367C-235.332 400.933 -236.326 402.514 -237.334 404.119C-250.396 424.91 -265.958 449.681 -269.362 496.948C-272.664 542.804 -262.298 577.541 -253.931 605.582C-253.018 608.643 -252.128 611.624 -251.283 614.532C-246.98 629.33 -243.852 642.111 -244.436 653.775C-245.017 665.366 -249.269 675.903 -259.881 686.208L-260.746 687.048L-260.768 687.07C-293.683 719.028 -328.942 753.261 -348.184 818.969C-364.747 875.527 -363.18 931.586 -348.169 974.717C-332.112 1020.85 -300.562 1052.42 -259.194 1053.54C-217.765 1054.66 -167.015 1025.21 -112.78 950.469C-108.377 944.401 -104.237 940.98 -100.291 939.477C-96.3848 937.988 -92.5421 938.332 -88.5934 940.063C-84.6118 941.807 -80.5491 944.952 -76.2941 949.024C-72.0449 953.09 -67.6666 958.018 -63.0344 963.277C-62.7378 963.613 -62.4402 963.951 -62.1417 964.291C-53.1422 974.514 -43.1964 985.812 -31.6372 993.947C-19.6609 1002.38 -5.87598 1007.46 10.4682 1004.47C26.7609 1001.49 39.5025 992.227 50.0252 980.621C60.4759 969.094 68.7988 955.189 76.2628 942.719L76.3919 942.503C80.1494 936.226 83.6852 930.326 87.1811 925.243C90.6804 920.154 94.1003 915.941 97.6057 913.013C101.102 910.092 104.617 908.502 108.333 908.523C112.054 908.544 116.163 910.181 120.842 914.093C154.088 941.889 179.331 967.907 200.179 999.093C221.028 1030.28 237.51 1066.68 253.18 1115.28Z" stroke="#FBDC81" stroke-width="2.05042"/>
<path d="M126.915 514.463L126.9 514.475L126.885 514.487C118.407 521.309 110.311 522.006 103.626 520.185C96.9053 518.354 91.5378 513.953 88.6586 510.452C88.1863 509.736 87.7047 509 87.2115 508.247C83.6171 502.758 79.4083 496.33 73.7019 489.75C67.8748 483.03 60.4392 479.982 54.4372 480.704C51.4209 481.066 48.7534 482.39 46.9144 484.699C45.0761 487.007 44.1469 490.197 44.4069 494.146C44.7547 499.43 46.8511 508.166 49.3091 518.409L49.4899 519.162C52.0387 529.786 54.964 542.061 56.8552 554.098C58.7487 566.148 59.59 577.87 58.0186 587.399C56.4484 596.922 52.5123 604.051 45.0214 607.305C37.3383 610.642 33.5697 616.135 32.0536 621.669C30.5508 627.156 31.2671 632.646 32.4592 636.101C34.9646 643.363 39.9939 648.6 46.7979 648.786C48.6599 648.837 50.684 647.977 52.6578 646.776C54.6602 645.556 56.7587 643.891 58.8008 642.135C60.2423 640.895 61.6803 639.588 63.0477 638.345C63.6156 637.829 64.1714 637.324 64.7102 636.839C66.5688 635.168 68.2147 633.75 69.5485 632.855C74.7157 629.39 79.672 626.393 84.4608 624.605C89.2368 622.821 93.7711 622.267 98.1379 623.592C102.506 624.918 106.862 628.17 111.185 634.306C115.513 640.448 119.767 649.424 123.935 662.082C126.159 669.032 132.49 671.577 138.281 670.532C144.061 669.49 149.456 664.859 149.973 657.42C150.53 649.412 149.111 640.229 147.68 631.19C147.65 631 147.62 630.811 147.59 630.621C146.18 621.716 144.795 612.972 145.166 605.375C145.907 590.241 148.514 580.638 153.091 572.849C157.687 565.028 164.312 558.949 173.32 550.904C179.992 544.955 184.172 535.491 185.772 525.867C187.177 517.419 186.619 508.707 183.895 501.947C181.162 495.165 176.176 490.224 168.752 489.759C161.426 489.299 152.038 493.231 140.509 503.333C135.399 507.811 130.903 511.492 126.915 514.463Z" stroke="#FBDC81" stroke-width="2.05042"/>
<path d="M116.748 888.985L116.74 888.979C112.463 885.45 108.712 883.996 105.319 884.001C101.928 884.006 98.7116 885.47 95.5013 888.151C92.2827 890.84 89.1371 894.698 85.9147 899.361C82.6957 904.019 79.4387 909.42 75.9775 915.169L75.8356 915.405C68.9672 926.814 61.309 939.535 51.715 950.098C42.0433 960.746 30.3428 969.272 15.4019 972.068C0.410645 974.874 -12.2486 970.312 -23.2523 962.705C-33.8643 955.368 -43.0059 945.148 -51.2747 935.904C-51.5532 935.593 -51.8307 935.282 -52.1074 934.973C-56.3665 930.214 -60.3905 925.758 -64.2954 922.083C-68.2059 918.402 -71.9342 915.566 -75.583 913.998C-79.1997 912.444 -82.7134 912.144 -86.283 913.498C-89.89 914.865 -93.6802 917.967 -97.7157 923.479L-97.7165 923.48C-147.633 991.468 -194.272 1017.87 -232.24 1016.2C-270.035 1014.88 -298.822 985.643 -313.305 943.177L-312.335 942.846L-313.305 943.177C-326.838 903.44 -327.938 851.944 -312.189 800.179L-312.185 800.165L-312.181 800.152C-291.637 738.654 -261.959 700.363 -231.847 669.083L-231.838 669.074L-231.829 669.065C-222.198 659.536 -218.321 649.817 -217.758 639.158C-217.192 628.428 -219.978 616.699 -223.818 603.142C-224.576 600.464 -225.375 597.719 -226.195 594.9C-233.659 569.242 -242.88 537.544 -239.646 495.805C-236.295 452.549 -221.739 430.027 -209.547 411.163C-208.666 409.8 -207.798 408.456 -206.946 407.124C-200.64 397.261 -195.351 388.176 -193.005 377.162C-190.662 366.168 -191.235 353.154 -196.855 335.447C-232.466 223.694 -242.653 144.852 -236.616 93.0101C-233.541 65.3499 -225.875 45.2168 -214.93 31.8381C-203.961 18.4299 -189.748 11.8713 -173.774 11.3015C-141.936 10.166 -103.274 32.8021 -69.0184 71.6814C-69.0178 71.6821 -69.0172 71.6827 -69.0166 71.6835L-69.7858 72.3612C-37.2825 109.056 -12.6356 144.758 8.70514 175.671C13.1058 182.045 17.3658 188.216 21.5252 194.15L116.748 888.985ZM116.748 888.985L116.756 888.992C147.944 913.654 171.791 936.842 191.593 965.456C211.397 994.072 227.188 1028.16 242.205 1074.66M116.748 888.985L370.472 1037.33C375.336 1075.08 371.424 1101.22 362.266 1117.96C353.07 1134.76 338.629 1142 322.805 1141.96C307.044 1141.92 289.987 1134.67 275.353 1122.68C260.709 1110.69 248.411 1093.91 242.205 1074.66M242.205 1074.66L243.18 1074.35L242.205 1074.66C242.205 1074.66 242.205 1074.66 242.205 1074.66Z" stroke="#FBDC81" stroke-width="2.05042"/>
<path d="M112.035 862.852L112.017 862.837C108.15 859.704 104.763 858.435 101.702 858.467C98.6407 858.498 95.726 859.831 92.8066 862.264C89.8794 864.704 87.013 868.196 84.0723 872.416C81.1349 876.632 78.1617 881.518 75.0017 886.72L74.847 886.975C68.5844 897.286 61.6021 908.781 52.8787 918.345C44.072 928 33.4298 935.757 19.8631 938.36C6.24756 940.972 -5.26715 936.954 -15.2826 930.192C-24.9326 923.677 -33.2569 914.568 -40.7833 906.333L-41.5542 905.489C-45.4339 901.246 -49.0977 897.276 -52.6524 894.003C-56.2123 890.725 -59.6008 888.207 -62.9116 886.821C-66.1912 885.448 -69.3716 885.193 -72.5997 886.407C-75.863 887.634 -79.2982 890.408 -82.9592 895.345L-82.9609 895.347C-128.487 956.364 -170.947 979.625 -205.4 977.424C-239.566 975.899 -265.548 949.087 -278.436 910.431L-278.437 910.43C-290.471 874.218 -291.101 827.452 -276.188 780.648L-276.179 780.62L-276.169 780.593C-254.544 724.127 -230.922 681.909 -203.928 651.674L-203.91 651.654L-203.891 651.635C-195.254 642.914 -191.758 634.046 -191.214 624.354C-190.666 614.595 -193.106 603.956 -196.478 591.686C-197.148 589.248 -197.853 586.75 -198.577 584.186C-205.127 560.994 -213.192 532.436 -210.032 494.946C-206.735 455.839 -193.2 435.641 -181.893 418.768C-181.144 417.65 -180.405 416.546 -179.679 415.453C-173.846 406.668 -168.942 398.621 -166.684 388.872C-164.431 379.146 -164.794 367.628 -169.702 351.914C-201.09 252.336 -209.807 182.262 -203.978 136.293C-203.978 136.293 -203.978 136.292 -203.978 136.291L-202.961 136.42C-191.646 37.8833 -114.461 48.9391 -52.2634 118.783L112.035 862.852ZM112.035 862.852L112.054 862.866C141.138 884.314 163.551 904.598 182.278 930.543C201.006 956.492 216.084 988.154 230.425 1032.4C236.065 1049.85 247.213 1065.07 260.49 1075.95C273.756 1086.83 289.228 1093.43 303.55 1093.54C317.935 1093.64 331.09 1087.17 339.517 1072.06C347.904 1057.03 351.559 1033.54 347.32 999.63L112.035 862.852Z" stroke="#FBDC81" stroke-width="2.05042"/>
<path d="M107.932 837.725L107.963 837.749L107.995 837.771C135.02 856.085 156.033 873.54 173.711 896.911C191.392 920.285 205.779 949.631 219.467 991.777C224.549 1007.5 234.564 1021.2 246.493 1031.02C258.413 1040.82 272.322 1046.81 285.228 1046.97C298.195 1047.13 310.084 1041.41 317.755 1027.95C325.384 1014.57 328.789 993.648 325.168 963.453C324.032 943.551 325.127 908.531 328.131 865.391C329.494 845.816 342.705 830.298 357.826 813.039C358.167 812.65 358.509 812.26 358.851 811.869C373.627 795.012 389.855 776.5 397.468 751.175C409.824 711.146 392.387 677.039 373.992 647.856C371.321 643.619 368.634 639.491 366.013 635.465C359.57 625.568 353.525 616.283 349.094 607.48C342.864 595.103 339.989 583.981 343.564 573.78L343.568 573.768L343.572 573.756C353.356 543.523 373.536 522.112 396.06 504.079C406.17 495.985 416.73 488.588 427.027 481.375C428.205 480.549 429.38 479.726 430.55 478.905C441.934 470.916 452.894 463.08 462.357 454.734C494.297 426.571 514.735 381.696 522.855 335.564L522.856 335.561C529.771 295.518 527.317 254.436 514.81 222.641C502.302 190.844 479.668 168.21 446.232 165.455C413.439 158.847 368.113 171.957 309.452 219.284L309.446 219.289L309.44 219.294C283.993 240.469 261.299 258.184 240.86 272.899L240.854 272.903C228.28 282.083 219.909 283.445 213.447 280.829C210.169 279.503 207.266 277.113 204.484 273.958C201.699 270.801 199.083 266.934 196.356 262.707C195.73 261.736 195.099 260.747 194.459 259.745C184.015 243.384 171.338 223.523 142.312 222.657L142.299 222.657C133.22 222.504 124.178 227.284 115.407 233.69C109.714 237.847 104.018 242.783 98.4356 247.622C95.4272 250.229 92.4514 252.808 89.5263 255.222C81.0828 262.189 73.0553 267.786 65.5135 269.322C61.7816 270.082 58.1896 269.841 54.714 268.281C51.2261 266.716 47.7743 263.785 44.3996 259.028L44.3814 259.003L44.3616 258.978C38.0234 251.117 31.4321 242.55 24.4268 233.445C8.03778 212.143 -10.6173 187.896 -33.5985 162.853C-61.7296 131.606 -93.347 113.168 -119.432 113.708C-132.528 113.978 -144.2 119.037 -153.236 129.598C-162.246 140.129 -168.575 156.058 -171.19 177.988C-176.818 218.253 -169.557 279.81 -142.347 367.569C-138.142 381.35 -137.989 391.416 -140.154 399.91C-142.326 408.431 -146.852 415.472 -152.221 423.21C-152.819 424.072 -153.426 424.94 -154.04 425.819C-164.483 440.761 -177.024 458.705 -180.277 493.806C-183.37 527.189 -176.445 552.712 -170.799 573.524C-170.17 575.839 -169.558 578.095 -168.977 580.298C-166.069 591.326 -163.971 600.915 -164.501 609.74C-165.027 618.503 -168.149 626.554 -175.807 634.5L-175.836 634.531L-175.863 634.563C-187.825 649.221 -198.206 668.13 -208.428 689.792C-215.168 704.074 -221.858 719.595 -228.891 735.913C-232.523 744.339 -236.246 752.977 -240.115 761.767L-240.134 761.809L-240.148 761.853C-254.249 803.865 -254.089 846.069 -243.534 878.886L-243.534 878.887C-232.222 913.871 -209.007 938.357 -178.419 940.089C-147.428 942.838 -109.078 922.627 -67.8729 868.36L-67.8699 868.356C-64.5776 863.976 -61.4919 861.519 -58.5666 860.427C-55.674 859.348 -52.821 859.559 -49.873 860.757C-46.8949 861.967 -43.8408 864.177 -40.626 867.064C-37.4159 869.946 -34.1068 873.445 -30.6005 877.188L-29.8911 877.945C-23.0953 885.203 -15.5751 893.234 -6.87177 898.952C2.17096 904.892 12.5586 908.381 24.8185 905.953C37.0314 903.535 46.631 896.519 54.5858 887.822C62.452 879.222 68.769 868.91 74.4356 859.66L74.6031 859.387C80.3595 849.991 85.3901 841.84 90.7176 837.402C93.3512 835.208 95.9691 834.001 98.706 833.944C101.44 833.887 104.469 834.975 107.932 837.725Z" stroke="#FBDC81" stroke-width="2.05042"/>
<path d="M103.237 812.612L103.282 812.647L103.332 812.677C128.251 827.855 147.823 842.481 164.419 863.274C181.018 884.072 194.689 911.103 207.7 951.154C212.215 965.147 221.079 977.334 231.64 986.08C242.191 994.819 254.514 1000.18 265.981 1000.41C277.507 1000.63 288.11 995.646 295.011 983.846C301.87 972.119 305.018 953.76 302.023 927.282C301.701 909.717 303.283 878.519 305.969 839.885C307.192 822.289 318.7 808.201 331.865 792.538C332.164 792.183 332.463 791.827 332.762 791.471C345.622 776.179 359.733 759.4 366.307 736.649C377.031 700.98 361.672 670.508 345.524 644.404C343.22 640.679 340.903 637.048 338.642 633.504C332.945 624.575 327.6 616.199 323.691 608.254C318.235 597.163 315.731 587.201 318.857 578.064L318.863 578.048L318.868 578.031C327.511 549.694 345.47 529.752 365.736 512.983C375.212 505.141 385.173 498.009 394.918 491.031C395.599 490.544 396.279 490.057 396.957 489.571C407.333 482.136 417.411 474.831 426.25 467.021C454.607 441.975 472.816 402.181 480.174 361.239L480.175 361.234C486.351 325.887 484.315 289.609 473.458 261.453C462.607 233.31 442.871 213.15 413.641 210.418C385.24 202.539 344.925 211.908 291.908 253.247L291.899 253.254L291.89 253.262C269.209 271.779 248.866 287.395 230.423 300.547L230.415 300.553C219.292 308.648 211.862 309.896 206.112 307.702C203.195 306.588 200.596 304.552 198.095 301.846C195.591 299.137 193.231 295.808 190.766 292.161C190.186 291.302 189.601 290.425 189.007 289.537C179.58 275.43 168.128 258.295 142.388 257.835L142.378 257.834H142.368C134.234 257.846 126.15 262.183 118.327 267.922C113.255 271.643 108.18 276.045 103.208 280.357C100.52 282.687 97.8634 284.992 95.2538 287.148C87.7287 293.365 80.5901 298.361 73.8905 299.801C70.5779 300.513 67.3967 300.349 64.3217 299.04C61.2361 297.725 58.1746 295.222 55.1739 291.117L55.1455 291.079L55.1137 291.043C47.5199 282.47 39.5809 272.772 30.9749 262.26C28.4656 259.195 25.8997 256.06 23.269 252.864C11.6257 238.719 -1.26489 223.392 -16.0529 207.609C-41.0956 180.116 -69.1609 163.743 -92.3443 163.984C-103.989 164.105 -114.38 168.423 -122.442 177.58C-130.478 186.708 -136.133 200.567 -138.515 219.674C-143.936 254.234 -138.143 307.277 -115.158 383.218C-111.666 395.058 -111.721 403.666 -113.793 410.927C-115.874 418.221 -120.013 424.254 -124.91 430.947C-125.372 431.578 -125.839 432.214 -126.312 432.856C-135.877 445.861 -147.414 461.546 -150.622 492.643C-153.643 521.927 -147.867 544.419 -143.133 562.853C-142.604 564.913 -142.088 566.922 -141.598 568.885C-139.159 578.67 -137.405 587.209 -137.916 595.102C-138.423 602.938 -141.167 610.175 -147.833 617.345L-147.874 617.389L-147.909 617.438C-158.304 631.631 -166.395 651.353 -174.842 673.281C-175.919 676.077 -177.002 678.91 -178.097 681.773C-185.606 701.411 -193.661 722.48 -204.05 742.931L-204.08 742.989L-204.102 743.051C-217.367 780.269 -217.676 817.911 -208.621 847.333L-208.621 847.336C-198.907 878.644 -178.503 900.805 -151.545 902.749C-124.068 906.048 -89.8943 888.888 -53.0831 841.373L-53.0786 841.367C-50.1613 837.544 -47.4306 835.404 -44.8482 834.448C-42.296 833.502 -39.7753 833.671 -37.164 834.693C-34.5239 835.728 -31.81 837.63 -28.946 840.125C-26.0865 842.617 -23.138 845.645 -20.0113 848.887L-19.3672 849.555C-13.3135 855.835 -6.60953 862.79 1.13324 867.71C9.18787 872.828 18.4303 875.787 29.3129 873.543C40.1502 871.308 48.69 865.033 55.7784 857.295C62.7728 849.66 68.4128 840.533 73.4732 832.344L73.6542 832.051C78.807 823.713 83.3056 816.496 88.0501 812.538C90.3938 810.582 92.7106 809.501 95.1184 809.419C97.521 809.337 100.185 810.246 103.237 812.612Z" stroke="#FBDC81" stroke-width="2.05042"/>
<path d="M98.5772 786.059L98.6422 786.108L98.7142 786.145C121.526 798.156 139.649 809.92 155.156 828.088C170.667 846.261 183.619 870.912 195.951 908.779C199.899 921.009 207.611 931.652 216.803 939.311C225.986 946.963 236.72 951.694 246.747 951.977C256.83 952.261 266.146 948.036 272.28 937.915C278.369 927.867 281.26 912.117 278.892 889.416C279.289 877.149 280.711 856.994 282.49 831.776C282.915 825.751 283.36 819.437 283.817 812.873C284.901 797.293 294.708 784.666 305.917 770.634C306.17 770.317 306.424 770 306.678 769.682C317.624 755.987 329.622 740.976 335.156 720.848C344.248 689.618 330.967 662.85 317.068 639.884C315.129 636.681 313.182 633.557 311.28 630.505C306.33 622.563 301.687 615.113 298.3 608.041C293.618 598.262 291.483 589.482 294.162 581.429L294.169 581.407L294.175 581.386C301.678 555.009 317.417 536.58 335.422 521.115C344.265 513.518 353.639 506.65 362.853 499.899L363.371 499.52C372.739 492.656 381.933 485.897 390.146 478.642C414.918 456.77 430.899 422.146 437.494 386.485L437.495 386.478C442.932 355.905 441.312 324.512 432.108 300.058C422.914 275.633 406.08 257.995 381.064 255.288C357.052 246.147 321.741 251.76 274.375 287.018L274.362 287.028L274.349 287.038C254.435 302.857 236.443 316.34 219.998 327.898L219.986 327.906C210.315 334.9 203.823 336.033 198.781 334.261C193.62 332.447 189.622 327.501 185.183 321.332C184.648 320.589 184.108 319.831 183.561 319.062C175.15 307.237 164.927 292.864 142.473 292.812H142.459L142.446 292.812C135.261 292.988 128.138 296.871 121.262 301.932C116.812 305.207 112.357 309.065 107.997 312.84C105.63 314.889 103.292 316.913 100.998 318.807C94.3919 324.261 88.1413 328.645 82.2819 329.986C79.387 330.649 76.6151 330.561 73.9402 329.503C71.257 328.441 68.5872 326.371 65.9621 322.927L65.9196 322.872L65.8701 322.822C56.9264 313.919 47.499 303.206 37.0327 291.313L36.8084 291.058C26.2621 279.074 14.6735 265.915 1.51312 252.273C-20.4401 228.597 -44.9497 214.327 -65.2264 214.269C-75.416 214.239 -84.5267 217.804 -91.6159 225.537C-98.6788 233.242 -103.661 245 -105.812 261.244C-111.024 290.024 -106.698 334.434 -87.9388 398.382C-85.1583 408.253 -85.4199 415.383 -87.3939 421.393C-89.3815 427.445 -93.1315 432.458 -97.5585 438.093C-97.8738 438.494 -98.1922 438.898 -98.5131 439.305C-107.209 450.34 -117.756 463.725 -120.929 490.756C-123.88 515.888 -119.245 535.306 -115.422 551.325C-114.994 553.117 -114.577 554.866 -114.181 556.577C-112.21 565.098 -110.8 572.568 -111.292 579.513C-111.781 586.405 -114.147 592.812 -119.822 599.192L-119.875 599.251L-119.918 599.318C-128.115 612.043 -133.703 630.647 -139.81 650.977C-140.274 652.523 -140.742 654.079 -141.214 655.643C-147.914 677.856 -155.522 701.836 -167.938 722.801L-167.982 722.875L-168.012 722.955C-180.441 755.299 -181.221 788.295 -173.666 814.258L-173.665 814.261C-165.55 841.824 -147.96 861.61 -124.636 863.764C-100.673 867.611 -70.6742 853.539 -38.2578 812.882L-38.2513 812.873C-35.7096 809.616 -33.3341 807.797 -31.0933 806.977C-28.8792 806.166 -26.6887 806.292 -24.4131 807.139C-22.1105 807.996 -19.7367 809.587 -17.2241 811.686C-14.7155 813.782 -12.1278 816.332 -9.38086 819.066C-9.18973 819.256 -8.99786 819.447 -8.80524 819.639C-3.49298 824.929 2.3959 830.794 9.17947 834.906C16.2461 839.19 24.3418 841.609 33.844 839.554C43.3037 837.507 50.7825 831.988 57.0041 825.227C63.1262 818.574 68.0887 810.652 72.5424 803.542L72.7372 803.231C77.2859 795.97 81.2524 789.702 85.4142 786.232C87.4682 784.519 89.4854 783.564 91.5665 783.459C93.6389 783.353 95.938 784.082 98.5772 786.059Z" stroke="#FBDC81" stroke-width="2.05042"/>
<path d="M94.5519 760.951L94.6424 761.015L94.7447 761.059C115.498 769.933 132.203 778.869 146.647 794.454C161.097 810.047 173.356 832.376 185.034 868.152C188.423 878.65 194.999 887.777 202.841 894.367C210.674 900.951 219.842 905.06 228.447 905.404C237.105 905.751 245.153 902.277 250.533 893.811C255.865 885.421 258.508 872.241 256.763 853.264C256.918 851.743 257.09 850.073 257.276 848.262C258.667 834.754 260.866 813.394 262.677 787.371C263.625 773.762 271.757 762.56 281.033 750.126C281.237 749.852 281.442 749.577 281.648 749.302C290.706 737.165 300.618 723.883 305.125 706.322C312.602 679.457 301.375 656.33 289.696 636.444C288.118 633.758 286.535 631.135 284.987 628.572C280.774 621.592 276.824 615.047 273.954 608.829C270.034 600.337 268.263 592.713 270.502 585.718L270.51 585.691L270.517 585.664C276.897 561.179 290.451 544.218 306.232 530.019C314.13 522.912 322.576 516.507 330.966 510.188L332.01 509.402C340.035 503.36 347.989 497.371 355.277 490.933C376.515 472.181 390.3 442.64 396.145 412.171H396.145L396.147 412.161C400.856 386.287 399.651 359.7 392.08 338.889C384.528 318.13 370.569 302.971 349.723 300.275C330.052 289.835 299.659 291.711 257.844 320.978L257.826 320.99L257.809 321.004C240.62 334.164 224.941 345.549 210.457 355.544L210.449 355.55L210.442 355.555C202.202 361.464 196.63 362.49 192.279 361.13C187.826 359.738 184.318 355.773 180.399 350.773C179.909 350.148 179.414 349.509 178.912 348.861C171.498 339.285 162.483 327.64 143.274 327.997L143.255 327.997L143.237 327.998C136.991 328.341 130.817 331.776 124.874 336.172C121.039 339.009 117.196 342.331 113.44 345.577C111.388 347.351 109.362 349.102 107.378 350.739C101.677 355.442 96.2998 359.228 91.265 360.473C88.7794 361.088 86.4088 361.074 84.1272 360.263C81.8405 359.449 79.558 357.803 77.3047 355.013L77.242 354.935L77.1654 354.871C68.9447 347.986 60.3183 339.308 50.8384 329.446C48.3179 326.823 45.7373 324.117 43.089 321.341C35.7914 313.689 27.9804 305.499 19.5015 297.038C0.592865 277.119 -20.409 264.922 -37.8158 264.562C-46.5679 264.382 -54.4159 267.199 -60.5491 273.525C-66.6552 279.823 -70.976 289.511 -72.9004 302.93C-77.9186 326.007 -75.0498 361.898 -60.4786 414.009C-58.4041 421.932 -58.8682 427.599 -60.7436 432.374C-62.6395 437.202 -66.0068 441.211 -69.9753 445.802C-70.1289 445.98 -70.2832 446.158 -70.4382 446.338C-78.2943 455.42 -87.9008 466.525 -91.0617 489.568C-93.9513 510.631 -90.4407 527.035 -87.5187 540.688C-87.1946 542.202 -86.8777 543.683 -86.5776 545.132C-83.5666 559.675 -82.293 570.872 -91.6409 582.024L-91.7056 582.101L-91.754 582.19C-95.4015 588.837 -98.0861 597.482 -100.474 607.219C-102.005 613.462 -103.426 620.208 -104.9 627.203C-105.724 631.114 -106.564 635.103 -107.449 639.127C-112.403 661.643 -118.802 685.402 -131.74 703.95L-131.802 704.039L-131.844 704.138C-143.465 731.689 -144.717 760.124 -138.649 782.691L-138.647 782.695C-132.115 806.58 -117.307 824.038 -97.5733 826.413C-77.076 830.824 -51.1846 819.806 -23.0945 785.903L-23.0897 785.897L-23.085 785.891C-20.9143 783.192 -18.8884 781.686 -16.9822 780.999C-15.0984 780.321 -13.2304 780.405 -11.284 781.08C-9.31287 781.763 -7.27377 783.049 -5.1077 784.757C-2.94473 786.462 -0.712708 788.542 1.66022 790.774C1.85593 790.959 2.05258 791.144 2.25021 791.33C11.5192 800.06 22.9299 810.807 38.8711 807.139C46.9705 805.275 53.4023 800.5 58.7691 794.7C64.031 789.013 68.3257 782.275 72.1819 776.226L72.3915 775.897C76.3451 769.696 79.7883 764.359 83.3775 761.367C85.1474 759.892 86.8714 759.061 88.6333 758.932C90.3826 758.804 92.3218 759.358 94.5519 760.951Z" stroke="#FBDC81" stroke-width="2.05042"/>
<path d="M89.9866 735.846L90.1111 735.929L90.2541 735.973C108.894 741.706 124.126 747.817 137.457 760.815C150.8 773.825 162.33 793.827 173.325 827.522C176.145 836.286 181.566 843.895 188.037 849.417C194.5 854.932 202.076 858.418 209.237 858.827C216.446 859.238 223.205 856.518 227.82 849.712C232.383 842.983 234.772 832.38 233.657 817.134C235.781 806.566 238.809 786.87 240.544 761.876C241.352 750.231 247.796 740.449 255.112 729.613C255.262 729.391 255.412 729.17 255.562 728.947C262.714 718.359 270.521 706.8 273.99 691.796C279.827 669.305 270.689 649.825 261.261 633.022C260.047 630.858 258.831 628.743 257.64 626.672C254.177 620.65 250.931 615.005 248.586 609.635C245.44 602.43 244.032 595.958 245.828 590.016L245.838 589.984L245.846 589.951C251.086 567.349 262.423 551.854 275.937 538.923C282.704 532.448 290.012 526.621 297.388 520.857C298.279 520.161 299.17 519.466 300.062 518.771C306.546 513.717 313.039 508.655 319.167 503.223C336.814 487.592 348.368 463.14 353.448 437.867L353.448 437.867L353.451 437.853C357.42 416.681 356.632 394.906 350.716 377.741C344.83 360.661 333.793 347.985 317.184 345.29C301.914 333.521 276.495 331.654 240.335 354.929L240.31 354.945L240.286 354.963C225.867 365.464 212.542 374.748 200.056 383.182L200.046 383.189L200.036 383.196C193.25 388.019 188.607 388.942 184.953 387.99C181.217 387.015 178.21 384.024 174.823 380.197C174.379 379.695 173.931 379.181 173.476 378.66C167.077 371.33 159.297 362.418 143.383 363.185L143.359 363.186L143.334 363.188C138.048 363.7 132.843 366.686 127.85 370.416C124.64 372.814 121.421 375.598 118.279 378.316C116.547 379.814 114.839 381.292 113.168 382.674C108.389 386.626 103.896 389.814 99.6965 390.964C97.6244 391.531 95.6593 391.59 93.7761 391.022C91.892 390.453 90.0055 389.23 88.1336 387.093L88.0398 386.986L87.9203 386.909C75.9499 379.144 63.2051 366.87 48.281 352.497C44.6981 349.046 40.9896 345.475 37.136 341.815C21.3228 325.659 3.88727 315.539 -10.5984 314.876C-17.8861 314.542 -24.4507 316.606 -29.6152 321.521C-34.7517 326.409 -38.4023 334.022 -40.0971 344.612C-44.9126 361.987 -43.5055 389.357 -33.1618 429.61C-31.7997 435.568 -32.4554 439.763 -34.2172 443.304C-36.007 446.902 -38.9664 449.9 -42.4553 453.435L-42.4919 453.472C-49.4894 460.561 -58.101 469.371 -61.2522 488.335C-64.0813 505.362 -61.6901 518.769 -59.6742 530.072C-59.4582 531.283 -59.2465 532.47 -59.046 533.635C-56.9706 545.69 -56.127 555.198 -63.5237 564.824L-63.5981 564.92L-63.6476 565.032C-66.501 571.455 -68.2078 580.194 -69.6032 590.092C-70.2845 594.925 -70.8947 600.061 -71.5251 605.367L-71.5755 605.792C-72.2244 611.253 -72.8974 616.893 -73.6955 622.591C-76.8944 645.432 -82.0775 668.958 -95.4829 685.091L-95.5655 685.19L-95.6208 685.307C-106.407 708.063 -108.13 731.935 -103.565 751.106L-103.563 751.112C-98.6326 771.31 -86.655 786.441 -70.5659 789.048C-53.5861 794.038 -31.8611 786.078 -8.16876 758.933L-8.16183 758.925L-8.15506 758.917C-6.36221 756.775 -4.69095 755.581 -3.12222 755.026C-1.57098 754.478 -0.02771 754.522 1.58615 755.027C3.22171 755.538 4.92087 756.519 6.73425 757.836C8.54553 759.152 10.4158 760.761 12.4084 762.492C12.5738 762.635 12.7401 762.78 12.9071 762.925C20.6819 769.686 30.2781 778.031 43.5058 774.719C50.2215 773.037 55.5878 769.007 60.0847 764.169C64.4716 759.449 68.0861 753.898 71.334 748.91L71.5591 748.564C74.9067 743.424 77.8182 739.016 80.8267 736.502C82.309 735.263 83.7375 734.554 85.1783 734.404C86.6018 734.255 88.175 734.638 89.9866 735.846Z" stroke="#FBDC81" stroke-width="2.05042"/>
<path d="M85.29 710.751L85.4595 710.851L85.654 710.881C102.292 713.466 116.125 716.76 128.406 727.168C140.705 737.591 151.573 755.26 161.948 786.888C166.463 800.882 179.093 811.292 190.54 812.236C196.329 812.714 201.831 810.76 205.712 805.622C209.534 800.562 211.686 792.542 211.199 781.039C214.17 772.746 217.681 756.851 219.106 736.393C219.781 726.7 224.577 718.331 229.973 709.093C230.059 708.946 230.145 708.799 230.231 708.652C235.523 699.593 241.278 689.742 243.728 677.274C247.952 659.167 240.859 643.341 233.633 629.624C232.774 627.994 231.915 626.397 231.073 624.83C228.344 619.756 225.786 614.999 223.956 610.469C221.566 604.552 220.51 599.227 221.877 594.332L221.887 594.295L221.895 594.257C228.566 560.784 248.351 544.819 269.205 527.991C274.193 523.967 279.242 519.893 284.187 515.518C298.337 503.014 307.723 483.657 312.067 463.584L312.069 463.575L312.071 463.565C315.322 447.101 314.948 430.144 310.659 416.63C306.412 403.247 298.254 393.067 285.813 390.359C280.443 383.9 272.648 379.181 262.351 378.229C251.925 377.266 239.026 380.171 223.561 388.872L223.527 388.891L223.494 388.913C211.991 396.6 201.147 403.657 190.772 410.408L190.765 410.412L190.155 410.809L190.142 410.818L190.128 410.827C184.76 414.564 181.007 415.395 178.009 414.84C174.955 414.275 172.43 412.24 169.562 409.591C169.163 409.223 168.76 408.844 168.35 408.46C162.926 403.373 156.349 397.204 143.657 398.384L143.625 398.387L143.593 398.392C139.252 399.075 134.994 401.606 130.924 404.669C128.325 406.625 125.716 408.868 123.174 411.054C121.75 412.279 120.346 413.486 118.977 414.614C115.094 417.814 111.457 420.411 108.06 421.465C106.384 421.986 104.805 422.117 103.303 421.785C101.805 421.455 100.306 420.646 98.8118 419.164L98.6677 419.021L98.48 418.944C85.2222 413.485 71.0888 401.286 54.3458 386.617C41.5424 374.228 27.5865 366.197 15.9593 365.227C10.1091 364.739 4.79816 366.038 0.571381 369.529C-3.62714 372.998 -6.63382 378.529 -8.11334 386.283C-12.7693 397.961 -12.8131 416.81 -6.6507 445.163C-5.99347 449.115 -6.81287 451.826 -8.45645 454.147C-10.005 456.334 -12.2867 458.191 -14.9897 460.392C-15.2664 460.617 -15.5474 460.845 -15.8326 461.079C-21.9385 466.07 -29.2952 472.6 -32.4012 487.032C-35.2106 500.087 -33.9058 510.539 -32.7833 519.531C-32.6766 520.386 -32.5715 521.227 -32.4718 522.056C-31.3212 531.626 -30.8982 539.459 -36.3977 547.572L-36.477 547.689L-36.5216 547.823C-38.588 554.018 -39.3212 562.85 -39.7326 572.913C-39.8829 576.588 -39.9902 580.43 -40.1007 584.387C-40.2948 591.338 -40.4989 598.643 -40.963 606.022C-41.6899 617.581 -43.0508 629.208 -45.9864 639.672C-48.9221 650.137 -53.4151 659.374 -60.3618 666.218L-60.4662 666.321L-60.5376 666.449C-70.5596 684.407 -72.7683 703.717 -69.6859 719.492L-69.6844 719.5C-66.3316 736.009 -57.1302 748.803 -44.6165 751.655C-31.0773 757.245 -13.3884 752.366 6.04752 731.979L6.05792 731.968L6.06799 731.957C7.49115 730.373 8.819 729.485 10.0666 729.059C11.3033 728.638 12.54 728.644 13.837 728.982C16.5161 729.679 19.3174 731.738 22.6048 734.226C22.7326 734.322 22.861 734.42 22.9901 734.517C29.3257 739.316 37.1582 745.249 47.7379 742.289C53.0982 740.789 57.4239 737.508 61.0739 733.635C64.6074 729.885 67.5596 725.522 70.2163 721.596L70.4613 721.234C73.2202 717.158 75.6174 713.676 78.0651 711.637C79.2703 710.633 80.4176 710.042 81.5555 709.871C82.6721 709.704 83.8913 709.925 85.29 710.751Z" stroke="#FBDC81" stroke-width="2.05042"/>
<path d="M80.9911 684.234L81.2158 684.338L81.4634 684.328C95.9809 683.753 108.293 684.249 119.406 692.021C130.546 699.812 140.666 715.049 150.345 744.471C153.72 754.934 162.852 762.676 171.384 763.753C175.699 764.298 179.898 763.131 183.022 759.699C186.079 756.342 187.985 750.949 188.136 743.247C191.967 737.236 195.916 725.178 197.019 709.35C197.556 701.632 200.679 694.698 204.112 687.099L204.124 687.072C207.533 679.526 211.212 671.38 212.625 661.437C215.194 647.814 210.212 635.725 205.246 625.159C204.746 624.094 204.246 623.046 203.754 622.014C201.785 617.885 199.939 614.013 198.642 610.321C197.024 605.716 196.322 601.551 197.254 597.709L197.264 597.669L197.27 597.628C202.342 565.814 218.794 551.989 237.721 536.085C241.104 533.242 244.566 530.333 248.056 527.243C258.596 517.924 265.741 503.751 269.317 488.969L269.321 488.956L269.323 488.943C271.832 477.26 271.876 465.202 269.253 455.403C266.683 445.8 261.484 438.176 253.33 435.457C250.209 428.433 244.828 422.441 237.039 419.595C229.091 416.69 218.803 417.121 206.131 422.794L206.084 422.815L206.04 422.841C197.083 427.986 188.39 433.043 179.83 438.327L179.812 438.337L179.795 438.349C175.885 440.986 173.036 441.729 170.691 441.566C168.318 441.402 166.281 440.303 163.961 438.843C163.625 438.632 163.282 438.412 162.933 438.189C160.918 436.897 158.667 435.455 155.951 434.452C152.724 433.26 148.853 432.685 143.832 433.536L143.791 433.543L143.751 433.553C140.404 434.404 137.137 436.46 134.021 438.843C132.059 440.342 130.088 442.029 128.17 443.67C127.059 444.621 125.966 445.556 124.904 446.43C121.948 448.863 119.188 450.862 116.61 451.818C114.099 452.75 111.853 452.668 109.722 451.051L109.498 450.882L109.219 450.85C97.6882 449.53 85.6016 441.765 72.1615 431.4C62.4719 422.84 52.1168 416.947 43.4594 415.672C39.1083 415.032 35.104 415.548 31.8454 417.578C28.6207 419.587 26.2671 422.989 24.9984 427.856C20.4851 433.812 19.0014 444.114 20.9295 460.379C20.9105 462.196 20.0677 463.437 18.5285 464.609C17.3578 465.501 15.8973 466.274 14.198 467.174C13.518 467.534 12.7997 467.914 12.0464 468.33C6.86084 471.196 0.792877 475.409 -2.26523 485.253C-5.12198 494.448 -4.87915 502.024 -4.66193 508.802C-4.65067 509.154 -4.63947 509.503 -4.62878 509.85C-4.41159 516.904 -4.40814 523.056 -7.98907 529.652L-8.06015 529.783L-8.09103 529.928C-9.3468 535.856 -9.09918 544.731 -8.52557 554.912C-8.38376 557.43 -8.22153 560.032 -8.05527 562.699C-7.54492 570.885 -6.99673 579.678 -6.88498 588.482C-6.73685 600.152 -7.35846 611.758 -9.83102 621.867C-12.3037 631.976 -16.6032 640.488 -23.7353 646.099L-23.8535 646.192L-23.9401 646.315C-33.1366 659.395 -35.8233 674.062 -34.2545 686.374L-34.2532 686.383C-32.5076 699.126 -26.1715 709.509 -17.3542 712.614C-7.38834 718.807 6.15384 717.073 21.2169 703.511L21.2334 703.496L21.2494 703.48C22.2895 702.458 23.2669 701.872 24.1943 701.573C25.118 701.275 26.0499 701.245 27.0298 701.419C29.0515 701.779 31.1748 702.981 33.6919 704.441L33.9029 704.563C38.7738 707.39 44.7868 710.88 52.6415 708.273C60.2926 705.735 65.3742 698.649 69.507 692.886C69.618 692.732 69.7283 692.578 69.8379 692.425C71.9852 689.434 73.8522 686.887 75.7249 685.328C76.6471 684.56 77.5118 684.085 78.3497 683.896C79.1649 683.713 80.0246 683.785 80.9911 684.234Z" stroke="#FBDC81" stroke-width="2.05042"/>
<path d="M76.2648 659.296L76.5167 659.346L76.7628 659.273C89.204 655.534 100.015 653.301 109.949 658.479C119.912 663.671 129.295 676.483 138.298 703.777C140.539 710.734 146.187 715.815 151.798 717.038C154.628 717.654 157.5 717.295 159.874 715.614C162.169 713.99 163.861 711.229 164.655 707.279C169.41 703.569 173.803 695.241 174.593 683.912C174.967 678.547 176.25 673.4 177.614 667.926C177.726 667.476 177.838 667.023 177.951 666.568C179.428 660.614 180.906 654.275 181.249 647.031C182.162 637.896 179.299 629.542 176.576 622.102C176.424 621.686 176.272 621.273 176.122 620.863C174.914 617.576 173.779 614.486 173.016 611.535C172.16 608.222 171.8 605.178 172.31 602.345L172.316 602.31L172.32 602.276C174.184 585.402 178.959 574.392 185.751 565.364C191.397 557.857 198.439 551.707 206.502 544.665C208.196 543.185 209.936 541.665 211.718 540.085C218.669 533.93 223.593 524.91 226.412 515.378L226.417 515.36L226.422 515.341C228.196 508.409 228.658 501.224 227.702 495.129C226.784 489.276 224.524 484.241 220.65 481.54C219.754 473.926 216.792 466.674 211.536 461.916C206.121 457.015 198.406 454.884 188.426 457.544L188.367 457.559L188.311 457.581C182.078 460.059 175.7 463.01 169.105 466.727L169.084 466.739L169.063 466.752C166.584 468.308 164.599 468.981 162.841 469.214C161.07 469.448 159.46 469.247 157.672 468.953C157.426 468.912 157.177 468.87 156.925 468.827C153.485 468.244 149.504 467.568 143.423 469.573L143.379 469.588L143.337 469.606C141.008 470.614 138.742 472.186 136.576 473.892C135.272 474.919 133.957 476.034 132.678 477.119C131.856 477.816 131.049 478.5 130.271 479.14C128.234 480.812 126.328 482.232 124.537 483.102C122.751 483.969 121.21 484.226 119.827 483.774L119.534 483.678L119.238 483.759C109.38 486.453 99.3517 483.042 89.2444 476.978C82.6604 472.232 75.9103 468.483 70.253 466.912C67.4214 466.126 64.7748 465.86 62.5278 466.362C60.4379 466.829 58.7253 467.958 57.5889 469.844C55.6448 469.84 53.8565 470.195 52.2528 471.115C50.5678 472.083 49.1821 473.621 48.0328 475.809C47.8276 475.861 47.5485 475.908 47.1788 475.948C46.6008 476.01 45.9025 476.044 45.0798 476.08L44.8831 476.089C43.2951 476.159 41.34 476.244 39.2929 476.585C35.009 477.297 30.1819 479.151 27.1052 484.422C24.1477 489.49 23.1266 494.092 22.4051 498.698C22.2616 499.614 22.1302 500.526 21.9986 501.439C21.4658 505.138 20.9281 508.87 19.5636 513.028L19.5254 513.145L19.5157 513.267C19.0685 518.923 20.2895 527.847 21.8415 538.172C22.0338 539.451 22.2315 540.754 22.4323 542.077C23.8614 551.492 25.445 561.925 26.3378 572.271C27.3567 584.078 27.4674 595.689 25.4503 605.464C23.4335 615.238 19.3225 623.034 12.016 627.44L11.9138 627.501L11.8286 627.585C3.41447 635.814 0.227417 645.886 0.277969 654.775L0.278152 654.786C0.424393 663.815 3.90503 671.756 8.97775 675.128C12.0738 678.464 15.9759 680.596 20.5034 681.011C25.0643 681.43 30.1495 680.096 35.5651 676.691L35.5937 676.673L35.621 676.653C38.1844 674.795 40.6677 675.411 44.1416 676.272L44.243 676.297C47.7022 677.155 51.8607 678.114 56.9441 675.859C61.7615 673.721 65.3035 669.312 68.2325 665.666C68.3549 665.514 68.4762 665.363 68.5965 665.213C70.1337 663.303 71.4836 661.667 72.8004 660.572C74.1098 659.482 75.203 659.081 76.2648 659.296Z" stroke="#FBDC81" stroke-width="2.05042"/>
</g>
<mask id="mask0_2312_6205" style="mask-type:alpha" maskUnits="userSpaceOnUse" x="1352" y="-35" width="1391" height="1469">
<path d="M1559.82 -34.0322C1559.98 -34.2343 1560.1 -34.3905 1560.19 -34.5H2742.5V1433H1560.78L1560.93 1432.72C1561.13 1432.35 1561.39 1431.86 1561.7 1431.28C1562.56 1429.67 1563.82 1427.29 1565.43 1424.2C1568.65 1418.02 1573.26 1409.03 1578.83 1397.77C1589.98 1375.26 1604.98 1343.68 1620.38 1307.42C1651.16 1234.9 1683.58 1143.6 1689.98 1068.59C1702.64 920.378 1610.69 819.759 1519.71 720.194C1518.47 718.831 1517.22 717.467 1515.98 716.104C1423.74 615.136 1333.99 514.6 1355.81 365.82C1368.42 279.848 1419.53 179.735 1467.53 101.075C1491.52 61.7544 1514.72 27.8108 1531.93 3.69767C1540.53 -8.35873 1547.64 -17.9572 1552.59 -24.541C1555.06 -27.8328 1557 -30.371 1558.32 -32.086C1558.98 -32.9434 1559.48 -33.5951 1559.82 -34.0322Z" fill="#6096FF" stroke="#68A281"/>
</mask>
<g mask="url(#mask0_2312_6205)">
<path d="M1630.9 -80.771C1631.06 -80.973 1631.18 -81.1292 1631.26 -81.2388H2813.57V1386.26H1631.86L1632.01 1385.98C1632.21 1385.61 1632.47 1385.13 1632.77 1384.55C1633.63 1382.93 1634.89 1380.55 1636.5 1377.46C1639.72 1371.28 1644.33 1362.29 1649.91 1351.03C1661.06 1328.52 1676.05 1296.94 1691.45 1260.68C1722.24 1188.16 1754.65 1096.86 1761.06 1021.85C1773.71 873.639 1681.77 773.02 1590.79 673.455C1589.54 672.092 1588.3 670.729 1587.05 669.365C1494.82 568.397 1405.06 467.862 1426.89 319.081C1439.5 233.11 1490.61 132.996 1538.6 54.3366C1562.59 15.0156 1585.8 -18.9279 1603 -43.0411C1611.61 -55.0975 1618.71 -64.6959 1623.66 -71.2797C1626.14 -74.5716 1628.08 -77.1098 1629.39 -78.8247C1630.05 -79.6822 1630.56 -80.3339 1630.9 -80.771Z" fill="#3B634C" stroke="#68A281"/>
<g opacity="0.1">
<path d="M1913.92 -204.55C1903.2 -237.801 1881.91 -266.818 1856.56 -287.519C1831.22 -308.208 1801.72 -320.685 1774.51 -320.656C1747.2 -320.627 1722.33 -307.991 1706.56 -278.748C1690.85 -249.608 1684.24 -204.103 1692.94 -138.352C1698.61 -95.4711 1699.19 -21.4955 1692.93 68.6577C1690.1 109.333 1661.05 140.896 1627.86 175.966C1627.14 176.731 1626.41 177.497 1625.68 178.265C1593.19 212.578 1557.48 250.298 1540.5 302.871C1513.24 387.29 1550.64 458.853 1590.41 519.983C1596.37 529.153 1602.39 538.078 1608.25 546.776C1621.98 567.158 1634.87 586.293 1644.35 604.411C1657.89 630.25 1664.23 653.546 1656.42 674.927C1635.5 732.153 1593 773.256 1546.65 807.989C1527.65 822.224 1508.05 835.363 1489.03 848.104C1484.85 850.908 1480.69 853.693 1476.58 856.466C1453.79 871.823 1432.28 886.821 1414.36 902.659C1346.86 962.323 1303.96 1057.94 1287.5 1156.09C1273.05 1242.19 1278.92 1330.46 1306.53 1398.39C1334.15 1466.35 1383.65 1514.13 1456.44 1518.66C1529.15 1523.18 1624.65 1484.48 1744.21 1380.62C1797.59 1334.25 1844.66 1296.04 1886.47 1265.16C1913.26 1245.37 1931.04 1242.61 1944.71 1248.83C1951.63 1251.98 1957.69 1257.49 1963.42 1264.66C1969.16 1271.83 1974.52 1280.56 1980.08 1290.05C1981.28 1292.12 1982.5 1294.21 1983.73 1296.34C2005.08 1333.14 2030.92 1377.68 2092.36 1380.99C2111.15 1382 2129.97 1372.31 2148.33 1358.94C2160.28 1350.25 2172.22 1339.85 2183.95 1329.64C2190.23 1324.17 2196.46 1318.75 2202.59 1313.68C2220.31 1299.01 2237.25 1287.21 2253.22 1284.3C2261.15 1282.86 2268.81 1283.62 2276.23 1287.31C2283.68 1291.02 2291.01 1297.75 2298.12 1308.44C2303.16 1316.01 2308.3 1323.78 2313.55 1331.73C2351.03 1388.47 2394.56 1454.37 2453.61 1521.88C2512.76 1589.5 2579.6 1628.64 2634.57 1626.37C2662.14 1625.23 2686.65 1613.68 2705.55 1590.21C2724.42 1566.79 2737.63 1531.59 2742.87 1483.25C2752.76 1391.98 2734.3 1253.42 2671.19 1057.4C2661.15 1026.23 2659.91 1003.26 2663.76 983.844C2667.62 964.4 2676.62 948.373 2687.37 931.062C2688.91 928.578 2690.48 926.069 2692.08 923.524C2712.8 890.545 2737.48 851.27 2742.87 776.317C2748.11 703.596 2731.67 648.509 2718.4 604.026C2716.95 599.17 2715.54 594.44 2714.2 589.828C2707.37 566.353 2702.4 546.059 2703.33 527.531C2704.25 509.11 2711.01 492.364 2727.87 475.995L2729.24 474.663L2729.27 474.632C2781.49 423.934 2837.4 369.646 2867.92 265.438C2894.19 175.737 2891.7 86.8329 2867.9 18.4376C2842.43 -54.7256 2792.42 -104.739 2726.86 -106.513C2661.2 -108.29 2580.73 -61.6138 2494.7 56.9383C2487.71 66.5752 2481.12 72.0231 2474.83 74.4199C2468.6 76.7947 2462.47 76.2434 2456.18 73.4881C2449.84 70.7117 2443.38 65.7105 2436.63 59.2476C2429.88 52.7928 2422.93 44.9715 2415.59 36.629C2415.12 36.0963 2414.65 35.5615 2414.17 35.0248C2399.89 18.804 2384.13 0.890686 2365.8 -12.0057C2346.82 -25.3633 2324.99 -33.4211 2299.1 -28.6852C2273.29 -23.963 2253.1 -9.28339 2236.42 9.11609C2219.85 27.3929 2206.65 49.4432 2194.81 69.2286L2194.6 69.5652C2188.64 79.5229 2183.03 88.8853 2177.48 96.9543C2171.93 105.031 2166.5 111.724 2160.92 116.381C2155.36 121.027 2149.76 123.566 2143.82 123.533C2137.88 123.499 2131.34 120.885 2123.9 114.668C2071.15 70.5663 2031.1 29.2837 1998.02 -20.2026C1964.93 -69.6929 1938.78 -127.452 1913.92 -204.55Z" stroke="#68A281" stroke-width="3"/>
<path d="M1693.99 668.131L1693.99 668.142C1674.86 722.352 1635.83 761.126 1592.99 793.857C1574.97 807.626 1556.32 820.299 1538.2 832.606C1534.78 834.929 1531.38 837.239 1528.01 839.541C1506.79 854.02 1486.64 868.177 1469.68 883.165C1407.77 937.885 1368.35 1025.45 1353.07 1115.37L1353.07 1115.37C1339.78 1194.03 1344.99 1274.67 1370.02 1336.83C1395.06 1399.01 1440.05 1442.87 1506.27 1447.35C1572.09 1453.86 1659.76 1421.1 1770.54 1326.74L1770.54 1326.73C1819.62 1284.57 1863.01 1249.69 1901.72 1221.29L1901.72 1221.29C1926.24 1203.22 1942.55 1200.65 1955.11 1206.19C1961.46 1208.99 1967.04 1213.94 1972.34 1220.4C1977.65 1226.86 1982.6 1234.74 1987.76 1243.31C1988.89 1245.2 1990.04 1247.13 1991.2 1249.08C2010.96 1282.3 2034.89 1322.52 2091.21 1325.19L2091.21 1325.19C2108.54 1325.94 2125.86 1316.95 2142.75 1304.64C2153.73 1296.64 2164.71 1287.09 2175.48 1277.71C2181.27 1272.68 2186.99 1267.7 2192.63 1263.03C2208.92 1249.56 2224.47 1238.71 2239.13 1235.95C2246.39 1234.59 2253.41 1235.22 2260.21 1238.52C2267.04 1241.82 2273.75 1247.87 2280.29 1257.52L2280.29 1257.53L2280.3 1257.54C2286.89 1266.95 2293.64 1276.73 2300.62 1286.83C2334.48 1335.87 2373.63 1392.6 2425.26 1450.88C2479.6 1512.55 2540.9 1548.43 2591.35 1546.63C2616.65 1545.72 2639.17 1535.34 2656.54 1514.09C2673.89 1492.9 2686.04 1460.98 2690.92 1417.12C2700.49 1334.9 2684.34 1209.85 2627.85 1032.57C2618.93 1004.46 2618.01 983.795 2621.73 966.328C2625.46 948.832 2633.86 934.403 2643.87 918.754C2645.22 916.642 2646.6 914.51 2647.99 912.347C2667.33 882.426 2690.41 846.719 2695.72 778.129C2700.85 711.94 2686.23 661.675 2674.39 620.971C2673.09 616.5 2671.82 612.144 2670.62 607.895C2664.53 586.39 2660.1 567.764 2661 550.719C2661.9 533.777 2668.06 518.33 2683.36 503.191L2683.37 503.179L2683.39 503.165C2731.15 453.552 2778.22 392.823 2810.8 295.285L2810.8 295.266L2810.81 295.247C2835.79 213.149 2834.04 131.482 2812.58 68.4724L2811.16 68.956L2812.58 68.4718C2789.62 1.13074 2743.98 -45.1917 2684.1 -47.2891C2623.93 -49.9262 2549.97 -8.09143 2470.8 99.7538L2470.79 99.7554C2464.39 108.51 2458.35 113.452 2452.6 115.633C2446.9 117.793 2441.29 117.312 2435.53 114.837C2429.72 112.341 2423.8 107.83 2417.59 101.988C2411.39 96.1527 2405 89.079 2398.25 81.5303C2397.81 81.0411 2397.37 80.55 2396.93 80.0571C2383.81 65.3893 2369.31 49.1869 2352.49 37.5567C2335.06 25.5012 2315.01 18.2796 2291.27 22.7229C2267.6 27.1525 2249.06 40.6576 2233.73 57.5374C2218.52 74.2848 2206.38 94.4565 2195.48 112.559L2195.26 112.928C2189.76 122.048 2184.6 130.62 2179.49 138.013C2174.37 145.413 2169.37 151.545 2164.26 155.821C2159.15 160.087 2154.02 162.426 2148.6 162.435C2143.18 162.443 2137.2 160.119 2130.4 154.509L2130.39 154.499L2130.38 154.49C2080.9 115.361 2043.06 78.5667 2011.63 33.1607C1980.21 -12.2496 1955.15 -66.3412 1931.32 -140.113C1921.49 -170.62 1901.99 -197.233 1878.78 -216.24C1855.58 -235.235 1828.55 -246.726 1803.58 -246.792C1778.52 -246.858 1755.66 -235.399 1741.09 -208.775C1726.58 -182.254 1720.37 -140.817 1728.09 -80.9532C1732.47 -41.8003 1732.28 26.1121 1726.52 109.121C1723.91 146.646 1697.53 175.936 1667.4 208.477C1666.73 209.194 1666.07 209.913 1665.4 210.633C1635.91 242.457 1603.51 277.425 1588.16 325.907C1563.44 403.42 1597.6 469.223 1633.86 525.47C1639.26 533.833 1644.69 541.975 1649.98 549.912C1662.55 568.754 1674.35 586.443 1683.02 603.196C1695.35 626.996 1701.1 648.445 1693.99 668.131Z" stroke="#68A281" stroke-width="3"/>
<path d="M1733.21 661.278L1733.2 661.289L1733.2 661.3C1715.88 712.311 1680.38 748.626 1641.12 779.245C1624.1 792.517 1606.42 804.693 1589.21 816.536C1586.57 818.358 1583.93 820.172 1581.31 821.981C1561.69 835.534 1542.94 848.802 1526.97 862.889C1470.73 912.486 1434.84 991.703 1420.78 1073.1L1420.78 1073.1C1408.66 1144.06 1413.2 1216.82 1435.62 1273.01C1458.04 1329.21 1498.44 1368.99 1558 1373.4C1616.85 1381.88 1696.55 1355.17 1798.39 1270.61L1798.4 1270.6C1843.09 1232.79 1882.76 1201.36 1918.3 1175.53L1918.3 1175.52C1940.53 1159.23 1955.33 1156.86 1966.76 1161.7C1972.54 1164.16 1977.64 1168.53 1982.49 1174.25C1987.36 1179.98 1991.91 1186.98 1996.64 1194.6C1997.71 1196.31 1998.78 1198.06 1999.86 1199.82C2018.02 1229.36 2040.01 1265.13 2091.11 1267.15L2091.12 1267.15C2106.96 1267.65 2122.76 1259.38 2138.15 1248.17C2148.15 1240.88 2158.14 1232.21 2167.95 1223.7C2173.22 1219.13 2178.44 1214.6 2183.58 1210.36C2198.41 1198.12 2212.55 1188.26 2225.87 1185.66C2232.47 1184.38 2238.84 1184.88 2245 1187.77C2251.19 1190.67 2257.29 1196.01 2263.23 1204.6L2263.25 1204.63L2263.26 1204.65C2271.51 1215.69 2280.02 1227.39 2288.93 1239.64C2318.94 1280.92 2353.43 1328.36 2397.48 1377.25C2446.92 1432.76 2502.59 1465.25 2548.44 1463.92C2571.45 1463.26 2591.93 1454.08 2607.76 1435.13C2623.56 1416.22 2634.64 1387.69 2639.15 1348.44C2648.39 1275.54 2634.57 1164.4 2584.78 1006.45C2576.99 981.501 2576.41 963.205 2579.99 947.75C2583.58 932.26 2591.37 919.477 2600.62 905.54C2601.77 903.806 2602.95 902.055 2604.13 900.282C2622.07 873.518 2643.52 841.498 2648.75 779.492C2653.76 720.042 2640.98 674.759 2630.59 637.968C2629.44 633.9 2628.32 629.937 2627.25 626.069C2621.91 606.604 2618.03 589.709 2618.9 574.205C2619.76 558.798 2625.32 544.7 2639.05 530.843L2639.07 530.815L2639.1 530.786C2681.91 482.837 2719.38 415.879 2753.68 326.309L2753.69 326.269L2753.71 326.228C2777.36 252.002 2776.36 177.84 2757.27 120.422L2757.27 120.421C2736.84 59.123 2695.65 16.645 2641.52 14.2296C2586.93 10.7404 2519.61 47.5981 2447.4 144.384L2447.39 144.388C2441.58 152.23 2436.11 156.651 2430.9 158.61C2425.74 160.549 2420.67 160.139 2415.44 157.951C2410.17 155.744 2404.78 151.738 2399.13 146.534C2393.48 141.338 2387.67 135.035 2381.51 128.305L2380.29 126.971C2368.35 113.903 2355.15 99.4628 2339.86 89.136C2323.99 78.422 2305.76 72.0614 2284.2 76.1974C2262.71 80.3197 2245.85 92.6053 2231.89 107.91C2218.06 123.074 2206.99 141.302 2197.05 157.662L2196.81 158.06C2191.8 166.312 2187.08 174.066 2182.42 180.758C2177.75 187.457 2173.19 193.008 2168.54 196.889C2163.89 200.76 2159.24 202.892 2154.35 202.942C2149.45 202.992 2144.05 200.963 2137.9 195.981L2137.88 195.959L2137.85 195.939C2091.7 161.91 2056.14 129.722 2026.42 88.5482C1996.7 47.3695 1972.77 -2.87224 1950.02 -73.0685C1941.08 -100.732 1923.41 -124.854 1902.37 -142.103C1881.34 -159.342 1856.82 -169.81 1834.13 -169.97C1811.36 -170.131 1790.53 -159.887 1777.19 -135.968C1763.9 -112.153 1758.1 -74.9176 1764.83 -21.1378C1767.92 14.162 1766.95 75.7873 1761.69 151.376C1759.31 185.625 1735.64 212.545 1708.6 242.448C1708 243.114 1707.4 243.782 1706.79 244.451C1680.35 273.682 1651.31 305.783 1637.61 350.018C1615.47 420.372 1646.35 480.198 1679.04 531.376C1683.85 538.903 1688.69 546.234 1693.42 553.383C1704.8 570.624 1715.49 586.808 1723.34 602.142C1734.44 623.824 1739.6 643.354 1733.21 661.278ZM1917.41 1174.31C1881.84 1200.17 1842.14 1231.63 1797.43 1269.45L2398.6 1376.25C2354.6 1327.42 2320.18 1280.07 2290.17 1238.79C2281.25 1226.53 2272.73 1214.81 2264.47 1203.75C2236.02 1162.65 2202.29 1191.92 2166.89 1222.64C2142.06 1244.18 2116.4 1266.44 2091.17 1265.65C2040.89 1263.67 2019.3 1228.57 2001.1 1198.97C1980.76 1165.89 1964.65 1139.7 1917.41 1174.31Z" stroke="#68A281" stroke-width="3"/>
<path d="M1770.77 654.5L1770.78 654.483C1776.46 638.25 1771.88 620.565 1762 600.923C1754.96 586.951 1745.37 572.212 1735.15 556.509C1730.99 550.123 1726.73 543.578 1722.49 536.86C1693.31 490.567 1665.68 436.504 1685.26 373.062C1697.33 332.912 1723.06 303.561 1746.51 276.815C1747.05 276.198 1747.59 275.581 1748.13 274.966C1772.11 247.593 1793.1 222.944 1795.27 191.841C1800.03 123.399 1801.77 67.8359 1799.97 36.2546C1794.22 -11.6349 1799.63 -44.8009 1811.71 -65.995C1823.85 -87.2944 1842.67 -96.3588 1863.2 -96.1021C1883.64 -95.8466 1905.67 -86.3651 1924.57 -70.8206C1943.48 -55.2651 1959.35 -33.5477 1967.4 -8.62943C1989.12 58.2391 2011.95 104.809 2040.01 141.905C2068.07 178.995 2101.41 206.695 2144.29 235.752L2144.34 235.784L2144.38 235.819C2149.89 240.194 2154.72 241.936 2159.1 241.845C2163.48 241.754 2167.66 239.822 2171.85 236.33C2180.32 229.273 2188.31 216.321 2197.44 201.422L2197.71 200.992C2206.7 186.315 2216.71 169.966 2229.18 156.332C2241.79 142.548 2257 131.438 2276.34 127.607C2295.74 123.764 2312.19 129.286 2326.52 138.697C2340.31 147.758 2352.23 160.489 2363.01 172.006L2364.14 173.204C2369.7 179.14 2374.95 184.695 2380.05 189.272C2385.15 193.855 2390.01 197.372 2394.75 199.3C2399.46 201.209 2404.01 201.55 2408.64 199.824C2413.31 198.081 2418.22 194.163 2423.45 187.204L2423.46 187.198C2488.82 101.119 2549.62 69.1017 2598.72 73.4563C2647.17 76.2 2683.97 114.987 2701.9 170.459L2701.9 170.462C2718.64 222.495 2718.9 289.419 2696.53 356.043L2696.51 356.107L2696.49 356.17C2690.35 370.115 2684.44 383.819 2678.68 397.186C2667.52 423.072 2656.91 447.691 2646.22 470.346C2630 504.708 2613.54 534.694 2594.57 557.935L2594.53 557.983L2594.49 558.027C2582.32 570.654 2577.36 583.456 2576.52 597.387C2575.68 611.41 2579.01 626.638 2583.63 644.133C2584.55 647.628 2585.52 651.208 2586.52 654.88C2595.47 687.896 2606.45 728.365 2601.55 781.3C2596.39 836.95 2576.51 865.394 2559.95 889.093C2558.97 890.487 2558.01 891.866 2557.06 893.232C2548.54 905.508 2541.35 916.694 2537.9 930.236C2534.46 943.738 2534.71 959.73 2541.38 981.606C2541.38 981.607 2541.38 981.608 2541.38 981.609L2539.95 982.047C2583.09 1121.2 2594.53 1218.59 2585.65 1282.11L1770.77 654.5ZM1770.77 654.5L1770.76 654.517C1755.23 702.514 1723.2 736.498 1687.46 765.114C1671.41 777.956 1654.66 789.693 1638.33 801.135C1636.46 802.445 1634.59 803.751 1632.73 805.054C1614.68 817.728 1597.29 830.155 1582.29 843.39C1531.65 888.043 1499.23 959.202 1486.35 1032.37L1486.35 1032.37C1475.39 1095.88 1479.28 1161.03 1499.11 1211.44C1518.94 1261.85 1554.82 1297.72 1607.8 1302.08C1659.77 1312.56 1731.64 1291.79 1824.69 1216.71L1824.7 1216.71L1824.71 1216.7C1865.08 1183.1 1901.08 1155 1933.51 1131.65L1933.52 1131.65C1953.48 1117.08 1966.81 1114.88 1977.12 1119.06C1982.35 1121.17 1986.97 1124.98 1991.39 1129.99C1995.81 1135.01 1999.97 1141.15 2004.29 1147.86C2005.28 1149.4 2006.29 1150.96 2007.3 1152.55C2023.87 1178.51 2043.95 1209.96 2089.92 1211.33L2089.93 1211.33L2089.94 1211.33C2104.3 1211.58 2118.62 1204.01 2132.53 1193.86C2141.56 1187.26 2150.58 1179.44 2159.44 1171.77C2164.21 1167.63 2168.93 1163.54 2173.58 1159.7C2186.97 1148.65 2199.73 1139.75 2211.73 1137.31C2217.67 1136.1 2223.4 1136.48 2228.94 1138.97C2234.5 1141.46 2239.99 1146.13 2245.35 1153.69L2245.38 1153.73L2245.41 1153.76C2255.47 1166.24 2265.92 1179.83 2277.04 1194.27C2303.04 1228.07 2332.62 1266.52 2369.08 1306.25C2413.7 1355.81 2463.82 1385.02 2505.15 1384.17C2525.89 1383.74 2544.37 1375.73 2558.68 1359.01C2572.95 1342.33 2582.99 1317.08 2587.13 1282.31L1770.77 654.5Z" stroke="#68A281" stroke-width="3"/>
<path d="M1809.96 647.685L1809.96 647.708L1809.95 647.732C1796.23 692.719 1767.72 724.375 1735.56 750.986C1720.52 763.428 1704.71 774.746 1689.26 785.815C1688.18 786.588 1687.1 787.36 1686.02 788.131C1669.56 799.926 1653.58 811.512 1639.56 823.897C1594.6 863.604 1565.73 926.703 1554.06 991.636L1554.06 991.643C1544.26 1047.7 1547.49 1105.23 1564.7 1149.87C1581.91 1194.49 1613.19 1226.43 1659.5 1230.75C1704.5 1243.24 1768.42 1228.41 1852.52 1162.83L1852.53 1162.82L1852.55 1162.81C1888.53 1133.43 1920.8 1108.66 1950.06 1087.79L1950.07 1087.79L1950.07 1087.78C1967.73 1074.93 1979.57 1072.92 1988.75 1076.43C1993.4 1078.2 1997.54 1081.45 2001.51 1085.75C2005.49 1090.05 2009.24 1095.34 2013.15 1101.13C2014.07 1102.49 2015 1103.88 2015.94 1105.29C2030.9 1127.67 2049.03 1154.8 2089.8 1155.53L2089.81 1155.53H2089.83C2102.69 1155.51 2115.48 1148.65 2127.89 1139.55C2135.93 1133.65 2143.98 1126.67 2151.86 1119.83C2156.12 1116.14 2160.34 1112.48 2164.49 1109.05C2176.42 1099.19 2187.77 1091.25 2198.43 1088.95C2203.71 1087.82 2208.78 1088.08 2213.69 1090.17C2218.61 1092.27 2223.48 1096.25 2228.25 1102.78L2228.29 1102.84L2228.34 1102.89C2240.39 1116.49 2252.99 1131.88 2266.64 1148.56C2270.62 1153.42 2274.69 1158.39 2278.86 1163.46C2297.33 1185.9 2317.78 1210.21 2341.24 1235.25C2380.96 1278.85 2425.45 1304.79 2462.17 1304.41C2480.61 1304.22 2497.06 1297.38 2509.82 1282.88C2522.55 1268.43 2531.52 1246.47 2535.29 1216.17C2543.89 1161.38 2534.71 1077.25 2498.24 956.787C2492.7 937.985 2492.78 924.301 2496.08 912.754C2499.38 901.159 2505.96 891.571 2513.73 880.954C2514.47 879.953 2515.21 878.945 2515.96 877.927C2531.13 857.299 2549.41 832.439 2554.5 783.142C2559.29 736.71 2550.13 701.049 2542.62 671.806C2541.78 668.538 2540.96 665.35 2540.19 662.236C2536.32 646.713 2533.53 633.15 2534.34 620.606C2535.15 608.147 2539.51 596.639 2550.11 585.242L2550.17 585.178L2550.22 585.107C2566.7 562.606 2579.53 531.335 2592.93 496.547C2594.64 492.112 2596.35 487.618 2598.09 483.076C2610 451.923 2622.78 418.493 2639.27 386.042L2639.31 385.957L2639.34 385.867C2660.38 326.847 2660.87 267.161 2646.51 220.514L2646.51 220.51C2631.11 170.867 2598.77 135.769 2556.08 132.691C2512.55 127.464 2458.38 154.642 2399.99 230.009L2399.98 230.018C2395.35 236.094 2391 239.508 2386.87 241.037C2382.79 242.55 2378.75 242.278 2374.59 240.646C2370.38 238.998 2366.06 235.969 2361.51 232.007C2356.97 228.05 2352.29 223.242 2347.33 218.1C2346.99 217.749 2346.66 217.397 2346.31 217.043C2336.71 207.077 2326.08 196.054 2313.81 188.257C2301.05 180.151 2286.43 175.47 2269.2 179.022C2252.04 182.56 2238.52 192.495 2227.28 204.758C2216.2 216.861 2207.26 231.332 2199.23 244.326L2198.94 244.786C2190.77 258.007 2183.62 269.478 2176.08 275.773C2172.35 278.886 2168.64 280.619 2164.79 280.75C2160.94 280.881 2156.68 279.424 2151.83 275.659L2151.76 275.607L2151.69 275.563C2112.15 251.481 2081.09 228.27 2054.75 195.267C2028.4 162.257 2006.71 119.361 1986.06 55.8154C1978.91 33.6423 1964.86 14.3286 1948.13 0.466938C1931.4 -13.3834 1911.88 -21.8792 1893.72 -22.2308C1875.48 -22.5841 1858.71 -14.7002 1847.78 3.97763C1836.92 22.5485 1831.93 51.6425 1836.68 93.6373C1837.19 121.507 1834.68 171.009 1830.42 232.302C1828.47 260.264 1810.18 282.644 1789.31 307.485C1788.83 308.046 1788.36 308.609 1787.89 309.172C1767.48 333.435 1745.11 360.036 1734.69 396.101C1717.7 452.63 1742.03 500.927 1767.65 542.336C1771.3 548.242 1774.98 553.999 1778.56 559.619C1787.6 573.787 1796.09 587.083 1802.29 599.695C1810.95 617.297 1814.94 633.14 1809.96 647.685ZM2017.15 1104.4C2000.3 1079.2 1986.89 1059.14 1949.19 1086.57L2342.34 1234.23C2313.63 1203.59 2289.42 1174.02 2267.81 1147.62C2254.16 1130.94 2241.53 1115.52 2229.46 1101.89C2206.49 1070.47 2179.33 1094.02 2150.8 1118.76C2130.83 1136.09 2110.18 1154 2089.82 1154.03C2049.86 1153.31 2032.15 1126.82 2017.15 1104.4Z" stroke="#68A281" stroke-width="3"/>
<path d="M1849.14 642.378L1849.15 642.347C1853.41 629.523 1850.01 615.556 1842.58 600.034C1837.2 588.809 1829.83 576.982 1821.98 564.38C1818.96 559.54 1815.87 554.586 1812.8 549.508C1790.75 513.076 1769.71 470.655 1784.12 421.166C1792.89 389.261 1811.91 365.466 1829.28 343.737C1829.68 343.234 1830.08 342.732 1830.48 342.231C1848.26 319.978 1863.84 299.915 1865.57 275.154C1866.29 264.741 1867 254.725 1867.67 245.167C1870.49 205.156 1872.75 173.175 1873.38 153.713C1869.62 117.709 1874.21 92.7519 1883.85 76.8455C1893.56 60.8307 1908.29 54.1485 1924.24 54.5984C1940.12 55.046 1957.12 62.5365 1971.67 74.6619C1986.24 86.7978 1998.46 103.663 2004.71 123.04M1849.14 642.378L2003.28 123.503M1849.14 642.378L1849.13 642.41C1837.22 684.286 1812.23 713.541 1783.66 738.085C1769.62 750.139 1754.75 761.037 1740.13 771.746L1739.31 772.349C1724.45 783.238 1709.87 793.957 1696.84 805.462C1657.57 840.134 1632.23 895.033 1621.77 951.588L1621.77 951.598C1613.15 1000.08 1615.72 1049.86 1630.31 1088.63C1644.89 1127.35 1671.57 1155.29 1711.2 1159.57M1849.14 642.378L1623.25 951.861M2004.71 123.04C2004.71 123.041 2004.71 123.042 2004.71 123.043L2003.28 123.503M2004.71 123.04C2004.71 123.04 2004.71 123.039 2004.71 123.039L2003.28 123.503M2004.71 123.04C2024.28 183.12 2044.83 222.244 2069.45 251.091C2094.07 279.93 2122.83 298.602 2159.03 317.658L2159.13 317.713L2159.23 317.784C2163.43 320.932 2167.11 322.103 2170.43 321.934C2173.77 321.765 2177 320.233 2180.27 317.506C2186.89 311.985 2193.19 302.02 2200.4 290.508L2200.71 290.019C2207.78 278.737 2215.64 266.177 2225.35 255.632C2235.21 244.918 2247.05 236.182 2262.02 232.943C2277.06 229.69 2289.87 233.517 2301.06 240.3C2311.81 246.815 2321.14 256.109 2329.57 264.505C2329.87 264.808 2330.18 265.11 2330.48 265.41C2334.84 269.746 2338.94 273.796 2342.93 277.125C2346.92 280.458 2350.7 282.993 2354.37 284.36C2358 285.712 2361.51 285.915 2365.06 284.618C2368.64 283.306 2372.43 280.4 2376.47 275.222L2376.47 275.216L2376.48 275.21C2427.89 210.721 2475.45 188.444 2513.39 194.538M2003.28 123.503C2042.48 243.873 2085.81 280.804 2158.33 318.985C2176.03 332.243 2187.5 313.934 2201.95 290.865C2216.22 268.089 2233.39 240.672 2262.34 234.409C2290.99 228.209 2311.34 248.467 2328.56 265.612C2346.35 283.333 2360.81 297.728 2377.65 276.145C2428.98 211.768 2476.06 190.036 2513.2 196.027M2513.39 194.538C2513.37 194.536 2513.36 194.534 2513.34 194.533L2513.2 196.027M2513.39 194.538C2513.41 194.54 2513.43 194.543 2513.44 194.546L2513.2 196.027M2513.39 194.538C2550.32 197.946 2578.2 229.276 2591.07 272.979L2591.07 272.984C2603.04 314.142 2601.81 366.459 2582.1 417.745L2582.06 417.863L2581.99 417.971C2562.29 451.244 2550.21 489.3 2539.59 524.538C2538.84 527.016 2538.1 529.482 2537.36 531.932C2527.67 564.192 2518.81 593.688 2505.82 613.859L2505.75 613.956L2505.68 614.043C2496.65 624.186 2492.89 634.376 2492.11 645.338C2491.33 656.375 2493.57 668.242 2496.7 681.761C2497.33 684.474 2497.99 687.25 2498.67 690.092C2504.73 715.505 2512.08 746.289 2507.4 786.135C2502.37 828.982 2485.66 850.192 2471.87 867.693C2471.36 868.339 2470.85 868.979 2470.35 869.616C2463.33 878.553 2457.37 886.523 2454.21 896.147C2451.07 905.711 2450.65 917.051 2455.07 932.733M2513.2 196.027C2549.29 199.332 2576.84 229.976 2589.63 273.403C2601.51 314.227 2600.3 366.208 2580.7 417.207C2559.51 452.986 2547.12 494.224 2535.95 531.419C2526.23 563.77 2517.43 593.063 2504.56 613.046C2484.2 635.927 2489.79 659.343 2497.21 690.439C2503.27 715.85 2510.56 746.391 2505.91 785.96C2500.93 828.386 2484.43 849.325 2470.69 866.766C2455.93 885.498 2444.34 900.196 2453.63 933.145M2455.07 932.733C2455.07 932.729 2455.07 932.726 2455.07 932.722L2453.63 933.145M2455.07 932.733C2455.07 932.735 2455.07 932.736 2455.07 932.738L2453.63 933.145M2455.07 932.733C2484.83 1034.17 2491.68 1104.6 2483.42 1150.23M2453.63 933.145C2483.38 1034.55 2490.15 1104.72 2481.94 1150M2481.94 1150L2483.42 1150.19C2483.42 1150.2 2483.42 1150.22 2483.42 1150.23M2481.94 1150C2468.41 1252.34 2383.9 1238.25 2314.47 1163.36M2481.94 1150L2483.41 1150.26C2483.42 1150.25 2483.42 1150.24 2483.42 1150.23M2483.42 1150.23C2480.01 1175.98 2472.11 1194.61 2460.93 1206.81C2449.71 1219.04 2435.29 1224.69 2419.16 1224.64C2387.05 1224.55 2348.2 1201.94 2313.38 1164.39M2314.47 1163.36L2313.39 1164.4C2313.39 1164.4 2313.38 1164.4 2313.38 1164.39M2314.47 1163.36C2293.46 1141.58 2274.97 1120.57 2258.13 1101.44C2241.55 1082.6 2226.56 1065.57 2212.34 1051.41C2192.12 1024.89 2168.28 1045.53 2143.22 1067.23C2125.69 1082.41 2107.57 1098.1 2089.67 1098.54C2054.91 1098.46 2039.15 1076.32 2025.78 1057.53C2010.69 1036.34 1998.63 1019.4 1965.75 1043.18C1939.63 1061.53 1911.06 1082.94 1879.45 1108.05C1804.36 1163.95 1748.88 1172.41 1711.55 1158.1M2314.47 1163.36L2313.37 1164.38C2313.37 1164.38 2313.38 1164.39 2313.38 1164.39M2313.38 1164.39C2292.5 1142.75 2274.12 1121.88 2257.39 1102.87L2257.03 1102.46C2240.43 1083.59 2225.47 1066.6 2211.28 1052.47L2211.21 1052.4L2211.14 1052.32C2206.97 1046.84 2202.72 1043.54 2198.43 1041.84C2194.16 1040.15 2189.74 1040.01 2185.13 1041.07C2175.8 1043.21 2165.86 1050.18 2155.38 1058.83C2151.74 1061.84 2148.03 1065.05 2144.27 1068.3C2137.36 1074.29 2130.3 1080.4 2123.24 1085.6C2112.34 1093.62 2101.07 1099.76 2089.71 1100.04L2089.69 1100.04H2089.67C2054.11 1099.96 2037.93 1077.21 2024.59 1058.45C2023.72 1057.23 2022.86 1056.03 2022.02 1054.85C2014.98 1045.07 2008.61 1037.19 2000.38 1034.29C1992.33 1031.46 1981.98 1033.29 1966.63 1044.39L1966.62 1044.4L1966.61 1044.4C1940.52 1062.74 1911.97 1084.13 1880.38 1109.23L1880.36 1109.24L1880.34 1109.26C1805.21 1165.19 1749.23 1174.06 1711.2 1159.57M1711.2 1159.57C1711.26 1159.58 1711.33 1159.58 1711.39 1159.59L1711.55 1158.1M1711.2 1159.57C1711.14 1159.55 1711.08 1159.52 1711.01 1159.5L1711.55 1158.1M1711.55 1158.1C1633.57 1149.84 1606.07 1048.44 1623.25 951.861M1623.25 951.861C1633.67 895.519 1658.89 840.97 1697.84 806.586L1623.25 951.861Z" stroke="#68A281" stroke-width="3"/>
<path d="M1886.68 635.539L1886.67 635.578L1886.66 635.618C1876.53 674.493 1855.01 701.42 1829.97 723.955C1817.43 735.234 1804.03 745.398 1790.72 755.422C1790.17 755.837 1789.62 756.253 1789.06 756.668C1776.33 766.254 1763.72 775.751 1752.16 785.962C1718.5 815.686 1696.64 862.52 1687.37 910.839L1687.37 910.846L1687.36 910.853C1679.9 951.883 1681.81 994.037 1693.81 1027.03C1705.78 1059.94 1727.91 1083.94 1760.93 1088.2C1792.07 1104.75 1840.24 1101.81 1906.57 1055.38L1906.6 1055.36L1906.62 1055.34C1933.89 1034.46 1958.77 1016.4 1981.75 1000.54L1981.76 1000.53L1981.77 1000.53C1994.85 991.144 2003.73 989.49 2010.69 991.665C2017.8 993.887 2023.39 1000.21 2029.6 1008.14C2030.38 1009.13 2031.16 1010.14 2031.96 1011.17C2043.72 1026.36 2057.99 1044.79 2088.39 1044.22L2088.42 1044.22L2088.45 1044.22C2098.32 1043.68 2108.09 1038.25 2117.51 1031.28C2123.59 1026.78 2129.68 1021.52 2135.64 1016.37C2138.89 1013.55 2142.11 1010.77 2145.26 1008.17C2154.3 1000.71 2162.85 994.689 2170.87 992.705C2174.84 991.725 2178.62 991.745 2182.27 993.043C2185.92 994.343 2189.56 996.97 2193.15 1001.41L2193.24 1001.52L2193.35 1001.62C2206.4 1012.55 2220.09 1026.32 2235.13 1041.96C2239.12 1046.12 2243.22 1050.41 2247.42 1054.82C2259 1066.96 2271.39 1079.95 2284.84 1093.37C2314.83 1124.96 2348.11 1144.28 2375.68 1144.85C2389.53 1145.14 2401.95 1140.68 2411.65 1130.67C2421.31 1120.71 2428.16 1105.37 2431.21 1084.09C2439.16 1047.51 2434.62 990.598 2411.51 907.931C2408.21 895.341 2408.94 886.323 2411.93 878.719C2414.95 871.037 2420.3 864.661 2426.6 857.38C2426.84 857.098 2427.09 856.815 2427.33 856.531C2439.79 842.128 2455.01 824.533 2460.02 788.016C2464.6 754.624 2459.04 728.622 2454.4 706.962C2453.89 704.56 2453.38 702.211 2452.91 699.912C2448.13 676.839 2446.1 659.021 2460.97 641.28L2461.06 641.167L2461.13 641.038C2466.91 630.508 2471.17 616.807 2474.95 601.362C2477.38 591.46 2479.64 580.762 2481.97 569.666C2483.28 563.461 2484.61 557.132 2486.02 550.747C2493.88 515.026 2504.03 477.313 2524.57 447.866L2524.66 447.736L2524.73 447.591C2543.15 403.909 2545.13 358.829 2535.51 323.057L2535.51 323.051C2525.16 285.183 2501.69 257.545 2470.45 253.789C2438.01 246.803 2396.97 264.235 2352.42 318.009L2352.41 318.018L2352.41 318.026C2348.95 322.32 2345.72 324.727 2342.67 325.827C2339.65 326.915 2336.65 326.777 2333.54 325.699C2330.4 324.609 2327.15 322.56 2323.71 319.846C2320.27 317.137 2316.73 313.834 2312.96 310.293C2312.66 310.005 2312.35 309.715 2312.04 309.424C2297.33 295.565 2279.27 278.56 2254.05 284.364C2241.23 287.312 2231.05 294.869 2222.55 304.06C2214.21 313.073 2207.4 323.753 2201.28 333.352L2200.95 333.87C2194.68 343.701 2189.21 352.188 2183.5 356.949C2180.68 359.299 2177.92 360.635 2175.09 360.842C2172.28 361.047 2169.17 360.155 2165.62 357.616L2165.48 357.521L2165.33 357.457C2132.41 343.378 2105.88 329.193 2082.95 304.449C2060.01 279.694 2040.56 244.252 2022.03 187.486C2016.66 170.857 2006.24 156.399 1993.82 145.958C1981.41 135.528 1966.89 129.024 1953.27 128.479C1939.58 127.93 1926.86 133.423 1918.35 146.812C1909.91 160.09 1905.72 180.97 1908.48 211.068C1908.24 213.485 1907.97 216.138 1907.67 219.016C1905.46 240.445 1901.97 274.329 1899.1 315.609C1897.6 337.24 1884.67 355.041 1869.96 374.761C1869.63 375.194 1869.31 375.628 1868.99 376.063C1854.61 395.32 1838.9 416.373 1831.76 444.209C1819.91 486.773 1837.7 523.421 1856.22 554.965C1858.72 559.223 1861.23 563.381 1863.69 567.447C1870.37 578.522 1876.65 588.914 1881.2 598.785C1887.42 612.266 1890.25 624.396 1886.68 635.539Z" stroke="#68A281" stroke-width="3"/>
</g>
</g>
</svg>
