<svg width="228" height="109" viewBox="0 0 228 109" fill="none" xmlns="http://www.w3.org/2000/svg">
<rect x="0.5" y="0.5" width="227" height="108" rx="21.5" fill="white" stroke="#DBDBDB"/>
<circle cx="48.5" cy="54.5" r="35" fill="#004225" fill-opacity="0.2" stroke="#004225"/>
<path d="M64.845 64.2593L56.331 55.7453C60.7297 47.3023 54.4208 36.9254 44.8725 37.0025C37.955 36.8598 31.8591 42.9545 32.0025 49.8726C31.926 59.4204 42.3026 65.7304 50.7452 61.3309L59.2593 69.8451C60.7992 71.385 63.305 71.385 64.845 69.8451C66.385 68.305 66.385 65.7993 64.845 64.2593ZM37.1921 57.553C30.377 50.7613 35.2515 38.9935 44.8727 39.0107C50.7107 38.8903 55.8553 44.0339 55.7343 49.8726C55.7509 59.494 43.9831 64.3683 37.1921 57.553ZM53.9731 58.9731C54.437 58.5092 54.8608 58.016 55.2435 57.4979L57.0527 59.3071L54.3071 62.0526L52.4979 60.2434C53.016 59.8608 53.5092 59.437 53.9731 58.9731ZM63.4249 68.4249C62.6679 69.1818 61.4363 69.1818 60.6794 68.4249L55.7272 63.4727L58.4728 60.7272L63.4249 65.6793C64.1819 66.4363 64.1819 67.668 63.4249 68.4249Z" fill="#004225"/>
<path d="M53.075 50.821C52.8897 50.5869 52.61 50.4474 52.3115 50.4403C52.0059 50.4331 51.7574 50.1783 51.7574 49.8726C51.7574 49.5669 52.006 49.3121 52.3116 49.3048C52.9207 49.3052 53.4112 48.6871 53.2702 48.0936C53.0517 47.0583 52.6473 46.0827 52.0681 45.1939C51.9052 44.9438 51.6396 44.7792 51.3432 44.7447C51.0469 44.7099 50.7504 44.8091 50.5343 45.0149C50.313 45.2257 49.9574 45.2212 49.7412 45.0051C49.5252 44.789 49.5208 44.4333 49.7314 44.2122C49.9372 43.996 50.0361 43.6997 50.0016 43.4033C49.9669 43.1069 49.8023 42.8413 49.5523 42.6784C48.6631 42.0991 47.6875 41.6947 46.6525 41.4764C46.0589 41.3369 45.4413 41.8245 45.4414 42.435C45.4341 42.7405 45.1794 42.989 44.8737 42.989C44.568 42.989 44.3133 42.7405 44.306 42.435C44.3063 41.8259 43.6882 41.3356 43.0948 41.4765C42.0599 41.6948 41.0843 42.0992 40.1952 42.6785C39.677 42.9994 39.5849 43.7806 40.0161 44.2123C40.5049 44.7629 39.7568 45.5009 39.2131 45.0151C38.7826 44.5849 37.9992 44.6751 37.6794 45.1942C37.1002 46.0832 36.6958 47.0588 36.4774 48.094C36.3378 48.6875 36.8255 49.3052 37.4359 49.3051C38.1723 49.3512 38.1655 50.3974 37.436 50.4406C36.8269 50.4403 36.3366 51.0584 36.4775 51.6517C36.6958 52.6865 37.1002 53.6621 37.6794 54.5514C38.0003 55.0696 38.7819 55.1621 39.2133 54.7305C39.7638 54.2416 40.5022 54.9898 40.0161 55.5335C39.8103 55.7496 39.7112 56.0461 39.7458 56.3424C39.7804 56.6388 39.945 56.9045 40.1949 57.0674C41.0838 57.6466 42.0595 58.0511 43.0948 58.2696C43.3845 58.3311 43.6912 58.2603 43.9254 58.0745C44.1595 57.8892 44.299 57.6094 44.3061 57.311C44.3519 56.5745 45.3985 56.5813 45.4415 57.311C45.441 57.9201 46.0595 58.4107 46.6528 58.2696C47.6881 58.051 48.6637 57.6466 49.5526 57.0675C50.0708 56.7465 50.1629 55.9653 49.7316 55.5336C49.2425 54.9832 49.9908 54.2448 50.5344 54.7307C50.7505 54.9365 51.0469 55.0357 51.3433 55.001C51.6397 54.9664 51.9054 54.8018 52.0683 54.5519C52.6475 53.6631 53.0519 52.6874 53.2705 51.652C53.3318 51.3595 53.2603 51.0551 53.075 50.821ZM51.0565 52.1101C50.9886 52.2976 50.9122 52.4818 50.8273 52.6624C48.9148 52.1268 47.1278 53.9148 47.6633 55.8264C47.4827 55.9112 47.2984 55.9877 47.1109 56.0555C46.1377 54.3239 43.6086 54.3249 42.636 56.0556C42.4484 55.9878 42.2643 55.9113 42.0836 55.8264C42.6193 53.914 40.8314 52.1269 38.92 52.6624C38.835 52.4816 38.7586 52.2975 38.6908 52.1099C40.4222 51.1364 40.4212 48.608 38.6908 47.6352C38.7586 47.4477 38.835 47.2634 38.9199 47.0828C40.8324 47.6183 42.619 45.8304 42.0837 43.9191C42.2644 43.8342 42.4486 43.7577 42.6362 43.6899C43.6097 45.4212 46.1381 45.4203 47.1109 43.6899C47.2984 43.7577 47.4827 43.8342 47.6633 43.9191C47.1278 45.8317 48.9158 47.6184 50.8273 47.0828C50.9122 47.2634 50.9886 47.4477 51.0565 47.6352C49.3249 48.6085 49.3257 51.1374 51.0565 52.1101Z" fill="#004225"/>
<path d="M44.8717 46.5596C43.0448 46.5596 41.5586 48.0458 41.5586 49.8726C41.7252 54.2618 48.0189 54.2606 48.1847 49.8726C48.1847 48.0458 46.6984 46.5596 44.8717 46.5596ZM44.8717 51.1774C44.1522 51.1774 43.5669 50.5921 43.5669 49.8726C43.6325 48.1441 46.1111 48.1446 46.1764 49.8726C46.1764 50.5921 45.5911 51.1774 44.8717 51.1774Z" fill="#004225"/>
</svg>
