<svg width="71" height="71" viewBox="0 0 71 71" fill="none" xmlns="http://www.w3.org/2000/svg">
<circle cx="35.5" cy="35.5" r="35" fill="#004225" fill-opacity="0.2" stroke="#004225"/>
<path d="M49.7894 18C46.9051 18 44.5586 20.3465 44.5586 23.2308C44.5586 26.115 46.9051 28.4615 49.7894 28.4615C52.6736 28.4615 55.0201 26.115 55.0201 23.2308C55.0201 20.3465 52.6736 18 49.7894 18ZM49.7894 25.8462C48.3472 25.8462 47.174 24.6729 47.174 23.2308C47.174 21.7886 48.3472 20.6154 49.7894 20.6154C51.2315 20.6154 52.4047 21.7886 52.4047 23.2308C52.4047 24.6729 51.2315 25.8462 49.7894 25.8462Z" fill="#3B634C"/>
<path d="M15.6172 23.2308C15.6172 26.115 17.9637 28.4615 20.848 28.4615C23.7322 28.4615 26.0787 26.115 26.0787 23.2308C26.0787 20.3465 23.7322 18 20.848 18C17.9637 18 15.6172 20.3465 15.6172 23.2308ZM23.4633 23.2308C23.4633 24.6729 22.2901 25.8462 20.848 25.8462C19.4058 25.8462 18.2326 24.6729 18.2326 23.2308C18.2326 21.7886 19.4058 20.6154 20.848 20.6154C22.2901 20.6154 23.4633 21.7886 23.4633 23.2308Z" fill="#3B634C"/>
<path d="M51.0974 28.4614C47.4921 28.4614 44.559 31.3946 44.559 34.9999C44.559 38.6052 41.5867 41.5383 37.9333 41.5383H32.7026C29.0492 41.5383 26.0769 38.6052 26.0769 34.9999C26.0769 31.3946 23.1438 28.4614 19.5385 28.4614C15.9332 28.4614 13 31.3946 13 34.9999V50.6922C13 51.4144 13.5855 51.9999 14.3077 51.9999H24.7692C25.4914 51.9999 26.0769 51.4144 26.0769 50.6922V47.786C28.0633 48.807 30.3163 49.3845 32.7026 49.3845H37.9333C40.3196 49.3845 42.5726 48.807 44.559 47.786V50.6922C44.559 51.4144 45.1445 51.9999 45.8667 51.9999H56.3282C57.0504 51.9999 57.6359 51.4144 57.6359 50.6922V34.9999C57.6359 31.3946 54.7027 28.4614 51.0974 28.4614ZM35.3179 46.7691H32.7026C26.165 46.7691 20.8462 41.4894 20.8462 34.9999C20.8462 34.2777 20.2607 33.6922 19.5385 33.6922C18.8163 33.6922 18.2308 34.2777 18.2308 34.9999C18.2308 39.4424 20.2677 43.4206 23.4615 46.0612V49.3845H15.6154V34.9999C15.6154 32.8367 17.3753 31.0768 19.5385 31.0768C21.7016 31.0768 23.4615 32.8367 23.4615 34.9999C23.4615 40.0473 27.6071 44.1537 32.7026 44.1537H35.3179C36.039 44.1537 36.6256 44.7404 36.6256 45.4614C36.6256 46.1825 36.039 46.7691 35.3179 46.7691ZM55.0205 49.3845H47.1744V46.0612C50.3682 43.4205 52.4051 39.4424 52.4051 34.9999C52.4051 34.2777 51.8196 33.6922 51.0974 33.6922C50.3752 33.6922 49.7897 34.2777 49.7897 34.9999C49.7897 41.1213 45.0571 46.1652 39.0335 46.718C39.1673 46.3232 39.241 45.9009 39.241 45.4614C39.241 44.9803 39.1535 44.5194 38.9943 44.0931C43.5919 43.57 47.1744 39.6919 47.1744 34.9999C47.1744 32.8367 48.9343 31.0768 51.0974 31.0768C53.2606 31.0768 55.0205 32.8367 55.0205 34.9999V49.3845Z" fill="#3B634C"/>
<path d="M35.3176 25.846C36.0387 25.846 36.6253 26.4326 36.6253 27.1537C36.6253 27.8759 37.2108 28.4614 37.933 28.4614C38.6552 28.4614 39.2407 27.8759 39.2407 27.1537C39.2407 25.4489 38.1474 23.9954 36.6253 23.4555V21.9229C36.6253 21.2007 36.0398 20.6152 35.3176 20.6152C34.5954 20.6152 34.0099 21.2007 34.0099 21.9229V23.4555C32.4878 23.9954 31.3945 25.4489 31.3945 27.1537C31.3945 29.3169 33.1544 31.0768 35.3176 31.0768C36.0387 31.0768 36.6253 31.6634 36.6253 32.3845C36.6253 33.1055 36.0387 33.6922 35.3176 33.6922C34.5965 33.6922 34.0099 33.1055 34.0099 32.3845C34.0099 31.6623 33.4244 31.0768 32.7022 31.0768C31.98 31.0768 31.3945 31.6623 31.3945 32.3845C31.3945 34.0893 32.4878 35.5428 34.0099 36.0826V37.6152C34.0099 38.3374 34.5954 38.9229 35.3176 38.9229C36.0398 38.9229 36.6253 38.3374 36.6253 37.6152V36.0826C38.1474 35.5428 39.2407 34.0893 39.2407 32.3845C39.2407 30.2213 37.4808 28.4614 35.3176 28.4614C34.5965 28.4614 34.0099 27.8748 34.0099 27.1537C34.0099 26.4326 34.5965 25.846 35.3176 25.846Z" fill="#3B634C"/>
</svg>
