<svg width="71" height="71" viewBox="0 0 71 71" fill="none" xmlns="http://www.w3.org/2000/svg">
<circle cx="35.5" cy="35.5" r="35" fill="#004225" fill-opacity="0.2" stroke="#004225"/>
<path d="M34.8377 34.1284C35.06 34.3507 35.3514 34.4619 35.6427 34.4619C35.9339 34.4619 36.2254 34.3507 36.4476 34.1284L39.8109 30.7651C40.2555 30.3206 40.2555 29.5997 39.8109 29.1552C39.3664 28.7107 38.6456 28.7107 38.201 29.1552L35.6426 31.7136L34.4824 30.5534C34.0379 30.1089 33.3171 30.1089 32.8725 30.5534C32.4279 30.9979 32.4279 31.7187 32.8725 32.1633L34.8377 34.1284Z" fill="#004225"/>
<path d="M36.428 39.9332C41.2196 39.9332 45.1177 36.035 45.1177 31.2434C45.1177 26.4519 41.2196 22.5537 36.428 22.5537C31.6364 22.5537 27.7383 26.4519 27.7383 31.2434C27.7383 36.035 31.6364 39.9332 36.428 39.9332ZM36.428 24.8305C39.9642 24.8305 42.841 27.7073 42.841 31.2434C42.841 34.7796 39.9642 37.6564 36.428 37.6564C32.8919 37.6564 30.0151 34.7796 30.0151 31.2434C30.0151 27.7073 32.8919 24.8305 36.428 24.8305Z" fill="#004225"/>
<path d="M54.7188 42.2098H53.5804V19.1384C53.5804 18.5097 53.0707 18 52.442 18H20.4152C19.7865 18 19.2768 18.5097 19.2768 19.1384V42.2098H18.1384C17.5097 42.2098 17 42.7195 17 43.3482V47.1846C17 49.8398 19.1602 52 21.8154 52H51.0417C53.6969 52 55.8571 49.8398 55.8571 47.1846V43.3482C55.8571 42.7195 55.3474 42.2098 54.7188 42.2098ZM21.5536 20.2768H51.3036V42.2098H42.5759C41.9472 42.2098 41.4375 42.7195 41.4375 43.3482V45.1696H31.4196V43.3482C31.4196 42.7195 30.9099 42.2098 30.2812 42.2098H21.5536V20.2768ZM53.5804 47.1846C53.5804 48.5844 52.4415 49.7232 51.0417 49.7232H21.8154C20.4156 49.7232 19.2768 48.5844 19.2768 47.1846V44.4866H29.1429V46.308C29.1429 46.9367 29.6526 47.4464 30.2812 47.4464H42.5759C43.2046 47.4464 43.7143 46.9367 43.7143 46.308V44.4866H53.5804V47.1846Z" fill="#004225"/>
</svg>
