<svg width="39" height="39" viewBox="0 0 39 39" fill="none" xmlns="http://www.w3.org/2000/svg">
<path d="M34.4526 16.6047L32.8939 23.253C31.5579 28.9947 28.9177 31.3168 23.9553 30.8397C23.1601 30.776 22.3012 30.6329 21.3787 30.4102L18.7067 29.774C12.0743 28.1994 10.0226 24.923 11.5813 18.2747L13.1399 11.6106C13.458 10.2587 13.8398 9.08169 14.3169 8.11148C16.1778 4.26249 19.3429 3.22867 24.6551 4.48516L27.3113 5.10545C33.9754 6.66414 36.0113 9.95646 34.4526 16.6047Z" stroke="#292D32" stroke-width="1.34647" stroke-linecap="round" stroke-linejoin="round"/>
<path d="M23.9553 30.8395C22.9692 31.5075 21.7286 32.0642 20.2176 32.5572L17.7046 33.3843C11.3904 35.4201 8.06624 33.7183 6.0145 27.404L3.97867 21.1216C1.94283 14.8073 3.62876 11.4673 9.94302 9.43144L12.456 8.60438C13.1081 8.39762 13.7284 8.22266 14.3169 8.11133C13.8397 9.08153 13.458 10.2585 13.1399 11.6104L11.5812 18.2746C10.0225 24.9229 12.0743 28.1993 18.7067 29.7739L21.3787 30.4101C22.3012 30.6327 23.16 30.7759 23.9553 30.8395Z" stroke="#292D32" stroke-width="1.34647" stroke-linecap="round" stroke-linejoin="round"/>
<path d="M20.1074 13.5669L27.8213 15.5232" stroke="#292D32" stroke-width="1.34647" stroke-linecap="round" stroke-linejoin="round"/>
<path d="M18.5469 19.7222L23.1593 20.8991" stroke="#292D32" stroke-width="1.34647" stroke-linecap="round" stroke-linejoin="round"/>
</svg>
