<svg width="180" height="171" viewBox="0 0 180 171" fill="none" xmlns="http://www.w3.org/2000/svg">
<path d="M13.4375 143.333C17.0013 143.333 20.4192 144.749 22.9393 147.269C25.4593 149.789 26.875 153.207 26.875 156.771C26.875 160.335 25.4593 163.753 22.9393 166.273C20.4192 168.793 17.0013 170.208 13.4375 170.208C9.87365 170.208 6.45577 168.793 3.93575 166.273C1.41573 163.753 0 160.335 0 156.771C0 153.207 1.41573 149.789 3.93575 147.269C6.45577 144.749 9.87365 143.333 13.4375 143.333ZM58.2292 116.458C64.1689 116.458 69.8654 118.818 74.0654 123.018C78.2654 127.218 80.625 132.914 80.625 138.854C80.625 144.794 78.2654 150.49 74.0654 154.69C69.8654 158.89 64.1689 161.25 58.2292 161.25C52.2894 161.25 46.593 158.89 42.3929 154.69C38.1929 150.49 35.8333 144.794 35.8333 138.854C35.8333 132.914 38.1929 127.218 42.3929 123.018C46.593 118.818 52.2894 116.458 58.2292 116.458ZM111.979 107.5C101.319 107.5 91.6438 103.021 85.1042 95.4062C78.5646 103.021 68.8896 107.5 58.2292 107.5C40.6708 107.5 26.0688 94.8687 23.0229 78.2958C16.2576 75.6795 10.44 71.0811 6.33196 65.1029C2.22393 59.1247 0.0169447 52.0453 0 44.7917C0 35.2881 3.77529 26.1737 10.4953 19.4537C17.2154 12.7336 26.3297 8.95833 35.8333 8.95833C38.1625 8.95833 40.3125 9.22708 42.7313 9.58542C49.2708 3.67292 57.7813 0 67.1875 0C77.8479 0 87.5229 4.47917 94.0625 12.0937C100.602 4.47917 110.277 0 120.938 0C138.496 0 153.098 12.6313 156.144 29.2042C162.909 31.8205 168.727 36.4189 172.835 42.3971C176.943 48.3753 179.15 55.4547 179.167 62.7083C179.167 72.2119 175.391 81.3263 168.671 88.0463C161.951 94.7664 152.837 98.5417 143.333 98.5417L136.435 97.9146C129.896 103.827 121.385 107.5 111.979 107.5Z" fill="#F8F9FA"/>
<path d="M13.4375 143.333C17.0013 143.333 20.4192 144.749 22.9393 147.269C25.4593 149.789 26.875 153.207 26.875 156.771C26.875 160.335 25.4593 163.753 22.9393 166.273C20.4192 168.793 17.0013 170.208 13.4375 170.208C9.87365 170.208 6.45577 168.793 3.93575 166.273C1.41573 163.753 0 160.335 0 156.771C0 153.207 1.41573 149.789 3.93575 147.269C6.45577 144.749 9.87365 143.333 13.4375 143.333ZM58.2292 116.458C64.1689 116.458 69.8654 118.818 74.0654 123.018C78.2654 127.218 80.625 132.914 80.625 138.854C80.625 144.794 78.2654 150.49 74.0654 154.69C69.8654 158.89 64.1689 161.25 58.2292 161.25C52.2894 161.25 46.593 158.89 42.3929 154.69C38.1929 150.49 35.8333 144.794 35.8333 138.854C35.8333 132.914 38.1929 127.218 42.3929 123.018C46.593 118.818 52.2894 116.458 58.2292 116.458ZM111.979 107.5C101.319 107.5 91.6438 103.021 85.1042 95.4062C78.5646 103.021 68.8896 107.5 58.2292 107.5C40.6708 107.5 26.0688 94.8687 23.0229 78.2958C16.2576 75.6795 10.44 71.0811 6.33196 65.1029C2.22393 59.1247 0.0169447 52.0453 0 44.7917C0 35.2881 3.77529 26.1737 10.4953 19.4537C17.2154 12.7336 26.3297 8.95833 35.8333 8.95833C38.1625 8.95833 40.3125 9.22708 42.7313 9.58542C49.2708 3.67292 57.7813 0 67.1875 0C77.8479 0 87.5229 4.47917 94.0625 12.0937C100.602 4.47917 110.277 0 120.938 0C138.496 0 153.098 12.6313 156.144 29.2042C162.909 31.8205 168.727 36.4189 172.835 42.3971C176.943 48.3753 179.15 55.4547 179.167 62.7083C179.167 72.2119 175.391 81.3263 168.671 88.0463C161.951 94.7664 152.837 98.5417 143.333 98.5417L136.435 97.9146C129.896 103.827 121.385 107.5 111.979 107.5Z" fill="#F8F9FA"/>
<path d="M22.7464 40V32.7273H27.6469V33.995H24.284V35.728H27.3948V36.9957H24.284V38.7322H27.6611V40H22.7464ZM30.1052 34.5455L31.1066 36.4524L32.1329 34.5455H33.6847L32.1045 37.2727L33.7274 40H32.1826L31.1066 38.1143L30.0484 40H28.4859L30.1052 37.2727L28.5427 34.5455H30.1052ZM34.5832 42.0455V34.5455H36.0747V35.4616H36.1421C36.2084 35.3149 36.3043 35.1657 36.4298 35.0142C36.5576 34.8603 36.7233 34.7325 36.9269 34.6307C37.1329 34.5265 37.3886 34.4744 37.694 34.4744C38.0917 34.4744 38.4587 34.5786 38.7948 34.7869C39.131 34.9929 39.3997 35.3042 39.6009 35.7209C39.8022 36.1352 39.9028 36.6548 39.9028 37.2798C39.9028 37.8883 39.8045 38.402 39.608 38.821C39.4139 39.2377 39.1488 39.5537 38.8126 39.7692C38.4788 39.9822 38.1047 40.0888 37.6904 40.0888C37.3969 40.0888 37.1471 40.0402 36.9411 39.9432C36.7375 39.8461 36.5706 39.7242 36.4404 39.5774C36.3102 39.4283 36.2108 39.2779 36.1421 39.1264H36.096V42.0455H34.5832ZM36.064 37.2727C36.064 37.5971 36.109 37.88 36.199 38.1214C36.2889 38.3629 36.4191 38.5511 36.5896 38.6861C36.76 38.8187 36.9672 38.8849 37.211 38.8849C37.4572 38.8849 37.6656 38.8175 37.836 38.6825C38.0065 38.5452 38.1355 38.3558 38.2231 38.1143C38.3131 37.8705 38.358 37.59 38.358 37.2727C38.358 36.9579 38.3142 36.6809 38.2267 36.4418C38.1391 36.2027 38.01 36.0156 37.8396 35.8807C37.6691 35.7457 37.4596 35.6783 37.211 35.6783C36.9648 35.6783 36.7565 35.7434 36.586 35.8736C36.4179 36.0038 36.2889 36.1884 36.199 36.4276C36.109 36.6667 36.064 36.9484 36.064 37.2727ZM43.3971 40.1065C42.836 40.1065 42.3531 39.9929 41.9482 39.7656C41.5458 39.536 41.2356 39.2116 41.0178 38.7926C40.8 38.3712 40.6911 37.8729 40.6911 37.2976C40.6911 36.7365 40.8 36.2441 41.0178 35.8203C41.2356 35.3965 41.5422 35.0663 41.9376 34.8295C42.3353 34.5928 42.8017 34.4744 43.3367 34.4744C43.6966 34.4744 44.0316 34.5324 44.3417 34.6484C44.6542 34.7621 44.9265 34.9337 45.1585 35.1634C45.3928 35.393 45.5751 35.6818 45.7053 36.0298C45.8356 36.3755 45.9007 36.7803 45.9007 37.2443V37.6598H41.2948V36.7223H44.4767C44.4767 36.5045 44.4293 36.3116 44.3346 36.1435C44.2399 35.9754 44.1085 35.844 43.9404 35.7493C43.7747 35.6522 43.5818 35.6037 43.3616 35.6037C43.132 35.6037 42.9284 35.657 42.7508 35.7635C42.5756 35.8677 42.4383 36.0085 42.3389 36.1861C42.2394 36.3613 42.1885 36.5566 42.1862 36.772V37.6634C42.1862 37.9332 42.2359 38.1664 42.3353 38.3629C42.4371 38.5594 42.5803 38.7109 42.765 38.8175C42.9497 38.924 43.1686 38.9773 43.422 38.9773C43.5901 38.9773 43.7439 38.9536 43.8836 38.9062C44.0233 38.8589 44.1428 38.7879 44.2423 38.6932C44.3417 38.5985 44.4175 38.4825 44.4695 38.3452L45.8687 38.4375C45.7977 38.7737 45.6521 39.0672 45.4319 39.3182C45.2141 39.5668 44.9324 39.7609 44.5867 39.9006C44.2435 40.0379 43.8469 40.1065 43.3971 40.1065ZM46.8879 40V34.5455H48.3545V35.4972H48.4113C48.5107 35.1586 48.6776 34.9029 48.912 34.7301C49.1464 34.5549 49.4163 34.4673 49.7217 34.4673C49.7974 34.4673 49.8791 34.4721 49.9667 34.4815C50.0543 34.491 50.1312 34.504 50.1975 34.5206V35.8629C50.1265 35.8416 50.0283 35.8227 49.9028 35.8061C49.7773 35.7895 49.6625 35.7812 49.5583 35.7812C49.3358 35.7812 49.1369 35.8298 48.9617 35.9268C48.7889 36.0215 48.6516 36.1541 48.5498 36.3246C48.4504 36.495 48.4007 36.6915 48.4007 36.9141V40H46.8879ZM50.9797 40V34.5455H52.4925V40H50.9797ZM51.7396 33.8423C51.5147 33.8423 51.3218 33.7678 51.1608 33.6186C51.0022 33.4671 50.9229 33.286 50.9229 33.0753C50.9229 32.867 51.0022 32.6882 51.1608 32.5391C51.3218 32.3875 51.5147 32.3118 51.7396 32.3118C51.9645 32.3118 52.1563 32.3875 52.3149 32.5391C52.4759 32.6882 52.5564 32.867 52.5564 33.0753C52.5564 33.286 52.4759 33.4671 52.3149 33.6186C52.1563 33.7678 51.9645 33.8423 51.7396 33.8423ZM56.1901 40.1065C55.629 40.1065 55.146 39.9929 54.7412 39.7656C54.3387 39.536 54.0286 39.2116 53.8108 38.7926C53.593 38.3712 53.4841 37.8729 53.4841 37.2976C53.4841 36.7365 53.593 36.2441 53.8108 35.8203C54.0286 35.3965 54.3352 35.0663 54.7306 34.8295C55.1283 34.5928 55.5947 34.4744 56.1297 34.4744C56.4896 34.4744 56.8245 34.5324 57.1347 34.6484C57.4472 34.7621 57.7194 34.9337 57.9514 35.1634C58.1858 35.393 58.3681 35.6818 58.4983 36.0298C58.6285 36.3755 58.6936 36.7803 58.6936 37.2443V37.6598H54.0878V36.7223H57.2696C57.2696 36.5045 57.2223 36.3116 57.1276 36.1435C57.0329 35.9754 56.9015 35.844 56.7334 35.7493C56.5677 35.6522 56.3747 35.6037 56.1546 35.6037C55.9249 35.6037 55.7213 35.657 55.5438 35.7635C55.3686 35.8677 55.2313 36.0085 55.1318 36.1861C55.0324 36.3613 54.9815 36.5566 54.9791 36.772V37.6634C54.9791 37.9332 55.0289 38.1664 55.1283 38.3629C55.2301 38.5594 55.3733 38.7109 55.558 38.8175C55.7426 38.924 55.9616 38.9773 56.2149 38.9773C56.383 38.9773 56.5369 38.9536 56.6766 38.9062C56.8163 38.8589 56.9358 38.7879 57.0352 38.6932C57.1347 38.5985 57.2104 38.4825 57.2625 38.3452L58.6617 38.4375C58.5906 38.7737 58.445 39.0672 58.2249 39.3182C58.0071 39.5668 57.7253 39.7609 57.3797 39.9006C57.0364 40.0379 56.6399 40.1065 56.1901 40.1065ZM61.1936 36.8466V40H59.6808V34.5455H61.1226V35.5078H61.1865C61.3073 35.1906 61.5097 34.9396 61.7938 34.755C62.0779 34.5679 62.4223 34.4744 62.8271 34.4744C63.2059 34.4744 63.5362 34.5573 63.8179 34.723C64.0996 34.8887 64.3186 35.1255 64.4749 35.4332C64.6311 35.7386 64.7093 36.1032 64.7093 36.527V40H63.1965V36.7969C63.1988 36.4631 63.1136 36.2027 62.9408 36.0156C62.768 35.8262 62.53 35.7315 62.227 35.7315C62.0234 35.7315 61.8435 35.7753 61.6872 35.8629C61.5334 35.9505 61.4126 36.0784 61.325 36.2464C61.2398 36.4122 61.196 36.6122 61.1936 36.8466ZM68.366 40.1065C67.8073 40.1065 67.3267 39.9882 66.9243 39.7514C66.5242 39.5123 66.2164 39.1809 66.001 38.7571C65.7879 38.3333 65.6814 37.8456 65.6814 37.294C65.6814 36.7353 65.7891 36.2453 66.0045 35.8239C66.2223 35.4001 66.5313 35.0698 66.9314 34.8331C67.3315 34.594 67.8073 34.4744 68.3589 34.4744C68.8348 34.4744 69.2515 34.5608 69.6089 34.7337C69.9664 34.9065 70.2493 35.1491 70.4577 35.4616C70.666 35.7741 70.7808 36.1411 70.8021 36.5625H69.3746C69.3343 36.2902 69.2278 36.0713 69.055 35.9055C68.8845 35.7375 68.6608 35.6534 68.3838 35.6534C68.1494 35.6534 67.9446 35.7173 67.7694 35.8452C67.5966 35.9706 67.4617 36.1541 67.3646 36.3956C67.2675 36.6371 67.219 36.9295 67.219 37.2727C67.219 37.6207 67.2664 37.9167 67.3611 38.1605C67.4581 38.4044 67.5943 38.5902 67.7694 38.718C67.9446 38.8459 68.1494 38.9098 68.3838 38.9098C68.5566 38.9098 68.7117 38.8743 68.849 38.8033C68.9887 38.7322 69.1035 38.6293 69.1934 38.4943C69.2858 38.357 69.3461 38.1925 69.3746 38.0007H70.8021C70.7784 38.4174 70.6648 38.7843 70.4612 39.1016C70.26 39.4164 69.9818 39.6626 69.6267 39.8402C69.2716 40.0178 68.8514 40.1065 68.366 40.1065ZM74.2565 40.1065C73.6954 40.1065 73.2124 39.9929 72.8076 39.7656C72.4052 39.536 72.095 39.2116 71.8772 38.7926C71.6594 38.3712 71.5505 37.8729 71.5505 37.2976C71.5505 36.7365 71.6594 36.2441 71.8772 35.8203C72.095 35.3965 72.4016 35.0663 72.797 34.8295C73.1947 34.5928 73.6611 34.4744 74.1961 34.4744C74.556 34.4744 74.891 34.5324 75.2011 34.6484C75.5136 34.7621 75.7858 34.9337 76.0178 35.1634C76.2522 35.393 76.4345 35.6818 76.5647 36.0298C76.6949 36.3755 76.76 36.7803 76.76 37.2443V37.6598H72.1542V36.7223H75.336C75.336 36.5045 75.2887 36.3116 75.194 36.1435C75.0993 35.9754 74.9679 35.844 74.7998 35.7493C74.6341 35.6522 74.4411 35.6037 74.221 35.6037C73.9913 35.6037 73.7877 35.657 73.6102 35.7635C73.435 35.8677 73.2977 36.0085 73.1982 36.1861C73.0988 36.3613 73.0479 36.5566 73.0455 36.772V37.6634C73.0455 37.9332 73.0953 38.1664 73.1947 38.3629C73.2965 38.5594 73.4397 38.7109 73.6244 38.8175C73.809 38.924 74.028 38.9773 74.2813 38.9773C74.4494 38.9773 74.6033 38.9536 74.743 38.9062C74.8827 38.8589 75.0022 38.7879 75.1017 38.6932C75.2011 38.5985 75.2768 38.4825 75.3289 38.3452L76.7281 38.4375C76.657 38.7737 76.5115 39.0672 76.2913 39.3182C76.0735 39.5668 75.7918 39.7609 75.4461 39.9006C75.1028 40.0379 74.7063 40.1065 74.2565 40.1065ZM84.0354 34.8189C84.007 34.5324 83.8851 34.3099 83.6697 34.1513C83.4542 33.9927 83.1618 33.9134 82.7925 33.9134C82.5416 33.9134 82.3297 33.9489 82.1569 34.0199C81.984 34.0885 81.8515 34.1844 81.7591 34.3075C81.6692 34.4306 81.6242 34.5703 81.6242 34.7266C81.6195 34.8568 81.6467 34.9704 81.7059 35.0675C81.7674 35.1645 81.8515 35.2486 81.958 35.3196C82.0645 35.3883 82.1876 35.4486 82.3273 35.5007C82.467 35.5504 82.6162 35.593 82.7748 35.6286L83.4282 35.7848C83.7454 35.8558 84.0366 35.9505 84.3018 36.0689C84.5669 36.1873 84.7965 36.3329 84.9907 36.5057C85.1848 36.6785 85.3351 36.8821 85.4417 37.1165C85.5506 37.3509 85.6062 37.6196 85.6086 37.9226C85.6062 38.3677 85.4926 38.7536 85.2677 39.0803C85.0451 39.4046 84.7232 39.6567 84.3018 39.8366C83.8827 40.0142 83.3773 40.103 82.7854 40.103C82.1983 40.103 81.6869 40.013 81.2513 39.8331C80.8181 39.6532 80.4796 39.3868 80.2357 39.0341C79.9942 38.679 79.8676 38.2398 79.8557 37.7166H81.3437C81.3602 37.9605 81.4301 38.1641 81.5532 38.3274C81.6787 38.4884 81.8456 38.6103 82.0539 38.6932C82.2646 38.7737 82.5025 38.8139 82.7677 38.8139C83.0281 38.8139 83.2542 38.776 83.4459 38.7003C83.6401 38.6245 83.7904 38.5192 83.8969 38.3842C84.0035 38.2493 84.0567 38.0942 84.0567 37.919C84.0567 37.7557 84.0082 37.6184 83.9111 37.5071C83.8164 37.3958 83.6768 37.3011 83.4921 37.223C83.3098 37.1449 83.0861 37.0739 82.8209 37.0099L82.029 36.8111C81.4159 36.6619 80.9317 36.4287 80.5766 36.1115C80.2215 35.7943 80.0451 35.367 80.0475 34.8295C80.0451 34.3892 80.1623 34.0045 80.3991 33.6754C80.6382 33.3464 80.9661 33.0895 81.3827 32.9048C81.7994 32.7202 82.2729 32.6278 82.8032 32.6278C83.343 32.6278 83.8141 32.7202 84.2165 32.9048C84.6214 33.0895 84.9362 33.3464 85.1611 33.6754C85.386 34.0045 85.502 34.3857 85.5091 34.8189H84.0354ZM88.1698 40.103C87.8218 40.103 87.5117 40.0426 87.2394 39.9219C86.9672 39.7988 86.7517 39.6177 86.5931 39.3786C86.4369 39.1371 86.3588 38.8364 86.3588 38.4766C86.3588 38.1735 86.4144 37.919 86.5257 37.7131C86.6369 37.5071 86.7884 37.3414 86.9802 37.2159C87.172 37.0904 87.3898 36.9957 87.6336 36.9318C87.8798 36.8679 88.1379 36.8229 88.4078 36.7969C88.725 36.7637 88.9807 36.733 89.1748 36.7045C89.3689 36.6738 89.5098 36.6288 89.5974 36.5696C89.685 36.5104 89.7288 36.4228 89.7288 36.3068V36.2855C89.7288 36.0606 89.6578 35.8866 89.5157 35.7635C89.376 35.6404 89.1772 35.5788 88.9191 35.5788C88.6469 35.5788 88.4302 35.6392 88.2693 35.7599C88.1083 35.8783 88.0017 36.0275 87.9497 36.2074L86.5505 36.0938C86.6215 35.7623 86.7612 35.4759 86.9695 35.2344C87.1779 34.9905 87.4466 34.8035 87.7757 34.6733C88.1071 34.5407 88.4906 34.4744 88.9262 34.4744C89.2293 34.4744 89.5193 34.5099 89.7963 34.581C90.0756 34.652 90.323 34.7621 90.5384 34.9112C90.7562 35.0604 90.9279 35.2521 91.0534 35.4865C91.1788 35.7185 91.2416 35.9967 91.2416 36.321V40H89.8069V39.2436H89.7643C89.6767 39.4141 89.5595 39.5644 89.4127 39.6946C89.266 39.8224 89.0896 39.9231 88.8836 39.9964C88.6776 40.0675 88.4397 40.103 88.1698 40.103ZM88.6031 39.0589C88.8256 39.0589 89.0221 39.0152 89.1926 38.9276C89.363 38.8376 89.4968 38.7169 89.5938 38.5653C89.6909 38.4138 89.7394 38.2422 89.7394 38.0504V37.4716C89.6921 37.5024 89.627 37.5308 89.5441 37.5568C89.4636 37.5805 89.3725 37.603 89.2707 37.6243C89.1689 37.6432 89.0671 37.661 88.9653 37.6776C88.8635 37.6918 88.7712 37.7048 88.6883 37.7166C88.5107 37.7427 88.3557 37.7841 88.2231 37.8409C88.0905 37.8977 87.9875 37.9747 87.9142 38.0717C87.8408 38.1664 87.8041 38.2848 87.8041 38.4268C87.8041 38.6328 87.8786 38.7902 88.0278 38.8991C88.1793 39.0057 88.3711 39.0589 88.6031 39.0589ZM95.3485 34.5455V35.6818H91.982V34.5455H95.3485ZM92.7526 40V34.1513C92.7526 33.7559 92.8295 33.428 92.9834 33.1676C93.1396 32.9072 93.3527 32.7119 93.6226 32.5817C93.8925 32.4515 94.1991 32.3864 94.5423 32.3864C94.7744 32.3864 94.9862 32.4041 95.178 32.4396C95.3721 32.4751 95.5165 32.5071 95.6112 32.5355L95.3414 33.6719C95.2822 33.6529 95.2088 33.6352 95.1212 33.6186C95.036 33.602 94.9484 33.5938 94.8584 33.5938C94.6359 33.5938 94.4808 33.6458 94.3932 33.75C94.3056 33.8518 94.2618 33.995 94.2618 34.1797V40H92.7526ZM98.5631 40.1065C98.002 40.1065 97.5191 39.9929 97.1143 39.7656C96.7118 39.536 96.4017 39.2116 96.1839 38.7926C95.9661 38.3712 95.8572 37.8729 95.8572 37.2976C95.8572 36.7365 95.9661 36.2441 96.1839 35.8203C96.4017 35.3965 96.7082 35.0663 97.1036 34.8295C97.5013 34.5928 97.9677 34.4744 98.5028 34.4744C98.8626 34.4744 99.1976 34.5324 99.5077 34.6484C99.8202 34.7621 100.092 34.9337 100.324 35.1634C100.559 35.393 100.741 35.6818 100.871 36.0298C101.002 36.3755 101.067 36.7803 101.067 37.2443V37.6598H96.4608V36.7223H99.6427C99.6427 36.5045 99.5953 36.3116 99.5006 36.1435C99.4059 35.9754 99.2745 35.844 99.1064 35.7493C98.9407 35.6522 98.7478 35.6037 98.5276 35.6037C98.298 35.6037 98.0944 35.657 97.9168 35.7635C97.7416 35.8677 97.6043 36.0085 97.5049 36.1861C97.4055 36.3613 97.3546 36.5566 97.3522 36.772V37.6634C97.3522 37.9332 97.4019 38.1664 97.5013 38.3629C97.6031 38.5594 97.7464 38.7109 97.931 38.8175C98.1157 38.924 98.3347 38.9773 98.588 38.9773C98.7561 38.9773 98.9099 38.9536 99.0496 38.9062C99.1893 38.8589 99.3089 38.7879 99.4083 38.6932C99.5077 38.5985 99.5835 38.4825 99.6356 38.3452L101.035 38.4375C100.964 38.7737 100.818 39.0672 100.598 39.3182C100.38 39.5668 100.098 39.7609 99.7528 39.9006C99.4095 40.0379 99.0129 40.1065 98.5631 40.1065ZM105.924 40.103C105.576 40.103 105.266 40.0426 104.993 39.9219C104.721 39.7988 104.506 39.6177 104.347 39.3786C104.191 39.1371 104.113 38.8364 104.113 38.4766C104.113 38.1735 104.168 37.919 104.28 37.7131C104.391 37.5071 104.542 37.3414 104.734 37.2159C104.926 37.0904 105.144 36.9957 105.388 36.9318C105.634 36.8679 105.892 36.8229 106.162 36.7969C106.479 36.7637 106.735 36.733 106.929 36.7045C107.123 36.6738 107.264 36.6288 107.351 36.5696C107.439 36.5104 107.483 36.4228 107.483 36.3068V36.2855C107.483 36.0606 107.412 35.8866 107.27 35.7635C107.13 35.6404 106.931 35.5788 106.673 35.5788C106.401 35.5788 106.184 35.6392 106.023 35.7599C105.862 35.8783 105.756 36.0275 105.704 36.2074L104.304 36.0938C104.375 35.7623 104.515 35.4759 104.723 35.2344C104.932 34.9905 105.2 34.8035 105.53 34.6733C105.861 34.5407 106.245 34.4744 106.68 34.4744C106.983 34.4744 107.273 34.5099 107.55 34.581C107.83 34.652 108.077 34.7621 108.292 34.9112C108.51 35.0604 108.682 35.2521 108.807 35.4865C108.933 35.7185 108.995 35.9967 108.995 36.321V40H107.561V39.2436H107.518C107.431 39.4141 107.313 39.5644 107.167 39.6946C107.02 39.8224 106.843 39.9231 106.638 39.9964C106.432 40.0675 106.194 40.103 105.924 40.103ZM106.357 39.0589C106.58 39.0589 106.776 39.0152 106.946 38.9276C107.117 38.8376 107.251 38.7169 107.348 38.5653C107.445 38.4138 107.493 38.2422 107.493 38.0504V37.4716C107.446 37.5024 107.381 37.5308 107.298 37.5568C107.218 37.5805 107.126 37.603 107.025 37.6243C106.923 37.6432 106.821 37.661 106.719 37.6776C106.617 37.6918 106.525 37.7048 106.442 37.7166C106.265 37.7427 106.11 37.7841 105.977 37.8409C105.844 37.8977 105.741 37.9747 105.668 38.0717C105.595 38.1664 105.558 38.2848 105.558 38.4268C105.558 38.6328 105.633 38.7902 105.782 38.8991C105.933 39.0057 106.125 39.0589 106.357 39.0589ZM111.682 36.8466V40H110.169V34.5455H111.611V35.5078H111.675C111.796 35.1906 111.998 34.9396 112.282 34.755C112.566 34.5679 112.911 34.4744 113.315 34.4744C113.694 34.4744 114.024 34.5573 114.306 34.723C114.588 34.8887 114.807 35.1255 114.963 35.4332C115.119 35.7386 115.198 36.1032 115.198 36.527V40H113.685V36.7969C113.687 36.4631 113.602 36.2027 113.429 36.0156C113.256 35.8262 113.018 35.7315 112.715 35.7315C112.512 35.7315 112.332 35.7753 112.176 35.8629C112.022 35.9505 111.901 36.0784 111.813 36.2464C111.728 36.4122 111.684 36.6122 111.682 36.8466ZM118.4 40.0888C117.985 40.0888 117.61 39.9822 117.274 39.7692C116.94 39.5537 116.675 39.2377 116.479 38.821C116.284 38.402 116.187 37.8883 116.187 37.2798C116.187 36.6548 116.288 36.1352 116.489 35.7209C116.69 35.3042 116.958 34.9929 117.292 34.7869C117.628 34.5786 117.996 34.4744 118.396 34.4744C118.702 34.4744 118.956 34.5265 119.16 34.6307C119.366 34.7325 119.531 34.8603 119.657 35.0142C119.785 35.1657 119.882 35.3149 119.948 35.4616H119.994V32.7273H121.503V40H120.012V39.1264H119.948C119.877 39.2779 119.776 39.4283 119.646 39.5774C119.518 39.7242 119.351 39.8461 119.146 39.9432C118.942 40.0402 118.693 40.0888 118.4 40.0888ZM118.879 38.8849C119.123 38.8849 119.329 38.8187 119.497 38.6861C119.668 38.5511 119.798 38.3629 119.888 38.1214C119.98 37.88 120.026 37.5971 120.026 37.2727C120.026 36.9484 119.981 36.6667 119.891 36.4276C119.801 36.1884 119.671 36.0038 119.501 35.8736C119.33 35.7434 119.123 35.6783 118.879 35.6783C118.631 35.6783 118.421 35.7457 118.251 35.8807C118.08 36.0156 117.951 36.2027 117.864 36.4418C117.776 36.6809 117.732 36.9579 117.732 37.2727C117.732 37.59 117.776 37.8705 117.864 38.1143C117.954 38.3558 118.083 38.5452 118.251 38.6825C118.421 38.8175 118.631 38.8849 118.879 38.8849ZM129.035 34.8189C129.007 34.5324 128.885 34.3099 128.67 34.1513C128.454 33.9927 128.162 33.9134 127.793 33.9134C127.542 33.9134 127.33 33.9489 127.157 34.0199C126.984 34.0885 126.851 34.1844 126.759 34.3075C126.669 34.4306 126.624 34.5703 126.624 34.7266C126.619 34.8568 126.647 34.9704 126.706 35.0675C126.767 35.1645 126.851 35.2486 126.958 35.3196C127.065 35.3883 127.188 35.4486 127.327 35.5007C127.467 35.5504 127.616 35.593 127.775 35.6286L128.428 35.7848C128.745 35.8558 129.037 35.9505 129.302 36.0689C129.567 36.1873 129.797 36.3329 129.991 36.5057C130.185 36.6785 130.335 36.8821 130.442 37.1165C130.551 37.3509 130.606 37.6196 130.609 37.9226C130.606 38.3677 130.493 38.7536 130.268 39.0803C130.045 39.4046 129.723 39.6567 129.302 39.8366C128.883 40.0142 128.377 40.103 127.785 40.103C127.198 40.103 126.687 40.013 126.251 39.8331C125.818 39.6532 125.48 39.3868 125.236 39.0341C124.994 38.679 124.868 38.2398 124.856 37.7166H126.344C126.36 37.9605 126.43 38.1641 126.553 38.3274C126.679 38.4884 126.846 38.6103 127.054 38.6932C127.265 38.7737 127.503 38.8139 127.768 38.8139C128.028 38.8139 128.254 38.776 128.446 38.7003C128.64 38.6245 128.79 38.5192 128.897 38.3842C129.003 38.2493 129.057 38.0942 129.057 37.919C129.057 37.7557 129.008 37.6184 128.911 37.5071C128.816 37.3958 128.677 37.3011 128.492 37.223C128.31 37.1449 128.086 37.0739 127.821 37.0099L127.029 36.8111C126.416 36.6619 125.932 36.4287 125.577 36.1115C125.222 35.7943 125.045 35.367 125.047 34.8295C125.045 34.3892 125.162 34.0045 125.399 33.6754C125.638 33.3464 125.966 33.0895 126.383 32.9048C126.799 32.7202 127.273 32.6278 127.803 32.6278C128.343 32.6278 128.814 32.7202 129.217 32.9048C129.621 33.0895 129.936 33.3464 130.161 33.6754C130.386 34.0045 130.502 34.3857 130.509 34.8189H129.035ZM131.614 40V34.5455H133.127V40H131.614ZM132.374 33.8423C132.149 33.8423 131.957 33.7678 131.796 33.6186C131.637 33.4671 131.558 33.286 131.558 33.0753C131.558 32.867 131.637 32.6882 131.796 32.5391C131.957 32.3875 132.149 32.3118 132.374 32.3118C132.599 32.3118 132.791 32.3875 132.95 32.5391C133.111 32.6882 133.191 32.867 133.191 33.0753C133.191 33.286 133.111 33.4671 132.95 33.6186C132.791 33.7678 132.599 33.8423 132.374 33.8423ZM134.339 40V34.5455H135.781V35.5078H135.845C135.958 35.1882 136.148 34.9361 136.413 34.7514C136.678 34.5668 136.995 34.4744 137.365 34.4744C137.739 34.4744 138.057 34.5679 138.32 34.755C138.583 34.9396 138.758 35.1906 138.845 35.5078H138.902C139.014 35.1953 139.215 34.9455 139.506 34.7585C139.8 34.5691 140.146 34.4744 140.546 34.4744C141.055 34.4744 141.469 34.6366 141.786 34.9609C142.105 35.2829 142.265 35.7398 142.265 36.3317V40H140.756V36.63C140.756 36.3269 140.675 36.0997 140.514 35.9482C140.353 35.7966 140.152 35.7209 139.911 35.7209C139.636 35.7209 139.422 35.8085 139.268 35.9837C139.114 36.1565 139.037 36.3849 139.037 36.669V40H137.571V36.598C137.571 36.3305 137.494 36.1174 137.34 35.9588C137.188 35.8002 136.988 35.7209 136.74 35.7209C136.572 35.7209 136.42 35.7635 136.285 35.8487C136.152 35.9316 136.047 36.0488 135.969 36.2003C135.891 36.3494 135.852 36.5246 135.852 36.7259V40H134.339ZM143.46 42.0455V34.5455H144.952V35.4616H145.019C145.085 35.3149 145.181 35.1657 145.307 35.0142C145.435 34.8603 145.6 34.7325 145.804 34.6307C146.01 34.5265 146.266 34.4744 146.571 34.4744C146.969 34.4744 147.336 34.5786 147.672 34.7869C148.008 34.9929 148.277 35.3042 148.478 35.7209C148.679 36.1352 148.78 36.6548 148.78 37.2798C148.78 37.8883 148.681 38.402 148.485 38.821C148.291 39.2377 148.026 39.5537 147.69 39.7692C147.356 39.9822 146.982 40.0888 146.567 40.0888C146.274 40.0888 146.024 40.0402 145.818 39.9432C145.614 39.8461 145.448 39.7242 145.317 39.5774C145.187 39.4283 145.088 39.2779 145.019 39.1264H144.973V42.0455H143.46ZM144.941 37.2727C144.941 37.5971 144.986 37.88 145.076 38.1214C145.166 38.3629 145.296 38.5511 145.467 38.6861C145.637 38.8187 145.844 38.8849 146.088 38.8849C146.334 38.8849 146.543 38.8175 146.713 38.6825C146.883 38.5452 147.012 38.3558 147.1 38.1143C147.19 37.8705 147.235 37.59 147.235 37.2727C147.235 36.9579 147.191 36.6809 147.104 36.4418C147.016 36.2027 146.887 36.0156 146.717 35.8807C146.546 35.7457 146.337 35.6783 146.088 35.6783C145.842 35.6783 145.633 35.7434 145.463 35.8736C145.295 36.0038 145.166 36.1884 145.076 36.4276C144.986 36.6667 144.941 36.9484 144.941 37.2727ZM151.301 32.7273V40H149.788V32.7273H151.301ZM154.999 40.1065C154.438 40.1065 153.955 39.9929 153.55 39.7656C153.147 39.536 152.837 39.2116 152.619 38.7926C152.402 38.3712 152.293 37.8729 152.293 37.2976C152.293 36.7365 152.402 36.2441 152.619 35.8203C152.837 35.3965 153.144 35.0663 153.539 34.8295C153.937 34.5928 154.403 34.4744 154.938 34.4744C155.298 34.4744 155.633 34.5324 155.943 34.6484C156.256 34.7621 156.528 34.9337 156.76 35.1634C156.994 35.393 157.177 35.6818 157.307 36.0298C157.437 36.3755 157.502 36.7803 157.502 37.2443V37.6598H152.896V36.7223H156.078C156.078 36.5045 156.031 36.3116 155.936 36.1435C155.841 35.9754 155.71 35.844 155.542 35.7493C155.376 35.6522 155.183 35.6037 154.963 35.6037C154.734 35.6037 154.53 35.657 154.352 35.7635C154.177 35.8677 154.04 36.0085 153.94 36.1861C153.841 36.3613 153.79 36.5566 153.788 36.772V37.6634C153.788 37.9332 153.837 38.1664 153.937 38.3629C154.039 38.5594 154.182 38.7109 154.367 38.8175C154.551 38.924 154.77 38.9773 155.024 38.9773C155.192 38.9773 155.345 38.9536 155.485 38.9062C155.625 38.8589 155.744 38.7879 155.844 38.6932C155.943 38.5985 156.019 38.4825 156.071 38.3452L157.47 38.4375C157.399 38.7737 157.254 39.0672 157.033 39.3182C156.816 39.5668 156.534 39.7609 156.188 39.9006C155.845 40.0379 155.448 40.1065 154.999 40.1065ZM40.4767 47.2734H38.9213C38.8929 47.0722 38.8349 46.8935 38.7473 46.7372C38.6597 46.5786 38.5473 46.4437 38.41 46.3324C38.2727 46.2211 38.1141 46.1359 37.9341 46.0767C37.7566 46.0175 37.5636 45.9879 37.3553 45.9879C36.9789 45.9879 36.651 46.0814 36.3716 46.2685C36.0923 46.4531 35.8757 46.723 35.7218 47.0781C35.5679 47.4309 35.4909 47.8594 35.4909 48.3636C35.4909 48.8821 35.5679 49.3177 35.7218 49.6705C35.878 50.0232 36.0958 50.2895 36.3752 50.4695C36.6545 50.6494 36.9777 50.7393 37.3446 50.7393C37.5506 50.7393 37.7412 50.7121 37.9164 50.6577C38.0939 50.6032 38.2514 50.5239 38.3887 50.4197C38.526 50.3132 38.6396 50.1842 38.7296 50.0327C38.8219 49.8812 38.8858 49.7083 38.9213 49.5142L40.4767 49.5213C40.4365 49.8551 40.3359 50.1771 40.1749 50.4872C40.0163 50.795 39.802 51.0708 39.5321 51.3146C39.2646 51.5561 38.945 51.7479 38.5733 51.8899C38.204 52.0296 37.7862 52.0994 37.3198 52.0994C36.6711 52.0994 36.0911 51.9527 35.5797 51.6591C35.0707 51.3655 34.6683 50.9406 34.3723 50.3842C34.0788 49.8279 33.932 49.1544 33.932 48.3636C33.932 47.5705 34.0811 46.8958 34.3794 46.3395C34.6777 45.7831 35.0826 45.3594 35.5939 45.0682C36.1053 44.7746 36.6806 44.6278 37.3198 44.6278C37.7412 44.6278 38.1318 44.687 38.4917 44.8054C38.8539 44.9238 39.1747 45.0966 39.454 45.3239C39.7334 45.5488 39.9606 45.8246 40.1358 46.1513C40.3134 46.478 40.427 46.852 40.4767 47.2734ZM43.1064 52.103C42.7583 52.103 42.4482 52.0426 42.176 51.9219C41.9037 51.7988 41.6883 51.6177 41.5297 51.3786C41.3734 51.1371 41.2953 50.8364 41.2953 50.4766C41.2953 50.1735 41.3509 49.919 41.4622 49.7131C41.5734 49.5071 41.725 49.3414 41.9167 49.2159C42.1085 49.0904 42.3263 48.9957 42.5701 48.9318C42.8163 48.8679 43.0744 48.8229 43.3443 48.7969C43.6615 48.7637 43.9172 48.733 44.1113 48.7045C44.3055 48.6738 44.4463 48.6288 44.5339 48.5696C44.6215 48.5104 44.6653 48.4228 44.6653 48.3068V48.2855C44.6653 48.0606 44.5943 47.8866 44.4522 47.7635C44.3126 47.6404 44.1137 47.5788 43.8556 47.5788C43.5834 47.5788 43.3668 47.6392 43.2058 47.7599C43.0448 47.8783 42.9383 48.0275 42.8862 48.2074L41.487 48.0938C41.5581 47.7623 41.6977 47.4759 41.9061 47.2344C42.1144 46.9905 42.3831 46.8035 42.7122 46.6733C43.0436 46.5407 43.4271 46.4744 43.8627 46.4744C44.1658 46.4744 44.4558 46.5099 44.7328 46.581C45.0121 46.652 45.2595 46.7621 45.475 46.9112C45.6928 47.0604 45.8644 47.2521 45.9899 47.4865C46.1154 47.7185 46.1781 47.9967 46.1781 48.321V52H44.7434V51.2436H44.7008C44.6132 51.4141 44.496 51.5644 44.3493 51.6946C44.2025 51.8224 44.0261 51.9231 43.8201 51.9964C43.6142 52.0675 43.3762 52.103 43.1064 52.103ZM43.5396 51.0589C43.7621 51.0589 43.9586 51.0152 44.1291 50.9276C44.2995 50.8376 44.4333 50.7169 44.5304 50.5653C44.6274 50.4138 44.676 50.2422 44.676 50.0504V49.4716C44.6286 49.5024 44.5635 49.5308 44.4806 49.5568C44.4002 49.5805 44.309 49.603 44.2072 49.6243C44.1054 49.6432 44.0036 49.661 43.9018 49.6776C43.8 49.6918 43.7077 49.7048 43.6248 49.7166C43.4473 49.7427 43.2922 49.7841 43.1596 49.8409C43.027 49.8977 42.9241 49.9747 42.8507 50.0717C42.7773 50.1664 42.7406 50.2848 42.7406 50.4268C42.7406 50.6328 42.8152 50.7902 42.9643 50.8991C43.1158 51.0057 43.3076 51.0589 43.5396 51.0589ZM47.3517 52V46.5455H48.8184V47.4972H48.8752C48.9746 47.1586 49.1415 46.9029 49.3759 46.7301C49.6103 46.5549 49.8801 46.4673 50.1855 46.4673C50.2613 46.4673 50.343 46.4721 50.4306 46.4815C50.5182 46.491 50.5951 46.504 50.6614 46.5206V47.8629C50.5904 47.8416 50.4921 47.8227 50.3667 47.8061C50.2412 47.7895 50.1264 47.7812 50.0222 47.7812C49.7997 47.7812 49.6008 47.8298 49.4256 47.9268C49.2528 48.0215 49.1155 48.1541 49.0137 48.3246C48.9142 48.495 48.8645 48.6915 48.8645 48.9141V52H47.3517ZM56.3645 52H53.7864V44.7273H56.3858C57.1174 44.7273 57.7471 44.8729 58.275 45.1641C58.803 45.4529 59.209 45.8684 59.4931 46.4105C59.7795 46.9527 59.9228 47.6013 59.9228 48.3565C59.9228 49.1141 59.7795 49.7652 59.4931 50.3097C59.209 50.8542 58.8006 51.272 58.2679 51.5632C57.7376 51.8544 57.1032 52 56.3645 52ZM55.324 50.6825H56.3006C56.7551 50.6825 57.1375 50.602 57.4476 50.4411C57.7601 50.2777 57.9945 50.0256 58.1507 49.6847C58.3094 49.3414 58.3887 48.8987 58.3887 48.3565C58.3887 47.8191 58.3094 47.38 58.1507 47.0391C57.9945 46.6982 57.7613 46.4472 57.4512 46.2862C57.141 46.1252 56.7587 46.0447 56.3042 46.0447H55.324V50.6825ZM63.5192 52.1065C62.9581 52.1065 62.4751 51.9929 62.0703 51.7656C61.6679 51.536 61.3577 51.2116 61.1399 50.7926C60.9221 50.3712 60.8132 49.8729 60.8132 49.2976C60.8132 48.7365 60.9221 48.2441 61.1399 47.8203C61.3577 47.3965 61.6643 47.0663 62.0597 46.8295C62.4574 46.5928 62.9238 46.4744 63.4588 46.4744C63.8187 46.4744 64.1536 46.5324 64.4638 46.6484C64.7763 46.7621 65.0485 46.9337 65.2805 47.1634C65.5149 47.393 65.6972 47.6818 65.8274 48.0298C65.9576 48.3755 66.0227 48.7803 66.0227 49.2443V49.6598H61.4169V48.7223H64.5987C64.5987 48.5045 64.5514 48.3116 64.4567 48.1435C64.362 47.9754 64.2306 47.844 64.0625 47.7493C63.8968 47.6522 63.7038 47.6037 63.4837 47.6037C63.254 47.6037 63.0504 47.657 62.8729 47.7635C62.6977 47.8677 62.5604 48.0085 62.4609 48.1861C62.3615 48.3613 62.3106 48.5566 62.3082 48.772V49.6634C62.3082 49.9332 62.358 50.1664 62.4574 50.3629C62.5592 50.5594 62.7024 50.7109 62.8871 50.8175C63.0717 50.924 63.2907 50.9773 63.544 50.9773C63.7121 50.9773 63.866 50.9536 64.0057 50.9062C64.1454 50.8589 64.2649 50.7879 64.3643 50.6932C64.4638 50.5985 64.5395 50.4825 64.5916 50.3452L65.9908 50.4375C65.9197 50.7737 65.7741 51.0672 65.554 51.3182C65.3362 51.5668 65.0545 51.7609 64.7088 51.9006C64.3655 52.0379 63.969 52.1065 63.5192 52.1065ZM68.5653 52.103C68.2173 52.103 67.9072 52.0426 67.6349 51.9219C67.3627 51.7988 67.1473 51.6177 66.9886 51.3786C66.8324 51.1371 66.7543 50.8364 66.7543 50.4766C66.7543 50.1735 66.8099 49.919 66.9212 49.7131C67.0324 49.5071 67.1839 49.3414 67.3757 49.2159C67.5675 49.0904 67.7853 48.9957 68.0291 48.9318C68.2753 48.8679 68.5334 48.8229 68.8033 48.7969C69.1205 48.7637 69.3762 48.733 69.5703 48.7045C69.7644 48.6738 69.9053 48.6288 69.9929 48.5696C70.0805 48.5104 70.1243 48.4228 70.1243 48.3068V48.2855C70.1243 48.0606 70.0533 47.8866 69.9112 47.7635C69.7715 47.6404 69.5727 47.5788 69.3146 47.5788C69.0424 47.5788 68.8258 47.6392 68.6648 47.7599C68.5038 47.8783 68.3973 48.0275 68.3452 48.2074L66.946 48.0938C67.017 47.7623 67.1567 47.4759 67.3651 47.2344C67.5734 46.9905 67.8421 46.8035 68.1712 46.6733C68.5026 46.5407 68.8861 46.4744 69.3217 46.4744C69.6248 46.4744 69.9148 46.5099 70.1918 46.581C70.4711 46.652 70.7185 46.7621 70.9339 46.9112C71.1518 47.0604 71.3234 47.2521 71.4489 47.4865C71.5743 47.7185 71.6371 47.9967 71.6371 48.321V52H70.2024V51.2436H70.1598C70.0722 51.4141 69.955 51.5644 69.8082 51.6946C69.6615 51.8224 69.4851 51.9231 69.2791 51.9964C69.0732 52.0675 68.8352 52.103 68.5653 52.103ZM68.9986 51.0589C69.2211 51.0589 69.4176 51.0152 69.5881 50.9276C69.7585 50.8376 69.8923 50.7169 69.9893 50.5653C70.0864 50.4138 70.1349 50.2422 70.1349 50.0504V49.4716C70.0876 49.5024 70.0225 49.5308 69.9396 49.5568C69.8591 49.5805 69.768 49.603 69.6662 49.6243C69.5644 49.6432 69.4626 49.661 69.3608 49.6776C69.259 49.6918 69.1667 49.7048 69.0838 49.7166C68.9063 49.7427 68.7512 49.7841 68.6186 49.8409C68.486 49.8977 68.383 49.9747 68.3097 50.0717C68.2363 50.1664 68.1996 50.2848 68.1996 50.4268C68.1996 50.6328 68.2741 50.7902 68.4233 50.8991C68.5748 51.0057 68.7666 51.0589 68.9986 51.0589ZM74.3235 44.7273V52H72.8107V44.7273H74.3235ZM80.0737 48.1009L78.6887 48.1861C78.6651 48.0677 78.6142 47.9612 78.536 47.8665C78.4579 47.7694 78.3549 47.6925 78.2271 47.6357C78.1016 47.5765 77.9513 47.5469 77.7761 47.5469C77.5417 47.5469 77.344 47.5966 77.1831 47.696C77.0221 47.7931 76.9416 47.9233 76.9416 48.0866C76.9416 48.2169 76.9937 48.3269 77.0978 48.4169C77.202 48.5069 77.3807 48.5791 77.6341 48.6335L78.6213 48.8324C79.1516 48.9413 79.5469 49.1165 79.8074 49.358C80.0678 49.5994 80.198 49.9167 80.198 50.3097C80.198 50.6671 80.0926 50.9808 79.8819 51.2507C79.6736 51.5206 79.3871 51.7313 79.0225 51.8828C78.6603 52.032 78.2425 52.1065 77.769 52.1065C77.0469 52.1065 76.4717 51.9562 76.0431 51.6555C75.617 51.3525 75.3672 50.9406 75.2939 50.4197L76.7818 50.3416C76.8268 50.5618 76.9357 50.7299 77.1085 50.8459C77.2813 50.9595 77.5027 51.0163 77.7725 51.0163C78.0377 51.0163 78.2508 50.9654 78.4118 50.8636C78.5751 50.7595 78.658 50.6257 78.6603 50.4624C78.658 50.325 78.6 50.2126 78.4863 50.125C78.3727 50.035 78.1975 49.9664 77.9608 49.919L77.0162 49.7308C76.4835 49.6243 76.0869 49.4396 75.8265 49.1768C75.5685 48.9141 75.4395 48.5791 75.4395 48.1719C75.4395 47.8215 75.5342 47.5196 75.7235 47.2663C75.9153 47.013 76.184 46.8177 76.5297 46.6804C76.8777 46.5431 77.2849 46.4744 77.7512 46.4744C78.4402 46.4744 78.9823 46.62 79.3777 46.9112C79.7754 47.2024 80.0074 47.599 80.0737 48.1009ZM87.8613 47.7635V48.9638H82.8613V47.7635H87.8613ZM97.4911 48.3636C97.4911 49.1567 97.3408 49.8314 97.0401 50.3878C96.7418 50.9441 96.3346 51.3691 95.8185 51.6626C95.3048 51.9538 94.7272 52.0994 94.0856 52.0994C93.4393 52.0994 92.8593 51.9527 92.3455 51.6591C91.8318 51.3655 91.4258 50.9406 91.1275 50.3842C90.8292 49.8279 90.68 49.1544 90.68 48.3636C90.68 47.5705 90.8292 46.8958 91.1275 46.3395C91.4258 45.7831 91.8318 45.3594 92.3455 45.0682C92.8593 44.7746 93.4393 44.6278 94.0856 44.6278C94.7272 44.6278 95.3048 44.7746 95.8185 45.0682C96.3346 45.3594 96.7418 45.7831 97.0401 46.3395C97.3408 46.8958 97.4911 47.5705 97.4911 48.3636ZM95.9322 48.3636C95.9322 47.8499 95.8552 47.4167 95.7013 47.0639C95.5498 46.7112 95.3356 46.4437 95.0586 46.2614C94.7816 46.0791 94.4573 45.9879 94.0856 45.9879C93.7139 45.9879 93.3896 46.0791 93.1126 46.2614C92.8356 46.4437 92.6201 46.7112 92.4663 47.0639C92.3147 47.4167 92.239 47.8499 92.239 48.3636C92.239 48.8774 92.3147 49.3106 92.4663 49.6634C92.6201 50.0161 92.8356 50.2836 93.1126 50.4659C93.3896 50.6482 93.7139 50.7393 94.0856 50.7393C94.4573 50.7393 94.7816 50.6482 95.0586 50.4659C95.3356 50.2836 95.5498 50.0161 95.7013 49.6634C95.8552 49.3106 95.9322 48.8774 95.9322 48.3636ZM102.1 49.6776V46.5455H103.612V52H102.16V51.0092H102.103C101.98 51.3288 101.775 51.5857 101.489 51.7798C101.205 51.974 100.858 52.071 100.448 52.071C100.084 52.071 99.763 51.9882 99.486 51.8224C99.209 51.6567 98.9924 51.4212 98.8361 51.1158C98.6822 50.8104 98.6041 50.4446 98.6017 50.0185V46.5455H100.115V49.7486C100.117 50.0705 100.203 50.325 100.374 50.5121C100.544 50.6991 100.773 50.7926 101.059 50.7926C101.241 50.7926 101.412 50.7512 101.57 50.6683C101.729 50.5831 101.857 50.4576 101.954 50.2919C102.053 50.1262 102.102 49.9214 102.1 49.6776ZM104.822 52V46.5455H106.289V47.4972H106.346C106.445 47.1586 106.612 46.9029 106.847 46.7301C107.081 46.5549 107.351 46.4673 107.656 46.4673C107.732 46.4673 107.814 46.4721 107.901 46.4815C107.989 46.491 108.066 46.504 108.132 46.5206V47.8629C108.061 47.8416 107.963 47.8227 107.837 47.8061C107.712 47.7895 107.597 47.7812 107.493 47.7812C107.27 47.7812 107.071 47.8298 106.896 47.9268C106.723 48.0215 106.586 48.1541 106.484 48.3246C106.385 48.495 106.335 48.6915 106.335 48.9141V52H104.822ZM111.257 52V44.7273H116.158V45.995H112.795V47.728H115.906V48.9957H112.795V50.7322H116.172V52H111.257ZM121.89 48.1009L120.505 48.1861C120.481 48.0677 120.431 47.9612 120.352 47.8665C120.274 47.7694 120.171 47.6925 120.044 47.6357C119.918 47.5765 119.768 47.5469 119.593 47.5469C119.358 47.5469 119.16 47.5966 118.999 47.696C118.838 47.7931 118.758 47.9233 118.758 48.0866C118.758 48.2169 118.81 48.3269 118.914 48.4169C119.018 48.5069 119.197 48.5791 119.45 48.6335L120.438 48.8324C120.968 48.9413 121.363 49.1165 121.624 49.358C121.884 49.5994 122.014 49.9167 122.014 50.3097C122.014 50.6671 121.909 50.9808 121.698 51.2507C121.49 51.5206 121.204 51.7313 120.839 51.8828C120.477 52.032 120.059 52.1065 119.585 52.1065C118.863 52.1065 118.288 51.9562 117.86 51.6555C117.433 51.3525 117.184 50.9406 117.11 50.4197L118.598 50.3416C118.643 50.5618 118.752 50.7299 118.925 50.8459C119.098 50.9595 119.319 51.0163 119.589 51.0163C119.854 51.0163 120.067 50.9654 120.228 50.8636C120.392 50.7595 120.474 50.6257 120.477 50.4624C120.474 50.325 120.416 50.2126 120.303 50.125C120.189 50.035 120.014 49.9664 119.777 49.919L118.833 49.7308C118.3 49.6243 117.903 49.4396 117.643 49.1768C117.385 48.9141 117.256 48.5791 117.256 48.1719C117.256 47.8215 117.351 47.5196 117.54 47.2663C117.732 47.013 118 46.8177 118.346 46.6804C118.694 46.5431 119.101 46.4744 119.568 46.4744C120.257 46.4744 120.799 46.62 121.194 46.9112C121.592 47.2024 121.824 47.599 121.89 48.1009ZM125.431 52.1065C124.873 52.1065 124.392 51.9882 123.99 51.7514C123.59 51.5123 123.282 51.1809 123.066 50.7571C122.853 50.3333 122.747 49.8456 122.747 49.294C122.747 48.7353 122.855 48.2453 123.07 47.8239C123.288 47.4001 123.597 47.0698 123.997 46.8331C124.397 46.594 124.873 46.4744 125.424 46.4744C125.9 46.4744 126.317 46.5608 126.674 46.7337C127.032 46.9065 127.315 47.1491 127.523 47.4616C127.731 47.7741 127.846 48.1411 127.868 48.5625H126.44C126.4 48.2902 126.293 48.0713 126.12 47.9055C125.95 47.7375 125.726 47.6534 125.449 47.6534C125.215 47.6534 125.01 47.7173 124.835 47.8452C124.662 47.9706 124.527 48.1541 124.43 48.3956C124.333 48.6371 124.284 48.9295 124.284 49.2727C124.284 49.6207 124.332 49.9167 124.426 50.1605C124.524 50.4044 124.66 50.5902 124.835 50.718C125.01 50.8459 125.215 50.9098 125.449 50.9098C125.622 50.9098 125.777 50.8743 125.914 50.8033C126.054 50.7322 126.169 50.6293 126.259 50.4943C126.351 50.357 126.412 50.1925 126.44 50.0007H127.868C127.844 50.4174 127.73 50.7843 127.527 51.1016C127.325 51.4164 127.047 51.6626 126.692 51.8402C126.337 52.0178 125.917 52.1065 125.431 52.1065ZM128.836 52V46.5455H130.303V47.4972H130.36C130.459 47.1586 130.626 46.9029 130.86 46.7301C131.095 46.5549 131.365 46.4673 131.67 46.4673C131.746 46.4673 131.827 46.4721 131.915 46.4815C132.003 46.491 132.079 46.504 132.146 46.5206V47.8629C132.075 47.8416 131.977 47.8227 131.851 47.8061C131.726 47.7895 131.611 47.7812 131.507 47.7812C131.284 47.7812 131.085 47.8298 130.91 47.9268C130.737 48.0215 130.6 48.1541 130.498 48.3246C130.399 48.495 130.349 48.6915 130.349 48.9141V52H128.836ZM135.138 52.1065C134.587 52.1065 134.11 51.9893 133.707 51.755C133.307 51.5182 132.998 51.1892 132.781 50.7678C132.563 50.344 132.454 49.8527 132.454 49.294C132.454 48.7306 132.563 48.2382 132.781 47.8168C132.998 47.393 133.307 47.0639 133.707 46.8295C134.11 46.5928 134.587 46.4744 135.138 46.4744C135.69 46.4744 136.166 46.5928 136.566 46.8295C136.969 47.0639 137.279 47.393 137.496 47.8168C137.714 48.2382 137.823 48.7306 137.823 49.294C137.823 49.8527 137.714 50.344 137.496 50.7678C137.279 51.1892 136.969 51.5182 136.566 51.755C136.166 51.9893 135.69 52.1065 135.138 52.1065ZM135.146 50.9347C135.397 50.9347 135.606 50.8636 135.774 50.7216C135.942 50.5772 136.069 50.3807 136.154 50.1321C136.242 49.8835 136.286 49.6006 136.286 49.2834C136.286 48.9661 136.242 48.6832 136.154 48.4347C136.069 48.1861 135.942 47.9896 135.774 47.8452C135.606 47.7008 135.397 47.6286 135.146 47.6286C134.892 47.6286 134.679 47.7008 134.506 47.8452C134.336 47.9896 134.207 48.1861 134.119 48.4347C134.034 48.6832 133.991 48.9661 133.991 49.2834C133.991 49.6006 134.034 49.8835 134.119 50.1321C134.207 50.3807 134.336 50.5772 134.506 50.7216C134.679 50.8636 134.892 50.9347 135.146 50.9347ZM139.746 52L138.262 46.5455H139.792L140.637 50.2102H140.687L141.568 46.5455H143.07L143.965 50.1889H144.011L144.842 46.5455H146.369L144.888 52H143.287L142.349 48.5696H142.282L141.344 52H139.746ZM33.176 58.8189C33.1476 58.5324 33.0257 58.3099 32.8103 58.1513C32.5948 57.9927 32.3025 57.9134 31.9331 57.9134C31.6822 57.9134 31.4703 57.9489 31.2975 58.0199C31.1247 58.0885 30.9921 58.1844 30.8998 58.3075C30.8098 58.4306 30.7648 58.5703 30.7648 58.7266C30.7601 58.8568 30.7873 58.9704 30.8465 59.0675C30.9081 59.1645 30.9921 59.2486 31.0986 59.3196C31.2052 59.3883 31.3283 59.4486 31.468 59.5007C31.6076 59.5504 31.7568 59.593 31.9154 59.6286L32.5688 59.7848C32.886 59.8558 33.1772 59.9505 33.4424 60.0689C33.7075 60.1873 33.9372 60.3329 34.1313 60.5057C34.3254 60.6785 34.4758 60.8821 34.5823 61.1165C34.6912 61.3509 34.7468 61.6196 34.7492 61.9226C34.7468 62.3677 34.6332 62.7536 34.4083 63.0803C34.1858 63.4046 33.8638 63.6567 33.4424 63.8366C33.0233 64.0142 32.5179 64.103 31.926 64.103C31.3389 64.103 30.8276 64.013 30.392 63.8331C29.9587 63.6532 29.6202 63.3868 29.3763 63.0341C29.1349 62.679 29.0082 62.2398 28.9964 61.7166H30.4843C30.5009 61.9605 30.5707 62.1641 30.6938 62.3274C30.8193 62.4884 30.9862 62.6103 31.1945 62.6932C31.4052 62.7737 31.6431 62.8139 31.9083 62.8139C32.1687 62.8139 32.3948 62.776 32.5866 62.7003C32.7807 62.6245 32.931 62.5192 33.0376 62.3842C33.1441 62.2493 33.1974 62.0942 33.1974 61.919C33.1974 61.7557 33.1488 61.6184 33.0518 61.5071C32.9571 61.3958 32.8174 61.3011 32.6327 61.223C32.4504 61.1449 32.2267 61.0739 31.9616 61.0099L31.1697 60.8111C30.5565 60.6619 30.0724 60.4287 29.7172 60.1115C29.3621 59.7943 29.1858 59.367 29.1881 58.8295C29.1858 58.3892 29.3029 58.0045 29.5397 57.6754C29.7788 57.3464 30.1067 57.0895 30.5233 56.9048C30.94 56.7202 31.4135 56.6278 31.9438 56.6278C32.4836 56.6278 32.9547 56.7202 33.3572 56.9048C33.762 57.0895 34.0769 57.3464 34.3018 57.6754C34.5267 58.0045 34.6427 58.3857 34.6498 58.8189H33.176ZM38.2409 64.1065C37.6798 64.1065 37.1968 63.9929 36.792 63.7656C36.3895 63.536 36.0794 63.2116 35.8616 62.7926C35.6438 62.3712 35.5349 61.8729 35.5349 61.2976C35.5349 60.7365 35.6438 60.2441 35.8616 59.8203C36.0794 59.3965 36.386 59.0663 36.7813 58.8295C37.1791 58.5928 37.6454 58.4744 38.1805 58.4744C38.5403 58.4744 38.8753 58.5324 39.1855 58.6484C39.498 58.7621 39.7702 58.9337 40.0022 59.1634C40.2366 59.393 40.4189 59.6818 40.5491 60.0298C40.6793 60.3755 40.7444 60.7803 40.7444 61.2443V61.6598H36.1386V60.7223H39.3204C39.3204 60.5045 39.2731 60.3116 39.1784 60.1435C39.0837 59.9754 38.9523 59.844 38.7842 59.7493C38.6185 59.6522 38.4255 59.6037 38.2053 59.6037C37.9757 59.6037 37.7721 59.657 37.5945 59.7635C37.4194 59.8677 37.282 60.0085 37.1826 60.1861C37.0832 60.3613 37.0323 60.5566 37.0299 60.772V61.6634C37.0299 61.9332 37.0796 62.1664 37.1791 62.3629C37.2809 62.5594 37.4241 62.7109 37.6088 62.8175C37.7934 62.924 38.0124 62.9773 38.2657 62.9773C38.4338 62.9773 38.5877 62.9536 38.7274 62.9062C38.867 62.8589 38.9866 62.7879 39.086 62.6932C39.1855 62.5985 39.2612 62.4825 39.3133 62.3452L40.7124 62.4375C40.6414 62.7737 40.4958 63.0672 40.2757 63.3182C40.0579 63.5668 39.7761 63.7609 39.4305 63.9006C39.0872 64.0379 38.6907 64.1065 38.2409 64.1065ZM41.7316 64V58.5455H43.1982V59.4972H43.2551C43.3545 59.1586 43.5214 58.9029 43.7558 58.7301C43.9901 58.5549 44.26 58.4673 44.5654 58.4673C44.6412 58.4673 44.7229 58.4721 44.8105 58.4815C44.8981 58.491 44.975 58.504 45.0413 58.5206V59.8629C44.9703 59.8416 44.872 59.8227 44.7465 59.8061C44.6211 59.7895 44.5062 59.7812 44.4021 59.7812C44.1795 59.7812 43.9807 59.8298 43.8055 59.9268C43.6327 60.0215 43.4954 60.1541 43.3936 60.3246C43.2941 60.495 43.2444 60.6915 43.2444 60.9141V64H41.7316ZM51.0747 58.5455L49.1677 64H47.4632L45.5562 58.5455H47.1542L48.287 62.4482H48.3438L49.4731 58.5455H51.0747ZM51.8488 64V58.5455H53.3616V64H51.8488ZM52.6088 57.8423C52.3838 57.8423 52.1909 57.7678 52.0299 57.6186C51.8713 57.4671 51.792 57.286 51.792 57.0753C51.792 56.867 51.8713 56.6882 52.0299 56.5391C52.1909 56.3875 52.3838 56.3118 52.6088 56.3118C52.8337 56.3118 53.0254 56.3875 53.184 56.5391C53.345 56.6882 53.4255 56.867 53.4255 57.0753C53.4255 57.286 53.345 57.4671 53.184 57.6186C53.0254 57.7678 52.8337 57.8423 52.6088 57.8423ZM57.0379 64.1065C56.4792 64.1065 55.9986 63.9882 55.5961 63.7514C55.1961 63.5123 54.8883 63.1809 54.6729 62.7571C54.4598 62.3333 54.3532 61.8456 54.3532 61.294C54.3532 60.7353 54.461 60.2453 54.6764 59.8239C54.8942 59.4001 55.2032 59.0698 55.6032 58.8331C56.0033 58.594 56.4792 58.4744 57.0308 58.4744C57.5067 58.4744 57.9233 58.5608 58.2808 58.7337C58.6383 58.9065 58.9212 59.1491 59.1295 59.4616C59.3379 59.7741 59.4527 60.1411 59.474 60.5625H58.0464C58.0062 60.2902 57.8997 60.0713 57.7268 59.9055C57.5564 59.7375 57.3327 59.6534 57.0557 59.6534C56.8213 59.6534 56.6165 59.7173 56.4413 59.8452C56.2685 59.9706 56.1336 60.1541 56.0365 60.3956C55.9394 60.6371 55.8909 60.9295 55.8909 61.2727C55.8909 61.6207 55.9382 61.9167 56.0329 62.1605C56.13 62.4044 56.2661 62.5902 56.4413 62.718C56.6165 62.8459 56.8213 62.9098 57.0557 62.9098C57.2285 62.9098 57.3836 62.8743 57.5209 62.8033C57.6605 62.7322 57.7754 62.6293 57.8653 62.4943C57.9577 62.357 58.018 62.1925 58.0464 62.0007H59.474C59.4503 62.4174 59.3367 62.7843 59.1331 63.1016C58.9318 63.4164 58.6537 63.6626 58.2986 63.8402C57.9434 64.0178 57.5232 64.1065 57.0379 64.1065ZM62.9284 64.1065C62.3673 64.1065 61.8843 63.9929 61.4795 63.7656C61.077 63.536 60.7669 63.2116 60.5491 62.7926C60.3313 62.3712 60.2224 61.8729 60.2224 61.2976C60.2224 60.7365 60.3313 60.2441 60.5491 59.8203C60.7669 59.3965 61.0735 59.0663 61.4688 58.8295C61.8666 58.5928 62.3329 58.4744 62.868 58.4744C63.2278 58.4744 63.5628 58.5324 63.873 58.6484C64.1855 58.7621 64.4577 58.9337 64.6897 59.1634C64.9241 59.393 65.1064 59.6818 65.2366 60.0298C65.3668 60.3755 65.4319 60.7803 65.4319 61.2443V61.6598H60.8261V60.7223H64.0079C64.0079 60.5045 63.9606 60.3116 63.8659 60.1435C63.7712 59.9754 63.6398 59.844 63.4717 59.7493C63.306 59.6522 63.113 59.6037 62.8928 59.6037C62.6632 59.6037 62.4596 59.657 62.282 59.7635C62.1069 59.8677 61.9695 60.0085 61.8701 60.1861C61.7707 60.3613 61.7198 60.5566 61.7174 60.772V61.6634C61.7174 61.9332 61.7671 62.1664 61.8666 62.3629C61.9684 62.5594 62.1116 62.7109 62.2963 62.8175C62.4809 62.924 62.6999 62.9773 62.9532 62.9773C63.1213 62.9773 63.2752 62.9536 63.4149 62.9062C63.5545 62.8589 63.6741 62.7879 63.7735 62.6932C63.873 62.5985 63.9487 62.4825 64.0008 62.3452L65.3999 62.4375C65.3289 62.7737 65.1833 63.0672 64.9632 63.3182C64.7454 63.5668 64.4636 63.7609 64.118 63.9006C63.7747 64.0379 63.3782 64.1065 62.9284 64.1065ZM68.762 64V56.7273H70.2996V59.728H73.4211V56.7273H74.9552V64H73.4211V60.9957H70.2996V64H68.762ZM77.7499 64.103C77.4019 64.103 77.0918 64.0426 76.8195 63.9219C76.5473 63.7988 76.3318 63.6177 76.1732 63.3786C76.017 63.1371 75.9388 62.8364 75.9388 62.4766C75.9388 62.1735 75.9945 61.919 76.1057 61.7131C76.217 61.5071 76.3685 61.3414 76.5603 61.2159C76.752 61.0904 76.9698 60.9957 77.2137 60.9318C77.4599 60.8679 77.718 60.8229 77.9878 60.7969C78.3051 60.7637 78.5608 60.733 78.7549 60.7045C78.949 60.6738 79.0899 60.6288 79.1775 60.5696C79.2651 60.5104 79.3089 60.4228 79.3089 60.3068V60.2855C79.3089 60.0606 79.2378 59.8866 79.0958 59.7635C78.9561 59.6404 78.7573 59.5788 78.4992 59.5788C78.2269 59.5788 78.0103 59.6392 77.8493 59.7599C77.6884 59.8783 77.5818 60.0275 77.5297 60.2074L76.1306 60.0938C76.2016 59.7623 76.3413 59.4759 76.5496 59.2344C76.758 58.9905 77.0267 58.8035 77.3557 58.6733C77.6872 58.5407 78.0707 58.4744 78.5063 58.4744C78.8093 58.4744 79.0993 58.5099 79.3763 58.581C79.6557 58.652 79.9031 58.7621 80.1185 58.9112C80.3363 59.0604 80.508 59.2521 80.6334 59.4865C80.7589 59.7185 80.8216 59.9967 80.8216 60.321V64H79.387V63.2436H79.3444C79.2568 63.4141 79.1396 63.5644 78.9928 63.6946C78.846 63.8224 78.6697 63.9231 78.4637 63.9964C78.2577 64.0675 78.0198 64.103 77.7499 64.103ZM78.1831 63.0589C78.4057 63.0589 78.6022 63.0152 78.7726 62.9276C78.9431 62.8376 79.0769 62.7169 79.1739 62.5653C79.271 62.4138 79.3195 62.2422 79.3195 62.0504V61.4716C79.2722 61.5024 79.2071 61.5308 79.1242 61.5568C79.0437 61.5805 78.9526 61.603 78.8508 61.6243C78.749 61.6432 78.6472 61.661 78.5454 61.6776C78.4436 61.6918 78.3512 61.7048 78.2684 61.7166C78.0908 61.7427 77.9358 61.7841 77.8032 61.8409C77.6706 61.8977 77.5676 61.9747 77.4942 62.0717C77.4208 62.1664 77.3841 62.2848 77.3841 62.4268C77.3841 62.6328 77.4587 62.7902 77.6079 62.8991C77.7594 63.0057 77.9511 63.0589 78.1831 63.0589ZM86.5336 60.1009L85.1487 60.1861C85.125 60.0677 85.0741 59.9612 84.996 59.8665C84.9179 59.7694 84.8149 59.6925 84.6871 59.6357C84.5616 59.5765 84.4113 59.5469 84.2361 59.5469C84.0017 59.5469 83.804 59.5966 83.643 59.696C83.482 59.7931 83.4015 59.9233 83.4015 60.0866C83.4015 60.2169 83.4536 60.3269 83.5578 60.4169C83.662 60.5069 83.8407 60.5791 84.094 60.6335L85.0812 60.8324C85.6115 60.9413 86.0069 61.1165 86.2673 61.358C86.5277 61.5994 86.6579 61.9167 86.6579 62.3097C86.6579 62.6671 86.5526 62.9808 86.3419 63.2507C86.1336 63.5206 85.8471 63.7313 85.4825 63.8828C85.1203 64.032 84.7024 64.1065 84.229 64.1065C83.5069 64.1065 82.9316 63.9562 82.5031 63.6555C82.077 63.3525 81.8272 62.9406 81.7538 62.4197L83.2417 62.3416C83.2867 62.5618 83.3956 62.7299 83.5684 62.8459C83.7413 62.9595 83.9626 63.0163 84.2325 63.0163C84.4977 63.0163 84.7107 62.9654 84.8717 62.8636C85.0351 62.7595 85.1179 62.6257 85.1203 62.4624C85.1179 62.325 85.0599 62.2126 84.9463 62.125C84.8327 62.035 84.6575 61.9664 84.4207 61.919L83.4761 61.7308C82.9434 61.6243 82.5469 61.4396 82.2865 61.1768C82.0284 60.9141 81.8994 60.5791 81.8994 60.1719C81.8994 59.8215 81.9941 59.5196 82.1835 59.2663C82.3753 59.013 82.644 58.8177 82.9896 58.6804C83.3376 58.5431 83.7448 58.4744 84.2112 58.4744C84.9001 58.4744 85.4423 58.62 85.8376 58.9112C86.2354 59.2024 86.4674 59.599 86.5336 60.1009ZM89.5273 56.7273H91.2496L92.9079 59.8594H92.979L94.6373 56.7273H96.3596L93.7069 61.429V64H92.18V61.429L89.5273 56.7273ZM98.493 64.1065C97.9414 64.1065 97.4643 63.9893 97.0619 63.755C96.6618 63.5182 96.3528 63.1892 96.135 62.7678C95.9172 62.344 95.8083 61.8527 95.8083 61.294C95.8083 60.7306 95.9172 60.2382 96.135 59.8168C96.3528 59.393 96.6618 59.0639 97.0619 58.8295C97.4643 58.5928 97.9414 58.4744 98.493 58.4744C99.0446 58.4744 99.5204 58.5928 99.9205 58.8295C100.323 59.0639 100.633 59.393 100.851 59.8168C101.069 60.2382 101.178 60.7306 101.178 61.294C101.178 61.8527 101.069 62.344 100.851 62.7678C100.633 63.1892 100.323 63.5182 99.9205 63.755C99.5204 63.9893 99.0446 64.1065 98.493 64.1065ZM98.5001 62.9347C98.751 62.9347 98.9606 62.8636 99.1286 62.7216C99.2967 62.5772 99.4234 62.3807 99.5086 62.1321C99.5962 61.8835 99.64 61.6006 99.64 61.2834C99.64 60.9661 99.5962 60.6832 99.5086 60.4347C99.4234 60.1861 99.2967 59.9896 99.1286 59.8452C98.9606 59.7008 98.751 59.6286 98.5001 59.6286C98.2468 59.6286 98.0337 59.7008 97.8609 59.8452C97.6904 59.9896 97.5614 60.1861 97.4738 60.4347C97.3886 60.6832 97.346 60.9661 97.346 61.2834C97.346 61.6006 97.3886 61.8835 97.4738 62.1321C97.5614 62.3807 97.6904 62.5772 97.8609 62.7216C98.0337 62.8636 98.2468 62.9347 98.5001 62.9347ZM105.659 61.6776V58.5455H107.172V64H105.72V63.0092H105.663C105.54 63.3288 105.335 63.5857 105.048 63.7798C104.764 63.974 104.417 64.071 104.008 64.071C103.643 64.071 103.323 63.9882 103.046 63.8224C102.769 63.6567 102.552 63.4212 102.396 63.1158C102.242 62.8104 102.164 62.4446 102.161 62.0185V58.5455H103.674V61.7486C103.676 62.0705 103.763 62.325 103.933 62.5121C104.104 62.6991 104.332 62.7926 104.619 62.7926C104.801 62.7926 104.971 62.7512 105.13 62.6683C105.289 62.5831 105.417 62.4576 105.514 62.2919C105.613 62.1262 105.662 61.9214 105.659 61.6776ZM117.142 59.2734H115.586C115.558 59.0722 115.5 58.8935 115.412 58.7372C115.325 58.5786 115.212 58.4437 115.075 58.3324C114.938 58.2211 114.779 58.1359 114.599 58.0767C114.422 58.0175 114.229 57.9879 114.02 57.9879C113.644 57.9879 113.316 58.0814 113.037 58.2685C112.757 58.4531 112.541 58.723 112.387 59.0781C112.233 59.4309 112.156 59.8594 112.156 60.3636C112.156 60.8821 112.233 61.3177 112.387 61.6705C112.543 62.0232 112.761 62.2895 113.04 62.4695C113.32 62.6494 113.643 62.7393 114.01 62.7393C114.216 62.7393 114.406 62.7121 114.581 62.6577C114.759 62.6032 114.916 62.5239 115.054 62.4197C115.191 62.3132 115.305 62.1842 115.395 62.0327C115.487 61.8812 115.551 61.7083 115.586 61.5142L117.142 61.5213C117.102 61.8551 117.001 62.1771 116.84 62.4872C116.681 62.795 116.467 63.0708 116.197 63.3146C115.93 63.5561 115.61 63.7479 115.238 63.8899C114.869 64.0296 114.451 64.0994 113.985 64.0994C113.336 64.0994 112.756 63.9527 112.245 63.6591C111.736 63.3655 111.333 62.9406 111.037 62.3842C110.744 61.8279 110.597 61.1544 110.597 60.3636C110.597 59.5705 110.746 58.8958 111.044 58.3395C111.343 57.7831 111.748 57.3594 112.259 57.0682C112.77 56.7746 113.346 56.6278 113.985 56.6278C114.406 56.6278 114.797 56.687 115.157 56.8054C115.519 56.9238 115.84 57.0966 116.119 57.3239C116.398 57.5488 116.626 57.8246 116.801 58.1513C116.978 58.478 117.092 58.852 117.142 59.2734ZM120.68 64.1065C120.129 64.1065 119.652 63.9893 119.249 63.755C118.849 63.5182 118.54 63.1892 118.323 62.7678C118.105 62.344 117.996 61.8527 117.996 61.294C117.996 60.7306 118.105 60.2382 118.323 59.8168C118.54 59.393 118.849 59.0639 119.249 58.8295C119.652 58.5928 120.129 58.4744 120.68 58.4744C121.232 58.4744 121.708 58.5928 122.108 58.8295C122.511 59.0639 122.821 59.393 123.038 59.8168C123.256 60.2382 123.365 60.7306 123.365 61.294C123.365 61.8527 123.256 62.344 123.038 62.7678C122.821 63.1892 122.511 63.5182 122.108 63.755C121.708 63.9893 121.232 64.1065 120.68 64.1065ZM120.688 62.9347C120.939 62.9347 121.148 62.8636 121.316 62.7216C121.484 62.5772 121.611 62.3807 121.696 62.1321C121.784 61.8835 121.828 61.6006 121.828 61.2834C121.828 60.9661 121.784 60.6832 121.696 60.4347C121.611 60.1861 121.484 59.9896 121.316 59.8452C121.148 59.7008 120.939 59.6286 120.688 59.6286C120.434 59.6286 120.221 59.7008 120.048 59.8452C119.878 59.9896 119.749 60.1861 119.661 60.4347C119.576 60.6832 119.533 60.9661 119.533 61.2834C119.533 61.6006 119.576 61.8835 119.661 62.1321C119.749 62.3807 119.878 62.5772 120.048 62.7216C120.221 62.8636 120.434 62.9347 120.688 62.9347ZM129.258 58.5455L127.351 64H125.647L123.74 58.5455H125.338L126.471 62.4482H126.527L127.657 58.5455H129.258ZM132.342 64.1065C131.781 64.1065 131.298 63.9929 130.894 63.7656C130.491 63.536 130.181 63.2116 129.963 62.7926C129.745 62.3712 129.636 61.8729 129.636 61.2976C129.636 60.7365 129.745 60.2441 129.963 59.8203C130.181 59.3965 130.488 59.0663 130.883 58.8295C131.281 58.5928 131.747 58.4744 132.282 58.4744C132.642 58.4744 132.977 58.5324 133.287 58.6484C133.6 58.7621 133.872 58.9337 134.104 59.1634C134.338 59.393 134.52 59.6818 134.651 60.0298C134.781 60.3755 134.846 60.7803 134.846 61.2443V61.6598H130.24V60.7223H133.422C133.422 60.5045 133.375 60.3116 133.28 60.1435C133.185 59.9754 133.054 59.844 132.886 59.7493C132.72 59.6522 132.527 59.6037 132.307 59.6037C132.077 59.6037 131.874 59.657 131.696 59.7635C131.521 59.8677 131.384 60.0085 131.284 60.1861C131.185 60.3613 131.134 60.5566 131.131 60.772V61.6634C131.131 61.9332 131.181 62.1664 131.281 62.3629C131.382 62.5594 131.526 62.7109 131.71 62.8175C131.895 62.924 132.114 62.9773 132.367 62.9773C132.535 62.9773 132.689 62.9536 132.829 62.9062C132.969 62.8589 133.088 62.7879 133.188 62.6932C133.287 62.5985 133.363 62.4825 133.415 62.3452L134.814 62.4375C134.743 62.7737 134.597 63.0672 134.377 63.3182C134.159 63.5668 133.878 63.7609 133.532 63.9006C133.189 64.0379 132.792 64.1065 132.342 64.1065ZM135.833 64V58.5455H137.3V59.4972H137.357C137.456 59.1586 137.623 58.9029 137.857 58.7301C138.092 58.5549 138.362 58.4673 138.667 58.4673C138.743 58.4673 138.824 58.4721 138.912 58.4815C139 58.491 139.077 58.504 139.143 58.5206V59.8629C139.072 59.8416 138.974 59.8227 138.848 59.8061C138.723 59.7895 138.608 59.7812 138.504 59.7812C138.281 59.7812 138.082 59.8298 137.907 59.9268C137.734 60.0215 137.597 60.1541 137.495 60.3246C137.396 60.495 137.346 60.6915 137.346 60.9141V64H135.833ZM142.157 64.1065C141.596 64.1065 141.113 63.9929 140.708 63.7656C140.306 63.536 139.995 63.2116 139.778 62.7926C139.56 62.3712 139.451 61.8729 139.451 61.2976C139.451 60.7365 139.56 60.2441 139.778 59.8203C139.995 59.3965 140.302 59.0663 140.697 58.8295C141.095 58.5928 141.561 58.4744 142.097 58.4744C142.456 58.4744 142.791 58.5324 143.101 58.6484C143.414 58.7621 143.686 58.9337 143.918 59.1634C144.153 59.393 144.335 59.6818 144.465 60.0298C144.595 60.3755 144.66 60.7803 144.66 61.2443V61.6598H140.055V60.7223H143.236C143.236 60.5045 143.189 60.3116 143.094 60.1435C143 59.9754 142.868 59.844 142.7 59.7493C142.534 59.6522 142.342 59.6037 142.121 59.6037C141.892 59.6037 141.688 59.657 141.511 59.7635C141.335 59.8677 141.198 60.0085 141.099 60.1861C140.999 60.3613 140.948 60.5566 140.946 60.772V61.6634C140.946 61.9332 140.996 62.1664 141.095 62.3629C141.197 62.5594 141.34 62.7109 141.525 62.8175C141.709 62.924 141.928 62.9773 142.182 62.9773C142.35 62.9773 142.504 62.9536 142.643 62.9062C142.783 62.8589 142.903 62.7879 143.002 62.6932C143.101 62.5985 143.177 62.4825 143.229 62.3452L144.628 62.4375C144.557 62.7737 144.412 63.0672 144.192 63.3182C143.974 63.5668 143.692 63.7609 143.347 63.9006C143.003 64.0379 142.607 64.1065 142.157 64.1065ZM147.658 64.0888C147.243 64.0888 146.868 63.9822 146.532 63.7692C146.198 63.5537 145.933 63.2377 145.736 62.821C145.542 62.402 145.445 61.8883 145.445 61.2798C145.445 60.6548 145.546 60.1352 145.747 59.7209C145.948 59.3042 146.216 58.9929 146.55 58.7869C146.886 58.5786 147.254 58.4744 147.654 58.4744C147.959 58.4744 148.214 58.5265 148.418 58.6307C148.623 58.7325 148.789 58.8603 148.915 59.0142C149.043 59.1657 149.14 59.3149 149.206 59.4616H149.252V56.7273H150.761V64H149.27V63.1264H149.206C149.135 63.2779 149.034 63.4283 148.904 63.5774C148.776 63.7242 148.609 63.8461 148.403 63.9432C148.2 64.0402 147.951 64.0888 147.658 64.0888ZM148.137 62.8849C148.381 62.8849 148.587 62.8187 148.755 62.6861C148.925 62.5511 149.056 62.3629 149.146 62.1214C149.238 61.88 149.284 61.5971 149.284 61.2727C149.284 60.9484 149.239 60.6667 149.149 60.4276C149.059 60.1884 148.929 60.0038 148.758 59.8736C148.588 59.7434 148.381 59.6783 148.137 59.6783C147.888 59.6783 147.679 59.7457 147.508 59.8807C147.338 60.0156 147.209 60.2027 147.121 60.4418C147.034 60.6809 146.99 60.9579 146.99 61.2727C146.99 61.59 147.034 61.8705 147.121 62.1143C147.211 62.3558 147.34 62.5452 147.508 62.6825C147.679 62.8175 147.888 62.8849 148.137 62.8849ZM45.0555 70.5455V71.6818H41.689V70.5455H45.0555ZM42.4596 76V70.1513C42.4596 69.7559 42.5365 69.428 42.6904 69.1676C42.8467 68.9072 43.0597 68.7119 43.3296 68.5817C43.5995 68.4515 43.9061 68.3864 44.2494 68.3864C44.4814 68.3864 44.6933 68.4041 44.885 68.4396C45.0792 68.4751 45.2236 68.5071 45.3183 68.5355L45.0484 69.6719C44.9892 69.6529 44.9158 69.6352 44.8282 69.6186C44.743 69.602 44.6554 69.5938 44.5654 69.5938C44.3429 69.5938 44.1878 69.6458 44.1002 69.75C44.0126 69.8518 43.9688 69.995 43.9688 70.1797V76H42.4596ZM45.9797 76V70.5455H47.4463V71.4972H47.5031C47.6025 71.1586 47.7694 70.9029 48.0038 70.7301C48.2382 70.5549 48.5081 70.4673 48.8135 70.4673C48.8892 70.4673 48.9709 70.4721 49.0585 70.4815C49.1461 70.491 49.223 70.504 49.2893 70.5206V71.8629C49.2183 71.8416 49.1201 71.8227 48.9946 71.8061C48.8691 71.7895 48.7543 71.7812 48.6501 71.7812C48.4276 71.7812 48.2287 71.8298 48.0535 71.9268C47.8807 72.0215 47.7434 72.1541 47.6416 72.3246C47.5422 72.495 47.4925 72.6915 47.4925 72.9141V76H45.9797ZM52.282 76.1065C51.7304 76.1065 51.2534 75.9893 50.8509 75.755C50.4508 75.5182 50.1419 75.1892 49.9241 74.7678C49.7063 74.344 49.5974 73.8527 49.5974 73.294C49.5974 72.7306 49.7063 72.2382 49.9241 71.8168C50.1419 71.393 50.4508 71.0639 50.8509 70.8295C51.2534 70.5928 51.7304 70.4744 52.282 70.4744C52.8337 70.4744 53.3095 70.5928 53.7096 70.8295C54.1121 71.0639 54.4222 71.393 54.64 71.8168C54.8578 72.2382 54.9667 72.7306 54.9667 73.294C54.9667 73.8527 54.8578 74.344 54.64 74.7678C54.4222 75.1892 54.1121 75.5182 53.7096 75.755C53.3095 75.9893 52.8337 76.1065 52.282 76.1065ZM52.2892 74.9347C52.5401 74.9347 52.7496 74.8636 52.9177 74.7216C53.0858 74.5772 53.2124 74.3807 53.2977 74.1321C53.3853 73.8835 53.4291 73.6006 53.4291 73.2834C53.4291 72.9661 53.3853 72.6832 53.2977 72.4347C53.2124 72.1861 53.0858 71.9896 52.9177 71.8452C52.7496 71.7008 52.5401 71.6286 52.2892 71.6286C52.0358 71.6286 51.8228 71.7008 51.6499 71.8452C51.4795 71.9896 51.3505 72.1861 51.2629 72.4347C51.1776 72.6832 51.135 72.9661 51.135 73.2834C51.135 73.6006 51.1776 73.8835 51.2629 74.1321C51.3505 74.3807 51.4795 74.5772 51.6499 74.7216C51.8228 74.8636 52.0358 74.9347 52.2892 74.9347ZM55.9504 76V70.5455H57.3921V71.5078H57.4561C57.5697 71.1882 57.7591 70.9361 58.0242 70.7514C58.2894 70.5668 58.6066 70.4744 58.9759 70.4744C59.35 70.4744 59.6684 70.5679 59.9312 70.755C60.194 70.9396 60.3692 71.1906 60.4568 71.5078H60.5136C60.6249 71.1953 60.8261 70.9455 61.1173 70.7585C61.4108 70.5691 61.7577 70.4744 62.1578 70.4744C62.6668 70.4744 63.0799 70.6366 63.3971 70.9609C63.7167 71.2829 63.8765 71.7398 63.8765 72.3317V76H62.3673V72.63C62.3673 72.3269 62.2868 72.0997 62.1258 71.9482C61.9648 71.7966 61.7636 71.7209 61.5221 71.7209C61.2475 71.7209 61.0332 71.8085 60.8794 71.9837C60.7255 72.1565 60.6485 72.3849 60.6485 72.669V76H59.1819V72.598C59.1819 72.3305 59.105 72.1174 58.9511 71.9588C58.7996 71.8002 58.5995 71.7209 58.3509 71.7209C58.1829 71.7209 58.0313 71.7635 57.8964 71.8487C57.7638 71.9316 57.6585 72.0488 57.5803 72.2003C57.5022 72.3494 57.4632 72.5246 57.4632 72.7259V76H55.9504ZM71.3596 70.8189C71.3312 70.5324 71.2093 70.3099 70.9939 70.1513C70.7784 69.9927 70.4861 69.9134 70.1167 69.9134C69.8658 69.9134 69.6539 69.9489 69.4811 70.0199C69.3083 70.0885 69.1757 70.1844 69.0834 70.3075C68.9934 70.4306 68.9484 70.5703 68.9484 70.7266C68.9437 70.8568 68.9709 70.9704 69.0301 71.0675C69.0916 71.1645 69.1757 71.2486 69.2822 71.3196C69.3888 71.3883 69.5119 71.4486 69.6515 71.5007C69.7912 71.5504 69.9404 71.593 70.099 71.6286L70.7524 71.7848C71.0696 71.8558 71.3608 71.9505 71.626 72.0689C71.8911 72.1873 72.1208 72.3329 72.3149 72.5057C72.509 72.6785 72.6594 72.8821 72.7659 73.1165C72.8748 73.3509 72.9304 73.6196 72.9328 73.9226C72.9304 74.3677 72.8168 74.7536 72.5919 75.0803C72.3693 75.4046 72.0474 75.6567 71.626 75.8366C71.2069 76.0142 70.7015 76.103 70.1096 76.103C69.5225 76.103 69.0112 76.013 68.5756 75.8331C68.1423 75.6532 67.8038 75.3868 67.5599 75.0341C67.3184 74.679 67.1918 74.2398 67.18 73.7166H68.6679C68.6845 73.9605 68.7543 74.1641 68.8774 74.3274C69.0029 74.4884 69.1698 74.6103 69.3781 74.6932C69.5888 74.7737 69.8267 74.8139 70.0919 74.8139C70.3523 74.8139 70.5784 74.776 70.7702 74.7003C70.9643 74.6245 71.1146 74.5192 71.2211 74.3842C71.3277 74.2493 71.3809 74.0942 71.3809 73.919C71.3809 73.7557 71.3324 73.6184 71.2354 73.5071C71.1407 73.3958 71.001 73.3011 70.8163 73.223C70.634 73.1449 70.4103 73.0739 70.1452 73.0099L69.3532 72.8111C68.7401 72.6619 68.2559 72.4287 67.9008 72.1115C67.5457 71.7943 67.3693 71.367 67.3717 70.8295C67.3693 70.3892 67.4865 70.0045 67.7233 69.6754C67.9624 69.3464 68.2903 69.0895 68.7069 68.9048C69.1236 68.7202 69.5971 68.6278 70.1274 68.6278C70.6672 68.6278 71.1383 68.7202 71.5407 68.9048C71.9456 69.0895 72.2604 69.3464 72.4854 69.6754C72.7103 70.0045 72.8263 70.3857 72.8334 70.8189H71.3596ZM76.8399 70.5455V71.6818H73.5551V70.5455H76.8399ZM74.3009 69.2386H75.8137V74.3239C75.8137 74.4635 75.835 74.5724 75.8776 74.6506C75.9202 74.7263 75.9794 74.7796 76.0551 74.8104C76.1333 74.8411 76.2232 74.8565 76.325 74.8565C76.396 74.8565 76.4671 74.8506 76.5381 74.8388C76.6091 74.8246 76.6636 74.8139 76.7014 74.8068L76.9394 75.9325C76.8636 75.9562 76.7571 75.9834 76.6198 76.0142C76.4825 76.0473 76.3155 76.0675 76.1191 76.0746C75.7545 76.0888 75.4349 76.0402 75.1602 75.929C74.888 75.8177 74.6761 75.6449 74.5246 75.4105C74.3731 75.1761 74.2985 74.8802 74.3009 74.5227V69.2386ZM79.3808 76.103C79.0328 76.103 78.7226 76.0426 78.4504 75.9219C78.1781 75.7988 77.9627 75.6177 77.8041 75.3786C77.6478 75.1371 77.5697 74.8364 77.5697 74.4766C77.5697 74.1735 77.6253 73.919 77.7366 73.7131C77.8479 73.5071 77.9994 73.3414 78.1911 73.2159C78.3829 73.0904 78.6007 72.9957 78.8445 72.9318C79.0908 72.8679 79.3488 72.8229 79.6187 72.7969C79.9359 72.7637 80.1916 72.733 80.3857 72.7045C80.5799 72.6738 80.7207 72.6288 80.8083 72.5696C80.8959 72.5104 80.9397 72.4228 80.9397 72.3068V72.2855C80.9397 72.0606 80.8687 71.8866 80.7267 71.7635C80.587 71.6404 80.3881 71.5788 80.1301 71.5788C79.8578 71.5788 79.6412 71.6392 79.4802 71.7599C79.3192 71.8783 79.2127 72.0275 79.1606 72.2074L77.7615 72.0938C77.8325 71.7623 77.9722 71.4759 78.1805 71.2344C78.3888 70.9905 78.6575 70.8035 78.9866 70.6733C79.318 70.5407 79.7016 70.4744 80.1372 70.4744C80.4402 70.4744 80.7302 70.5099 81.0072 70.581C81.2865 70.652 81.5339 70.7621 81.7494 70.9112C81.9672 71.0604 82.1388 71.2521 82.2643 71.4865C82.3898 71.7185 82.4525 71.9967 82.4525 72.321V76H81.0178V75.2436H80.9752C80.8876 75.4141 80.7704 75.5644 80.6237 75.6946C80.4769 75.8224 80.3005 75.9231 80.0945 75.9964C79.8886 76.0675 79.6507 76.103 79.3808 76.103ZM79.814 75.0589C80.0365 75.0589 80.233 75.0152 80.4035 74.9276C80.574 74.8376 80.7077 74.7169 80.8048 74.5653C80.9018 74.4138 80.9504 74.2422 80.9504 74.0504V73.4716C80.903 73.5024 80.8379 73.5308 80.7551 73.5568C80.6746 73.5805 80.5834 73.603 80.4816 73.6243C80.3798 73.6432 80.278 73.661 80.1762 73.6776C80.0744 73.6918 79.9821 73.7048 79.8992 73.7166C79.7217 73.7427 79.5666 73.7841 79.434 73.8409C79.3015 73.8977 79.1985 73.9747 79.1251 74.0717C79.0517 74.1664 79.015 74.2848 79.015 74.4268C79.015 74.6328 79.0896 74.7902 79.2387 74.8991C79.3902 75.0057 79.582 75.0589 79.814 75.0589ZM83.6262 76V70.5455H85.0928V71.4972H85.1496C85.249 71.1586 85.4159 70.9029 85.6503 70.7301C85.8847 70.5549 86.1546 70.4673 86.46 70.4673C86.5357 70.4673 86.6174 70.4721 86.705 70.4815C86.7926 70.491 86.8695 70.504 86.9358 70.5206V71.8629C86.8648 71.8416 86.7665 71.8227 86.6411 71.8061C86.5156 71.7895 86.4008 71.7812 86.2966 71.7812C86.0741 71.7812 85.8752 71.8298 85.7 71.9268C85.5272 72.0215 85.3899 72.1541 85.2881 72.3246C85.1887 72.495 85.1389 72.6915 85.1389 72.9141V76H83.6262ZM90.8927 70.5455V71.6818H87.6079V70.5455H90.8927ZM88.3536 69.2386H89.8664V74.3239C89.8664 74.4635 89.8877 74.5724 89.9303 74.6506C89.9729 74.7263 90.0321 74.7796 90.1079 74.8104C90.186 74.8411 90.276 74.8565 90.3778 74.8565C90.4488 74.8565 90.5198 74.8506 90.5908 74.8388C90.6618 74.8246 90.7163 74.8139 90.7542 74.8068L90.9921 75.9325C90.9163 75.9562 90.8098 75.9834 90.6725 76.0142C90.5352 76.0473 90.3683 76.0675 90.1718 76.0746C89.8072 76.0888 89.4876 76.0402 89.213 75.929C88.9407 75.8177 88.7288 75.6449 88.5773 75.4105C88.4258 75.1761 88.3512 74.8802 88.3536 74.5227V69.2386ZM97.0938 70.5455V71.6818H93.809V70.5455H97.0938ZM94.5548 69.2386H96.0676V74.3239C96.0676 74.4635 96.0889 74.5724 96.1315 74.6506C96.1741 74.7263 96.2333 74.7796 96.309 74.8104C96.3872 74.8411 96.4771 74.8565 96.5789 74.8565C96.6499 74.8565 96.721 74.8506 96.792 74.8388C96.863 74.8246 96.9175 74.8139 96.9553 74.8068L97.1933 75.9325C97.1175 75.9562 97.011 75.9834 96.8737 76.0142C96.7364 76.0473 96.5695 76.0675 96.373 76.0746C96.0084 76.0888 95.6888 76.0402 95.4142 75.929C95.1419 75.8177 94.93 75.6449 94.7785 75.4105C94.627 75.1761 94.5524 74.8802 94.5548 74.5227V69.2386ZM100.485 76.1065C99.9336 76.1065 99.4565 75.9893 99.0541 75.755C98.654 75.5182 98.345 75.1892 98.1272 74.7678C97.9094 74.344 97.8005 73.8527 97.8005 73.294C97.8005 72.7306 97.9094 72.2382 98.1272 71.8168C98.345 71.393 98.654 71.0639 99.0541 70.8295C99.4565 70.5928 99.9336 70.4744 100.485 70.4744C101.037 70.4744 101.513 70.5928 101.913 70.8295C102.315 71.0639 102.625 71.393 102.843 71.8168C103.061 72.2382 103.17 72.7306 103.17 73.294C103.17 73.8527 103.061 74.344 102.843 74.7678C102.625 75.1892 102.315 75.5182 101.913 75.755C101.513 75.9893 101.037 76.1065 100.485 76.1065ZM100.492 74.9347C100.743 74.9347 100.953 74.8636 101.121 74.7216C101.289 74.5772 101.416 74.3807 101.501 74.1321C101.588 73.8835 101.632 73.6006 101.632 73.2834C101.632 72.9661 101.588 72.6832 101.501 72.4347C101.416 72.1861 101.289 71.9896 101.121 71.8452C100.953 71.7008 100.743 71.6286 100.492 71.6286C100.239 71.6286 100.026 71.7008 99.8531 71.8452C99.6826 71.9896 99.5536 72.1861 99.466 72.4347C99.3808 72.6832 99.3382 72.9661 99.3382 73.2834C99.3382 73.6006 99.3808 73.8835 99.466 74.1321C99.5536 74.3807 99.6826 74.5772 99.8531 74.7216C100.026 74.8636 100.239 74.9347 100.492 74.9347ZM106.496 76V68.7273H111.312V69.995H108.034V71.728H110.992V72.9957H108.034V76H106.496ZM112.318 76V70.5455H113.83V76H112.318ZM113.078 69.8423C112.853 69.8423 112.66 69.7678 112.499 69.6186C112.34 69.4671 112.261 69.286 112.261 69.0753C112.261 68.867 112.34 68.6882 112.499 68.5391C112.66 68.3875 112.853 68.3118 113.078 68.3118C113.302 68.3118 113.494 68.3875 113.653 68.5391C113.814 68.6882 113.894 68.867 113.894 69.0753C113.894 69.286 113.814 69.4671 113.653 69.6186C113.494 69.7678 113.302 69.8423 113.078 69.8423ZM116.555 72.8466V76H115.042V70.5455H116.484V71.5078H116.548C116.669 71.1906 116.871 70.9396 117.155 70.755C117.439 70.5679 117.784 70.4744 118.188 70.4744C118.567 70.4744 118.898 70.5573 119.179 70.723C119.461 70.8887 119.68 71.1255 119.836 71.4332C119.992 71.7386 120.071 72.1032 120.071 72.527V76H118.558V72.7969C118.56 72.4631 118.475 72.2027 118.302 72.0156C118.129 71.8262 117.891 71.7315 117.588 71.7315C117.385 71.7315 117.205 71.7753 117.049 71.8629C116.895 71.9505 116.774 72.0784 116.686 72.2464C116.601 72.4122 116.557 72.6122 116.555 72.8466ZM121.263 76V70.5455H122.776V76H121.263ZM122.023 69.8423C121.798 69.8423 121.605 69.7678 121.444 69.6186C121.285 69.4671 121.206 69.286 121.206 69.0753C121.206 68.867 121.285 68.6882 121.444 68.5391C121.605 68.3875 121.798 68.3118 122.023 68.3118C122.248 68.3118 122.439 68.3875 122.598 68.5391C122.759 68.6882 122.84 68.867 122.84 69.0753C122.84 69.286 122.759 69.4671 122.598 69.6186C122.439 69.7678 122.248 69.8423 122.023 69.8423ZM128.526 72.1009L127.141 72.1861C127.117 72.0677 127.066 71.9612 126.988 71.8665C126.91 71.7694 126.807 71.6925 126.679 71.6357C126.554 71.5765 126.403 71.5469 126.228 71.5469C125.994 71.5469 125.796 71.5966 125.635 71.696C125.474 71.7931 125.394 71.9233 125.394 72.0866C125.394 72.2169 125.446 72.3269 125.55 72.4169C125.654 72.5069 125.833 72.5791 126.086 72.6335L127.073 72.8324C127.604 72.9413 127.999 73.1165 128.259 73.358C128.52 73.5994 128.65 73.9167 128.65 74.3097C128.65 74.6671 128.545 74.9808 128.334 75.2507C128.126 75.5206 127.839 75.7313 127.475 75.8828C127.112 76.032 126.695 76.1065 126.221 76.1065C125.499 76.1065 124.924 75.9562 124.495 75.6555C124.069 75.3525 123.819 74.9406 123.746 74.4197L125.234 74.3416C125.279 74.5618 125.388 74.7299 125.561 74.8459C125.733 74.9595 125.955 75.0163 126.225 75.0163C126.49 75.0163 126.703 74.9654 126.864 74.8636C127.027 74.7595 127.11 74.6257 127.112 74.4624C127.11 74.325 127.052 74.2126 126.938 74.125C126.825 74.035 126.65 73.9664 126.413 73.919L125.468 73.7308C124.936 73.6243 124.539 73.4396 124.279 73.1768C124.021 72.9141 123.892 72.5791 123.892 72.1719C123.892 71.8215 123.986 71.5196 124.176 71.2663C124.367 71.013 124.636 70.8177 124.982 70.6804C125.33 70.5431 125.737 70.4744 126.203 70.4744C126.892 70.4744 127.434 70.62 127.83 70.9112C128.228 71.2024 128.46 71.599 128.526 72.1009ZM131.116 72.8466V76H129.603V68.7273H131.073V71.5078H131.137C131.26 71.1858 131.459 70.9337 131.733 70.7514C132.008 70.5668 132.352 70.4744 132.767 70.4744C133.146 70.4744 133.476 70.5573 133.758 70.723C134.042 70.8864 134.262 71.1219 134.418 71.4297C134.577 71.7351 134.655 72.1009 134.652 72.527V76H133.14V72.7969C133.142 72.4607 133.057 72.1991 132.884 72.0121C132.714 71.825 132.474 71.7315 132.167 71.7315C131.961 71.7315 131.778 71.7753 131.62 71.8629C131.464 71.9505 131.34 72.0784 131.25 72.2464C131.163 72.4122 131.118 72.6122 131.116 72.8466ZM137.65 68.7273L137.512 73.8196H136.212L136.07 68.7273H137.65ZM136.862 76.0923C136.628 76.0923 136.427 76.0095 136.258 75.8438C136.09 75.6757 136.007 75.4744 136.01 75.2401C136.007 75.008 136.09 74.8092 136.258 74.6435C136.427 74.4777 136.628 74.3949 136.862 74.3949C137.087 74.3949 137.285 74.4777 137.455 74.6435C137.626 74.8092 137.712 75.008 137.714 75.2401C137.712 75.3963 137.671 75.5395 137.59 75.6697C137.512 75.7976 137.409 75.9006 137.281 75.9787C137.153 76.0545 137.014 76.0923 136.862 76.0923Z" fill="black"/>
</svg>
