<svg width="71" height="71" viewBox="0 0 71 71" fill="none" xmlns="http://www.w3.org/2000/svg">
<circle cx="35.5" cy="35.5" r="35" fill="#004225" fill-opacity="0.2" stroke="#004225"/>
<path d="M49.5343 22.8545L35.9343 18.057C35.7188 17.981 35.4837 17.981 35.2682 18.057L21.6682 22.8545C21.2678 22.9958 21 23.3742 21 23.7988V30.8522C21 35.4002 22.345 39.7965 24.8896 43.566C27.433 47.3336 31.0054 50.2239 35.2208 51.9248C35.3425 51.9748 35.4719 52 35.6015 52C35.7284 52 35.8557 51.9759 35.9759 51.9274C40.1939 50.2268 43.7683 47.3355 46.313 43.566C48.8575 39.7965 50.2025 35.4003 50.2025 30.8524V23.7988C50.2024 23.3742 49.9346 22.9958 49.5343 22.8545ZM35.6015 49.9149C27.9342 46.6524 23.0025 39.214 23.0025 30.8522V24.5074L35.6012 20.0631L48.1998 24.5074V30.8525H48.1998C48.1998 39.2141 43.2686 46.6523 35.6015 49.9149Z" fill="#004225"/>
<path d="M35.5952 24.0518C30.2398 24.0518 25.8828 28.4087 25.8828 33.7641C25.8828 39.1196 30.2398 43.4765 35.5952 43.4765C40.9506 43.4765 45.3075 39.1195 45.3075 33.7641C45.3075 28.4087 40.9506 24.0518 35.5952 24.0518ZM35.5952 41.4739C31.3441 41.4739 27.8854 38.0153 27.8854 33.7641C27.8854 29.5129 31.344 26.0544 35.5952 26.0544C39.8464 26.0544 43.3049 29.5129 43.3049 33.7641C43.3049 38.0154 39.8463 41.4739 35.5952 41.4739Z" fill="#004225"/>
<path d="M35.603 32.7625C35.2418 32.7625 34.9479 32.4686 34.9479 32.1075C34.9479 31.7463 35.2418 31.4524 35.603 31.4524H37.2593C37.8123 31.4524 38.2607 31.0041 38.2607 30.4511C38.2607 29.8981 37.8124 29.4498 37.2593 29.4498H36.6043V29.0258C36.6043 28.4728 36.156 28.0244 35.603 28.0244C35.05 28.0244 34.6017 28.4727 34.6017 29.0258V29.6463C33.6312 30.0425 32.9453 30.9962 32.9453 32.1075C32.9453 33.5729 34.1375 34.7651 35.603 34.7651C35.9641 34.7651 36.258 35.059 36.258 35.4201C36.258 35.7814 35.9641 36.0752 35.603 36.0752H33.9466C33.3936 36.0752 32.9453 36.5235 32.9453 37.0766C32.9453 37.6295 33.3936 38.0778 33.9466 38.0778H34.6016V38.5018C34.6016 39.0547 35.0499 39.5031 35.6029 39.5031C36.1559 39.5031 36.6042 39.0548 36.6042 38.5018V37.8813C37.5747 37.4851 38.2606 36.5314 38.2606 35.4201C38.2606 33.9548 37.0684 32.7625 35.603 32.7625Z" fill="#004225"/>
</svg>
