<svg width="78" height="77" viewBox="0 0 78 77" fill="none" xmlns="http://www.w3.org/2000/svg">
<circle cx="39.0001" cy="38.4" r="37.9" fill="white" stroke="#1F1F1F"/>
<rect width="42.4421" height="42.4421" transform="translate(17.7788 17.1797)" fill="white"/>
<path d="M41.5984 32.2651C41.0804 31.7472 41.0804 30.9074 41.5984 30.3894C42.1164 29.8715 42.9561 29.8715 43.4741 30.3894L50.5478 37.4631C51.0657 37.9811 51.0657 38.8209 50.5478 39.3388L43.4741 46.4125C42.9561 46.9305 42.1164 46.9305 41.5984 46.4125C41.0804 45.8945 41.0804 45.0548 41.5984 44.5368L46.4079 39.7273H29.2731C28.5406 39.7273 27.9468 39.1335 27.9468 38.401C27.9468 37.6685 28.5406 37.0746 29.2731 37.0746H46.4079L41.5984 32.2651Z" fill="#1F1F1F"/>
</svg>
