<svg width="99" height="99" viewBox="0 0 99 99" fill="none" xmlns="http://www.w3.org/2000/svg">
<circle cx="49.0141" cy="49.0141" r="48.5141" fill="white" fill-opacity="0.58" stroke="url(#paint0_linear_484_2060)"/>
<path d="M51.4048 44.2323H46.623V39.4504H44.2321V44.2323H39.4502V46.6232H44.2321V51.4051H46.623V46.6232H51.4048V44.2323Z" fill="black"/>
<path d="M55.5268 53.796C57.499 51.4538 58.5797 48.4897 58.5776 45.4277C58.5776 42.8269 57.8063 40.2844 56.3614 38.1219C54.9164 35.9594 52.8627 34.2739 50.4598 33.2786C48.0569 32.2833 45.4129 32.0229 42.862 32.5303C40.3111 33.0377 37.968 34.2901 36.1289 36.1292C34.2899 37.9683 33.0374 40.3114 32.53 42.8623C32.0226 45.4131 32.283 48.0572 33.2783 50.46C34.2736 52.8629 35.9591 54.9167 38.1217 56.3616C40.2842 57.8066 42.8266 58.5778 45.4275 58.5778C48.4894 58.5799 51.4535 57.4993 53.7957 55.527L62.8645 64.5552L64.5549 62.8648L55.5268 53.796ZM45.4275 56.1869C43.2995 56.1869 41.2193 55.5559 39.45 54.3736C37.6806 53.1914 36.3016 51.5111 35.4873 49.5451C34.6729 47.5791 34.4599 45.4158 34.875 43.3287C35.2902 41.2416 36.3149 39.3245 37.8196 37.8198C39.3243 36.3151 41.2414 35.2904 43.3285 34.8753C45.4155 34.4601 47.5788 34.6732 49.5448 35.4875C51.5108 36.3019 53.1912 37.6809 54.3734 39.4502C55.5556 41.2196 56.1867 43.2997 56.1867 45.4277C56.1835 48.2803 55.0489 51.0151 53.0319 53.0321C51.0148 55.0492 48.28 56.1837 45.4275 56.1869Z" fill="black"/>
<defs>
<linearGradient id="paint0_linear_484_2060" x1="49.0141" y1="0" x2="49.0141" y2="98.0281" gradientUnits="userSpaceOnUse">
<stop stop-color="white"/>
<stop offset="1" stop-color="#C7C7C7"/>
</linearGradient>
</defs>
</svg>
