<svg width="31" height="31" viewBox="0 0 31 31" fill="none" xmlns="http://www.w3.org/2000/svg">
<path d="M15.2788 19.0991C17.3884 19.0991 19.0986 17.3889 19.0986 15.2793C19.0986 13.1697 17.3884 11.4595 15.2788 11.4595C13.1692 11.4595 11.459 13.1697 11.459 15.2793C11.459 17.3889 13.1692 19.0991 15.2788 19.0991Z" stroke="#292D32" stroke-width="1.34647" stroke-miterlimit="10" stroke-linecap="round" stroke-linejoin="round"/>
<path d="M2.5459 16.3998V14.1588C2.5459 12.8346 3.62818 11.7396 4.96512 11.7396C7.26975 11.7396 8.21197 10.1098 7.05329 8.11076C6.39119 6.96482 6.7859 5.47509 7.94458 4.81298L10.1473 3.55244C11.1532 2.954 12.452 3.31052 13.0504 4.31641L13.1905 4.55833C14.3364 6.55737 16.2209 6.55737 17.3795 4.55833L17.5196 4.31641C18.118 3.31052 19.4168 2.954 20.4227 3.55244L22.6254 4.81298C23.7841 5.47509 24.1788 6.96482 23.5167 8.11076C22.3581 10.1098 23.3003 11.7396 25.6049 11.7396C26.9291 11.7396 28.0241 12.8219 28.0241 14.1588V16.3998C28.0241 17.724 26.9418 18.819 25.6049 18.819C23.3003 18.819 22.3581 20.4488 23.5167 22.4478C24.1788 23.6065 23.7841 25.0835 22.6254 25.7456L20.4227 27.0062C19.4168 27.6046 18.118 27.2481 17.5196 26.2422L17.3795 26.0003C16.2336 24.0012 14.3492 24.0012 13.1905 26.0003L13.0504 26.2422C12.452 27.2481 11.1532 27.6046 10.1473 27.0062L7.94458 25.7456C6.7859 25.0835 6.39119 23.5938 7.05329 22.4478C8.21197 20.4488 7.26975 18.819 4.96512 18.819C3.62818 18.819 2.5459 17.724 2.5459 16.3998Z" stroke="#292D32" stroke-width="1.34647" stroke-miterlimit="10" stroke-linecap="round" stroke-linejoin="round"/>
</svg>
