<svg width="71" height="71" viewBox="0 0 71 71" fill="none" xmlns="http://www.w3.org/2000/svg">
<circle cx="35.5" cy="35.5" r="35" fill="#004225" fill-opacity="0.2" stroke="#004225"/>
<path d="M19.9961 27.9609H20.9922V28.957C20.9922 29.5071 21.4382 29.9531 21.9883 29.9531C22.5384 29.9531 22.9844 29.5071 22.9844 28.957V27.9609H29.0273V28.957C29.0273 29.5071 29.4733 29.9531 30.0234 29.9531C30.5735 29.9531 31.0195 29.5071 31.0195 28.957V27.9609H32.0156C32.5657 27.9609 33.0117 27.515 33.0117 26.9648V22.9805C33.0117 22.4304 32.5657 21.9844 32.0156 21.9844H31.0195V18.9961C31.0195 18.446 30.5735 18 30.0234 18H21.9883C21.4382 18 20.9922 18.446 20.9922 18.9961V21.9844H19.9961C19.446 21.9844 19 22.4304 19 22.9805V26.9648C19 27.515 19.446 27.9609 19.9961 27.9609ZM22.9844 19.9922H29.0273V21.9844H22.9844V19.9922ZM20.9922 23.9766H31.0195V25.9688H20.9922V23.9766Z" fill="#3B634C"/>
<path d="M46.0273 34.0039C44.3796 34.0039 43.0391 35.3444 43.0391 36.9922C43.0391 38.6399 44.3796 39.9805 46.0273 39.9805C47.6751 39.9805 49.0156 38.6399 49.0156 36.9922C49.0156 35.3444 47.6751 34.0039 46.0273 34.0039ZM46.0273 37.9883C45.4781 37.9883 45.0312 37.5414 45.0312 36.9922C45.0312 36.4429 45.4781 35.9961 46.0273 35.9961C46.5766 35.9961 47.0234 36.4429 47.0234 36.9922C47.0234 37.5414 46.5766 37.9883 46.0273 37.9883Z" fill="#3B634C"/>
<path d="M46.0273 30.0195C42.1826 30.0195 39.0547 33.1475 39.0547 36.9922C39.0547 38.5098 39.5356 39.9534 40.4425 41.1632L44.4048 46.5043C43.8568 46.8601 43.4322 47.3901 43.2104 48.0156H23.9805C22.3606 48.0156 20.9922 46.6168 20.9922 44.9609C20.9922 43.3132 22.3327 41.9727 23.9805 41.9727H32.0156C34.7688 41.9727 37.0625 39.7457 37.0625 36.9922C37.0625 34.2499 34.7796 31.9453 32.0156 31.9453H28.856C28.4448 30.786 27.3376 29.9531 26.0391 29.9531C24.3913 29.9531 23.0508 31.2937 23.0508 32.9414C23.0508 34.5891 24.3913 35.9297 26.0391 35.9297C27.3376 35.9297 28.4448 35.0968 28.856 33.9375H32.0156C33.6715 33.9375 35.0703 35.3363 35.0703 36.9922C35.0703 38.612 33.6715 39.9805 32.0156 39.9805H23.9805C21.2342 39.9805 19 42.2147 19 44.9609C19 46.2911 19.5152 47.5507 20.4508 48.5078C21.3963 49.4751 22.6498 50.0078 23.9805 50.0078H43.2104C43.6216 51.1671 44.7288 52 46.0273 52C47.6751 52 49.0156 50.6595 49.0156 49.0117C49.0156 47.9618 48.471 47.0375 47.6498 46.5043L51.6092 41.1672C52.5191 39.9534 53 38.5098 53 36.9922C53 33.1475 49.8721 30.0195 46.0273 30.0195ZM26.0391 33.9375C25.4898 33.9375 25.043 33.4907 25.043 32.9414C25.043 32.3922 25.4898 31.9453 26.0391 31.9453C26.5883 31.9453 27.0352 32.3922 27.0352 32.9414C27.0352 33.4907 26.5883 33.9375 26.0391 33.9375ZM46.0273 50.0078C45.4781 50.0078 45.0312 49.561 45.0312 49.0117C45.0312 48.4625 45.4781 48.0156 46.0273 48.0156C46.5766 48.0156 47.0234 48.4625 47.0234 49.0117C47.0234 49.561 46.5766 50.0078 46.0273 50.0078ZM50.0122 39.9763L46.0273 45.3477L42.0395 39.9723C41.3901 39.106 41.0469 38.0755 41.0469 36.9922C41.0469 34.246 43.2811 32.0117 46.0273 32.0117C48.7736 32.0117 51.0078 34.246 51.0078 36.9922C51.0078 38.0755 50.6646 39.106 50.0122 39.9763Z" fill="#3B634C"/>
</svg>
