<svg width="27" height="21" viewBox="0 0 27 21" fill="none" xmlns="http://www.w3.org/2000/svg">
<path d="M26.1939 14.7037H24.3222V6.81627C24.3222 3.0565 21.2657 0 17.5059 0H4.14386C1.86095 0 0 1.86095 0 4.14386V12.1611C0 14.4007 1.78521 16.2346 4.00862 16.3049C4.07894 18.5284 5.91284 20.3136 8.15247 20.3136C10.3921 20.3136 12.2206 18.5284 12.2963 16.3049H26.1939C26.6375 16.3049 27 15.9425 27 15.4989C27 15.0607 26.6375 14.7037 26.1939 14.7037ZM8.15247 18.7123C6.75135 18.7123 5.61531 17.5762 5.61531 16.1751C5.61531 14.774 6.75135 13.6379 8.15247 13.6379C9.5536 13.6379 10.6896 14.774 10.6896 16.1751C10.6896 17.5762 9.5536 18.7123 8.15247 18.7123ZM18.7069 8.01723H17.5059C17.0623 8.01723 16.6999 8.37968 16.6999 8.82328C16.6999 9.26688 17.0623 9.62933 17.5059 9.62933H18.7069V14.7037H14.9687V5.61531H18.7069V8.01723ZM22.7155 14.7037H20.3136V5.48006C20.3136 4.6686 19.6536 4.00862 18.8421 4.00862H14.8335C14.022 4.00862 13.3621 4.6686 13.3621 5.48006V14.6983H12.0042C11.3929 13.097 9.85654 12.0258 8.14707 12.0258C6.443 12.0258 4.90122 13.097 4.29533 14.7037H4.14386C2.74274 14.7037 1.60669 13.5676 1.60669 12.1665V4.14386C1.60669 2.74274 2.74274 1.60669 4.14386 1.60669H17.5059C20.3731 1.6121 22.7101 3.94911 22.7155 6.81627V14.7037ZM10.1541 4.00862H4.80926C3.9978 4.00862 3.33781 4.6686 3.33781 5.48006V8.15247C3.33781 8.96393 3.9978 9.62392 4.80926 9.62392H10.1541C10.9655 9.62392 11.6255 8.96393 11.6255 8.15247V5.48006C11.6255 4.6686 10.9655 4.00862 10.1541 4.00862ZM10.0188 5.61531V8.01723H4.9445V5.61531H10.0188Z" fill="#222222"/>
</svg>
