<svg width="19" height="20" viewBox="0 0 19 20" fill="none" xmlns="http://www.w3.org/2000/svg">
<path d="M17.296 0.918322H15.1116C14.6857 0.930046 14.3066 1.13325 14.0604 1.44587C13.8455 1.43415 13.3297 1.43024 12.7709 1.60999C12.5677 1.1567 12.1534 0.773735 11.5516 0.484562C10.9186 0.175849 10.1058 0 9.32031 0C8.48015 0 7.67124 0.187572 7.03818 0.527547C6.51454 0.808905 6.13158 1.18796 5.93229 1.6139C5.36566 1.43024 4.84593 1.43024 4.6271 1.44196C4.36528 1.11371 3.95497 0.906599 3.50167 0.914415H1.3524C0.981164 0.92223 0.637281 1.07854 0.383277 1.34818C0.129273 1.61781 -0.00749812 1.96951 0.000317387 2.34074C0.0081329 2.71198 0.164443 3.05586 0.434078 3.30987C0.695898 3.55606 1.03196 3.69283 1.39148 3.69283H3.57982C4.24023 3.6772 4.78341 3.19654 4.90455 2.5713C5.09603 2.57912 5.36957 2.61429 5.64312 2.71198C5.19372 4.71666 4.0722 9.88271 4.0722 10.8557C4.0722 11.4146 4.39654 12.0515 4.9827 12.6455C5.4829 13.1496 6.14331 13.5951 6.86624 13.9194V17.0144C6.86624 18.3782 7.97604 19.488 9.33985 19.488C10.7037 19.488 11.8135 18.3782 11.8135 17.0183V13.9116C12.5286 13.5912 13.2007 13.1418 13.7087 12.6377C14.3105 12.0437 14.631 11.4263 14.631 10.8557C14.631 10.0234 13.8689 6.44389 13.1265 3.04805C13.0991 2.93082 13.0757 2.8214 13.0522 2.7198C13.3258 2.6221 13.5993 2.58693 13.7908 2.57912C13.9158 3.21608 14.4864 3.69283 15.1585 3.69283H17.3429C18.1049 3.67329 18.7106 3.03242 18.695 2.2665C18.6716 1.51621 18.0502 0.918322 17.296 0.918322ZM3.67361 2.47752C3.62671 2.52832 3.56419 2.55567 3.50167 2.55958H1.42665C1.28988 2.54786 1.18437 2.44625 1.18046 2.31339C1.17655 2.24696 1.20391 2.18053 1.2508 2.13363C1.29769 2.08283 1.36022 2.05548 1.42274 2.05157H3.49776C3.63844 2.06329 3.74004 2.1649 3.74395 2.29776C3.74785 2.36028 3.7205 2.42281 3.67361 2.47752ZM10.6763 17.0183C10.6763 17.7568 10.0784 18.3547 9.33985 18.3547C8.60128 18.3547 8.0034 17.7568 8.0034 17.0183V10.8987C8.0034 10.1602 8.60128 9.56228 9.33985 9.56228C9.69936 9.56228 10.0393 9.70295 10.2894 9.95305C10.5395 10.2071 10.6763 10.5431 10.6763 10.9026V17.0183ZM13.5016 10.8596C13.5016 11.2543 12.9194 12.0398 11.8135 12.6494V10.9026C11.8135 9.53883 10.7037 8.42903 9.33985 8.42903C7.97604 8.42903 6.86624 9.53883 6.86624 10.9026V12.6533C5.79161 12.0515 5.20935 11.2621 5.20935 10.8518C5.20935 9.93351 6.6435 3.34113 6.92095 2.21179C7.06554 1.61781 8.14408 1.13325 9.32422 1.13325C10.6138 1.13325 11.6845 1.68815 11.7822 2.18443C11.7978 2.27041 11.8291 2.4189 11.8799 2.64946C11.919 2.82531 11.9659 3.04023 12.0206 3.29815L12.0557 3.46227C12.4895 5.43959 13.5016 10.082 13.5016 10.8596ZM17.4445 2.47752C17.3976 2.52832 17.3351 2.55567 17.2726 2.55958H15.1546C15.0882 2.55567 15.0256 2.52832 14.9826 2.47752C14.9358 2.42672 14.9123 2.36419 14.9123 2.29385C14.9123 2.22742 14.9436 2.1649 14.9944 2.118C15.0452 2.07111 15.1116 2.04766 15.178 2.04766H17.2726C17.4094 2.05939 17.5149 2.16099 17.5188 2.29385C17.5188 2.36028 17.4914 2.42281 17.4445 2.47752ZM9.33594 2.77451C8.01512 2.77451 6.9444 3.84914 6.9444 5.16605C6.9444 6.48296 8.01903 7.5576 9.33594 7.5576C9.97681 7.5576 10.5786 7.3075 11.0319 6.8542C11.4813 6.4009 11.7314 5.80302 11.7275 5.16605C11.7275 3.84523 10.6529 2.77451 9.33594 2.77451ZM9.33594 6.41653C8.64036 6.41653 8.07765 5.85382 8.07765 5.15824C8.07765 4.46266 8.64427 3.89994 9.33594 3.89994C9.67592 3.89994 9.99245 4.0328 10.2308 4.27118C10.4653 4.50564 10.5942 4.82217 10.5942 5.15824C10.5942 5.84991 10.0276 6.41653 9.33594 6.41653Z" fill="#222222"/>
</svg>
