<svg width="18" height="21" viewBox="0 0 18 21" fill="none" xmlns="http://www.w3.org/2000/svg">
<path d="M13.125 5.8125V4.6875C13.125 4.58437 13.0406 4.5 12.9375 4.5H3.9375C3.83437 4.5 3.75 4.58437 3.75 4.6875V5.8125C3.75 5.91563 3.83437 6 3.9375 6H12.9375C13.0406 6 13.125 5.91563 13.125 5.8125ZM3.9375 7.875C3.83437 7.875 3.75 7.95937 3.75 8.0625V9.1875C3.75 9.29062 3.83437 9.375 3.9375 9.375H8.25C8.35312 9.375 8.4375 9.29062 8.4375 9.1875V8.0625C8.4375 7.95937 8.35312 7.875 8.25 7.875H3.9375ZM12.75 10.5938C9.95391 10.5938 7.6875 12.8602 7.6875 15.6562C7.6875 18.4523 9.95391 20.7188 12.75 20.7188C15.5461 20.7188 17.8125 18.4523 17.8125 15.6562C17.8125 12.8602 15.5461 10.5938 12.75 10.5938ZM15.2695 18.1758C14.5969 18.8484 13.7016 19.2188 12.75 19.2188C11.7984 19.2188 10.9031 18.8484 10.2305 18.1758C9.55781 17.5031 9.1875 16.6078 9.1875 15.6562C9.1875 14.7047 9.55781 13.8094 10.2305 13.1367C10.9031 12.4641 11.7984 12.0938 12.75 12.0938C13.7016 12.0938 14.5969 12.4641 15.2695 13.1367C15.9422 13.8094 16.3125 14.7047 16.3125 15.6562C16.3125 16.6078 15.9422 17.5031 15.2695 18.1758ZM14.8359 13.875H13.7977C13.7367 13.875 13.6805 13.9031 13.6453 13.9523L12.157 16.0102L11.6156 15.2625C11.5983 15.2383 11.5754 15.2187 11.5489 15.2053C11.5224 15.1918 11.493 15.1849 11.4633 15.1852H10.4297C10.2773 15.1852 10.1883 15.3586 10.2773 15.4828L12.007 17.8758C12.082 17.9789 12.2344 17.9789 12.3094 17.8758L14.9859 14.1727C15.0773 14.0484 14.9883 13.875 14.8359 13.875ZM7.3125 18.4688H1.875V1.96875H15V10.0312C15 10.1344 15.0844 10.2188 15.1875 10.2188H16.5C16.6031 10.2188 16.6875 10.1344 16.6875 10.0312V1.03125C16.6875 0.616406 16.3523 0.28125 15.9375 0.28125H0.9375C0.522656 0.28125 0.1875 0.616406 0.1875 1.03125V19.4062C0.1875 19.8211 0.522656 20.1562 0.9375 20.1562H7.3125C7.41563 20.1562 7.5 20.0719 7.5 19.9688V18.6562C7.5 18.5531 7.41563 18.4688 7.3125 18.4688Z" fill="white"/>
</svg>
