<svg width="24" height="20" viewBox="0 0 24 20" fill="none" xmlns="http://www.w3.org/2000/svg">
<path d="M6.1414 11.733C6.1414 12.3792 5.62345 12.8812 4.96245 12.8812C4.30145 12.8812 3.7835 12.3745 3.7835 11.733C3.7835 11.0915 4.30145 10.5848 4.96245 10.5848C5.62345 10.5848 6.1414 11.0915 6.1414 11.733ZM21.7637 7.60509L20.2494 2.6218C19.7807 1.07847 18.2614 0 16.5596 0H7.60152C5.88982 0 4.37544 1.07847 3.90682 2.62645L2.39737 7.60509C0.937242 8.32097 0 9.79922 0 11.3844V19.1475C0 19.5798 0.369964 19.9424 0.804055 19.9424C1.23815 19.9424 1.60811 19.5752 1.60811 19.1475V17.1207H22.3803V19.1475C22.3803 19.5798 22.7503 19.9424 23.1844 19.9424C23.6333 19.9424 23.9885 19.5938 23.9885 19.1475V11.3844C24.1118 9.80852 23.2387 8.33027 21.7637 7.60509ZM21.0238 15.5263H3.0929C2.31844 15.5263 1.69197 14.9359 1.69197 14.2061V11.3844C1.69197 9.87824 2.99424 8.65102 4.59248 8.65102H19.5292C21.1274 8.65102 22.4297 9.87824 22.4297 11.3844V14.2061C22.4247 14.9313 21.7983 15.5263 21.0238 15.5263ZM5.52973 3.06342C5.7961 2.18484 6.62975 1.59447 7.60152 1.59447H16.5596C17.5166 1.59447 18.365 2.19878 18.6264 3.06342L19.8449 7.08444C19.7413 7.0705 19.6278 7.0612 19.5292 7.0612H4.59248C4.49383 7.0612 4.40504 7.07515 4.31625 7.08444L5.52973 3.06342ZM20.3283 11.733C20.3283 12.3559 19.7906 12.8812 19.1493 12.8812C18.513 12.8812 17.9704 12.3559 17.9704 11.733C17.9704 11.0869 18.4883 10.5848 19.1493 10.5848C19.835 10.5848 20.3283 11.0683 20.3283 11.733Z" fill="#222222"/>
</svg>
