<svg xmlns="http://www.w3.org/2000/svg" width="68" height="68" viewBox="0 0 68 68" fill="none"><g id="car 1"><path id="Vector" d="M8.5 6.375V8.5H35.0455V12.75C33.388 12.75 32.0237 14.0505 31.8877 15.6761C31.8681 15.7575 31.8581 15.841 31.858 15.9248V17H30.7955C30.5137 17 30.2435 17.1119 30.0442 17.3112C29.8449 17.5105 29.733 17.7807 29.733 18.0625C29.733 18.3443 29.8449 18.6145 30.0442 18.8138C30.2435 19.0131 30.5137 19.125 30.7955 19.125H45.6705C45.9523 19.125 46.2225 19.0131 46.4218 18.8138C46.6211 18.6145 46.733 18.3443 46.733 18.0625C46.733 17.7807 46.6211 17.5105 46.4218 17.3112C46.2225 17.1119 45.9523 17 45.6705 17H44.608V16.0076C44.6088 15.9843 44.6088 15.9609 44.608 15.9375V15.9248C44.6096 15.8368 44.6004 15.749 44.5804 15.6634C44.5106 14.8717 44.1481 14.1344 43.5638 13.5957C42.9795 13.0569 42.2153 12.7554 41.4205 12.75V8.5H59.5V6.375H8.5ZM37.1705 8.5H39.2955V12.75H37.1705V8.5ZM35.0455 14.875H41.4205C42.024 14.875 42.4766 15.3255 42.483 15.9248V17H33.983V16.0076C33.9838 15.9843 33.9838 15.9609 33.983 15.9375V15.9248C33.9812 15.7853 34.0076 15.647 34.0606 15.518C34.1135 15.389 34.1919 15.272 34.2911 15.174C34.3903 15.076 34.5082 14.999 34.6378 14.9476C34.7675 14.8963 34.9061 14.8716 35.0455 14.875ZM37.1875 21.216V23.341H39.3125V21.216H37.1875ZM32.1364 21.2713L31.1164 23.1349L32.98 24.1549L34 22.2912L32.1364 21.2713ZM44.2765 21.2713L42.4129 22.2912L43.4329 24.1549L45.2965 23.1349L44.2765 21.2713ZM30.0942 24.9985L29.0743 26.8621L30.9379 27.8821L31.9579 26.0185L30.0942 24.9985ZM46.3186 24.9985L44.455 26.0185L45.475 27.8821L47.3386 26.8621L46.3186 24.9985ZM37.1875 25.466V27.591H39.3125V25.466H37.1875ZM28.0521 28.7257L27.0321 30.5894L28.8957 31.6094L29.9158 29.7458L28.0521 28.7257ZM48.3607 28.7257L46.4971 29.7458L47.5171 31.6094L49.3808 30.5894L48.3607 28.7257ZM37.1875 29.716V31.841H39.3125V29.716H37.1875ZM28.5919 33.983C27.4826 33.983 26.4945 33.9617 25.4214 34.3272C24.3483 34.6906 23.3091 35.4131 22.0639 36.686L15.7144 42.6254L5.457 45.9106C4.658 46.1677 3.859 46.5843 3.22575 47.2515C2.53416 47.9862 2.15081 48.9583 2.15475 49.9673V53.9559C2.1194 54.1111 2.1194 54.2724 2.15475 54.4276V55.3945C2.15475 57.5493 3.67625 59.5 5.78 59.5H11.0457C11.2179 60.2926 11.5813 61.0045 12.0658 61.625H2.125V63.75H65.875V61.625H55.9087C56.3975 61.0045 56.7588 60.2926 56.9309 59.5H62.1987C64.3025 59.5 65.8261 57.5471 65.8261 55.3945V54.4977C65.8887 54.2942 65.8887 54.0765 65.8261 53.873V46.5715C65.8261 45.4941 65.4649 44.4932 64.8274 43.7282C64.1941 42.9632 63.2294 42.4277 62.152 42.4702H57.409L50.4518 36.3991L50.5261 36.4735C48.9813 34.833 47.1389 33.983 45.1711 33.983H28.5919ZM28.5919 36.0995H34.0085V40.5153C34.0085 41.6946 33.2371 42.4915 32.5061 42.4915H18.9635L23.5662 38.1884L23.5832 38.1629C24.7031 37.0196 25.4384 36.5543 26.1014 36.329C26.7665 36.1038 27.4741 36.0995 28.5919 36.0995ZM36.1335 36.0995H40.3665V40.5153C40.3665 42.67 41.8901 44.6165 43.9939 44.6165H57.0308V44.591H62.2391C62.5791 44.5697 62.9 44.7312 63.1954 45.0861C63.4865 45.4389 63.7011 45.9829 63.7011 46.5715V53.125H61.8609C61.5791 53.125 61.3088 53.2369 61.1096 53.4362C60.9103 53.6355 60.7984 53.9057 60.7984 54.1875C60.7984 54.4693 60.9103 54.7395 61.1096 54.9388C61.3088 55.1381 61.5791 55.25 61.8609 55.25H63.7011V55.3945C63.7011 56.5739 62.9298 57.375 62.1987 57.375H56.95C56.4655 54.8973 54.2364 53.0294 51.595 53.0294C48.96 53.0294 46.733 54.8824 46.2357 57.3452L21.7472 57.375C21.2606 54.8973 19.0273 53.0294 16.3859 53.0294C13.7424 53.0294 11.5133 54.8994 11.0266 57.375H5.78212C5.05112 57.375 4.27975 56.5739 4.27975 55.3945V55.25H6.13912C6.42092 55.25 6.69117 55.1381 6.89043 54.9388C7.08968 54.7395 7.20162 54.4693 7.20162 54.1875C7.20162 53.9057 7.08968 53.6355 6.89043 53.4362C6.69117 53.2369 6.42092 53.125 6.13912 53.125H4.27975V49.9673C4.27975 49.3935 4.454 49.0407 4.76425 48.7135C5.0745 48.3862 5.55687 48.1121 6.10512 47.9379L16.456 44.6165H32.5061C34.6099 44.6165 36.1335 42.67 36.1335 40.5153V36.0995ZM42.4915 36.0995H45.1732C46.5715 36.0995 47.7339 36.601 48.977 37.9228L49.0153 37.9652L54.2088 42.4915H43.9939C43.2629 42.4915 42.4915 41.6946 42.4915 40.5153V36.0995ZM30.9485 46.7585C30.809 46.7656 30.6722 46.8001 30.546 46.8601C30.4198 46.9201 30.3067 47.0043 30.2131 47.108C30.1194 47.2117 30.0471 47.3328 30.0003 47.4645C29.9535 47.5961 29.9331 47.7357 29.9402 47.8752C29.9473 48.0147 29.9818 48.1515 30.0418 48.2777C30.1018 48.4039 30.186 48.517 30.2897 48.6106C30.3934 48.7043 30.5145 48.7765 30.6462 48.8234C30.7778 48.8702 30.9173 48.8906 31.0569 48.8835H33.9894C34.2712 48.8835 34.5414 48.7716 34.7407 48.5723C34.9399 48.373 35.0519 48.1028 35.0519 47.821C35.0519 47.5392 34.9399 47.269 34.7407 47.0697C34.5414 46.8704 34.2712 46.7585 33.9894 46.7585H31.0569C31.0215 46.7567 30.9839 46.7567 30.9485 46.7585ZM41.2378 46.7585C40.956 46.7729 40.6914 46.8986 40.5023 47.108C40.3132 47.3174 40.2151 47.5934 40.2294 47.8752C40.2438 48.157 40.3695 48.4215 40.579 48.6106C40.7884 48.7997 41.0643 48.8979 41.3461 48.8835H44.2786C44.5604 48.8835 44.8307 48.7716 45.0299 48.5723C45.2292 48.373 45.3411 48.1028 45.3411 47.821C45.3411 47.5392 45.2292 47.269 45.0299 47.0697C44.8307 46.8704 44.5604 46.7585 44.2786 46.7585H41.3461C41.3107 46.7567 41.2731 46.7567 41.2378 46.7585ZM16.3859 55.1544C18.2601 55.1544 19.7264 56.5994 19.7264 58.3886C19.7264 60.1736 18.2601 61.6186 16.3859 61.6186C14.5116 61.6186 13.0496 60.1736 13.0496 58.3886C13.0496 56.5994 14.5116 55.1544 16.3859 55.1544ZM51.5929 55.1544C53.4671 55.1544 54.9291 56.5994 54.9291 58.3886C54.9291 60.1736 53.4671 61.6186 51.5929 61.6186C49.7186 61.6186 48.2524 60.1736 48.2524 58.3886C48.2524 56.5994 49.7186 55.1544 51.5929 55.1544ZM46.2379 59.4702C46.4079 60.2756 46.784 60.996 47.277 61.625H20.7017C21.2023 61.0042 21.5547 60.2774 21.7324 59.5L46.2379 59.4702Z" fill="#EFA503"></path></g></svg>