<svg xmlns="http://www.w3.org/2000/svg" width="48" height="48" viewBox="0 0 48 48" fill="none"><rect x="-0.5" y="0.5" width="47" height="47" rx="23.5" transform="matrix(-1 0 0 1 47 0)" fill="#03040B" stroke="#43454E"></rect><path d="M20.8837 18.2302C20.9407 18.1619 21.0113 18.1062 21.0909 18.0667C21.1706 18.0272 21.2577 18.0047 21.3465 18.0007C21.4354 17.9966 21.5241 18.0112 21.607 18.0434C21.6899 18.0755 21.7653 18.1246 21.8282 18.1875C21.891 18.2504 21.9401 18.3257 21.9723 18.4087C22.0045 18.4916 22.019 18.5803 22.015 18.6691C22.011 18.758 21.9885 18.845 21.949 18.9247C21.9095 19.0044 21.8538 19.075 21.7855 19.132L17.1847 23.7381H32.392C32.5561 23.7469 32.7107 23.8182 32.8238 23.9375C32.9369 24.0568 33 24.2149 33 24.3793C33 24.5437 32.9369 24.7018 32.8238 24.8211C32.7107 24.9404 32.5561 25.0117 32.392 25.0204H17.1847L21.7927 29.6212C21.9087 29.7427 21.9734 29.9042 21.9734 30.0721C21.9734 30.24 21.9087 30.4015 21.7927 30.523C21.7335 30.5823 21.6633 30.6294 21.5859 30.6615C21.5085 30.6936 21.4256 30.7101 21.3418 30.7101C21.258 30.7101 21.1751 30.6936 21.0977 30.6615C21.0203 30.6294 20.9501 30.5823 20.8909 30.523L15.1918 24.8239C15.1312 24.7655 15.0829 24.6954 15.0499 24.618C15.017 24.5405 15 24.4572 15 24.373C15 24.2888 15.017 24.2055 15.0499 24.128C15.0829 24.0505 15.1312 23.9805 15.1918 23.9221L20.8837 18.2302Z" fill="white" stroke="white"></path></svg>