<svg xmlns="http://www.w3.org/2000/svg" width="48" height="48" viewBox="0 0 48 48" fill="none"><rect x="0.5" y="-0.5" width="47" height="47" rx="23.5" transform="matrix(1 1.74846e-07 1.74846e-07 -1 8.74228e-08 47)" fill="#03040B" stroke="#43454E"></rect><path d="M27.1163 29.7698C27.0593 29.8381 26.9887 29.8938 26.9091 29.9333C26.8294 29.9728 26.7423 29.9953 26.6535 29.9993C26.5646 30.0034 26.4759 29.9888 26.393 29.9566C26.3101 29.9245 26.2347 29.8754 26.1718 29.8125C26.109 29.7496 26.0599 29.6743 26.0277 29.5913C25.9955 29.5084 25.981 29.4197 25.985 29.3309C25.989 29.242 26.0115 29.155 26.051 29.0753C26.0905 28.9956 26.1462 28.925 26.2145 28.868L30.8153 24.2619L15.608 24.2619C15.4439 24.2531 15.2893 24.1818 15.1762 24.0625C15.0631 23.9432 15 23.7851 15 23.6207C15 23.4563 15.0631 23.2982 15.1762 23.1789C15.2893 23.0596 15.4439 22.9883 15.608 22.9796L30.8153 22.9796L26.2073 18.3788C26.0913 18.2573 26.0266 18.0958 26.0266 17.9279C26.0266 17.76 26.0913 17.5985 26.2073 17.477C26.2665 17.4177 26.3367 17.3706 26.4141 17.3385C26.4915 17.3064 26.5744 17.2899 26.6582 17.2899C26.742 17.2899 26.8249 17.3064 26.9023 17.3385C26.9797 17.3706 27.0499 17.4177 27.1091 17.477L32.8082 23.1761C32.8688 23.2345 32.9171 23.3046 32.9501 23.382C32.983 23.4595 33 23.5428 33 23.627C33 23.7112 32.983 23.7945 32.9501 23.872C32.9171 23.9495 32.8688 24.0195 32.8082 24.0779L27.1163 29.7698Z" fill="white" stroke="white"></path></svg>