<svg xmlns="http://www.w3.org/2000/svg" width="68" height="68" viewBox="0 0 68 68" fill="none"><g id="seat 1"><path id="Vector" d="M42.2662 19.5156H25.7348V21.6406H42.2662V19.5156Z" fill="#EFA503"></path><path id="Vector_2" d="M60.282 58.6723V51.4027C60.2809 50.3766 59.8729 49.3929 59.1474 48.6673C58.422 47.9417 57.4384 47.5334 56.4124 47.532H54.9844V21.5199C54.9818 19.4965 54.1768 17.5567 52.7458 16.1261C51.3148 14.6955 49.3748 13.891 47.3514 13.889H45.8001C45.9864 13.4546 46.0826 12.9868 46.0828 12.5141V6.15613C46.0811 5.2286 45.7119 4.33953 45.0562 3.68358C44.4004 3.02762 43.5115 2.65822 42.5839 2.65625H25.4161C24.4885 2.65822 23.5996 3.02762 22.9438 3.68358C22.2881 4.33953 21.9189 5.2286 21.9172 6.15613V12.5141C21.9174 12.9868 22.0136 13.4546 22.1999 13.889H20.6486C18.6252 13.891 16.6852 14.6955 15.2542 16.1261C13.8232 17.5567 13.0182 19.4965 13.0156 21.5199V47.532H11.5876C10.5616 47.5334 9.57798 47.9417 8.85256 48.6673C8.12714 49.3929 7.71912 50.3766 7.718 51.4027V58.6723C7.72025 60.8335 8.57979 62.9056 10.108 64.4338C11.6362 65.962 13.7083 66.8216 15.8695 66.8238H52.1305C54.2917 66.8216 56.3638 65.962 57.892 64.4338C59.4202 62.9056 60.2797 60.8335 60.282 58.6723ZM38.25 4.78125V7.4375H29.75V4.78125H38.25ZM24.0422 12.5141V6.15613C24.0439 5.79219 24.1892 5.44361 24.4464 5.18617C24.7037 4.92872 25.0521 4.78321 25.4161 4.78125H27.625V8.5C27.625 8.78179 27.7369 9.05204 27.9362 9.2513C28.1355 9.45056 28.4057 9.5625 28.6875 9.5625H39.3125C39.5943 9.5625 39.8645 9.45056 40.0638 9.2513C40.2631 9.05204 40.375 8.78179 40.375 8.5V4.78125H42.5839C42.9479 4.78321 43.2963 4.92872 43.5536 5.18617C43.8108 5.44361 43.9561 5.79219 43.9578 6.15613V12.5141C43.9561 12.8781 43.8108 13.2266 43.5536 13.4841C43.2963 13.7415 42.9479 13.887 42.5839 13.889H25.4161C25.0521 13.887 24.7037 13.7415 24.4464 13.4841C24.1892 13.2266 24.0439 12.8781 24.0422 12.5141ZM15.1406 21.5199C15.1426 20.0599 15.7236 18.6602 16.7562 17.6281C17.7888 16.5959 19.1886 16.0154 20.6486 16.014H47.3514C48.8114 16.0154 50.2112 16.5959 51.2438 17.6281C52.2764 18.6602 52.8574 20.0599 52.8594 21.5199V47.532H52.0752C51.3091 47.534 50.5566 47.7344 49.8909 48.1137C49.2252 48.493 48.6691 49.0382 48.2768 49.6963L46.2952 53.0421H43.3277V30.7062C43.3268 29.8006 42.9666 28.9324 42.3262 28.2921C41.6857 27.6519 40.8174 27.2919 39.9117 27.2914H28.0882C27.1826 27.2919 26.3143 27.6519 25.6738 28.2921C25.0334 28.9324 24.6732 29.8006 24.6723 30.7062V53.04H21.7047L19.7221 49.6942C19.3301 49.0361 18.7743 48.4908 18.1087 48.1115C17.4432 47.7321 16.6908 47.5318 15.9247 47.5299H15.1406V21.5199ZM41.2027 44.3063H26.7973V30.7062C26.7979 30.3641 26.9341 30.0362 27.1761 29.7944C27.4181 29.5526 27.7461 29.4167 28.0882 29.4164H39.9117C40.2539 29.4167 40.5819 29.5526 40.8239 29.7944C41.0659 30.0362 41.2021 30.3641 41.2027 30.7062V44.3063ZM26.7973 46.4313H41.2027V53.0474H26.7973V46.4313ZM9.843 58.6723V51.4027C9.84356 50.9401 10.0275 50.4965 10.3545 50.1693C10.6816 49.8421 11.125 49.6578 11.5876 49.657H15.9247C16.3222 49.658 16.7125 49.762 17.0578 49.9588C17.403 50.1556 17.6913 50.4386 17.8946 50.7801L20.1875 54.6465C20.2815 54.8051 20.4152 54.9365 20.5754 55.0278C20.7357 55.1191 20.9169 55.1671 21.1012 55.1671H46.9019C47.0863 55.1671 47.2675 55.1191 47.4277 55.0278C47.5879 54.9365 47.7216 54.8051 47.8157 54.6465L50.1054 50.7801C50.3088 50.4387 50.5972 50.1559 50.9424 49.9591C51.2876 49.7623 51.6779 49.6582 52.0752 49.657H56.4124C56.875 49.6578 57.3184 49.8421 57.6455 50.1693C57.9725 50.4965 58.1564 50.9401 58.157 51.4027V58.6723C58.1553 60.2701 57.5198 61.802 56.39 62.9318C55.2602 64.0616 53.7283 64.6971 52.1305 64.6988H15.8695C14.2717 64.6971 12.7398 64.0616 11.61 62.9318C10.4802 61.802 9.84469 60.2701 9.843 58.6723Z" fill="#EFA503"></path></g></svg>