<svg xmlns="http://www.w3.org/2000/svg" width="68" height="68" viewBox="0 0 68 68" fill="none"><path d="M23.5512 59.7945H22.8887V61.7951C22.8887 63.1666 21.7851 64.279 20.4244 64.279C19.0637 64.279 17.96 63.1666 17.96 61.7951V59.7945H17.8376V61.7951C17.8376 63.1666 16.734 64.279 15.3733 64.279C14.0126 64.279 12.9089 63.1666 12.9089 61.7951V59.7945H12.7866V61.7951C12.7866 63.1666 11.6829 64.279 10.3222 64.279C8.96148 64.279 7.85783 63.1666 7.85783 61.7951V59.7945H7.1954V61.7951C7.1954 63.1666 6.09175 64.279 4.73103 64.279C3.37032 64.279 2.26667 63.1666 2.26667 61.7951V50.3955C2.26667 48.2205 4.02781 46.4466 6.18444 46.4466H10.8326V42.2012C10.8326 41.5945 11.3208 41.1025 11.9227 41.1025H12.6778V16.0847C12.6778 7.20648 19.8287 0 28.6356 0C36.8271 0 43.6851 6.26098 44.5082 14.4441H46.5585C47.1604 14.4441 47.6486 14.9362 47.6486 15.5428V18.3768C48.1479 18.2261 48.6311 18.1003 49.0921 17.9994C50.6567 17.6593 52.0298 17.602 53.0618 17.8748C54.4768 18.2498 55.3061 19.1479 55.3061 20.649V22.5774H56.0427C57.8113 22.5774 59.2536 24.0324 59.2536 25.8138V29.9707C59.2536 31.7521 57.8113 33.2059 56.0427 33.2059H55.3061V43.8244C61.2298 44.6266 65.7333 49.7415 65.7333 55.8567C65.7333 62.5624 60.3399 68 53.6871 68C50.1661 68 46.9824 66.4752 44.7702 64.0212H35.3675C31.6549 64.0212 28.622 60.9642 28.622 57.2233V37.5111C28.622 32.6478 31.9898 28.0959 36.2796 24.588V15.5428C36.2796 14.9362 36.7678 14.4441 37.3697 14.4441H39.1506C38.587 10.7543 36.1251 7.60012 32.7079 6.17378C30.1212 5.09374 27.1501 5.09374 24.5646 6.17378C21.9754 7.25382 19.8756 9.37154 18.8029 11.9813C18.285 13.2395 17.9995 14.626 17.9995 16.0847V41.1025H18.8239C19.4258 41.1025 19.9139 41.5945 19.9139 42.2012V46.4466H24.5621C26.72 46.4466 28.4799 48.2205 28.4799 50.3955V61.7951C28.4799 63.1666 27.3762 64.279 26.0155 64.279C24.6548 64.279 23.5512 63.1666 23.5512 61.7951V59.7945ZM55.3061 24.7748V31.0084H56.0427C56.6075 31.0084 57.0735 30.5388 57.0735 29.9707V25.8138C57.0735 25.2445 56.6075 24.7748 56.0427 24.7748H55.3061ZM54.1901 45.9246L53.6871 45.9122C48.1886 45.9122 43.7456 50.4466 43.821 55.99C43.8952 61.4301 48.2863 65.8026 53.6871 65.8026C59.1362 65.8026 63.5532 61.3504 63.5532 55.8567C63.5532 50.5475 59.4179 46.19 54.1901 45.9246ZM43.1932 61.825C42.1847 60.0262 41.6397 57.9832 41.6397 55.8567C41.6397 51.0931 44.3895 46.8614 48.5273 44.882C49.972 44.1906 51.5255 43.8032 53.1273 43.7284V20.649C53.1273 20.3114 52.8986 20.0984 52.5081 19.995C51.8197 19.8131 50.7939 19.8754 49.5518 20.1458C48.2134 20.4372 46.6771 20.9654 45.0742 21.6892C38.5005 24.6565 30.8021 30.839 30.8021 37.5111V57.2233C30.8021 59.7521 32.8587 61.825 35.3675 61.825H43.1932ZM53.6871 52.2055C51.6862 52.2055 50.0647 53.8412 50.0647 55.8567C50.0647 57.8736 51.6862 59.5079 53.6871 59.5079C55.688 59.5079 57.3095 57.8736 57.3095 55.8567C57.3095 53.8412 55.688 52.2055 53.6871 52.2055ZM49.584 51.7222C51.8493 49.4376 55.5236 49.4376 57.789 51.7222C60.0557 54.0056 60.0557 57.7091 57.789 59.9925C55.5236 62.2772 51.8493 62.2772 49.584 59.9925C47.3173 57.7091 47.3173 54.0056 49.584 51.7222ZM22.8887 57.597H23.5512V56.6291C23.5512 55.1454 24.834 53.9919 26.2998 54.1613V50.3955C26.2998 49.4338 25.5162 48.644 24.5621 48.644H6.18444C5.23033 48.644 4.44678 49.4338 4.44678 50.3955V54.1613C5.91254 53.9919 7.1954 55.1454 7.1954 56.6291V57.597H7.85783V56.6291C7.85783 55.2576 8.96148 54.1451 10.3222 54.1451C11.6829 54.1451 12.7866 55.2576 12.7866 56.6291V57.597H12.9089V56.6291C12.9089 55.2576 14.0126 54.1451 15.3733 54.1451C16.734 54.1451 17.8376 55.2576 17.8376 56.6291V57.597H17.96V56.6291C17.96 55.2576 19.0637 54.1451 20.4244 54.1451C21.7851 54.1451 22.8887 55.2576 22.8887 56.6291V57.597ZM4.52958 56.426C4.47891 56.4784 4.44678 56.5494 4.44678 56.6291V61.7951C4.44678 62.0505 4.75451 62.1775 4.93248 61.9981C4.98315 61.9458 5.01529 61.8736 5.01529 61.7951V56.6291C5.01529 56.3737 4.70755 56.2467 4.52958 56.426ZM25.8141 56.426C25.7634 56.4784 25.7313 56.5494 25.7313 56.6291V61.7951C25.7313 62.0505 26.039 62.1775 26.217 61.9981C26.2677 61.9458 26.2998 61.8736 26.2998 61.7951V56.6291C26.2998 56.3737 25.9921 56.2467 25.8141 56.426ZM20.2229 56.426C20.1722 56.4784 20.1401 56.5494 20.1401 56.6291V61.7951C20.1401 62.0505 20.4478 62.1775 20.6258 61.9981C20.6777 61.9458 20.7086 61.8736 20.7086 61.7951V56.6291C20.7086 56.3737 20.4021 56.2467 20.2229 56.426ZM10.1207 56.426C10.0688 56.4784 10.0379 56.5494 10.0379 56.6291V61.7951C10.0379 62.0505 10.3444 62.1775 10.5236 61.9981C10.5743 61.9458 10.6065 61.8736 10.6065 61.7951V56.6291C10.6065 56.3737 10.2987 56.2467 10.1207 56.426ZM15.1718 56.426C15.1212 56.4784 15.089 56.5494 15.089 56.6291V61.7951C15.089 62.0505 15.3968 62.1775 15.5747 61.9981C15.6254 61.9458 15.6575 61.8736 15.6575 61.7951V56.6291C15.6575 56.3737 15.3498 56.2467 15.1718 56.426ZM17.7338 46.4466V43.2999H13.0127V46.4466H17.7338ZM15.8194 41.1025V16.0847C15.8194 8.95547 21.5626 3.16661 28.6356 3.16661C35.0894 3.16661 40.5397 8.01495 41.3455 14.4441H42.3219C41.7398 9.46372 38.4968 5.16225 33.9079 3.24634C30.5562 1.8474 26.715 1.8474 23.3633 3.24634C20.0054 4.64902 17.2901 7.38586 15.8985 10.7705C15.2287 12.4024 14.8579 14.1962 14.8579 16.0847V41.1025H15.8194ZM38.4597 22.9461C40.6856 21.4002 43.1067 20.0884 45.4684 19.1442V16.6415H38.4597V22.9461Z" fill="#EFA503"></path></svg>