<svg xmlns="http://www.w3.org/2000/svg" viewBox="0 0 178.87 178.93"><title>VinFast logo</title><path d="M486.17,589.37c-2.45-2.77-6-3.86-6.48-7.8H474.8v19.85h4.81v-12c0,.74,3.46,2.73,4.81,4.78a8,8,0,0,1,1.71,3.92,20.91,20.91,0,0,1,.13,3.36H491V581.58h-4.79Z" transform="translate(-422.56 -422.53)" style="fill:#3c3c3c"></path><path d="M540.12,581.56h-4.87c-1.51,5-3.33,10.81-4.87,15.79-.41,1.36-.78,2.62-1.23,4.05h3.72c1.36,0,1.36,0,1.86-1.36s.5-1.6,2.27-1.6,2.53.2,3.27-1.13l.63-1.21c.41,1.75.84,3.51,1.26,5.31H548c-.13-.45-3.72-12.3-5.57-18.27a2.17,2.17,0,0,0-2.34-1.6Zm-2.58,12.56c-.35,0-1.08.17-1.23.65l.2-.65,1.86-6.3c.13.41,1.25,4.22,1.86,6.3Z" transform="translate(-422.56 -422.53)" style="fill:#3c3c3c"></path><path d="M570.18,590.5c-2.64-1.24-4.76-1.36-4.76-3,0-1.06.82-1.75,2.19-1.75,1.65,0,3.23.71,3.23,1.86a2.36,2.36,0,0,0,2.21-1.54,3,3,0,0,0-1.11-3.08,9.4,9.4,0,0,0-8.62-.63,5,5,0,0,0-3.27,4.94c0,2.77,2.94,4.37,4,5s2.58,1.26,3.42,1.71,1.47,1.34,1.32,2-1.24,1.06-1.86,1a7.43,7.43,0,0,1-3.38-1,12.78,12.78,0,0,1-3.51-2.55V597c0,1.39,1.24,2.34,2.36,3.07a9,9,0,0,0,4.85,1.32,7.1,7.1,0,0,0,5.17-1.86,5.67,5.67,0,0,0,1.62-3.88c0-2.27-1-3.72-3.94-5.17" transform="translate(-422.56 -422.53)" style="fill:#3c3c3c"></path><path d="M435.65,581.62c.41,4.59-2.19,8.42-3.21,12.6-.89-2.42-2.79-8.36-3.57-10.74-.3-.91-.67-1.86-1.86-1.86h-4.44v.24c2.29,6.39,4.7,13.21,7,19.6h4a2.36,2.36,0,0,0,1.86-1.56c.67-2,3.72-10.22,4.61-13a12.8,12.8,0,0,0,.76-5.22Z" transform="translate(-422.56 -422.53)" style="fill:#3c3c3c"></path><path d="M506.17,601.43h5.41v-7.75h2.86c1.86,0,2.77-1,2.77-2.53v-1.86h-5.57v-3.23h6.26v-4.5H506.17Z" transform="translate(-422.56 -422.53)" style="fill:#3c3c3c"></path><path d="M593.61,581.56h-7.77v4.18h4.68v15.68H596V585.75c3.2,0,3.53.11,4.61-.76s.85-1.28.85-4.39c-1.45,1.11-5.28,1-7.82,1" transform="translate(-422.56 -422.53)" style="fill:#3c3c3c"></path><path d="M457.67,581.56h-3.31v19.86h5.35V583.52a1.75,1.75,0,0,0-2-1.86" transform="translate(-422.56 -422.53)" style="fill:#3c3c3c"></path><path d="M583.52,422.74c-2.64-1.19-6.54,3.07-7.86,3.51a21.43,21.43,0,0,0-10.52,5.39c-5.09,5-37,53-44.67,61.93-4.09,4.78-7.43,9-8.47,9s-4.39-4.26-8.47-9c-7.66-8.94-39.62-56.92-44.69-61.93a21.43,21.43,0,0,0-10.52-5.39c-1.32-.45-5.2-4.7-7.86-3.51-2,.93.17,5.22.17,5.22.91,2.68,12,28.82,23.13,53.05,10,21.85,19.47,40.69,23.17,48.05,14.87,29.51,23,32.57,25,32.61s10.26-3.08,25-32.61c3.72-7.43,13.16-26.2,23.19-48.05,11.15-24.16,22.3-50.38,23.1-53.05C583.34,428,585.55,423.67,583.52,422.74Zm-3.72,6.09c-4.89,5.56-39.45,77.32-47.25,90.59S514.79,549.16,512,549.16s-12.62-16.41-20.44-29.73-42.42-85-47.31-90.59c-1.28-1.51-4.44-4.44-3.31-5.07,1.65-.91,5.57,3.47,7.88,4.07a14.68,14.68,0,0,1,8.44,4.42c4.18,4,11.86,16.5,25.42,36.74,8.47,12.67,15.53,22.43,19.49,27.41,4.92,6.24,8.32,9.29,9.81,9.29s4.87-3,9.79-9.29c4-5,11-14.72,19.49-27.41,13.57-20.24,21.22-32.76,25.44-36.74a14.62,14.62,0,0,1,8.44-4.42c2.34-.59,6.22-5,7.86-4.07,1.19.63-2,3.57-3.29,5.07Z" transform="translate(-422.56 -422.53)" style="fill:#3c3c3c"></path><path d="M572,432.74c-1.86,3-9.11,17.28-18.36,34.08-10.28,18.79-22.56,40-25,44.17C524,518.74,514.86,532,512,532c-2.84-.11-12-13.3-16.58-21.07-2.43-4.13-14.64-25.36-25-44.15-9.29-16.72-16.61-31-18.36-34.08s-1.21-4.09,2.42,0c5.41,6.26,18.38,28.82,18.38,28.82s22.37,37.31,25.87,42.26S509.38,518,512,518.09c2.62-.09,9.94-9.59,13.25-14.27s25.9-42.26,25.9-42.26,13-22.5,18.41-28.71C573.16,428.65,573.73,429.43,572,432.74Z" transform="translate(-422.56 -422.53)" style="fill:#3c3c3c"></path></svg>