<svg xmlns="http://www.w3.org/2000/svg" width="68" height="68" viewBox="0 0 68 68" fill="none"><path d="M34 29.2404C31.348 29.2404 29.24 31.3484 29.24 34.0004C29.24 36.6524 31.348 38.7604 34 38.7604C36.652 38.7604 38.76 36.6524 38.76 34.0004C38.76 31.3484 36.652 29.2404 34 29.2404ZM34 36.0404C32.844 36.0404 31.96 35.0884 31.96 34.0004C31.96 32.8444 32.844 31.9604 34 31.9604C35.156 31.9604 36.04 32.8444 36.04 34.0004C36.04 35.0884 35.156 36.0404 34 36.0404ZM34 3.40039C17.136 3.40039 3.4 17.1364 3.4 34.0004C3.4 50.8644 17.136 64.6004 34 64.6004C50.864 64.6004 64.6 50.8644 64.6 34.0004C64.6 17.1364 50.864 3.40039 34 3.40039ZM34 61.8804C18.632 61.8804 6.12 49.3684 6.12 34.0004C6.12 18.6324 18.632 6.12039 34 6.12039C49.368 6.12039 61.88 18.6324 61.88 34.0004C61.88 49.3684 49.368 61.8804 34 61.8804ZM34 10.2004C20.876 10.2004 10.2 20.8764 10.2 34.0004C10.2 47.1244 20.876 57.8004 34 57.8004C47.124 57.8004 57.8 47.1244 57.8 34.0004C57.8 20.8764 47.124 10.2004 34 10.2004ZM54.536 29.3084H42.704L42.432 28.8324L48.348 18.5644C51.408 21.4204 53.584 25.0924 54.536 29.3084ZM34 12.9204C36.176 12.9204 38.284 13.2604 40.256 13.8724L34.34 24.1404H33.728L27.812 13.8724C29.716 13.2604 31.824 12.9204 34 12.9204ZM19.652 18.5644L25.568 28.8324L25.296 29.3084H13.464C14.416 25.0924 16.592 21.4204 19.652 18.5644ZM13.464 38.6924H25.296L25.568 39.1684L19.652 49.4364C16.592 46.5804 14.416 42.9084 13.464 38.6924ZM34 55.0804C31.824 55.0804 29.716 54.7404 27.744 54.1284L33.66 43.8604H34.272L40.188 54.1284C38.284 54.7404 36.176 55.0804 34 55.0804ZM48.348 49.4364L42.432 39.1684L42.704 38.6924H54.536C53.584 42.9084 51.408 46.5804 48.348 49.4364ZM55.012 35.9724H41.888C41.412 35.9724 40.936 36.2444 40.732 36.6524L39.644 38.4884C39.372 38.8964 39.372 39.4404 39.644 39.8484L46.172 51.1364C45.832 51.4084 45.424 51.6804 45.016 51.8844L43.86 52.5644C43.52 52.7684 43.112 52.9724 42.704 53.1084L36.176 41.8204C35.972 41.4124 35.496 41.1404 35.02 41.1404H32.844C32.368 41.1404 31.892 41.4124 31.688 41.8204L25.16 53.1084C24.752 52.9044 24.412 52.7684 24.004 52.5644L22.848 51.8844C22.44 51.6124 22.1 51.4084 21.692 51.1364L28.22 39.8484C28.492 39.4404 28.492 38.8964 28.22 38.4884L27.132 36.6524C26.86 36.2444 26.452 35.9724 25.976 35.9724H12.988C12.988 35.5644 12.92 35.0884 12.92 34.6804V33.3204C12.92 32.9124 12.988 32.4364 12.988 32.0284H26.044C26.52 32.0284 26.996 31.7564 27.2 31.3484L28.288 29.5124C28.56 29.1044 28.56 28.5604 28.288 28.1524L21.76 16.7964C22.1 16.5244 22.508 16.2524 22.916 16.0484L24.004 15.4364C24.344 15.2324 24.752 15.0284 25.16 14.8924L31.688 26.2484C31.892 26.6564 32.368 26.9284 32.844 26.9284H35.02C35.496 26.9284 35.972 26.6564 36.176 26.2484L42.704 14.8924C43.112 15.0964 43.452 15.2324 43.86 15.4364L44.948 16.0484C45.356 16.3204 45.696 16.5244 46.104 16.7964L39.576 28.1524C39.304 28.5604 39.304 29.1044 39.576 29.5124L40.664 31.3484C40.936 31.7564 41.344 32.0284 41.82 32.0284H54.876C54.944 32.4364 54.944 32.9124 54.944 33.3204V34.6804C55.08 35.0884 55.012 35.4964 55.012 35.9724Z" fill="#EFA503"></path></svg>